# Blender v2.83.0 OBJ File: ''
# www.blender.org
o Cube.002_Cube.1063
v -0.193802 0.407225 1.974376
v -1.455858 -0.650328 2.148587
v -0.963410 1.114081 0.690003
v -2.225466 0.056528 0.864214
v -0.939772 1.467174 3.004712
v -2.201829 0.409621 3.178923
v -1.709380 2.174030 1.720339
v -2.971437 1.116476 1.894550
vn 0.4505 -0.6402 -0.6223
vn -0.4648 0.4269 -0.7757
vn -0.4505 0.6402 0.6223
vn 0.4648 -0.4269 0.7757
vn 0.7622 0.6387 -0.1052
vn -0.7622 -0.6387 0.1052
s off
f 2//1 3//1 1//1
f 4//2 7//2 3//2
f 8//3 5//3 7//3
f 6//4 1//4 5//4
f 7//5 1//5 3//5
f 4//6 6//6 8//6
f 2//1 4//1 3//1
f 4//2 8//2 7//2
f 8//3 6//3 5//3
f 6//4 2//4 1//4
f 7//5 5//5 1//5
f 4//6 2//6 6//6
