# Blender v2.83.0 OBJ File: ''
# www.blender.org
o Cube.022_Cube.1083
v 1.315005 1.304925 0.524848
v 1.528242 1.200873 -0.388699
v 0.544478 1.796390 0.289017
v 0.757715 1.692338 -0.624530
v 0.813323 0.505862 0.498760
v 1.026560 0.401810 -0.414788
v 0.042796 0.997328 0.262929
v 0.256033 0.893276 -0.650619
vn 0.5315 0.8466 0.0276
vn -0.8164 0.5207 -0.2499
vn -0.5315 -0.8466 -0.0276
vn 0.8164 -0.5207 0.2499
vn -0.2259 0.1102 0.9679
vn 0.2259 -0.1102 -0.9679
s off
f 2//1 3//1 1//1
f 4//2 7//2 3//2
f 8//3 5//3 7//3
f 6//4 1//4 5//4
f 7//5 1//5 3//5
f 4//6 6//6 8//6
f 2//1 4//1 3//1
f 4//2 8//2 7//2
f 8//3 6//3 5//3
f 6//4 2//4 1//4
f 7//5 5//5 1//5
f 4//6 2//6 6//6
