# Blender v2.83.0 OBJ File: ''
# www.blender.org
o Cube.015_Cube.1076
v 0.920011 -1.002134 -0.600347
v 1.492818 -0.914037 0.550807
v 0.204288 0.033284 -0.323448
v 0.777095 0.121381 0.827706
v 1.825913 -0.239788 -1.109459
v 2.398719 -0.151691 0.041695
v 1.110190 0.795630 -0.832560
v 1.682996 0.883727 0.318594
vn -0.7029 -0.5915 0.3950
vn -0.5553 0.8034 0.2148
vn 0.7029 0.5915 -0.3950
vn 0.5553 -0.8034 -0.2148
vn -0.4444 -0.0684 -0.8932
vn 0.4444 0.0684 0.8932
s off
f 2//1 3//1 1//1
f 4//2 7//2 3//2
f 8//3 5//3 7//3
f 6//4 1//4 5//4
f 7//5 1//5 3//5
f 4//6 6//6 8//6
f 2//1 4//1 3//1
f 4//2 8//2 7//2
f 8//3 6//3 5//3
f 6//4 2//4 1//4
f 7//5 5//5 1//5
f 4//6 2//6 6//6
