# Blender v2.83.0 OBJ File: ''
# www.blender.org
o Cube.047_Cube.1108
v 2.457135 -2.524234 0.375642
v 3.055842 -1.080748 -0.327282
v 0.915680 -1.797604 0.554896
v 1.514387 -0.354117 -0.148029
v 2.008054 -3.093937 -1.176766
v 2.606762 -1.650451 -1.879691
v 0.466600 -2.367306 -0.997513
v 1.065307 -0.923820 -1.700438
vn 0.2621 0.3325 0.9060
vn -0.8996 0.4241 0.1046
vn -0.2621 -0.3325 -0.9060
vn 0.8996 -0.4241 -0.1046
vn -0.3494 -0.8424 0.4102
vn 0.3494 0.8424 -0.4102
s off
f 2//1 3//1 1//1
f 4//2 7//2 3//2
f 8//3 5//3 7//3
f 6//4 1//4 5//4
f 7//5 1//5 3//5
f 4//6 6//6 8//6
f 2//1 4//1 3//1
f 4//2 8//2 7//2
f 8//3 6//3 5//3
f 6//4 2//4 1//4
f 7//5 5//5 1//5
f 4//6 2//6 6//6
