# Blender v2.83.0 OBJ File: ''
# www.blender.org
o Cube.035_Cube.1096
v 2.302330 0.985085 -0.167834
v 2.422081 1.110408 1.181649
v 0.952115 1.113231 -0.059919
v 1.071866 1.238554 1.289564
v 2.419492 2.333796 -0.303483
v 2.539243 2.459120 1.046000
v 1.069277 2.461943 -0.195567
v 1.189028 2.587266 1.153916
vn -0.0861 -0.9913 0.0997
vn -0.9924 0.0942 0.0793
vn 0.0861 0.9913 -0.0997
vn 0.9924 -0.0942 -0.0793
vn -0.0880 -0.0921 -0.9919
vn 0.0880 0.0921 0.9919
s off
f 2//1 3//1 1//1
f 4//2 7//2 3//2
f 8//3 5//3 7//3
f 6//4 1//4 5//4
f 7//5 1//5 3//5
f 4//6 6//6 8//6
f 2//1 4//1 3//1
f 4//2 8//2 7//2
f 8//3 6//3 5//3
f 6//4 2//4 1//4
f 7//5 5//5 1//5
f 4//6 2//6 6//6
