# Blender v2.83.0 OBJ File: ''
# www.blender.org
o Cube.029_Cube.1090
v -2.400071 -1.447093 -0.872215
v -2.059560 -1.556600 -0.462710
v -2.002708 -1.181721 -1.131665
v -1.662197 -1.291229 -0.722161
v -2.252461 -1.908850 -1.118436
v -1.911950 -2.018358 -0.708931
v -1.855098 -1.643479 -1.377887
v -1.514587 -1.752986 -0.968382
vn -0.2715 0.8493 0.4528
vn 0.7308 0.4881 -0.4772
vn 0.2715 -0.8493 -0.4528
vn -0.7308 -0.4881 0.4772
vn -0.6263 0.2014 -0.7532
vn 0.6263 -0.2014 0.7532
s off
f 2//1 3//1 1//1
f 4//2 7//2 3//2
f 8//3 5//3 7//3
f 6//4 1//4 5//4
f 7//5 1//5 3//5
f 4//6 6//6 8//6
f 2//1 4//1 3//1
f 4//2 8//2 7//2
f 8//3 6//3 5//3
f 6//4 2//4 1//4
f 7//5 5//5 1//5
f 4//6 2//6 6//6
