# Blender v2.83.0 OBJ File: ''
# www.blender.org
o Cube.048_Cube.1109
v 2.446346 -0.832788 0.930574
v 2.103550 -1.173074 1.274468
v 2.058734 -0.891825 0.485784
v 1.715939 -1.232111 0.829677
v 2.156837 -0.350827 1.118895
v 1.814042 -0.691113 1.462789
v 1.769226 -0.409864 0.674105
v 1.426430 -0.750150 1.017999
vn 0.4883 -0.8128 -0.3176
vn -0.6537 -0.0996 -0.7502
vn -0.4883 0.8128 0.3176
vn 0.6537 0.0996 0.7502
vn 0.5781 0.5739 -0.5800
vn -0.5781 -0.5739 0.5800
s off
f 2//1 3//1 1//1
f 4//2 7//2 3//2
f 8//3 5//3 7//3
f 6//4 1//4 5//4
f 7//5 1//5 3//5
f 4//6 6//6 8//6
f 2//1 4//1 3//1
f 4//2 8//2 7//2
f 8//3 6//3 5//3
f 6//4 2//4 1//4
f 7//5 5//5 1//5
f 4//6 2//6 6//6
