# Blender v2.83.0 OBJ File: ''
# www.blender.org
o Cube.036_Cube.1097
v 0.435391 -0.063600 -2.103594
v 0.084039 0.450772 -1.717369
v 1.077668 0.192976 -1.861015
v 0.726317 0.707348 -1.474790
v 0.400354 -0.518338 -1.529849
v 0.049002 -0.003965 -1.143625
v 1.042631 -0.261762 -1.287271
v 0.691279 0.252611 -0.901046
vn 0.0478 0.6204 -0.7828
vn 0.8763 0.3501 0.3310
vn -0.0478 -0.6204 0.7828
vn -0.8763 -0.3501 -0.3310
vn 0.4794 -0.7018 -0.5270
vn -0.4794 0.7018 0.5270
s off
f 2//1 3//1 1//1
f 4//2 7//2 3//2
f 7//3 6//3 5//3
f 6//4 1//4 5//4
f 7//5 1//5 3//5
f 4//6 6//6 8//6
f 2//1 4//1 3//1
f 4//2 8//2 7//2
f 7//3 8//3 6//3
f 6//4 2//4 1//4
f 7//5 5//5 1//5
f 4//6 2//6 6//6
