# Blender v2.83.0 OBJ File: ''
# www.blender.org
o Cube.034_Cube.1095
v 1.194557 -1.646009 0.536445
v 1.392950 -2.170771 -1.198586
v 2.162287 -0.139508 0.191457
v 2.360681 -0.664269 -1.543573
v -0.338154 -0.762752 0.094044
v -0.139761 -1.287514 -1.640986
v 0.629576 0.743749 -0.250943
v 0.827969 0.218988 -1.985974
vn 0.8405 -0.4844 0.2426
vn 0.5307 0.8262 -0.1892
vn -0.8405 0.4844 -0.2426
vn -0.5307 -0.8262 0.1892
vn -0.1088 0.2878 0.9515
vn 0.1088 -0.2878 -0.9515
s off
f 2//1 3//1 1//1
f 4//2 7//2 3//2
f 8//3 5//3 7//3
f 6//4 1//4 5//4
f 7//5 1//5 3//5
f 4//6 6//6 8//6
f 2//1 4//1 3//1
f 4//2 8//2 7//2
f 8//3 6//3 5//3
f 6//4 2//4 1//4
f 7//5 5//5 1//5
f 4//6 2//6 6//6
