# Blender v2.83.0 OBJ File: ''
# www.blender.org
o Cube.028_Cube.1089
v 1.338255 -2.353653 -1.883511
v 2.129106 -1.409873 -2.385973
v 1.489289 -1.833555 -0.668883
v 2.280140 -0.889775 -1.171345
v 0.279776 -1.574287 -2.085615
v 1.070627 -0.630507 -2.588077
v 0.430810 -1.054189 -0.870987
v 1.221661 -0.110409 -1.373449
vn 0.7959 -0.5860 0.1520
vn 0.1136 0.3911 0.9133
vn -0.7959 0.5860 -0.1520
vn -0.1136 -0.3911 -0.9133
vn -0.5947 -0.7097 0.3778
vn 0.5947 0.7097 -0.3778
s off
f 2//1 3//1 1//1
f 4//2 7//2 3//2
f 8//3 5//3 7//3
f 6//4 1//4 5//4
f 7//5 1//5 3//5
f 4//6 6//6 8//6
f 2//1 4//1 3//1
f 4//2 8//2 7//2
f 8//3 6//3 5//3
f 6//4 2//4 1//4
f 7//5 5//5 1//5
f 4//6 2//6 6//6
