# Blender v2.83.0 OBJ File: ''
# www.blender.org
o Cube.014_Cube.1075
v -0.789573 -1.195798 -1.860888
v -0.833731 -0.717822 -0.790952
v -1.651445 -1.934490 -1.566461
v -1.695603 -1.456513 -0.496525
v -1.583552 -0.420526 -2.239998
v -1.627710 0.057451 -1.170062
v -2.445423 -1.159217 -1.945570
v -2.489581 -0.681240 -0.875634
vn 0.6771 -0.6611 0.3233
vn -0.7350 -0.6299 0.2511
vn -0.6771 0.6611 -0.3233
vn 0.7350 0.6299 -0.2511
vn 0.0377 -0.4076 -0.9124
vn -0.0377 0.4076 0.9124
s off
f 2//1 3//1 1//1
f 4//2 7//2 3//2
f 8//3 5//3 7//3
f 6//4 1//4 5//4
f 7//5 1//5 3//5
f 4//6 6//6 8//6
f 2//1 4//1 3//1
f 4//2 8//2 7//2
f 8//3 6//3 5//3
f 6//4 2//4 1//4
f 7//5 5//5 1//5
f 4//6 2//6 6//6
