# Blender v2.83.0 OBJ File: ''
# www.blender.org
o Cube.032_Cube.1093
v 1.933388 1.774141 -0.258402
v 1.404163 1.206747 -1.458989
v 0.614138 2.146162 0.147315
v 0.084912 1.578768 -1.053272
v 1.781976 0.515932 0.402968
v 1.252750 -0.051463 -0.797619
v 0.462725 0.887953 0.808685
v -0.066500 0.320558 -0.391903
vn 0.1059 0.8802 -0.4627
vn -0.9229 0.2602 0.2838
vn -0.1059 -0.8802 0.4627
vn 0.9229 -0.2602 -0.2838
vn 0.3702 0.3969 0.8399
vn -0.3702 -0.3969 -0.8399
s off
f 2//1 3//1 1//1
f 4//2 7//2 3//2
f 8//3 5//3 7//3
f 6//4 1//4 5//4
f 7//5 1//5 3//5
f 4//6 6//6 8//6
f 2//1 4//1 3//1
f 4//2 8//2 7//2
f 8//3 6//3 5//3
f 6//4 2//4 1//4
f 7//5 5//5 1//5
f 4//6 2//6 6//6
