# Blender v2.83.0 OBJ File: ''
# www.blender.org
o Cube.009_Cube.1070
v 1.588564 1.531451 1.795803
v 2.349086 1.055520 1.616902
v 1.852918 2.176543 1.203449
v 2.613440 1.700612 1.024548
v 1.154244 1.090708 1.121992
v 1.914766 0.614776 0.943091
v 1.418598 1.735800 0.529638
v 2.179120 1.259868 0.350737
vn 0.4748 0.4818 0.7365
vn 0.2890 0.7052 -0.6475
vn -0.4748 -0.4818 -0.7365
vn -0.2890 -0.7052 0.6475
vn -0.8313 0.5202 0.1956
vn 0.8313 -0.5202 -0.1956
s off
f 2//1 3//1 1//1
f 4//2 7//2 3//2
f 8//3 5//3 7//3
f 6//4 1//4 5//4
f 7//5 1//5 3//5
f 4//6 6//6 8//6
f 2//1 4//1 3//1
f 4//2 8//2 7//2
f 8//3 6//3 5//3
f 6//4 2//4 1//4
f 7//5 5//5 1//5
f 4//6 2//6 6//6
