# Blender v2.83.0 OBJ File: ''
# www.blender.org
o Cube.004_Cube.1065
v 0.145231 -0.496341 -1.849773
v -0.509386 -0.972495 -1.548104
v 0.502934 -0.489952 -1.063480
v -0.151683 -0.966106 -0.761811
v 0.580863 -1.217095 -2.042096
v -0.073754 -1.693249 -1.740427
v 0.938566 -1.210707 -1.255803
v 0.283949 -1.686860 -0.954134
vn -0.5043 0.8343 0.2226
vn 0.4141 0.0074 0.9102
vn 0.5043 -0.8343 -0.2226
vn -0.4141 -0.0074 -0.9102
vn 0.7578 0.5512 -0.3492
vn -0.7578 -0.5512 0.3492
s off
f 2//1 3//1 1//1
f 4//2 7//2 3//2
f 7//3 6//3 5//3
f 5//4 2//4 1//4
f 7//5 1//5 3//5
f 4//6 6//6 8//6
f 2//1 4//1 3//1
f 4//2 8//2 7//2
f 7//3 8//3 6//3
f 5//4 6//4 2//4
f 7//5 5//5 1//5
f 4//6 2//6 6//6
