# Blender v2.83.0 OBJ File: ''
# www.blender.org
o Cube.016_Cube.1077
v 0.791905 1.098174 1.099202
v 1.812378 1.280836 1.029761
v 0.985245 0.208114 1.599169
v 2.005719 0.390776 1.529728
v 0.763495 1.602140 2.007368
v 1.783969 1.784802 1.937927
v 0.956836 0.712080 2.507335
v 1.977309 0.894742 2.437893
vn 0.0273 -0.4850 -0.8741
vn 0.1861 -0.8566 0.4812
vn -0.0273 0.4850 0.8741
vn -0.1861 0.8566 -0.4812
vn -0.9822 -0.1758 0.0668
vn 0.9822 0.1758 -0.0668
s off
f 2//1 3//1 1//1
f 4//2 7//2 3//2
f 8//3 5//3 7//3
f 6//4 1//4 5//4
f 7//5 1//5 3//5
f 4//6 6//6 8//6
f 2//1 4//1 3//1
f 4//2 8//2 7//2
f 8//3 6//3 5//3
f 6//4 2//4 1//4
f 7//5 5//5 1//5
f 4//6 2//6 6//6
