# Blender v2.83.0 OBJ File: ''
# www.blender.org
o Cube.025_Cube.1086
v 1.057518 1.126198 -1.642106
v 1.372906 2.427814 -1.726519
v 0.931979 1.242931 -0.311162
v 1.247367 2.544546 -0.395575
v -0.240777 1.431105 -1.791308
v 0.074611 2.732721 -1.875720
v -0.366315 1.547838 -0.460364
v -0.050927 2.849453 -0.544776
vn 0.9675 -0.2272 0.1112
vn -0.0936 0.0870 0.9918
vn -0.9675 0.2272 -0.1112
vn 0.0936 -0.0870 -0.9918
vn -0.2350 -0.9700 0.0629
vn 0.2350 0.9700 -0.0629
s off
f 2//1 3//1 1//1
f 4//2 7//2 3//2
f 8//3 5//3 7//3
f 6//4 1//4 5//4
f 7//5 1//5 3//5
f 4//6 6//6 8//6
f 2//1 4//1 3//1
f 4//2 8//2 7//2
f 8//3 6//3 5//3
f 6//4 2//4 1//4
f 7//5 5//5 1//5
f 4//6 2//6 6//6
