# Blender v2.83.0 OBJ File: ''
# www.blender.org
o Cube.039_Cube.1100
v 0.801723 1.403527 -1.343366
v 1.366591 1.265435 -2.234974
v 1.687114 1.690714 -0.826917
v 2.251981 1.552621 -1.718526
v 0.628173 2.419188 -1.610621
v 1.193041 2.281096 -2.502230
v 1.513563 2.706374 -1.094173
v 2.078431 2.568282 -1.985781
vn 0.1630 -0.9541 0.2511
vn 0.8318 0.2698 0.4852
vn -0.1630 0.9541 -0.2511
vn -0.8318 -0.2698 -0.4852
vn -0.5307 0.1297 0.8376
vn 0.5307 -0.1297 -0.8376
s off
f 2//1 3//1 1//1
f 4//2 7//2 3//2
f 8//3 5//3 7//3
f 6//4 1//4 5//4
f 7//5 1//5 3//5
f 4//6 6//6 8//6
f 2//1 4//1 3//1
f 4//2 8//2 7//2
f 8//3 6//3 5//3
f 6//4 2//4 1//4
f 7//5 5//5 1//5
f 4//6 2//6 6//6
