# Blender v2.83.0 OBJ File: ''
# www.blender.org
o Cube.010_Cube.1071
v 0.691971 -0.123121 0.140808
v -0.324476 -1.189696 0.662408
v -0.246754 0.178413 -1.071911
v -1.263201 -0.888161 -0.550310
v -0.034971 0.978835 0.977503
v -1.051418 -0.087739 1.499104
v -0.973696 1.280370 -0.235215
v -1.990143 0.213795 0.286385
vn 0.4651 -0.7050 -0.5353
vn -0.6006 0.1929 -0.7759
vn -0.4651 0.7050 0.5353
vn 0.6006 -0.1929 0.7759
vn 0.6503 0.6824 -0.3337
vn -0.6503 -0.6824 0.3337
s off
f 2//1 3//1 1//1
f 4//2 7//2 3//2
f 8//3 5//3 7//3
f 6//4 1//4 5//4
f 7//5 1//5 3//5
f 4//6 6//6 8//6
f 2//1 4//1 3//1
f 4//2 8//2 7//2
f 8//3 6//3 5//3
f 6//4 2//4 1//4
f 7//5 5//5 1//5
f 4//6 2//6 6//6
