# Blender v2.83.0 OBJ File: ''
# www.blender.org
o Cube.046_Cube.1107
v -2.464301 -0.887671 2.236190
v -1.436101 -0.347667 1.945743
v -2.899905 -0.643452 1.148181
v -1.871705 -0.103448 0.857733
v -2.032778 -1.927821 1.829946
v -1.004578 -1.387817 1.539499
v -2.468382 -1.683602 0.741936
v -1.440182 -1.143598 0.451489
vn -0.3605 0.8689 0.3393
vn -0.3639 0.2040 -0.9088
vn 0.3605 -0.8689 -0.3393
vn 0.3639 -0.2040 0.9088
vn -0.8589 -0.4511 0.2426
vn 0.8589 0.4511 -0.2426
s off
f 2//1 3//1 1//1
f 4//2 7//2 3//2
f 8//3 5//3 7//3
f 6//4 1//4 5//4
f 7//5 1//5 3//5
f 4//6 6//6 8//6
f 2//1 4//1 3//1
f 4//2 8//2 7//2
f 8//3 6//3 5//3
f 6//4 2//4 1//4
f 7//5 5//5 1//5
f 4//6 2//6 6//6
