# Blender v2.83.0 OBJ File: ''
# www.blender.org
o Cube.007_Cube.1068
v 0.361374 -0.147818 -1.299577
v 0.016456 1.216821 -0.988360
v 1.540735 0.308152 -1.991866
v 1.195817 1.672791 -1.680648
v 1.115167 -0.236788 -0.074039
v 0.770249 1.127851 0.237179
v 2.294528 0.219182 -0.766327
v 1.949610 1.583821 -0.455110
vn -0.5229 0.0617 -0.8502
vn 0.8181 0.3163 -0.4802
vn 0.5229 -0.0617 0.8502
vn -0.8181 -0.3163 0.4802
vn 0.2393 -0.9466 -0.2159
vn -0.2393 0.9466 0.2159
s off
f 2//1 3//1 1//1
f 4//2 7//2 3//2
f 8//3 5//3 7//3
f 6//4 1//4 5//4
f 3//5 5//5 1//5
f 4//6 6//6 8//6
f 2//1 4//1 3//1
f 4//2 8//2 7//2
f 8//3 6//3 5//3
f 6//4 2//4 1//4
f 3//5 7//5 5//5
f 4//6 2//6 6//6
