# Blender v2.83.0 OBJ File: ''
# www.blender.org
o Cube.001_Cube.1062
v 2.298060 0.234452 1.792556
v 2.352511 -0.024335 0.927428
v 1.457960 0.537751 1.648953
v 1.512411 0.278964 0.783826
v 1.966931 -0.577594 2.014623
v 2.021382 -0.836381 1.149496
v 1.126830 -0.274296 1.871021
v 1.181281 -0.533082 1.005893
vn 0.3660 0.8976 -0.2455
vn -0.9287 0.3353 -0.1587
vn -0.3660 -0.8976 0.2455
vn 0.9287 -0.3353 0.1587
vn -0.0602 0.2861 0.9563
vn 0.0602 -0.2861 -0.9563
s off
f 2//1 3//1 1//1
f 4//2 7//2 3//2
f 8//3 5//3 7//3
f 6//4 1//4 5//4
f 7//5 1//5 3//5
f 4//6 6//6 8//6
f 2//1 4//1 3//1
f 4//2 8//2 7//2
f 8//3 6//3 5//3
f 6//4 2//4 1//4
f 7//5 5//5 1//5
f 4//6 2//6 6//6
