# Blender v2.83.0 OBJ File: ''
# www.blender.org
o Cube.003_Cube.1064
v -1.299001 2.072716 1.974592
v -0.448951 1.176950 3.528199
v 0.467981 2.197343 1.079652
v 1.318031 1.301577 2.633258
v -1.605376 0.306152 1.123674
v -0.755326 -0.589614 2.677280
v 0.161606 0.430779 0.228733
v 1.011655 -0.464987 1.782340
vn 0.1544 0.8901 0.4288
vn 0.8903 0.0628 -0.4509
vn -0.1544 -0.8901 -0.4288
vn -0.8903 -0.0628 0.4509
vn -0.4283 0.4514 -0.7828
vn 0.4283 -0.4514 0.7828
s off
f 2//1 3//1 1//1
f 4//2 7//2 3//2
f 8//3 5//3 7//3
f 6//4 1//4 5//4
f 7//5 1//5 3//5
f 4//6 6//6 8//6
f 2//1 4//1 3//1
f 4//2 8//2 7//2
f 8//3 6//3 5//3
f 6//4 2//4 1//4
f 7//5 5//5 1//5
f 4//6 2//6 6//6
