# Blender v2.83.0 OBJ File: ''
# www.blender.org
o Cube.044_Cube.1105
v -1.157636 -1.830590 0.154932
v -2.061779 -1.595404 -0.266288
v -0.682778 -1.238821 -0.533932
v -1.586922 -1.003636 -0.955153
v -1.242778 -1.027650 0.786005
v -2.146922 -0.792465 0.364785
v -0.767921 -0.435882 0.097141
v -1.672064 -0.200696 -0.324080
vn 0.0831 -0.7835 -0.6158
vn 0.4634 0.5774 -0.6722
vn -0.0831 0.7835 0.6158
vn -0.4634 -0.5774 0.6722
vn 0.8823 -0.2295 0.4110
vn -0.8823 0.2295 -0.4110
s off
f 2//1 3//1 1//1
f 4//2 7//2 3//2
f 8//3 5//3 7//3
f 6//4 1//4 5//4
f 7//5 1//5 3//5
f 4//6 6//6 8//6
f 2//1 4//1 3//1
f 4//2 8//2 7//2
f 8//3 6//3 5//3
f 6//4 2//4 1//4
f 7//5 5//5 1//5
f 4//6 2//6 6//6
