# Blender v2.83.0 OBJ File: ''
# www.blender.org
o Cube.042_Cube.1103
v 0.777285 -2.311945 1.314225
v 0.066810 -2.317399 1.842173
v 0.249310 -2.306562 0.603770
v -0.461165 -2.312016 1.131718
v 0.776118 -1.426804 1.321798
v 0.065643 -1.432258 1.849746
v 0.248143 -1.421422 0.611343
v -0.462332 -1.426876 1.139291
vn 0.0013 -1.0000 -0.0086
vn -0.5965 0.0061 -0.8026
vn -0.0013 1.0000 0.0086
vn 0.5965 -0.0061 0.8026
vn 0.8026 0.0062 -0.5964
vn -0.8026 -0.0062 0.5964
s off
f 2//1 3//1 1//1
f 4//2 7//2 3//2
f 8//3 5//3 7//3
f 6//4 1//4 5//4
f 7//5 1//5 3//5
f 4//6 6//6 8//6
f 2//1 4//1 3//1
f 4//2 8//2 7//2
f 8//3 6//3 5//3
f 6//4 2//4 1//4
f 7//5 5//5 1//5
f 4//6 2//6 6//6
