# Blender v2.83.0 OBJ File: ''
# www.blender.org
o Cube.027_Cube.1088
v 1.533530 0.232721 -0.616716
v 0.694670 0.232084 -0.975101
v 1.175147 0.231692 0.222145
v 0.336286 0.231054 -0.136240
v 1.534521 -0.679488 -0.617412
v 0.695660 -0.680126 -0.975797
v 1.176137 -0.680518 0.221449
v 0.337276 -0.681155 -0.136936
vn -0.0011 1.0000 0.0008
vn -0.3929 -0.0011 0.9196
vn 0.0011 -1.0000 -0.0008
vn 0.3929 0.0011 -0.9196
vn 0.9196 0.0007 0.3929
vn -0.9196 -0.0007 -0.3929
s off
f 2//1 3//1 1//1
f 4//2 7//2 3//2
f 8//3 5//3 7//3
f 6//4 1//4 5//4
f 7//5 1//5 3//5
f 4//6 6//6 8//6
f 2//1 4//1 3//1
f 4//2 8//2 7//2
f 8//3 6//3 5//3
f 6//4 2//4 1//4
f 7//5 5//5 1//5
f 4//6 2//6 6//6
