# Blender v2.83.0 OBJ File: ''
# www.blender.org
o Cube.017_Cube.1078
v 0.716632 -0.053640 2.008816
v 1.710950 -0.263343 2.253842
v 0.790049 0.866857 2.498689
v 1.784366 0.657154 2.743716
v 1.030676 0.395126 1.118497
v 2.024993 0.185423 1.363524
v 1.104092 1.315623 1.608371
v 2.098410 1.105920 1.853397
vn -0.3004 -0.4293 0.8517
vn 0.0702 0.8806 0.4686
vn 0.3004 0.4293 -0.8517
vn -0.0702 -0.8806 -0.4686
vn -0.9512 0.2006 -0.2344
vn 0.9512 -0.2006 0.2344
s off
f 2//1 3//1 1//1
f 4//2 7//2 3//2
f 8//3 5//3 7//3
f 6//4 1//4 5//4
f 7//5 1//5 3//5
f 4//6 6//6 8//6
f 2//1 4//1 3//1
f 4//2 8//2 7//2
f 8//3 6//3 5//3
f 6//4 2//4 1//4
f 7//5 5//5 1//5
f 4//6 2//6 6//6
