# Blender v2.83.0 OBJ File: ''
# www.blender.org
o Cube.021_Cube.1082
v 1.733597 -1.417198 -1.509920
v 0.968185 -0.786939 -2.052505
v 2.408494 -0.515576 -1.414672
v 1.643081 0.114682 -1.957256
v 1.247657 -1.157713 -0.523002
v 0.482245 -0.527455 -1.065586
v 1.922553 -0.256092 -0.427753
v 1.157141 0.374167 -0.970337
vn 0.4299 -0.2296 -0.8732
vn 0.5971 0.7977 0.0843
vn -0.4299 0.2296 0.8732
vn -0.5971 -0.7977 -0.0843
vn 0.6772 -0.5576 0.4801
vn -0.6772 0.5576 -0.4801
s off
f 2//1 3//1 1//1
f 4//2 7//2 3//2
f 8//3 5//3 7//3
f 6//4 1//4 5//4
f 7//5 1//5 3//5
f 4//6 6//6 8//6
f 2//1 4//1 3//1
f 4//2 8//2 7//2
f 8//3 6//3 5//3
f 6//4 2//4 1//4
f 7//5 5//5 1//5
f 4//6 2//6 6//6
