# Blender v2.83.0 OBJ File: ''
# www.blender.org
o Cube.026_Cube.1087
v 2.339352 -0.779103 -1.530490
v 0.787326 -0.786310 -1.135766
v 2.694255 -1.505915 -0.148306
v 1.142229 -1.513121 0.246418
v 2.166429 -2.206106 -2.236467
v 0.614403 -2.213312 -1.841744
v 2.521331 -2.932917 -0.854283
v 0.969305 -2.940124 -0.459560
vn 0.1080 0.8911 0.4408
vn 0.2216 -0.4538 0.8631
vn -0.1080 -0.8911 -0.4408
vn -0.2216 0.4538 -0.8631
vn 0.9691 0.0045 -0.2465
vn -0.9691 -0.0045 0.2465
s off
f 2//1 3//1 1//1
f 4//2 7//2 3//2
f 8//3 5//3 7//3
f 6//4 1//4 5//4
f 7//5 1//5 3//5
f 4//6 6//6 8//6
f 2//1 4//1 3//1
f 4//2 8//2 7//2
f 8//3 6//3 5//3
f 6//4 2//4 1//4
f 7//5 5//5 1//5
f 4//6 2//6 6//6
