# Blender v2.83.0 OBJ File: ''
# www.blender.org
o Cone.006_Cone.1746
v 1.013484 -0.659601 0.130128
v 0.974349 -0.129113 0.174546
v 0.826939 0.338566 0.385422
v 0.593696 0.672235 0.730652
v 0.310130 0.821099 1.157679
v 0.019410 0.762491 1.601491
v -0.234204 0.505336 1.994522
v -0.412101 0.088783 2.276936
v -0.487199 -0.423752 2.405739
v -0.448064 -0.954239 2.361321
v -0.300654 -1.421918 2.150445
v -0.067412 -1.755588 1.805215
v -1.407772 -0.572952 0.169268
v 0.216155 -1.904451 1.378188
v 0.506875 -1.845844 0.934376
v 0.760489 -1.588689 0.541345
v 0.938386 -1.172135 0.258931
vn -0.0132 0.0825 -0.9965
vn -0.0709 0.3914 -0.9175
vn -0.1887 0.6393 -0.7454
vn -0.3486 0.7887 -0.5064
vn -0.5263 0.8166 -0.2369
vn -0.6948 0.7189 0.0220
vn -0.8283 0.5104 0.2311
vn -0.9066 0.2229 0.3583
vn -0.9177 -0.0999 0.3844
vn -0.8600 -0.4088 0.3054
vn -0.7422 -0.6568 0.1333
vn -0.5823 -0.8061 -0.1057
vn -0.4046 -0.8340 -0.3751
vn -0.2361 -0.7363 -0.6341
vn -0.1026 -0.5278 -0.8431
vn -0.0243 -0.2403 -0.9704
vn 0.8355 0.0156 0.5493
s off
f 1//1 13//1 2//1
f 2//2 13//2 3//2
f 3//3 13//3 4//3
f 4//4 13//4 5//4
f 5//5 13//5 6//5
f 6//6 13//6 7//6
f 7//7 13//7 8//7
f 8//8 13//8 9//8
f 9//9 13//9 10//9
f 10//10 13//10 11//10
f 11//11 13//11 12//11
f 12//12 13//12 14//12
f 14//13 13//13 15//13
f 15//14 13//14 16//14
f 16//15 13//15 17//15
f 17//16 13//16 1//16
f 8//17 12//17 17//17
f 17//17 1//17 2//17
f 2//17 3//17 4//17
f 4//17 5//17 6//17
f 6//17 7//17 8//17
f 8//17 9//17 10//17
f 10//17 11//17 8//17
f 11//17 12//17 8//17
f 12//17 14//17 15//17
f 15//17 16//17 17//17
f 17//17 2//17 4//17
f 4//17 6//17 8//17
f 12//17 15//17 17//17
f 17//17 4//17 8//17
