# Blender v2.83.0 OBJ File: ''
# www.blender.org
o Cone.084_Cone.1824
v -1.919797 2.451959 0.097139
v -2.238204 2.356661 0.324637
v -2.459370 2.322322 0.659489
v -2.549626 2.354169 1.050717
v -2.495231 2.447355 1.438760
v -2.304465 2.587691 1.764542
v -2.006372 2.753814 1.978466
v -1.646333 2.920433 2.047963
v -1.279161 3.062181 1.962454
v -0.960754 3.157479 1.734956
v -0.739588 3.191818 1.400104
v -0.649332 3.159971 1.008876
v -0.823092 0.943112 1.356571
v -0.703727 3.066785 0.620833
v -0.894493 2.926448 0.295050
v -1.192586 2.760325 0.081127
v -1.552625 2.593707 0.011630
vn -0.2473 -0.7205 -0.6479
vn -0.4850 -0.7776 -0.4001
vn -0.6222 -0.7787 -0.0802
vn -0.6380 -0.7236 0.2632
vn -0.5300 -0.6207 0.5777
vn -0.3146 -0.4857 0.8156
vn -0.0246 -0.3391 0.9404
vn 0.2958 -0.2032 0.9334
vn 0.5979 -0.0988 0.7955
vn 0.8357 -0.0416 0.5477
vn 0.9729 -0.0405 0.2277
vn 0.9887 -0.0956 -0.1156
vn 0.8807 -0.1985 -0.4302
vn 0.6652 -0.3336 -0.6680
vn 0.3753 -0.4802 -0.7929
vn 0.0548 -0.6161 -0.7858
vn -0.3882 0.9070 -0.1634
s off
f 1//1 13//1 2//1
f 2//2 13//2 3//2
f 3//3 13//3 4//3
f 4//4 13//4 5//4
f 5//5 13//5 6//5
f 6//6 13//6 7//6
f 7//7 13//7 8//7
f 8//8 13//8 9//8
f 9//9 13//9 10//9
f 10//10 13//10 11//10
f 11//11 13//11 12//11
f 12//12 13//12 14//12
f 14//13 13//13 15//13
f 15//14 13//14 16//14
f 16//15 13//15 17//15
f 17//16 13//16 1//16
f 17//17 4//17 8//17
f 17//17 1//17 2//17
f 2//17 3//17 4//17
f 4//17 5//17 6//17
f 6//17 7//17 4//17
f 7//17 8//17 4//17
f 8//17 9//17 10//17
f 10//17 11//17 12//17
f 12//17 14//17 15//17
f 15//17 16//17 17//17
f 17//17 2//17 4//17
f 8//17 10//17 17//17
f 10//17 12//17 17//17
f 12//17 15//17 17//17
