# Blender v2.83.0 OBJ File: ''
# www.blender.org
o Cone.046_Cone.1786
v 1.332497 -2.422065 1.783137
v 1.439371 -2.086150 1.821816
v 1.418403 -1.732324 1.810685
v 1.272786 -1.414453 1.751438
v 1.024689 -1.180930 1.653095
v 0.711882 -1.067306 1.530627
v 0.381988 -1.090881 1.402681
v 0.085229 -1.248065 1.288733
v -0.133215 -1.514927 1.206132
v -0.240089 -1.850842 1.167453
v -0.219122 -2.204668 1.178584
v -0.073505 -2.522539 1.237832
v 1.323791 -1.984232 -0.369596
v 0.174592 -2.756063 1.336175
v 0.487399 -2.869686 1.458642
v 0.817294 -2.846111 1.586589
v 1.114053 -2.688927 1.700536
vn 0.9531 -0.2959 -0.0640
vn 0.9971 0.0575 -0.0499
vn 0.9117 0.4016 -0.0860
vn 0.7100 0.6841 -0.1667
vn 0.4227 0.8620 -0.2798
vn 0.0934 0.9081 -0.4081
vn -0.2277 0.8155 -0.5321
vn -0.4916 0.5983 -0.6328
vn -0.6583 0.2895 -0.6949
vn -0.7023 -0.0639 -0.7090
vn -0.6170 -0.4081 -0.6730
vn -0.4152 -0.6906 -0.5922
vn -0.1279 -0.8684 -0.4791
vn 0.2014 -0.9145 -0.3508
vn 0.5225 -0.8219 -0.2269
vn 0.7864 -0.6047 -0.1262
vn -0.3621 0.0079 0.9321
s off
f 1//1 13//1 2//1
f 2//2 13//2 3//2
f 3//3 13//3 4//3
f 4//4 13//4 5//4
f 5//5 13//5 6//5
f 6//6 13//6 7//6
f 7//7 13//7 8//7
f 8//8 13//8 9//8
f 9//9 13//9 10//9
f 10//10 13//10 11//10
f 11//11 13//11 12//11
f 12//12 13//12 14//12
f 14//13 13//13 15//13
f 15//14 13//14 16//14
f 16//15 13//15 17//15
f 17//16 13//16 1//16
f 17//17 4//17 8//17
f 17//17 1//17 2//17
f 2//17 3//17 4//17
f 4//17 5//17 6//17
f 6//17 7//17 4//17
f 7//17 8//17 4//17
f 8//17 9//17 10//17
f 10//17 11//17 12//17
f 12//17 14//17 17//17
f 14//17 15//17 17//17
f 15//17 16//17 17//17
f 17//17 2//17 4//17
f 8//17 10//17 17//17
f 10//17 12//17 17//17
