# Blender v2.83.0 OBJ File: ''
# www.blender.org
o Cone.095_Cone.1835
v -1.666014 0.343993 2.636940
v -1.822626 0.125041 2.395889
v -1.863465 -0.054248 2.084826
v -1.782311 -0.166581 1.751108
v -1.591521 -0.194855 1.445539
v -1.320140 -0.134766 1.214641
v -1.009484 0.004539 1.093564
v -0.706847 0.201850 1.100742
v -0.458303 0.427130 1.235083
v -0.301690 0.646081 1.476133
v -0.260852 0.825371 1.787196
v -0.342005 0.937704 2.120914
v -2.058388 1.941449 1.170023
v -0.532796 0.965978 2.426483
v -0.804177 0.905888 2.657382
v -1.114833 0.766584 2.778459
v -1.417470 0.569273 2.771280
vn -0.8898 0.1703 0.4234
vn -0.9887 -0.0293 0.1467
vn -0.9685 -0.1755 -0.1765
vn -0.8322 -0.2460 -0.4969
vn -0.6006 -0.2300 -0.7658
vn -0.3089 -0.1301 -0.9422
vn -0.0015 0.0386 -0.9993
vn 0.2748 0.2504 -0.9283
vn 0.4778 0.4731 -0.7402
vn 0.5768 0.6727 -0.4635
vn 0.5566 0.8189 -0.1403
vn 0.4203 0.8893 0.1801
vn 0.1886 0.8734 0.4490
vn -0.1031 0.7734 0.6254
vn -0.4105 0.6047 0.6825
vn -0.6867 0.3929 0.6116
vn 0.4981 -0.7779 0.3830
s off
f 1//1 13//1 2//1
f 2//2 13//2 3//2
f 3//3 13//3 4//3
f 4//4 13//4 5//4
f 5//5 13//5 6//5
f 6//6 13//6 7//6
f 7//7 13//7 8//7
f 8//8 13//8 9//8
f 9//9 13//9 10//9
f 10//10 13//10 11//10
f 11//11 13//11 12//11
f 12//12 13//12 14//12
f 14//13 13//13 15//13
f 15//14 13//14 16//14
f 16//15 13//15 17//15
f 17//16 13//16 1//16
f 17//17 4//17 8//17
f 17//17 1//17 4//17
f 1//17 2//17 4//17
f 2//17 3//17 4//17
f 4//17 5//17 6//17
f 6//17 7//17 4//17
f 7//17 8//17 4//17
f 8//17 9//17 10//17
f 10//17 11//17 12//17
f 12//17 14//17 15//17
f 15//17 16//17 12//17
f 16//17 17//17 12//17
f 8//17 10//17 17//17
f 10//17 12//17 17//17
