# Blender v2.83.0 OBJ File: ''
# www.blender.org
o Cone.096_Cone.1836
v -1.036079 -3.429410 1.647383
v -1.375508 -3.412589 1.189090
v -1.622455 -3.193389 0.723799
v -1.739324 -2.805184 0.322344
v -1.708323 -2.307072 0.045846
v -1.534172 -1.774888 -0.063603
v -1.243383 -1.289652 0.010660
v -0.880227 -0.925236 0.257330
v -0.499991 -0.737119 0.638853
v -0.160562 -0.753941 1.097146
v 0.086385 -0.973140 1.562438
v 0.203254 -1.361346 1.963892
v -2.255191 -1.364663 2.270939
v 0.172253 -1.859458 2.240391
v -0.001898 -2.391642 2.349840
v -0.292687 -2.876878 2.275576
v -0.655843 -3.241294 2.028906
vn -0.6814 -0.5486 0.4845
vn -0.8475 -0.4818 0.2228
vn -0.9506 -0.3097 -0.0227
vn -0.9749 -0.0586 -0.2148
vn -0.9168 0.2333 -0.3241
vn -0.7851 0.5216 -0.3341
vn -0.5998 0.7623 -0.2432
vn -0.3892 0.9189 -0.0652
vn -0.1853 0.9674 0.1727
vn -0.0191 0.9005 0.4344
vn 0.0839 0.7284 0.6800
vn 0.1083 0.4773 0.8720
vn 0.0501 0.1854 0.9814
vn -0.0816 -0.1028 0.9913
vn -0.2669 -0.3436 0.9004
vn -0.4775 -0.5001 0.7224
vn 0.7436 -0.3593 -0.5639
s off
f 1//1 13//1 2//1
f 2//2 13//2 3//2
f 3//3 13//3 4//3
f 4//4 13//4 5//4
f 5//5 13//5 6//5
f 6//6 13//6 7//6
f 7//7 13//7 8//7
f 8//8 13//8 9//8
f 9//9 13//9 10//9
f 10//10 13//10 11//10
f 11//11 13//11 12//11
f 12//12 13//12 14//12
f 14//13 13//13 15//13
f 15//14 13//14 16//14
f 16//15 13//15 17//15
f 17//16 13//16 1//16
f 4//17 8//17 12//17
f 17//17 1//17 4//17
f 1//17 2//17 4//17
f 2//17 3//17 4//17
f 4//17 5//17 6//17
f 6//17 7//17 4//17
f 7//17 8//17 4//17
f 8//17 9//17 10//17
f 10//17 11//17 12//17
f 12//17 14//17 15//17
f 15//17 16//17 12//17
f 16//17 17//17 12//17
f 8//17 10//17 12//17
f 17//17 4//17 12//17
