# Blender v2.83.0 OBJ File: ''
# www.blender.org
o Cone.076_Cone.1816
v -1.776444 -1.002153 0.410900
v -1.532097 -0.995029 0.243073
v -1.321978 -1.097452 0.060641
v -1.178076 -1.293828 -0.108622
v -1.122298 -1.554261 -0.238949
v -1.163136 -1.839103 -0.310498
v -1.294373 -2.104989 -0.312377
v -1.496029 -2.311440 -0.244298
v -1.737404 -2.427026 -0.116628
v -1.981751 -2.434149 0.051199
v -2.191870 -2.331727 0.233631
v -0.657911 -2.268182 1.723748
v -2.335773 -2.135350 0.402895
v -2.391551 -1.874917 0.533222
v -2.350713 -1.590075 0.604771
v -2.219476 -1.324189 0.606649
v -2.017819 -1.117738 0.538570
vn 0.3209 0.8035 0.5014
vn 0.6066 0.7436 0.2812
vn 0.8292 0.5558 0.0601
vn 0.9547 0.2686 -0.1282
vn 0.9641 -0.0741 -0.2551
vn 0.8559 -0.4203 -0.3012
vn 0.6467 -0.7172 -0.2596
vn 0.3682 -0.9197 -0.1366
vn 0.0628 -0.9968 0.0492
vn -0.2228 -0.9369 0.2693
vn -0.4454 -0.7491 0.4904
vn -0.5709 -0.4619 0.6787
vn -0.5803 -0.1192 0.8056
vn -0.4721 0.2270 0.8518
vn -0.2629 0.5239 0.8102
vn 0.0156 0.7264 0.6871
vn -0.5495 0.2768 -0.7883
s off
f 1//1 12//1 2//1
f 2//2 12//2 3//2
f 3//3 12//3 4//3
f 4//4 12//4 5//4
f 5//5 12//5 6//5
f 6//6 12//6 7//6
f 7//7 12//7 8//7
f 8//8 12//8 9//8
f 9//9 12//9 10//9
f 10//10 12//10 11//10
f 11//11 12//11 13//11
f 13//12 12//12 14//12
f 14//13 12//13 15//13
f 15//14 12//14 16//14
f 16//15 12//15 17//15
f 17//16 12//16 1//16
f 4//17 8//17 13//17
f 17//17 1//17 2//17
f 2//17 3//17 17//17
f 3//17 4//17 17//17
f 4//17 5//17 8//17
f 5//17 6//17 8//17
f 6//17 7//17 8//17
f 8//17 9//17 10//17
f 10//17 11//17 8//17
f 11//17 13//17 8//17
f 13//17 14//17 15//17
f 15//17 16//17 13//17
f 16//17 17//17 13//17
f 17//17 4//17 13//17
