# Blender v2.83.0 OBJ File: ''
# www.blender.org
o Cone.065_Cone.1805
v 1.910428 2.209034 -1.151192
v 2.212018 1.720013 -0.992599
v 2.296270 1.170597 -0.777436
v 2.150355 0.644430 -0.538461
v 1.796490 0.221618 -0.312056
v 1.288545 -0.033472 -0.132687
v 0.703853 -0.082003 -0.027664
v 0.131426 0.083412 -0.012973
v -0.341589 0.437591 -0.090853
v -0.643180 0.926612 -0.249446
v -0.727431 1.476028 -0.464609
v 1.050482 2.081381 1.210518
v -0.581517 2.002195 -0.703584
v -0.227651 2.425008 -0.929990
v 0.280293 2.680097 -1.109358
v 0.864987 2.728629 -1.214382
v 1.437414 2.563213 -1.229072
vn 0.7618 0.5698 0.3082
vn 0.8649 0.2924 0.4080
vn 0.8484 0.0051 0.5293
vn 0.7149 -0.2483 0.6536
vn 0.4847 -0.4294 0.7620
vn 0.1929 -0.5105 0.8380
vn -0.1162 -0.4793 0.8699
vn -0.3954 -0.3405 0.8531
vn -0.6023 -0.1153 0.7899
vn -0.7054 0.1621 0.6901
vn -0.6889 0.4494 0.5688
vn -0.5554 0.7028 0.4445
vn -0.3252 0.8839 0.3361
vn -0.0334 0.9650 0.2601
vn 0.2757 0.9338 0.2282
vn 0.5549 0.7950 0.2450
vn -0.1330 -0.3790 -0.9158
s off
f 1//1 12//1 2//1
f 2//2 12//2 3//2
f 3//3 12//3 4//3
f 4//4 12//4 5//4
f 5//5 12//5 6//5
f 6//6 12//6 7//6
f 7//7 12//7 8//7
f 8//8 12//8 9//8
f 9//9 12//9 10//9
f 10//10 12//10 11//10
f 11//11 12//11 13//11
f 13//12 12//12 14//12
f 14//13 12//13 15//13
f 15//14 12//14 16//14
f 16//15 12//15 17//15
f 17//16 12//16 1//16
f 4//17 8//17 13//17
f 17//17 1//17 2//17
f 2//17 3//17 4//17
f 4//17 5//17 6//17
f 6//17 7//17 8//17
f 8//17 9//17 10//17
f 10//17 11//17 13//17
f 13//17 14//17 15//17
f 15//17 16//17 17//17
f 17//17 2//17 4//17
f 4//17 6//17 8//17
f 8//17 10//17 13//17
f 13//17 15//17 17//17
f 17//17 4//17 13//17
