# Blender v2.83.0 OBJ File: ''
# www.blender.org
o Cone.014_Cone.1754
v -0.564895 0.103803 1.831329
v -0.679976 0.364973 1.977331
v -0.880782 0.540727 2.154977
v -1.136740 0.604308 2.337223
v -1.408883 0.546036 2.496322
v -1.655781 0.374782 2.608055
v -1.839845 0.116618 2.655409
v -1.933053 -0.189152 2.631176
v -2.297532 0.255194 0.546767
v -1.921215 -0.495978 2.539046
v -1.806134 -0.757149 2.393044
v -1.605329 -0.932903 2.215398
v -1.349370 -0.996484 2.033153
v -1.077227 -0.938212 1.874053
v -0.830329 -0.766958 1.762321
v -0.646265 -0.508794 1.714967
v -0.553057 -0.203023 1.739199
vn 0.5173 0.5798 -0.6294
vn 0.3355 0.8313 -0.4432
vn 0.0726 0.9690 -0.2360
vn -0.2313 0.9721 -0.0396
vn -0.5300 0.8400 0.1163
vn -0.7780 0.5928 0.2078
vn -0.9376 0.2683 0.2211
vn -0.9844 -0.0843 0.1542
vn -0.9114 -0.4112 0.0171
vn -0.7296 -0.6626 -0.1691
vn -0.4667 -0.8004 -0.3763
vn -0.1628 -0.8034 -0.5727
vn 0.1359 -0.6713 -0.7286
vn 0.3840 -0.4242 -0.8201
vn 0.5435 -0.0996 -0.8335
vn 0.5904 0.2529 -0.7665
vn 0.5272 -0.2256 0.8192
s off
f 1//1 9//1 2//1
f 2//2 9//2 3//2
f 3//3 9//3 4//3
f 4//4 9//4 5//4
f 5//5 9//5 6//5
f 6//6 9//6 7//6
f 7//7 9//7 8//7
f 8//8 9//8 10//8
f 10//9 9//9 11//9
f 11//10 9//10 12//10
f 12//11 9//11 13//11
f 13//12 9//12 14//12
f 14//13 9//13 15//13
f 15//14 9//14 16//14
f 16//15 9//15 17//15
f 17//16 9//16 1//16
f 4//17 8//17 13//17
f 17//17 1//17 2//17
f 2//17 3//17 4//17
f 4//17 5//17 6//17
f 6//17 7//17 8//17
f 8//17 10//17 11//17
f 11//17 12//17 13//17
f 13//17 14//17 15//17
f 15//17 16//17 17//17
f 17//17 2//17 4//17
f 4//17 6//17 8//17
f 8//17 11//17 13//17
f 13//17 15//17 17//17
f 17//17 4//17 13//17
