# Blender v2.83.0 OBJ File: ''
# www.blender.org
o Cone.051_Cone.1791
v 0.441882 2.347326 0.931574
v 0.894247 2.256797 0.861833
v 1.269694 2.065781 0.661219
v 1.511064 1.803360 0.360273
v 1.581612 1.509484 0.004811
v 1.470596 1.228893 -0.351050
v 1.194918 1.004305 -0.653135
v 0.796548 0.869911 -0.855453
v 0.336134 0.846171 -0.927204
v -0.116231 0.936700 -0.857464
v -0.491677 1.127716 -0.656850
v -0.733048 1.390138 -0.355904
v 0.272814 0.046663 1.260649
v -0.803595 1.684014 -0.000442
v -0.692580 1.964605 0.355420
v -0.416902 2.189193 0.657505
v -0.018532 2.323587 0.859823
vn 0.1759 0.1267 0.9762
vn 0.4803 0.0232 0.8768
vn 0.7071 -0.1436 0.6923
vn 0.8218 -0.3482 0.4510
vn 0.8070 -0.5594 0.1894
vn 0.6648 -0.7452 -0.0526
vn 0.4169 -0.8772 -0.2381
vn 0.1010 -0.9354 -0.3389
vn -0.2346 -0.9108 -0.3396
vn -0.5391 -0.8073 -0.2402
vn -0.7659 -0.6405 -0.0558
vn -0.8806 -0.4359 0.1856
vn -0.8657 -0.2247 0.4472
vn -0.7235 -0.0389 0.6892
vn -0.4756 0.0931 0.8747
vn -0.1598 0.1513 0.9755
vn 0.0581 0.7750 -0.6292
s off
f 1//1 13//1 2//1
f 2//2 13//2 3//2
f 3//3 13//3 4//3
f 4//4 13//4 5//4
f 5//5 13//5 6//5
f 6//6 13//6 7//6
f 7//7 13//7 8//7
f 8//8 13//8 9//8
f 9//9 13//9 10//9
f 10//10 13//10 11//10
f 11//11 13//11 12//11
f 12//12 13//12 14//12
f 14//13 13//13 15//13
f 15//14 13//14 16//14
f 16//15 13//15 17//15
f 17//16 13//16 1//16
f 4//17 8//17 12//17
f 17//17 1//17 2//17
f 2//17 3//17 4//17
f 4//17 5//17 6//17
f 6//17 7//17 8//17
f 8//17 9//17 10//17
f 10//17 11//17 12//17
f 12//17 14//17 15//17
f 15//17 16//17 12//17
f 16//17 17//17 12//17
f 17//17 2//17 4//17
f 4//17 6//17 8//17
f 8//17 10//17 12//17
f 17//17 4//17 12//17
