# Blender v2.83.0 OBJ File: ''
# www.blender.org
o Cone.094_Cone.1834
v -2.773870 -0.567405 -0.380448
v -3.087286 -0.794858 -0.722091
v -3.230849 -1.127445 -1.090139
v -3.182705 -1.514534 -1.428559
v -2.950181 -1.897194 -1.685830
v -2.568679 -2.217169 -1.822785
v -2.096278 -2.425744 -1.818573
v -1.604897 -2.491166 -1.673837
v -1.169345 -2.403476 -1.410610
v -0.855929 -2.176023 -1.068967
v -0.712366 -1.843436 -0.700919
v -1.385399 -0.186064 -2.298377
v -0.760510 -1.456347 -0.362499
v -0.993034 -1.073686 -0.105228
v -1.374536 -0.753712 0.031727
v -1.846937 -0.545137 0.027515
v -2.338318 -0.479715 -0.117221
vn -0.4601 0.8734 -0.1594
vn -0.6077 0.6925 -0.3887
vn -0.6386 0.4600 -0.6170
vn -0.5479 0.2113 -0.8094
vn -0.3495 -0.0157 -0.9368
vn -0.0736 -0.1865 -0.9797
vn 0.2378 -0.2750 -0.9316
vn 0.5373 -0.2678 -0.7998
vn 0.7792 -0.1660 -0.6043
vn 0.9269 0.0149 -0.3750
vn 0.9577 0.2474 -0.1468
vn 0.8670 0.4961 0.0457
vn 0.6687 0.7232 0.1731
vn 0.3928 0.8939 0.2159
vn 0.0814 0.9825 0.1678
vn -0.2181 0.9753 0.0360
vn -0.2931 -0.6497 0.7014
s off
f 1//1 12//1 2//1
f 2//2 12//2 3//2
f 3//3 12//3 4//3
f 4//4 12//4 5//4
f 5//5 12//5 6//5
f 6//6 12//6 7//6
f 7//7 12//7 8//7
f 8//8 12//8 9//8
f 9//9 12//9 10//9
f 10//10 12//10 11//10
f 11//11 12//11 13//11
f 13//12 12//12 14//12
f 14//13 12//13 15//13
f 15//14 12//14 16//14
f 16//15 12//15 17//15
f 17//16 12//16 1//16
f 8//17 13//17 17//17
f 17//17 1//17 2//17
f 2//17 3//17 4//17
f 4//17 5//17 6//17
f 6//17 7//17 8//17
f 8//17 9//17 10//17
f 10//17 11//17 13//17
f 13//17 14//17 15//17
f 15//17 16//17 17//17
f 17//17 2//17 4//17
f 4//17 6//17 17//17
f 6//17 8//17 17//17
f 8//17 10//17 13//17
f 13//17 15//17 17//17
