# Blender v2.83.0 OBJ File: ''
# www.blender.org
o Cone.074_Cone.1814
v -0.124015 -3.334567 -1.066035
v -0.800694 -3.442791 -1.010170
v -1.465655 -3.409164 -1.181703
v -2.017665 -3.238806 -1.554518
v -2.372684 -2.957651 -2.071859
v -2.476665 -2.608504 -2.654965
v -2.313776 -2.244518 -3.215063
v -1.908818 -1.921107 -3.666883
v -1.323439 -1.687508 -3.941640
v -0.646760 -1.579284 -3.997506
v 0.018201 -1.612910 -3.825974
v -0.908193 -0.817107 -1.456665
v 0.570211 -1.783269 -3.453158
v 0.925231 -2.064423 -2.935817
v 1.029211 -2.413571 -2.352711
v 0.866323 -2.777557 -1.792613
v 0.461363 -3.100968 -1.340792
vn 0.0541 0.1695 0.9840
vn -0.2396 0.1532 0.9587
vn -0.5060 0.1979 0.8396
vn -0.7045 0.2967 0.6447
vn -0.8050 0.4347 0.4038
vn -0.7921 0.5908 0.1536
vn -0.6678 0.7413 -0.0679
vn -0.4510 0.8632 -0.2270
vn -0.1747 0.9380 -0.2994
vn 0.1189 0.9543 -0.2740
vn 0.3853 0.9097 -0.1549
vn 0.5839 0.8108 0.0400
vn 0.6844 0.6729 0.2809
vn 0.6715 0.5168 0.5311
vn 0.5472 0.3663 0.7526
vn 0.3304 0.2444 0.9117
vn 0.0922 -0.8470 -0.5236
s off
f 1//1 12//1 2//1
f 2//2 12//2 3//2
f 3//3 12//3 4//3
f 4//4 12//4 5//4
f 5//5 12//5 6//5
f 6//6 12//6 7//6
f 7//7 12//7 8//7
f 8//8 12//8 9//8
f 9//9 12//9 10//9
f 10//10 12//10 11//10
f 11//11 12//11 13//11
f 13//12 12//12 14//12
f 14//13 12//13 15//13
f 15//14 12//14 16//14
f 16//15 12//15 17//15
f 17//16 12//16 1//16
f 4//17 8//17 13//17
f 17//17 1//17 2//17
f 2//17 3//17 4//17
f 4//17 5//17 6//17
f 6//17 7//17 8//17
f 8//17 9//17 10//17
f 10//17 11//17 13//17
f 13//17 14//17 15//17
f 15//17 16//17 17//17
f 17//17 2//17 4//17
f 4//17 6//17 8//17
f 8//17 10//17 13//17
f 13//17 15//17 17//17
f 17//17 4//17 13//17
