# Blender v2.83.0 OBJ File: ''
# www.blender.org
o Cone.097_Cone.1837
v 0.034214 1.955914 1.053432
v -0.078084 2.302958 0.975489
v -0.275941 2.617194 1.010613
v -0.529235 2.850783 1.153455
v -0.799404 2.968163 1.382270
v -1.045318 2.951463 1.662221
v -1.229538 2.803226 1.950690
v -1.324018 2.546021 2.203760
v -1.314375 2.219004 2.382902
v -1.202077 1.871960 2.460845
v -1.004220 1.557724 2.425721
v -2.018032 1.359983 0.464361
v -0.750926 1.324135 2.282879
v -0.480757 1.206756 2.054065
v -0.234843 1.223455 1.774113
v -0.050624 1.371692 1.485644
v 0.043857 1.628897 1.232574
vn 0.3045 -0.1139 -0.9457
vn 0.1547 0.2054 -0.9664
vn -0.0631 0.4700 -0.8804
vn -0.3159 0.6394 -0.7010
vn -0.5650 0.6881 -0.4553
vn -0.7727 0.6084 -0.1808
vn -0.9073 0.4126 0.0806
vn -0.9483 0.1305 0.2893
vn -0.8894 -0.1949 0.4135
vn -0.7396 -0.5142 0.4342
vn -0.5218 -0.7788 0.3482
vn -0.2690 -0.9482 0.1688
vn -0.0198 -0.9968 -0.0769
vn 0.1879 -0.9172 -0.3514
vn 0.3224 -0.7214 -0.6128
vn 0.3634 -0.4393 -0.8215
vn 0.6890 0.3637 0.6269
s off
f 1//1 12//1 2//1
f 2//2 12//2 3//2
f 3//3 12//3 4//3
f 4//4 12//4 5//4
f 5//5 12//5 6//5
f 6//6 12//6 7//6
f 7//7 12//7 8//7
f 8//8 12//8 9//8
f 9//9 12//9 10//9
f 10//10 12//10 11//10
f 11//11 12//11 13//11
f 13//12 12//12 14//12
f 14//13 12//13 15//13
f 15//14 12//14 16//14
f 16//15 12//15 17//15
f 17//16 12//16 1//16
f 15//17 17//17 8//17
f 17//17 1//17 2//17
f 2//17 3//17 4//17
f 4//17 5//17 6//17
f 6//17 7//17 8//17
f 8//17 9//17 10//17
f 10//17 11//17 8//17
f 11//17 13//17 8//17
f 13//17 14//17 15//17
f 15//17 16//17 17//17
f 17//17 2//17 8//17
f 2//17 4//17 8//17
f 4//17 6//17 8//17
f 13//17 15//17 8//17
