# Blender v2.83.0 OBJ File: ''
# www.blender.org
o Cone.055_Cone.1795
v 1.864635 -1.426027 0.495924
v 1.249822 -1.495436 0.686197
v 0.624457 -1.656438 0.641330
v 0.083746 -1.884523 0.368153
v -0.289993 -2.144966 -0.091744
v -0.439860 -2.398118 -0.668347
v -0.343041 -2.605437 -1.273872
v -0.014275 -2.735363 -1.816135
v 0.496386 -2.768114 -2.212579
v 1.111199 -2.698705 -2.402852
v 1.736564 -2.537702 -2.357985
v 0.759576 -0.268891 -1.551564
v 2.277276 -2.309617 -2.084808
v 2.651014 -2.049174 -1.624911
v 2.800882 -1.796022 -1.048308
v 2.704062 -1.588703 -0.442783
v 2.375296 -1.458777 0.099480
vn 0.0468 0.8802 0.4722
vn -0.2488 0.8253 0.5069
vn -0.5268 0.7326 0.4311
vn -0.7448 0.6161 0.2563
vn -0.8696 0.4937 0.0093
vn -0.8822 0.3839 -0.2725
vn -0.7808 0.3035 -0.5461
vn -0.5807 0.2648 -0.7699
vn -0.3124 0.2735 -0.9097
vn -0.0168 0.3284 -0.9444
vn 0.2612 0.4212 -0.8686
vn 0.4791 0.5376 -0.6938
vn 0.6039 0.6601 -0.4468
vn 0.6166 0.7698 -0.1650
vn 0.5151 0.8502 0.1086
vn 0.3150 0.8890 0.3324
vn 0.2105 -0.9141 0.3466
s off
f 1//1 12//1 2//1
f 2//2 12//2 3//2
f 3//3 12//3 4//3
f 4//4 12//4 5//4
f 5//5 12//5 6//5
f 6//6 12//6 7//6
f 7//7 12//7 8//7
f 8//8 12//8 9//8
f 9//9 12//9 10//9
f 10//10 12//10 11//10
f 11//11 12//11 13//11
f 13//12 12//12 14//12
f 14//13 12//13 15//13
f 15//14 12//14 16//14
f 16//15 12//15 17//15
f 17//16 12//16 1//16
f 8//17 13//17 17//17
f 17//17 1//17 2//17
f 2//17 3//17 4//17
f 4//17 5//17 6//17
f 6//17 7//17 4//17
f 7//17 8//17 4//17
f 8//17 9//17 10//17
f 10//17 11//17 13//17
f 13//17 14//17 15//17
f 15//17 16//17 17//17
f 17//17 2//17 8//17
f 2//17 4//17 8//17
f 8//17 10//17 13//17
f 13//17 15//17 17//17
