# Blender v2.83.0 OBJ File: ''
# www.blender.org
o Cone.077_Cone.1817
v -0.340430 1.562159 -2.715839
v -0.406877 1.147843 -2.532595
v -0.635365 0.806365 -2.330513
v -0.991108 0.589712 -2.140357
v -1.419948 0.530867 -1.991078
v -1.856599 0.638789 -1.905401
v -2.234583 0.897047 -1.896371
v -2.496356 1.266325 -1.965361
v -2.602067 1.690402 -2.101869
v -2.535620 2.104718 -2.285113
v -2.307133 2.446196 -2.487195
v -1.951389 2.662850 -2.677351
v -0.943961 2.335274 -0.614614
v -1.522549 2.721695 -2.826630
v -1.085898 2.613773 -2.912307
v -0.707914 2.355515 -2.921338
v -0.446140 1.986237 -2.852347
vn 0.9580 -0.0275 0.2853
vn 0.8470 -0.3120 0.4304
vn 0.6270 -0.5222 0.5781
vn 0.3316 -0.6259 0.7059
vn 0.0057 -0.6075 0.7943
vn -0.3010 -0.4696 0.8300
vn -0.5419 -0.2333 0.8074
vn -0.6803 0.0654 0.7300
vn -0.6950 0.3811 0.6096
vn -0.5840 0.6657 0.4646
vn -0.3640 0.8758 0.3169
vn -0.0686 0.9796 0.1891
vn 0.2573 0.9611 0.1006
vn 0.5640 0.8232 0.0649
vn 0.8049 0.5869 0.0875
vn 0.9433 0.2882 0.1649
vn -0.2636 -0.3545 -0.8971
s off
f 1//1 13//1 2//1
f 2//2 13//2 3//2
f 3//3 13//3 4//3
f 4//4 13//4 5//4
f 5//5 13//5 6//5
f 6//6 13//6 7//6
f 7//7 13//7 8//7
f 8//8 13//8 9//8
f 9//9 13//9 10//9
f 10//10 13//10 11//10
f 11//11 13//11 12//11
f 12//12 13//12 14//12
f 14//13 13//13 15//13
f 15//14 13//14 16//14
f 16//15 13//15 17//15
f 17//16 13//16 1//16
f 4//17 8//17 12//17
f 17//17 1//17 2//17
f 2//17 3//17 4//17
f 4//17 5//17 6//17
f 6//17 7//17 4//17
f 7//17 8//17 4//17
f 8//17 9//17 10//17
f 10//17 11//17 12//17
f 12//17 14//17 15//17
f 15//17 16//17 17//17
f 17//17 2//17 4//17
f 8//17 10//17 12//17
f 12//17 15//17 17//17
f 17//17 4//17 12//17
