# Blender v2.83.0 OBJ File: ''
# www.blender.org
o Cone.098_Cone.1838
v -1.966908 -0.552890 -1.012350
v -2.216897 0.105783 -1.223695
v -2.188534 0.786272 -1.501438
v -1.886138 1.384979 -1.803295
v -1.355746 1.810756 -2.083311
v -0.678105 1.998783 -2.298855
v 0.043620 1.920434 -2.417115
v 0.699553 1.587637 -2.420084
v 1.189835 1.051057 -2.307312
v 1.439823 0.392385 -2.095967
v 1.411461 -0.288104 -1.818225
v -0.010596 0.977719 0.163970
v 1.109065 -0.886812 -1.516368
v 0.578672 -1.312589 -1.236351
v -0.098969 -1.500616 -1.020807
v -0.820694 -1.422266 -0.902547
v -1.476628 -1.089469 -0.899578
vn -0.5482 0.0596 0.8342
vn -0.5922 0.3255 0.7371
vn -0.5266 0.5795 0.6220
vn -0.3612 0.7830 0.5064
vn -0.1213 0.9049 0.4080
vn 0.1566 0.9267 0.3417
vn 0.4302 0.8450 0.3177
vn 0.6578 0.6724 0.3395
vn 0.8048 0.4350 0.4038
vn 0.8488 0.1691 0.5010
vn 0.7831 -0.0849 0.6161
vn 0.6177 -0.2884 0.7316
vn 0.3778 -0.4103 0.8300
vn 0.1000 -0.4320 0.8963
vn -0.1736 -0.3504 0.9204
vn -0.4012 -0.1778 0.8986
vn -0.1890 -0.3643 -0.9119
s off
f 1//1 12//1 2//1
f 2//2 12//2 3//2
f 3//3 12//3 4//3
f 4//4 12//4 5//4
f 5//5 12//5 6//5
f 6//6 12//6 7//6
f 7//7 12//7 8//7
f 8//8 12//8 9//8
f 9//9 12//9 10//9
f 10//10 12//10 11//10
f 11//11 12//11 13//11
f 13//12 12//12 14//12
f 14//13 12//13 15//13
f 15//14 12//14 16//14
f 16//15 12//15 17//15
f 17//16 12//16 1//16
f 8//17 13//17 17//17
f 17//17 1//17 2//17
f 2//17 3//17 4//17
f 4//17 5//17 6//17
f 6//17 7//17 4//17
f 7//17 8//17 4//17
f 8//17 9//17 10//17
f 10//17 11//17 13//17
f 13//17 14//17 15//17
f 15//17 16//17 13//17
f 16//17 17//17 13//17
f 17//17 2//17 8//17
f 2//17 4//17 8//17
f 8//17 10//17 13//17
