# Blender v2.83.0 OBJ File: ''
# www.blender.org
o Cone.028_Cone.1768
v -1.142974 -0.209637 -1.168643
v -0.504347 -0.274597 -1.218341
v 0.058820 -0.578065 -1.291033
v 0.460791 -1.073841 -1.375653
v 0.640368 -1.686448 -1.459318
v 0.570212 -2.322621 -1.529291
v 0.261005 -2.885509 -1.574920
v -0.240180 -3.289419 -1.589257
v -0.857042 -3.472857 -1.570119
v -1.495669 -3.407897 -1.520422
v -2.058837 -3.104429 -1.447730
v -2.460807 -2.608653 -1.363110
v -0.869400 -2.073668 0.612769
v -2.640384 -1.996046 -1.279444
v -2.570229 -1.359873 -1.209471
v -2.261021 -0.796984 -1.163843
v -1.759836 -0.393075 -1.149506
vn 0.1258 0.6950 0.7079
vn 0.4144 0.6065 0.6785
vn 0.6462 0.4146 0.6407
vn 0.7859 0.1484 0.6003
vn 0.8121 -0.1515 0.5634
vn 0.7210 -0.4395 0.5357
vn 0.5264 -0.6717 0.5213
vn 0.2579 -0.8128 0.5224
vn -0.0436 -0.8412 0.5390
vn -0.3323 -0.7527 0.5683
vn -0.5640 -0.5608 0.6061
vn -0.7037 -0.2946 0.6465
vn -0.7300 0.0053 0.6834
vn -0.6389 0.2933 0.7112
vn -0.4443 0.5255 0.7256
vn -0.1757 0.6665 0.7245
vn -0.0653 0.1162 -0.9911
s off
f 1//1 13//1 2//1
f 2//2 13//2 3//2
f 3//3 13//3 4//3
f 4//4 13//4 5//4
f 5//5 13//5 6//5
f 6//6 13//6 7//6
f 7//7 13//7 8//7
f 8//8 13//8 9//8
f 9//9 13//9 10//9
f 10//10 13//10 11//10
f 11//11 13//11 12//11
f 12//12 13//12 14//12
f 14//13 13//13 15//13
f 15//14 13//14 16//14
f 16//15 13//15 17//15
f 17//16 13//16 1//16
f 17//17 4//17 8//17
f 17//17 1//17 4//17
f 1//17 2//17 4//17
f 2//17 3//17 4//17
f 4//17 5//17 6//17
f 6//17 7//17 8//17
f 8//17 9//17 10//17
f 10//17 11//17 12//17
f 12//17 14//17 15//17
f 15//17 16//17 17//17
f 4//17 6//17 8//17
f 8//17 10//17 17//17
f 10//17 12//17 17//17
f 12//17 15//17 17//17
