# Blender v2.83.0 OBJ File: ''
# www.blender.org
o Cone.043_Cone.1783
v -0.913082 -0.396766 0.537922
v -0.617959 -0.483762 0.625650
v -0.299704 -0.510434 0.606561
v -0.006769 -0.472723 0.483561
v 0.216249 -0.376369 0.275377
v 0.335399 -0.236042 0.013703
v 0.332540 -0.073105 -0.261625
v 0.208108 0.087636 -0.508689
v -0.018953 0.221711 -0.689877
v -0.314076 0.308706 -0.777604
v -0.632331 0.335379 -0.758515
v -0.670273 -1.800643 -1.087668
v -0.925266 0.297667 -0.635516
v -1.148285 0.201313 -0.427332
v -1.267435 0.060986 -0.165657
v -1.264576 -0.101951 0.109670
v -1.140144 -0.262692 0.356735
vn -0.3836 -0.7265 0.5701
vn -0.0298 -0.7921 0.6097
vn 0.3227 -0.7857 0.5277
vn 0.6204 -0.7084 0.3367
vn 0.8177 -0.5718 0.0657
vn 0.8848 -0.3969 -0.2441
vn 0.8114 -0.2102 -0.5454
vn 0.6086 -0.0401 -0.7924
vn 0.3074 0.0874 -0.9476
vn -0.0464 0.1529 -0.9871
vn -0.3989 0.1466 -0.9052
vn -0.6966 0.0692 -0.7141
vn -0.8939 -0.0673 -0.4431
vn -0.9610 -0.2422 -0.1334
vn -0.8876 -0.4289 0.1680
vn -0.6848 -0.5990 0.4150
vn 0.1021 0.8566 0.5058
s off
f 1//1 12//1 2//1
f 2//2 12//2 3//2
f 3//3 12//3 4//3
f 4//4 12//4 5//4
f 5//5 12//5 6//5
f 6//6 12//6 7//6
f 7//7 12//7 8//7
f 8//8 12//8 9//8
f 9//9 12//9 10//9
f 10//10 12//10 11//10
f 11//11 12//11 13//11
f 13//12 12//12 14//12
f 14//13 12//13 15//13
f 15//14 12//14 16//14
f 16//15 12//15 17//15
f 17//16 12//16 1//16
f 17//17 4//17 8//17
f 17//17 1//17 4//17
f 1//17 2//17 4//17
f 2//17 3//17 4//17
f 4//17 5//17 6//17
f 6//17 7//17 4//17
f 7//17 8//17 4//17
f 8//17 9//17 10//17
f 10//17 11//17 13//17
f 13//17 14//17 15//17
f 15//17 16//17 17//17
f 8//17 10//17 13//17
f 13//17 15//17 8//17
f 15//17 17//17 8//17
