# Blender v2.83.0 OBJ File: ''
# www.blender.org
o Cone.079_Cone.1819
v -0.228980 1.091848 1.827039
v -0.070574 1.174108 2.503411
v 0.272718 1.418733 3.061664
v 0.748632 1.788481 3.416811
v 1.284715 2.227063 3.514782
v 1.799354 2.667707 3.340664
v 2.214199 3.043330 2.920963
v 2.466094 3.296746 2.319576
v 2.516690 3.389376 1.628058
v 2.358284 3.307117 0.951686
v 2.014993 3.062492 0.393433
v 1.539078 2.692744 0.038286
v 2.420528 0.705196 1.615287
v 1.002994 2.254162 -0.059686
v 0.488356 1.813517 0.114433
v 0.073511 1.437894 0.534134
v -0.178384 1.184478 1.135521
vn -0.1310 -0.9800 0.1499
vn -0.0239 -0.9102 0.4135
vn 0.1510 -0.7790 0.6086
vn 0.3672 -0.6064 0.7054
vn 0.5915 -0.4186 0.6891
vn 0.7900 -0.2443 0.5623
vn 0.9324 -0.1099 0.3442
vn 0.9970 -0.0360 0.0681
vn 0.9740 -0.0338 -0.2240
vn 0.8669 -0.1036 -0.4877
vn 0.6919 -0.2348 -0.6827
vn 0.4758 -0.4075 -0.7795
vn 0.2514 -0.5952 -0.7632
vn 0.0529 -0.7695 -0.6364
vn -0.0895 -0.9039 -0.4183
vn -0.1541 -0.9778 -0.1422
vn -0.6383 0.7677 0.0561
s off
f 1//1 13//1 2//1
f 2//2 13//2 3//2
f 3//3 13//3 4//3
f 4//4 13//4 5//4
f 5//5 13//5 6//5
f 6//6 13//6 7//6
f 7//7 13//7 8//7
f 8//8 13//8 9//8
f 9//9 13//9 10//9
f 10//10 13//10 11//10
f 11//11 13//11 12//11
f 12//12 13//12 14//12
f 14//13 13//13 15//13
f 15//14 13//14 16//14
f 16//15 13//15 17//15
f 17//16 13//16 1//16
f 4//17 8//17 12//17
f 17//17 1//17 4//17
f 1//17 2//17 4//17
f 2//17 3//17 4//17
f 4//17 5//17 6//17
f 6//17 7//17 8//17
f 8//17 9//17 10//17
f 10//17 11//17 12//17
f 12//17 14//17 15//17
f 15//17 16//17 12//17
f 16//17 17//17 12//17
f 4//17 6//17 8//17
f 8//17 10//17 12//17
f 17//17 4//17 12//17
