# Blender v2.83.0 OBJ File: ''
# www.blender.org
o Cone.052_Cone.1792
v 2.467227 -1.273140 -0.729109
v 2.433591 -1.520662 -0.798556
v 2.331604 -1.721830 -0.926427
v 2.176792 -1.846020 -1.093254
v 1.992724 -1.874324 -1.273640
v 1.807423 -1.802433 -1.440123
v 1.649100 -1.641292 -1.567357
v 1.541857 -1.415433 -1.635972
v 0.610038 -1.432452 0.254258
v 1.502021 -1.159242 -1.635521
v 1.535657 -0.911720 -1.566075
v 1.637645 -0.710551 -1.438204
v 1.792457 -0.586362 -1.271376
v 1.976525 -0.558058 -1.090990
v 2.161826 -0.629949 -0.924507
v 2.320149 -0.791090 -0.797273
v 2.427392 -1.016949 -0.728659
vn 0.4666 -0.2971 0.8331
vn 0.3677 -0.6244 0.6891
vn 0.1803 -0.8618 0.4742
vn -0.0669 -0.9730 0.2209
vn -0.3363 -0.9412 -0.0321
vn -0.5869 -0.7712 -0.2464
vn -0.7807 -0.4889 -0.3892
vn -0.8880 -0.1373 -0.4390
vn -0.8925 0.2301 -0.3880
vn -0.7935 0.5574 -0.2440
vn -0.6062 0.7948 -0.0291
vn -0.3590 0.9060 0.2242
vn -0.0896 0.8742 0.4772
vn 0.1611 0.7042 0.6915
vn 0.3548 0.4219 0.8343
vn 0.4621 0.0703 0.8841
vn 0.6873 0.1081 -0.7183
s off
f 1//1 9//1 2//1
f 2//2 9//2 3//2
f 3//3 9//3 4//3
f 4//4 9//4 5//4
f 5//5 9//5 6//5
f 6//6 9//6 7//6
f 7//7 9//7 8//7
f 8//8 9//8 10//8
f 10//9 9//9 11//9
f 11//10 9//10 12//10
f 12//11 9//11 13//11
f 13//12 9//12 14//12
f 14//13 9//13 15//13
f 15//14 9//14 16//14
f 16//15 9//15 17//15
f 17//16 9//16 1//16
f 8//17 13//17 17//17
f 17//17 1//17 4//17
f 1//17 2//17 4//17
f 2//17 3//17 4//17
f 4//17 5//17 6//17
f 6//17 7//17 8//17
f 8//17 10//17 11//17
f 11//17 12//17 13//17
f 13//17 14//17 15//17
f 15//17 16//17 17//17
f 4//17 6//17 17//17
f 6//17 8//17 17//17
f 8//17 11//17 13//17
f 13//17 15//17 17//17
