# Blender v2.83.0 OBJ File: ''
# www.blender.org
o Cone.053_Cone.1793
v 1.378388 -0.441995 0.291995
v 0.950172 -0.520684 0.142451
v 0.603769 -0.752586 -0.052871
v 0.391917 -1.102397 -0.264236
v 0.346867 -1.516862 -0.459465
v 0.475479 -1.932881 -0.608836
v 0.758172 -2.287119 -0.689609
v 1.151908 -2.525647 -0.689487
v 1.596746 -2.612152 -0.608489
v 2.024962 -2.533463 -0.458945
v 2.371364 -2.301561 -0.263622
v 2.583217 -1.951750 -0.052257
v 1.963768 -0.741923 -1.934977
v 2.628267 -1.537285 0.142972
v 2.499655 -1.121266 0.292343
v 2.216962 -0.767028 0.373116
v 1.823225 -0.528499 0.372994
vn -0.1226 0.9788 -0.1640
vn -0.4123 0.8626 -0.2930
vn -0.6211 0.6451 -0.4451
vn -0.7171 0.3593 -0.5972
vn -0.6859 0.0487 -0.7261
vn -0.5321 -0.2394 -0.8121
vn -0.2791 -0.4611 -0.8423
vn 0.0345 -0.5827 -0.8120
vn 0.3611 -0.5856 -0.7257
vn 0.6508 -0.4694 -0.5968
vn 0.8596 -0.2519 -0.4447
vn 0.9556 0.0340 -0.2926
vn 0.9244 0.3446 -0.1637
vn 0.7706 0.6326 -0.0776
vn 0.5176 0.8543 -0.0475
vn 0.2039 0.9759 -0.0778
vn -0.2381 -0.3926 0.8884
s off
f 1//1 13//1 2//1
f 2//2 13//2 3//2
f 3//3 13//3 4//3
f 4//4 13//4 5//4
f 5//5 13//5 6//5
f 6//6 13//6 7//6
f 7//7 13//7 8//7
f 8//8 13//8 9//8
f 9//9 13//9 10//9
f 10//10 13//10 11//10
f 11//11 13//11 12//11
f 12//12 13//12 14//12
f 14//13 13//13 15//13
f 15//14 13//14 16//14
f 16//15 13//15 17//15
f 17//16 13//16 1//16
f 17//17 4//17 8//17
f 17//17 1//17 2//17
f 2//17 3//17 4//17
f 4//17 5//17 6//17
f 6//17 7//17 8//17
f 8//17 9//17 10//17
f 10//17 11//17 12//17
f 12//17 14//17 15//17
f 15//17 16//17 17//17
f 17//17 2//17 4//17
f 4//17 6//17 8//17
f 8//17 10//17 12//17
f 12//17 15//17 8//17
f 15//17 17//17 8//17
