# Blender v2.83.0 OBJ File: ''
# www.blender.org
o Cone.081_Cone.1821
v -2.102977 0.711128 1.326004
v -2.444299 1.162424 1.131707
v -2.627820 1.598914 0.766035
v -2.625600 1.954146 0.284657
v -2.437978 2.174040 -0.239142
v -2.093517 2.225119 -0.725616
v -1.644659 2.099606 -1.100706
v -1.159737 1.816609 -1.307307
v -0.712578 1.419213 -1.313966
v -0.371256 0.967918 -1.119669
v -0.187735 0.531428 -0.753997
v -0.189954 0.176195 -0.272619
v -0.236456 2.366982 0.972090
v -0.377576 -0.043699 0.251180
v -0.722037 -0.094777 0.737655
v -1.170896 0.030736 1.112744
v -1.655818 0.313733 1.319345
vn -0.1082 0.3229 0.9402
vn -0.2477 0.5589 0.7914
vn -0.2959 0.7693 0.5663
vn -0.2454 0.9221 0.2992
vn -0.1040 0.9941 0.0307
vn 0.1068 0.9743 -0.1982
vn 0.3549 0.8658 -0.3528
vn 0.6026 0.6850 -0.4095
vn 0.8122 0.4594 -0.3596
vn 0.9516 0.2235 -0.2108
vn 0.9998 0.0131 0.0143
vn 0.9494 -0.1397 0.2814
vn 0.8080 -0.2117 0.5499
vn 0.5971 -0.1920 0.7788
vn 0.3490 -0.0834 0.9334
vn 0.1013 0.0974 0.9901
vn -0.5857 -0.6509 -0.4830
s off
f 1//1 13//1 2//1
f 2//2 13//2 3//2
f 3//3 13//3 4//3
f 4//4 13//4 5//4
f 5//5 13//5 6//5
f 6//6 13//6 7//6
f 7//7 13//7 8//7
f 8//8 13//8 9//8
f 9//9 13//9 10//9
f 10//10 13//10 11//10
f 11//11 13//11 12//11
f 12//12 13//12 14//12
f 14//13 13//13 15//13
f 15//14 13//14 16//14
f 16//15 13//15 17//15
f 17//16 13//16 1//16
f 17//17 4//17 8//17
f 17//17 1//17 4//17
f 1//17 2//17 4//17
f 2//17 3//17 4//17
f 4//17 5//17 6//17
f 6//17 7//17 4//17
f 7//17 8//17 4//17
f 8//17 9//17 10//17
f 10//17 11//17 12//17
f 12//17 14//17 15//17
f 15//17 16//17 17//17
f 8//17 10//17 12//17
f 12//17 15//17 8//17
f 15//17 17//17 8//17
