# Blender v2.83.0 OBJ File: ''
# www.blender.org
o Cone.099_Cone.1839
v 0.227131 0.057552 0.890045
v 0.157257 0.197244 0.763574
v 0.024523 0.324376 0.682271
v -0.150863 0.419593 0.658513
v -0.342200 0.468400 0.695917
v -0.520358 0.463367 0.788789
v -0.658216 0.405258 0.922989
v -0.734784 0.302922 1.078088
v -0.866506 -1.322267 -0.189477
v -0.738407 0.171937 1.230472
v -0.668533 0.032245 1.356942
v -0.535799 -0.094887 1.438245
v -0.360413 -0.190104 1.462003
v -0.169076 -0.238911 1.424599
v 0.009083 -0.233878 1.331727
v 0.146940 -0.175769 1.197527
v 0.223509 -0.073433 1.042428
vn 0.7847 -0.1517 -0.6011
vn 0.5903 0.1044 -0.8004
vn 0.2946 0.3177 -0.9013
vn -0.0573 0.4559 -0.8882
vn -0.4119 0.4979 -0.7632
vn -0.7151 0.4374 -0.5453
vn -0.9209 0.2834 -0.2676
vn -0.9979 0.0595 0.0274
vn -0.9343 -0.2002 0.2950
vn -0.7399 -0.4563 0.4944
vn -0.4442 -0.6697 0.5952
vn -0.0923 -0.8079 0.5821
vn 0.2623 -0.8499 0.4571
vn 0.5655 -0.7893 0.2392
vn 0.7713 -0.6353 -0.0384
vn 0.8482 -0.4114 -0.3335
vn 0.3054 0.7185 0.6249
s off
f 1//1 9//1 2//1
f 2//2 9//2 3//2
f 3//3 9//3 4//3
f 4//4 9//4 5//4
f 5//5 9//5 6//5
f 6//6 9//6 7//6
f 7//7 9//7 8//7
f 8//8 9//8 10//8
f 10//9 9//9 11//9
f 11//10 9//10 12//10
f 12//11 9//11 13//11
f 13//12 9//12 14//12
f 14//13 9//13 15//13
f 15//14 9//14 16//14
f 16//15 9//15 17//15
f 17//16 9//16 1//16
f 17//17 4//17 8//17
f 17//17 1//17 2//17
f 2//17 3//17 4//17
f 4//17 5//17 6//17
f 6//17 7//17 4//17
f 7//17 8//17 4//17
f 8//17 10//17 11//17
f 11//17 12//17 8//17
f 12//17 13//17 8//17
f 13//17 14//17 15//17
f 15//17 16//17 17//17
f 17//17 2//17 4//17
f 13//17 15//17 8//17
f 15//17 17//17 8//17
