# Blender v2.83.0 OBJ File: ''
# www.blender.org
o Cone.003_Cone.1743
v 1.004616 -0.559299 -0.027641
v 1.093678 -0.102376 -0.475479
v 0.984960 0.447010 -0.797386
v 0.695011 1.005220 -0.944355
v 0.267974 1.487272 -0.894012
v -0.231139 1.819778 -0.654021
v -0.726341 1.952116 -0.260918
v -1.142244 1.864140 0.225450
v -1.415529 1.569243 0.731039
v -1.504592 1.112320 1.178876
v -1.395873 0.562934 1.500783
v -1.105924 0.004723 1.647753
v -1.444782 -0.463933 -0.883331
v -0.678887 -0.477329 1.597410
v -0.179775 -0.809834 1.357418
v 0.315428 -0.942173 0.964315
v 0.731331 -0.854196 0.477947
vn 0.2093 -0.7050 -0.6777
vn 0.2046 -0.4644 -0.8617
vn 0.1093 -0.1996 -0.9738
vn -0.0621 0.0491 -0.9969
vn -0.2835 0.2438 -0.9275
vn -0.5212 0.3549 -0.7761
vn -0.7390 0.3655 -0.5659
vn -0.9038 0.2740 -0.3287
vn -0.9904 0.0943 -0.1008
vn -0.9857 -0.1463 0.0832
vn -0.8904 -0.4111 0.1953
vn -0.7190 -0.6598 0.2184
vn -0.4976 -0.8545 0.1490
vn -0.2599 -0.9656 -0.0023
vn -0.0421 -0.9762 -0.2126
vn 0.1227 -0.8847 -0.4497
vn 0.6197 0.4845 0.6175
s off
f 1//1 13//1 2//1
f 2//2 13//2 3//2
f 3//3 13//3 4//3
f 4//4 13//4 5//4
f 5//5 13//5 6//5
f 6//6 13//6 7//6
f 7//7 13//7 8//7
f 8//8 13//8 9//8
f 9//9 13//9 10//9
f 10//10 13//10 11//10
f 11//11 13//11 12//11
f 12//12 13//12 14//12
f 14//13 13//13 15//13
f 15//14 13//14 16//14
f 16//15 13//15 17//15
f 17//16 13//16 1//16
f 17//17 4//17 8//17
f 17//17 1//17 4//17
f 1//17 2//17 4//17
f 2//17 3//17 4//17
f 4//17 5//17 8//17
f 5//17 6//17 8//17
f 6//17 7//17 8//17
f 8//17 9//17 10//17
f 10//17 11//17 12//17
f 12//17 14//17 15//17
f 15//17 16//17 17//17
f 8//17 10//17 17//17
f 10//17 12//17 17//17
f 12//17 15//17 17//17
