# Blender v2.83.0 OBJ File: ''
# www.blender.org
o Cone.075_Cone.1815
v 2.952042 0.509951 0.039202
v 2.904941 0.184040 -0.250360
v 2.711078 -0.056606 -0.561470
v 2.399968 -0.175351 -0.846764
v 2.018975 -0.154117 -1.062808
v 1.626100 0.003862 -1.176713
v 1.281156 0.274537 -1.171137
v 1.036657 0.616699 -1.046928
v 0.929826 0.978258 -0.822997
v 0.976927 1.304169 -0.533436
v 1.170789 1.544815 -0.222326
v 1.481900 1.663560 0.062968
v 1.078997 -0.383367 1.017312
v 1.862894 1.642326 0.279013
v 2.255768 1.484347 0.392917
v 2.600713 1.213672 0.387341
v 2.845212 0.871509 0.263132
vn 0.5767 -0.5876 0.5676
vn 0.4809 -0.8127 0.3290
vn 0.2803 -0.9555 0.0920
vn 0.0054 -0.9942 -0.1072
vn -0.3021 -0.9230 -0.2382
vn -0.5952 -0.7527 -0.2813
vn -0.8294 -0.5093 -0.2297
vn -0.9690 -0.2297 -0.0914
vn -0.9927 0.0434 0.1126
vn -0.8970 0.2685 0.3512
vn -0.6963 0.4113 0.5882
vn -0.4214 0.4500 0.7873
vn -0.1139 0.3788 0.9184
vn 0.1792 0.2085 0.9615
vn 0.4134 -0.0349 0.9099
vn 0.5529 -0.3145 0.7716
vn 0.4310 0.5637 -0.7046
s off
f 1//1 13//1 2//1
f 2//2 13//2 3//2
f 3//3 13//3 4//3
f 4//4 13//4 5//4
f 5//5 13//5 6//5
f 6//6 13//6 7//6
f 7//7 13//7 8//7
f 8//8 13//8 9//8
f 9//9 13//9 10//9
f 10//10 13//10 11//10
f 11//11 13//11 12//11
f 12//12 13//12 14//12
f 14//13 13//13 15//13
f 15//14 13//14 16//14
f 16//15 13//15 17//15
f 17//16 13//16 1//16
f 8//17 12//17 17//17
f 17//17 1//17 4//17
f 1//17 2//17 4//17
f 2//17 3//17 4//17
f 4//17 5//17 6//17
f 6//17 7//17 8//17
f 8//17 9//17 10//17
f 10//17 11//17 12//17
f 12//17 14//17 15//17
f 15//17 16//17 17//17
f 4//17 6//17 8//17
f 8//17 10//17 12//17
f 12//17 15//17 17//17
f 17//17 4//17 8//17
