# Blender v2.83.0 OBJ File: ''
# www.blender.org
o Cone.069_Cone.1809
v 1.809818 -0.892335 1.647891
v 1.572802 -0.978937 1.647695
v 1.358907 -1.072629 1.552056
v 1.200694 -1.159148 1.375535
v 1.122252 -1.225320 1.145004
v 1.135522 -1.261074 0.895561
v 1.238484 -1.260964 0.665180
v 1.415462 -1.225008 0.488935
v 1.639514 -1.158680 0.393658
v 1.876530 -1.072078 0.393854
v 2.090425 -0.978386 0.489493
v 2.248638 -0.891867 0.666014
v 1.046381 0.831525 0.718519
v 2.327080 -0.825695 0.896545
v 2.313810 -0.789941 1.145989
v 2.210848 -0.790051 1.376369
v 2.033870 -0.826007 1.552614
vn -0.1527 0.4158 0.8966
vn -0.4915 0.2803 0.8246
vn -0.7711 0.1449 0.6201
vn -0.9489 0.0302 0.3142
vn -0.9978 -0.0464 -0.0464
vn -0.9105 -0.0732 -0.4070
vn -0.7002 -0.0461 -0.7125
vn -0.3988 0.0307 -0.9165
vn -0.0524 0.1456 -0.9879
vn 0.2864 0.2811 -0.9159
vn 0.5660 0.4165 -0.7114
vn 0.7438 0.5313 -0.4056
vn 0.7928 0.6078 -0.0449
vn 0.7055 0.6346 0.3156
vn 0.4951 0.6075 0.6211
vn 0.1938 0.5307 0.8251
vn 0.3391 -0.9285 0.1511
s off
f 1//1 13//1 2//1
f 2//2 13//2 3//2
f 3//3 13//3 4//3
f 4//4 13//4 5//4
f 5//5 13//5 6//5
f 6//6 13//6 7//6
f 7//7 13//7 8//7
f 8//8 13//8 9//8
f 9//9 13//9 10//9
f 10//10 13//10 11//10
f 11//11 13//11 12//11
f 12//12 13//12 14//12
f 14//13 13//13 15//13
f 15//14 13//14 16//14
f 16//15 13//15 17//15
f 17//16 13//16 1//16
f 4//17 8//17 12//17
f 17//17 1//17 4//17
f 1//17 2//17 4//17
f 2//17 3//17 4//17
f 4//17 5//17 6//17
f 6//17 7//17 4//17
f 7//17 8//17 4//17
f 8//17 9//17 10//17
f 10//17 11//17 8//17
f 11//17 12//17 8//17
f 12//17 14//17 15//17
f 15//17 16//17 12//17
f 16//17 17//17 12//17
f 17//17 4//17 12//17
