# Blender v2.83.0 OBJ File: ''
# www.blender.org
o Cone.070_Cone.1810
v 1.781212 -0.000340 1.992259
v 1.713188 0.385891 2.117162
v 1.531404 0.692583 2.322823
v 1.263535 0.873045 2.577934
v 0.950360 0.899804 2.843655
v 0.639559 0.768785 3.079533
v 0.378448 0.499935 3.249659
v 0.206778 0.134184 3.328130
v 0.150685 -0.272785 3.303003
v 0.218708 -0.659016 3.178101
v 0.400492 -0.965708 2.972439
v -0.302845 0.132319 1.125177
v 0.668361 -1.146170 2.717329
v 0.981536 -1.172929 2.451607
v 1.292337 -1.041910 2.215729
v 1.553449 -0.773060 2.045603
v 1.725119 -0.407309 1.967131
vn 0.3792 0.3445 -0.8588
vn 0.2720 0.6419 -0.7169
vn 0.0790 0.8511 -0.5191
vn -0.1704 0.9400 -0.2955
vn -0.4383 0.8953 -0.0802
vn -0.6838 0.7236 0.0941
vn -0.8695 0.4512 0.2008
vn -0.9673 0.1195 0.2237
vn -0.9622 -0.2210 0.1593
vn -0.8550 -0.5184 0.0174
vn -0.6619 -0.7275 -0.1804
vn -0.4125 -0.8165 -0.4040
vn -0.1447 -0.7717 -0.6193
vn 0.1008 -0.6001 -0.7936
vn 0.2866 -0.3277 -0.9003
vn 0.3843 0.0040 -0.9232
vn 0.6344 -0.1344 0.7612
s off
f 1//1 12//1 2//1
f 2//2 12//2 3//2
f 3//3 12//3 4//3
f 4//4 12//4 5//4
f 5//5 12//5 6//5
f 6//6 12//6 7//6
f 7//7 12//7 8//7
f 8//8 12//8 9//8
f 9//9 12//9 10//9
f 10//10 12//10 11//10
f 11//11 12//11 13//11
f 13//12 12//12 14//12
f 14//13 12//13 15//13
f 15//14 12//14 16//14
f 16//15 12//15 17//15
f 17//16 12//16 1//16
f 4//17 8//17 13//17
f 17//17 1//17 2//17
f 2//17 3//17 4//17
f 4//17 5//17 6//17
f 6//17 7//17 4//17
f 7//17 8//17 4//17
f 8//17 9//17 10//17
f 10//17 11//17 13//17
f 13//17 14//17 17//17
f 14//17 15//17 17//17
f 15//17 16//17 17//17
f 17//17 2//17 4//17
f 8//17 10//17 13//17
f 17//17 4//17 13//17
