# Blender v2.83.0 OBJ File: ''
# www.blender.org
o Cone.049_Cone.1789
v -0.620665 -0.437434 -3.541344
v -0.423631 0.267687 -3.324683
v -0.033184 0.808038 -2.952486
v 0.491235 1.101354 -2.481413
v 1.069789 1.102982 -1.983184
v 1.614396 0.812674 -1.533647
v 2.042146 0.274626 -1.201242
v 2.287918 -0.429249 -1.036574
v 2.314295 -1.191792 -1.064712
v 2.117262 -1.896912 -1.281372
v 1.726815 -2.437263 -1.653570
v -0.456452 -0.915550 -0.789322
v 1.202395 -2.730580 -2.124642
v 0.623842 -2.732208 -2.622872
v 0.079234 -2.441899 -3.072408
v -0.348516 -1.903851 -3.404814
v -0.594288 -1.199975 -3.569482
vn -0.9658 0.2394 0.0992
vn -0.8554 0.4735 0.2099
vn -0.6834 0.6302 0.3684
vn -0.4761 0.6857 0.5506
vn -0.2650 0.6314 0.7288
vn -0.0822 0.4757 0.8758
vn 0.0444 0.2422 0.9692
vn 0.0956 -0.0334 0.9949
vn 0.0635 -0.3093 0.9488
vn -0.0470 -0.5434 0.8382
vn -0.2189 -0.7001 0.6796
vn -0.4263 -0.7555 0.4974
vn -0.6374 -0.7013 0.3193
vn -0.8202 -0.5456 0.1723
vn -0.9468 -0.3121 0.0789
vn -0.9979 -0.0365 0.0532
vn 0.6516 0.0505 -0.7569
s off
f 1//1 12//1 2//1
f 2//2 12//2 3//2
f 3//3 12//3 4//3
f 4//4 12//4 5//4
f 5//5 12//5 6//5
f 6//6 12//6 7//6
f 7//7 12//7 8//7
f 8//8 12//8 9//8
f 9//9 12//9 10//9
f 10//10 12//10 11//10
f 11//11 12//11 13//11
f 13//12 12//12 14//12
f 14//13 12//13 15//13
f 15//14 12//14 16//14
f 16//15 12//15 17//15
f 17//16 12//16 1//16
f 15//17 17//17 8//17
f 17//17 1//17 2//17
f 2//17 3//17 4//17
f 4//17 5//17 6//17
f 6//17 7//17 8//17
f 8//17 9//17 10//17
f 10//17 11//17 13//17
f 13//17 14//17 15//17
f 15//17 16//17 17//17
f 17//17 2//17 4//17
f 4//17 6//17 17//17
f 6//17 8//17 17//17
f 8//17 10//17 13//17
f 13//17 15//17 8//17
