# Blender v2.83.0 OBJ File: ''
# www.blender.org
o Cone.063_Cone.1803
v -2.614225 1.135143 -1.601215
v -1.994041 0.740866 -1.839419
v -1.372029 0.286264 -1.782297
v -0.842887 -0.159454 -1.438542
v -0.487170 -0.528433 -0.860490
v -0.359034 -0.764498 -0.136143
v -0.477985 -0.831710 0.624223
v -0.825916 -0.719838 1.304850
v -1.349855 -0.445912 1.802118
v -1.970040 -0.051636 2.040323
v -2.592051 0.402966 1.983200
v -0.836562 1.952296 0.421761
v -3.121194 0.848684 1.639446
v -3.476911 1.217663 1.061393
v -3.605047 1.453728 0.337046
v -3.486095 1.520941 -0.423320
v -3.138164 1.409068 -1.103947
vn 0.2800 0.7792 -0.5608
vn 0.5094 0.6224 -0.5942
vn 0.7221 0.4561 -0.5202
vn 0.8856 0.3056 -0.3499
vn 0.9749 0.1938 -0.1093
vn 0.9766 0.1378 0.1650
vn 0.8904 0.1460 0.4312
vn 0.7293 0.2173 0.6487
vn 0.5180 0.3407 0.7846
vn 0.2885 0.4975 0.8181
vn 0.0759 0.6639 0.7440
vn -0.0876 0.8144 0.5737
vn -0.1770 0.9261 0.3331
vn -0.1787 0.9821 0.0589
vn -0.0924 0.9739 -0.2073
vn 0.0686 0.9026 -0.4249
vn -0.5727 -0.8038 -0.1607
s off
f 1//1 12//1 2//1
f 2//2 12//2 3//2
f 3//3 12//3 4//3
f 4//4 12//4 5//4
f 5//5 12//5 6//5
f 6//6 12//6 7//6
f 7//7 12//7 8//7
f 8//8 12//8 9//8
f 9//9 12//9 10//9
f 10//10 12//10 11//10
f 11//11 12//11 13//11
f 13//12 12//12 14//12
f 14//13 12//13 15//13
f 15//14 12//14 16//14
f 16//15 12//15 17//15
f 17//16 12//16 1//16
f 8//17 13//17 17//17
f 17//17 1//17 2//17
f 2//17 3//17 4//17
f 4//17 5//17 6//17
f 6//17 7//17 8//17
f 8//17 9//17 10//17
f 10//17 11//17 13//17
f 13//17 14//17 15//17
f 15//17 16//17 17//17
f 17//17 2//17 4//17
f 4//17 6//17 8//17
f 8//17 10//17 13//17
f 13//17 15//17 17//17
f 17//17 4//17 8//17
