# Blender v2.83.0 OBJ File: ''
# www.blender.org
o Cone_Cone.1740
v 1.025363 -0.891530 -0.225175
v 1.120772 -0.494362 -0.187662
v 1.355508 -0.166452 -0.112651
v 1.693835 0.042279 -0.011561
v 2.084246 0.100052 0.100217
v 2.467304 -0.001927 0.205665
v 2.784692 -0.248133 0.288732
v 2.988091 -0.601083 0.336769
v 3.046535 -1.007044 0.342465
v 2.951126 -1.404213 0.304952
v 2.716390 -1.732123 0.229940
v 2.378063 -1.940853 0.128851
v 1.492641 -1.000508 1.982753
v 1.987652 -1.998626 0.017073
v 1.604594 -1.896647 -0.088376
v 1.287205 -1.650441 -0.171442
v 1.083807 -1.297491 -0.219480
vn -0.9545 0.2092 0.2123
vn -0.8122 0.5218 0.2608
vn -0.5652 0.7531 0.3367
vn -0.2511 0.8679 0.4285
vn 0.0823 0.8489 0.5221
vn 0.3842 0.6988 0.6034
vn 0.6086 0.4406 0.6599
vn 0.7215 0.1135 0.6831
vn 0.7056 -0.2327 0.6693
vn 0.5633 -0.5452 0.6208
vn 0.3163 -0.7765 0.5449
vn 0.0022 -0.8914 0.4532
vn -0.3312 -0.8724 0.3596
vn -0.6331 -0.7223 0.2783
vn -0.8576 -0.4640 0.2218
vn -0.9705 -0.1369 0.1986
vn 0.2717 0.0256 -0.9621
s off
f 1//1 13//1 2//1
f 2//2 13//2 3//2
f 3//3 13//3 4//3
f 4//4 13//4 5//4
f 5//5 13//5 6//5
f 6//6 13//6 7//6
f 7//7 13//7 8//7
f 8//8 13//8 9//8
f 9//9 13//9 10//9
f 10//10 13//10 11//10
f 11//11 13//11 12//11
f 12//12 13//12 14//12
f 14//13 13//13 15//13
f 15//14 13//14 16//14
f 16//15 13//15 17//15
f 17//16 13//16 1//16
f 8//17 12//17 17//17
f 17//17 1//17 2//17
f 2//17 3//17 17//17
f 3//17 4//17 17//17
f 4//17 5//17 6//17
f 6//17 7//17 4//17
f 7//17 8//17 4//17
f 8//17 9//17 10//17
f 10//17 11//17 8//17
f 11//17 12//17 8//17
f 12//17 14//17 15//17
f 15//17 16//17 17//17
f 12//17 15//17 17//17
f 17//17 4//17 8//17
