# Blender v2.83.0 OBJ File: ''
# www.blender.org
o Cone.040_Cone.1780
v 0.876151 1.489903 2.313550
v 0.661038 1.445544 2.393137
v 0.492787 1.331625 2.508412
v 0.397011 1.165486 2.641829
v 0.388292 0.972423 2.773074
v 0.467956 0.781826 2.882167
v 0.623877 0.622713 2.952499
v 0.832315 0.519307 2.973364
v 1.061539 0.487350 2.941584
v 1.276651 0.531708 2.861998
v 1.444903 0.645628 2.746722
v 0.590295 -0.103724 0.995553
v 1.540679 0.811767 2.613306
v 1.549398 1.004830 2.482061
v 1.469733 1.195427 2.372968
v 1.313813 1.354540 2.302635
v 1.105374 1.457946 2.281770
vn -0.3805 0.6290 -0.6780
vn -0.6937 0.4996 -0.5188
vn -0.9094 0.2708 -0.3156
vn -0.9948 -0.0226 -0.0994
vn -0.9368 -0.3361 0.0970
vn -0.7444 -0.6218 0.2436
vn -0.4467 -0.8362 0.3181
vn -0.0891 -0.9468 0.3092
vn 0.2739 -0.9367 0.2182
vn 0.5871 -0.8074 0.0590
vn 0.8028 -0.5786 -0.1442
vn 0.8881 -0.2851 -0.3604
vn 0.8302 0.0283 -0.5568
vn 0.6377 0.3140 -0.7033
vn 0.3401 0.5285 -0.7779
vn -0.0175 0.6391 -0.7689
vn 0.1893 0.5462 0.8160
s off
f 1//1 12//1 2//1
f 2//2 12//2 3//2
f 3//3 12//3 4//3
f 4//4 12//4 5//4
f 5//5 12//5 6//5
f 6//6 12//6 7//6
f 7//7 12//7 8//7
f 8//8 12//8 9//8
f 9//9 12//9 10//9
f 10//10 12//10 11//10
f 11//11 12//11 13//11
f 13//12 12//12 14//12
f 14//13 12//13 15//13
f 15//14 12//14 16//14
f 16//15 12//15 17//15
f 17//16 12//16 1//16
f 8//17 13//17 17//17
f 17//17 1//17 2//17
f 2//17 3//17 4//17
f 4//17 5//17 6//17
f 6//17 7//17 4//17
f 7//17 8//17 4//17
f 8//17 9//17 10//17
f 10//17 11//17 13//17
f 13//17 14//17 15//17
f 15//17 16//17 17//17
f 17//17 2//17 8//17
f 2//17 4//17 8//17
f 8//17 10//17 13//17
f 13//17 15//17 17//17
