# Blender v2.83.0 OBJ File: ''
# www.blender.org
o Cone.086_Cone.1826
v -1.143290 1.240160 -0.783621
v -1.066145 0.817161 -0.761138
v -0.880849 0.453312 -0.624516
v -0.615612 0.204008 -0.394554
v -0.310814 0.107203 -0.106262
v -0.012857 0.177634 0.196471
v 0.232898 0.404579 0.467555
v 0.389035 0.753487 0.665721
v 0.431786 1.171240 0.760800
v 0.354641 1.594240 0.738317
v 0.169345 1.958089 0.601695
v 1.042837 1.385383 -1.429741
v -0.095893 2.207393 0.371733
v -0.400691 2.304198 0.083441
v -0.698648 2.233767 -0.219292
v -0.944403 2.006822 -0.490376
v -1.100540 1.657914 -0.688542
vn -0.2758 -0.1011 -0.9559
vn -0.1692 -0.4208 -0.8912
vn 0.0139 -0.6699 -0.7423
vn 0.2455 -0.8106 -0.5317
vn 0.4904 -0.8213 -0.2916
vn 0.7113 -0.7004 -0.0584
vn 0.8746 -0.4665 0.1322
vn 0.9554 -0.1550 0.2514
vn 0.9414 0.1866 0.2809
vn 0.8348 0.5063 0.2162
vn 0.6517 0.7554 0.0673
vn 0.4201 0.8961 -0.1433
vn 0.1752 0.9068 -0.3834
vn -0.0457 0.7860 -0.6166
vn -0.2090 0.5520 -0.8072
vn -0.2898 0.2405 -0.9264
vn -0.6993 -0.0898 0.7092
s off
f 1//1 12//1 2//1
f 2//2 12//2 3//2
f 3//3 12//3 4//3
f 4//4 12//4 5//4
f 5//5 12//5 6//5
f 6//6 12//6 7//6
f 7//7 12//7 8//7
f 8//8 12//8 9//8
f 9//9 12//9 10//9
f 10//10 12//10 11//10
f 11//11 12//11 13//11
f 13//12 12//12 14//12
f 14//13 12//13 15//13
f 15//14 12//14 16//14
f 16//15 12//15 17//15
f 17//16 12//16 1//16
f 17//17 4//17 8//17
f 17//17 1//17 2//17
f 2//17 3//17 4//17
f 4//17 5//17 6//17
f 6//17 7//17 8//17
f 8//17 9//17 10//17
f 10//17 11//17 13//17
f 13//17 14//17 15//17
f 15//17 16//17 13//17
f 16//17 17//17 13//17
f 17//17 2//17 4//17
f 4//17 6//17 8//17
f 8//17 10//17 17//17
f 10//17 13//17 17//17
