# Blender v2.83.0 OBJ File: ''
# www.blender.org
o Cone.054_Cone.1794
v -2.357446 -0.240324 0.452679
v -1.955063 -0.668120 0.084994
v -1.438804 -0.856779 -0.336902
v -0.887263 -0.777582 -0.748779
v -0.384407 -0.442584 -1.087933
v -0.006793 0.097214 -1.302730
v 0.188093 0.759633 -1.360470
v 0.170580 1.443825 -1.252362
v -2.416626 1.120987 -1.848835
v -0.056666 2.045628 -0.994865
v -0.459048 2.473424 -0.627180
v -0.975307 2.662084 -0.205284
v -1.526849 2.582886 0.206594
v -2.029704 2.247888 0.545747
v -2.407319 1.708090 0.760545
v -2.602205 1.045671 0.818285
v -2.584691 0.361478 0.710176
vn -0.8082 -0.5158 -0.2843
vn -0.6093 -0.6493 -0.4552
vn -0.3781 -0.6729 -0.6357
vn -0.1499 -0.5833 -0.7983
vn 0.0407 -0.3939 -0.9183
vn 0.1647 -0.1336 -0.9773
vn 0.2031 0.1579 -0.9663
vn 0.1501 0.4363 -0.8872
vn 0.0138 0.6592 -0.7519
vn -0.1851 0.7926 -0.5809
vn -0.4162 0.8163 -0.4004
vn -0.6445 0.7267 -0.2378
vn -0.8351 0.5373 -0.1179
vn -0.9591 0.2770 -0.0589
vn -0.9975 -0.0145 -0.0698
vn -0.9445 -0.2929 -0.1490
vn 0.6048 -0.1092 0.7889
s off
f 1//1 9//1 2//1
f 2//2 9//2 3//2
f 3//3 9//3 4//3
f 4//4 9//4 5//4
f 5//5 9//5 6//5
f 6//6 9//6 7//6
f 7//7 9//7 8//7
f 8//8 9//8 10//8
f 10//9 9//9 11//9
f 11//10 9//10 12//10
f 12//11 9//11 13//11
f 13//12 9//12 14//12
f 14//13 9//13 15//13
f 15//14 9//14 16//14
f 16//15 9//15 17//15
f 17//16 9//16 1//16
f 13//17 15//17 17//17
f 17//17 1//17 2//17
f 2//17 3//17 4//17
f 4//17 5//17 6//17
f 6//17 7//17 8//17
f 8//17 10//17 11//17
f 11//17 12//17 13//17
f 13//17 14//17 15//17
f 15//17 16//17 17//17
f 17//17 2//17 4//17
f 4//17 6//17 17//17
f 6//17 8//17 17//17
f 8//17 11//17 17//17
f 11//17 13//17 17//17
