# Blender v2.83.0 OBJ File: ''
# www.blender.org
o Cone.045_Cone.1785
v 0.009329 -0.008484 0.067924
v -0.159033 0.132400 0.044450
v -0.287353 0.282176 -0.054777
v -0.356095 0.418044 -0.214651
v -0.354794 0.519317 -0.410832
v -0.283648 0.570579 -0.613454
v -0.153488 0.564025 -0.791669
v 0.015870 0.500652 -0.918345
v 0.198643 0.390110 -0.974198
v 0.367005 0.249226 -0.950724
v 0.495325 0.099449 -0.851496
v 0.564067 -0.036418 -0.691622
v 1.225854 1.659018 0.312228
v 0.562766 -0.137692 -0.495441
v 0.491619 -0.188954 -0.292820
v 0.361459 -0.182399 -0.114605
v 0.192101 -0.119027 0.012072
vn -0.1605 -0.0274 0.9866
vn -0.4181 0.2249 0.8801
vn -0.5892 0.4729 0.6552
vn -0.6477 0.6787 0.3461
vn -0.5848 0.8112 -0.0001
vn -0.4101 0.8500 -0.3307
vn -0.1500 0.7893 -0.5954
vn 0.1557 0.6383 -0.7539
vn 0.4605 0.4200 -0.7820
vn 0.7181 0.1677 -0.6755
vn 0.8891 -0.0803 -0.4505
vn 0.9477 -0.2862 -0.1414
vn 0.8848 -0.4186 0.2048
vn 0.7100 -0.4574 0.5354
vn 0.4500 -0.3967 0.8001
vn 0.1443 -0.2457 0.9585
vn -0.5609 -0.7341 -0.3827
s off
f 1//1 13//1 2//1
f 2//2 13//2 3//2
f 3//3 13//3 4//3
f 4//4 13//4 5//4
f 5//5 13//5 6//5
f 6//6 13//6 7//6
f 7//7 13//7 8//7
f 8//8 13//8 9//8
f 9//9 13//9 10//9
f 10//10 13//10 11//10
f 11//11 13//11 12//11
f 12//12 13//12 14//12
f 14//13 13//13 15//13
f 15//14 13//14 16//14
f 16//15 13//15 17//15
f 17//16 13//16 1//16
f 8//17 12//17 17//17
f 17//17 1//17 2//17
f 2//17 3//17 4//17
f 4//17 5//17 6//17
f 6//17 7//17 8//17
f 8//17 9//17 10//17
f 10//17 11//17 12//17
f 12//17 14//17 15//17
f 15//17 16//17 12//17
f 16//17 17//17 12//17
f 17//17 2//17 8//17
f 2//17 4//17 8//17
f 4//17 6//17 8//17
f 8//17 10//17 12//17
