# Blender v2.83.0 OBJ File: ''
# www.blender.org
o Cone.016_Cone.1756
v 1.614365 -1.066045 -0.755371
v 1.361817 -1.084326 -0.727365
v 1.135741 -1.198416 -0.699579
v 0.970556 -1.390946 -0.676241
v 0.891408 -1.632605 -0.660905
v 0.910348 -1.886603 -0.655906
v 1.024491 -2.114272 -0.662004
v 1.216462 -2.280949 -0.678272
v 1.457034 -2.361261 -0.702233
v 1.709581 -2.342981 -0.730238
v 1.935657 -2.228891 -0.758025
v 1.319303 -1.768907 -2.716293
v 2.100843 -2.036361 -0.781363
v 2.179991 -1.794702 -0.796699
v 2.161051 -1.540703 -0.801698
v 2.046907 -1.313035 -0.795599
v 1.854936 -1.146357 -0.779331
vn -0.1038 0.9411 -0.3217
vn -0.4597 0.8427 -0.2802
vn -0.7507 0.6147 -0.2422
vn -0.9324 0.2918 -0.2135
vn -0.9771 -0.0768 -0.1983
vn -0.8782 -0.4349 -0.1991
vn -0.6505 -0.7282 -0.2158
vn -0.3289 -0.9119 -0.2457
vn 0.0378 -0.9580 -0.2843
vn 0.3937 -0.8595 -0.3258
vn 0.6847 -0.6315 -0.3638
vn 0.8664 -0.3087 -0.3926
vn 0.9111 0.0599 -0.4077
vn 0.8122 0.4181 -0.4069
vn 0.5845 0.7113 -0.3903
vn 0.2629 0.8950 -0.3604
vn 0.1082 0.0276 0.9937
s off
f 1//1 12//1 2//1
f 2//2 12//2 3//2
f 3//3 12//3 4//3
f 4//4 12//4 5//4
f 5//5 12//5 6//5
f 6//6 12//6 7//6
f 7//7 12//7 8//7
f 8//8 12//8 9//8
f 9//9 12//9 10//9
f 10//10 12//10 11//10
f 11//11 12//11 13//11
f 13//12 12//12 14//12
f 14//13 12//13 15//13
f 15//14 12//14 16//14
f 16//15 12//15 17//15
f 17//16 12//16 1//16
f 15//17 17//17 8//17
f 17//17 1//17 2//17
f 2//17 3//17 4//17
f 4//17 5//17 6//17
f 6//17 7//17 8//17
f 8//17 9//17 10//17
f 10//17 11//17 13//17
f 13//17 14//17 15//17
f 15//17 16//17 17//17
f 17//17 2//17 8//17
f 2//17 4//17 8//17
f 4//17 6//17 8//17
f 8//17 10//17 13//17
f 13//17 15//17 8//17
