# Blender v2.83.0 OBJ File: ''
# www.blender.org
o Cone.022_Cone.1762
v 0.475186 -0.831295 3.469219
v 0.977589 -0.251832 3.334147
v 1.485446 0.181195 2.932899
v 1.921438 0.401861 2.326559
v 2.219192 0.376572 1.607438
v 2.333375 0.109177 0.885016
v 2.246606 -0.359614 0.269276
v 1.972094 -0.958433 -0.146044
v 1.551630 -1.596114 -0.297712
v 1.049227 -2.175577 -0.162641
v 0.541371 -2.608604 0.238608
v 2.513115 -2.359834 2.247016
v 0.105378 -2.829270 0.844948
v -0.192376 -2.803981 1.564069
v -0.306560 -2.536587 2.286491
v -0.219790 -2.067795 2.902232
v 0.054723 -1.468976 3.317551
vn 0.4197 -0.1554 0.8942
vn 0.6041 0.0294 0.7963
vn 0.7764 0.1487 0.6124
vn 0.9104 0.1844 0.3705
vn 0.9856 0.1309 0.1073
vn 0.9906 -0.0034 -0.1370
vn 0.9246 -0.1983 -0.3252
vn 0.7978 -0.4240 -0.4287
vn 0.6293 -0.6462 -0.4317
vn 0.4449 -0.8311 -0.3338
vn 0.2726 -0.9504 -0.1499
vn 0.1386 -0.9861 0.0921
vn 0.0634 -0.9326 0.3552
vn 0.0584 -0.7982 0.5995
vn 0.1244 -0.6034 0.7877
vn 0.2512 -0.3776 0.8912
vn -0.7499 0.5731 -0.3306
s off
f 1//1 12//1 2//1
f 2//2 12//2 3//2
f 3//3 12//3 4//3
f 4//4 12//4 5//4
f 5//5 12//5 6//5
f 6//6 12//6 7//6
f 7//7 12//7 8//7
f 8//8 12//8 9//8
f 9//9 12//9 10//9
f 10//10 12//10 11//10
f 11//11 12//11 13//11
f 13//12 12//12 14//12
f 14//13 12//13 15//13
f 15//14 12//14 16//14
f 16//15 12//15 17//15
f 17//16 12//16 1//16
f 15//17 17//17 8//17
f 17//17 1//17 2//17
f 2//17 3//17 4//17
f 4//17 5//17 6//17
f 6//17 7//17 4//17
f 7//17 8//17 4//17
f 8//17 9//17 10//17
f 10//17 11//17 8//17
f 11//17 13//17 8//17
f 13//17 14//17 15//17
f 15//17 16//17 17//17
f 17//17 2//17 8//17
f 2//17 4//17 8//17
f 13//17 15//17 8//17
