# Blender v2.83.0 OBJ File: ''
# www.blender.org
o Cone.085_Cone.1825
v -0.854798 0.302926 -1.011024
v -0.851370 0.539852 -0.978687
v -0.929300 0.754161 -0.906648
v -1.076724 0.913228 -0.805874
v -1.271198 0.992835 -0.691707
v -1.483114 0.980863 -0.581529
v -1.680211 0.879135 -0.492112
v -1.832483 0.703138 -0.437069
v -1.916747 0.479666 -0.424781
v -1.920175 0.242740 -0.457119
v -1.842245 0.028430 -0.529158
v -1.694821 -0.130637 -0.629932
v -2.312183 0.644147 -2.472277
v -1.500347 -0.210244 -0.744098
v -1.288431 -0.198272 -0.854277
v -1.091334 -0.096544 -0.943694
v -0.939062 0.079454 -0.998737
vn 0.7153 0.0843 -0.6937
vn 0.6560 0.4438 -0.6106
vn 0.4764 0.7412 -0.4729
vn 0.2041 0.9313 -0.3017
vn -0.1196 0.9852 -0.1230
vn -0.4454 0.8946 0.0360
vn -0.7237 0.6734 0.1511
vn -0.9121 0.3552 0.2047
vn -0.9820 -0.0116 0.1887
vn -0.9226 -0.3710 0.1056
vn -0.7431 -0.6684 -0.0321
vn -0.4708 -0.8585 -0.2033
vn -0.1471 -0.9124 -0.3820
vn 0.1787 -0.8218 -0.5410
vn 0.4570 -0.6006 -0.6561
vn 0.6454 -0.2824 -0.7097
vn 0.4632 -0.1264 0.8772
s off
f 1//1 13//1 2//1
f 2//2 13//2 3//2
f 3//3 13//3 4//3
f 4//4 13//4 5//4
f 5//5 13//5 6//5
f 6//6 13//6 7//6
f 7//7 13//7 8//7
f 8//8 13//8 9//8
f 9//9 13//9 10//9
f 10//10 13//10 11//10
f 11//11 13//11 12//11
f 12//12 13//12 14//12
f 14//13 13//13 15//13
f 15//14 13//14 16//14
f 16//15 13//15 17//15
f 17//16 13//16 1//16
f 8//17 12//17 17//17
f 17//17 1//17 2//17
f 2//17 3//17 4//17
f 4//17 5//17 6//17
f 6//17 7//17 4//17
f 7//17 8//17 4//17
f 8//17 9//17 10//17
f 10//17 11//17 8//17
f 11//17 12//17 8//17
f 12//17 14//17 15//17
f 15//17 16//17 12//17
f 16//17 17//17 12//17
f 17//17 2//17 4//17
f 17//17 4//17 8//17
