# Blender v2.83.0 OBJ File: ''
# www.blender.org
o Cone.093_Cone.1833
v 2.473400 0.804235 0.411497
v 2.524047 1.252047 0.446917
v 2.593967 1.649655 0.650324
v 2.672515 1.936527 0.990750
v 2.747732 2.068990 1.416369
v 2.808167 2.026876 1.862385
v 2.844621 1.816598 2.260894
v 2.851542 1.470168 2.551228
v 2.827878 1.040328 2.689187
v 2.777231 0.592516 2.653766
v 2.707311 0.194907 2.450360
v 0.681299 1.122411 1.836087
v 2.628763 -0.091965 2.109933
v 2.553546 -0.224428 1.684314
v 2.493110 -0.182314 1.238299
v 2.456657 0.027964 0.839789
v 2.449735 0.374394 0.549455
vn -0.6027 0.1304 -0.7873
vn -0.5565 0.4539 -0.6959
vn -0.4997 0.7157 -0.4878
vn -0.4409 0.8762 -0.1948
vn -0.3890 0.9107 0.1387
vn -0.3519 0.8142 0.4618
vn -0.3353 0.6012 0.7253
vn -0.3418 0.3042 0.8892
vn -0.3702 -0.0316 0.9284
vn -0.4163 -0.3550 0.8371
vn -0.4731 -0.6169 0.6290
vn -0.5319 -0.7773 0.3359
vn -0.5838 -0.8119 0.0025
vn -0.6209 -0.7153 -0.3206
vn -0.6375 -0.5023 -0.5842
vn -0.6311 -0.2053 -0.7480
vn 0.9847 -0.1001 -0.1429
s off
f 1//1 12//1 2//1
f 2//2 12//2 3//2
f 3//3 12//3 4//3
f 4//4 12//4 5//4
f 5//5 12//5 6//5
f 6//6 12//6 7//6
f 7//7 12//7 8//7
f 8//8 12//8 9//8
f 9//9 12//9 10//9
f 10//10 12//10 11//10
f 11//11 12//11 13//11
f 13//12 12//12 14//12
f 14//13 12//13 15//13
f 15//14 12//14 16//14
f 16//15 12//15 17//15
f 17//16 12//16 1//16
f 15//17 17//17 8//17
f 17//17 1//17 2//17
f 2//17 3//17 4//17
f 4//17 5//17 6//17
f 6//17 7//17 8//17
f 8//17 9//17 10//17
f 10//17 11//17 13//17
f 13//17 14//17 15//17
f 15//17 16//17 17//17
f 17//17 2//17 8//17
f 2//17 4//17 8//17
f 4//17 6//17 8//17
f 8//17 10//17 13//17
f 13//17 15//17 8//17
