# Blender v2.83.0 OBJ File: ''
# www.blender.org
o Cone.073_Cone.1813
v 3.435506 -1.033330 2.473027
v 3.353420 -1.749104 2.369335
v 3.104077 -2.359790 2.061579
v 2.725436 -2.772417 1.596612
v 2.275143 -2.924164 1.045220
v 1.821750 -2.791931 0.491350
v 1.434283 -2.395848 0.019322
v 1.171729 -1.796216 -0.299003
v 0.706501 -1.064672 2.294946
v 1.074060 -1.084323 -0.415161
v 1.156146 -0.368549 -0.311468
v 1.405489 0.242137 -0.003712
v 1.784130 0.654764 0.461255
v 2.234423 0.806511 1.012646
v 2.687816 0.674278 1.566517
v 3.075284 0.278195 2.038546
v 3.337837 -0.321438 2.356870
vn -0.0630 -0.1360 0.9887
vn -0.1298 -0.4035 0.9057
vn -0.2564 -0.6098 0.7499
vn -0.4235 -0.7236 0.5450
vn -0.6057 -0.7275 0.3222
vn -0.7753 -0.6210 0.1153
vn -0.9063 -0.4202 -0.0440
vn -0.9790 -0.1558 -0.1316
vn -0.9821 0.1321 -0.1342
vn -0.9153 0.3995 -0.0512
vn -0.7887 0.6058 0.1046
vn -0.6215 0.7196 0.3095
vn -0.4393 0.7236 0.5324
vn -0.2698 0.6170 0.7392
vn -0.1387 0.4163 0.8986
vn -0.0661 0.1518 0.9862
vn 0.7741 0.0029 -0.6330
s off
f 1//1 9//1 2//1
f 2//2 9//2 3//2
f 3//3 9//3 4//3
f 4//4 9//4 5//4
f 5//5 9//5 6//5
f 6//6 9//6 7//6
f 7//7 9//7 8//7
f 8//8 9//8 10//8
f 10//9 9//9 11//9
f 11//10 9//10 12//10
f 12//11 9//11 13//11
f 13//12 9//12 14//12
f 14//13 9//13 15//13
f 15//14 9//14 16//14
f 16//15 9//15 17//15
f 17//16 9//16 1//16
f 8//17 13//17 17//17
f 17//17 1//17 2//17
f 2//17 3//17 4//17
f 4//17 5//17 6//17
f 6//17 7//17 8//17
f 8//17 10//17 11//17
f 11//17 12//17 13//17
f 13//17 14//17 15//17
f 15//17 16//17 17//17
f 17//17 2//17 4//17
f 4//17 6//17 17//17
f 6//17 8//17 17//17
f 8//17 11//17 13//17
f 13//17 15//17 17//17
