# Blender v2.83.0 OBJ File: ''
# www.blender.org
o Cone.005_Cone.1745
v -1.538961 0.066501 -0.496978
v -1.246710 -0.263401 -1.022965
v -0.905723 -0.338127 -1.613772
v -0.567913 -0.146301 -2.179453
v -0.284708 0.282874 -2.633889
v -0.099223 0.884059 -2.907896
v -0.039697 1.565730 -2.959759
v -0.115192 2.224108 -2.781583
v -0.314215 2.758961 -2.400492
v -0.606466 3.088863 -1.874506
v -0.947453 3.163589 -1.283699
v -1.285263 2.971763 -0.718018
v -2.653511 1.486986 -2.454829
v -1.568469 2.542588 -0.263582
v -1.753953 1.941403 0.010426
v -1.813479 1.259732 0.062289
v -1.737984 0.601353 -0.115888
vn -0.7686 -0.6392 -0.0262
vn -0.6296 -0.7280 -0.2713
vn -0.4806 -0.7023 -0.5252
vn -0.3443 -0.5660 -0.7491
vn -0.2414 -0.3398 -0.9090
vn -0.1877 -0.0582 -0.9805
vn -0.1912 0.2359 -0.9528
vn -0.2514 0.4978 -0.8300
vn -0.3593 0.6877 -0.6309
vn -0.4983 0.7765 -0.3858
vn -0.6473 0.7508 -0.1319
vn -0.7836 0.6145 0.0920
vn -0.8864 0.3883 0.2519
vn -0.9402 0.1067 0.3234
vn -0.9367 -0.1874 0.2957
vn -0.8765 -0.4493 0.1729
vn 0.8635 -0.0371 0.5030
s off
f 1//1 13//1 2//1
f 2//2 13//2 3//2
f 3//3 13//3 4//3
f 4//4 13//4 5//4
f 5//5 13//5 6//5
f 6//6 13//6 7//6
f 7//7 13//7 8//7
f 8//8 13//8 9//8
f 9//9 13//9 10//9
f 10//10 13//10 11//10
f 11//11 13//11 12//11
f 12//12 13//12 14//12
f 14//13 13//13 15//13
f 15//14 13//14 16//14
f 16//15 13//15 17//15
f 17//16 13//16 1//16
f 10//17 12//17 17//17
f 17//17 1//17 2//17
f 2//17 3//17 4//17
f 4//17 5//17 6//17
f 6//17 7//17 8//17
f 8//17 9//17 10//17
f 10//17 11//17 12//17
f 12//17 14//17 15//17
f 15//17 16//17 12//17
f 16//17 17//17 12//17
f 17//17 2//17 8//17
f 2//17 4//17 8//17
f 4//17 6//17 8//17
f 8//17 10//17 17//17
