# Blender v2.83.0 OBJ File: ''
# www.blender.org
o Cone.035_Cone.1775
v -3.034220 0.677092 0.292527
v -2.858499 1.219396 0.330161
v -2.492149 1.651670 0.403067
v -1.990946 1.908105 0.500143
v -1.431191 1.949660 0.606612
v -0.898103 1.770010 0.706265
v -0.472840 1.396503 0.783929
v -0.220143 0.886005 0.827783
v -0.178484 0.316232 0.831149
v -0.354205 -0.226072 0.793514
v -0.720554 -0.658346 0.720609
v -1.978933 0.481028 2.526765
v -1.221758 -0.914781 0.623533
v -1.781513 -0.956336 0.517064
v -2.314601 -0.776685 0.417411
v -2.739865 -0.403179 0.339746
v -2.992561 0.107320 0.295893
vn -0.8666 0.2509 0.4313
vn -0.7133 0.5265 0.4626
vn -0.4679 0.7213 0.5107
vn -0.1679 0.8056 0.5682
vn 0.1412 0.7665 0.6265
vn 0.4122 0.6101 0.6767
vn 0.6040 0.3600 0.7110
vn 0.6872 0.0545 0.7244
vn 0.6493 -0.2600 0.7147
vn 0.4960 -0.5356 0.6834
vn 0.2506 -0.7304 0.6354
vn -0.0494 -0.8147 0.5778
vn -0.3585 -0.7756 0.5195
vn -0.6295 -0.6192 0.4694
vn -0.8213 -0.3692 0.4350
vn -0.9045 -0.0636 0.4216
vn 0.1863 0.0078 -0.9825
s off
f 1//1 12//1 2//1
f 2//2 12//2 3//2
f 3//3 12//3 4//3
f 4//4 12//4 5//4
f 5//5 12//5 6//5
f 6//6 12//6 7//6
f 7//7 12//7 8//7
f 8//8 12//8 9//8
f 9//9 12//9 10//9
f 10//10 12//10 11//10
f 11//11 12//11 13//11
f 13//12 12//12 14//12
f 14//13 12//13 15//13
f 15//14 12//14 16//14
f 16//15 12//15 17//15
f 17//16 12//16 1//16
f 8//17 13//17 17//17
f 17//17 1//17 4//17
f 1//17 2//17 4//17
f 2//17 3//17 4//17
f 4//17 5//17 6//17
f 6//17 7//17 4//17
f 7//17 8//17 4//17
f 8//17 9//17 10//17
f 10//17 11//17 13//17
f 13//17 14//17 15//17
f 15//17 16//17 17//17
f 8//17 10//17 13//17
f 13//17 15//17 17//17
f 17//17 4//17 8//17
