# Blender v2.83.0 OBJ File: ''
# www.blender.org
o Cone.012_Cone.1752
v -0.474707 1.481371 0.934856
v -0.473495 1.691077 1.202222
v -0.437240 1.786232 1.526404
v -0.371460 1.752349 1.858048
v -0.286171 1.594587 2.146665
v -0.194357 1.336962 2.348315
v -0.109995 1.018697 2.432298
v -0.045930 0.688244 2.385830
v -0.011914 0.395912 2.215985
v -0.013126 0.186205 1.948619
v -0.049381 0.091050 1.624437
v -2.168904 0.517665 1.914340
v -0.115161 0.124933 1.292793
v -0.200450 0.282696 1.004176
v -0.292265 0.540320 0.802526
v -0.376626 0.858585 0.718542
v -0.440692 1.189039 0.765010
vn -0.6266 0.6146 -0.4792
vn -0.6065 0.7787 -0.1607
vn -0.5515 0.8117 0.1923
vn -0.4702 0.7085 0.5262
vn -0.3749 0.4849 0.7902
vn -0.2800 0.1749 0.9439
vn -0.2001 -0.1744 0.9641
vn -0.1473 -0.5096 0.8477
vn -0.1297 -0.7799 0.6123
vn -0.1498 -0.9440 0.2939
vn -0.2048 -0.9770 -0.0592
vn -0.2861 -0.8739 -0.3931
vn -0.3814 -0.6502 -0.6571
vn -0.4763 -0.3402 -0.8108
vn -0.5562 0.0090 -0.8310
vn -0.6090 0.3443 -0.7146
vn 0.9628 0.2105 -0.1695
s off
f 1//1 12//1 2//1
f 2//2 12//2 3//2
f 3//3 12//3 4//3
f 4//4 12//4 5//4
f 5//5 12//5 6//5
f 6//6 12//6 7//6
f 7//7 12//7 8//7
f 8//8 12//8 9//8
f 9//9 12//9 10//9
f 10//10 12//10 11//10
f 11//11 12//11 13//11
f 13//12 12//12 14//12
f 14//13 12//13 15//13
f 15//14 12//14 16//14
f 16//15 12//15 17//15
f 17//16 12//16 1//16
f 4//17 8//17 13//17
f 17//17 1//17 2//17
f 2//17 3//17 4//17
f 4//17 5//17 8//17
f 5//17 6//17 8//17
f 6//17 7//17 8//17
f 8//17 9//17 10//17
f 10//17 11//17 13//17
f 13//17 14//17 15//17
f 15//17 16//17 13//17
f 16//17 17//17 13//17
f 17//17 2//17 4//17
f 8//17 10//17 13//17
f 17//17 4//17 13//17
