# Blender v2.83.0 OBJ File: ''
# www.blender.org
o Cone.041_Cone.1781
v 1.621664 1.147325 3.569763
v 1.629309 0.417349 3.385803
v 1.736797 -0.190085 2.954255
v 1.927764 -0.582502 2.340818
v 2.173136 -0.700160 1.638883
v 2.435557 -0.525146 0.955312
v 2.675078 -0.084105 0.394173
v 2.855232 0.555820 0.040895
v 2.948593 1.297204 -0.050739
v 2.940947 2.027179 0.133220
v 2.833459 2.634614 0.564768
v 0.410678 1.374176 1.078807
v 2.642493 3.027031 1.178205
v 2.397121 3.144689 1.880141
v 2.134699 2.969675 2.563712
v 1.895179 2.528633 3.124851
v 1.715024 1.888708 3.478129
vn -0.8973 -0.1167 0.4256
vn -0.8753 -0.3733 0.3075
vn -0.8180 -0.5652 0.1069
vn -0.7342 -0.6631 -0.1455
vn -0.6368 -0.6521 -0.4114
vn -0.5404 -0.5339 -0.6503
vn -0.4599 -0.3264 -0.8258
vn -0.4074 -0.0613 -0.9112
vn -0.3910 0.2211 -0.8935
vn -0.4130 0.4777 -0.7753
vn -0.4703 0.6696 -0.5748
vn -0.5541 0.7675 -0.3223
vn -0.6515 0.7565 -0.0564
vn -0.7479 0.6383 0.1825
vn -0.8284 0.4308 0.3580
vn -0.8809 0.1657 0.4433
vn 0.9372 -0.0760 0.3404
s off
f 1//1 12//1 2//1
f 2//2 12//2 3//2
f 3//3 12//3 4//3
f 4//4 12//4 5//4
f 5//5 12//5 6//5
f 6//6 12//6 7//6
f 7//7 12//7 8//7
f 8//8 12//8 9//8
f 9//9 12//9 10//9
f 10//10 12//10 11//10
f 11//11 12//11 13//11
f 13//12 12//12 14//12
f 14//13 12//13 15//13
f 15//14 12//14 16//14
f 16//15 12//15 17//15
f 17//16 12//16 1//16
f 4//17 8//17 13//17
f 17//17 1//17 2//17
f 2//17 3//17 17//17
f 3//17 4//17 17//17
f 4//17 5//17 6//17
f 6//17 7//17 8//17
f 8//17 9//17 10//17
f 10//17 11//17 8//17
f 11//17 13//17 8//17
f 13//17 14//17 15//17
f 15//17 16//17 13//17
f 16//17 17//17 13//17
f 4//17 6//17 8//17
f 17//17 4//17 13//17
