# Blender v2.83.0 OBJ File: ''
# www.blender.org
o Cone.033_Cone.1773
v -2.232644 0.569740 0.357884
v -2.520910 0.261179 -0.040889
v -2.615812 -0.164566 -0.424377
v -2.502903 -0.642678 -0.734196
v -2.199371 -1.100369 -0.923180
v -1.751427 -1.467960 -0.962557
v -1.227266 -1.689489 -0.846333
v -0.706687 -1.731229 -0.592201
v -0.268943 -1.586826 -0.238852
v 0.019323 -1.278264 0.159921
v 0.114225 -0.852520 0.543408
v 0.001316 -0.374407 0.853228
v -0.453734 0.617836 -1.388230
v -0.302216 0.083284 1.042211
v -0.750160 0.450875 1.081589
v -1.274322 0.672404 0.965364
v -1.794901 0.714143 0.711233
vn -0.3880 0.8433 -0.3720
vn -0.4940 0.6401 -0.5884
vn -0.4890 0.3901 -0.7802
vn -0.3738 0.1312 -0.9182
vn -0.1659 -0.0971 -0.9814
vn 0.1030 -0.2600 -0.9601
vn 0.3920 -0.3328 -0.8576
vn 0.6571 -0.3044 -0.6896
vn 0.8579 -0.1791 -0.4816
vn 0.9639 0.0240 -0.2652
vn 0.9589 0.2740 -0.0734
vn 0.8437 0.5329 0.0646
vn 0.6359 0.7612 0.1278
vn 0.3669 0.9241 0.1065
vn 0.0780 0.9969 0.0041
vn -0.1871 0.9686 -0.1640
vn -0.3985 -0.5632 0.7239
s off
f 1//1 13//1 2//1
f 2//2 13//2 3//2
f 3//3 13//3 4//3
f 4//4 13//4 5//4
f 5//5 13//5 6//5
f 6//6 13//6 7//6
f 7//7 13//7 8//7
f 8//8 13//8 9//8
f 9//9 13//9 10//9
f 10//10 13//10 11//10
f 11//11 13//11 12//11
f 12//12 13//12 14//12
f 14//13 13//13 15//13
f 15//14 13//14 16//14
f 16//15 13//15 17//15
f 17//16 13//16 1//16
f 8//17 12//17 17//17
f 17//17 1//17 4//17
f 1//17 2//17 4//17
f 2//17 3//17 4//17
f 4//17 5//17 8//17
f 5//17 6//17 8//17
f 6//17 7//17 8//17
f 8//17 9//17 10//17
f 10//17 11//17 12//17
f 12//17 14//17 15//17
f 15//17 16//17 17//17
f 8//17 10//17 12//17
f 12//17 15//17 17//17
f 17//17 4//17 8//17
