# Blender v2.83.0 OBJ File: ''
# www.blender.org
o Cone.034_Cone.1774
v 1.142307 -0.518449 2.261871
v 1.019578 -0.941303 2.083335
v 0.999234 -1.294902 1.766638
v 1.084372 -1.525413 1.359995
v 1.262030 -1.597744 0.925312
v 1.505161 -1.500882 0.528767
v 1.776751 -1.249574 0.230730
v 2.035453 -0.882079 0.076574
v 2.241882 -0.454345 0.089768
v 2.364610 -0.031491 0.268304
v 2.384954 0.322108 0.585001
v 0.053291 0.329354 0.370290
v 2.299816 0.552620 0.991645
v 2.122158 0.624950 1.426328
v 1.879027 0.528088 1.822873
v 1.607437 0.276780 2.120910
v 1.348735 -0.090715 2.275066
vn -0.8595 0.0341 0.5101
vn -0.9109 -0.2450 0.3321
vn -0.8876 -0.4550 0.0721
vn -0.7931 -0.5638 -0.2303
vn -0.6419 -0.5550 -0.5291
vn -0.4569 -0.4299 -0.7788
vn -0.2663 -0.2074 -0.9413
vn -0.0991 0.0784 -0.9920
vn 0.0192 0.3841 -0.9231
vn 0.0707 0.6632 -0.7451
vn 0.0474 0.8732 -0.4851
vn -0.0471 0.9820 -0.1827
vn -0.1983 0.9732 0.1161
vn -0.3833 0.8481 0.3658
vn -0.5740 0.6257 0.5283
vn -0.7411 0.3398 0.5790
vn 0.8194 -0.4079 0.4028
s off
f 1//1 12//1 2//1
f 2//2 12//2 3//2
f 3//3 12//3 4//3
f 4//4 12//4 5//4
f 5//5 12//5 6//5
f 6//6 12//6 7//6
f 7//7 12//7 8//7
f 8//8 12//8 9//8
f 9//9 12//9 10//9
f 10//10 12//10 11//10
f 11//11 12//11 13//11
f 13//12 12//12 14//12
f 14//13 12//13 15//13
f 15//14 12//14 16//14
f 16//15 12//15 17//15
f 17//16 12//16 1//16
f 17//17 4//17 8//17
f 17//17 1//17 4//17
f 1//17 2//17 4//17
f 2//17 3//17 4//17
f 4//17 5//17 6//17
f 6//17 7//17 8//17
f 8//17 9//17 13//17
f 9//17 10//17 13//17
f 10//17 11//17 13//17
f 13//17 14//17 15//17
f 15//17 16//17 17//17
f 4//17 6//17 8//17
f 13//17 15//17 8//17
f 15//17 17//17 8//17
