# Blender v2.83.0 OBJ File: ''
# www.blender.org
o Cone.062_Cone.1802
v -1.458989 2.548035 -0.219491
v -1.145632 2.187214 -0.095795
v -0.750107 1.894143 -0.132589
v -0.332629 1.713438 -0.324273
v 0.043245 1.672610 -0.641663
v 0.320291 1.777875 -1.036441
v 0.456332 2.013207 -1.448505
v 0.430656 2.342779 -1.815122
v 0.247173 2.716417 -2.080477
v -0.066184 3.077237 -2.204174
v -0.461709 3.370309 -2.167380
v -1.668124 1.335665 -2.241143
v -0.879188 3.551014 -1.975696
v -1.255062 3.591842 -1.658305
v -1.532108 3.486577 -1.263527
v -1.668149 3.251244 -0.851463
v -1.642473 2.921672 -0.484846
vn -0.7569 -0.5230 0.3919
vn -0.5142 -0.7469 0.4217
vn -0.2358 -0.9091 0.3434
vn 0.0358 -0.9849 0.1691
vn 0.2594 -0.9629 -0.0747
vn 0.4008 -0.8463 -0.3510
vn 0.4386 -0.6528 -0.6176
vn 0.3670 -0.4121 -0.8340
vn 0.1969 -0.1606 -0.9672
vn -0.0458 0.0633 -0.9969
vn -0.3242 0.2255 -0.9187
vn -0.5958 0.3014 -0.7444
vn -0.8194 0.2793 -0.5006
vn -0.9608 0.1627 -0.2243
vn -0.9986 -0.0307 0.0423
vn -0.9270 -0.2715 0.2587
vn 0.5311 0.6483 0.5456
s off
f 1//1 12//1 2//1
f 2//2 12//2 3//2
f 3//3 12//3 4//3
f 4//4 12//4 5//4
f 5//5 12//5 6//5
f 6//6 12//6 7//6
f 7//7 12//7 8//7
f 8//8 12//8 9//8
f 9//9 12//9 10//9
f 10//10 12//10 11//10
f 11//11 12//11 13//11
f 13//12 12//12 14//12
f 14//13 12//13 15//13
f 15//14 12//14 16//14
f 16//15 12//15 17//15
f 17//16 12//16 1//16
f 17//17 4//17 8//17
f 17//17 1//17 2//17
f 2//17 3//17 17//17
f 3//17 4//17 17//17
f 4//17 5//17 6//17
f 6//17 7//17 4//17
f 7//17 8//17 4//17
f 8//17 9//17 13//17
f 9//17 10//17 13//17
f 10//17 11//17 13//17
f 13//17 14//17 15//17
f 15//17 16//17 17//17
f 13//17 15//17 8//17
f 15//17 17//17 8//17
