# Blender v2.83.0 OBJ File: ''
# www.blender.org
o Cone.009_Cone.1749
v 0.542915 -1.121147 2.094378
v 0.490342 -0.487094 1.980622
v 0.215931 0.063044 1.781188
v -0.238543 0.445513 1.526436
v -0.803890 0.602087 1.255150
v -1.394041 0.508926 1.008631
v -1.919150 0.180216 0.824410
v -2.299275 -0.334002 0.730532
v -2.476545 -0.955442 0.741290
v -2.423972 -1.589495 0.855045
v -2.149561 -2.139633 1.054479
v -0.167714 -1.297662 -0.397150
v -1.695087 -2.522103 1.309232
v -1.129740 -2.678676 1.580518
v -0.539589 -2.585515 1.827036
v -0.014479 -2.256804 2.011257
v 0.365646 -1.742586 2.105135
vn 0.9606 0.0301 -0.2761
vn 0.8825 0.3130 -0.3509
vn 0.7084 0.5358 -0.4594
vn 0.4648 0.6645 -0.5851
vn 0.1888 0.6797 -0.7088
vn -0.0776 0.5789 -0.8117
vn -0.2939 0.3776 -0.8781
vn -0.4270 0.1063 -0.8980
vn -0.4568 -0.1936 -0.8682
vn -0.3787 -0.4765 -0.7934
vn -0.2046 -0.6993 -0.6849
vn 0.0390 -0.8281 -0.5593
vn 0.3151 -0.8432 -0.4356
vn 0.5815 -0.7424 -0.3327
vn 0.7977 -0.5411 -0.2662
vn 0.9309 -0.2698 -0.2464
vn -0.3996 0.1297 0.9075
vn -0.3995 0.1297 0.9075
s off
f 1//1 12//1 2//1
f 2//2 12//2 3//2
f 3//3 12//3 4//3
f 4//4 12//4 5//4
f 5//5 12//5 6//5
f 6//6 12//6 7//6
f 7//7 12//7 8//7
f 8//8 12//8 9//8
f 9//9 12//9 10//9
f 10//10 12//10 11//10
f 11//11 12//11 13//11
f 13//12 12//12 14//12
f 14//13 12//13 15//13
f 15//14 12//14 16//14
f 16//15 12//15 17//15
f 17//16 12//16 1//16
f 8//17 13//17 17//17
f 17//17 1//17 2//17
f 2//17 3//17 4//17
f 4//17 5//17 6//17
f 6//17 7//17 8//17
f 8//17 9//17 10//17
f 10//17 11//17 13//17
f 13//18 14//18 15//18
f 15//17 16//17 17//17
f 17//17 2//17 4//17
f 4//17 6//17 8//17
f 8//17 10//17 13//17
f 13//17 15//17 17//17
f 17//17 4//17 8//17
