# Blender v2.83.0 OBJ File: ''
# www.blender.org
o Cone.021_Cone.1761
v 1.063023 2.970672 -1.416480
v 1.109102 2.319813 -1.774626
v 1.086863 1.581273 -1.864467
v 0.999689 0.867486 -1.672327
v 0.860853 0.287121 -1.227457
v 0.691492 -0.071467 -0.597585
v 0.517388 -0.153687 0.121398
v 0.365048 0.052979 0.820032
v 0.257664 0.517068 1.391958
v 0.211585 1.167927 1.750104
v 0.233825 1.906467 1.839945
v 2.603941 1.629678 0.445328
v 0.320998 2.620254 1.647805
v 0.459834 3.200619 1.202935
v 0.629196 3.559208 0.573062
v 0.803299 3.641428 -0.145921
v 0.955639 3.434761 -0.844556
vn 0.8301 0.3128 -0.4617
vn 0.8347 0.0417 -0.5491
vn 0.8134 -0.2418 -0.5291
vn 0.7692 -0.4943 -0.4048
vn 0.7091 -0.6776 -0.1951
vn 0.6421 -0.7636 0.0682
vn 0.5784 -0.7393 0.3448
vn 0.5277 -0.6084 0.5928
vn 0.4977 -0.3908 0.7743
vn 0.4931 -0.1197 0.8617
vn 0.5144 0.1638 0.8418
vn 0.5585 0.4163 0.7174
vn 0.6187 0.5996 0.5077
vn 0.6857 0.6856 0.2444
vn 0.7494 0.6613 -0.0322
vn 0.8001 0.5304 -0.2802
vn -0.9718 0.0571 -0.2288
s off
f 1//1 12//1 2//1
f 2//2 12//2 3//2
f 3//3 12//3 4//3
f 4//4 12//4 5//4
f 5//5 12//5 6//5
f 6//6 12//6 7//6
f 7//7 12//7 8//7
f 8//8 12//8 9//8
f 9//9 12//9 10//9
f 10//10 12//10 11//10
f 11//11 12//11 13//11
f 13//12 12//12 14//12
f 14//13 12//13 15//13
f 15//14 12//14 16//14
f 16//15 12//15 17//15
f 17//16 12//16 1//16
f 4//17 8//17 13//17
f 17//17 1//17 4//17
f 1//17 2//17 4//17
f 2//17 3//17 4//17
f 4//17 5//17 6//17
f 6//17 7//17 4//17
f 7//17 8//17 4//17
f 8//17 9//17 10//17
f 10//17 11//17 8//17
f 11//17 13//17 8//17
f 13//17 14//17 15//17
f 15//17 16//17 17//17
f 13//17 15//17 17//17
f 17//17 4//17 13//17
