# Blender v2.83.0 OBJ File: ''
# www.blender.org
o Cylinder.014_Cylinder.1903
v 2.316373 0.682815 -0.917778
v 1.322178 0.681443 -2.653167
v 2.273180 0.995550 -0.893280
v 1.278985 0.994178 -2.628669
v 2.129438 1.265477 -0.811144
v 1.135243 1.264105 -2.546533
v 1.907029 1.451502 -0.683875
v 0.912834 1.450130 -2.419263
v 1.639813 1.525305 -0.530846
v 0.645618 1.523932 -2.266235
v 1.368471 1.475649 -0.375357
v 0.374276 1.474277 -2.110746
v 1.134314 1.310095 -0.241078
v 0.140119 1.308723 -1.976467
v 0.972988 1.053846 -0.148453
v -0.021207 1.052474 -1.883842
v 0.909055 0.745915 -0.111583
v -0.085140 0.744543 -1.846972
v 0.952248 0.433180 -0.136081
v -0.041947 0.431808 -1.871469
v 1.095990 0.163253 -0.218216
v 0.101795 0.161881 -1.953605
v 1.318399 -0.022772 -0.345486
v 0.324204 -0.024144 -2.080875
v 1.585615 -0.096574 -0.498515
v 0.591420 -0.097947 -2.233903
v 1.856957 -0.046919 -0.654004
v 0.862762 -0.048291 -2.389392
v 2.091115 0.118636 -0.788283
v 1.096920 0.117263 -2.523671
v 2.252440 0.374884 -0.880908
v 1.258245 0.373512 -2.616296
vn 0.8569 0.1568 -0.4910
vn 0.7395 0.5228 -0.4241
vn 0.5095 0.8092 -0.2925
vn 0.2019 0.9725 -0.1164
vn -0.1364 0.9876 0.0774
vn -0.4539 0.8524 0.2594
vn -0.7024 0.5875 0.4019
vn -0.8439 0.2331 0.4833
vn -0.8569 -0.1568 0.4910
vn -0.7395 -0.5228 0.4241
vn -0.5095 -0.8092 0.2925
vn -0.2019 -0.9725 0.1164
vn 0.1364 -0.9876 -0.0774
vn 0.4539 -0.8524 -0.2594
vn -0.4971 -0.0007 -0.8677
vn 0.7024 -0.5875 -0.4019
vn 0.8439 -0.2331 -0.4833
vn 0.4971 0.0007 0.8677
s off
f 2//1 3//1 1//1
f 4//2 5//2 3//2
f 6//3 7//3 5//3
f 8//4 9//4 7//4
f 10//5 11//5 9//5
f 12//6 13//6 11//6
f 14//7 15//7 13//7
f 16//8 17//8 15//8
f 18//9 19//9 17//9
f 20//10 21//10 19//10
f 22//11 23//11 21//11
f 24//12 25//12 23//12
f 26//13 27//13 25//13
f 28//14 29//14 27//14
f 22//15 14//15 6//15
f 30//16 31//16 29//16
f 32//17 1//17 31//17
f 7//18 15//18 23//18
f 2//1 4//1 3//1
f 4//2 6//2 5//2
f 6//3 8//3 7//3
f 8//4 10//4 9//4
f 10//5 12//5 11//5
f 12//6 14//6 13//6
f 14//7 16//7 15//7
f 16//8 18//8 17//8
f 18//9 20//9 19//9
f 20//10 22//10 21//10
f 22//11 24//11 23//11
f 24//12 26//12 25//12
f 26//13 28//13 27//13
f 28//14 30//14 29//14
f 6//15 4//15 30//15
f 4//15 2//15 30//15
f 2//15 32//15 30//15
f 30//15 28//15 26//15
f 26//15 24//15 22//15
f 22//15 20//15 14//15
f 20//15 18//15 14//15
f 18//15 16//15 14//15
f 14//15 12//15 10//15
f 10//15 8//15 14//15
f 8//15 6//15 14//15
f 30//15 26//15 6//15
f 26//15 22//15 6//15
f 30//16 32//16 31//16
f 32//17 2//17 1//17
f 31//18 1//18 3//18
f 3//18 5//18 7//18
f 7//18 9//18 11//18
f 11//18 13//18 15//18
f 15//18 17//18 19//18
f 19//18 21//18 15//18
f 21//18 23//18 15//18
f 23//18 25//18 31//18
f 25//18 27//18 31//18
f 27//18 29//18 31//18
f 31//18 3//18 7//18
f 7//18 11//18 15//18
f 31//18 7//18 23//18
