# Blender v2.83.0 OBJ File: ''
# www.blender.org
o Cylinder.026_Cylinder.1915
v -1.637150 2.748848 -0.620089
v -0.922057 0.881135 -0.637052
v -1.340002 2.864151 -0.788905
v -0.624908 0.996438 -0.805868
v -1.126176 2.948543 -1.066840
v -0.411083 1.080830 -1.083803
v -1.028227 2.989176 -1.411580
v -0.313133 1.121463 -1.428543
v -1.061066 2.979864 -1.770643
v -0.345973 1.112151 -1.787606
v -1.219694 2.922025 -2.089363
v -0.504601 1.054311 -2.106327
v -1.479962 2.824463 -2.319220
v -0.764868 0.956750 -2.336183
v -1.802244 2.702034 -2.425218
v -1.087150 0.834320 -2.442181
v -2.137478 2.573373 -2.391222
v -1.422384 0.705660 -2.408185
v -2.434627 2.458070 -2.222405
v -1.719533 0.590357 -2.239369
v -2.648452 2.373678 -1.944471
v -1.933358 0.505965 -1.961434
v -2.746401 2.333045 -1.599730
v -2.031308 0.465332 -1.616693
v -2.713562 2.342357 -1.240668
v -1.998468 0.474644 -1.257631
v -2.554934 2.400197 -0.921947
v -1.839840 0.532483 -0.938910
v -2.294667 2.497758 -0.692090
v -1.579573 0.630045 -0.709054
v -1.972384 2.620188 -0.586092
v -1.257290 0.752475 -0.603055
vn 0.4398 0.1604 0.8837
vn 0.7216 0.2705 0.6373
vn 0.8935 0.3394 0.2939
vn 0.9294 0.3567 -0.0943
vn 0.8239 0.3197 -0.4680
vn 0.5928 0.2340 -0.7706
vn 0.2716 0.1127 -0.9558
vn -0.0910 -0.0258 -0.9955
vn -0.4398 -0.1604 -0.8837
vn -0.7216 -0.2705 -0.6373
vn -0.8935 -0.3394 -0.2939
vn -0.9294 -0.3567 0.0943
vn -0.8239 -0.3197 0.4680
vn -0.5928 -0.2340 0.7706
vn 0.3575 -0.9339 -0.0085
vn -0.2716 -0.1127 0.9558
vn 0.0910 0.0258 0.9955
vn -0.3575 0.9339 0.0085
s off
f 2//1 3//1 1//1
f 4//2 5//2 3//2
f 6//3 7//3 5//3
f 8//4 9//4 7//4
f 10//5 11//5 9//5
f 12//6 13//6 11//6
f 14//7 15//7 13//7
f 16//8 17//8 15//8
f 18//9 19//9 17//9
f 20//10 21//10 19//10
f 22//11 23//11 21//11
f 24//12 25//12 23//12
f 26//13 27//13 25//13
f 28//14 29//14 27//14
f 6//15 30//15 22//15
f 30//16 31//16 29//16
f 32//17 1//17 31//17
f 15//18 23//18 31//18
f 2//1 4//1 3//1
f 4//2 6//2 5//2
f 6//3 8//3 7//3
f 8//4 10//4 9//4
f 10//5 12//5 11//5
f 12//6 14//6 13//6
f 14//7 16//7 15//7
f 16//8 18//8 17//8
f 18//9 20//9 19//9
f 20//10 22//10 21//10
f 22//11 24//11 23//11
f 24//12 26//12 25//12
f 26//13 28//13 27//13
f 28//14 30//14 29//14
f 6//15 4//15 2//15
f 2//15 32//15 30//15
f 30//15 28//15 22//15
f 28//15 26//15 22//15
f 26//15 24//15 22//15
f 22//15 20//15 18//15
f 18//15 16//15 14//15
f 14//15 12//15 10//15
f 10//15 8//15 6//15
f 6//15 2//15 30//15
f 22//15 18//15 14//15
f 14//15 10//15 22//15
f 10//15 6//15 22//15
f 30//16 32//16 31//16
f 32//17 2//17 1//17
f 31//18 1//18 3//18
f 3//18 5//18 31//18
f 5//18 7//18 31//18
f 7//18 9//18 11//18
f 11//18 13//18 15//18
f 15//18 17//18 19//18
f 19//18 21//18 15//18
f 21//18 23//18 15//18
f 23//18 25//18 27//18
f 27//18 29//18 23//18
f 29//18 31//18 23//18
f 7//18 11//18 15//18
f 31//18 7//18 15//18
