# Blender v2.83.0 OBJ File: ''
# www.blender.org
o Cylinder.037_Cylinder.1926
v 2.667735 -1.900775 0.881981
v 0.679394 -2.102297 0.805238
v 2.627175 -1.463904 0.785678
v 0.638834 -1.665426 0.708935
v 2.579573 -1.024246 0.864478
v 0.591232 -1.225767 0.787735
v 2.532177 -0.648732 1.106385
v 0.543837 -0.850254 1.029642
v 2.492203 -0.394534 1.474570
v 0.503862 -0.596055 1.397826
v 2.465736 -0.300348 1.912980
v 0.477395 -0.501870 1.836237
v 2.456806 -0.380515 2.354872
v 0.468465 -0.582037 2.278129
v 2.466771 -0.622830 2.732972
v 0.478431 -0.824352 2.656229
v 2.494116 -0.990403 2.989717
v 0.505775 -1.191924 2.912973
v 2.534677 -1.427273 3.086020
v 0.546336 -1.628795 3.009277
v 2.582278 -1.866932 3.007220
v 0.593937 -2.068453 2.930477
v 2.629674 -2.242445 2.765314
v 0.641333 -2.443967 2.688570
v 2.669648 -2.496644 2.397129
v 0.681307 -2.698166 2.320385
v 2.696115 -2.590829 1.958718
v 0.707774 -2.792351 1.881975
v 2.705046 -2.510662 1.516826
v 0.716705 -2.712184 1.440082
v 2.695080 -2.268347 1.138726
v 0.706739 -2.469869 1.061983
vn 0.0589 -0.2097 -0.9760
vn 0.0199 0.1785 -0.9837
vn -0.0222 0.5394 -0.8417
vn -0.0609 0.8183 -0.5716
vn -0.0903 0.9726 -0.2144
vn -0.1060 0.9788 0.1754
vn -0.1055 0.8360 0.5385
vn -0.0890 0.5659 0.8197
vn -0.0589 0.2097 0.9760
vn -0.0199 -0.1785 0.9837
vn 0.0222 -0.5394 0.8417
vn 0.0609 -0.8183 0.5716
vn 0.0903 -0.9726 0.2144
vn 0.1060 -0.9788 -0.1754
vn -0.9942 -0.1008 -0.0384
vn 0.1055 -0.8360 -0.5385
vn 0.0890 -0.5659 -0.8197
vn 0.9942 0.1008 0.0384
s off
f 2//1 3//1 1//1
f 4//2 5//2 3//2
f 6//3 7//3 5//3
f 8//4 9//4 7//4
f 10//5 11//5 9//5
f 12//6 13//6 11//6
f 14//7 15//7 13//7
f 16//8 17//8 15//8
f 18//9 19//9 17//9
f 20//10 21//10 19//10
f 22//11 23//11 21//11
f 24//12 25//12 23//12
f 26//13 27//13 25//13
f 28//14 29//14 27//14
f 30//15 22//15 14//15
f 30//16 31//16 29//16
f 32//17 1//17 31//17
f 15//18 23//18 31//18
f 2//1 4//1 3//1
f 4//2 6//2 5//2
f 6//3 8//3 7//3
f 8//4 10//4 9//4
f 10//5 12//5 11//5
f 12//6 14//6 13//6
f 14//7 16//7 15//7
f 16//8 18//8 17//8
f 18//9 20//9 19//9
f 20//10 22//10 21//10
f 22//11 24//11 23//11
f 24//12 26//12 25//12
f 26//13 28//13 27//13
f 28//14 30//14 29//14
f 6//15 4//15 30//15
f 4//15 2//15 30//15
f 2//15 32//15 30//15
f 30//15 28//15 26//15
f 26//15 24//15 22//15
f 22//15 20//15 14//15
f 20//15 18//15 14//15
f 18//15 16//15 14//15
f 14//15 12//15 10//15
f 10//15 8//15 6//15
f 30//15 26//15 22//15
f 14//15 10//15 6//15
f 6//15 30//15 14//15
f 30//16 32//16 31//16
f 32//17 2//17 1//17
f 31//18 1//18 3//18
f 3//18 5//18 7//18
f 7//18 9//18 15//18
f 9//18 11//18 15//18
f 11//18 13//18 15//18
f 15//18 17//18 19//18
f 19//18 21//18 15//18
f 21//18 23//18 15//18
f 23//18 25//18 31//18
f 25//18 27//18 31//18
f 27//18 29//18 31//18
f 31//18 3//18 7//18
f 31//18 7//18 15//18
