# Blender v2.83.0 OBJ File: ''
# www.blender.org
o Cylinder.012_Cylinder.1901
v 1.314617 -0.363873 2.756656
v 2.378141 -0.962870 1.172320
v 1.153967 -0.269713 2.613216
v 2.217491 -0.868710 1.028881
v 0.960562 -0.260612 2.479947
v 2.024086 -0.859609 0.895612
v 0.763845 -0.337954 2.377137
v 1.827369 -0.936951 0.792802
v 0.593765 -0.489964 2.320438
v 1.657290 -1.088961 0.736103
v 0.476215 -0.693501 2.318482
v 1.539740 -1.292498 0.734147
v 0.429092 -0.917578 2.371567
v 1.492616 -1.516575 0.787231
v 0.459568 -1.128081 2.471611
v 1.523092 -1.727078 0.887275
v 0.563004 -1.292963 2.603383
v 1.626529 -1.891960 1.019047
v 0.723654 -1.387122 2.746822
v 1.787178 -1.986119 1.162486
v 0.917059 -1.396224 2.880091
v 1.980583 -1.995221 1.295755
v 1.113776 -1.318882 2.982901
v 2.177300 -1.917879 1.398565
v 1.283856 -1.166872 3.039600
v 2.347380 -1.765869 1.455264
v 1.401405 -0.963335 3.041556
v 2.464930 -1.562332 1.457220
v 1.448529 -0.739258 2.988472
v 2.512053 -1.338255 1.404136
v 1.418053 -0.528755 2.888427
v 2.481577 -1.127752 1.304092
vn 0.5001 0.8659 0.0083
vn 0.2005 0.9533 -0.2258
vn -0.1297 0.8956 -0.4256
vn -0.4401 0.7015 -0.5606
vn -0.6835 0.4006 -0.6102
vn -0.8228 0.0387 -0.5670
vn -0.8369 -0.3290 -0.4374
vn -0.7236 -0.6467 -0.2412
vn -0.5001 -0.8659 -0.0083
vn -0.2005 -0.9533 0.2258
vn 0.1297 -0.8956 0.4256
vn 0.4401 -0.7015 0.5606
vn 0.6835 -0.4006 0.6102
vn 0.8228 -0.0387 0.5670
vn 0.5318 -0.2995 -0.7922
vn 0.8369 0.3290 0.4374
vn 0.7236 0.6467 0.2412
vn -0.5318 0.2995 0.7922
s off
f 2//1 3//1 1//1
f 4//2 5//2 3//2
f 6//3 7//3 5//3
f 8//4 9//4 7//4
f 10//5 11//5 9//5
f 12//6 13//6 11//6
f 14//7 15//7 13//7
f 16//8 17//8 15//8
f 18//9 19//9 17//9
f 20//10 21//10 19//10
f 22//11 23//11 21//11
f 24//12 25//12 23//12
f 26//13 27//13 25//13
f 28//14 29//14 27//14
f 22//15 14//15 6//15
f 30//16 31//16 29//16
f 32//17 1//17 31//17
f 7//18 15//18 23//18
f 2//1 4//1 3//1
f 4//2 6//2 5//2
f 6//3 8//3 7//3
f 8//4 10//4 9//4
f 10//5 12//5 11//5
f 12//6 14//6 13//6
f 14//7 16//7 15//7
f 16//8 18//8 17//8
f 18//9 20//9 19//9
f 20//10 22//10 21//10
f 22//11 24//11 23//11
f 24//12 26//12 25//12
f 26//13 28//13 27//13
f 28//14 30//14 29//14
f 6//15 4//15 30//15
f 4//15 2//15 30//15
f 2//15 32//15 30//15
f 30//15 28//15 26//15
f 26//15 24//15 22//15
f 22//15 20//15 14//15
f 20//15 18//15 14//15
f 18//15 16//15 14//15
f 14//15 12//15 10//15
f 10//15 8//15 6//15
f 30//15 26//15 6//15
f 26//15 22//15 6//15
f 14//15 10//15 6//15
f 30//16 32//16 31//16
f 32//17 2//17 1//17
f 31//18 1//18 3//18
f 3//18 5//18 7//18
f 7//18 9//18 11//18
f 11//18 13//18 7//18
f 13//18 15//18 7//18
f 15//18 17//18 19//18
f 19//18 21//18 23//18
f 23//18 25//18 27//18
f 27//18 29//18 31//18
f 31//18 3//18 7//18
f 15//18 19//18 23//18
f 23//18 27//18 31//18
f 31//18 7//18 23//18
