# Blender v2.83.0 OBJ File: ''
# www.blender.org
o Cylinder.027_Cylinder.1916
v -0.385389 -1.067017 1.571792
v -0.930497 -1.131577 -0.351406
v -0.364096 -1.767627 1.589275
v -0.909205 -1.832187 -0.333922
v -0.086393 -2.408894 1.532090
v -0.631501 -2.473454 -0.391107
v 0.405444 -2.893191 1.408942
v -0.139664 -2.957751 -0.514256
v 1.036537 -3.146790 1.238579
v 0.491428 -3.211349 -0.684619
v 1.710807 -3.131080 1.046937
v 1.165698 -3.195639 -0.876260
v 2.325603 -2.848454 0.863193
v 1.780494 -2.913013 -1.060004
v 2.787327 -2.341939 0.715319
v 2.242218 -2.406499 -1.207878
v 3.025687 -1.688649 0.625829
v 2.480579 -1.753209 -1.297369
v 3.004395 -0.988039 0.608345
v 2.459286 -1.052599 -1.314852
v 2.726691 -0.346772 0.665530
v 2.181582 -0.411332 -1.257667
v 2.234854 0.137526 0.788678
v 1.689746 0.072966 -1.134519
v 1.603761 0.391124 0.959041
v 1.058653 0.326564 -0.964156
v 0.929491 0.375414 1.150683
v 0.384383 0.310854 -0.772515
v 0.314695 0.092788 1.334427
v -0.230413 0.028228 -0.588770
v -0.147030 -0.413727 1.482301
v -0.692138 -0.478287 -0.440896
vn -0.9617 -0.0224 0.2733
vn -0.8768 -0.4031 0.2621
vn -0.6585 -0.7224 0.2109
vn -0.3400 -0.9317 0.1276
vn 0.0304 -0.9992 0.0249
vn 0.3961 -0.9146 -0.0816
vn 0.7015 -0.6907 -0.1756
vn 0.9001 -0.3617 -0.2430
vn 0.9617 0.0224 -0.2733
vn 0.8768 0.4031 -0.2621
vn 0.6585 0.7224 -0.2109
vn 0.3400 0.9317 -0.1276
vn -0.0304 0.9992 -0.0249
vn -0.3961 0.9146 0.0816
vn -0.2726 -0.0323 -0.9616
vn -0.7015 0.6907 0.1756
vn -0.9001 0.3617 0.2430
vn 0.2726 0.0323 0.9616
s off
f 2//1 3//1 1//1
f 4//2 5//2 3//2
f 6//3 7//3 5//3
f 8//4 9//4 7//4
f 9//5 12//5 11//5
f 12//6 13//6 11//6
f 14//7 15//7 13//7
f 16//8 17//8 15//8
f 18//9 19//9 17//9
f 20//10 21//10 19//10
f 22//11 23//11 21//11
f 24//12 25//12 23//12
f 26//13 27//13 25//13
f 28//14 29//14 27//14
f 22//15 14//15 6//15
f 30//16 31//16 29//16
f 32//17 1//17 31//17
f 19//18 23//18 31//18
f 2//1 4//1 3//1
f 4//2 6//2 5//2
f 6//3 8//3 7//3
f 8//4 10//4 9//4
f 9//5 10//5 12//5
f 12//6 14//6 13//6
f 14//7 16//7 15//7
f 16//8 18//8 17//8
f 18//9 20//9 19//9
f 20//10 22//10 21//10
f 22//11 24//11 23//11
f 24//12 26//12 25//12
f 26//13 28//13 27//13
f 28//14 30//14 29//14
f 6//15 4//15 30//15
f 4//15 2//15 30//15
f 2//15 32//15 30//15
f 30//15 28//15 22//15
f 28//15 26//15 22//15
f 26//15 24//15 22//15
f 22//15 20//15 18//15
f 18//15 16//15 22//15
f 16//15 14//15 22//15
f 14//15 12//15 10//15
f 10//15 8//15 14//15
f 8//15 6//15 14//15
f 6//15 30//15 22//15
f 30//16 32//16 31//16
f 32//17 2//17 1//17
f 31//18 1//18 3//18
f 3//18 5//18 7//18
f 7//18 9//18 11//18
f 11//18 13//18 15//18
f 15//18 17//18 19//18
f 19//18 21//18 23//18
f 23//18 25//18 27//18
f 27//18 29//18 23//18
f 29//18 31//18 23//18
f 31//18 3//18 15//18
f 3//18 7//18 15//18
f 7//18 11//18 15//18
f 15//18 19//18 31//18
