# Blender v2.83.0 OBJ File: ''
# www.blender.org
o Cylinder.045_Cylinder.1934
v 0.881458 0.249705 -0.616624
v -0.090375 1.142570 0.886150
v 0.762145 -0.126561 -0.470227
v -0.209688 0.766304 1.032547
v 0.518710 -0.467100 -0.425326
v -0.453124 0.425765 1.077449
v 0.188214 -0.720069 -0.488755
v -0.783619 0.172796 1.014020
v -0.179028 -0.846955 -0.650859
v -1.150861 0.045910 0.851916
v -0.527106 -0.828441 -0.886958
v -1.498939 0.064424 0.615817
v -0.803028 -0.667345 -1.161109
v -1.774861 0.225520 0.341666
v -0.964789 -0.388194 -1.431575
v -1.936622 0.504672 0.071200
v -0.987761 -0.033484 -1.657179
v -1.959594 0.859381 -0.154405
v -0.868447 0.342782 -1.803576
v -1.840280 1.235647 -0.300802
v -0.625012 0.683321 -1.848478
v -1.596845 1.576186 -0.345704
v -0.294516 0.936290 -1.785049
v -1.266350 1.829155 -0.282274
v 0.072725 1.063176 -1.622945
v -0.899108 1.956041 -0.120171
v 0.420803 1.044662 -1.386846
v -0.551030 1.937527 0.115929
v 0.696726 0.883566 -1.112695
v -0.275107 1.776431 0.390080
v 0.858487 0.604414 -0.842229
v -0.113347 1.497279 0.660546
vn 0.8268 -0.0440 0.5608
vn 0.6554 -0.3826 0.6512
vn 0.3842 -0.6631 0.6424
vn 0.0546 -0.8425 0.5359
vn -0.2834 -0.8937 0.3477
vn -0.5782 -0.8089 0.1067
vn -0.7850 -0.6009 -0.1507
vn -0.8723 -0.3014 -0.3850
vn -0.8268 0.0440 -0.5608
vn -0.6554 0.3826 -0.6512
vn -0.3842 0.6631 -0.6424
vn -0.0546 0.8425 -0.5359
vn 0.2834 0.8937 -0.3477
vn 0.5782 0.8089 -0.1067
vn -0.4859 0.4464 0.7514
vn 0.7850 0.6009 0.1507
vn 0.8723 0.3014 0.3850
vn 0.4859 -0.4464 -0.7514
s off
f 2//1 3//1 1//1
f 4//2 5//2 3//2
f 6//3 7//3 5//3
f 8//4 9//4 7//4
f 10//5 11//5 9//5
f 12//6 13//6 11//6
f 14//7 15//7 13//7
f 16//8 17//8 15//8
f 18//9 19//9 17//9
f 19//10 22//10 21//10
f 22//11 23//11 21//11
f 24//12 25//12 23//12
f 26//13 27//13 25//13
f 28//14 29//14 27//14
f 30//15 22//15 14//15
f 30//16 31//16 29//16
f 32//17 1//17 31//17
f 15//18 23//18 31//18
f 2//1 4//1 3//1
f 4//2 6//2 5//2
f 6//3 8//3 7//3
f 8//4 10//4 9//4
f 10//5 12//5 11//5
f 12//6 14//6 13//6
f 14//7 16//7 15//7
f 16//8 18//8 17//8
f 18//9 20//9 19//9
f 19//10 20//10 22//10
f 22//11 24//11 23//11
f 24//12 26//12 25//12
f 26//13 28//13 27//13
f 28//14 30//14 29//14
f 6//15 4//15 30//15
f 4//15 2//15 30//15
f 2//15 32//15 30//15
f 30//15 28//15 26//15
f 26//15 24//15 30//15
f 24//15 22//15 30//15
f 22//15 20//15 18//15
f 18//15 16//15 14//15
f 14//15 12//15 10//15
f 10//15 8//15 6//15
f 22//15 18//15 14//15
f 14//15 10//15 6//15
f 6//15 30//15 14//15
f 30//16 32//16 31//16
f 32//17 2//17 1//17
f 31//18 1//18 3//18
f 3//18 5//18 31//18
f 5//18 7//18 31//18
f 7//18 9//18 11//18
f 11//18 13//18 7//18
f 13//18 15//18 7//18
f 15//18 17//18 19//18
f 19//18 21//18 23//18
f 23//18 25//18 27//18
f 27//18 29//18 31//18
f 15//18 19//18 23//18
f 23//18 27//18 31//18
f 31//18 7//18 15//18
