# Blender v2.83.0 OBJ File: ''
# www.blender.org
o Cylinder.028_Cylinder.1917
v 0.020107 1.259517 1.908346
v -0.972326 0.896729 0.210269
v -0.111490 1.054983 2.028955
v -1.103922 0.692194 0.330878
v -0.158241 0.800357 2.110678
v -1.150674 0.437569 0.412602
v -0.113030 0.534405 2.141075
v -1.105462 0.171617 0.442998
v 0.017261 0.297615 2.115516
v -0.975171 -0.065173 0.417439
v 0.212797 0.126036 2.037893
v -0.779635 -0.236752 0.339817
v 0.443808 0.045790 1.920025
v -0.548625 -0.316998 0.221948
v 0.675125 0.069093 1.779854
v -0.317307 -0.293695 0.081777
v 0.871532 0.192398 1.638721
v -0.120900 -0.170390 -0.059356
v 1.003129 0.396933 1.518112
v 0.010697 0.034144 -0.179965
v 1.049880 0.651558 1.436388
v 0.057448 0.288770 -0.261688
v 1.004669 0.917510 1.405992
v 0.012237 0.554722 -0.292085
v 0.874378 1.154300 1.431551
v -0.118055 0.791512 -0.266526
v 0.678842 1.325879 1.509173
v -0.313590 0.963091 -0.188903
v 0.447831 1.406125 1.627042
v -0.544601 1.043337 -0.071035
v 0.216514 1.382822 1.767213
v -0.775918 1.020034 0.069136
vn -0.7203 0.6320 0.2859
vn -0.8509 0.2956 0.4342
vn -0.8521 -0.0858 0.5163
vn -0.7235 -0.4542 0.5199
vn -0.4847 -0.7534 0.4443
vn -0.1722 -0.9379 0.3010
vn 0.1665 -0.9797 0.1120
vn 0.4799 -0.8722 -0.0941
vn 0.7203 -0.6320 -0.2859
vn 0.8509 -0.2956 -0.4342
vn 0.8521 0.0858 -0.5163
vn 0.7235 0.4542 -0.5199
vn 0.4847 0.7534 -0.4443
vn 0.1722 0.9379 -0.3010
vn -0.4962 -0.1814 -0.8490
vn -0.1665 0.9797 -0.1120
vn -0.4799 0.8722 0.0941
vn 0.4962 0.1814 0.8490
s off
f 2//1 3//1 1//1
f 4//2 5//2 3//2
f 5//3 8//3 7//3
f 8//4 9//4 7//4
f 10//5 11//5 9//5
f 12//6 13//6 11//6
f 14//7 15//7 13//7
f 16//8 17//8 15//8
f 18//9 19//9 17//9
f 20//10 21//10 19//10
f 22//11 23//11 21//11
f 24//12 25//12 23//12
f 26//13 27//13 25//13
f 28//14 29//14 27//14
f 22//15 14//15 6//15
f 30//16 31//16 29//16
f 32//17 1//17 31//17
f 7//18 15//18 23//18
f 2//1 4//1 3//1
f 4//2 6//2 5//2
f 5//3 6//3 8//3
f 8//4 10//4 9//4
f 10//5 12//5 11//5
f 12//6 14//6 13//6
f 14//7 16//7 15//7
f 16//8 18//8 17//8
f 18//9 20//9 19//9
f 20//10 22//10 21//10
f 22//11 24//11 23//11
f 24//12 26//12 25//12
f 26//13 28//13 27//13
f 28//14 30//14 29//14
f 6//15 4//15 2//15
f 2//15 32//15 30//15
f 30//15 28//15 26//15
f 26//15 24//15 22//15
f 22//15 20//15 14//15
f 20//15 18//15 14//15
f 18//15 16//15 14//15
f 14//15 12//15 6//15
f 12//15 10//15 6//15
f 10//15 8//15 6//15
f 6//15 2//15 30//15
f 30//15 26//15 6//15
f 26//15 22//15 6//15
f 30//16 32//16 31//16
f 32//17 2//17 1//17
f 31//18 1//18 7//18
f 1//18 3//18 7//18
f 3//18 5//18 7//18
f 7//18 9//18 11//18
f 11//18 13//18 15//18
f 15//18 17//18 19//18
f 19//18 21//18 15//18
f 21//18 23//18 15//18
f 23//18 25//18 31//18
f 25//18 27//18 31//18
f 27//18 29//18 31//18
f 7//18 11//18 15//18
f 31//18 7//18 23//18
