# Blender v2.83.0 OBJ File: ''
# www.blender.org
o Cylinder.030_Cylinder.1919
v 2.281970 -0.918442 0.824534
v 0.304165 -0.786911 1.090967
v 2.353608 -0.655881 1.226707
v 0.375803 -0.524350 1.493139
v 2.423057 -0.569154 1.699431
v 0.445252 -0.437623 1.965864
v 2.479743 -0.671466 2.170741
v 0.501938 -0.539935 2.437173
v 2.515038 -0.947241 2.568882
v 0.537233 -0.815710 2.835314
v 2.523566 -1.354494 2.833241
v 0.545761 -1.222963 3.099673
v 2.504030 -1.831224 2.923572
v 0.526225 -1.699693 3.190005
v 2.459405 -2.304855 2.826123
v 0.481600 -2.173324 3.092556
v 2.396483 -2.703279 2.555731
v 0.418678 -2.571748 2.822163
v 2.324845 -2.965840 2.153558
v 0.347040 -2.834310 2.419991
v 2.255396 -3.052567 1.680834
v 0.277591 -2.921036 1.947266
v 2.198709 -2.950255 1.209524
v 0.220904 -2.818724 1.475957
v 2.163415 -2.674480 0.811383
v 0.185610 -2.542949 1.077816
v 2.154887 -2.267227 0.547024
v 0.177082 -2.135696 0.813456
v 2.174423 -1.790497 0.456692
v 0.196618 -1.658966 0.723125
v 2.219048 -1.316866 0.554141
v 0.241243 -1.185335 0.820574
vn -0.0176 0.8386 -0.5444
vn 0.0402 0.9817 -0.1860
vn 0.0919 0.9753 0.2007
vn 0.1296 0.8205 0.5568
vn 0.1475 0.5407 0.8282
vn 0.1430 0.1786 0.9735
vn 0.1167 -0.2107 0.9706
vn 0.0727 -0.5679 0.8199
vn 0.0176 -0.8386 0.5444
vn -0.0402 -0.9817 0.1860
vn -0.0919 -0.9753 -0.2007
vn -0.1296 -0.8205 -0.5568
vn -0.1475 -0.5407 -0.8282
vn -0.1430 -0.1786 -0.9735
vn -0.9889 0.0658 0.1332
vn -0.1167 0.2107 -0.9706
vn -0.0727 0.5679 -0.8199
vn 0.9889 -0.0658 -0.1332
s off
f 2//1 3//1 1//1
f 4//2 5//2 3//2
f 6//3 7//3 5//3
f 8//4 9//4 7//4
f 10//5 11//5 9//5
f 12//6 13//6 11//6
f 14//7 15//7 13//7
f 16//8 17//8 15//8
f 18//9 19//9 17//9
f 20//10 21//10 19//10
f 22//11 23//11 21//11
f 24//12 25//12 23//12
f 26//13 27//13 25//13
f 28//14 29//14 27//14
f 6//15 30//15 22//15
f 30//16 31//16 29//16
f 32//17 1//17 31//17
f 15//18 23//18 31//18
f 2//1 4//1 3//1
f 4//2 6//2 5//2
f 6//3 8//3 7//3
f 8//4 10//4 9//4
f 10//5 12//5 11//5
f 12//6 14//6 13//6
f 14//7 16//7 15//7
f 16//8 18//8 17//8
f 18//9 20//9 19//9
f 20//10 22//10 21//10
f 22//11 24//11 23//11
f 24//12 26//12 25//12
f 26//13 28//13 27//13
f 28//14 30//14 29//14
f 6//15 4//15 30//15
f 4//15 2//15 30//15
f 2//15 32//15 30//15
f 30//15 28//15 26//15
f 26//15 24//15 22//15
f 22//15 20//15 18//15
f 18//15 16//15 14//15
f 14//15 12//15 10//15
f 10//15 8//15 6//15
f 30//15 26//15 22//15
f 22//15 18//15 14//15
f 14//15 10//15 22//15
f 10//15 6//15 22//15
f 30//16 32//16 31//16
f 32//17 2//17 1//17
f 31//18 1//18 7//18
f 1//18 3//18 7//18
f 3//18 5//18 7//18
f 7//18 9//18 15//18
f 9//18 11//18 15//18
f 11//18 13//18 15//18
f 15//18 17//18 19//18
f 19//18 21//18 15//18
f 21//18 23//18 15//18
f 23//18 25//18 27//18
f 27//18 29//18 31//18
f 23//18 27//18 31//18
f 31//18 7//18 15//18
