# Blender v2.83.0 OBJ File: ''
# www.blender.org
o Cylinder.013_Cylinder.1902
v 2.272133 -0.265720 -2.182698
v 2.862613 1.361832 -1.181495
v 2.250495 -0.543138 -1.718967
v 2.840976 1.084413 -0.717763
v 2.032944 -0.742900 -1.265929
v 2.623425 0.884651 -0.264725
v 1.652600 -0.834594 -0.892557
v 2.243080 0.792957 0.108647
v 1.167367 -0.804260 -0.655692
v 1.757847 0.823292 0.345512
v 0.651117 -0.656516 -0.591395
v 1.241597 0.971036 0.409809
v 0.182445 -0.413854 -0.709455
v 0.772925 1.213697 0.291749
v -0.167299 -0.113219 -0.991898
v 0.423181 1.514333 0.009306
v -0.344868 0.199622 -1.395725
v 0.245612 1.827173 -0.394521
v -0.323231 0.477040 -1.859457
v 0.267250 2.104592 -0.858253
v -0.105680 0.676803 -2.312494
v 0.484801 2.304354 -1.311290
v 0.274665 0.768496 -2.685867
v 0.865145 2.396048 -1.684663
v 0.759898 0.738162 -2.922731
v 1.350378 2.365714 -1.921528
v 1.276148 0.590418 -2.987028
v 1.866628 2.217969 -1.985825
v 1.744820 0.347756 -2.868968
v 2.335300 1.975308 -1.867764
v 2.094564 0.047121 -2.586525
v 2.685044 1.674672 -1.585321
vn 0.9546 -0.2732 -0.1189
vn 0.8666 -0.4487 0.2183
vn 0.6467 -0.5559 0.5223
vn 0.3283 -0.5785 0.7467
vn -0.0400 -0.5130 0.8575
vn -0.4023 -0.3694 0.8377
vn -0.7033 -0.1695 0.6904
vn -0.8972 0.0561 0.4380
vn -0.9546 0.2732 0.1189
vn -0.8666 0.4487 -0.2183
vn -0.6467 0.5559 -0.5223
vn -0.3283 0.5785 -0.7467
vn 0.0400 0.5130 -0.8575
vn 0.4023 0.3694 -0.8377
vn 0.2952 0.8138 0.5006
vn 0.7033 0.1695 -0.6904
vn 0.8972 -0.0561 -0.4380
vn -0.2952 -0.8138 -0.5006
s off
f 2//1 3//1 1//1
f 4//2 5//2 3//2
f 6//3 7//3 5//3
f 8//4 9//4 7//4
f 10//5 11//5 9//5
f 12//6 13//6 11//6
f 14//7 15//7 13//7
f 16//8 17//8 15//8
f 18//9 19//9 17//9
f 20//10 21//10 19//10
f 22//11 23//11 21//11
f 24//12 25//12 23//12
f 26//13 27//13 25//13
f 28//14 29//14 27//14
f 6//15 30//15 22//15
f 30//16 31//16 29//16
f 32//17 1//17 31//17
f 27//18 31//18 15//18
f 2//1 4//1 3//1
f 4//2 6//2 5//2
f 6//3 8//3 7//3
f 8//4 10//4 9//4
f 10//5 12//5 11//5
f 12//6 14//6 13//6
f 14//7 16//7 15//7
f 16//8 18//8 17//8
f 18//9 20//9 19//9
f 20//10 22//10 21//10
f 22//11 24//11 23//11
f 24//12 26//12 25//12
f 26//13 28//13 27//13
f 28//14 30//14 29//14
f 6//15 4//15 30//15
f 4//15 2//15 30//15
f 2//15 32//15 30//15
f 30//15 28//15 22//15
f 28//15 26//15 22//15
f 26//15 24//15 22//15
f 22//15 20//15 18//15
f 18//15 16//15 22//15
f 16//15 14//15 22//15
f 14//15 12//15 10//15
f 10//15 8//15 6//15
f 14//15 10//15 22//15
f 10//15 6//15 22//15
f 30//16 32//16 31//16
f 32//17 2//17 1//17
f 31//18 1//18 3//18
f 3//18 5//18 7//18
f 7//18 9//18 11//18
f 11//18 13//18 15//18
f 15//18 17//18 23//18
f 17//18 19//18 23//18
f 19//18 21//18 23//18
f 23//18 25//18 27//18
f 27//18 29//18 31//18
f 31//18 3//18 15//18
f 3//18 7//18 15//18
f 7//18 11//18 15//18
f 23//18 27//18 15//18
