# Blender v2.83.0 OBJ File: ''
# www.blender.org
o Cylinder.022_Cylinder.1911
v 0.405006 -1.903604 0.441328
v 2.166636 -1.973900 1.385636
v 0.385663 -2.106154 0.462334
v 2.147293 -2.176450 1.406642
v 0.331477 -2.282710 0.550276
v 2.093107 -2.353006 1.494584
v 0.250698 -2.406393 0.691764
v 2.012328 -2.476689 1.636073
v 0.155623 -2.458373 0.865259
v 1.917253 -2.528669 1.809568
v 0.060726 -2.430737 1.044348
v 1.822356 -2.501034 1.988656
v -0.019544 -2.327693 1.201765
v 1.742086 -2.397989 2.146074
v -0.072969 -2.164928 1.313546
v 1.688661 -2.235224 2.257855
v -0.091413 -1.967221 1.362673
v 1.670217 -2.037517 2.306982
v -0.072071 -1.764671 1.341667
v 1.689559 -1.834967 2.285975
v -0.017885 -1.588115 1.253726
v 1.743745 -1.658411 2.198034
v 0.062894 -1.464432 1.112237
v 1.824524 -1.534728 2.056545
v 0.157969 -1.412452 0.938742
v 1.919599 -1.482748 1.883050
v 0.252866 -1.440087 0.759653
v 2.014496 -1.510383 1.703961
v 0.333136 -1.543132 0.602236
v 2.094766 -1.613428 1.546544
v 0.386561 -1.705897 0.490454
v 2.148191 -1.776193 1.434763
vn 0.4639 -0.1351 -0.8755
vn 0.3924 -0.5038 -0.7696
vn 0.2612 -0.7957 -0.5465
vn 0.0902 -0.9665 -0.2402
vn -0.0946 -0.9902 0.1027
vn -0.2649 -0.8631 0.4299
vn -0.3949 -0.6047 0.6917
vn -0.4648 -0.2541 0.8482
vn -0.4639 0.1351 0.8755
vn -0.3924 0.5038 0.7696
vn -0.2612 0.7957 0.5465
vn -0.0902 0.9665 0.2402
vn 0.0946 0.9902 -0.1027
vn 0.2649 0.8631 -0.4299
vn 0.8808 -0.0351 0.4722
vn 0.3949 0.6047 -0.6917
vn 0.4648 0.2541 -0.8482
vn -0.8808 0.0351 -0.4722
vn 0.8808 -0.0351 0.4721
s off
f 2//1 3//1 1//1
f 4//2 5//2 3//2
f 6//3 7//3 5//3
f 8//4 9//4 7//4
f 10//5 11//5 9//5
f 12//6 13//6 11//6
f 14//7 15//7 13//7
f 16//8 17//8 15//8
f 18//9 19//9 17//9
f 20//10 21//10 19//10
f 22//11 23//11 21//11
f 24//12 25//12 23//12
f 26//13 27//13 25//13
f 28//14 29//14 27//14
f 22//15 14//15 6//15
f 30//16 31//16 29//16
f 32//17 1//17 31//17
f 15//18 23//18 31//18
f 2//1 4//1 3//1
f 4//2 6//2 5//2
f 6//3 8//3 7//3
f 8//4 10//4 9//4
f 10//5 12//5 11//5
f 12//6 14//6 13//6
f 14//7 16//7 15//7
f 16//8 18//8 17//8
f 18//9 20//9 19//9
f 20//10 22//10 21//10
f 22//11 24//11 23//11
f 24//12 26//12 25//12
f 26//13 28//13 27//13
f 28//14 30//14 29//14
f 6//15 4//15 2//15
f 2//15 32//15 30//15
f 30//15 28//15 26//15
f 26//15 24//15 30//15
f 24//15 22//15 30//15
f 22//15 20//15 18//15
f 18//15 16//15 22//15
f 16//15 14//15 22//15
f 14//19 12//19 10//19
f 10//15 8//15 14//15
f 8//15 6//15 14//15
f 6//15 2//15 30//15
f 6//15 30//15 22//15
f 30//16 32//16 31//16
f 32//17 2//17 1//17
f 31//18 1//18 3//18
f 3//18 5//18 7//18
f 7//18 9//18 11//18
f 11//18 13//18 15//18
f 15//18 17//18 23//18
f 17//18 19//18 23//18
f 19//18 21//18 23//18
f 23//18 25//18 27//18
f 27//18 29//18 31//18
f 31//18 3//18 15//18
f 3//18 7//18 15//18
f 7//18 11//18 15//18
f 23//18 27//18 31//18
