# Blender v2.83.0 OBJ File: ''
# www.blender.org
o Cylinder.019_Cylinder.1908
v 1.687780 -0.175609 -0.878746
v 1.044323 1.703892 -1.109911
v 2.416370 0.059275 -0.997070
v 1.772913 1.938776 -1.228235
v 3.121663 0.323073 -0.815447
v 2.478206 2.202574 -1.046612
v 3.696283 0.575626 -0.361528
v 3.052826 2.455127 -0.592693
v 4.052751 0.778485 0.295582
v 3.409295 2.657986 0.064416
v 4.136797 0.900765 1.055843
v 3.493340 2.780266 0.824678
v 3.935627 0.923852 1.803514
v 3.292170 2.803353 1.572349
v 3.479866 0.844229 2.424767
v 2.836409 2.723730 2.193602
v 2.838900 0.674020 2.825024
v 2.195443 2.553521 2.593858
v 2.110310 0.439136 2.943347
v 1.466853 2.318638 2.712182
v 1.405017 0.175338 2.761725
v 0.761561 2.054839 2.530560
v 0.830397 -0.077215 2.307806
v 0.186940 1.802286 2.076641
v 0.473928 -0.280074 1.650696
v -0.169528 1.599427 1.419531
v 0.389882 -0.402354 0.890434
v -0.253574 1.477147 0.659269
v 0.591053 -0.425441 0.142763
v -0.052404 1.454061 -0.088402
v 1.046815 -0.345818 -0.478490
v 0.403358 1.533683 -0.709656
vn -0.1085 -0.1579 -0.9815
vn 0.2597 -0.0298 -0.9652
vn 0.5884 0.1028 -0.8020
vn 0.8275 0.2197 -0.5167
vn 0.9406 0.3032 -0.1528
vn 0.9105 0.3406 0.2345
vn 0.7418 0.3260 0.5860
vn 0.4602 0.2619 0.8483
vn 0.1085 0.1579 0.9815
vn -0.2597 0.0298 0.9652
vn -0.5884 -0.1028 0.8020
vn -0.8275 -0.2197 0.5167
vn -0.9406 -0.3032 0.1528
vn -0.9105 -0.3406 -0.2345
vn -0.3217 0.9398 -0.1156
vn -0.7418 -0.3260 -0.5860
vn -0.4602 -0.2619 -0.8483
vn 0.3217 -0.9398 0.1156
s off
f 2//1 3//1 1//1
f 4//2 5//2 3//2
f 6//3 7//3 5//3
f 8//4 9//4 7//4
f 10//5 11//5 9//5
f 12//6 13//6 11//6
f 14//7 15//7 13//7
f 16//8 17//8 15//8
f 18//9 19//9 17//9
f 20//10 21//10 19//10
f 22//11 23//11 21//11
f 24//12 25//12 23//12
f 26//13 27//13 25//13
f 28//14 29//14 27//14
f 6//15 30//15 22//15
f 30//16 31//16 29//16
f 32//17 1//17 31//17
f 15//18 23//18 31//18
f 2//1 4//1 3//1
f 4//2 6//2 5//2
f 6//3 8//3 7//3
f 8//4 10//4 9//4
f 10//5 12//5 11//5
f 12//6 14//6 13//6
f 14//7 16//7 15//7
f 16//8 18//8 17//8
f 18//9 20//9 19//9
f 20//10 22//10 21//10
f 22//11 24//11 23//11
f 24//12 26//12 25//12
f 26//13 28//13 27//13
f 28//14 30//14 29//14
f 6//15 4//15 30//15
f 4//15 2//15 30//15
f 2//15 32//15 30//15
f 30//15 28//15 26//15
f 26//15 24//15 30//15
f 24//15 22//15 30//15
f 22//15 20//15 18//15
f 18//15 16//15 14//15
f 14//15 12//15 10//15
f 10//15 8//15 14//15
f 8//15 6//15 14//15
f 22//15 18//15 6//15
f 18//15 14//15 6//15
f 30//16 32//16 31//16
f 32//17 2//17 1//17
f 31//18 1//18 3//18
f 3//18 5//18 7//18
f 7//18 9//18 11//18
f 11//18 13//18 15//18
f 15//18 17//18 19//18
f 19//18 21//18 23//18
f 23//18 25//18 27//18
f 27//18 29//18 31//18
f 31//18 3//18 7//18
f 7//18 11//18 15//18
f 15//18 19//18 23//18
f 23//18 27//18 31//18
f 31//18 7//18 15//18
