# Blender v2.83.0 OBJ File: ''
# www.blender.org
o Cylinder.007_Cylinder.1896
v -2.758041 0.903486 -1.600613
v -0.900729 0.603993 -2.279358
v -2.818887 0.577438 -1.623244
v -0.961575 0.277945 -2.301989
v -2.834053 0.260264 -1.524794
v -0.976741 -0.039229 -2.203539
v -2.801231 0.000252 -1.320251
v -0.943919 -0.299241 -1.998996
v -2.725418 -0.163016 -1.040755
v -0.868106 -0.462509 -1.719501
v -2.618155 -0.204681 -0.728857
v -0.760843 -0.504174 -1.407603
v -2.495772 -0.118402 -0.432041
v -0.638460 -0.417895 -1.110786
v -2.376902 0.082686 -0.195494
v -0.519590 -0.216806 -0.874239
v -2.279640 0.367971 -0.055227
v -0.422328 0.068478 -0.733973
v -2.218794 0.694018 -0.032596
v -0.361482 0.394526 -0.711342
v -2.203628 1.011192 -0.131046
v -0.346316 0.711699 -0.809792
v -2.236449 1.271205 -0.335589
v -0.379137 0.971712 -1.014334
v -2.312263 1.434472 -0.615085
v -0.454951 1.134979 -1.293830
v -2.419526 1.476138 -0.926983
v -0.562214 1.176645 -1.605728
v -2.541908 1.389859 -1.223799
v -0.684596 1.090366 -1.902545
v -2.660779 1.188770 -1.460347
v -0.803467 0.889277 -2.139092
vn -0.3226 0.1253 -0.9382
vn -0.3681 -0.2595 -0.8928
vn -0.3576 -0.6049 -0.7115
vn -0.2926 -0.8581 -0.4219
vn -0.1830 -0.9807 -0.0681
vn -0.0456 -0.9541 0.2961
vn 0.0987 -0.7821 0.6153
vn 0.2280 -0.4911 0.8407
vn 0.3226 -0.1253 0.9382
vn 0.3681 0.2595 0.8928
vn 0.3576 0.6049 0.7115
vn 0.2926 0.8581 0.4219
vn 0.1830 0.9807 0.0681
vn 0.0456 0.9541 -0.2961
vn 0.9287 -0.1497 -0.3394
vn -0.0987 0.7821 -0.6153
vn -0.2280 0.4911 -0.8407
vn -0.9287 0.1497 0.3394
s off
f 2//1 3//1 1//1
f 4//2 5//2 3//2
f 6//3 7//3 5//3
f 8//4 9//4 7//4
f 10//5 11//5 9//5
f 12//6 13//6 11//6
f 14//7 15//7 13//7
f 16//8 17//8 15//8
f 18//9 19//9 17//9
f 20//10 21//10 19//10
f 22//11 23//11 21//11
f 24//12 25//12 23//12
f 26//13 27//13 25//13
f 28//14 29//14 27//14
f 30//15 22//15 14//15
f 30//16 31//16 29//16
f 32//17 1//17 31//17
f 7//18 15//18 23//18
f 2//1 4//1 3//1
f 4//2 6//2 5//2
f 6//3 8//3 7//3
f 8//4 10//4 9//4
f 10//5 12//5 11//5
f 12//6 14//6 13//6
f 14//7 16//7 15//7
f 16//8 18//8 17//8
f 18//9 20//9 19//9
f 20//10 22//10 21//10
f 22//11 24//11 23//11
f 24//12 26//12 25//12
f 26//13 28//13 27//13
f 28//14 30//14 29//14
f 6//15 4//15 30//15
f 4//15 2//15 30//15
f 2//15 32//15 30//15
f 30//15 28//15 22//15
f 28//15 26//15 22//15
f 26//15 24//15 22//15
f 22//15 20//15 18//15
f 18//15 16//15 14//15
f 14//15 12//15 10//15
f 10//15 8//15 14//15
f 8//15 6//15 14//15
f 22//15 18//15 14//15
f 6//15 30//15 14//15
f 30//16 32//16 31//16
f 32//17 2//17 1//17
f 31//18 1//18 3//18
f 3//18 5//18 7//18
f 7//18 9//18 15//18
f 9//18 11//18 15//18
f 11//18 13//18 15//18
f 15//18 17//18 23//18
f 17//18 19//18 23//18
f 19//18 21//18 23//18
f 23//18 25//18 27//18
f 27//18 29//18 31//18
f 31//18 3//18 7//18
f 23//18 27//18 31//18
f 31//18 7//18 23//18
