# Blender v2.83.0 OBJ File: ''
# www.blender.org
o Cylinder.008_Cylinder.1897
v 1.668042 1.993664 0.686094
v 0.039895 1.991149 1.847614
v 1.622196 1.492758 0.620744
v -0.005951 1.490242 1.782264
v 1.468483 1.060529 0.404343
v -0.159665 1.058013 1.565863
v 1.230304 0.762779 0.069834
v -0.397843 0.760264 1.231354
v 0.943921 0.644840 -0.331856
v -0.684226 0.642324 0.829664
v 0.652932 0.724665 -0.739573
v -0.975215 0.722149 0.421947
v 0.401639 0.990103 -1.091246
v -1.226508 0.987587 0.070274
v 0.228297 1.400742 -1.333336
v -1.399850 1.398226 -0.171816
v 0.159297 1.894067 -1.428988
v -1.468850 1.891551 -0.267468
v 0.205144 2.394973 -1.363638
v -1.423004 2.392457 -0.202118
v 0.358857 2.827202 -1.147236
v -1.269291 2.824687 0.014284
v 0.597035 3.124952 -0.812727
v -1.031112 3.122436 0.348793
v 0.883418 3.242891 -0.411038
v -0.744729 3.240376 0.750482
v 1.174407 3.163066 -0.003320
v -0.453740 3.160550 1.158200
v 1.425701 2.897628 0.348353
v -0.202446 2.895113 1.509873
v 1.599043 2.486989 0.590443
v -0.029105 2.484473 1.751963
vn 0.5737 -0.1574 0.8038
vn 0.4954 -0.5233 0.6933
vn 0.3417 -0.8096 0.4773
vn 0.1360 -0.9726 0.1886
vn -0.0904 -0.9875 -0.1288
vn -0.3030 -0.8521 -0.4266
vn -0.4696 -0.5870 -0.6595
vn -0.5646 -0.2325 -0.7919
vn -0.5737 0.1574 -0.8038
vn -0.4954 0.5233 -0.6933
vn -0.3417 0.8096 -0.4773
vn -0.1360 0.9726 -0.1886
vn 0.0904 0.9875 0.1288
vn 0.3030 0.8521 0.4266
vn -0.8141 -0.0013 0.5808
vn 0.4696 0.5870 0.6595
vn 0.5646 0.2325 0.7919
vn 0.8141 0.0013 -0.5808
s off
f 2//1 3//1 1//1
f 4//2 5//2 3//2
f 6//3 7//3 5//3
f 8//4 9//4 7//4
f 10//5 11//5 9//5
f 12//6 13//6 11//6
f 14//7 15//7 13//7
f 16//8 17//8 15//8
f 18//9 19//9 17//9
f 20//10 21//10 19//10
f 22//11 23//11 21//11
f 24//12 25//12 23//12
f 26//13 27//13 25//13
f 28//14 29//14 27//14
f 22//15 14//15 6//15
f 30//16 31//16 29//16
f 32//17 1//17 31//17
f 15//18 23//18 31//18
f 2//1 4//1 3//1
f 4//2 6//2 5//2
f 6//3 8//3 7//3
f 8//4 10//4 9//4
f 10//5 12//5 11//5
f 12//6 14//6 13//6
f 14//7 16//7 15//7
f 16//8 18//8 17//8
f 18//9 20//9 19//9
f 20//10 22//10 21//10
f 22//11 24//11 23//11
f 24//12 26//12 25//12
f 26//13 28//13 27//13
f 28//14 30//14 29//14
f 6//15 4//15 2//15
f 2//15 32//15 30//15
f 30//15 28//15 26//15
f 26//15 24//15 22//15
f 22//15 20//15 18//15
f 18//15 16//15 14//15
f 14//15 12//15 10//15
f 10//15 8//15 6//15
f 6//15 2//15 30//15
f 30//15 26//15 6//15
f 26//15 22//15 6//15
f 22//15 18//15 14//15
f 14//15 10//15 6//15
f 30//16 32//16 31//16
f 32//17 2//17 1//17
f 31//18 1//18 3//18
f 3//18 5//18 7//18
f 7//18 9//18 11//18
f 11//18 13//18 15//18
f 15//18 17//18 19//18
f 19//18 21//18 15//18
f 21//18 23//18 15//18
f 23//18 25//18 27//18
f 27//18 29//18 31//18
f 31//18 3//18 7//18
f 7//18 11//18 31//18
f 11//18 15//18 31//18
f 23//18 27//18 31//18
