# Blender v2.83.0 OBJ File: ''
# www.blender.org
o Cylinder.031_Cylinder.1920
v -0.753657 -2.492463 2.796977
v 1.012898 -2.365804 1.867869
v -0.548856 -1.991613 3.254651
v 1.217698 -1.864953 2.325542
v -0.459777 -1.337777 3.513155
v 1.306778 -1.211118 2.584046
v -0.499980 -0.630498 3.533134
v 1.266575 -0.503838 2.604025
v -0.663345 0.022549 3.311546
v 1.103209 0.149209 2.382437
v -0.925002 0.521944 2.882126
v 0.841553 0.648603 1.953018
v -1.245114 0.791656 2.310249
v 0.521440 0.918316 1.381141
v -1.574949 0.790627 1.682979
v 0.191605 0.917286 0.753871
v -1.864292 0.519011 1.095812
v -0.097737 0.645671 0.166704
v -2.069093 0.018161 0.638138
v -0.302538 0.144821 -0.290971
v -2.158172 -0.635674 0.379634
v -0.391617 -0.509015 -0.549475
v -2.117969 -1.342954 0.359655
v -0.351414 -1.216295 -0.569454
v -1.954604 -1.996001 0.581243
v -0.188049 -1.869342 -0.347866
v -1.692947 -2.495396 1.010663
v 0.073608 -2.368736 0.081554
v -1.372834 -2.765109 1.582539
v 0.393721 -2.638449 0.653431
v -1.042999 -2.764079 2.209810
v 0.723556 -2.637419 1.280702
vn 0.3692 -0.7047 0.6059
vn 0.4517 -0.3806 0.8069
vn 0.4654 0.0015 0.8851
vn 0.4083 0.3833 0.8285
vn 0.2890 0.7067 0.6458
vn 0.1257 0.9226 0.3648
vn -0.0567 0.9980 0.0282
vn -0.2305 0.9215 -0.3127
vn -0.3692 0.7047 -0.6059
vn -0.4517 0.3806 -0.8069
vn -0.4654 -0.0015 -0.8851
vn -0.4083 -0.3833 -0.8285
vn -0.2890 -0.7067 -0.6458
vn -0.1257 -0.9226 -0.3648
vn 0.8833 0.0633 -0.4646
vn 0.0567 -0.9980 -0.0282
vn 0.2305 -0.9215 0.3127
vn -0.8833 -0.0633 0.4646
s off
f 2//1 3//1 1//1
f 4//2 5//2 3//2
f 6//3 7//3 5//3
f 8//4 9//4 7//4
f 10//5 11//5 9//5
f 12//6 13//6 11//6
f 14//7 15//7 13//7
f 16//8 17//8 15//8
f 18//9 19//9 17//9
f 20//10 21//10 19//10
f 22//11 23//11 21//11
f 24//12 25//12 23//12
f 26//13 27//13 25//13
f 28//14 29//14 27//14
f 22//15 14//15 6//15
f 30//16 31//16 29//16
f 32//17 1//17 31//17
f 15//18 23//18 31//18
f 2//1 4//1 3//1
f 4//2 6//2 5//2
f 6//3 8//3 7//3
f 8//4 10//4 9//4
f 10//5 12//5 11//5
f 12//6 14//6 13//6
f 14//7 16//7 15//7
f 16//8 18//8 17//8
f 18//9 20//9 19//9
f 20//10 22//10 21//10
f 22//11 24//11 23//11
f 24//12 26//12 25//12
f 26//13 28//13 27//13
f 28//14 30//14 29//14
f 6//15 4//15 2//15
f 2//15 32//15 30//15
f 30//15 28//15 26//15
f 26//15 24//15 22//15
f 22//15 20//15 14//15
f 20//15 18//15 14//15
f 18//15 16//15 14//15
f 14//15 12//15 10//15
f 10//15 8//15 14//15
f 8//15 6//15 14//15
f 6//15 2//15 22//15
f 2//15 30//15 22//15
f 30//15 26//15 22//15
f 30//16 32//16 31//16
f 32//17 2//17 1//17
f 31//18 1//18 3//18
f 3//18 5//18 7//18
f 7//18 9//18 11//18
f 11//18 13//18 15//18
f 15//18 17//18 19//18
f 19//18 21//18 23//18
f 23//18 25//18 27//18
f 27//18 29//18 31//18
f 31//18 3//18 7//18
f 7//18 11//18 15//18
f 15//18 19//18 23//18
f 23//18 27//18 31//18
f 31//18 7//18 15//18
