# Blender v2.83.0 OBJ File: ''
# www.blender.org
o Cylinder.001_Cylinder.1890
v -0.232816 0.627283 1.462481
v 0.782851 -0.669238 2.597140
v 0.042707 0.482318 1.050206
v 1.058375 -0.814203 2.184866
v 0.163508 0.208447 0.629135
v 1.179175 -1.088074 1.763795
v 0.111195 -0.152633 0.263373
v 1.126863 -1.449154 1.398032
v -0.106267 -0.545953 0.008601
v 0.909401 -1.842474 1.143261
v -0.455772 -0.911633 -0.096391
v 0.559896 -2.208154 1.038268
v -0.884110 -1.194000 -0.035621
v 0.131558 -2.490521 1.099039
v -1.326072 -1.350069 0.181660
v -0.310404 -2.646590 1.316320
v -1.714371 -1.356078 0.522373
v -0.698704 -2.652599 1.657033
v -1.989895 -1.211112 0.934648
v -0.974227 -2.507633 2.069307
v -2.110696 -0.937242 1.355718
v -1.095028 -2.233763 2.490378
v -2.058383 -0.576161 1.721482
v -1.042715 -1.872682 2.856141
v -1.840921 -0.182841 1.976253
v -0.825253 -1.479362 3.110912
v -1.491416 0.182839 2.081245
v -0.475749 -1.113683 3.215905
v -1.063078 0.465207 2.020475
v -0.047410 -0.831315 3.155135
v -0.621116 0.621275 1.803194
v 0.394552 -0.675246 2.937853
vn 0.6765 0.7078 0.2032
vn 0.8291 0.5466 -0.1176
vn 0.8555 0.3021 -0.4206
vn 0.7516 0.0116 -0.6595
vn 0.5333 -0.2806 -0.7980
vn 0.2338 -0.5301 -0.8150
vn -0.1013 -0.6989 -0.7080
vn -0.4209 -0.7613 -0.4931
vn -0.6765 -0.7078 -0.2032
vn -0.8291 -0.5466 0.1176
vn -0.8555 -0.3021 0.4206
vn -0.7516 -0.0116 0.6595
vn -0.5333 0.2806 0.7980
vn -0.2338 0.5301 0.8150
vn 0.5078 -0.6483 0.5673
vn 0.1013 0.6989 0.7080
vn 0.4209 0.7613 0.4931
vn -0.5078 0.6483 -0.5673
s off
f 2//1 3//1 1//1
f 4//2 5//2 3//2
f 6//3 7//3 5//3
f 8//4 9//4 7//4
f 10//5 11//5 9//5
f 12//6 13//6 11//6
f 14//7 15//7 13//7
f 16//8 17//8 15//8
f 17//9 20//9 19//9
f 20//10 21//10 19//10
f 22//11 23//11 21//11
f 24//12 25//12 23//12
f 26//13 27//13 25//13
f 28//14 29//14 27//14
f 10//15 6//15 22//15
f 30//16 31//16 29//16
f 32//17 1//17 31//17
f 31//18 7//18 15//18
f 2//1 4//1 3//1
f 4//2 6//2 5//2
f 6//3 8//3 7//3
f 8//4 10//4 9//4
f 10//5 12//5 11//5
f 12//6 14//6 13//6
f 14//7 16//7 15//7
f 16//8 18//8 17//8
f 17//9 18//9 20//9
f 20//10 22//10 21//10
f 22//11 24//11 23//11
f 24//12 26//12 25//12
f 26//13 28//13 27//13
f 28//14 30//14 29//14
f 6//15 4//15 2//15
f 2//15 32//15 6//15
f 32//15 30//15 6//15
f 30//15 28//15 26//15
f 26//15 24//15 22//15
f 22//15 20//15 18//15
f 18//15 16//15 14//15
f 14//15 12//15 10//15
f 10//15 8//15 6//15
f 30//15 26//15 6//15
f 26//15 22//15 6//15
f 22//15 18//15 14//15
f 14//15 10//15 22//15
f 30//16 32//16 31//16
f 32//17 2//17 1//17
f 31//18 1//18 3//18
f 3//18 5//18 31//18
f 5//18 7//18 31//18
f 7//18 9//18 11//18
f 11//18 13//18 7//18
f 13//18 15//18 7//18
f 15//18 17//18 19//18
f 19//18 21//18 23//18
f 23//18 25//18 27//18
f 27//18 29//18 23//18
f 29//18 31//18 23//18
f 15//18 19//18 31//18
f 19//18 23//18 31//18
