# Blender v2.83.0 OBJ File: ''
# www.blender.org
o Cylinder.025_Cylinder.1914
v 0.745366 0.580814 2.836780
v 1.014444 0.505929 0.856379
v 0.532788 0.886446 2.796340
v 0.801866 0.811562 0.815939
v 0.219997 1.086179 2.746289
v 0.489076 1.011294 0.765887
v -0.145386 1.149605 2.694246
v 0.123692 1.074720 0.713844
v -0.507736 1.067067 2.648134
v -0.238658 0.992182 0.667733
v -0.811888 0.851131 2.614974
v -0.542810 0.776246 0.634573
v -1.011537 0.534672 2.599813
v -0.742459 0.459787 0.619412
v -1.076290 0.165868 2.604961
v -0.807212 0.090983 0.624560
v -0.996288 -0.199135 2.629633
v -0.727209 -0.274020 0.649232
v -0.783710 -0.504768 2.670073
v -0.514631 -0.579653 0.689672
v -0.470920 -0.704501 2.720124
v -0.201841 -0.779386 0.739723
v -0.105536 -0.767926 2.772168
v 0.163542 -0.842811 0.791766
v 0.256814 -0.685388 2.818279
v 0.525892 -0.760273 0.837878
v 0.560966 -0.469453 2.851439
v 0.830044 -0.544338 0.871038
v 0.760616 -0.152993 2.866600
v 1.029694 -0.227878 0.886198
v 0.825368 0.215811 2.861452
v 1.094446 0.140926 0.881051
vn 0.8122 0.5766 0.0885
vn 0.5331 0.8451 0.0405
vn 0.1729 0.9848 -0.0137
vn -0.2136 0.9747 -0.0659
vn -0.5677 0.8161 -0.1080
vn -0.8353 0.5334 -0.1337
vn -0.9757 0.1694 -0.1390
vn -0.9676 -0.2204 -0.1231
vn -0.8122 -0.5766 -0.0885
vn -0.5331 -0.8451 -0.0405
vn -0.1729 -0.9848 0.0137
vn 0.2136 -0.9747 0.0659
vn 0.5677 -0.8161 0.1080
vn 0.8353 -0.5334 0.1337
vn 0.1345 -0.0374 -0.9902
vn 0.9757 -0.1694 0.1390
vn 0.9676 0.2204 0.1231
vn -0.1345 0.0374 0.9902
s off
f 2//1 3//1 1//1
f 4//2 5//2 3//2
f 6//3 7//3 5//3
f 8//4 9//4 7//4
f 10//5 11//5 9//5
f 12//6 13//6 11//6
f 14//7 15//7 13//7
f 16//8 17//8 15//8
f 18//9 19//9 17//9
f 20//10 21//10 19//10
f 22//11 23//11 21//11
f 24//12 25//12 23//12
f 26//13 27//13 25//13
f 28//14 29//14 27//14
f 22//15 14//15 6//15
f 30//16 31//16 29//16
f 32//17 1//17 31//17
f 7//18 15//18 23//18
f 2//1 4//1 3//1
f 4//2 6//2 5//2
f 6//3 8//3 7//3
f 8//4 10//4 9//4
f 10//5 12//5 11//5
f 12//6 14//6 13//6
f 14//7 16//7 15//7
f 16//8 18//8 17//8
f 18//9 20//9 19//9
f 20//10 22//10 21//10
f 22//11 24//11 23//11
f 24//12 26//12 25//12
f 26//13 28//13 27//13
f 28//14 30//14 29//14
f 6//15 4//15 30//15
f 4//15 2//15 30//15
f 2//15 32//15 30//15
f 30//15 28//15 22//15
f 28//15 26//15 22//15
f 26//15 24//15 22//15
f 22//15 20//15 18//15
f 18//15 16//15 14//15
f 14//15 12//15 10//15
f 10//15 8//15 14//15
f 8//15 6//15 14//15
f 22//15 18//15 14//15
f 6//15 30//15 22//15
f 30//16 32//16 31//16
f 32//17 2//17 1//17
f 31//18 1//18 7//18
f 1//18 3//18 7//18
f 3//18 5//18 7//18
f 7//18 9//18 11//18
f 11//18 13//18 7//18
f 13//18 15//18 7//18
f 15//18 17//18 19//18
f 19//18 21//18 23//18
f 23//18 25//18 27//18
f 27//18 29//18 23//18
f 29//18 31//18 23//18
f 15//18 19//18 23//18
f 31//18 7//18 23//18
