# Blender v2.83.0 OBJ File: ''
# www.blender.org
o Cylinder.021_Cylinder.1910
v -0.357046 0.031927 1.527358
v -1.226304 1.221396 0.174748
v -0.572909 0.167751 1.785524
v -1.442166 1.357219 0.432914
v -0.866250 0.194428 1.997500
v -1.735507 1.383896 0.644890
v -1.192411 0.107898 2.131015
v -2.061668 1.297366 0.778404
v -1.501736 -0.078667 2.165741
v -2.370994 1.110802 0.813131
v -1.747135 -0.336862 2.096393
v -2.616393 0.852606 0.743782
v -1.891246 -0.627381 1.933528
v -2.760504 0.562087 0.580917
v -1.912131 -0.905995 1.701940
v -2.781389 0.283474 0.349330
v -1.806609 -1.130286 1.436888
v -2.675867 0.059182 0.084277
v -1.590747 -1.266110 1.178721
v -2.460004 -0.076641 -0.173889
v -1.297406 -1.292787 0.966745
v -2.166663 -0.103319 -0.385865
v -0.971245 -1.206257 0.833231
v -1.840503 -0.016789 -0.519379
v -0.661919 -1.019693 0.798505
v -1.531177 0.169776 -0.554106
v -0.416520 -0.761497 0.867853
v -1.285778 0.427971 -0.484758
v -0.272409 -0.470978 1.030718
v -1.141667 0.718490 -0.321892
v -0.251524 -0.192364 1.262306
v -1.120782 0.997104 -0.090305
vn 0.6762 0.7115 0.1911
vn 0.3971 0.8006 0.4488
vn 0.0575 0.7677 0.6382
vn -0.2908 0.6181 0.7304
vn -0.5948 0.3743 0.7114
vn -0.8083 0.0735 0.5841
vn -0.8988 -0.2384 0.3679
vn -0.8524 -0.5141 0.0957
vn -0.6762 -0.7115 -0.1911
vn -0.3971 -0.8006 -0.4488
vn -0.0576 -0.7677 -0.6382
vn 0.2908 -0.6181 -0.7304
vn 0.5948 -0.3743 -0.7114
vn 0.8083 -0.0735 -0.5841
vn -0.4346 0.5947 -0.6763
vn 0.8988 0.2384 -0.3679
vn 0.8524 0.5141 -0.0957
vn 0.4346 -0.5947 0.6763
vn 0.0576 0.7677 0.6382
s off
f 2//1 3//1 1//1
f 4//2 5//2 3//2
f 6//3 7//3 5//3
f 8//4 9//4 7//4
f 10//5 11//5 9//5
f 12//6 13//6 11//6
f 14//7 15//7 13//7
f 16//8 17//8 15//8
f 18//9 19//9 17//9
f 20//10 21//10 19//10
f 22//11 23//11 21//11
f 23//12 26//12 25//12
f 26//13 27//13 25//13
f 28//14 29//14 27//14
f 22//15 14//15 6//15
f 30//16 31//16 29//16
f 32//17 1//17 31//17
f 27//18 31//18 15//18
f 2//1 4//1 3//1
f 4//2 6//2 5//2
f 6//19 8//19 7//19
f 8//4 10//4 9//4
f 10//5 12//5 11//5
f 12//6 14//6 13//6
f 14//7 16//7 15//7
f 16//8 18//8 17//8
f 18//9 20//9 19//9
f 20//10 22//10 21//10
f 22//11 24//11 23//11
f 23//12 24//12 26//12
f 26//13 28//13 27//13
f 28//14 30//14 29//14
f 6//15 4//15 2//15
f 2//15 32//15 30//15
f 30//15 28//15 26//15
f 26//15 24//15 22//15
f 22//15 20//15 18//15
f 18//15 16//15 22//15
f 16//15 14//15 22//15
f 14//15 12//15 10//15
f 10//15 8//15 14//15
f 8//15 6//15 14//15
f 6//15 2//15 30//15
f 30//15 26//15 22//15
f 6//15 30//15 22//15
f 30//16 32//16 31//16
f 32//17 2//17 1//17
f 31//18 1//18 3//18
f 3//18 5//18 7//18
f 7//18 9//18 11//18
f 11//18 13//18 15//18
f 15//18 17//18 19//18
f 19//18 21//18 23//18
f 23//18 25//18 27//18
f 27//18 29//18 31//18
f 31//18 3//18 15//18
f 3//18 7//18 15//18
f 7//18 11//18 15//18
f 15//18 19//18 23//18
f 23//18 27//18 15//18
