# Blender v2.83.0 OBJ File: ''
# www.blender.org
o Cylinder.035_Cylinder.1924
v -0.211423 1.551862 -1.760190
v -1.699349 1.573771 -0.423928
v -0.124004 1.039096 -1.654442
v -1.611930 1.061005 -0.318180
v -0.174788 0.512904 -1.702363
v -1.662714 0.534813 -0.366101
v -0.356043 0.053394 -1.896657
v -1.843969 0.075302 -0.560395
v -0.640176 -0.269479 -2.207745
v -2.128102 -0.247571 -0.871483
v -0.983929 -0.406559 -2.588266
v -2.471855 -0.384651 -1.252004
v -1.334970 -0.336978 -2.980290
v -2.822896 -0.315069 -1.644028
v -1.639855 -0.071328 -3.324134
v -3.127780 -0.049419 -1.987872
v -1.852168 0.349948 -3.567452
v -3.340094 0.371856 -2.231190
v -1.939588 0.862714 -3.673200
v -3.427514 0.884622 -2.336938
v -1.888804 1.388906 -3.625279
v -3.376729 1.410814 -2.289018
v -1.707548 1.848417 -3.430985
v -3.195474 1.870325 -2.094724
v -1.423415 2.171290 -3.119898
v -2.911341 2.193198 -1.783636
v -1.079662 2.308370 -2.739376
v -2.567588 2.330278 -1.403114
v -0.728621 2.238788 -2.347352
v -2.216547 2.260696 -1.011090
v -0.423736 1.973138 -2.003507
v -1.911662 1.995046 -0.667246
vn 0.6476 0.2582 0.7169
vn 0.6613 -0.1311 0.7385
vn 0.5744 -0.5005 0.6478
vn 0.4000 -0.7937 0.4584
vn 0.1647 -0.9660 0.1992
vn -0.0957 -0.9913 -0.0903
vn -0.3415 -0.8657 -0.3660
vn -0.5353 -0.6083 -0.5861
vn -0.6476 -0.2582 -0.7169
vn -0.6613 0.1311 -0.7385
vn -0.5744 0.5005 -0.6478
vn -0.4000 0.7937 -0.4584
vn -0.1647 0.9660 -0.1992
vn 0.0957 0.9913 0.0903
vn -0.7440 0.0110 0.6681
vn 0.3415 0.8657 0.3660
vn 0.5353 0.6083 0.5861
vn 0.7440 -0.0110 -0.6681
vn -0.6476 -0.2583 -0.7169
s off
f 2//1 3//1 1//1
f 4//2 5//2 3//2
f 6//3 7//3 5//3
f 8//4 9//4 7//4
f 10//5 11//5 9//5
f 12//6 13//6 11//6
f 14//7 15//7 13//7
f 16//8 17//8 15//8
f 18//9 19//9 17//9
f 20//10 21//10 19//10
f 22//11 23//11 21//11
f 24//12 25//12 23//12
f 26//13 27//13 25//13
f 28//14 29//14 27//14
f 30//15 22//15 14//15
f 30//16 31//16 29//16
f 32//17 1//17 31//17
f 27//18 31//18 15//18
f 2//1 4//1 3//1
f 4//2 6//2 5//2
f 6//3 8//3 7//3
f 8//4 10//4 9//4
f 10//5 12//5 11//5
f 12//6 14//6 13//6
f 14//7 16//7 15//7
f 16//8 18//8 17//8
f 18//19 20//19 19//19
f 20//10 22//10 21//10
f 22//11 24//11 23//11
f 24//12 26//12 25//12
f 26//13 28//13 27//13
f 28//14 30//14 29//14
f 6//15 4//15 2//15
f 2//15 32//15 30//15
f 30//15 28//15 26//15
f 26//15 24//15 22//15
f 22//15 20//15 18//15
f 18//15 16//15 22//15
f 16//15 14//15 22//15
f 14//15 12//15 10//15
f 10//15 8//15 6//15
f 6//15 2//15 30//15
f 30//15 26//15 22//15
f 14//15 10//15 6//15
f 6//15 30//15 14//15
f 30//16 32//16 31//16
f 32//17 2//17 1//17
f 31//18 1//18 3//18
f 3//18 5//18 7//18
f 7//18 9//18 11//18
f 11//18 13//18 15//18
f 15//18 17//18 23//18
f 17//18 19//18 23//18
f 19//18 21//18 23//18
f 23//18 25//18 27//18
f 27//18 29//18 31//18
f 31//18 3//18 7//18
f 7//18 11//18 31//18
f 11//18 15//18 31//18
f 23//18 27//18 15//18
