# Blender v2.83.0 OBJ File: ''
# www.blender.org
o Cylinder.044_Cylinder.1933
v -3.493045 -1.682251 0.081801
v -2.530582 -0.957425 -1.514535
v -3.418880 -2.256148 -0.134065
v -2.456418 -1.531321 -1.730401
v -3.145129 -2.803460 -0.217525
v -2.182666 -2.078633 -1.813861
v -2.713466 -3.240864 -0.155873
v -1.751003 -2.516037 -1.752209
v -2.189609 -3.501769 0.041505
v -1.227146 -2.776943 -1.554831
v -1.653310 -3.546455 0.344560
v -0.690847 -2.821629 -1.251776
v -1.186216 -3.368119 0.707155
v -0.223753 -2.643293 -0.889181
v -0.859438 -2.993911 1.074088
v 0.103026 -2.269084 -0.522248
v -0.722724 -2.480800 1.389497
v 0.239740 -1.755974 -0.206839
v -0.796887 -1.906904 1.605363
v 0.165576 -1.182077 0.009027
v -1.070639 -1.359592 1.688824
v -0.108176 -0.634766 0.092487
v -1.502302 -0.922188 1.627172
v -0.539839 -0.197361 0.030835
v -2.026159 -0.661282 1.429793
v -1.063696 0.063544 -0.166543
v -2.562458 -0.616596 1.126738
v -1.599995 0.108231 -0.469598
v -3.029552 -0.794932 0.764143
v -2.067090 -0.070106 -0.832194
v -3.356331 -1.169141 0.397210
v -2.393868 -0.444314 -1.199127
vn -0.8683 0.0724 -0.4907
vn -0.7563 -0.2887 -0.5871
vn -0.5291 -0.6059 -0.5941
vn -0.2214 -0.8308 -0.5107
vn 0.1201 -0.9292 -0.3495
vn 0.4432 -0.8862 -0.1351
vn 0.6989 -0.7082 0.0998
vn 0.8482 -0.4224 0.3196
vn 0.8683 -0.0724 0.4907
vn 0.7563 0.2887 0.5871
vn 0.5291 0.6059 0.5941
vn 0.2214 0.8308 0.5107
vn -0.1201 0.9292 0.3495
vn -0.4432 0.8862 0.1351
vn 0.4812 0.3624 -0.7982
vn -0.6989 0.7082 -0.0998
vn -0.8482 0.4224 -0.3196
vn -0.4812 -0.3624 0.7982
s off
f 2//1 3//1 1//1
f 4//2 5//2 3//2
f 6//3 7//3 5//3
f 8//4 9//4 7//4
f 10//5 11//5 9//5
f 12//6 13//6 11//6
f 14//7 15//7 13//7
f 16//8 17//8 15//8
f 18//9 19//9 17//9
f 20//10 21//10 19//10
f 22//11 23//11 21//11
f 24//12 25//12 23//12
f 26//13 27//13 25//13
f 28//14 29//14 27//14
f 30//15 22//15 14//15
f 30//16 31//16 29//16
f 32//17 1//17 31//17
f 7//18 15//18 23//18
f 2//1 4//1 3//1
f 4//2 6//2 5//2
f 6//3 8//3 7//3
f 8//4 10//4 9//4
f 10//5 12//5 11//5
f 12//6 14//6 13//6
f 14//7 16//7 15//7
f 16//8 18//8 17//8
f 18//9 20//9 19//9
f 20//10 22//10 21//10
f 22//11 24//11 23//11
f 24//12 26//12 25//12
f 26//13 28//13 27//13
f 28//14 30//14 29//14
f 6//15 4//15 2//15
f 2//15 32//15 30//15
f 30//15 28//15 26//15
f 26//15 24//15 22//15
f 22//15 20//15 18//15
f 18//15 16//15 14//15
f 14//15 12//15 10//15
f 10//15 8//15 6//15
f 6//15 2//15 30//15
f 30//15 26//15 22//15
f 22//15 18//15 14//15
f 14//15 10//15 6//15
f 6//15 30//15 14//15
f 30//16 32//16 31//16
f 32//17 2//17 1//17
f 31//18 1//18 3//18
f 3//18 5//18 31//18
f 5//18 7//18 31//18
f 7//18 9//18 11//18
f 11//18 13//18 7//18
f 13//18 15//18 7//18
f 15//18 17//18 23//18
f 17//18 19//18 23//18
f 19//18 21//18 23//18
f 23//18 25//18 27//18
f 27//18 29//18 31//18
f 23//18 27//18 31//18
f 31//18 7//18 23//18
