# Blender v2.83.0 OBJ File: ''
# www.blender.org
o Cylinder.005_Cylinder.1894
v -1.613915 -2.854222 0.426315
v -1.254771 -0.920417 0.063804
v -1.433147 -2.901090 0.355384
v -1.074003 -0.967285 -0.007126
v -1.236643 -2.936727 0.359962
v -0.877499 -1.002922 -0.002549
v -1.054319 -2.955706 0.439349
v -0.695175 -1.021901 0.076839
v -0.913932 -2.955138 0.581461
v -0.554788 -1.021333 0.218951
v -0.836855 -2.935110 0.764662
v -0.477710 -1.001305 0.402152
v -0.834821 -2.898671 0.961061
v -0.475677 -0.964866 0.598551
v -0.908141 -2.851368 1.140759
v -0.548997 -0.917563 0.778249
v -1.045652 -2.800403 1.276398
v -0.686508 -0.866598 0.913888
v -1.226420 -2.753534 1.347328
v -0.867275 -0.819729 0.984818
v -1.422923 -2.717898 1.342751
v -1.063779 -0.784093 0.980240
v -1.605247 -2.698919 1.263363
v -1.246103 -0.765114 0.900853
v -1.745635 -2.699486 1.121251
v -1.386491 -0.765681 0.758741
v -1.822712 -2.719514 0.938050
v -1.463568 -0.785709 0.575540
v -1.824746 -2.755954 0.741651
v -1.465602 -0.822149 0.379141
v -1.751426 -2.803257 0.561953
v -1.392282 -0.869452 0.199443
vn -0.3858 -0.1003 -0.9171
vn -0.0102 -0.1824 -0.9832
vn 0.3670 -0.2368 -0.8996
vn 0.6884 -0.2551 -0.6790
vn 0.9049 -0.2346 -0.3551
vn 0.9837 -0.1784 0.0229
vn 0.9127 -0.0950 0.3974
vn 0.7028 0.0028 0.7114
vn 0.3858 0.1003 0.9171
vn 0.0102 0.1824 0.9832
vn -0.3670 0.2368 0.8996
vn -0.6884 0.2551 0.6790
vn -0.9049 0.2346 0.3551
vn -0.9837 0.1784 -0.0229
vn 0.1796 0.9669 -0.1813
vn -0.9127 0.0950 -0.3974
vn -0.7028 -0.0028 -0.7114
vn -0.1796 -0.9669 0.1813
vn -0.1796 -0.9669 0.1812
s off
f 2//1 3//1 1//1
f 4//2 5//2 3//2
f 6//3 7//3 5//3
f 8//4 9//4 7//4
f 10//5 11//5 9//5
f 12//6 13//6 11//6
f 14//7 15//7 13//7
f 16//8 17//8 15//8
f 18//9 19//9 17//9
f 20//10 21//10 19//10
f 22//11 23//11 21//11
f 24//12 25//12 23//12
f 26//13 27//13 25//13
f 28//14 29//14 27//14
f 6//15 30//15 22//15
f 30//16 31//16 29//16
f 32//17 1//17 31//17
f 15//18 23//18 31//18
f 2//1 4//1 3//1
f 4//2 6//2 5//2
f 6//3 8//3 7//3
f 8//4 10//4 9//4
f 10//5 12//5 11//5
f 12//6 14//6 13//6
f 14//7 16//7 15//7
f 16//8 18//8 17//8
f 18//9 20//9 19//9
f 20//10 22//10 21//10
f 22//11 24//11 23//11
f 24//12 26//12 25//12
f 26//13 28//13 27//13
f 28//14 30//14 29//14
f 6//15 4//15 2//15
f 2//15 32//15 30//15
f 30//15 28//15 26//15
f 26//15 24//15 22//15
f 22//15 20//15 14//15
f 20//15 18//15 14//15
f 18//15 16//15 14//15
f 14//15 12//15 10//15
f 10//15 8//15 6//15
f 6//15 2//15 30//15
f 30//15 26//15 22//15
f 14//15 10//15 22//15
f 10//15 6//15 22//15
f 30//16 32//16 31//16
f 32//17 2//17 1//17
f 31//18 1//18 7//18
f 1//18 3//18 7//18
f 3//18 5//18 7//18
f 7//18 9//18 15//18
f 9//18 11//18 15//18
f 11//18 13//18 15//18
f 15//19 17//19 19//19
f 19//18 21//18 23//18
f 23//18 25//18 27//18
f 27//18 29//18 23//18
f 29//18 31//18 23//18
f 15//18 19//18 23//18
f 31//18 7//18 15//18
