# Blender v2.83.0 OBJ File: ''
# www.blender.org
o Cylinder.004_Cylinder.1893
v -1.361308 0.465294 -1.103913
v 0.623453 0.239834 -1.203377
v -1.294865 0.856930 -0.665816
v 0.689896 0.631469 -0.765280
v -1.222034 1.386393 -0.412664
v 0.762727 1.160933 -0.512128
v -1.153902 1.973079 -0.382997
v 0.830859 1.747618 -0.482461
v -1.100842 2.527669 -0.581331
v 0.883919 2.302209 -0.680795
v -1.070932 2.965732 -0.977473
v 0.913829 2.740272 -1.076937
v -1.068725 3.220578 -1.511112
v 0.916035 2.995117 -1.610576
v -1.094558 3.253407 -2.101008
v 0.890203 3.027946 -2.200472
v -1.144497 3.059223 -2.657354
v 0.840264 2.833762 -2.756817
v -1.210940 2.667587 -3.095451
v 0.773821 2.442127 -3.194915
v -1.283771 2.138124 -3.348603
v 0.700990 1.912664 -3.448067
v -1.351903 1.551438 -3.378270
v 0.632858 1.325978 -3.477734
v -1.404963 0.996848 -3.179936
v 0.579798 0.771387 -3.279400
v -1.434873 0.558784 -2.783794
v 0.549888 0.333324 -2.883258
v -1.437079 0.303939 -2.250154
v 0.547681 0.078479 -2.349618
v -1.411247 0.271110 -1.660258
v 0.573514 0.045649 -1.759722
vn -0.0506 -0.7408 0.6699
vn -0.0037 -0.4309 0.9024
vn 0.0437 -0.0555 0.9975
vn 0.0844 0.3284 0.9408
vn 0.1124 0.6622 0.7408
vn 0.1232 0.8953 0.4281
vn 0.1152 0.9921 0.0502
vn 0.0897 0.9378 -0.3354
vn 0.0506 0.7408 -0.6699
vn 0.0037 0.4309 -0.9024
vn -0.0437 0.0555 -0.9975
vn -0.0844 -0.3284 -0.9408
vn -0.1124 -0.6622 -0.7408
vn -0.1232 -0.8953 -0.4281
vn 0.9924 -0.1127 -0.0497
vn -0.1152 -0.9921 -0.0502
vn -0.0897 -0.9378 0.3354
vn -0.9924 0.1127 0.0497
s off
f 2//1 3//1 1//1
f 4//2 5//2 3//2
f 6//3 7//3 5//3
f 8//4 9//4 7//4
f 10//5 11//5 9//5
f 12//6 13//6 11//6
f 14//7 15//7 13//7
f 16//8 17//8 15//8
f 18//9 19//9 17//9
f 20//10 21//10 19//10
f 22//11 23//11 21//11
f 24//12 25//12 23//12
f 26//13 27//13 25//13
f 28//14 29//14 27//14
f 22//15 14//15 6//15
f 30//16 31//16 29//16
f 32//17 1//17 31//17
f 7//18 15//18 23//18
f 2//1 4//1 3//1
f 4//2 6//2 5//2
f 6//3 8//3 7//3
f 8//4 10//4 9//4
f 10//5 12//5 11//5
f 12//6 14//6 13//6
f 14//7 16//7 15//7
f 16//8 18//8 17//8
f 18//9 20//9 19//9
f 20//10 22//10 21//10
f 22//11 24//11 23//11
f 24//12 26//12 25//12
f 26//13 28//13 27//13
f 28//14 30//14 29//14
f 6//15 4//15 30//15
f 4//15 2//15 30//15
f 2//15 32//15 30//15
f 30//15 28//15 22//15
f 28//15 26//15 22//15
f 26//15 24//15 22//15
f 22//15 20//15 14//15
f 20//15 18//15 14//15
f 18//15 16//15 14//15
f 14//15 12//15 6//15
f 12//15 10//15 6//15
f 10//15 8//15 6//15
f 6//15 30//15 22//15
f 30//16 32//16 31//16
f 32//17 2//17 1//17
f 31//18 1//18 3//18
f 3//18 5//18 7//18
f 7//18 9//18 11//18
f 11//18 13//18 15//18
f 15//18 17//18 19//18
f 19//18 21//18 23//18
f 23//18 25//18 27//18
f 27//18 29//18 31//18
f 31//18 3//18 7//18
f 7//18 11//18 15//18
f 15//18 19//18 23//18
f 23//18 27//18 31//18
f 31//18 7//18 23//18
