# Blender v2.83.0 OBJ File: ''
# www.blender.org
o Cylinder_Cylinder.1889
v -1.747520 -1.466731 0.466365
v -0.914087 0.295908 0.911891
v -1.327107 -1.590075 0.167897
v -0.493673 0.172564 0.613422
v -0.848547 -1.787467 0.053610
v -0.015113 -0.024828 0.499135
v -0.384697 -2.028854 0.140902
v 0.448737 -0.266215 0.586427
v -0.006173 -2.277489 0.416485
v 0.827260 -0.514850 0.862010
v 0.229396 -2.495518 0.838403
v 1.062829 -0.732879 1.283928
v 0.286148 -2.649748 1.342424
v 1.119581 -0.887110 1.787949
v 0.155444 -2.716701 1.851814
v 0.988877 -0.954062 2.297339
v -0.142819 -2.686182 2.289024
v 0.690614 -0.923543 2.734549
v -0.563233 -2.562837 2.587492
v 0.270201 -0.800199 3.033017
v -1.041793 -2.365446 2.701780
v -0.208359 -0.602807 3.147305
v -1.505643 -2.124058 2.614487
v -0.672210 -0.361420 3.060013
v -1.884166 -1.875424 2.338904
v -1.050733 -0.112785 2.784430
v -2.119735 -1.657395 1.916986
v -1.286302 0.105244 2.362511
v -2.176488 -1.503164 1.412965
v -1.343055 0.259475 1.858490
v -2.045783 -1.436212 0.903575
v -1.212350 0.326427 1.349100
vn -0.4444 0.4113 -0.7959
vn -0.1071 0.2909 -0.9507
vn 0.2465 0.1263 -0.9609
vn 0.5626 -0.0576 -0.8247
vn 0.7930 -0.2327 -0.5630
vn 0.9027 -0.3723 -0.2156
vn 0.8750 -0.4553 0.1647
vn 0.7140 -0.4690 0.5198
vn 0.4444 -0.4113 0.7959
vn 0.1071 -0.2909 0.9507
vn -0.2465 -0.1263 0.9609
vn -0.5626 0.0576 0.8247
vn -0.7930 0.2327 0.5630
vn -0.9027 0.3723 0.2156
vn 0.4167 0.8813 0.2228
vn -0.8750 0.4553 -0.1647
vn -0.7140 0.4690 -0.5198
vn -0.4167 -0.8813 -0.2228
s off
f 2//1 3//1 1//1
f 4//2 5//2 3//2
f 6//3 7//3 5//3
f 8//4 9//4 7//4
f 9//5 12//5 11//5
f 12//6 13//6 11//6
f 14//7 15//7 13//7
f 16//8 17//8 15//8
f 18//9 19//9 17//9
f 20//10 21//10 19//10
f 22//11 23//11 21//11
f 24//12 25//12 23//12
f 26//13 27//13 25//13
f 28//14 29//14 27//14
f 22//15 14//15 6//15
f 30//16 31//16 29//16
f 32//17 1//17 31//17
f 23//18 27//18 31//18
f 2//1 4//1 3//1
f 4//2 6//2 5//2
f 6//3 8//3 7//3
f 8//4 10//4 9//4
f 9//5 10//5 12//5
f 12//6 14//6 13//6
f 14//7 16//7 15//7
f 16//8 18//8 17//8
f 18//9 20//9 19//9
f 20//10 22//10 21//10
f 22//11 24//11 23//11
f 24//12 26//12 25//12
f 26//13 28//13 27//13
f 28//14 30//14 29//14
f 6//15 4//15 2//15
f 2//15 32//15 6//15
f 32//15 30//15 6//15
f 30//15 28//15 22//15
f 28//15 26//15 22//15
f 26//15 24//15 22//15
f 22//15 20//15 14//15
f 20//15 18//15 14//15
f 18//15 16//15 14//15
f 14//15 12//15 10//15
f 10//15 8//15 6//15
f 14//15 10//15 6//15
f 6//15 30//15 22//15
f 30//16 32//16 31//16
f 32//17 2//17 1//17
f 31//18 1//18 3//18
f 3//18 5//18 7//18
f 7//18 9//18 11//18
f 11//18 13//18 15//18
f 15//18 17//18 19//18
f 19//18 21//18 23//18
f 23//18 25//18 27//18
f 27//18 29//18 31//18
f 31//18 3//18 15//18
f 3//18 7//18 15//18
f 7//18 11//18 15//18
f 15//18 19//18 31//18
f 19//18 23//18 31//18
