# Blender v2.83.0 OBJ File: ''
# www.blender.org
o Cylinder.016_Cylinder.1905
v 0.770270 1.966221 -2.289220
v -1.212806 1.783460 -2.473636
v 0.679429 2.596991 -1.937489
v -1.303647 2.414230 -2.121904
v 0.585545 3.043077 -1.370012
v -1.397531 2.860317 -1.554427
v 0.502911 3.236569 -0.673183
v -1.480165 3.053809 -0.857598
v 0.444108 3.148007 0.046913
v -1.538968 2.965247 -0.137503
v 0.418088 2.790876 0.680646
v -1.564988 2.608115 0.496231
v 0.428811 2.219544 1.131537
v -1.554265 2.036784 0.947122
v 0.474646 1.520992 1.330943
v -1.508430 1.338232 1.146527
v 0.548614 0.801569 1.248504
v -1.434462 0.618809 1.064089
v 0.639455 0.170799 0.896773
v -1.343621 -0.011961 0.712357
v 0.733339 -0.275288 0.329296
v -1.249737 -0.458048 0.144880
v 0.815972 -0.468780 -0.367534
v -1.167104 -0.651540 -0.551949
v 0.874776 -0.380218 -1.087629
v -1.108300 -0.562979 -1.272045
v 0.900796 -0.023086 -1.721363
v -1.082280 -0.205847 -1.905778
v 0.890073 0.548246 -2.172254
v -1.093003 0.365485 -2.356670
v 0.844238 1.246798 -2.371659
v -1.138838 1.064038 -2.556075
vn 0.0357 0.4906 -0.8706
vn -0.0147 0.7849 -0.6194
vn -0.0630 0.9597 -0.2739
vn -0.1016 0.9884 0.1133
vn -0.1248 0.8666 0.4832
vn -0.1290 0.6128 0.7796
vn -0.1135 0.2658 0.9573
vn -0.0808 -0.1217 0.9893
vn -0.0357 -0.4906 0.8706
vn 0.0147 -0.7849 0.6194
vn 0.0630 -0.9597 0.2739
vn 0.1016 -0.9884 -0.1133
vn 0.1248 -0.8666 -0.4832
vn 0.1290 -0.6128 -0.7796
vn -0.9915 -0.0914 -0.0922
vn 0.1135 -0.2658 -0.9573
vn 0.0808 0.1217 -0.9893
vn 0.9915 0.0914 0.0922
s off
f 2//1 3//1 1//1
f 4//2 5//2 3//2
f 6//3 7//3 5//3
f 8//4 9//4 7//4
f 10//5 11//5 9//5
f 12//6 13//6 11//6
f 14//7 15//7 13//7
f 16//8 17//8 15//8
f 18//9 19//9 17//9
f 20//10 21//10 19//10
f 22//11 23//11 21//11
f 24//12 25//12 23//12
f 26//13 27//13 25//13
f 28//14 29//14 27//14
f 30//15 22//15 14//15
f 30//16 31//16 29//16
f 32//17 1//17 31//17
f 15//18 23//18 31//18
f 2//1 4//1 3//1
f 4//2 6//2 5//2
f 6//3 8//3 7//3
f 8//4 10//4 9//4
f 10//5 12//5 11//5
f 12//6 14//6 13//6
f 14//7 16//7 15//7
f 16//8 18//8 17//8
f 18//9 20//9 19//9
f 20//10 22//10 21//10
f 22//11 24//11 23//11
f 24//12 26//12 25//12
f 26//13 28//13 27//13
f 28//14 30//14 29//14
f 6//15 4//15 2//15
f 2//15 32//15 30//15
f 30//15 28//15 22//15
f 28//15 26//15 22//15
f 26//15 24//15 22//15
f 22//15 20//15 18//15
f 18//15 16//15 14//15
f 14//15 12//15 10//15
f 10//15 8//15 14//15
f 8//15 6//15 14//15
f 6//15 2//15 30//15
f 22//15 18//15 14//15
f 6//15 30//15 14//15
f 30//16 32//16 31//16
f 32//17 2//17 1//17
f 31//18 1//18 7//18
f 1//18 3//18 7//18
f 3//18 5//18 7//18
f 7//18 9//18 11//18
f 11//18 13//18 15//18
f 15//18 17//18 19//18
f 19//18 21//18 23//18
f 23//18 25//18 27//18
f 27//18 29//18 31//18
f 7//18 11//18 15//18
f 15//18 19//18 23//18
f 23//18 27//18 31//18
f 31//18 7//18 15//18
