# Blender v2.83.0 OBJ File: ''
# www.blender.org
o Cylinder.032_Cylinder.1921
v 1.260261 -1.146734 -0.268696
v -0.005047 -0.841590 1.249818
v 1.367391 -0.877611 -0.233509
v 0.102083 -0.572467 1.285004
v 1.542506 -0.668620 -0.129590
v 0.277199 -0.363476 1.388924
v 1.758948 -0.551578 0.027241
v 0.493641 -0.246434 1.545755
v 1.983765 -0.544303 0.213109
v 0.718457 -0.239159 1.731622
v 2.182729 -0.647904 0.399715
v 0.917422 -0.342759 1.918229
v 2.325552 -0.846606 0.558652
v 1.060244 -0.541462 2.077166
v 2.390489 -1.110161 0.665722
v 1.125181 -0.805017 2.184236
v 2.367654 -1.398444 0.704625
v 1.102347 -1.093300 2.223139
v 2.260524 -1.667567 0.669439
v 0.995217 -1.362423 2.187953
v 2.085409 -1.876558 0.565520
v 0.820101 -1.571414 2.084033
v 1.868967 -1.993600 0.408688
v 0.603659 -1.688456 1.927202
v 1.644150 -2.000875 0.222821
v 0.378843 -1.695731 1.741334
v 1.445185 -1.897275 0.036214
v 0.179878 -1.592131 1.554728
v 1.302363 -1.698572 -0.122723
v 0.037055 -1.393428 1.395791
v 1.237426 -1.435017 -0.229793
v -0.027882 -1.129873 1.288721
vn -0.6819 0.3550 -0.6395
vn -0.4895 0.6810 -0.5447
vn -0.2225 0.9032 -0.3669
vn 0.0783 0.9880 -0.1333
vn 0.3671 0.9223 0.1206
vn 0.6001 0.7162 0.3561
vn 0.7418 0.4011 0.5375
vn 0.7705 0.0249 0.6370
vn 0.6819 -0.3550 0.6395
vn 0.4895 -0.6810 0.5447
vn 0.2225 -0.9032 0.3669
vn -0.0783 -0.9880 0.1333
vn -0.3671 -0.9223 -0.1206
vn -0.6001 -0.7162 -0.3561
vn -0.6327 0.1526 0.7593
vn -0.7418 -0.4011 -0.5375
vn -0.7705 -0.0249 -0.6370
vn 0.6327 -0.1526 -0.7593
vn -0.6326 0.1526 0.7593
s off
f 2//1 3//1 1//1
f 4//2 5//2 3//2
f 6//3 7//3 5//3
f 8//4 9//4 7//4
f 10//5 11//5 9//5
f 12//6 13//6 11//6
f 14//7 15//7 13//7
f 16//8 17//8 15//8
f 18//9 19//9 17//9
f 20//10 21//10 19//10
f 22//11 23//11 21//11
f 24//12 25//12 23//12
f 26//13 27//13 25//13
f 28//14 29//14 27//14
f 22//15 14//15 6//15
f 30//16 31//16 29//16
f 32//17 1//17 31//17
f 15//18 23//18 31//18
f 2//1 4//1 3//1
f 4//2 6//2 5//2
f 6//3 8//3 7//3
f 8//4 10//4 9//4
f 10//5 12//5 11//5
f 12//6 14//6 13//6
f 14//7 16//7 15//7
f 16//8 18//8 17//8
f 18//9 20//9 19//9
f 20//10 22//10 21//10
f 22//11 24//11 23//11
f 24//12 26//12 25//12
f 26//13 28//13 27//13
f 28//14 30//14 29//14
f 6//15 4//15 2//15
f 2//15 32//15 30//15
f 30//15 28//15 26//15
f 26//15 24//15 22//15
f 22//15 20//15 14//15
f 20//15 18//15 14//15
f 18//19 16//19 14//19
f 14//15 12//15 10//15
f 10//15 8//15 14//15
f 8//15 6//15 14//15
f 6//15 2//15 22//15
f 2//15 30//15 22//15
f 30//15 26//15 22//15
f 30//16 32//16 31//16
f 32//17 2//17 1//17
f 31//18 1//18 3//18
f 3//18 5//18 7//18
f 7//18 9//18 11//18
f 11//18 13//18 15//18
f 15//18 17//18 19//18
f 19//18 21//18 23//18
f 23//18 25//18 31//18
f 25//18 27//18 31//18
f 27//18 29//18 31//18
f 31//18 3//18 7//18
f 7//18 11//18 15//18
f 15//18 19//18 23//18
f 31//18 7//18 15//18
