# Blender v2.83.0 OBJ File: ''
# www.blender.org
o Cylinder.063_Cylinder.1492
v -2.369281 0.664112 1.516584
v -0.659670 0.524006 2.544981
v -2.211677 1.327212 1.344921
v -0.502066 1.187105 2.373317
v -1.940190 1.852669 0.965187
v -0.230578 1.712562 1.993583
v -1.596151 2.160488 0.435192
v 0.113460 2.020381 1.463589
v -1.231938 2.203805 -0.164376
v 0.477673 2.063698 0.864021
v -0.902999 1.976026 -0.742238
v 0.806612 1.835919 0.286159
v -0.659412 1.511829 -1.210420
v 1.050200 1.371722 -0.182023
v -0.538260 0.881882 -1.497646
v 1.171351 0.741776 -0.469249
v -0.557988 0.182091 -1.560188
v 1.151623 0.041985 -0.531791
v -0.715592 -0.481008 -1.388525
v 0.994019 -0.621115 -0.360128
v -0.987080 -1.006466 -1.008790
v 0.722532 -1.146572 0.019606
v -1.331118 -1.314284 -0.478796
v 0.378493 -1.454391 0.549601
v -1.695331 -1.357601 0.120772
v 0.014280 -1.497708 1.149168
v -2.024270 -1.129822 0.698634
v -0.314659 -1.269929 1.727031
v -2.267858 -0.665625 1.166817
v -0.558247 -0.805731 2.195213
v -2.389009 -0.035678 1.454043
v -0.679398 -0.175785 2.482439
vn -0.4680 0.3241 0.8222
vn -0.3466 0.6604 0.6661
vn -0.1724 0.8963 0.4087
vn 0.0281 0.9956 0.0890
vn 0.2242 0.9434 -0.2442
vn 0.3863 0.7476 -0.5403
vn 0.4895 0.4380 -0.7541
vn 0.5182 0.0616 -0.8530
vn 0.4680 -0.3241 -0.8222
vn 0.3466 -0.6604 -0.6661
vn 0.1724 -0.8963 -0.4087
vn -0.0281 -0.9956 -0.0890
vn -0.2242 -0.9434 0.2442
vn -0.3863 -0.7476 0.5403
vn 0.8548 -0.0701 0.5142
vn -0.4895 -0.4380 0.7541
vn -0.5182 -0.0616 0.8530
vn -0.8548 0.0701 -0.5142
s off
f 2//1 3//1 1//1
f 4//2 5//2 3//2
f 6//3 7//3 5//3
f 8//4 9//4 7//4
f 10//5 11//5 9//5
f 12//6 13//6 11//6
f 14//7 15//7 13//7
f 16//8 17//8 15//8
f 18//9 19//9 17//9
f 20//10 21//10 19//10
f 22//11 23//11 21//11
f 24//12 25//12 23//12
f 26//13 27//13 25//13
f 28//14 29//14 27//14
f 22//15 14//15 6//15
f 30//16 31//16 29//16
f 32//17 1//17 31//17
f 15//18 23//18 31//18
f 2//1 4//1 3//1
f 4//2 6//2 5//2
f 6//3 8//3 7//3
f 8//4 10//4 9//4
f 10//5 12//5 11//5
f 12//6 14//6 13//6
f 14//7 16//7 15//7
f 16//8 18//8 17//8
f 18//9 20//9 19//9
f 20//10 22//10 21//10
f 22//11 24//11 23//11
f 24//12 26//12 25//12
f 26//13 28//13 27//13
f 28//14 30//14 29//14
f 6//15 4//15 30//15
f 4//15 2//15 30//15
f 2//15 32//15 30//15
f 30//15 28//15 26//15
f 26//15 24//15 22//15
f 22//15 20//15 18//15
f 18//15 16//15 14//15
f 14//15 12//15 10//15
f 10//15 8//15 6//15
f 30//15 26//15 6//15
f 26//15 22//15 6//15
f 22//15 18//15 14//15
f 14//15 10//15 6//15
f 30//16 32//16 31//16
f 32//17 2//17 1//17
f 31//18 1//18 7//18
f 1//18 3//18 7//18
f 3//18 5//18 7//18
f 7//18 9//18 11//18
f 11//18 13//18 15//18
f 15//18 17//18 23//18
f 17//18 19//18 23//18
f 19//18 21//18 23//18
f 23//18 25//18 27//18
f 27//18 29//18 31//18
f 7//18 11//18 15//18
f 23//18 27//18 31//18
f 31//18 7//18 15//18
