# Blender v2.83.0 OBJ File: ''
# www.blender.org
o Cylinder.233_Cylinder.1662
v 2.179825 1.935545 0.903578
v 1.443742 0.485679 2.068082
v 2.446673 1.582370 0.632532
v 1.710590 0.132504 1.797036
v 2.539322 1.234795 0.258347
v 1.803239 -0.215071 1.422851
v 2.443666 0.945735 -0.162011
v 1.707583 -0.504131 1.002493
v 2.174268 0.759197 -0.564547
v 1.438185 -0.690668 0.599957
v 1.772141 0.703580 -0.887977
v 1.036058 -0.746285 0.276527
v 1.298505 0.787351 -1.083063
v 0.562422 -0.662515 0.081441
v 0.825468 0.997757 -1.120105
v 0.089385 -0.452109 0.044399
v 0.425045 1.302764 -0.993463
v -0.311038 -0.147102 0.171041
v 0.158196 1.655939 -0.722418
v -0.577887 0.206073 0.442086
v 0.065547 2.003514 -0.348233
v -0.670536 0.553648 0.816271
v 0.161204 2.292574 0.072126
v -0.574880 0.842708 1.236630
v 0.430602 2.479112 0.474661
v -0.305481 1.029246 1.639166
v 0.832729 2.534729 0.798092
v 0.096646 1.084863 1.962596
v 1.306365 2.450958 0.993178
v 0.570282 1.001092 2.157682
v 1.779402 2.240553 1.030220
v 1.043319 0.790687 2.194724
vn 0.7747 0.1072 0.6231
vn 0.9125 -0.1614 0.3759
vn 0.9114 -0.4054 0.0714
vn 0.7715 -0.5876 -0.2440
vn 0.5141 -0.6804 -0.5222
vn 0.1785 -0.6696 -0.7209
vn -0.1843 -0.5569 -0.8099
vn -0.5190 -0.3594 -0.7755
vn -0.7747 -0.1072 -0.6231
vn -0.9125 0.1614 -0.3759
vn -0.9114 0.4054 -0.0714
vn -0.7715 0.5876 0.2440
vn -0.5141 0.6804 0.5222
vn -0.1785 0.6696 0.7209
vn -0.3680 -0.7249 0.5823
vn 0.1843 0.5569 0.8099
vn 0.5190 0.3594 0.7755
vn 0.3680 0.7249 -0.5823
s off
f 2//1 3//1 1//1
f 4//2 5//2 3//2
f 6//3 7//3 5//3
f 8//4 9//4 7//4
f 10//5 11//5 9//5
f 12//6 13//6 11//6
f 14//7 15//7 13//7
f 16//8 17//8 15//8
f 18//9 19//9 17//9
f 20//10 21//10 19//10
f 22//11 23//11 21//11
f 24//12 25//12 23//12
f 25//13 28//13 27//13
f 28//14 29//14 27//14
f 22//15 14//15 6//15
f 30//16 31//16 29//16
f 32//17 1//17 31//17
f 15//18 23//18 31//18
f 2//1 4//1 3//1
f 4//2 6//2 5//2
f 6//3 8//3 7//3
f 8//4 10//4 9//4
f 10//5 12//5 11//5
f 12//6 14//6 13//6
f 14//7 16//7 15//7
f 16//8 18//8 17//8
f 18//9 20//9 19//9
f 20//10 22//10 21//10
f 22//11 24//11 23//11
f 24//12 26//12 25//12
f 25//13 26//13 28//13
f 28//14 30//14 29//14
f 6//15 4//15 30//15
f 4//15 2//15 30//15
f 2//15 32//15 30//15
f 30//15 28//15 26//15
f 26//15 24//15 22//15
f 22//15 20//15 18//15
f 18//15 16//15 22//15
f 16//15 14//15 22//15
f 14//15 12//15 10//15
f 10//15 8//15 14//15
f 8//15 6//15 14//15
f 30//15 26//15 6//15
f 26//15 22//15 6//15
f 30//16 32//16 31//16
f 32//17 2//17 1//17
f 31//18 1//18 3//18
f 3//18 5//18 7//18
f 7//18 9//18 11//18
f 11//18 13//18 7//18
f 13//18 15//18 7//18
f 15//18 17//18 19//18
f 19//18 21//18 23//18
f 23//18 25//18 27//18
f 27//18 29//18 23//18
f 29//18 31//18 23//18
f 31//18 3//18 15//18
f 3//18 7//18 15//18
f 15//18 19//18 23//18
