# Blender v2.83.0 OBJ File: ''
# www.blender.org
o Cylinder.017_Cylinder.1446
v -0.623875 -0.508570 0.435772
v -0.240320 0.151494 -1.412795
v -0.265883 -1.066104 0.310973
v 0.117672 -0.406040 -1.537594
v 0.277824 -1.463734 0.281805
v 0.661379 -0.803669 -1.566762
v 0.924473 -1.640922 0.352708
v 1.308028 -0.980858 -1.495859
v 1.575617 -1.570695 0.512888
v 1.959171 -0.910631 -1.335679
v 2.132124 -1.263742 0.737960
v 2.515679 -0.603678 -1.110608
v 2.509273 -0.766796 0.993657
v 2.892827 -0.106732 -0.854910
v 2.649645 -0.155512 1.241052
v 3.033199 0.504552 -0.607515
v 2.531870 0.477048 1.442482
v 2.915425 1.137112 -0.406085
v 2.173878 1.034583 1.567281
v 2.557433 1.694647 -0.281286
v 1.630171 1.432212 1.596449
v 2.013726 2.092276 -0.252118
v 0.983522 1.609401 1.525546
v 1.367077 2.269465 -0.323021
v 0.332379 1.539173 1.365366
v 0.715933 2.199237 -0.483201
v -0.224129 1.232221 1.140294
v 0.159426 1.892285 -0.708273
v -0.601278 0.735274 0.884597
v -0.217723 1.395338 -0.963970
v -0.741650 0.123990 0.637202
v -0.358095 0.784054 -1.211365
vn -0.8254 -0.4553 -0.3338
vn -0.5594 -0.7371 -0.3792
vn -0.2082 -0.9066 -0.3669
vn 0.1747 -0.9382 -0.2988
vn 0.5310 -0.8269 -0.1851
vn 0.8064 -0.5898 -0.0433
vn 0.9591 -0.2628 0.1052
vn 0.9658 0.1042 0.2376
vn 0.8254 0.4553 0.3338
vn 0.5594 0.7371 0.3792
vn 0.2082 0.9066 0.3669
vn -0.1747 0.9382 0.2988
vn -0.5310 0.8269 0.1851
vn -0.8064 0.5898 0.0433
vn 0.1918 0.3300 -0.9243
vn -0.9591 0.2628 -0.1052
vn -0.9658 -0.1042 -0.2376
vn -0.1918 -0.3300 0.9243
s off
f 2//1 3//1 1//1
f 4//2 5//2 3//2
f 6//3 7//3 5//3
f 8//4 9//4 7//4
f 10//5 11//5 9//5
f 12//6 13//6 11//6
f 14//7 15//7 13//7
f 16//8 17//8 15//8
f 18//9 19//9 17//9
f 20//10 21//10 19//10
f 22//11 23//11 21//11
f 24//12 25//12 23//12
f 26//13 27//13 25//13
f 28//14 29//14 27//14
f 18//15 14//15 6//15
f 30//16 31//16 29//16
f 32//17 1//17 31//17
f 23//18 27//18 31//18
f 2//1 4//1 3//1
f 4//2 6//2 5//2
f 6//3 8//3 7//3
f 8//4 10//4 9//4
f 10//5 12//5 11//5
f 12//6 14//6 13//6
f 14//7 16//7 15//7
f 16//8 18//8 17//8
f 18//9 20//9 19//9
f 20//10 22//10 21//10
f 22//11 24//11 23//11
f 24//12 26//12 25//12
f 26//13 28//13 27//13
f 28//14 30//14 29//14
f 6//15 4//15 30//15
f 4//15 2//15 30//15
f 2//15 32//15 30//15
f 30//15 28//15 26//15
f 26//15 24//15 22//15
f 22//15 20//15 18//15
f 18//15 16//15 14//15
f 14//15 12//15 10//15
f 10//15 8//15 14//15
f 8//15 6//15 14//15
f 30//15 26//15 6//15
f 26//15 22//15 6//15
f 22//15 18//15 6//15
f 30//16 32//16 31//16
f 32//17 2//17 1//17
f 31//18 1//18 3//18
f 3//18 5//18 7//18
f 7//18 9//18 11//18
f 11//18 13//18 7//18
f 13//18 15//18 7//18
f 15//18 17//18 19//18
f 19//18 21//18 23//18
f 23//18 25//18 27//18
f 27//18 29//18 31//18
f 31//18 3//18 15//18
f 3//18 7//18 15//18
f 15//18 19//18 31//18
f 19//18 23//18 31//18
