# Blender v2.83.0 OBJ File: ''
# www.blender.org
o Cylinder.049_Cylinder.1478
v 0.857765 1.020504 1.348857
v -0.213786 -0.286663 0.279702
v 0.476555 1.419045 1.243658
v -0.594996 0.111878 0.174503
v 0.016521 1.730833 1.323527
v -1.055030 0.423666 0.254372
v -0.452303 1.908400 1.576304
v -1.523854 0.601233 0.507149
v -0.858542 1.924714 1.963507
v -1.930093 0.617547 0.894352
v -1.140349 1.777292 2.426188
v -2.211900 0.470125 1.357033
v -1.254823 1.488576 2.893907
v -2.326374 0.181409 1.824752
v -1.184535 1.102521 3.295459
v -2.256086 -0.204646 2.226304
v -0.940187 0.677902 3.569710
v -2.011738 -0.629266 2.500555
v -0.558978 0.279361 3.674910
v -1.630529 -1.027807 2.605754
v -0.098943 -0.032427 3.595041
v -1.170495 -1.339594 2.525886
v 0.369880 -0.209995 3.342263
v -0.701671 -1.517162 2.273108
v 0.776119 -0.226309 2.955060
v -0.295432 -1.533476 1.885905
v 1.057927 -0.078886 2.492379
v -0.013624 -1.386053 1.423224
v 1.172400 0.209830 2.024660
v 0.100849 -1.097337 0.955505
v 1.102113 0.595885 1.623108
v 0.030562 -0.711282 0.553953
vn 0.5019 0.2626 -0.8241
vn 0.2039 0.5142 -0.8331
vn -0.1252 0.6876 -0.7152
vn -0.4352 0.7563 -0.4885
vn -0.6790 0.7098 -0.1874
vn -0.8194 0.5553 0.1423
vn -0.8350 0.3163 0.4502
vn -0.7236 0.0291 0.6897
vn -0.5019 -0.2626 0.8241
vn -0.2039 -0.5142 0.8331
vn 0.1252 -0.6876 0.7152
vn 0.4352 -0.7563 0.4885
vn 0.6790 -0.7098 0.1874
vn 0.8194 -0.5553 -0.1423
vn -0.5358 -0.6536 -0.5346
vn 0.8350 -0.3163 -0.4502
vn 0.7236 -0.0291 -0.6897
vn 0.5358 0.6536 0.5346
s off
f 2//1 3//1 1//1
f 4//2 5//2 3//2
f 6//3 7//3 5//3
f 8//4 9//4 7//4
f 10//5 11//5 9//5
f 12//6 13//6 11//6
f 14//7 15//7 13//7
f 16//8 17//8 15//8
f 18//9 19//9 17//9
f 20//10 21//10 19//10
f 22//11 23//11 21//11
f 24//12 25//12 23//12
f 26//13 27//13 25//13
f 28//14 29//14 27//14
f 30//15 22//15 14//15
f 30//16 31//16 29//16
f 31//17 2//17 1//17
f 31//18 7//18 15//18
f 2//1 4//1 3//1
f 4//2 6//2 5//2
f 6//3 8//3 7//3
f 8//4 10//4 9//4
f 10//5 12//5 11//5
f 12//6 14//6 13//6
f 14//7 16//7 15//7
f 16//8 18//8 17//8
f 18//9 20//9 19//9
f 20//10 22//10 21//10
f 22//11 24//11 23//11
f 24//12 26//12 25//12
f 26//13 28//13 27//13
f 28//14 30//14 29//14
f 6//15 4//15 30//15
f 4//15 2//15 30//15
f 2//15 32//15 30//15
f 30//15 28//15 22//15
f 28//15 26//15 22//15
f 26//15 24//15 22//15
f 22//15 20//15 14//15
f 20//15 18//15 14//15
f 18//15 16//15 14//15
f 14//15 12//15 10//15
f 10//15 8//15 6//15
f 14//15 10//15 6//15
f 6//15 30//15 14//15
f 30//16 32//16 31//16
f 31//17 32//17 2//17
f 31//18 1//18 7//18
f 1//18 3//18 7//18
f 3//18 5//18 7//18
f 7//18 9//18 11//18
f 11//18 13//18 15//18
f 15//18 17//18 19//18
f 19//18 21//18 23//18
f 23//18 25//18 27//18
f 27//18 29//18 31//18
f 7//18 11//18 15//18
f 15//18 19//18 23//18
f 23//18 27//18 15//18
f 27//18 31//18 15//18
