# Blender v2.83.0 OBJ File: ''
# www.blender.org
o Cylinder.114_Cylinder.1543
v -0.005888 1.341123 -0.798470
v 0.831646 0.203520 0.617297
v 0.173426 1.775752 -0.555313
v 1.010960 0.638149 0.860454
v 0.509758 2.167689 -0.439348
v 1.347292 1.030086 0.976419
v 0.951904 2.457265 -0.468230
v 1.789438 1.319662 0.947537
v 1.432552 2.600394 -0.637561
v 2.270085 1.462791 0.778205
v 1.878527 2.575287 -0.921564
v 2.716060 1.437684 0.494203
v 2.221933 2.385766 -1.277000
v 3.059467 1.248162 0.138767
v 2.410491 2.060683 -1.649758
v 3.248024 0.923080 -0.233991
v 2.415493 1.649530 -1.983089
v 3.253027 0.511927 -0.567322
v 2.236180 1.214901 -2.226246
v 3.073714 0.077298 -0.810479
v 1.899848 0.822964 -2.342211
v 2.737382 -0.314639 -0.926445
v 1.457702 0.533388 -2.313329
v 2.295236 -0.604215 -0.897563
v 0.977054 0.390259 -2.143998
v 1.814588 -0.747344 -0.728231
v 0.531079 0.415366 -1.859995
v 1.368613 -0.722237 -0.444228
v 0.187672 0.604888 -1.504559
v 1.025206 -0.532715 -0.088792
v -0.000885 0.929971 -1.131801
v 0.836649 -0.207632 0.283966
vn -0.8425 0.0474 0.5365
vn -0.6488 0.3580 0.6715
vn -0.3562 0.6141 0.7042
vn -0.0095 0.7768 0.6297
vn 0.3388 0.8211 0.4594
vn 0.6354 0.7405 0.2191
vn 0.8353 0.5471 -0.0546
vn 0.9080 0.2704 -0.3199
vn 0.8425 -0.0474 -0.5365
vn 0.6488 -0.3580 -0.6715
vn 0.3562 -0.6141 -0.7042
vn 0.0095 -0.7768 -0.6297
vn -0.3388 -0.8211 -0.4594
vn -0.6354 -0.7405 -0.2191
vn 0.4188 -0.5688 0.7079
vn -0.8353 -0.5471 0.0546
vn -0.9080 -0.2704 0.3199
vn -0.4188 0.5688 -0.7079
s off
f 2//1 3//1 1//1
f 4//2 5//2 3//2
f 6//3 7//3 5//3
f 8//4 9//4 7//4
f 10//5 11//5 9//5
f 12//6 13//6 11//6
f 14//7 15//7 13//7
f 16//8 17//8 15//8
f 18//9 19//9 17//9
f 20//10 21//10 19//10
f 21//11 24//11 23//11
f 24//12 25//12 23//12
f 26//13 27//13 25//13
f 28//14 29//14 27//14
f 6//15 30//15 22//15
f 30//16 31//16 29//16
f 32//17 1//17 31//17
f 15//18 23//18 31//18
f 2//1 4//1 3//1
f 4//2 6//2 5//2
f 6//3 8//3 7//3
f 8//4 10//4 9//4
f 10//5 12//5 11//5
f 12//6 14//6 13//6
f 14//7 16//7 15//7
f 16//8 18//8 17//8
f 18//9 20//9 19//9
f 20//10 22//10 21//10
f 21//11 22//11 24//11
f 24//12 26//12 25//12
f 26//13 28//13 27//13
f 28//14 30//14 29//14
f 6//15 4//15 2//15
f 2//15 32//15 6//15
f 32//15 30//15 6//15
f 30//15 28//15 26//15
f 26//15 24//15 22//15
f 22//15 20//15 18//15
f 18//15 16//15 14//15
f 14//15 12//15 10//15
f 10//15 8//15 6//15
f 30//15 26//15 22//15
f 22//15 18//15 6//15
f 18//15 14//15 6//15
f 14//15 10//15 6//15
f 30//16 32//16 31//16
f 32//17 2//17 1//17
f 31//18 1//18 3//18
f 3//18 5//18 7//18
f 7//18 9//18 11//18
f 11//18 13//18 15//18
f 15//18 17//18 23//18
f 17//18 19//18 23//18
f 19//18 21//18 23//18
f 23//18 25//18 27//18
f 27//18 29//18 31//18
f 31//18 3//18 7//18
f 7//18 11//18 31//18
f 11//18 15//18 31//18
f 23//18 27//18 31//18
