# Blender v2.83.0 OBJ File: ''
# www.blender.org
o Cylinder.052_Cylinder.1481
v -0.123097 -1.660217 2.418531
v 1.192721 -1.139582 1.005180
v -0.363166 -1.436105 2.277585
v 0.952652 -0.915470 0.864233
v -0.631528 -1.329462 2.067027
v 0.684290 -0.808827 0.653675
v -0.887325 -1.356522 1.818913
v 0.428493 -0.835888 0.405561
v -1.091617 -1.513167 1.571016
v 0.224201 -0.992532 0.157665
v -1.213300 -1.775548 1.361077
v 0.102518 -1.254914 -0.052274
v -1.233850 -2.103721 1.221057
v 0.081968 -1.583086 -0.192295
v -1.150139 -2.447723 1.172271
v 0.165679 -1.927088 -0.241080
v -0.974910 -2.755184 1.222149
v 0.340908 -2.234549 -0.191203
v -0.734841 -2.979295 1.363095
v 0.580977 -2.458661 -0.050256
v -0.466480 -3.085939 1.573653
v 0.849338 -2.565304 0.160302
v -0.210682 -3.058878 1.821767
v 1.105136 -2.538244 0.408416
v -0.006391 -2.902233 2.069664
v 1.309427 -2.381599 0.656312
v 0.115293 -2.639852 2.279603
v 1.431111 -2.119217 0.866251
v 0.135843 -2.311680 2.419624
v 1.451661 -1.791045 1.006272
v 0.052132 -1.967677 2.468409
v 1.367950 -1.447042 1.055057
vn 0.3405 0.7342 0.5874
vn 0.0575 0.9183 0.3918
vn -0.2342 0.9625 0.1365
vn -0.4903 0.8603 -0.1396
vn -0.6717 0.6271 -0.3944
vn -0.7509 0.2984 -0.5892
vn -0.7157 -0.0757 -0.6942
vn -0.5716 -0.4383 -0.6936
vn -0.3405 -0.7342 -0.5874
vn -0.0575 -0.9183 -0.3918
vn 0.2342 -0.9625 -0.1365
vn 0.4903 -0.8603 0.1396
vn 0.6717 -0.6271 0.3944
vn 0.7509 -0.2984 0.5892
vn 0.6579 0.2603 -0.7067
vn 0.7157 0.0757 0.6942
vn 0.5716 0.4383 0.6936
vn -0.6579 -0.2603 0.7067
s off
f 2//1 3//1 1//1
f 4//2 5//2 3//2
f 6//3 7//3 5//3
f 8//4 9//4 7//4
f 10//5 11//5 9//5
f 12//6 13//6 11//6
f 14//7 15//7 13//7
f 16//8 17//8 15//8
f 17//9 20//9 19//9
f 20//10 21//10 19//10
f 22//11 23//11 21//11
f 24//12 25//12 23//12
f 26//13 27//13 25//13
f 28//14 29//14 27//14
f 30//15 22//15 14//15
f 30//16 31//16 29//16
f 32//17 1//17 31//17
f 7//18 15//18 23//18
f 2//1 4//1 3//1
f 4//2 6//2 5//2
f 6//3 8//3 7//3
f 8//4 10//4 9//4
f 10//5 12//5 11//5
f 12//6 14//6 13//6
f 14//7 16//7 15//7
f 16//8 18//8 17//8
f 17//9 18//9 20//9
f 20//10 22//10 21//10
f 22//11 24//11 23//11
f 24//12 26//12 25//12
f 26//13 28//13 27//13
f 28//14 30//14 29//14
f 6//15 4//15 30//15
f 4//15 2//15 30//15
f 2//15 32//15 30//15
f 30//15 28//15 22//15
f 28//15 26//15 22//15
f 26//15 24//15 22//15
f 22//15 20//15 18//15
f 18//15 16//15 14//15
f 14//15 12//15 6//15
f 12//15 10//15 6//15
f 10//15 8//15 6//15
f 22//15 18//15 14//15
f 6//15 30//15 14//15
f 30//16 32//16 31//16
f 32//17 2//17 1//17
f 31//18 1//18 3//18
f 3//18 5//18 7//18
f 7//18 9//18 11//18
f 11//18 13//18 15//18
f 15//18 17//18 19//18
f 19//18 21//18 23//18
f 23//18 25//18 27//18
f 27//18 29//18 23//18
f 29//18 31//18 23//18
f 31//18 3//18 7//18
f 7//18 11//18 15//18
f 15//18 19//18 23//18
f 31//18 7//18 23//18
