# Blender v2.83.0 OBJ File: ''
# www.blender.org
o Cylinder.243_Cylinder.1672
v -0.142825 -2.192280 2.679476
v -1.665975 -0.914943 2.899536
v -0.431259 -2.518339 2.575681
v -1.954409 -1.241002 2.795741
v -0.686098 -2.777183 2.314263
v -2.209248 -1.499846 2.534323
v -0.868545 -2.929405 1.935023
v -2.391695 -1.652068 2.155083
v -0.950825 -2.951830 1.495694
v -2.473975 -1.674494 1.715754
v -0.920410 -2.841046 1.063162
v -2.443560 -1.563709 1.283222
v -0.781932 -2.613917 0.703276
v -2.305082 -1.336581 0.923336
v -0.556472 -2.305022 0.470824
v -2.079622 -1.027686 0.690884
v -0.278355 -1.961388 0.401196
v -1.801504 -0.684052 0.621256
v 0.010079 -1.635329 0.504991
v -1.513070 -0.357993 0.725051
v 0.264918 -1.376485 0.766408
v -1.258231 -0.099149 0.986468
v 0.447366 -1.224263 1.145649
v -1.075784 0.053074 1.365709
v 0.529645 -1.201837 1.584978
v -0.993504 0.075499 1.805037
v 0.499231 -1.312622 2.017509
v -1.023919 -0.035285 2.237570
v 0.360752 -1.539751 2.377396
v -1.162397 -0.262414 2.597456
v 0.135292 -1.848646 2.609848
v -1.387858 -0.571309 2.829908
vn -0.0680 -0.2475 0.9665
vn -0.3094 -0.5075 0.8042
vn -0.5038 -0.6902 0.5194
vn -0.6215 -0.7678 0.1556
vn -0.6445 -0.7286 -0.2319
vn -0.5694 -0.5784 -0.5841
vn -0.4077 -0.3401 -0.8474
vn -0.1839 -0.0501 -0.9817
vn 0.0680 0.2475 -0.9665
vn 0.3094 0.5075 -0.8042
vn 0.5038 0.6902 -0.5194
vn 0.6215 0.7678 -0.1556
vn 0.6445 0.7286 0.2319
vn 0.5694 0.5784 0.5841
vn -0.7616 0.6387 0.1100
vn 0.4077 0.3401 0.8474
vn 0.1839 0.0501 0.9817
vn 0.7616 -0.6387 -0.1100
s off
f 2//1 3//1 1//1
f 4//2 5//2 3//2
f 6//3 7//3 5//3
f 8//4 9//4 7//4
f 10//5 11//5 9//5
f 12//6 13//6 11//6
f 14//7 15//7 13//7
f 16//8 17//8 15//8
f 18//9 19//9 17//9
f 20//10 21//10 19//10
f 22//11 23//11 21//11
f 24//12 25//12 23//12
f 26//13 27//13 25//13
f 28//14 29//14 27//14
f 22//15 14//15 6//15
f 30//16 31//16 29//16
f 32//17 1//17 31//17
f 7//18 15//18 23//18
f 2//1 4//1 3//1
f 4//2 6//2 5//2
f 6//3 8//3 7//3
f 8//4 10//4 9//4
f 10//5 12//5 11//5
f 12//6 14//6 13//6
f 14//7 16//7 15//7
f 16//8 18//8 17//8
f 18//9 20//9 19//9
f 20//10 22//10 21//10
f 22//11 24//11 23//11
f 24//12 26//12 25//12
f 26//13 28//13 27//13
f 28//14 30//14 29//14
f 6//15 4//15 30//15
f 4//15 2//15 30//15
f 2//15 32//15 30//15
f 30//15 28//15 26//15
f 26//15 24//15 22//15
f 22//15 20//15 14//15
f 20//15 18//15 14//15
f 18//15 16//15 14//15
f 14//15 12//15 10//15
f 10//15 8//15 14//15
f 8//15 6//15 14//15
f 30//15 26//15 22//15
f 6//15 30//15 22//15
f 30//16 32//16 31//16
f 32//17 2//17 1//17
f 31//18 1//18 3//18
f 3//18 5//18 7//18
f 7//18 9//18 11//18
f 11//18 13//18 15//18
f 15//18 17//18 23//18
f 17//18 19//18 23//18
f 19//18 21//18 23//18
f 23//18 25//18 27//18
f 27//18 29//18 31//18
f 31//18 3//18 7//18
f 7//18 11//18 15//18
f 23//18 27//18 31//18
f 31//18 7//18 23//18
