# Blender v2.83.0 OBJ File: ''
# www.blender.org
o Cylinder.323_Cylinder.1752
v 0.139754 1.937765 0.583368
v 1.639847 1.325097 1.755699
v 0.203406 2.267904 0.674453
v 1.703499 1.655236 1.846784
v 0.346946 2.584778 0.656383
v 1.847038 1.972111 1.828714
v 0.548521 2.840147 0.531909
v 2.048614 2.227480 1.704240
v 0.777443 2.995133 0.319980
v 2.277536 2.382466 1.492312
v 0.998862 3.026141 0.052862
v 2.498954 2.413474 1.225194
v 1.179067 2.928450 -0.228779
v 2.679160 2.315782 0.943552
v 1.290625 2.716932 -0.482067
v 2.790718 2.104264 0.690264
v 1.316552 2.423790 -0.668441
v 2.816645 1.811122 0.503890
v 1.252900 2.093651 -0.759526
v 2.752993 1.480983 0.412805
v 1.109360 1.776776 -0.741456
v 2.609453 1.164109 0.430875
v 0.907785 1.521407 -0.616982
v 2.407878 0.908739 0.555349
v 0.678863 1.366421 -0.405054
v 2.178956 0.753753 0.767278
v 0.457444 1.335413 -0.137935
v 1.957537 0.722745 1.034396
v 0.277239 1.433105 0.143706
v 1.777332 0.820437 1.316038
v 0.165681 1.644623 0.396994
v 1.665774 1.031955 1.569326
vn -0.6356 -0.0890 0.7668
vn -0.5173 0.2804 0.8085
vn -0.3203 0.6072 0.7271
vn -0.0744 0.8415 0.5350
vn 0.1827 0.9478 0.2615
vn 0.4121 0.9097 -0.0519
vn 0.5787 0.7331 -0.3573
vn 0.6572 0.4449 -0.6084
vn 0.6356 0.0890 -0.7668
vn 0.5173 -0.2804 -0.8085
vn 0.3203 -0.6072 -0.7271
vn 0.0744 -0.8415 -0.5350
vn -0.1827 -0.9478 -0.2615
vn -0.4121 -0.9097 0.0519
vn 0.7500 -0.3063 0.5862
vn -0.5787 -0.7331 0.3573
vn -0.6572 -0.4449 0.6084
vn -0.7500 0.3063 -0.5862
s off
f 2//1 3//1 1//1
f 4//2 5//2 3//2
f 6//3 7//3 5//3
f 8//4 9//4 7//4
f 10//5 11//5 9//5
f 12//6 13//6 11//6
f 14//7 15//7 13//7
f 16//8 17//8 15//8
f 18//9 19//9 17//9
f 20//10 21//10 19//10
f 22//11 23//11 21//11
f 24//12 25//12 23//12
f 26//13 27//13 25//13
f 28//14 29//14 27//14
f 30//15 22//15 14//15
f 30//16 31//16 29//16
f 32//17 1//17 31//17
f 15//18 23//18 31//18
f 2//1 4//1 3//1
f 4//2 6//2 5//2
f 6//3 8//3 7//3
f 8//4 10//4 9//4
f 10//5 12//5 11//5
f 12//6 14//6 13//6
f 14//7 16//7 15//7
f 16//8 18//8 17//8
f 18//9 20//9 19//9
f 20//10 22//10 21//10
f 22//11 24//11 23//11
f 24//12 26//12 25//12
f 26//13 28//13 27//13
f 28//14 30//14 29//14
f 6//15 4//15 2//15
f 2//15 32//15 30//15
f 30//15 28//15 22//15
f 28//15 26//15 22//15
f 26//15 24//15 22//15
f 22//15 20//15 14//15
f 20//15 18//15 14//15
f 18//15 16//15 14//15
f 14//15 12//15 10//15
f 10//15 8//15 14//15
f 8//15 6//15 14//15
f 6//15 2//15 30//15
f 6//15 30//15 14//15
f 30//16 32//16 31//16
f 32//17 2//17 1//17
f 31//18 1//18 3//18
f 3//18 5//18 7//18
f 7//18 9//18 11//18
f 11//18 13//18 15//18
f 15//18 17//18 19//18
f 19//18 21//18 23//18
f 23//18 25//18 27//18
f 27//18 29//18 31//18
f 31//18 3//18 7//18
f 7//18 11//18 15//18
f 15//18 19//18 23//18
f 23//18 27//18 31//18
f 31//18 7//18 15//18
