# Blender v2.83.0 OBJ File: ''
# www.blender.org
o Cylinder.098_Cylinder.1527
v -0.842390 -2.463480 0.970297
v -2.658226 -1.684210 0.661298
v -0.678159 -2.333061 0.334091
v -2.493994 -1.553792 0.025092
v -0.439277 -1.981815 -0.183884
v -2.255113 -1.202546 -0.492884
v -0.162113 -1.463213 -0.504774
v -1.977948 -0.683944 -0.813773
v 0.111139 -0.856208 -0.579725
v -1.704697 -0.076939 -0.888724
v 0.338877 -0.253212 -0.397325
v -1.476959 0.526057 -0.706325
v 0.486430 0.253974 0.014654
v -1.329405 1.033243 -0.294345
v 0.531336 0.588138 0.593495
v -1.284499 1.367407 0.284496
v 0.466758 0.698404 1.251073
v -1.349078 1.477673 0.942074
v 0.302526 0.567986 1.887278
v -1.513309 1.347255 1.578279
v 0.063645 0.216739 2.405255
v -1.752191 0.996008 2.096255
v -0.213520 -0.301863 2.726144
v -2.029356 0.477406 2.417145
v -0.486771 -0.908867 2.801095
v -2.302607 -0.129598 2.492096
v -0.714509 -1.511864 2.618696
v -2.530345 -0.732595 2.309696
v -0.862063 -2.019051 2.206715
v -2.677899 -1.239781 1.897716
v -0.906969 -2.353214 1.627874
v -2.722805 -1.573945 1.318875
vn -0.3400 -0.9002 -0.2723
vn -0.2203 -0.7571 -0.6150
vn -0.0670 -0.4988 -0.8641
vn 0.0964 -0.1646 -0.9816
vn 0.2452 0.1947 -0.9497
vn 0.3566 0.5243 -0.7732
vn 0.4138 0.7742 -0.4790
vn 0.4079 0.9061 -0.1119
vn 0.3400 0.9002 0.2723
vn 0.2203 0.7571 0.6150
vn 0.0670 0.4988 0.8641
vn -0.0964 0.1646 0.9816
vn -0.2452 -0.1947 0.9497
vn -0.3566 -0.5243 0.7732
vn -0.9079 0.3896 -0.1545
vn -0.4138 -0.7742 0.4790
vn -0.4079 -0.9061 0.1119
vn 0.9079 -0.3896 0.1545
s off
f 2//1 3//1 1//1
f 4//2 5//2 3//2
f 6//3 7//3 5//3
f 8//4 9//4 7//4
f 10//5 11//5 9//5
f 12//6 13//6 11//6
f 14//7 15//7 13//7
f 16//8 17//8 15//8
f 18//9 19//9 17//9
f 20//10 21//10 19//10
f 22//11 23//11 21//11
f 24//12 25//12 23//12
f 26//13 27//13 25//13
f 28//14 29//14 27//14
f 30//15 22//15 14//15
f 30//16 31//16 29//16
f 32//17 1//17 31//17
f 31//18 7//18 15//18
f 2//1 4//1 3//1
f 4//2 6//2 5//2
f 6//3 8//3 7//3
f 8//4 10//4 9//4
f 10//5 12//5 11//5
f 12//6 14//6 13//6
f 14//7 16//7 15//7
f 16//8 18//8 17//8
f 18//9 20//9 19//9
f 20//10 22//10 21//10
f 22//11 24//11 23//11
f 24//12 26//12 25//12
f 26//13 28//13 27//13
f 28//14 30//14 29//14
f 6//15 4//15 30//15
f 4//15 2//15 30//15
f 2//15 32//15 30//15
f 30//15 28//15 22//15
f 28//15 26//15 22//15
f 26//15 24//15 22//15
f 22//15 20//15 18//15
f 18//15 16//15 14//15
f 14//15 12//15 10//15
f 10//15 8//15 6//15
f 22//15 18//15 14//15
f 14//15 10//15 6//15
f 6//15 30//15 14//15
f 30//16 32//16 31//16
f 32//17 2//17 1//17
f 31//18 1//18 3//18
f 3//18 5//18 7//18
f 7//18 9//18 11//18
f 11//18 13//18 7//18
f 13//18 15//18 7//18
f 15//18 17//18 23//18
f 17//18 19//18 23//18
f 19//18 21//18 23//18
f 23//18 25//18 27//18
f 27//18 29//18 31//18
f 31//18 3//18 7//18
f 23//18 27//18 15//18
f 27//18 31//18 15//18
