# Blender v2.83.0 OBJ File: ''
# www.blender.org
o Cylinder_Cylinder.1429
v 0.199260 0.793218 -3.070900
v 0.708664 0.762559 -1.137104
v 0.697423 0.335770 -3.209380
v 1.206827 0.305111 -1.275584
v 0.987590 -0.284683 -3.295653
v 1.496994 -0.315342 -1.361857
v 1.025586 -0.973683 -3.316586
v 1.534990 -1.004342 -1.382790
v 0.805626 -1.626335 -3.268991
v 1.315031 -1.656994 -1.335195
v 0.361198 -2.143279 -3.160114
v 0.870602 -2.173938 -1.226318
v -0.240040 -2.445815 -3.006532
v 0.269364 -2.476474 -1.072736
v -0.906553 -2.487885 -2.831625
v -0.397149 -2.518544 -0.897829
v -1.536871 -2.263083 -2.662021
v -1.027467 -2.293743 -0.728225
v -2.035034 -1.805635 -2.523541
v -1.525630 -1.836294 -0.589745
v -2.325202 -1.185182 -2.437268
v -1.815798 -1.215842 -0.503472
v -2.363198 -0.496183 -2.416335
v -1.853794 -0.526842 -0.482539
v -2.143238 0.156470 -2.463930
v -1.633834 0.125811 -0.530134
v -1.698809 0.673414 -2.572807
v -1.189405 0.642755 -0.639011
v -1.097571 0.975950 -2.726389
v -0.588167 0.945291 -0.792593
v -0.431058 1.018020 -2.901297
v 0.078346 0.987360 -0.967501
vn 0.6438 0.7488 -0.1577
vn 0.8709 0.4382 -0.2225
vn 0.9655 0.0609 -0.2534
vn 0.9130 -0.3256 -0.2457
vn 0.7216 -0.6626 -0.2006
vn 0.4203 -0.8987 -0.1250
vn 0.0550 -0.9980 -0.0303
vn -0.3186 -0.9454 0.0689
vn -0.6438 -0.7488 0.1577
vn -0.8709 -0.4382 0.2225
vn -0.9655 -0.0609 0.2534
vn -0.9130 0.3256 0.2457
vn -0.7216 0.6626 0.2006
vn -0.4203 0.8987 0.1250
vn 0.2547 -0.0153 0.9669
vn -0.0550 0.9980 0.0303
vn 0.3186 0.9454 -0.0689
vn -0.2547 0.0153 -0.9669
s off
f 2//1 3//1 1//1
f 4//2 5//2 3//2
f 6//3 7//3 5//3
f 8//4 9//4 7//4
f 10//5 11//5 9//5
f 12//6 13//6 11//6
f 14//7 15//7 13//7
f 16//8 17//8 15//8
f 18//9 19//9 17//9
f 20//10 21//10 19//10
f 22//11 23//11 21//11
f 24//12 25//12 23//12
f 26//13 27//13 25//13
f 28//14 29//14 27//14
f 22//15 14//15 6//15
f 30//16 31//16 29//16
f 32//17 1//17 31//17
f 31//18 7//18 15//18
f 2//1 4//1 3//1
f 4//2 6//2 5//2
f 6//3 8//3 7//3
f 8//4 10//4 9//4
f 10//5 12//5 11//5
f 12//6 14//6 13//6
f 14//7 16//7 15//7
f 16//8 18//8 17//8
f 18//9 20//9 19//9
f 20//10 22//10 21//10
f 22//11 24//11 23//11
f 24//12 26//12 25//12
f 26//13 28//13 27//13
f 28//14 30//14 29//14
f 6//15 4//15 2//15
f 2//15 32//15 30//15
f 30//15 28//15 22//15
f 28//15 26//15 22//15
f 26//15 24//15 22//15
f 22//15 20//15 18//15
f 18//15 16//15 14//15
f 14//15 12//15 10//15
f 10//15 8//15 6//15
f 6//15 2//15 30//15
f 22//15 18//15 14//15
f 14//15 10//15 6//15
f 6//15 30//15 22//15
f 30//16 32//16 31//16
f 32//17 2//17 1//17
f 31//18 1//18 3//18
f 3//18 5//18 7//18
f 7//18 9//18 11//18
f 11//18 13//18 15//18
f 15//18 17//18 19//18
f 19//18 21//18 15//18
f 21//18 23//18 15//18
f 23//18 25//18 27//18
f 27//18 29//18 31//18
f 31//18 3//18 7//18
f 7//18 11//18 15//18
f 23//18 27//18 15//18
f 27//18 31//18 15//18
