# Blender v2.83.0 OBJ File: ''
# www.blender.org
o Cylinder.213_Cylinder.1642
v 0.744782 1.284075 -1.191570
v -0.206546 2.526935 0.053530
v 0.957044 1.586677 -1.331446
v 0.005716 2.829536 -0.086346
v 1.258505 1.841136 -1.355115
v 0.307176 3.083995 -0.110015
v 1.603268 2.008714 -1.258972
v 0.651940 3.251574 -0.013872
v 1.938848 2.063899 -1.057655
v 0.987520 3.306758 0.187445
v 2.214156 1.998289 -0.781813
v 1.262828 3.241149 0.463287
v 2.387278 1.821873 -0.473439
v 1.435950 3.064733 0.771661
v 2.431858 1.561509 -0.179482
v 1.480529 2.804368 1.065618
v 2.341109 1.256834 0.055307
v 1.389781 2.499694 1.300407
v 2.128847 0.954233 0.195183
v 1.177519 2.197093 1.440283
v 1.827387 0.699774 0.218852
v 0.876059 1.942634 1.463952
v 1.482623 0.532196 0.122709
v 0.531295 1.775055 1.367809
v 1.147043 0.477011 -0.078608
v 0.195714 1.719871 1.166492
v 0.871735 0.542621 -0.354451
v -0.079593 1.785480 0.890649
v 0.698613 0.719037 -0.662824
v -0.252715 1.961896 0.582276
v 0.654033 0.979401 -0.956782
v -0.297295 2.222261 0.288318
vn -0.6966 0.1660 -0.6980
vn -0.4381 0.4464 -0.7803
vn -0.1128 0.6588 -0.7438
vn 0.2296 0.7709 -0.5941
vn 0.5371 0.7657 -0.3539
vn 0.7628 0.6439 -0.0599
vn 0.8724 0.4240 0.2433
vn 0.8491 0.1396 0.5094
vn 0.6966 -0.1660 0.6980
vn 0.4381 -0.4464 0.7803
vn 0.1128 -0.6588 0.7438
vn -0.2296 -0.7709 0.5941
vn -0.5371 -0.7657 0.3539
vn -0.7628 -0.6439 0.0599
vn -0.4757 0.6214 0.6226
vn -0.8724 -0.4240 -0.2433
vn -0.8491 -0.1396 -0.5094
vn 0.4757 -0.6214 -0.6226
vn -0.4757 0.6214 0.6225
vn 0.4757 -0.6214 -0.6225
s off
f 2//1 3//1 1//1
f 4//2 5//2 3//2
f 6//3 7//3 5//3
f 8//4 9//4 7//4
f 10//5 11//5 9//5
f 12//6 13//6 11//6
f 14//7 15//7 13//7
f 16//8 17//8 15//8
f 18//9 19//9 17//9
f 20//10 21//10 19//10
f 22//11 23//11 21//11
f 24//12 25//12 23//12
f 26//13 27//13 25//13
f 28//14 29//14 27//14
f 14//15 10//15 6//15
f 30//16 31//16 29//16
f 32//17 1//17 31//17
f 31//18 7//18 15//18
f 2//1 4//1 3//1
f 4//2 6//2 5//2
f 6//3 8//3 7//3
f 8//4 10//4 9//4
f 10//5 12//5 11//5
f 12//6 14//6 13//6
f 14//7 16//7 15//7
f 16//8 18//8 17//8
f 18//9 20//9 19//9
f 20//10 22//10 21//10
f 22//11 24//11 23//11
f 24//12 26//12 25//12
f 26//13 28//13 27//13
f 28//14 30//14 29//14
f 6//19 4//19 30//19
f 4//15 2//15 30//15
f 2//15 32//15 30//15
f 30//15 28//15 26//15
f 26//15 24//15 22//15
f 22//15 20//15 18//15
f 18//15 16//15 14//15
f 14//19 12//19 10//19
f 10//15 8//15 6//15
f 30//15 26//15 6//15
f 26//15 22//15 6//15
f 22//15 18//15 6//15
f 18//15 14//15 6//15
f 30//16 32//16 31//16
f 32//17 2//17 1//17
f 31//18 1//18 3//18
f 3//20 5//20 7//20
f 7//18 9//18 11//18
f 11//20 13//20 15//20
f 15//18 17//18 19//18
f 19//20 21//20 23//20
f 23//20 25//20 27//20
f 27//18 29//18 31//18
f 31//20 3//20 7//20
f 7//18 11//18 15//18
f 15//18 19//18 31//18
f 19//18 23//18 31//18
f 23//18 27//18 31//18
