# Blender v2.83.0 OBJ File: ''
# www.blender.org
o Cylinder.097_Cylinder.1526
v 1.094974 0.111676 -1.404469
v -0.611916 -0.927212 -1.489537
v 1.085096 0.180061 -2.041405
v -0.621794 -0.858828 -2.126474
v 0.948246 0.451102 -2.605560
v -0.758645 -0.587787 -2.690629
v 0.705256 0.883536 -3.011046
v -1.001634 -0.155352 -3.096115
v 0.393120 1.411530 -3.196131
v -1.313770 0.372641 -3.281200
v 0.059358 1.954700 -3.132638
v -1.647532 0.915812 -3.217707
v -0.245217 2.430355 -2.830233
v -1.952107 1.391466 -2.915302
v -0.474238 2.766079 -2.334955
v -2.181128 1.727190 -2.420023
v -0.592837 2.910763 -1.722204
v -2.299727 1.871874 -1.807273
v -0.582959 2.842378 -1.085268
v -2.289850 1.803490 -1.170336
v -0.446109 2.571338 -0.521113
v -2.152999 1.532449 -0.606182
v -0.203119 2.138903 -0.115627
v -1.910009 1.100015 -0.200695
v 0.109017 1.610909 0.069459
v -1.597873 0.572021 -0.015610
v 0.442779 1.067739 0.005965
v -1.264111 0.028850 -0.079103
v 0.747355 0.592084 -0.296440
v -0.959536 -0.446804 -0.381509
v 0.976375 0.256359 -0.791719
v -0.730515 -0.782529 -0.876787
vn 0.5210 -0.8478 -0.0991
vn 0.4754 -0.7424 -0.4720
vn 0.3575 -0.5240 -0.7731
vn 0.1851 -0.2258 -0.9564
vn -0.0154 0.1067 -0.9942
vn -0.2136 0.4231 -0.8806
vn -0.3793 0.6750 -0.6329
vn -0.4872 0.8241 -0.2889
vn -0.5210 0.8478 0.0991
vn -0.4754 0.7424 0.4720
vn -0.3575 0.5240 0.7731
vn -0.1851 0.2258 0.9564
vn 0.0154 -0.1067 0.9942
vn 0.2136 -0.4231 0.8806
vn -0.8534 -0.5194 -0.0425
vn 0.3793 -0.6750 0.6329
vn 0.4872 -0.8241 0.2889
vn 0.8534 0.5194 0.0425
s off
f 2//1 3//1 1//1
f 4//2 5//2 3//2
f 6//3 7//3 5//3
f 8//4 9//4 7//4
f 10//5 11//5 9//5
f 12//6 13//6 11//6
f 14//7 15//7 13//7
f 16//8 17//8 15//8
f 18//9 19//9 17//9
f 20//10 21//10 19//10
f 22//11 23//11 21//11
f 24//12 25//12 23//12
f 26//13 27//13 25//13
f 28//14 29//14 27//14
f 18//15 14//15 6//15
f 30//16 31//16 29//16
f 32//17 1//17 31//17
f 27//18 31//18 15//18
f 2//1 4//1 3//1
f 4//2 6//2 5//2
f 6//3 8//3 7//3
f 8//4 10//4 9//4
f 10//5 12//5 11//5
f 12//6 14//6 13//6
f 14//7 16//7 15//7
f 16//8 18//8 17//8
f 18//9 20//9 19//9
f 20//10 22//10 21//10
f 22//11 24//11 23//11
f 24//12 26//12 25//12
f 26//13 28//13 27//13
f 28//14 30//14 29//14
f 6//15 4//15 30//15
f 4//15 2//15 30//15
f 2//15 32//15 30//15
f 30//15 28//15 26//15
f 26//15 24//15 22//15
f 22//15 20//15 18//15
f 18//15 16//15 14//15
f 14//15 12//15 10//15
f 10//15 8//15 14//15
f 8//15 6//15 14//15
f 30//15 26//15 6//15
f 26//15 22//15 6//15
f 22//15 18//15 6//15
f 30//16 32//16 31//16
f 32//17 2//17 1//17
f 31//18 1//18 3//18
f 3//18 5//18 7//18
f 7//18 9//18 11//18
f 11//18 13//18 7//18
f 13//18 15//18 7//18
f 15//18 17//18 19//18
f 19//18 21//18 23//18
f 23//18 25//18 27//18
f 27//18 29//18 31//18
f 31//18 3//18 15//18
f 3//18 7//18 15//18
f 15//18 19//18 23//18
f 23//18 27//18 15//18
