# Blender v2.83.0 OBJ File: ''
# www.blender.org
o Cylinder.159_Cylinder.1588
v 2.324054 1.650746 -1.965345
v 2.344626 0.921815 -0.103025
v 2.184076 1.171560 -2.151358
v 2.204647 0.442629 -0.289037
v 1.858056 0.777998 -2.301800
v 1.878627 0.049067 -0.439480
v 1.395627 0.529976 -2.393771
v 1.416199 -0.198956 -0.531451
v 0.867191 0.465252 -2.413267
v 0.887763 -0.263679 -0.550947
v 0.353198 0.593682 -2.357321
v 0.373769 -0.135250 -0.495001
v -0.068103 0.895711 -2.234450
v -0.047532 0.166780 -0.372130
v -0.332571 1.325360 -2.063360
v -0.312000 0.596429 -0.201040
v -0.399945 1.817217 -1.870097
v -0.379374 1.088286 -0.007777
v -0.259966 2.296403 -1.684085
v -0.239395 1.567472 0.178235
v 0.066054 2.689965 -1.533642
v 0.086625 1.961034 0.328678
v 0.528482 2.937988 -1.441672
v 0.549053 2.209057 0.420648
v 1.056918 3.002711 -1.422175
v 1.077489 2.273780 0.440145
v 1.570912 2.874282 -1.478122
v 1.591483 2.145350 0.384198
v 1.992213 2.572252 -1.600993
v 2.012784 1.843321 0.261327
v 2.256681 2.142603 -1.772083
v 2.277253 1.413672 0.090237
vn 0.9648 -0.2411 -0.1050
vn 0.7908 -0.5669 -0.2306
vn 0.4964 -0.8065 -0.3212
vn 0.1265 -0.9233 -0.3628
vn -0.2628 -0.8995 -0.3492
vn -0.6120 -0.7387 -0.2824
vn -0.8680 -0.4656 -0.1726
vn -0.9919 -0.1215 -0.0366
vn -0.9648 0.2411 0.1050
vn -0.7908 0.5669 0.2306
vn -0.4964 0.8065 0.3212
vn -0.1265 0.9233 0.3628
vn 0.2628 0.8995 0.3492
vn 0.6120 0.7387 0.2824
vn 0.0103 -0.3645 0.9312
vn 0.8680 0.4656 0.1726
vn 0.9919 0.1215 0.0366
vn -0.0103 0.3645 -0.9312
s off
f 2//1 3//1 1//1
f 4//2 5//2 3//2
f 6//3 7//3 5//3
f 8//4 9//4 7//4
f 10//5 11//5 9//5
f 12//6 13//6 11//6
f 14//7 15//7 13//7
f 16//8 17//8 15//8
f 18//9 19//9 17//9
f 20//10 21//10 19//10
f 22//11 23//11 21//11
f 24//12 25//12 23//12
f 26//13 27//13 25//13
f 28//14 29//14 27//14
f 14//15 10//15 6//15
f 30//16 31//16 29//16
f 32//17 1//17 31//17
f 15//18 23//18 31//18
f 2//1 4//1 3//1
f 4//2 6//2 5//2
f 6//3 8//3 7//3
f 8//4 10//4 9//4
f 10//5 12//5 11//5
f 12//6 14//6 13//6
f 14//7 16//7 15//7
f 16//8 18//8 17//8
f 18//9 20//9 19//9
f 20//10 22//10 21//10
f 22//11 24//11 23//11
f 24//12 26//12 25//12
f 26//13 28//13 27//13
f 28//14 30//14 29//14
f 6//15 4//15 30//15
f 4//15 2//15 30//15
f 2//15 32//15 30//15
f 30//15 28//15 26//15
f 26//15 24//15 22//15
f 22//15 20//15 18//15
f 18//15 16//15 14//15
f 14//15 12//15 10//15
f 10//15 8//15 6//15
f 30//15 26//15 6//15
f 26//15 22//15 6//15
f 22//15 18//15 6//15
f 18//15 14//15 6//15
f 30//16 32//16 31//16
f 32//17 2//17 1//17
f 31//18 1//18 3//18
f 3//18 5//18 31//18
f 5//18 7//18 31//18
f 7//18 9//18 15//18
f 9//18 11//18 15//18
f 11//18 13//18 15//18
f 15//18 17//18 23//18
f 17//18 19//18 23//18
f 19//18 21//18 23//18
f 23//18 25//18 27//18
f 27//18 29//18 31//18
f 23//18 27//18 31//18
f 31//18 7//18 15//18
