# Blender v2.83.0 OBJ File: ''
# www.blender.org
o Cylinder.294_Cylinder.1723
v 0.654834 -0.129322 -1.260308
v -0.708305 0.413925 0.098638
v 0.535125 -0.047420 -1.413128
v -0.828014 0.495826 -0.054182
v 0.461709 0.099233 -1.545395
v -0.901430 0.642480 -0.186450
v 0.445764 0.288312 -1.636976
v -0.917376 0.831559 -0.278030
v 0.489716 0.491030 -1.673925
v -0.873423 1.034277 -0.314980
v 0.586875 0.676526 -1.650620
v -0.776264 1.219773 -0.291674
v 0.722450 0.816560 -1.570606
v -0.640690 1.359807 -0.211661
v 0.875799 0.889813 -1.446067
v -0.487341 1.433060 -0.087122
v 1.023577 0.885132 -1.295962
v -0.339562 1.428379 0.062984
v 1.143286 0.803231 -1.143143
v -0.219853 1.346478 0.215803
v 1.216702 0.656577 -1.010875
v -0.146437 1.199824 0.348071
v 1.232647 0.467499 -0.919295
v -0.130492 1.010746 0.439651
v 1.188695 0.264780 -0.882345
v -0.174444 0.808027 0.476601
v 1.091536 0.079284 -0.905651
v -0.271604 0.622531 0.453295
v 0.955961 -0.060750 -0.985664
v -0.407178 0.482497 0.373282
v 0.802612 -0.134003 -1.110203
v -0.560527 0.409244 0.248743
vn -0.4611 -0.8804 -0.1106
vn -0.6435 -0.6646 -0.3798
vn -0.7278 -0.3477 -0.5911
vn -0.7014 0.0222 -0.7124
vn -0.5682 0.3887 -0.7253
vn -0.3484 0.6960 -0.6278
vn -0.0757 0.8974 -0.4347
vn 0.2086 0.9621 -0.1754
vn 0.4611 0.8804 0.1106
vn 0.6435 0.6646 0.3798
vn 0.7278 0.3477 0.5911
vn 0.7014 -0.0222 0.7124
vn 0.5682 -0.3887 0.7253
vn 0.3484 -0.6960 0.6278
vn -0.6816 0.2716 0.6795
vn 0.0757 -0.8974 0.4347
vn -0.2086 -0.9621 0.1754
vn 0.6816 -0.2716 -0.6795
s off
f 2//1 3//1 1//1
f 4//2 5//2 3//2
f 6//3 7//3 5//3
f 8//4 9//4 7//4
f 10//5 11//5 9//5
f 12//6 13//6 11//6
f 14//7 15//7 13//7
f 16//8 17//8 15//8
f 18//9 19//9 17//9
f 20//10 21//10 19//10
f 22//11 23//11 21//11
f 24//12 25//12 23//12
f 26//13 27//13 25//13
f 28//14 29//14 27//14
f 6//15 30//15 22//15
f 30//16 31//16 29//16
f 32//17 1//17 31//17
f 27//18 31//18 15//18
f 2//1 4//1 3//1
f 4//2 6//2 5//2
f 6//3 8//3 7//3
f 8//4 10//4 9//4
f 10//5 12//5 11//5
f 12//6 14//6 13//6
f 14//7 16//7 15//7
f 16//8 18//8 17//8
f 18//9 20//9 19//9
f 20//10 22//10 21//10
f 22//11 24//11 23//11
f 24//12 26//12 25//12
f 26//13 28//13 27//13
f 28//14 30//14 29//14
f 6//15 4//15 2//15
f 2//15 32//15 30//15
f 30//15 28//15 22//15
f 28//15 26//15 22//15
f 26//15 24//15 22//15
f 22//15 20//15 18//15
f 18//15 16//15 22//15
f 16//15 14//15 22//15
f 14//15 12//15 10//15
f 10//15 8//15 6//15
f 6//15 2//15 30//15
f 14//15 10//15 22//15
f 10//15 6//15 22//15
f 30//16 32//16 31//16
f 32//17 2//17 1//17
f 31//18 1//18 3//18
f 3//18 5//18 7//18
f 7//18 9//18 11//18
f 11//18 13//18 7//18
f 13//18 15//18 7//18
f 15//18 17//18 23//18
f 17//18 19//18 23//18
f 19//18 21//18 23//18
f 23//18 25//18 27//18
f 27//18 29//18 31//18
f 31//18 3//18 15//18
f 3//18 7//18 15//18
f 23//18 27//18 15//18
