# Blender v2.83.0 OBJ File: ''
# www.blender.org
o Cylinder.129_Cylinder.1558
v 0.525673 -0.951929 -0.136360
v 1.437618 0.620366 -0.970773
v 1.039684 -1.210302 -0.061443
v 1.951628 0.361993 -0.895856
v 1.533281 -1.353869 0.207492
v 2.445225 0.218427 -0.626921
v 1.931319 -1.360773 0.629504
v 2.843263 0.211522 -0.204909
v 2.173199 -1.229964 1.140345
v 3.085144 0.342331 0.305932
v 2.222099 -0.981356 1.662244
v 3.134043 0.590940 0.827831
v 2.070573 -0.652797 2.115747
v 2.982517 0.919499 1.281334
v 1.741690 -0.294307 2.431811
v 2.653634 1.277988 1.597398
v 1.285519 0.039536 2.562320
v 2.197463 1.611832 1.727907
v 0.771508 0.297909 2.487404
v 1.683452 1.870204 1.652991
v 0.277911 0.441476 2.218469
v 1.189855 2.013771 1.384055
v -0.120127 0.448380 1.796456
v 0.791817 2.020676 0.962043
v -0.362007 0.317571 1.285615
v 0.549937 1.889866 0.451202
v -0.410907 0.068963 0.763716
v 0.501037 1.641258 -0.070697
v -0.259381 -0.259597 0.310213
v 0.652564 1.312699 -0.524200
v 0.069503 -0.618086 -0.005852
v 0.981447 0.954209 -0.840265
vn -0.0843 -0.4285 -0.8996
vn 0.2612 -0.5663 -0.7817
vn 0.5669 -0.6179 -0.5448
vn 0.7863 -0.5754 -0.2250
vn 0.8860 -0.4454 0.1291
vn 0.8508 -0.2475 0.4636
vn 0.6861 -0.0119 0.7274
vn 0.4169 0.2255 0.8805
vn 0.0843 0.4285 0.8996
vn -0.2612 0.5663 0.7817
vn -0.5669 0.6179 0.5448
vn -0.7863 0.5754 0.2250
vn -0.8860 0.4454 -0.1291
vn -0.8508 0.2475 -0.4636
vn 0.4560 0.7861 -0.4172
vn -0.6861 0.0119 -0.7274
vn -0.4169 -0.2255 -0.8805
vn -0.4560 -0.7861 0.4172
s off
f 2//1 3//1 1//1
f 4//2 5//2 3//2
f 6//3 7//3 5//3
f 8//4 9//4 7//4
f 10//5 11//5 9//5
f 12//6 13//6 11//6
f 14//7 15//7 13//7
f 16//8 17//8 15//8
f 18//9 19//9 17//9
f 20//10 21//10 19//10
f 22//11 23//11 21//11
f 24//12 25//12 23//12
f 26//13 27//13 25//13
f 28//14 29//14 27//14
f 30//15 22//15 14//15
f 30//16 31//16 29//16
f 32//17 1//17 31//17
f 31//18 7//18 15//18
f 2//1 4//1 3//1
f 4//2 6//2 5//2
f 6//3 8//3 7//3
f 8//4 10//4 9//4
f 10//5 12//5 11//5
f 12//6 14//6 13//6
f 14//7 16//7 15//7
f 16//8 18//8 17//8
f 18//9 20//9 19//9
f 20//10 22//10 21//10
f 22//11 24//11 23//11
f 24//12 26//12 25//12
f 26//13 28//13 27//13
f 28//14 30//14 29//14
f 6//15 4//15 2//15
f 2//15 32//15 30//15
f 30//15 28//15 26//15
f 26//15 24//15 22//15
f 22//15 20//15 18//15
f 18//15 16//15 14//15
f 14//15 12//15 10//15
f 10//15 8//15 14//15
f 8//15 6//15 14//15
f 6//15 2//15 30//15
f 30//15 26//15 22//15
f 22//15 18//15 14//15
f 6//15 30//15 14//15
f 30//16 32//16 31//16
f 32//17 2//17 1//17
f 31//18 1//18 3//18
f 3//18 5//18 7//18
f 7//18 9//18 11//18
f 11//18 13//18 7//18
f 13//18 15//18 7//18
f 15//18 17//18 19//18
f 19//18 21//18 23//18
f 23//18 25//18 31//18
f 25//18 27//18 31//18
f 27//18 29//18 31//18
f 31//18 3//18 7//18
f 15//18 19//18 31//18
f 19//18 23//18 31//18
