# Blender v2.83.0 OBJ File: ''
# www.blender.org
o Cylinder.344_Cylinder.1773
v -0.358948 -2.329584 -0.915005
v -1.105857 -1.268899 0.607188
v -0.151617 -1.779252 -1.196751
v -0.898527 -0.718567 0.325442
v 0.257402 -1.290932 -1.336322
v -0.489508 -0.230247 0.185872
v 0.805840 -0.938967 -1.312468
v 0.058931 0.121718 0.209725
v 1.410203 -0.776941 -1.128822
v 0.663293 0.283744 0.393372
v 1.978481 -0.829520 -0.813341
v 1.231572 0.231165 0.708852
v 2.424160 -1.088700 -0.414056
v 1.677250 -0.028015 1.108138
v 2.679388 -1.515023 0.008247
v 1.932479 -0.454338 1.530441
v 2.705311 -2.043585 0.389276
v 1.958401 -0.982900 1.911469
v 2.497980 -2.593917 0.671022
v 1.751071 -1.533232 2.193215
v 2.088962 -3.082237 0.810592
v 1.342052 -2.021552 2.332786
v 1.540523 -3.434202 0.786739
v 0.793614 -2.373517 2.308932
v 0.936160 -3.596229 0.603092
v 0.189251 -2.535543 2.125286
v 0.367882 -3.543649 0.287612
v -0.379028 -2.482964 1.809806
v -0.077797 -3.284469 -0.111674
v -0.824707 -2.223784 1.410520
v -0.333026 -2.858146 -0.533977
v -1.079935 -1.797461 0.988216
vn -0.8715 0.0806 -0.4838
vn -0.6835 0.3975 -0.6123
vn -0.3914 0.6538 -0.6476
vn -0.0398 0.8106 -0.5843
vn 0.3179 0.8439 -0.4321
vn 0.6272 0.7488 -0.2140
vn 0.8410 0.5397 0.0366
vn 0.9268 0.2485 0.2816
vn 0.8715 -0.0806 0.4838
vn 0.6835 -0.3975 0.6123
vn 0.3914 -0.6538 0.6476
vn 0.0398 -0.8106 0.5843
vn -0.3179 -0.8439 0.4321
vn -0.6272 -0.7488 0.2140
vn -0.3735 0.5303 0.7611
vn -0.8410 -0.5397 -0.0366
vn -0.9268 -0.2485 -0.2816
vn 0.3735 -0.5303 -0.7611
s off
f 2//1 3//1 1//1
f 4//2 5//2 3//2
f 6//3 7//3 5//3
f 8//4 9//4 7//4
f 10//5 11//5 9//5
f 12//6 13//6 11//6
f 14//7 15//7 13//7
f 16//8 17//8 15//8
f 18//9 19//9 17//9
f 19//10 22//10 21//10
f 22//11 23//11 21//11
f 24//12 25//12 23//12
f 26//13 27//13 25//13
f 28//14 29//14 27//14
f 18//15 14//15 6//15
f 30//16 31//16 29//16
f 32//17 1//17 31//17
f 15//18 23//18 31//18
f 2//1 4//1 3//1
f 4//2 6//2 5//2
f 6//3 8//3 7//3
f 8//4 10//4 9//4
f 10//5 12//5 11//5
f 12//6 14//6 13//6
f 14//7 16//7 15//7
f 16//8 18//8 17//8
f 18//9 20//9 19//9
f 19//10 20//10 22//10
f 22//11 24//11 23//11
f 24//12 26//12 25//12
f 26//13 28//13 27//13
f 28//14 30//14 29//14
f 6//15 4//15 2//15
f 2//15 32//15 30//15
f 30//15 28//15 26//15
f 26//15 24//15 22//15
f 22//15 20//15 18//15
f 18//15 16//15 14//15
f 14//15 12//15 6//15
f 12//15 10//15 6//15
f 10//15 8//15 6//15
f 6//15 2//15 22//15
f 2//15 30//15 22//15
f 30//15 26//15 22//15
f 22//15 18//15 6//15
f 30//16 32//16 31//16
f 32//17 2//17 1//17
f 31//18 1//18 3//18
f 3//18 5//18 7//18
f 7//18 9//18 11//18
f 11//18 13//18 7//18
f 13//18 15//18 7//18
f 15//18 17//18 19//18
f 19//18 21//18 23//18
f 23//18 25//18 27//18
f 27//18 29//18 31//18
f 31//18 3//18 15//18
f 3//18 7//18 15//18
f 15//18 19//18 23//18
f 23//18 27//18 31//18
