# Blender v2.83.0 OBJ File: ''
# www.blender.org
o Cylinder.001_Cylinder.1430
v -1.601457 0.274738 1.113990
v -3.265252 0.643848 0.067309
v -1.887434 -0.268497 1.377006
v -3.551229 0.100613 0.330325
v -2.061422 -0.911386 1.426863
v -3.725218 -0.542276 0.380182
v -2.096934 -1.556056 1.255971
v -3.760730 -1.186946 0.209290
v -1.988563 -2.104361 0.890346
v -3.652359 -1.735251 -0.156335
v -1.752807 -2.472827 0.385651
v -3.416603 -2.103717 -0.661030
v -1.425559 -2.605358 -0.181277
v -3.089355 -2.236248 -1.227958
v -1.056638 -2.481778 -0.724130
v -2.720433 -2.112668 -1.770812
v -0.702210 -2.120901 -1.160264
v -2.366005 -1.751791 -2.206945
v -0.416232 -1.577666 -1.423280
v -2.080028 -1.208556 -2.469961
v -0.242244 -0.934777 -1.473137
v -1.906039 -0.565667 -2.519818
v -0.206732 -0.290107 -1.302245
v -1.870528 0.079003 -2.348926
v -0.315103 0.258198 -0.936620
v -1.978899 0.627309 -1.983301
v -0.550859 0.626664 -0.431925
v -2.214655 0.995775 -1.478606
v -0.878108 0.759196 0.135004
v -2.541903 1.128306 -0.911677
v -1.247029 0.635615 0.677857
v -2.910825 1.004725 -0.368824
vn -0.3530 0.5517 0.7557
vn -0.4900 0.1984 0.8488
vn -0.5524 -0.1850 0.8128
vn -0.5307 -0.5403 0.6530
vn -0.4282 -0.8134 0.3938
vn -0.2605 -0.9626 0.0746
vn -0.0532 -0.9652 -0.2559
vn 0.1623 -0.8210 -0.5474
vn 0.3530 -0.5517 -0.7557
vn 0.4900 -0.1984 -0.8488
vn 0.5524 0.1850 -0.8128
vn 0.5307 0.5403 -0.6530
vn 0.4282 0.8134 -0.3938
vn 0.2605 0.9626 -0.0746
vn -0.8319 0.1846 -0.5233
vn 0.0532 0.9652 0.2559
vn -0.1623 0.8210 0.5474
vn 0.8319 -0.1846 0.5233
s off
f 2//1 3//1 1//1
f 4//2 5//2 3//2
f 6//3 7//3 5//3
f 8//4 9//4 7//4
f 10//5 11//5 9//5
f 12//6 13//6 11//6
f 14//7 15//7 13//7
f 16//8 17//8 15//8
f 18//9 19//9 17//9
f 20//10 21//10 19//10
f 22//11 23//11 21//11
f 24//12 25//12 23//12
f 26//13 27//13 25//13
f 28//14 29//14 27//14
f 14//15 10//15 6//15
f 30//16 31//16 29//16
f 32//17 1//17 31//17
f 23//18 27//18 31//18
f 2//1 4//1 3//1
f 4//2 6//2 5//2
f 6//3 8//3 7//3
f 8//4 10//4 9//4
f 10//5 12//5 11//5
f 12//6 14//6 13//6
f 14//7 16//7 15//7
f 16//8 18//8 17//8
f 18//9 20//9 19//9
f 20//10 22//10 21//10
f 22//11 24//11 23//11
f 24//12 26//12 25//12
f 26//13 28//13 27//13
f 28//14 30//14 29//14
f 6//15 4//15 2//15
f 2//15 32//15 30//15
f 30//15 28//15 26//15
f 26//15 24//15 22//15
f 22//15 20//15 18//15
f 18//15 16//15 14//15
f 14//15 12//15 10//15
f 10//15 8//15 6//15
f 6//15 2//15 30//15
f 30//15 26//15 6//15
f 26//15 22//15 6//15
f 22//15 18//15 6//15
f 18//15 14//15 6//15
f 30//16 32//16 31//16
f 32//17 2//17 1//17
f 31//18 1//18 3//18
f 3//18 5//18 7//18
f 7//18 9//18 11//18
f 11//18 13//18 7//18
f 13//18 15//18 7//18
f 15//18 17//18 19//18
f 19//18 21//18 23//18
f 23//18 25//18 27//18
f 27//18 29//18 31//18
f 31//18 3//18 15//18
f 3//18 7//18 15//18
f 15//18 19//18 31//18
f 19//18 23//18 31//18
