# Blender v2.83.0 OBJ File: ''
# www.blender.org
o Cylinder.262_Cylinder.1691
v 0.364830 0.649854 0.320158
v -1.007562 0.629212 1.774845
v 0.411680 0.989955 0.369184
v -0.960712 0.969313 1.823870
v 0.549821 1.278253 0.503601
v -0.822570 1.257611 1.958288
v 0.758224 1.470858 0.702947
v -0.614168 1.450215 2.157634
v 1.005161 1.538446 0.936873
v -0.367231 1.517804 2.391560
v 1.253037 1.470729 1.169765
v -0.119355 1.450087 2.624452
v 1.464116 1.278015 1.366168
v 0.091724 1.257373 2.820855
v 1.606263 0.989645 1.496182
v 0.233871 0.969002 2.950869
v 1.657837 0.649518 1.540012
v 0.285445 0.628876 2.994699
v 1.610987 0.309418 1.490987
v 0.238595 0.288775 2.945673
v 1.472846 0.021120 1.356569
v 0.100454 0.000477 2.811256
v 1.264443 -0.171485 1.157223
v -0.107949 -0.192127 2.611910
v 1.017506 -0.239073 0.923297
v -0.354886 -0.259716 2.377984
v 0.769630 -0.171356 0.690405
v -0.602762 -0.191998 2.145092
v 0.558551 0.021357 0.494002
v -0.813841 0.000715 1.948688
v 0.416404 0.309728 0.363988
v -0.955988 0.289086 1.818675
vn -0.7148 0.1953 -0.6716
vn -0.6087 0.5557 -0.5663
vn -0.4099 0.8315 -0.3749
vn -0.1487 0.9808 -0.1264
vn 0.1351 0.9807 0.1414
vn 0.3983 0.8313 0.3876
vn 0.6009 0.5554 0.5748
vn 0.7121 0.1949 0.6745
vn 0.7148 -0.1953 0.6716
vn 0.6087 -0.5557 0.5663
vn 0.4099 -0.8315 0.3749
vn 0.1487 -0.9808 0.1264
vn -0.1351 -0.9807 -0.1414
vn -0.3983 -0.8313 -0.3876
vn -0.6862 -0.0103 0.7273
vn -0.6009 -0.5554 -0.5748
vn -0.7121 -0.1949 -0.6745
vn 0.6862 0.0103 -0.7273
s off
f 2//1 3//1 1//1
f 4//2 5//2 3//2
f 6//3 7//3 5//3
f 8//4 9//4 7//4
f 10//5 11//5 9//5
f 12//6 13//6 11//6
f 14//7 15//7 13//7
f 16//8 17//8 15//8
f 18//9 19//9 17//9
f 20//10 21//10 19//10
f 22//11 23//11 21//11
f 24//12 25//12 23//12
f 26//13 27//13 25//13
f 28//14 29//14 27//14
f 10//15 6//15 22//15
f 30//16 31//16 29//16
f 32//17 1//17 31//17
f 7//18 15//18 23//18
f 2//1 4//1 3//1
f 4//2 6//2 5//2
f 6//3 8//3 7//3
f 8//4 10//4 9//4
f 10//5 12//5 11//5
f 12//6 14//6 13//6
f 14//7 16//7 15//7
f 16//8 18//8 17//8
f 18//9 20//9 19//9
f 20//10 22//10 21//10
f 22//11 24//11 23//11
f 24//12 26//12 25//12
f 26//13 28//13 27//13
f 28//14 30//14 29//14
f 6//15 4//15 2//15
f 2//15 32//15 30//15
f 30//15 28//15 22//15
f 28//15 26//15 22//15
f 26//15 24//15 22//15
f 22//15 20//15 18//15
f 18//15 16//15 22//15
f 16//15 14//15 22//15
f 14//15 12//15 10//15
f 10//15 8//15 6//15
f 6//15 2//15 22//15
f 2//15 30//15 22//15
f 14//15 10//15 22//15
f 30//16 32//16 31//16
f 32//17 2//17 1//17
f 31//18 1//18 3//18
f 3//18 5//18 7//18
f 7//18 9//18 11//18
f 11//18 13//18 7//18
f 13//18 15//18 7//18
f 15//18 17//18 23//18
f 17//18 19//18 23//18
f 19//18 21//18 23//18
f 23//18 25//18 31//18
f 25//18 27//18 31//18
f 27//18 29//18 31//18
f 31//18 3//18 7//18
f 31//18 7//18 23//18
