# Blender v2.83.0 OBJ File: ''
# www.blender.org
o Cylinder.332_Cylinder.1761
v -0.397045 2.719288 2.889465
v -0.619700 2.632334 0.903801
v -0.747876 2.793104 2.925572
v -0.970531 2.706150 0.939908
v -1.099446 2.726468 2.967912
v -1.322101 2.639514 0.982248
v -1.398233 2.529525 3.010040
v -1.620888 2.442571 1.024375
v -1.598748 2.232258 3.045542
v -1.821404 2.145304 1.059877
v -1.670465 1.879922 3.069013
v -1.893121 1.792968 1.083348
v -1.602467 1.526158 3.076880
v -1.825122 1.439204 1.091215
v -1.405104 1.224823 3.067945
v -1.627759 1.137869 1.082280
v -1.108423 1.021792 3.043568
v -1.331079 0.934838 1.057904
v -0.757593 0.947976 3.007462
v -0.980248 0.861022 1.021797
v -0.406022 1.014611 2.965122
v -0.628678 0.927657 0.979457
v -0.107235 1.211555 2.922994
v -0.329891 1.124600 0.937329
v 0.093280 1.508822 2.887492
v -0.129375 1.421868 0.901828
v 0.164998 1.861158 2.864021
v -0.057658 1.774204 0.878357
v 0.096999 2.214922 2.856154
v -0.125657 2.127968 0.870490
v -0.100365 2.516258 2.865089
v -0.323020 2.429303 0.879425
vn 0.1990 0.9778 -0.0651
vn -0.1887 0.9818 -0.0218
vn -0.5477 0.8363 0.0248
vn -0.8234 0.5635 0.0677
vn -0.9736 0.2049 0.1002
vn -0.9757 -0.1849 0.1175
vn -0.8292 -0.5466 0.1169
vn -0.5565 -0.8250 0.0985
vn -0.1990 -0.9778 0.0651
vn 0.1887 -0.9818 0.0218
vn 0.5477 -0.8363 -0.0248
vn 0.8234 -0.5635 -0.0677
vn 0.9736 -0.2049 -0.1002
vn 0.9757 0.1849 -0.1175
vn -0.1113 -0.0435 -0.9928
vn 0.8292 0.5466 -0.1169
vn 0.5565 0.8250 -0.0985
vn 0.1113 0.0435 0.9928
s off
f 2//1 3//1 1//1
f 4//2 5//2 3//2
f 6//3 7//3 5//3
f 8//4 9//4 7//4
f 10//5 11//5 9//5
f 12//6 13//6 11//6
f 14//7 15//7 13//7
f 16//8 17//8 15//8
f 18//9 19//9 17//9
f 20//10 21//10 19//10
f 22//11 23//11 21//11
f 24//12 25//12 23//12
f 26//13 27//13 25//13
f 28//14 29//14 27//14
f 22//15 14//15 6//15
f 30//16 31//16 29//16
f 32//17 1//17 31//17
f 15//18 23//18 31//18
f 2//1 4//1 3//1
f 4//2 6//2 5//2
f 6//3 8//3 7//3
f 8//4 10//4 9//4
f 10//5 12//5 11//5
f 12//6 14//6 13//6
f 14//7 16//7 15//7
f 16//8 18//8 17//8
f 18//9 20//9 19//9
f 20//10 22//10 21//10
f 22//11 24//11 23//11
f 24//12 26//12 25//12
f 26//13 28//13 27//13
f 28//14 30//14 29//14
f 6//15 4//15 30//15
f 4//15 2//15 30//15
f 2//15 32//15 30//15
f 30//15 28//15 26//15
f 26//15 24//15 22//15
f 22//15 20//15 14//15
f 20//15 18//15 14//15
f 18//15 16//15 14//15
f 14//15 12//15 10//15
f 10//15 8//15 6//15
f 30//15 26//15 22//15
f 14//15 10//15 6//15
f 6//15 30//15 22//15
f 30//16 32//16 31//16
f 32//17 2//17 1//17
f 31//18 1//18 3//18
f 3//18 5//18 7//18
f 7//18 9//18 11//18
f 11//18 13//18 7//18
f 13//18 15//18 7//18
f 15//18 17//18 19//18
f 19//18 21//18 23//18
f 23//18 25//18 27//18
f 27//18 29//18 31//18
f 31//18 3//18 15//18
f 3//18 7//18 15//18
f 15//18 19//18 23//18
f 23//18 27//18 31//18
