# Blender v2.83.0 OBJ File: ''
# www.blender.org
o Cylinder.137_Cylinder.1566
v -0.179332 -0.103078 -0.594106
v -0.329684 -1.916358 0.236201
v 0.156317 -0.182598 -0.706988
v 0.005965 -1.995878 0.123319
v 0.414617 -0.306143 -0.930020
v 0.264265 -2.119423 -0.099713
v 0.556245 -0.454904 -1.229248
v 0.405893 -2.268184 -0.398941
v 0.559639 -0.606233 -1.559117
v 0.409287 -2.419513 -0.728810
v 0.424283 -0.737093 -1.869408
v 0.273931 -2.550373 -1.039101
v 0.170783 -0.827560 -2.112880
v 0.020431 -2.640841 -1.282574
v -0.162268 -0.863863 -2.252470
v -0.312620 -2.677143 -1.422163
v -0.524165 -0.840474 -2.266923
v -0.674517 -2.653754 -1.436616
v -0.859814 -0.760954 -2.154041
v -1.010166 -2.574234 -1.323735
v -1.118114 -0.637409 -1.931009
v -1.268466 -2.450689 -1.100703
v -1.259742 -0.488648 -1.631781
v -1.410094 -2.301928 -0.801474
v -1.263137 -0.337319 -1.301912
v -1.413489 -2.150599 -0.471605
v -1.127780 -0.206459 -0.991621
v -1.278132 -2.019739 -0.161314
v -0.874280 -0.115991 -0.748148
v -1.024632 -1.929272 0.082159
v -0.541229 -0.079689 -0.608559
v -0.691581 -1.892969 0.221748
vn 0.3729 0.3606 0.8549
vn 0.6985 0.2493 0.6708
vn 0.9176 0.1000 0.3846
vn 0.9971 -0.0644 0.0398
vn 0.9248 -0.2191 -0.3110
vn 0.7117 -0.3404 -0.6145
vn 0.3902 -0.4099 -0.8245
vn 0.0094 -0.4170 -0.9089
vn -0.3729 -0.3606 -0.8549
vn -0.6985 -0.2493 -0.6708
vn -0.9176 -0.1000 -0.3846
vn -0.9971 0.0644 -0.0398
vn -0.9248 0.2191 0.3110
vn -0.7117 0.3404 0.6145
vn -0.0752 -0.9066 0.4152
vn -0.3902 0.4099 0.8245
vn -0.0094 0.4170 0.9089
vn 0.0752 0.9066 -0.4152
s off
f 2//1 3//1 1//1
f 4//2 5//2 3//2
f 6//3 7//3 5//3
f 8//4 9//4 7//4
f 10//5 11//5 9//5
f 12//6 13//6 11//6
f 14//7 15//7 13//7
f 16//8 17//8 15//8
f 18//9 19//9 17//9
f 20//10 21//10 19//10
f 22//11 23//11 21//11
f 24//12 25//12 23//12
f 26//13 27//13 25//13
f 28//14 29//14 27//14
f 22//15 14//15 6//15
f 30//16 31//16 29//16
f 32//17 1//17 31//17
f 31//18 7//18 15//18
f 2//1 4//1 3//1
f 4//2 6//2 5//2
f 6//3 8//3 7//3
f 8//4 10//4 9//4
f 10//5 12//5 11//5
f 12//6 14//6 13//6
f 14//7 16//7 15//7
f 16//8 18//8 17//8
f 18//9 20//9 19//9
f 20//10 22//10 21//10
f 22//11 24//11 23//11
f 24//12 26//12 25//12
f 26//13 28//13 27//13
f 28//14 30//14 29//14
f 6//15 4//15 30//15
f 4//15 2//15 30//15
f 2//15 32//15 30//15
f 30//15 28//15 26//15
f 26//15 24//15 22//15
f 22//15 20//15 14//15
f 20//15 18//15 14//15
f 18//15 16//15 14//15
f 14//15 12//15 10//15
f 10//15 8//15 6//15
f 30//15 26//15 22//15
f 14//15 10//15 6//15
f 6//15 30//15 22//15
f 30//16 32//16 31//16
f 32//17 2//17 1//17
f 31//18 1//18 3//18
f 3//18 5//18 7//18
f 7//18 9//18 11//18
f 11//18 13//18 15//18
f 15//18 17//18 19//18
f 19//18 21//18 15//18
f 21//18 23//18 15//18
f 23//18 25//18 27//18
f 27//18 29//18 31//18
f 31//18 3//18 7//18
f 7//18 11//18 15//18
f 23//18 27//18 15//18
f 27//18 31//18 15//18
