# Blender v2.83.0 OBJ File: ''
# www.blender.org
o Cylinder.279_Cylinder.1708
v -0.548799 1.073756 0.605198
v -2.150053 1.185401 1.798311
v -0.435717 0.857930 0.777158
v -2.036972 0.969575 1.970271
v -0.384189 0.580032 0.872318
v -1.985443 0.691677 2.065431
v -0.402057 0.282367 0.876190
v -2.003312 0.394012 2.069304
v -0.486603 0.010254 0.788186
v -2.087857 0.121899 1.981300
v -0.624954 -0.194881 0.621703
v -2.226209 -0.083236 1.814816
v -0.796049 -0.301809 0.402086
v -2.397303 -0.190164 1.595200
v -0.973839 -0.294250 0.162771
v -2.575093 -0.182604 1.355884
v -1.131257 -0.173355 -0.059810
v -2.732511 -0.061710 1.133303
v -1.244338 0.042471 -0.231770
v -2.845592 0.154116 0.961343
v -1.295867 0.320369 -0.326930
v -2.897121 0.432014 0.866183
v -1.277998 0.618034 -0.330803
v -2.879253 0.729679 0.862311
v -1.193453 0.890147 -0.242799
v -2.794707 1.001792 0.950315
v -1.055101 1.095282 -0.076315
v -2.656356 1.206927 1.116798
v -0.884007 1.202210 0.143301
v -2.485261 1.313855 1.336415
v -0.706217 1.194651 0.382617
v -2.307471 1.306296 1.575731
vn 0.4639 0.6879 0.5582
vn 0.5737 0.3585 0.7364
vn 0.5962 -0.0253 0.8025
vn 0.5279 -0.4054 0.7464
vn 0.3792 -0.7237 0.5766
vn 0.1728 -0.9318 0.3191
vn -0.0599 -0.9981 0.0130
vn -0.2835 -0.9124 -0.2951
vn -0.4639 -0.6879 -0.5582
vn -0.5737 -0.3585 -0.7364
vn -0.5962 0.0253 -0.8025
vn -0.5279 0.4054 -0.7464
vn -0.3792 0.7237 -0.5766
vn -0.1728 0.9318 -0.3191
vn -0.8006 0.0558 0.5966
vn 0.0599 0.9981 -0.0130
vn 0.2835 0.9124 0.2951
vn 0.8006 -0.0558 -0.5966
s off
f 2//1 3//1 1//1
f 4//2 5//2 3//2
f 6//3 7//3 5//3
f 8//4 9//4 7//4
f 10//5 11//5 9//5
f 12//6 13//6 11//6
f 14//7 15//7 13//7
f 16//8 17//8 15//8
f 18//9 19//9 17//9
f 20//10 21//10 19//10
f 22//11 23//11 21//11
f 24//12 25//12 23//12
f 26//13 27//13 25//13
f 28//14 29//14 27//14
f 22//15 14//15 6//15
f 30//16 31//16 29//16
f 32//17 1//17 31//17
f 15//18 23//18 31//18
f 2//1 4//1 3//1
f 4//2 6//2 5//2
f 6//3 8//3 7//3
f 8//4 10//4 9//4
f 10//5 12//5 11//5
f 12//6 14//6 13//6
f 14//7 16//7 15//7
f 16//8 18//8 17//8
f 18//9 20//9 19//9
f 20//10 22//10 21//10
f 22//11 24//11 23//11
f 24//12 26//12 25//12
f 26//13 28//13 27//13
f 28//14 30//14 29//14
f 6//15 4//15 2//15
f 2//15 32//15 30//15
f 30//15 28//15 26//15
f 26//15 24//15 22//15
f 22//15 20//15 14//15
f 20//15 18//15 14//15
f 18//15 16//15 14//15
f 14//15 12//15 10//15
f 10//15 8//15 14//15
f 8//15 6//15 14//15
f 6//15 2//15 22//15
f 2//15 30//15 22//15
f 30//15 26//15 22//15
f 30//16 32//16 31//16
f 32//17 2//17 1//17
f 31//18 1//18 7//18
f 1//18 3//18 7//18
f 3//18 5//18 7//18
f 7//18 9//18 11//18
f 11//18 13//18 7//18
f 13//18 15//18 7//18
f 15//18 17//18 19//18
f 19//18 21//18 15//18
f 21//18 23//18 15//18
f 23//18 25//18 27//18
f 27//18 29//18 23//18
f 29//18 31//18 23//18
f 31//18 7//18 15//18
