# Blender v2.83.0 OBJ File: ''
# www.blender.org
o Cylinder.083_Cylinder.1512
v 0.045778 0.284359 -1.908092
v 1.348988 0.669400 -0.440649
v 0.006801 -0.081495 -1.777481
v 1.310011 0.303546 -0.310038
v -0.141557 -0.375987 -1.568455
v 1.161652 0.009054 -0.101012
v -0.376711 -0.554283 -1.312836
v 0.926499 -0.169243 0.154607
v -0.662860 -0.589240 -1.049540
v 0.640350 -0.204199 0.417902
v -0.956440 -0.475534 -0.818652
v 0.346770 -0.090494 0.648791
v -1.212757 -0.230478 -0.655322
v 0.090453 0.154563 0.812121
v -1.392788 0.108622 -0.584415
v -0.089579 0.493662 0.883028
v -1.469126 0.490140 -0.616726
v -0.165917 0.875180 0.850716
v -1.430149 0.855994 -0.747338
v -0.126939 1.241035 0.720105
v -1.281791 1.150486 -0.956363
v 0.021419 1.535527 0.511079
v -1.046637 1.328782 -1.211982
v 0.256573 1.713823 0.255461
v -0.760488 1.363739 -1.475278
v 0.542722 1.748779 -0.007835
v -0.466908 1.250033 -1.706167
v 0.836302 1.635074 -0.238724
v -0.210591 1.004977 -1.869497
v 1.092619 1.390017 -0.402054
v -0.030559 0.665877 -1.940404
v 1.272650 1.050918 -0.472961
vn 0.7520 -0.2912 -0.5914
vn 0.6565 -0.6277 -0.4183
vn 0.4611 -0.8686 -0.1816
vn 0.1955 -0.9772 0.0828
vn -0.0998 -0.9371 0.3345
vn -0.3800 -0.7543 0.5354
vn -0.6023 -0.4567 0.6547
vn -0.7329 -0.0895 0.6744
vn -0.7520 0.2912 0.5914
vn -0.6565 0.6277 0.4183
vn -0.4611 0.8686 0.1816
vn -0.1955 0.9772 -0.0828
vn 0.0998 0.9371 -0.3345
vn 0.3800 0.7543 -0.5354
vn 0.6516 0.1925 0.7337
vn 0.6023 0.4567 -0.6547
vn 0.7329 0.0895 -0.6744
vn -0.6516 -0.1925 -0.7337
s off
f 2//1 3//1 1//1
f 4//2 5//2 3//2
f 6//3 7//3 5//3
f 8//4 9//4 7//4
f 10//5 11//5 9//5
f 12//6 13//6 11//6
f 14//7 15//7 13//7
f 16//8 17//8 15//8
f 18//9 19//9 17//9
f 20//10 21//10 19//10
f 22//11 23//11 21//11
f 24//12 25//12 23//12
f 26//13 27//13 25//13
f 28//14 29//14 27//14
f 6//15 30//15 22//15
f 30//16 31//16 29//16
f 32//17 1//17 31//17
f 15//18 23//18 31//18
f 2//1 4//1 3//1
f 4//2 6//2 5//2
f 6//3 8//3 7//3
f 8//4 10//4 9//4
f 10//5 12//5 11//5
f 12//6 14//6 13//6
f 14//7 16//7 15//7
f 16//8 18//8 17//8
f 18//9 20//9 19//9
f 20//10 22//10 21//10
f 22//11 24//11 23//11
f 24//12 26//12 25//12
f 26//13 28//13 27//13
f 28//14 30//14 29//14
f 6//15 4//15 2//15
f 2//15 32//15 30//15
f 30//15 28//15 26//15
f 26//15 24//15 22//15
f 22//15 20//15 18//15
f 18//15 16//15 14//15
f 14//15 12//15 10//15
f 10//15 8//15 6//15
f 6//15 2//15 30//15
f 30//15 26//15 22//15
f 22//15 18//15 14//15
f 14//15 10//15 22//15
f 10//15 6//15 22//15
f 30//16 32//16 31//16
f 32//17 2//17 1//17
f 31//18 1//18 3//18
f 3//18 5//18 7//18
f 7//18 9//18 11//18
f 11//18 13//18 7//18
f 13//18 15//18 7//18
f 15//18 17//18 19//18
f 19//18 21//18 23//18
f 23//18 25//18 27//18
f 27//18 29//18 23//18
f 29//18 31//18 23//18
f 31//18 3//18 7//18
f 15//18 19//18 23//18
f 31//18 7//18 15//18
