# Blender v2.83.0 OBJ File: ''
# www.blender.org
o Cylinder.175_Cylinder.1604
v 1.192576 -0.527539 -0.221583
v 1.234678 1.375766 0.391326
v 1.332945 -0.474025 -0.397406
v 1.375047 1.429281 0.215502
v 1.532937 -0.442462 -0.509157
v 1.575039 1.460843 0.103751
v 1.762105 -0.437657 -0.539823
v 1.804206 1.465649 0.073086
v 1.985559 -0.460339 -0.484734
v 2.027661 1.442966 0.128175
v 2.169282 -0.507057 -0.352278
v 2.211383 1.396248 0.260631
v 2.285302 -0.570698 -0.162620
v 2.327404 1.332607 0.450289
v 2.315958 -0.641573 0.055367
v 2.358059 1.261732 0.668275
v 2.256581 -0.708892 0.268495
v 2.298683 1.194414 0.881404
v 2.116212 -0.762406 0.444319
v 2.158314 1.140899 1.057227
v 1.916221 -0.793969 0.556070
v 1.958322 1.109337 1.168978
v 1.687053 -0.798774 0.586735
v 1.729155 1.104531 1.199644
v 1.463599 -0.776092 0.531646
v 1.505700 1.127214 1.144555
v 1.279876 -0.729374 0.399190
v 1.321978 1.173932 1.012099
v 1.163855 -0.665733 0.209532
v 1.205957 1.237572 0.822441
v 1.133200 -0.594858 -0.008455
v 1.175302 1.308447 0.604454
vn -0.7944 0.2020 -0.5728
vn -0.5017 0.2752 -0.8201
vn -0.1326 0.3065 -0.9426
vn 0.2568 0.2911 -0.9216
vn 0.6070 0.2314 -0.7603
vn 0.8648 0.1365 -0.4832
vn 0.9910 0.0208 -0.1326
vn 0.9662 -0.0981 0.2382
vn 0.7944 -0.2020 0.5728
vn 0.5017 -0.2752 0.8201
vn 0.1326 -0.3065 0.9426
vn -0.2568 -0.2911 0.9216
vn -0.6070 -0.2314 0.7603
vn -0.8648 -0.1365 0.4832
vn 0.0211 0.9517 0.3065
vn -0.9910 -0.0208 0.1326
vn -0.9662 0.0981 -0.2382
vn -0.0211 -0.9517 -0.3065
s off
f 2//1 3//1 1//1
f 4//2 5//2 3//2
f 6//3 7//3 5//3
f 8//4 9//4 7//4
f 10//5 11//5 9//5
f 12//6 13//6 11//6
f 14//7 15//7 13//7
f 16//8 17//8 15//8
f 18//9 19//9 17//9
f 20//10 21//10 19//10
f 22//11 23//11 21//11
f 24//12 25//12 23//12
f 26//13 27//13 25//13
f 28//14 29//14 27//14
f 22//15 14//15 6//15
f 30//16 31//16 29//16
f 32//17 1//17 31//17
f 15//18 23//18 31//18
f 2//1 4//1 3//1
f 4//2 6//2 5//2
f 6//3 8//3 7//3
f 8//4 10//4 9//4
f 10//5 12//5 11//5
f 12//6 14//6 13//6
f 14//7 16//7 15//7
f 16//8 18//8 17//8
f 18//9 20//9 19//9
f 20//10 22//10 21//10
f 22//11 24//11 23//11
f 24//12 26//12 25//12
f 26//13 28//13 27//13
f 28//14 30//14 29//14
f 6//15 4//15 2//15
f 2//15 32//15 30//15
f 30//15 28//15 26//15
f 26//15 24//15 22//15
f 22//15 20//15 14//15
f 20//15 18//15 14//15
f 18//15 16//15 14//15
f 14//15 12//15 6//15
f 12//15 10//15 6//15
f 10//15 8//15 6//15
f 6//15 2//15 30//15
f 30//15 26//15 22//15
f 6//15 30//15 22//15
f 30//16 32//16 31//16
f 32//17 2//17 1//17
f 31//18 1//18 3//18
f 3//18 5//18 7//18
f 7//18 9//18 15//18
f 9//18 11//18 15//18
f 11//18 13//18 15//18
f 15//18 17//18 23//18
f 17//18 19//18 23//18
f 19//18 21//18 23//18
f 23//18 25//18 27//18
f 27//18 29//18 31//18
f 31//18 3//18 15//18
f 3//18 7//18 15//18
f 23//18 27//18 31//18
