# Blender v2.83.0 OBJ File: ''
# www.blender.org
o Cylinder.339_Cylinder.1768
v -0.208311 2.331209 0.295397
v 0.086154 0.411324 0.772189
v -0.451880 2.122311 -0.395340
v -0.157415 0.202425 0.081453
v -0.949711 1.912616 -0.932252
v -0.655246 -0.007269 -0.455459
v -1.626014 1.734050 -1.233598
v -1.331549 -0.185835 -0.756805
v -2.377828 1.613796 -1.253502
v -2.083363 -0.306089 -0.776709
v -3.090696 1.570163 -0.988933
v -2.796231 -0.349722 -0.512140
v -3.656090 1.609794 -0.480170
v -3.361626 -0.310091 -0.003377
v -3.987935 1.726654 0.195333
v -3.693470 -0.193231 0.672126
v -4.035710 1.902953 0.934736
v -3.741245 -0.016932 1.411529
v -3.792141 2.111851 1.625473
v -3.497676 0.191966 2.102266
v -3.294310 2.321546 2.162384
v -2.999846 0.401661 2.639177
v -2.618007 2.500112 2.463731
v -2.323542 0.580227 2.940524
v -1.866193 2.620366 2.483635
v -1.571728 0.700481 2.960428
v -1.153324 2.663999 2.219066
v -0.858859 0.744114 2.695859
v -0.587929 2.624368 1.710302
v -0.293465 0.704483 2.187095
v -0.256085 2.507508 1.034799
v 0.038380 0.587623 1.511592
vn 0.9360 0.0573 -0.3474
vn 0.7423 -0.0520 -0.6680
vn 0.4357 -0.1534 -0.8869
vn 0.0627 -0.2315 -0.9708
vn -0.3198 -0.2743 -0.9069
vn -0.6536 -0.2753 -0.7049
vn -0.8880 -0.2345 -0.3957
vn -0.9871 -0.1579 -0.0261
vn -0.9360 -0.0573 0.3474
vn -0.7423 0.0520 0.6680
vn -0.4357 0.1534 0.8869
vn -0.0627 0.2315 0.9708
vn 0.3198 0.2743 0.9069
vn 0.6536 0.2753 0.7049
vn 0.1472 -0.9599 0.2384
vn 0.8880 0.2345 0.3957
vn 0.9871 0.1579 0.0261
vn -0.1472 0.9599 -0.2384
s off
f 2//1 3//1 1//1
f 4//2 5//2 3//2
f 6//3 7//3 5//3
f 8//4 9//4 7//4
f 9//5 12//5 11//5
f 12//6 13//6 11//6
f 14//7 15//7 13//7
f 16//8 17//8 15//8
f 18//9 19//9 17//9
f 20//10 21//10 19//10
f 22//11 23//11 21//11
f 24//12 25//12 23//12
f 26//13 27//13 25//13
f 28//14 29//14 27//14
f 30//15 22//15 14//15
f 30//16 31//16 29//16
f 32//17 1//17 31//17
f 23//18 27//18 31//18
f 2//1 4//1 3//1
f 4//2 6//2 5//2
f 6//3 8//3 7//3
f 8//4 10//4 9//4
f 9//5 10//5 12//5
f 12//6 14//6 13//6
f 14//7 16//7 15//7
f 16//8 18//8 17//8
f 18//9 20//9 19//9
f 20//10 22//10 21//10
f 22//11 24//11 23//11
f 24//12 26//12 25//12
f 26//13 28//13 27//13
f 28//14 30//14 29//14
f 6//15 4//15 2//15
f 2//15 32//15 30//15
f 30//15 28//15 26//15
f 26//15 24//15 22//15
f 22//15 20//15 18//15
f 18//15 16//15 22//15
f 16//15 14//15 22//15
f 14//15 12//15 6//15
f 12//15 10//15 6//15
f 10//15 8//15 6//15
f 6//15 2//15 30//15
f 30//15 26//15 22//15
f 6//15 30//15 14//15
f 30//16 32//16 31//16
f 32//17 2//17 1//17
f 31//18 1//18 3//18
f 3//18 5//18 7//18
f 7//18 9//18 11//18
f 11//18 13//18 7//18
f 13//18 15//18 7//18
f 15//18 17//18 19//18
f 19//18 21//18 23//18
f 23//18 25//18 27//18
f 27//18 29//18 31//18
f 31//18 3//18 15//18
f 3//18 7//18 15//18
f 15//18 19//18 31//18
f 19//18 23//18 31//18
