# Blender v2.83.0 OBJ File: ''
# www.blender.org
o Cylinder.185_Cylinder.1614
v -2.867657 -1.912600 -1.130810
v -2.993402 -2.378629 0.810067
v -3.025388 -1.504716 -1.043091
v -3.151134 -1.970745 0.897786
v -3.011815 -1.071414 -0.938170
v -3.137560 -1.537443 1.002707
v -2.829003 -0.678660 -0.832021
v -2.954748 -1.144689 1.108856
v -2.504784 -0.386248 -0.740804
v -2.630529 -0.852278 1.200073
v -2.088518 -0.238695 -0.678405
v -2.214263 -0.704724 1.262472
v -1.643577 -0.258464 -0.654325
v -1.769322 -0.724493 1.286552
v -1.237699 -0.442545 -0.672230
v -1.363445 -0.908575 1.268647
v -0.932677 -0.762915 -0.729393
v -1.058422 -1.228944 1.211484
v -0.774945 -1.170799 -0.817112
v -0.900691 -1.636828 1.123765
v -0.788519 -1.604100 -0.922032
v -0.914264 -2.070130 1.018845
v -0.971331 -1.996854 -1.028182
v -1.097076 -2.462883 0.912695
v -1.295550 -2.289266 -1.119399
v -1.421295 -2.755295 0.821478
v -1.711816 -2.436819 -1.181797
v -1.837561 -2.902849 0.759080
v -2.156757 -2.417050 -1.205877
v -2.282502 -2.883080 0.735000
v -2.562635 -2.232969 -1.187973
v -2.688380 -2.698998 0.752904
vn -0.9333 -0.3308 -0.1399
vn -0.9976 0.0443 -0.0540
vn -0.9100 0.4127 0.0401
vn -0.6839 0.7183 0.1282
vn -0.3536 0.9145 0.1967
vn 0.0304 0.9715 0.2352
vn 0.4099 0.8806 0.2380
vn 0.7269 0.6556 0.2045
vn 0.9333 0.3308 0.1399
vn 0.9976 -0.0443 0.0540
vn 0.9100 -0.4127 -0.0401
vn 0.6839 -0.7183 -0.1282
vn 0.3536 -0.9145 -0.1967
vn -0.0304 -0.9715 -0.2352
vn -0.0629 -0.2330 0.9704
vn -0.4099 -0.8806 -0.2380
vn -0.7269 -0.6556 -0.2045
vn 0.0629 0.2330 -0.9704
s off
f 2//1 3//1 1//1
f 4//2 5//2 3//2
f 6//3 7//3 5//3
f 8//4 9//4 7//4
f 10//5 11//5 9//5
f 12//6 13//6 11//6
f 14//7 15//7 13//7
f 16//8 17//8 15//8
f 18//9 19//9 17//9
f 20//10 21//10 19//10
f 22//11 23//11 21//11
f 24//12 25//12 23//12
f 26//13 27//13 25//13
f 28//14 29//14 27//14
f 30//15 22//15 14//15
f 30//16 31//16 29//16
f 32//17 1//17 31//17
f 27//18 31//18 15//18
f 2//1 4//1 3//1
f 4//2 6//2 5//2
f 6//3 8//3 7//3
f 8//4 10//4 9//4
f 10//5 12//5 11//5
f 12//6 14//6 13//6
f 14//7 16//7 15//7
f 16//8 18//8 17//8
f 18//9 20//9 19//9
f 20//10 22//10 21//10
f 22//11 24//11 23//11
f 24//12 26//12 25//12
f 26//13 28//13 27//13
f 28//14 30//14 29//14
f 6//15 4//15 2//15
f 2//15 32//15 30//15
f 30//15 28//15 22//15
f 28//15 26//15 22//15
f 26//15 24//15 22//15
f 22//15 20//15 18//15
f 18//15 16//15 14//15
f 14//15 12//15 10//15
f 10//15 8//15 6//15
f 6//15 2//15 30//15
f 22//15 18//15 14//15
f 14//15 10//15 6//15
f 6//15 30//15 14//15
f 30//16 32//16 31//16
f 32//17 2//17 1//17
f 31//18 1//18 7//18
f 1//18 3//18 7//18
f 3//18 5//18 7//18
f 7//18 9//18 11//18
f 11//18 13//18 15//18
f 15//18 17//18 19//18
f 19//18 21//18 15//18
f 21//18 23//18 15//18
f 23//18 25//18 27//18
f 27//18 29//18 31//18
f 7//18 11//18 31//18
f 11//18 15//18 31//18
f 23//18 27//18 15//18
