# Blender v2.83.0 OBJ File: ''
# www.blender.org
o Cylinder.351_Cylinder.1780
v -1.546020 0.421662 0.289982
v -1.230403 -1.245722 1.348385
v -1.773203 0.384194 0.298701
v -1.457585 -1.283190 1.357105
v -1.987898 0.396112 0.381500
v -1.672280 -1.271271 1.439903
v -2.157420 0.455603 0.525773
v -1.841802 -1.211780 1.584176
v -2.255962 0.553610 0.709555
v -1.940344 -1.113774 1.767959
v -2.268520 0.675211 0.904868
v -1.952903 -0.992173 1.963271
v -2.193184 0.801894 1.081976
v -1.877567 -0.865489 2.140380
v -2.041423 0.914373 1.213918
v -1.725805 -0.753010 2.272321
v -1.836340 0.995524 1.280605
v -1.520722 -0.671859 2.339008
v -1.609158 1.032992 1.271885
v -1.293540 -0.634391 2.330289
v -1.394463 1.021074 1.189086
v -1.078845 -0.646310 2.247490
v -1.224940 0.961583 1.044814
v -0.909322 -0.705801 2.103217
v -1.126398 0.863576 0.861031
v -0.810781 -0.803807 1.919435
v -1.113840 0.741975 0.665719
v -0.798222 -0.925409 1.724122
v -1.189176 0.615292 0.488610
v -0.873558 -1.052092 1.547013
v -1.340938 0.502812 0.356669
v -1.025320 -1.164571 1.415072
vn 0.0545 -0.5277 -0.8477
vn -0.3270 -0.5498 -0.7686
vn -0.6586 -0.4882 -0.5726
vn -0.8901 -0.3522 -0.2894
vn -0.9860 -0.1626 0.0378
vn -0.9318 0.0517 0.3593
vn -0.7357 0.2582 0.6261
vn -0.4277 0.4253 0.7976
vn -0.0545 0.5277 0.8477
vn 0.3270 0.5498 0.7686
vn 0.6586 0.4882 0.5726
vn 0.8901 0.3522 0.2894
vn 0.9860 0.1626 -0.0378
vn 0.9318 -0.0517 -0.3593
vn 0.1578 -0.8337 0.5292
vn 0.7357 -0.2582 -0.6261
vn 0.4277 -0.4253 -0.7976
vn -0.1578 0.8337 -0.5292
s off
f 2//1 3//1 1//1
f 4//2 5//2 3//2
f 6//3 7//3 5//3
f 8//4 9//4 7//4
f 10//5 11//5 9//5
f 12//6 13//6 11//6
f 14//7 15//7 13//7
f 16//8 17//8 15//8
f 18//9 19//9 17//9
f 20//10 21//10 19//10
f 22//11 23//11 21//11
f 24//12 25//12 23//12
f 26//13 27//13 25//13
f 28//14 29//14 27//14
f 22//15 14//15 6//15
f 30//16 31//16 29//16
f 32//17 1//17 31//17
f 15//18 23//18 31//18
f 2//1 4//1 3//1
f 4//2 6//2 5//2
f 6//3 8//3 7//3
f 8//4 10//4 9//4
f 10//5 12//5 11//5
f 12//6 14//6 13//6
f 14//7 16//7 15//7
f 16//8 18//8 17//8
f 18//9 20//9 19//9
f 20//10 22//10 21//10
f 22//11 24//11 23//11
f 24//12 26//12 25//12
f 26//13 28//13 27//13
f 28//14 30//14 29//14
f 6//15 4//15 2//15
f 2//15 32//15 30//15
f 30//15 28//15 26//15
f 26//15 24//15 22//15
f 22//15 20//15 18//15
f 18//15 16//15 14//15
f 14//15 12//15 10//15
f 10//15 8//15 6//15
f 6//15 2//15 30//15
f 30//15 26//15 6//15
f 26//15 22//15 6//15
f 22//15 18//15 14//15
f 14//15 10//15 6//15
f 30//16 32//16 31//16
f 32//17 2//17 1//17
f 31//18 1//18 7//18
f 1//18 3//18 7//18
f 3//18 5//18 7//18
f 7//18 9//18 11//18
f 11//18 13//18 7//18
f 13//18 15//18 7//18
f 15//18 17//18 23//18
f 17//18 19//18 23//18
f 19//18 21//18 23//18
f 23//18 25//18 27//18
f 27//18 29//18 31//18
f 23//18 27//18 31//18
f 31//18 7//18 15//18
