# Blender v2.83.0 OBJ File: ''
# www.blender.org
o Cylinder.107_Cylinder.1536
v 0.627951 1.156228 -2.899472
v -0.270400 2.910254 -3.240586
v 0.972052 1.427721 -2.409657
v 0.073702 3.181747 -2.750772
v 1.107849 1.616812 -1.794974
v 0.209499 3.370838 -2.136088
v 1.014669 1.694714 -1.149002
v 0.116319 3.448740 -1.490115
v 0.706697 1.649566 -0.570083
v -0.191653 3.403592 -0.911197
v 0.230818 1.488243 -0.146353
v -0.667532 3.242269 -0.487467
v -0.340518 1.235304 0.057678
v -1.238868 2.989330 -0.283436
v -0.920331 0.929256 0.010949
v -1.818681 2.683282 -0.330165
v -1.420350 0.616693 -0.279426
v -2.318700 2.370719 -0.620540
v -1.764452 0.345200 -0.769240
v -2.662802 2.099226 -1.110353
v -1.900249 0.156109 -1.383923
v -2.798599 1.910136 -1.725037
v -1.807069 0.078208 -2.029896
v -2.705419 1.832234 -2.371010
v -1.499096 0.123355 -2.608815
v -2.397447 1.877381 -2.949929
v -1.023218 0.284679 -3.032544
v -1.921568 2.038705 -3.373658
v -0.451881 0.537618 -3.236576
v -1.350232 2.291644 -3.577689
v 0.127932 0.843666 -3.189847
v -0.770418 2.597692 -3.530961
vn 0.7240 0.2454 -0.6447
vn 0.8692 0.3848 -0.3104
vn 0.8821 0.4656 0.0711
vn 0.7607 0.4755 0.4418
vn 0.5235 0.4130 0.7452
vn 0.2066 0.2877 0.9352
vn -0.1418 0.1185 0.9828
vn -0.4685 -0.0687 0.8808
vn -0.7240 -0.2454 0.6447
vn -0.8692 -0.3848 0.3104
vn -0.8821 -0.4656 -0.0711
vn -0.7607 -0.4755 -0.4418
vn -0.5235 -0.4130 -0.7452
vn -0.2066 -0.2877 -0.9352
vn -0.4492 0.8770 -0.1706
vn 0.1418 -0.1185 -0.9828
vn 0.4685 0.0687 -0.8808
vn 0.4492 -0.8770 0.1706
s off
f 1//1 4//1 3//1
f 4//2 5//2 3//2
f 6//3 7//3 5//3
f 8//4 9//4 7//4
f 10//5 11//5 9//5
f 12//6 13//6 11//6
f 14//7 15//7 13//7
f 16//8 17//8 15//8
f 18//9 19//9 17//9
f 20//10 21//10 19//10
f 22//11 23//11 21//11
f 24//12 25//12 23//12
f 26//13 27//13 25//13
f 28//14 29//14 27//14
f 18//15 14//15 6//15
f 30//16 31//16 29//16
f 32//17 1//17 31//17
f 15//18 23//18 31//18
f 1//1 2//1 4//1
f 4//2 6//2 5//2
f 6//3 8//3 7//3
f 8//4 10//4 9//4
f 10//5 12//5 11//5
f 12//6 14//6 13//6
f 14//7 16//7 15//7
f 16//8 18//8 17//8
f 18//9 20//9 19//9
f 20//10 22//10 21//10
f 22//11 24//11 23//11
f 24//12 26//12 25//12
f 26//13 28//13 27//13
f 28//14 30//14 29//14
f 6//15 4//15 30//15
f 4//15 2//15 30//15
f 2//15 32//15 30//15
f 30//15 28//15 26//15
f 26//15 24//15 22//15
f 22//15 20//15 18//15
f 18//15 16//15 14//15
f 14//15 12//15 10//15
f 10//15 8//15 14//15
f 8//15 6//15 14//15
f 30//15 26//15 6//15
f 26//15 22//15 6//15
f 22//15 18//15 6//15
f 30//16 32//16 31//16
f 32//17 2//17 1//17
f 31//18 1//18 3//18
f 3//18 5//18 7//18
f 7//18 9//18 11//18
f 11//18 13//18 15//18
f 15//18 17//18 19//18
f 19//18 21//18 15//18
f 21//18 23//18 15//18
f 23//18 25//18 27//18
f 27//18 29//18 31//18
f 31//18 3//18 7//18
f 7//18 11//18 31//18
f 11//18 15//18 31//18
f 23//18 27//18 31//18
