# Blender v2.83.0 OBJ File: ''
# www.blender.org
o Cylinder.282_Cylinder.1711
v -1.062331 -1.436654 -0.482288
v -0.863428 -0.004394 -1.863978
v -1.040720 -1.974908 -1.037131
v -0.841817 -0.542647 -2.418821
v -0.726398 -2.487592 -1.523331
v -0.527495 -1.055332 -2.905021
v -0.167218 -2.896657 -1.866870
v 0.031685 -1.464396 -3.248560
v 0.551691 -3.139823 -2.015445
v 0.750594 -1.707563 -3.397136
v 1.320881 -3.180074 -1.946439
v 1.519784 -1.747813 -3.328129
v 2.023249 -3.011280 -1.670357
v 2.222152 -1.579019 -3.052047
v 2.551867 -2.659138 -1.229229
v 2.750770 -1.226878 -2.610919
v 2.826257 -2.177260 -0.690213
v 3.025160 -0.744999 -2.071903
v 2.804647 -1.639006 -0.135371
v 3.003550 -0.206746 -1.517061
v 2.490325 -1.126322 0.350830
v 2.689228 0.305939 -1.030860
v 1.931145 -0.717257 0.694368
v 2.130048 0.715003 -0.687322
v 1.212236 -0.474090 0.842944
v 1.411139 0.958170 -0.538746
v 0.443046 -0.433840 0.773938
v 0.641949 0.998420 -0.607752
v -0.259323 -0.602634 0.497855
v -0.060420 0.829626 -0.883835
v -0.787941 -0.954776 0.056727
v -0.589038 0.477484 -1.324963
vn -0.9946 0.0520 -0.0892
vn -0.9082 -0.2183 -0.3570
vn -0.6836 -0.4554 -0.5704
vn -0.3548 -0.6231 -0.6970
vn 0.0279 -0.6960 -0.7175
vn 0.4065 -0.6630 -0.6287
vn 0.7231 -0.5290 -0.4442
vn 0.9296 -0.3144 -0.1921
vn 0.9946 -0.0520 0.0892
vn 0.9082 0.2183 0.3570
vn 0.6836 0.4554 0.5704
vn 0.3548 0.6231 0.6970
vn -0.0279 0.6960 0.7175
vn -0.4065 0.6630 0.6287
vn 0.0995 0.7161 -0.6908
vn -0.7231 0.5290 0.4442
vn -0.9296 0.3144 0.1921
vn -0.0995 -0.7161 0.6908
vn 0.0994 0.7161 -0.6908
s off
f 2//1 3//1 1//1
f 4//2 5//2 3//2
f 6//3 7//3 5//3
f 8//4 9//4 7//4
f 10//5 11//5 9//5
f 12//6 13//6 11//6
f 14//7 15//7 13//7
f 16//8 17//8 15//8
f 18//9 19//9 17//9
f 20//10 21//10 19//10
f 22//11 23//11 21//11
f 24//12 25//12 23//12
f 26//13 27//13 25//13
f 28//14 29//14 27//14
f 30//15 22//15 14//15
f 30//16 31//16 29//16
f 32//17 1//17 31//17
f 31//18 7//18 15//18
f 2//1 4//1 3//1
f 4//2 6//2 5//2
f 6//3 8//3 7//3
f 8//4 10//4 9//4
f 10//5 12//5 11//5
f 12//6 14//6 13//6
f 14//7 16//7 15//7
f 16//8 18//8 17//8
f 18//9 20//9 19//9
f 20//10 22//10 21//10
f 22//11 24//11 23//11
f 24//12 26//12 25//12
f 26//13 28//13 27//13
f 28//14 30//14 29//14
f 6//19 4//19 2//19
f 2//15 32//15 6//15
f 32//15 30//15 6//15
f 30//15 28//15 26//15
f 26//15 24//15 22//15
f 22//15 20//15 14//15
f 20//15 18//15 14//15
f 18//15 16//15 14//15
f 14//15 12//15 10//15
f 10//15 8//15 6//15
f 30//15 26//15 22//15
f 14//15 10//15 6//15
f 6//15 30//15 14//15
f 30//16 32//16 31//16
f 32//17 2//17 1//17
f 31//18 1//18 3//18
f 3//18 5//18 31//18
f 5//18 7//18 31//18
f 7//18 9//18 11//18
f 11//18 13//18 7//18
f 13//18 15//18 7//18
f 15//18 17//18 23//18
f 17//18 19//18 23//18
f 19//18 21//18 23//18
f 23//18 25//18 27//18
f 27//18 29//18 31//18
f 23//18 27//18 15//18
f 27//18 31//18 15//18
