# Blender v2.83.0 OBJ File: ''
# www.blender.org
o Cylinder.134_Cylinder.1563
v 0.055198 1.263135 0.592750
v -0.244100 -0.636249 1.142987
v 0.616069 1.224969 0.766087
v 0.316770 -0.674415 1.316324
v 1.193224 1.120731 0.720206
v 0.893925 -0.778652 1.270442
v 1.698797 0.966291 0.462091
v 1.399498 -0.933093 1.012327
v 2.055818 0.785160 0.031039
v 1.756519 -1.114223 0.581275
v 2.209934 0.604915 -0.507328
v 1.910635 -1.294469 0.042909
v 2.137683 0.452995 -1.071046
v 1.838384 -1.446389 -0.520810
v 1.850065 0.352530 -1.574296
v 1.550766 -1.546854 -1.024060
v 1.390865 0.318813 -1.940462
v 1.091566 -1.580570 -1.390226
v 0.829994 0.356979 -2.113799
v 0.530696 -1.542404 -1.563563
v 0.252840 0.461217 -2.067918
v -0.046459 -1.438167 -1.517681
v -0.252733 0.615657 -1.809803
v -0.552032 -1.283726 -1.259567
v -0.609754 0.796788 -1.378750
v -0.909053 -1.102596 -0.828514
v -0.763871 0.977034 -0.840384
v -1.063169 -0.922350 -0.290148
v -0.691620 1.128953 -0.276665
v -0.990918 -0.770430 0.273571
v -0.404001 1.229419 0.226585
v -0.703299 -0.669965 0.776821
vn -0.2620 0.3064 0.9151
vn 0.1228 0.2582 0.9582
vn 0.4889 0.1708 0.8555
vn 0.7806 0.0573 0.6224
vn 0.9534 -0.0649 0.2946
vn 0.9811 -0.1772 -0.0780
vn 0.8594 -0.2625 -0.4388
vn 0.6069 -0.3079 -0.7327
vn 0.2620 -0.3064 -0.9151
vn -0.1228 -0.2582 -0.9582
vn -0.4889 -0.1708 -0.8555
vn -0.7806 -0.0573 -0.6224
vn -0.9534 0.0649 -0.2946
vn -0.9811 0.1772 0.0780
vn -0.1496 -0.9497 0.2751
vn -0.8594 0.2625 0.4388
vn -0.6069 0.3079 0.7327
vn 0.1496 0.9497 -0.2751
s off
f 2//1 3//1 1//1
f 4//2 5//2 3//2
f 6//3 7//3 5//3
f 8//4 9//4 7//4
f 10//5 11//5 9//5
f 12//6 13//6 11//6
f 14//7 15//7 13//7
f 16//8 17//8 15//8
f 18//9 19//9 17//9
f 20//10 21//10 19//10
f 22//11 23//11 21//11
f 24//12 25//12 23//12
f 26//13 27//13 25//13
f 28//14 29//14 27//14
f 22//15 14//15 6//15
f 30//16 31//16 29//16
f 32//17 1//17 31//17
f 15//18 23//18 31//18
f 2//1 4//1 3//1
f 4//2 6//2 5//2
f 6//3 8//3 7//3
f 8//4 10//4 9//4
f 10//5 12//5 11//5
f 12//6 14//6 13//6
f 14//7 16//7 15//7
f 16//8 18//8 17//8
f 18//9 20//9 19//9
f 20//10 22//10 21//10
f 22//11 24//11 23//11
f 24//12 26//12 25//12
f 26//13 28//13 27//13
f 28//14 30//14 29//14
f 6//15 4//15 30//15
f 4//15 2//15 30//15
f 2//15 32//15 30//15
f 30//15 28//15 26//15
f 26//15 24//15 22//15
f 22//15 20//15 14//15
f 20//15 18//15 14//15
f 18//15 16//15 14//15
f 14//15 12//15 10//15
f 10//15 8//15 6//15
f 30//15 26//15 6//15
f 26//15 22//15 6//15
f 14//15 10//15 6//15
f 30//16 32//16 31//16
f 32//17 2//17 1//17
f 31//18 1//18 7//18
f 1//18 3//18 7//18
f 3//18 5//18 7//18
f 7//18 9//18 11//18
f 11//18 13//18 15//18
f 15//18 17//18 19//18
f 19//18 21//18 23//18
f 23//18 25//18 31//18
f 25//18 27//18 31//18
f 27//18 29//18 31//18
f 7//18 11//18 15//18
f 15//18 19//18 23//18
f 31//18 7//18 15//18
