# Blender v2.83.0 OBJ File: ''
# www.blender.org
o Cylinder.278_Cylinder.1707
v -1.702275 0.681788 0.301581
v -2.837225 1.890373 1.420157
v -1.772295 0.775644 0.129127
v -2.907246 1.984229 1.247703
v -1.777017 0.914793 -0.026010
v -2.911968 2.123378 1.092566
v -1.715722 1.078051 -0.140212
v -2.850672 2.286636 0.978364
v -1.597741 1.240562 -0.196092
v -2.732691 2.449147 0.922484
v -1.441035 1.377587 -0.185144
v -2.575985 2.586172 0.933432
v -1.269463 1.468265 -0.109033
v -2.404413 2.676850 1.009542
v -1.109144 1.498789 0.020652
v -2.244094 2.707374 1.139227
v -0.984485 1.464515 0.184168
v -2.119435 2.673100 1.302744
v -0.914464 1.370658 0.356622
v -2.049415 2.579243 1.475198
v -0.909743 1.231509 0.511759
v -2.044693 2.440094 1.630335
v -0.971038 1.068252 0.625961
v -2.105988 2.276837 1.744537
v -1.089019 0.905740 0.681841
v -2.223969 2.114325 1.800417
v -1.245725 0.768715 0.670893
v -2.380675 1.977300 1.789469
v -1.417297 0.678038 0.594783
v -2.552248 1.886623 1.713358
v -1.577617 0.647513 0.465097
v -2.712567 1.856098 1.583673
vn -0.7518 -0.6573 -0.0525
vn -0.8231 -0.4350 -0.3651
vn -0.7691 -0.1464 -0.6221
vn -0.5980 0.1644 -0.7844
vn -0.3359 0.4503 -0.8273
vn -0.0227 0.6675 -0.7442
vn 0.2941 0.7832 -0.5479
vn 0.5660 0.7796 -0.2681
vn 0.7518 0.6573 0.0525
vn 0.8231 0.4350 0.3651
vn 0.7691 0.1464 0.6221
vn 0.5980 -0.1644 0.7844
vn 0.3359 -0.4503 0.8273
vn 0.0227 -0.6675 0.7442
vn -0.5675 0.6043 0.5593
vn -0.2941 -0.7832 0.5479
vn -0.5660 -0.7796 0.2681
vn 0.5675 -0.6043 -0.5593
s off
f 2//1 3//1 1//1
f 4//2 5//2 3//2
f 6//3 7//3 5//3
f 8//4 9//4 7//4
f 10//5 11//5 9//5
f 12//6 13//6 11//6
f 14//7 15//7 13//7
f 16//8 17//8 15//8
f 18//9 19//9 17//9
f 20//10 21//10 19//10
f 22//11 23//11 21//11
f 24//12 25//12 23//12
f 26//13 27//13 25//13
f 28//14 29//14 27//14
f 30//15 22//15 14//15
f 30//16 31//16 29//16
f 32//17 1//17 31//17
f 15//18 23//18 31//18
f 2//1 4//1 3//1
f 4//2 6//2 5//2
f 6//3 8//3 7//3
f 8//4 10//4 9//4
f 10//5 12//5 11//5
f 12//6 14//6 13//6
f 14//7 16//7 15//7
f 16//8 18//8 17//8
f 18//9 20//9 19//9
f 20//10 22//10 21//10
f 22//11 24//11 23//11
f 24//12 26//12 25//12
f 26//13 28//13 27//13
f 28//14 30//14 29//14
f 6//15 4//15 2//15
f 2//15 32//15 30//15
f 30//15 28//15 26//15
f 26//15 24//15 22//15
f 22//15 20//15 18//15
f 18//15 16//15 14//15
f 14//15 12//15 10//15
f 10//15 8//15 14//15
f 8//15 6//15 14//15
f 6//15 2//15 30//15
f 30//15 26//15 22//15
f 22//15 18//15 14//15
f 6//15 30//15 14//15
f 30//16 32//16 31//16
f 32//17 2//17 1//17
f 31//18 1//18 7//18
f 1//18 3//18 7//18
f 3//18 5//18 7//18
f 7//18 9//18 15//18
f 9//18 11//18 15//18
f 11//18 13//18 15//18
f 15//18 17//18 23//18
f 17//18 19//18 23//18
f 19//18 21//18 23//18
f 23//18 25//18 31//18
f 25//18 27//18 31//18
f 27//18 29//18 31//18
f 31//18 7//18 15//18
