# Blender v2.83.0 OBJ File: ''
# www.blender.org
o Cylinder.249_Cylinder.1678
v -3.057209 0.472705 -0.916105
v -2.287789 -0.721758 0.491464
v -2.513876 0.983629 -0.779538
v -1.744456 -0.210834 0.628031
v -1.843083 1.329433 -0.852765
v -1.073663 0.134970 0.554805
v -1.146953 1.457471 -1.124637
v -0.377533 0.263008 0.282932
v -0.531466 1.348250 -1.553766
v 0.237954 0.153787 -0.146197
v -0.090323 1.018399 -2.074820
v 0.679097 -0.176064 -0.667250
v 0.109314 0.518135 -2.608472
v 0.878734 -0.676328 -1.200903
v 0.037055 -0.076383 -3.073480
v 0.806475 -1.270846 -1.665911
v -0.296102 -0.674643 -3.399050
v 0.473318 -1.869106 -1.991481
v -0.839435 -1.185567 -3.535618
v -0.070015 -2.380030 -2.128049
v -1.510228 -1.531371 -3.462391
v -0.740808 -2.725834 -2.054822
v -2.206358 -1.659409 -3.190519
v -1.436938 -2.853872 -1.782949
v -2.821846 -1.550189 -2.761390
v -2.052426 -2.744652 -1.353821
v -3.262989 -1.220338 -2.240336
v -2.493568 -2.414800 -0.832767
v -3.462626 -0.720073 -1.706683
v -2.693206 -1.914536 -0.299114
v -3.390366 -0.125555 -1.241675
v -2.620946 -1.320018 0.165894
vn -0.5818 0.4350 0.6872
vn -0.2633 0.6598 0.7038
vn 0.0953 0.7841 0.6133
vn 0.4394 0.7890 0.4294
vn 0.7166 0.6738 0.1801
vn 0.8847 0.4561 -0.0966
vn 0.9181 0.1689 -0.3586
vn 0.8117 -0.1440 -0.5660
vn 0.5818 -0.4350 -0.6872
vn 0.2633 -0.6598 -0.7038
vn -0.0953 -0.7841 -0.6133
vn -0.4394 -0.7890 -0.4294
vn -0.7166 -0.6738 -0.1801
vn -0.8847 -0.4561 0.0966
vn 0.3847 -0.5972 0.7038
vn -0.9181 -0.1689 0.3586
vn -0.8117 0.1440 0.5660
vn -0.3847 0.5972 -0.7038
s off
f 2//1 3//1 1//1
f 4//2 5//2 3//2
f 6//3 7//3 5//3
f 8//4 9//4 7//4
f 10//5 11//5 9//5
f 12//6 13//6 11//6
f 14//7 15//7 13//7
f 15//8 18//8 17//8
f 18//9 19//9 17//9
f 20//10 21//10 19//10
f 22//11 23//11 21//11
f 24//12 25//12 23//12
f 26//13 27//13 25//13
f 28//14 29//14 27//14
f 30//15 22//15 14//15
f 30//16 31//16 29//16
f 32//17 1//17 31//17
f 31//18 7//18 15//18
f 2//1 4//1 3//1
f 4//2 6//2 5//2
f 6//3 8//3 7//3
f 8//4 10//4 9//4
f 10//5 12//5 11//5
f 12//6 14//6 13//6
f 14//7 16//7 15//7
f 15//8 16//8 18//8
f 18//9 20//9 19//9
f 20//10 22//10 21//10
f 22//11 24//11 23//11
f 24//12 26//12 25//12
f 26//13 28//13 27//13
f 28//14 30//14 29//14
f 6//15 4//15 30//15
f 4//15 2//15 30//15
f 2//15 32//15 30//15
f 30//15 28//15 26//15
f 26//15 24//15 22//15
f 22//15 20//15 18//15
f 18//15 16//15 14//15
f 14//15 12//15 10//15
f 10//15 8//15 6//15
f 30//15 26//15 22//15
f 22//15 18//15 14//15
f 14//15 10//15 6//15
f 6//15 30//15 14//15
f 30//16 32//16 31//16
f 32//17 2//17 1//17
f 31//18 1//18 3//18
f 3//18 5//18 7//18
f 7//18 9//18 11//18
f 11//18 13//18 7//18
f 13//18 15//18 7//18
f 15//18 17//18 19//18
f 19//18 21//18 23//18
f 23//18 25//18 27//18
f 27//18 29//18 31//18
f 31//18 3//18 7//18
f 15//18 19//18 23//18
f 23//18 27//18 15//18
f 27//18 31//18 15//18
