# Blender v2.83.0 OBJ File: ''
# www.blender.org
o Cylinder.280_Cylinder.1709
v 1.728288 -0.475491 0.991556
v 1.715950 -0.714847 -0.994031
v 1.420946 0.155146 0.917444
v 1.408608 -0.084210 -1.068143
v 0.894009 0.621187 0.864538
v 0.881671 0.381830 -1.121048
v 0.227700 0.851680 0.840894
v 0.215362 0.612324 -1.144693
v -0.476544 0.811537 0.850109
v -0.488882 0.572180 -1.135478
v -1.111506 0.506866 0.890782
v -1.123844 0.267510 -1.094805
v -1.580519 -0.015946 0.956719
v -1.592857 -0.255303 -1.028867
v -1.812182 -0.677308 1.037884
v -1.824520 -0.916665 -0.947703
v -1.771224 -1.376533 1.121919
v -1.783562 -1.615890 -0.863668
v -1.463882 -2.007171 1.196031
v -1.476220 -2.246527 -0.789556
v -0.936946 -2.473211 1.248936
v -0.949284 -2.712568 -0.736651
v -0.270636 -2.703705 1.272581
v -0.282974 -2.943062 -0.713006
v 0.433608 -2.663561 1.263366
v 0.421269 -2.902918 -0.722221
v 1.068570 -2.358891 1.222693
v 1.056232 -2.598247 -0.762894
v 1.537584 -1.836078 1.156755
v 1.525246 -2.075434 -0.828832
v 1.769246 -1.174715 1.075590
v 1.756908 -1.414072 -0.909996
vn 0.9001 0.4319 -0.0577
vn 0.6648 0.7411 -0.0935
vn 0.3284 0.9375 -0.1151
vn -0.0581 0.9912 -0.1191
vn -0.4357 0.8940 -0.1051
vn -0.7470 0.6606 -0.0750
vn -0.9445 0.3267 -0.0335
vn -0.9983 -0.0569 0.0131
vn -0.9001 -0.4319 0.0577
vn -0.6648 -0.7411 0.0935
vn -0.3284 -0.9375 0.1151
vn 0.0581 -0.9912 0.1191
vn 0.4357 -0.8940 0.1051
vn 0.7470 -0.6606 0.0750
vn -0.0062 -0.1197 -0.9928
vn 0.9445 -0.3267 0.0335
vn 0.9983 0.0569 -0.0131
vn 0.0062 0.1197 0.9928
s off
f 2//1 3//1 1//1
f 4//2 5//2 3//2
f 6//3 7//3 5//3
f 8//4 9//4 7//4
f 10//5 11//5 9//5
f 12//6 13//6 11//6
f 14//7 15//7 13//7
f 16//8 17//8 15//8
f 18//9 19//9 17//9
f 20//10 21//10 19//10
f 22//11 23//11 21//11
f 24//12 25//12 23//12
f 26//13 27//13 25//13
f 28//14 29//14 27//14
f 30//15 22//15 14//15
f 30//16 31//16 29//16
f 32//17 1//17 31//17
f 15//18 23//18 31//18
f 2//1 4//1 3//1
f 4//2 6//2 5//2
f 6//3 8//3 7//3
f 8//4 10//4 9//4
f 10//5 12//5 11//5
f 12//6 14//6 13//6
f 14//7 16//7 15//7
f 16//8 18//8 17//8
f 18//9 20//9 19//9
f 20//10 22//10 21//10
f 22//11 24//11 23//11
f 24//12 26//12 25//12
f 26//13 28//13 27//13
f 28//14 30//14 29//14
f 6//15 4//15 30//15
f 4//15 2//15 30//15
f 2//15 32//15 30//15
f 30//15 28//15 22//15
f 28//15 26//15 22//15
f 26//15 24//15 22//15
f 22//15 20//15 14//15
f 20//15 18//15 14//15
f 18//15 16//15 14//15
f 14//15 12//15 10//15
f 10//15 8//15 14//15
f 8//15 6//15 14//15
f 6//15 30//15 14//15
f 30//16 32//16 31//16
f 32//17 2//17 1//17
f 31//18 1//18 3//18
f 3//18 5//18 7//18
f 7//18 9//18 11//18
f 11//18 13//18 15//18
f 15//18 17//18 19//18
f 19//18 21//18 23//18
f 23//18 25//18 27//18
f 27//18 29//18 31//18
f 31//18 3//18 7//18
f 7//18 11//18 15//18
f 15//18 19//18 23//18
f 23//18 27//18 31//18
f 31//18 7//18 15//18
