# Blender v2.83.0 OBJ File: ''
# www.blender.org
o Cylinder.247_Cylinder.1676
v -2.863832 0.577990 0.797795
v -1.462588 0.006908 2.105610
v -2.351109 0.959034 0.414834
v -0.949865 0.387952 1.722650
v -1.823909 1.080092 -0.097166
v -0.422666 0.509010 1.210650
v -1.362494 0.922732 -0.660258
v 0.038749 0.351651 0.647558
v -1.037109 0.510913 -1.188715
v 0.364134 -0.060169 0.119100
v -0.897292 -0.092671 -1.602087
v 0.503951 -0.663753 -0.294271
v -0.964329 -0.796130 -1.837440
v 0.436915 -1.367211 -0.529624
v -1.228013 -1.492367 -1.858943
v 0.173231 -2.063448 -0.551127
v -1.648201 -2.075387 -1.663324
v -0.246958 -2.646469 -0.355508
v -2.160923 -2.456432 -1.280364
v -0.759680 -3.027514 0.027452
v -2.688123 -2.577490 -0.768364
v -1.286880 -3.148571 0.539452
v -3.149539 -2.420131 -0.205272
v -1.748295 -2.991212 1.102544
v -3.474923 -2.008311 0.323186
v -2.073680 -2.579392 1.631002
v -3.614740 -1.404727 0.736558
v -2.213497 -1.975808 2.044373
v -3.547704 -0.701268 0.971910
v -2.146461 -1.272350 2.279726
v -3.284019 -0.005030 0.993414
v -1.882776 -0.576112 2.301229
vn -0.1877 0.8104 0.5550
vn 0.0900 0.9445 0.3160
vn 0.3540 0.9348 0.0289
vn 0.5642 0.7828 -0.2626
vn 0.6884 0.5116 -0.5142
vn 0.7078 0.1625 -0.6874
vn 0.6195 -0.2113 -0.7560
vn 0.4369 -0.5529 -0.7095
vn 0.1877 -0.8104 -0.5550
vn -0.0900 -0.9445 -0.3160
vn -0.3540 -0.9348 -0.0289
vn -0.5642 -0.7828 0.2626
vn -0.6884 -0.5116 0.5142
vn -0.7078 -0.1625 0.6874
vn 0.7006 -0.2855 0.6539
vn -0.6195 0.2113 0.7560
vn -0.4369 0.5529 0.7095
vn -0.7006 0.2855 -0.6539
s off
f 1//1 4//1 3//1
f 3//2 6//2 5//2
f 5//3 8//3 7//3
f 8//4 9//4 7//4
f 10//5 11//5 9//5
f 12//6 13//6 11//6
f 13//7 16//7 15//7
f 16//8 17//8 15//8
f 18//9 19//9 17//9
f 20//10 21//10 19//10
f 22//11 23//11 21//11
f 23//12 26//12 25//12
f 26//13 27//13 25//13
f 28//14 29//14 27//14
f 22//15 14//15 6//15
f 30//16 31//16 29//16
f 32//17 1//17 31//17
f 15//18 23//18 31//18
f 1//1 2//1 4//1
f 3//2 4//2 6//2
f 5//3 6//3 8//3
f 8//4 10//4 9//4
f 10//5 12//5 11//5
f 12//6 14//6 13//6
f 13//7 14//7 16//7
f 16//8 18//8 17//8
f 18//9 20//9 19//9
f 20//10 22//10 21//10
f 22//11 24//11 23//11
f 23//12 24//12 26//12
f 26//13 28//13 27//13
f 28//14 30//14 29//14
f 6//15 4//15 30//15
f 4//15 2//15 30//15
f 2//15 32//15 30//15
f 30//15 28//15 26//15
f 26//15 24//15 30//15
f 24//15 22//15 30//15
f 22//15 20//15 14//15
f 20//15 18//15 14//15
f 18//15 16//15 14//15
f 14//15 12//15 10//15
f 10//15 8//15 14//15
f 8//15 6//15 14//15
f 6//15 30//15 22//15
f 30//16 32//16 31//16
f 32//17 2//17 1//17
f 31//18 1//18 3//18
f 3//18 5//18 7//18
f 7//18 9//18 11//18
f 11//18 13//18 15//18
f 15//18 17//18 23//18
f 17//18 19//18 23//18
f 19//18 21//18 23//18
f 23//18 25//18 27//18
f 27//18 29//18 23//18
f 29//18 31//18 23//18
f 31//18 3//18 15//18
f 3//18 7//18 15//18
f 7//18 11//18 15//18
