# Blender v2.83.0 OBJ File: ''
# www.blender.org
o Cylinder.120_Cylinder.1549
v 2.316390 0.890071 2.814737
v 0.318293 0.918780 2.897091
v 2.312806 0.512834 2.859284
v 0.314708 0.541543 2.941638
v 2.303306 0.147338 2.756196
v 0.305208 0.176047 2.838550
v 2.289335 -0.150774 2.521166
v 0.291238 -0.122065 2.603520
v 2.273022 -0.336117 2.189976
v 0.274924 -0.307408 2.272330
v 2.256849 -0.380474 1.813046
v 0.258751 -0.351765 1.895400
v 2.243279 -0.277092 1.447761
v 0.245181 -0.248383 1.530115
v 2.234377 -0.041710 1.149733
v 0.236279 -0.013001 1.232087
v 2.231499 0.289836 0.964332
v 0.233401 0.318546 1.046686
v 2.235083 0.667073 0.919785
v 0.236986 0.695782 1.002139
v 2.244584 1.032569 1.022874
v 0.246486 1.061279 1.105228
v 2.258554 1.330681 1.257904
v 0.260457 1.359390 1.340258
v 2.274868 1.516024 1.589094
v 0.276770 1.544733 1.671448
v 2.291040 1.560381 1.966023
v 0.292943 1.589090 2.048378
v 2.304611 1.456999 2.331308
v 0.306513 1.485708 2.413662
v 2.313512 1.221617 2.629337
v 0.315415 1.250326 2.711691
vn 0.0426 0.1168 0.9922
vn 0.0357 -0.2721 0.9616
vn 0.0234 -0.6196 0.7845
vn 0.0076 -0.8728 0.4881
vn -0.0094 -0.9931 0.1173
vn -0.0250 -0.9621 -0.2714
vn -0.0368 -0.7848 -0.6187
vn -0.0429 -0.4879 -0.8718
vn -0.0426 -0.1168 -0.9922
vn -0.0357 0.2721 -0.9616
vn -0.0234 0.6196 -0.7845
vn -0.0076 0.8728 -0.4881
vn 0.0094 0.9931 -0.1173
vn 0.0250 0.9621 0.2714
vn -0.9990 0.0144 0.0412
vn 0.0368 0.7848 0.6187
vn 0.0429 0.4879 0.8718
vn 0.9990 -0.0144 -0.0412
s off
f 2//1 3//1 1//1
f 4//2 5//2 3//2
f 6//3 7//3 5//3
f 8//4 9//4 7//4
f 10//5 11//5 9//5
f 12//6 13//6 11//6
f 14//7 15//7 13//7
f 16//8 17//8 15//8
f 18//9 19//9 17//9
f 20//10 21//10 19//10
f 22//11 23//11 21//11
f 24//12 25//12 23//12
f 26//13 27//13 25//13
f 28//14 29//14 27//14
f 6//15 30//15 22//15
f 30//16 31//16 29//16
f 32//17 1//17 31//17
f 31//18 7//18 15//18
f 2//1 4//1 3//1
f 4//2 6//2 5//2
f 6//3 8//3 7//3
f 8//4 10//4 9//4
f 10//5 12//5 11//5
f 12//6 14//6 13//6
f 14//7 16//7 15//7
f 16//8 18//8 17//8
f 18//9 20//9 19//9
f 20//10 22//10 21//10
f 22//11 24//11 23//11
f 24//12 26//12 25//12
f 26//13 28//13 27//13
f 28//14 30//14 29//14
f 6//15 4//15 2//15
f 2//15 32//15 30//15
f 30//15 28//15 26//15
f 26//15 24//15 22//15
f 22//15 20//15 18//15
f 18//15 16//15 14//15
f 14//15 12//15 10//15
f 10//15 8//15 6//15
f 6//15 2//15 30//15
f 30//15 26//15 22//15
f 22//15 18//15 14//15
f 14//15 10//15 22//15
f 10//15 6//15 22//15
f 30//16 32//16 31//16
f 32//17 2//17 1//17
f 31//18 1//18 3//18
f 3//18 5//18 7//18
f 7//18 9//18 11//18
f 11//18 13//18 7//18
f 13//18 15//18 7//18
f 15//18 17//18 23//18
f 17//18 19//18 23//18
f 19//18 21//18 23//18
f 23//18 25//18 27//18
f 27//18 29//18 31//18
f 31//18 3//18 7//18
f 23//18 27//18 15//18
f 27//18 31//18 15//18
