# Blender v2.83.0 OBJ File: ''
# www.blender.org
o Cylinder.286_Cylinder.1715
v 1.055082 1.595409 -0.823797
v 2.859604 0.749260 -0.657269
v 1.126374 1.639141 -1.374129
v 2.930896 0.792991 -1.207601
v 1.104532 1.487253 -1.909211
v 2.909055 0.641103 -1.742683
v 0.992882 1.162869 -2.347582
v 2.797404 0.316720 -2.181054
v 0.808420 0.715374 -2.622504
v 2.612942 -0.130775 -2.455976
v 0.579230 0.212896 -2.692123
v 2.383752 -0.633254 -2.525595
v 0.340204 -0.268069 -2.545840
v 2.144726 -1.114219 -2.379312
v 0.127730 -0.654298 -2.205925
v 1.932253 -1.500448 -2.039397
v -0.025842 -0.886991 -1.724127
v 1.778680 -1.733140 -1.557599
v -0.097135 -0.930722 -1.173796
v 1.707387 -1.776872 -1.007268
v -0.075293 -0.778835 -0.638714
v 1.729229 -1.624984 -0.472186
v 0.036357 -0.454451 -0.200342
v 1.840879 -1.300600 -0.033814
v 0.220819 -0.006956 0.074580
v 2.025341 -0.853106 0.241108
v 0.450009 0.495523 0.144199
v 2.254531 -0.350627 0.310727
v 0.689036 0.976488 -0.002084
v 2.493558 0.130339 0.164444
v 0.901509 1.362717 -0.341999
v 2.706031 0.516567 -0.175472
vn 0.4117 0.9027 0.1251
vn 0.4294 0.8640 -0.2628
vn 0.3817 0.6938 -0.6106
vn 0.2759 0.4180 -0.8655
vn 0.1281 0.0786 -0.9886
vn -0.0392 -0.2729 -0.9613
vn -0.2006 -0.5827 -0.7875
vn -0.3314 -0.8039 -0.4939
vn -0.4117 -0.9027 -0.1251
vn -0.4294 -0.8640 0.2628
vn -0.3817 -0.6938 0.6106
vn -0.2759 -0.4180 0.8655
vn -0.1281 -0.0786 0.9886
vn 0.0392 0.2729 0.9613
vn 0.9023 -0.4231 0.0833
vn 0.2006 0.5827 0.7875
vn 0.3314 0.8039 0.4939
vn -0.9023 0.4231 -0.0833
s off
f 2//1 3//1 1//1
f 4//2 5//2 3//2
f 6//3 7//3 5//3
f 8//4 9//4 7//4
f 10//5 11//5 9//5
f 12//6 13//6 11//6
f 14//7 15//7 13//7
f 16//8 17//8 15//8
f 18//9 19//9 17//9
f 20//10 21//10 19//10
f 22//11 23//11 21//11
f 24//12 25//12 23//12
f 26//13 27//13 25//13
f 28//14 29//14 27//14
f 30//15 22//15 14//15
f 30//16 31//16 29//16
f 32//17 1//17 31//17
f 31//18 7//18 15//18
f 2//1 4//1 3//1
f 4//2 6//2 5//2
f 6//3 8//3 7//3
f 8//4 10//4 9//4
f 10//5 12//5 11//5
f 12//6 14//6 13//6
f 14//7 16//7 15//7
f 16//8 18//8 17//8
f 18//9 20//9 19//9
f 20//10 22//10 21//10
f 22//11 24//11 23//11
f 24//12 26//12 25//12
f 26//13 28//13 27//13
f 28//14 30//14 29//14
f 6//15 4//15 2//15
f 2//15 32//15 30//15
f 30//15 28//15 22//15
f 28//15 26//15 22//15
f 26//15 24//15 22//15
f 22//15 20//15 14//15
f 20//15 18//15 14//15
f 18//15 16//15 14//15
f 14//15 12//15 10//15
f 10//15 8//15 6//15
f 6//15 2//15 30//15
f 14//15 10//15 6//15
f 6//15 30//15 14//15
f 30//16 32//16 31//16
f 32//17 2//17 1//17
f 31//18 1//18 3//18
f 3//18 5//18 7//18
f 7//18 9//18 11//18
f 11//18 13//18 15//18
f 15//18 17//18 19//18
f 19//18 21//18 23//18
f 23//18 25//18 27//18
f 27//18 29//18 23//18
f 29//18 31//18 23//18
f 31//18 3//18 7//18
f 7//18 11//18 15//18
f 15//18 19//18 31//18
f 19//18 23//18 31//18
