# Blender v2.83.0 OBJ File: ''
# www.blender.org
o Cylinder.311_Cylinder.1740
v -0.885101 0.165383 -0.995197
v 0.255588 -1.456896 -0.736273
v -0.983147 0.213355 -0.262686
v 0.157542 -1.408924 -0.003762
v -0.843975 0.422412 0.434030
v 0.296713 -1.199866 0.692954
v -0.488773 0.760727 0.988882
v 0.651916 -0.861552 1.247806
v 0.028385 1.176794 1.317399
v 1.169074 -0.445485 1.576323
v 0.628764 1.607271 1.369567
v 1.769453 -0.015008 1.628492
v 1.220962 1.986621 1.137445
v 2.361651 0.364342 1.396369
v 1.714823 2.257092 0.656370
v 2.855512 0.634814 0.915294
v 2.035161 2.377508 -0.000418
v 3.175850 0.755229 0.258507
v 2.133208 2.329536 -0.732929
v 3.273897 0.707257 -0.474004
v 1.994036 2.120479 -1.429644
v 3.134725 0.498200 -1.170720
v 1.638833 1.782164 -1.984497
v 2.779522 0.159885 -1.725573
v 1.121676 1.366097 -2.313014
v 2.262365 -0.256182 -2.054090
v 0.521297 0.935620 -2.365183
v 1.661985 -0.686659 -2.106258
v -0.070902 0.556270 -2.133060
v 1.069787 -1.066009 -1.874135
v -0.564764 0.285798 -1.651984
v 0.575925 -1.336480 -1.393060
vn -0.8107 -0.5813 -0.0704
vn -0.7996 -0.5122 0.3134
vn -0.6668 -0.3652 0.6496
vn -0.4325 -0.1626 0.8868
vn -0.1324 0.0648 0.9891
vn 0.1879 0.2823 0.9407
vn 0.4796 0.4568 0.7492
vn 0.6983 0.5618 0.4436
vn 0.8107 0.5813 0.0704
vn 0.7996 0.5122 -0.3134
vn 0.6668 0.3652 -0.6496
vn 0.4325 0.1626 -0.8868
vn 0.1324 -0.0648 -0.9891
vn -0.1879 -0.2823 -0.9407
vn 0.5703 -0.8111 0.1295
vn -0.4796 -0.4568 -0.7492
vn -0.6983 -0.5618 -0.4436
vn -0.5703 0.8111 -0.1295
s off
f 2//1 3//1 1//1
f 4//2 5//2 3//2
f 6//3 7//3 5//3
f 8//4 9//4 7//4
f 10//5 11//5 9//5
f 12//6 13//6 11//6
f 14//7 15//7 13//7
f 16//8 17//8 15//8
f 18//9 19//9 17//9
f 20//10 21//10 19//10
f 22//11 23//11 21//11
f 24//12 25//12 23//12
f 26//13 27//13 25//13
f 28//14 29//14 27//14
f 22//15 14//15 6//15
f 30//16 31//16 29//16
f 32//17 1//17 31//17
f 31//18 7//18 15//18
f 2//1 4//1 3//1
f 4//2 6//2 5//2
f 6//3 8//3 7//3
f 8//4 10//4 9//4
f 10//5 12//5 11//5
f 12//6 14//6 13//6
f 14//7 16//7 15//7
f 16//8 18//8 17//8
f 18//9 20//9 19//9
f 20//10 22//10 21//10
f 22//11 24//11 23//11
f 24//12 26//12 25//12
f 26//13 28//13 27//13
f 28//14 30//14 29//14
f 6//15 4//15 2//15
f 2//15 32//15 6//15
f 32//15 30//15 6//15
f 30//15 28//15 26//15
f 26//15 24//15 22//15
f 22//15 20//15 18//15
f 18//15 16//15 14//15
f 14//15 12//15 10//15
f 10//15 8//15 14//15
f 8//15 6//15 14//15
f 30//15 26//15 6//15
f 26//15 22//15 6//15
f 22//15 18//15 14//15
f 30//16 32//16 31//16
f 32//17 2//17 1//17
f 31//18 1//18 3//18
f 3//18 5//18 31//18
f 5//18 7//18 31//18
f 7//18 9//18 11//18
f 11//18 13//18 15//18
f 15//18 17//18 19//18
f 19//18 21//18 23//18
f 23//18 25//18 31//18
f 25//18 27//18 31//18
f 27//18 29//18 31//18
f 7//18 11//18 15//18
f 15//18 19//18 31//18
f 19//18 23//18 31//18
