# Blender v2.83.0 OBJ File: ''
# www.blender.org
o Cylinder.153_Cylinder.1582
v -0.082295 1.598100 0.801390
v -1.082261 -0.130480 0.911288
v -0.402353 1.777295 0.707716
v -1.402319 0.048715 0.817613
v -0.725263 1.967503 0.761318
v -1.725229 0.238923 0.871215
v -1.001864 2.139766 0.954035
v -2.001830 0.411186 1.063933
v -1.190047 2.267860 1.256528
v -2.190013 0.539279 1.366426
v -1.261162 2.332282 1.622746
v -2.261128 0.603702 1.732643
v -1.204383 2.323225 1.996934
v -2.204349 0.594645 2.106832
v -1.028353 2.242069 2.322126
v -2.028320 0.513489 2.432024
v -0.759873 2.101168 2.548815
v -1.759839 0.372588 2.658713
v -0.439815 1.921973 2.642490
v -1.439781 0.193393 2.752388
v -0.116905 1.731766 2.588888
v -1.116871 0.003185 2.698786
v 0.159696 1.559502 2.396171
v -0.840270 -0.169078 2.506069
v 0.347879 1.431409 2.093678
v -0.652087 -0.297172 2.203575
v 0.418994 1.366986 1.727460
v -0.580972 -0.361594 1.837358
v 0.362215 1.376043 1.353271
v -0.637751 -0.352538 1.463169
v 0.186185 1.457199 1.028079
v -0.813781 -0.271381 1.137976
vn 0.1878 -0.1702 -0.9673
vn -0.1500 0.0239 -0.9884
vn -0.4650 0.2144 -0.8590
vn -0.7092 0.3722 -0.5988
vn -0.8454 0.4733 -0.2474
vn -0.8529 0.5024 0.1416
vn -0.7306 0.4550 0.5091
vn -0.4971 0.3384 0.7990
vn -0.1878 0.1702 0.9673
vn 0.1500 -0.0239 0.9884
vn 0.4650 -0.2144 0.8590
vn 0.7092 -0.3722 0.5988
vn 0.8454 -0.4733 0.2474
vn 0.8529 -0.5024 -0.1416
vn -0.5000 -0.8643 0.0549
vn 0.7306 -0.4550 -0.5091
vn 0.4971 -0.3384 -0.7990
vn 0.5000 0.8643 -0.0549
s off
f 2//1 3//1 1//1
f 4//2 5//2 3//2
f 6//3 7//3 5//3
f 8//4 9//4 7//4
f 10//5 11//5 9//5
f 12//6 13//6 11//6
f 13//7 16//7 15//7
f 16//8 17//8 15//8
f 18//9 19//9 17//9
f 20//10 21//10 19//10
f 22//11 23//11 21//11
f 24//12 25//12 23//12
f 26//13 27//13 25//13
f 28//14 29//14 27//14
f 22//15 14//15 6//15
f 30//16 31//16 29//16
f 32//17 1//17 31//17
f 19//18 23//18 31//18
f 2//1 4//1 3//1
f 4//2 6//2 5//2
f 6//3 8//3 7//3
f 8//4 10//4 9//4
f 10//5 12//5 11//5
f 12//6 14//6 13//6
f 13//7 14//7 16//7
f 16//8 18//8 17//8
f 18//9 20//9 19//9
f 20//10 22//10 21//10
f 22//11 24//11 23//11
f 24//12 26//12 25//12
f 26//13 28//13 27//13
f 28//14 30//14 29//14
f 6//15 4//15 2//15
f 2//15 32//15 30//15
f 30//15 28//15 26//15
f 26//15 24//15 22//15
f 22//15 20//15 14//15
f 20//15 18//15 14//15
f 18//15 16//15 14//15
f 14//15 12//15 10//15
f 10//15 8//15 14//15
f 8//15 6//15 14//15
f 6//15 2//15 30//15
f 30//15 26//15 22//15
f 6//15 30//15 22//15
f 30//16 32//16 31//16
f 32//17 2//17 1//17
f 31//18 1//18 7//18
f 1//18 3//18 7//18
f 3//18 5//18 7//18
f 7//18 9//18 11//18
f 11//18 13//18 15//18
f 15//18 17//18 19//18
f 19//18 21//18 23//18
f 23//18 25//18 27//18
f 27//18 29//18 23//18
f 29//18 31//18 23//18
f 7//18 11//18 31//18
f 11//18 15//18 31//18
f 15//18 19//18 31//18
