# Blender v2.83.0 OBJ File: ''
# www.blender.org
o Cylinder.312_Cylinder.1741
v 2.105761 1.890264 2.973234
v 0.334130 1.345703 2.221718
v 2.245937 1.430209 2.976145
v 0.474306 0.885648 2.224629
v 2.441900 1.024344 2.808276
v 0.670269 0.479783 2.056760
v 2.663817 0.734458 2.495183
v 0.892186 0.189897 1.743667
v 2.877903 0.604683 2.084532
v 1.106272 0.060122 1.333016
v 3.051565 0.654776 1.638841
v 1.279933 0.110216 0.887325
v 3.158364 0.877112 1.225962
v 1.386733 0.332551 0.474446
v 3.182042 1.237842 0.908753
v 1.410411 0.693281 0.157237
v 3.118994 1.682047 0.735505
v 1.347363 1.137486 -0.016011
v 2.978818 2.142102 0.732594
v 1.207187 1.597541 -0.018922
v 2.782855 2.547967 0.900463
v 1.011224 2.003407 0.148947
v 2.560938 2.837854 1.213556
v 0.789307 2.293293 0.462040
v 2.346852 2.967629 1.624207
v 0.575221 2.423068 0.872691
v 2.173190 2.917535 2.069898
v 0.401559 2.372974 1.318382
v 2.066391 2.695199 2.482777
v 0.294759 2.150638 1.731261
v 2.042712 2.334469 2.799986
v 0.271081 1.789908 2.048470
vn -0.3611 -0.1042 0.9267
vn -0.2221 -0.4623 0.8585
vn -0.0492 -0.7500 0.6596
vn 0.1311 -0.9236 0.3602
vn 0.2915 -0.9566 0.0061
vn 0.4075 -0.8439 -0.3490
vn 0.4614 -0.6027 -0.6510
vn 0.4451 -0.2698 -0.8538
vn 0.3611 0.1042 -0.9267
vn 0.2221 0.4623 -0.8585
vn 0.0492 0.7500 -0.6596
vn -0.1311 0.9236 -0.3602
vn -0.2915 0.9566 -0.0061
vn -0.4075 0.8439 0.3490
vn -0.8858 -0.2723 -0.3758
vn -0.4614 0.6027 0.6510
vn -0.4451 0.2698 0.8538
vn 0.8858 0.2723 0.3758
s off
f 2//1 3//1 1//1
f 4//2 5//2 3//2
f 6//3 7//3 5//3
f 8//4 9//4 7//4
f 10//5 11//5 9//5
f 11//6 14//6 13//6
f 14//7 15//7 13//7
f 16//8 17//8 15//8
f 18//9 19//9 17//9
f 19//10 22//10 21//10
f 22//11 23//11 21//11
f 24//12 25//12 23//12
f 26//13 27//13 25//13
f 28//14 29//14 27//14
f 22//15 14//15 6//15
f 30//16 31//16 29//16
f 32//17 1//17 31//17
f 31//18 7//18 15//18
f 2//1 4//1 3//1
f 4//2 6//2 5//2
f 6//3 8//3 7//3
f 8//4 10//4 9//4
f 10//5 12//5 11//5
f 11//6 12//6 14//6
f 14//7 16//7 15//7
f 16//8 18//8 17//8
f 18//9 20//9 19//9
f 19//10 20//10 22//10
f 22//11 24//11 23//11
f 24//12 26//12 25//12
f 26//13 28//13 27//13
f 28//14 30//14 29//14
f 6//15 4//15 30//15
f 4//15 2//15 30//15
f 2//15 32//15 30//15
f 30//15 28//15 26//15
f 26//15 24//15 22//15
f 22//15 20//15 18//15
f 18//15 16//15 22//15
f 16//15 14//15 22//15
f 14//15 12//15 10//15
f 10//15 8//15 14//15
f 8//15 6//15 14//15
f 30//15 26//15 6//15
f 26//15 22//15 6//15
f 30//16 32//16 31//16
f 32//17 2//17 1//17
f 31//18 1//18 3//18
f 3//18 5//18 7//18
f 7//18 9//18 11//18
f 11//18 13//18 7//18
f 13//18 15//18 7//18
f 15//18 17//18 23//18
f 17//18 19//18 23//18
f 19//18 21//18 23//18
f 23//18 25//18 27//18
f 27//18 29//18 31//18
f 31//18 3//18 7//18
f 23//18 27//18 15//18
f 27//18 31//18 15//18
