# Blender v2.83.0 OBJ File: ''
# www.blender.org
o Cylinder.011_Cylinder.1440
v 1.174926 -2.740707 -1.109436
v 2.357950 -1.160132 -1.429182
v 1.581837 -3.003338 -0.902155
v 2.764861 -1.422763 -1.221901
v 1.911154 -3.174162 -0.528141
v 3.094177 -1.593587 -0.847886
v 2.112740 -3.227172 -0.044334
v 3.295764 -1.646597 -0.364079
v 2.155907 -3.154299 0.475612
v 3.338931 -1.573724 0.155866
v 2.034083 -2.966635 0.952538
v 3.217107 -1.386060 0.632792
v 1.765814 -2.692753 1.313836
v 2.948838 -1.112178 0.994091
v 1.391942 -2.374347 1.504504
v 2.574966 -0.793772 1.184759
v 0.969386 -2.059892 1.495513
v 2.152410 -0.479317 1.175768
v 0.562475 -1.797261 1.288232
v 1.745499 -0.216686 0.968487
v 0.233159 -1.626437 0.914218
v 1.416183 -0.045862 0.594472
v 0.031572 -1.573427 0.430410
v 1.214596 0.007148 0.110665
v -0.011595 -1.646301 -0.089535
v 1.171428 -0.065726 -0.409280
v 0.110229 -1.833964 -0.566461
v 1.293253 -0.253389 -0.886206
v 0.378498 -2.107846 -0.927760
v 1.561522 -0.527272 -1.247505
v 0.752370 -2.426253 -1.118428
v 1.935394 -0.845678 -1.438173
vn 0.2313 -0.3562 -0.9053
vn 0.5092 -0.5199 -0.6858
vn 0.7097 -0.6044 -0.3619
vn 0.8021 -0.5969 0.0171
vn 0.7724 -0.4985 0.3935
vn 0.6251 -0.3243 0.7100
vn 0.3827 -0.1006 0.9184
vn 0.0819 0.1383 0.9870
vn -0.2313 0.3562 0.9053
vn -0.5092 0.5199 0.6858
vn -0.7097 0.6044 0.3619
vn -0.8021 0.5969 -0.0171
vn -0.7724 0.4985 -0.3935
vn -0.6251 0.3243 -0.7100
vn 0.5915 0.7903 -0.1599
vn -0.3827 0.1006 -0.9184
vn -0.0819 -0.1383 -0.9870
vn -0.5915 -0.7903 0.1599
s off
f 1//1 4//1 3//1
f 4//2 5//2 3//2
f 6//3 7//3 5//3
f 8//4 9//4 7//4
f 10//5 11//5 9//5
f 12//6 13//6 11//6
f 14//7 15//7 13//7
f 16//8 17//8 15//8
f 18//9 19//9 17//9
f 20//10 21//10 19//10
f 22//11 23//11 21//11
f 23//12 26//12 25//12
f 26//13 27//13 25//13
f 27//14 30//14 29//14
f 22//15 14//15 6//15
f 30//16 31//16 29//16
f 32//17 1//17 31//17
f 7//18 15//18 23//18
f 1//1 2//1 4//1
f 4//2 6//2 5//2
f 6//3 8//3 7//3
f 8//4 10//4 9//4
f 10//5 12//5 11//5
f 12//6 14//6 13//6
f 14//7 16//7 15//7
f 16//8 18//8 17//8
f 18//9 20//9 19//9
f 20//10 22//10 21//10
f 22//11 24//11 23//11
f 23//12 24//12 26//12
f 26//13 28//13 27//13
f 27//14 28//14 30//14
f 6//15 4//15 2//15
f 2//15 32//15 30//15
f 30//15 28//15 26//15
f 26//15 24//15 22//15
f 22//15 20//15 18//15
f 18//15 16//15 14//15
f 14//15 12//15 10//15
f 10//15 8//15 6//15
f 6//15 2//15 22//15
f 2//15 30//15 22//15
f 30//15 26//15 22//15
f 22//15 18//15 14//15
f 14//15 10//15 6//15
f 30//16 32//16 31//16
f 32//17 2//17 1//17
f 31//18 1//18 3//18
f 3//18 5//18 7//18
f 7//18 9//18 11//18
f 11//18 13//18 7//18
f 13//18 15//18 7//18
f 15//18 17//18 19//18
f 19//18 21//18 23//18
f 23//18 25//18 27//18
f 27//18 29//18 31//18
f 31//18 3//18 7//18
f 15//18 19//18 23//18
f 23//18 27//18 31//18
f 31//18 7//18 23//18
