# Blender v2.83.0 OBJ File: ''
# www.blender.org
o Cylinder.198_Cylinder.1627
v 0.724133 -0.601944 0.916084
v -1.088470 -0.956165 1.683547
v 0.703421 -0.349970 0.983463
v -1.109182 -0.704191 1.750926
v 0.725854 -0.137505 1.134508
v -1.086749 -0.491726 1.901972
v 0.788016 0.003107 1.346224
v -1.024586 -0.351114 2.113688
v 0.880445 0.050458 1.586379
v -0.932157 -0.303763 2.353842
v 0.989069 -0.002660 1.818411
v -0.823533 -0.356881 2.585874
v 1.097351 -0.148161 2.006995
v -0.715252 -0.502382 2.774459
v 1.188805 -0.363893 2.123422
v -0.623798 -0.718114 2.890886
v 1.249509 -0.617013 2.149967
v -0.563093 -0.971234 2.917430
v 1.270221 -0.868986 2.082587
v -0.542381 -1.223207 2.850051
v 1.247788 -1.081452 1.931542
v -0.564814 -1.435673 2.699006
v 1.185625 -1.222064 1.719826
v -0.626977 -1.576285 2.487290
v 1.093196 -1.269415 1.479671
v -0.719406 -1.623636 2.247135
v 0.984573 -1.216297 1.247639
v -0.828030 -1.570518 2.015103
v 0.876291 -1.070796 1.059055
v -0.936311 -1.425017 1.826518
v 0.784837 -0.855064 0.942628
v -1.027766 -1.209285 1.710091
vn -0.4152 0.2030 -0.8868
vn -0.4138 0.5561 -0.7208
vn -0.3495 0.8245 -0.4450
vn -0.2320 0.9674 -0.1015
vn -0.0792 0.9630 0.2575
vn 0.0857 0.8120 0.5773
vn 0.2376 0.5374 0.8092
vn 0.3533 0.1810 0.9179
vn 0.4152 -0.2030 0.8868
vn 0.4138 -0.5561 0.7208
vn 0.3495 -0.8245 0.4450
vn 0.2320 -0.9674 0.1015
vn 0.0792 -0.9630 -0.2575
vn -0.0857 -0.8120 -0.5773
vn -0.9063 -0.1771 0.3837
vn -0.2376 -0.5374 -0.8092
vn -0.3533 -0.1810 -0.9179
vn 0.9063 0.1771 -0.3837
s off
f 1//1 4//1 3//1
f 4//2 5//2 3//2
f 6//3 7//3 5//3
f 8//4 9//4 7//4
f 10//5 11//5 9//5
f 12//6 13//6 11//6
f 14//7 15//7 13//7
f 16//8 17//8 15//8
f 18//9 19//9 17//9
f 20//10 21//10 19//10
f 22//11 23//11 21//11
f 24//12 25//12 23//12
f 25//13 28//13 27//13
f 28//14 29//14 27//14
f 22//15 14//15 6//15
f 30//16 31//16 29//16
f 32//17 1//17 31//17
f 7//18 15//18 23//18
f 1//1 2//1 4//1
f 4//2 6//2 5//2
f 6//3 8//3 7//3
f 8//4 10//4 9//4
f 10//5 12//5 11//5
f 12//6 14//6 13//6
f 14//7 16//7 15//7
f 16//8 18//8 17//8
f 18//9 20//9 19//9
f 20//10 22//10 21//10
f 22//11 24//11 23//11
f 24//12 26//12 25//12
f 25//13 26//13 28//13
f 28//14 30//14 29//14
f 6//15 4//15 2//15
f 2//15 32//15 30//15
f 30//15 28//15 26//15
f 26//15 24//15 22//15
f 22//15 20//15 14//15
f 20//15 18//15 14//15
f 18//15 16//15 14//15
f 14//15 12//15 10//15
f 10//15 8//15 14//15
f 8//15 6//15 14//15
f 6//15 2//15 30//15
f 30//15 26//15 22//15
f 6//15 30//15 22//15
f 30//16 32//16 31//16
f 32//17 2//17 1//17
f 31//18 1//18 7//18
f 1//18 3//18 7//18
f 3//18 5//18 7//18
f 7//18 9//18 15//18
f 9//18 11//18 15//18
f 11//18 13//18 15//18
f 15//18 17//18 19//18
f 19//18 21//18 15//18
f 21//18 23//18 15//18
f 23//18 25//18 27//18
f 27//18 29//18 31//18
f 23//18 27//18 31//18
f 31//18 7//18 23//18
