# Blender v2.83.0 OBJ File: ''
# www.blender.org
o Cylinder.190_Cylinder.1619
v 2.110524 -0.138760 1.610233
v 0.804444 -1.465392 0.879341
v 1.961732 -0.172869 1.938030
v 0.655652 -1.499501 1.207139
v 1.912245 -0.307110 2.270121
v 0.606165 -1.633742 1.539230
v 1.969596 -0.521045 2.555947
v 0.663516 -1.847677 1.825056
v 2.125054 -0.782105 2.751994
v 0.818974 -2.108737 2.021102
v 2.354953 -1.050545 2.828416
v 1.048873 -2.377177 2.097524
v 2.624292 -1.285499 2.773577
v 1.318212 -2.612131 2.042685
v 2.892066 -1.451196 2.595827
v 1.585986 -2.777828 1.864935
v 3.117511 -1.522411 2.322227
v 1.811431 -2.849043 1.591335
v 3.266303 -1.488301 1.994429
v 1.960223 -2.814933 1.263537
v 3.315790 -1.354061 1.662338
v 2.009710 -2.680693 0.931446
v 3.258439 -1.140126 1.376512
v 1.952359 -2.466758 0.645620
v 3.102981 -0.879066 1.180465
v 1.796901 -2.205698 0.449573
v 2.873082 -0.610625 1.104043
v 1.567002 -1.937257 0.373152
v 2.603743 -0.375672 1.158882
v 1.297663 -1.702304 0.427990
v 2.335968 -0.209975 1.336632
v 1.029888 -1.536607 0.605741
vn -0.6358 0.7424 -0.2113
vn -0.7449 0.6498 0.1517
vn -0.7405 0.4582 0.4916
vn -0.6235 0.1969 0.7566
vn -0.4115 -0.0943 0.9065
vn -0.1369 -0.3712 0.9184
vn 0.1586 -0.5916 0.7905
vn 0.4299 -0.7220 0.5422
vn 0.6358 -0.7424 0.2113
vn 0.7449 -0.6498 -0.1517
vn 0.7405 -0.4582 -0.4916
vn 0.6235 -0.1969 -0.7566
vn 0.4115 0.0943 -0.9065
vn 0.1369 0.3712 -0.9184
vn -0.6530 -0.6633 -0.3654
vn -0.1586 0.5916 -0.7905
vn -0.4299 0.7220 -0.5422
vn 0.6530 0.6633 0.3654
vn 0.1586 -0.5916 0.7904
s off
f 2//1 3//1 1//1
f 4//2 5//2 3//2
f 6//3 7//3 5//3
f 8//4 9//4 7//4
f 10//5 11//5 9//5
f 12//6 13//6 11//6
f 14//7 15//7 13//7
f 16//8 17//8 15//8
f 18//9 19//9 17//9
f 20//10 21//10 19//10
f 22//11 23//11 21//11
f 24//12 25//12 23//12
f 26//13 27//13 25//13
f 28//14 29//14 27//14
f 10//15 6//15 22//15
f 30//16 31//16 29//16
f 32//17 1//17 31//17
f 31//18 7//18 15//18
f 2//1 4//1 3//1
f 4//2 6//2 5//2
f 6//3 8//3 7//3
f 8//4 10//4 9//4
f 10//5 12//5 11//5
f 12//6 14//6 13//6
f 14//19 16//19 15//19
f 16//8 18//8 17//8
f 18//9 20//9 19//9
f 20//10 22//10 21//10
f 22//11 24//11 23//11
f 24//12 26//12 25//12
f 26//13 28//13 27//13
f 28//14 30//14 29//14
f 6//15 4//15 2//15
f 2//15 32//15 30//15
f 30//15 28//15 26//15
f 26//15 24//15 30//15
f 24//15 22//15 30//15
f 22//15 20//15 18//15
f 18//15 16//15 14//15
f 14//15 12//15 10//15
f 10//15 8//15 6//15
f 6//15 2//15 22//15
f 2//15 30//15 22//15
f 22//15 18//15 14//15
f 14//15 10//15 22//15
f 30//16 32//16 31//16
f 32//17 2//17 1//17
f 31//18 1//18 3//18
f 3//18 5//18 7//18
f 7//18 9//18 11//18
f 11//18 13//18 15//18
f 15//18 17//18 19//18
f 19//18 21//18 15//18
f 21//18 23//18 15//18
f 23//18 25//18 27//18
f 27//18 29//18 31//18
f 31//18 3//18 7//18
f 7//18 11//18 15//18
f 23//18 27//18 15//18
f 27//18 31//18 15//18
