# Blender v2.83.0 OBJ File: ''
# www.blender.org
o Cylinder.045_Cylinder.1474
v -1.520626 -2.567891 -0.053943
v -0.888046 -0.935042 0.912312
v -1.601937 -2.699048 0.220927
v -0.969358 -1.066199 1.187183
v -1.787186 -2.771917 0.465345
v -1.154607 -1.139069 1.431601
v -2.048171 -2.775406 0.642100
v -1.415591 -1.142558 1.608356
v -2.345158 -2.708983 0.724283
v -1.712579 -1.076135 1.690538
v -2.632935 -2.582761 0.699382
v -2.000355 -0.949912 1.665637
v -2.867689 -2.415955 0.571188
v -2.235109 -0.783106 1.537443
v -3.013681 -2.233960 0.359217
v -2.381102 -0.601112 1.325472
v -3.048686 -2.064484 0.095741
v -2.416107 -0.431636 1.061996
v -2.967375 -1.933327 -0.179130
v -2.334795 -0.300479 0.787125
v -2.782126 -1.860458 -0.423548
v -2.149546 -0.227609 0.542708
v -2.521141 -1.856969 -0.600303
v -1.888562 -0.224120 0.365953
v -2.224154 -1.923392 -0.682486
v -1.591574 -0.290543 0.283770
v -1.936377 -2.049614 -0.657584
v -1.303798 -0.416766 0.308671
v -1.701623 -2.216420 -0.529390
v -1.069044 -0.583572 0.436865
v -1.555631 -2.398415 -0.317419
v -0.923051 -0.765566 0.648836
vn 0.9129 -0.4004 0.0790
vn 0.7447 -0.5292 0.4067
vn 0.4631 -0.5773 0.6724
vn 0.1110 -0.5376 0.8358
vn -0.2579 -0.4161 0.8720
vn -0.5877 -0.2312 0.7754
vn -0.8279 -0.0111 0.5607
vn -0.9421 0.2107 0.2607
vn -0.9129 0.4004 -0.0790
vn -0.7447 0.5292 -0.4067
vn -0.4631 0.5773 -0.6724
vn -0.1110 0.5376 -0.8358
vn 0.2579 0.4161 -0.8720
vn 0.5877 0.2312 -0.7754
vn 0.3163 0.8164 0.4831
vn 0.8279 0.0111 -0.5607
vn 0.9421 -0.2107 -0.2607
vn -0.3163 -0.8164 -0.4831
s off
f 2//1 3//1 1//1
f 4//2 5//2 3//2
f 6//3 7//3 5//3
f 8//4 9//4 7//4
f 10//5 11//5 9//5
f 12//6 13//6 11//6
f 14//7 15//7 13//7
f 16//8 17//8 15//8
f 18//9 19//9 17//9
f 20//10 21//10 19//10
f 22//11 23//11 21//11
f 24//12 25//12 23//12
f 26//13 27//13 25//13
f 28//14 29//14 27//14
f 30//15 22//15 14//15
f 30//16 31//16 29//16
f 32//17 1//17 31//17
f 15//18 23//18 31//18
f 2//1 4//1 3//1
f 4//2 6//2 5//2
f 6//3 8//3 7//3
f 8//4 10//4 9//4
f 10//5 12//5 11//5
f 12//6 14//6 13//6
f 14//7 16//7 15//7
f 16//8 18//8 17//8
f 18//9 20//9 19//9
f 20//10 22//10 21//10
f 22//11 24//11 23//11
f 24//12 26//12 25//12
f 26//13 28//13 27//13
f 28//14 30//14 29//14
f 6//15 4//15 2//15
f 2//15 32//15 30//15
f 30//15 28//15 22//15
f 28//15 26//15 22//15
f 26//15 24//15 22//15
f 22//15 20//15 18//15
f 18//15 16//15 14//15
f 14//15 12//15 10//15
f 10//15 8//15 14//15
f 8//15 6//15 14//15
f 6//15 2//15 30//15
f 22//15 18//15 14//15
f 6//15 30//15 14//15
f 30//16 32//16 31//16
f 32//17 2//17 1//17
f 31//18 1//18 3//18
f 3//18 5//18 7//18
f 7//18 9//18 11//18
f 11//18 13//18 15//18
f 15//18 17//18 19//18
f 19//18 21//18 23//18
f 23//18 25//18 27//18
f 27//18 29//18 31//18
f 31//18 3//18 15//18
f 3//18 7//18 15//18
f 7//18 11//18 15//18
f 15//18 19//18 23//18
f 23//18 27//18 31//18
