# Blender v2.83.0 OBJ File: ''
# www.blender.org
o Cylinder.259_Cylinder.1688
v -0.994745 1.316612 -1.235579
v -2.954840 1.693781 -1.361164
v -0.913334 1.704022 -1.342707
v -2.873429 2.081191 -1.468292
v -0.839698 2.104077 -1.290508
v -2.799793 2.481246 -1.416093
v -0.785048 2.455873 -1.086929
v -2.745143 2.833041 -1.212514
v -0.757703 2.705850 -0.762962
v -2.717798 3.083019 -0.888547
v -0.761827 2.815953 -0.367928
v -2.721922 3.193122 -0.493513
v -0.796791 2.769419 0.038031
v -2.756886 3.146588 -0.087554
v -0.857273 2.573333 0.393113
v -2.817368 2.950502 0.267528
v -0.934065 2.257547 0.643260
v -2.894160 2.634717 0.517675
v -1.015476 1.870137 0.750388
v -2.975571 2.247306 0.624803
v -1.089112 1.470082 0.698189
v -3.049207 1.847251 0.572604
v -1.143762 1.118287 0.494610
v -3.103857 1.495456 0.369025
v -1.171107 0.868309 0.170643
v -3.131202 1.245478 0.045058
v -1.166983 0.758206 -0.224391
v -3.127078 1.135375 -0.349976
v -1.132019 0.804740 -0.630350
v -3.092113 1.181909 -0.755935
v -1.071537 1.000826 -0.985433
v -3.031631 1.377995 -1.111017
vn 0.0101 -0.2685 -0.9632
vn 0.0853 0.1135 -0.9899
vn 0.1475 0.4781 -0.8658
vn 0.1872 0.7700 -0.6099
vn 0.1985 0.9446 -0.2612
vn 0.1796 0.9755 0.1273
vn 0.1333 0.8578 0.4964
vn 0.0667 0.6095 0.7899
vn -0.0101 0.2685 0.9632
vn -0.0853 -0.1135 0.9899
vn -0.1475 -0.4781 0.8658
vn -0.1872 -0.7700 0.6099
vn -0.1985 -0.9446 0.2612
vn -0.1796 -0.9755 -0.1273
vn -0.9800 0.1886 -0.0628
vn -0.1333 -0.8578 -0.4964
vn -0.0667 -0.6095 -0.7899
vn 0.9800 -0.1886 0.0628
s off
f 2//1 3//1 1//1
f 4//2 5//2 3//2
f 6//3 7//3 5//3
f 8//4 9//4 7//4
f 10//5 11//5 9//5
f 12//6 13//6 11//6
f 14//7 15//7 13//7
f 16//8 17//8 15//8
f 18//9 19//9 17//9
f 20//10 21//10 19//10
f 22//11 23//11 21//11
f 24//12 25//12 23//12
f 26//13 27//13 25//13
f 28//14 29//14 27//14
f 22//15 14//15 6//15
f 30//16 31//16 29//16
f 32//17 1//17 31//17
f 7//18 15//18 23//18
f 2//1 4//1 3//1
f 4//2 6//2 5//2
f 6//3 8//3 7//3
f 8//4 10//4 9//4
f 10//5 12//5 11//5
f 12//6 14//6 13//6
f 14//7 16//7 15//7
f 16//8 18//8 17//8
f 18//9 20//9 19//9
f 20//10 22//10 21//10
f 22//11 24//11 23//11
f 24//12 26//12 25//12
f 26//13 28//13 27//13
f 28//14 30//14 29//14
f 6//15 4//15 2//15
f 2//15 32//15 30//15
f 30//15 28//15 26//15
f 26//15 24//15 22//15
f 22//15 20//15 18//15
f 18//15 16//15 14//15
f 14//15 12//15 10//15
f 10//15 8//15 14//15
f 8//15 6//15 14//15
f 6//15 2//15 30//15
f 30//15 26//15 22//15
f 22//15 18//15 14//15
f 6//15 30//15 22//15
f 30//16 32//16 31//16
f 32//17 2//17 1//17
f 31//18 1//18 7//18
f 1//18 3//18 7//18
f 3//18 5//18 7//18
f 7//18 9//18 11//18
f 11//18 13//18 15//18
f 15//18 17//18 23//18
f 17//18 19//18 23//18
f 19//18 21//18 23//18
f 23//18 25//18 31//18
f 25//18 27//18 31//18
f 27//18 29//18 31//18
f 7//18 11//18 15//18
f 31//18 7//18 23//18
