# Blender v2.83.0 OBJ File: ''
# www.blender.org
o Cylinder.327_Cylinder.1756
v -0.194517 -2.678001 -2.123042
v -0.307742 -2.022263 -0.236991
v -0.509230 -2.585535 -2.174083
v -0.622455 -1.929797 -0.288033
v -0.760214 -2.385428 -2.258723
v -0.873439 -1.729690 -0.372673
v -0.909258 -2.108145 -2.364077
v -1.022484 -1.452406 -0.478026
v -0.933673 -1.795899 -2.474103
v -1.046898 -1.140160 -0.588053
v -0.829740 -1.496226 -2.572053
v -0.942965 -0.840487 -0.686003
v -0.613283 -1.254750 -2.643015
v -0.726508 -0.599012 -0.756965
v -0.317256 -1.108233 -2.676184
v -0.430481 -0.452495 -0.790134
v 0.013275 -1.078981 -2.666512
v -0.099951 -0.423242 -0.780461
v 0.327988 -1.171447 -2.615470
v 0.214763 -0.515708 -0.729420
v 0.578972 -1.371554 -2.530830
v 0.465747 -0.715815 -0.644780
v 0.728017 -1.648837 -2.425477
v 0.614791 -0.993099 -0.539427
v 0.752431 -1.961084 -2.315450
v 0.639206 -1.305345 -0.429400
v 0.648498 -2.260756 -2.217500
v 0.535273 -1.605018 -0.331450
v 0.432041 -2.502232 -2.146539
v 0.318816 -1.846494 -0.260488
v 0.136014 -2.648749 -2.113369
v 0.022788 -1.993011 -0.227319
vn -0.3131 -0.9027 0.2951
vn -0.6521 -0.7274 0.2138
vn -0.8917 -0.4414 0.0999
vn -0.9957 -0.0881 -0.0291
vn -0.9480 0.2785 -0.1538
vn -0.7561 0.6028 -0.2550
vn -0.4490 0.8353 -0.3174
vn -0.0735 0.9406 -0.3314
vn 0.3131 0.9027 -0.2951
vn 0.6520 0.7274 -0.2138
vn 0.8917 0.4414 -0.0999
vn 0.9957 0.0881 0.0291
vn 0.9480 -0.2785 0.1538
vn 0.7561 -0.6028 0.2550
vn -0.0566 0.3279 0.9430
vn 0.4490 -0.8353 0.3174
vn 0.0735 -0.9406 0.3314
vn 0.0566 -0.3279 -0.9430
vn 0.6521 0.7274 -0.2138
s off
f 2//1 3//1 1//1
f 4//2 5//2 3//2
f 6//3 7//3 5//3
f 8//4 9//4 7//4
f 10//5 11//5 9//5
f 12//6 13//6 11//6
f 14//7 15//7 13//7
f 16//8 17//8 15//8
f 18//9 19//9 17//9
f 20//10 21//10 19//10
f 22//11 23//11 21//11
f 24//12 25//12 23//12
f 26//13 27//13 25//13
f 28//14 29//14 27//14
f 30//15 22//15 14//15
f 30//16 31//16 29//16
f 32//17 1//17 31//17
f 23//18 27//18 31//18
f 2//1 4//1 3//1
f 4//2 6//2 5//2
f 6//3 8//3 7//3
f 8//4 10//4 9//4
f 10//5 12//5 11//5
f 12//6 14//6 13//6
f 14//7 16//7 15//7
f 16//8 18//8 17//8
f 18//9 20//9 19//9
f 20//19 22//19 21//19
f 22//11 24//11 23//11
f 24//12 26//12 25//12
f 26//13 28//13 27//13
f 28//14 30//14 29//14
f 6//15 4//15 2//15
f 2//15 32//15 30//15
f 30//15 28//15 26//15
f 26//15 24//15 22//15
f 22//15 20//15 14//15
f 20//15 18//15 14//15
f 18//15 16//15 14//15
f 14//15 12//15 10//15
f 10//15 8//15 14//15
f 8//15 6//15 14//15
f 6//15 2//15 30//15
f 30//15 26//15 22//15
f 6//15 30//15 14//15
f 30//16 32//16 31//16
f 32//17 2//17 1//17
f 31//18 1//18 3//18
f 3//18 5//18 7//18
f 7//18 9//18 11//18
f 11//18 13//18 15//18
f 15//18 17//18 19//18
f 19//18 21//18 23//18
f 23//18 25//18 27//18
f 27//18 29//18 31//18
f 31//18 3//18 15//18
f 3//18 7//18 15//18
f 7//18 11//18 15//18
f 15//18 19//18 31//18
f 19//18 23//18 31//18
