# Blender v2.83.0 OBJ File: ''
# www.blender.org
o Cylinder.101_Cylinder.1530
v -2.637400 -0.829369 -0.502092
v -1.018092 -0.052811 0.378135
v -2.324870 -1.096470 -0.841395
v -0.705562 -0.319911 0.038833
v -2.030700 -1.501006 -1.025673
v -0.411392 -0.724447 -0.145445
v -1.799674 -1.981390 -1.026871
v -0.180366 -1.204832 -0.146644
v -1.666965 -2.464490 -0.844808
v -0.047657 -1.687932 0.035419
v -1.652775 -2.876756 -0.507200
v -0.033467 -2.100198 0.373027
v -1.759266 -3.155426 -0.065446
v -0.139958 -2.378868 0.814781
v -1.970224 -3.258073 0.413202
v -0.350916 -2.481515 1.293429
v -2.253534 -3.169073 0.855873
v -0.634226 -2.392515 1.736100
v -2.566064 -2.901973 1.195176
v -0.946756 -2.125414 2.075403
v -2.860234 -2.497437 1.379454
v -1.240926 -1.720879 2.259681
v -3.091260 -2.017052 1.380652
v -1.471952 -1.240494 2.260880
v -3.223969 -1.533952 1.198589
v -1.604661 -0.757394 2.078816
v -3.238159 -1.121686 0.860981
v -1.618851 -0.345128 1.741208
v -3.131668 -0.843016 0.419227
v -1.512360 -0.066458 1.299454
v -2.920709 -0.740368 -0.059421
v -1.301402 0.036190 0.820806
vn -0.0266 0.7734 -0.6333
vn 0.1998 0.5228 -0.8287
vn 0.3958 0.1926 -0.8979
vn 0.5315 -0.1670 -0.8304
vn 0.5863 -0.5011 -0.6365
vn 0.5519 -0.7589 -0.3457
vn 0.4334 -0.9012 -0.0022
vn 0.2490 -0.9063 0.3415
vn 0.0266 -0.7734 0.6333
vn -0.1998 -0.5228 0.8287
vn -0.3958 -0.1926 0.8979
vn -0.5315 0.1670 0.8304
vn -0.5863 0.5011 0.6365
vn -0.5519 0.7589 0.3457
vn 0.8097 0.3883 0.4401
vn -0.4334 0.9012 0.0022
vn -0.2490 0.9063 -0.3415
vn -0.8097 -0.3883 -0.4401
s off
f 2//1 3//1 1//1
f 3//2 6//2 5//2
f 5//3 8//3 7//3
f 8//4 9//4 7//4
f 9//5 12//5 11//5
f 12//6 13//6 11//6
f 14//7 15//7 13//7
f 16//8 17//8 15//8
f 18//9 19//9 17//9
f 20//10 21//10 19//10
f 22//11 23//11 21//11
f 24//12 25//12 23//12
f 26//13 27//13 25//13
f 28//14 29//14 27//14
f 22//15 14//15 6//15
f 30//16 31//16 29//16
f 32//17 1//17 31//17
f 15//18 23//18 31//18
f 2//1 4//1 3//1
f 3//2 4//2 6//2
f 5//3 6//3 8//3
f 8//4 10//4 9//4
f 9//5 10//5 12//5
f 12//6 14//6 13//6
f 14//7 16//7 15//7
f 16//8 18//8 17//8
f 18//9 20//9 19//9
f 20//10 22//10 21//10
f 22//11 24//11 23//11
f 24//12 26//12 25//12
f 26//13 28//13 27//13
f 28//14 30//14 29//14
f 6//15 4//15 2//15
f 2//15 32//15 6//15
f 32//15 30//15 6//15
f 30//15 28//15 26//15
f 26//15 24//15 22//15
f 22//15 20//15 18//15
f 18//15 16//15 14//15
f 14//15 12//15 10//15
f 10//15 8//15 6//15
f 30//15 26//15 22//15
f 22//15 18//15 14//15
f 14//15 10//15 6//15
f 6//15 30//15 22//15
f 30//16 32//16 31//16
f 32//17 2//17 1//17
f 31//18 1//18 3//18
f 3//18 5//18 31//18
f 5//18 7//18 31//18
f 7//18 9//18 15//18
f 9//18 11//18 15//18
f 11//18 13//18 15//18
f 15//18 17//18 19//18
f 19//18 21//18 15//18
f 21//18 23//18 15//18
f 23//18 25//18 27//18
f 27//18 29//18 31//18
f 23//18 27//18 31//18
f 31//18 7//18 15//18
