# Blender v2.83.0 OBJ File: ''
# www.blender.org
o Cylinder.203_Cylinder.1632
v -1.098123 -1.395877 2.032609
v 0.355866 -2.738790 1.745379
v -0.642526 -0.910312 2.068683
v 0.811463 -2.253224 1.781452
v -0.239026 -0.426633 1.849854
v 1.214963 -1.769545 1.562623
v 0.050948 -0.018475 1.409437
v 1.504937 -1.361388 1.122206
v 0.183248 0.252021 0.814481
v 1.637238 -1.090891 0.527251
v 0.137735 0.343677 0.155564
v 1.591725 -0.999236 -0.131666
v -0.078662 0.242538 -0.467000
v 1.375327 -1.100374 -0.754231
v -0.433001 -0.035998 -0.958433
v 1.020988 -1.378911 -1.245663
v -0.871335 -0.449527 -1.243917
v 0.582654 -1.792439 -1.531147
v -1.326932 -0.935092 -1.279990
v 0.127057 -2.278005 -1.567220
v -1.730432 -1.418771 -1.061161
v -0.276443 -2.761684 -1.348392
v -2.020406 -1.826929 -0.620744
v -0.566416 -3.169841 -0.907974
v -2.152706 -2.097425 -0.025788
v -0.698717 -3.440338 -0.313019
v -2.107193 -2.189081 0.633129
v -0.653204 -3.531994 0.345898
v -1.890795 -2.087942 1.255694
v -0.436806 -3.430855 0.968463
v -1.536456 -1.809406 1.747126
v -0.082467 -3.152318 1.459896
vn 0.0683 -0.1375 0.9882
vn 0.3245 0.1517 0.9336
vn 0.5314 0.4177 0.7370
vn 0.6574 0.6202 0.4281
vn 0.6832 0.7282 0.0541
vn 0.6051 0.7254 -0.3282
vn 0.4349 0.6121 -0.6605
vn 0.1984 0.4057 -0.8922
vn -0.0683 0.1375 -0.9882
vn -0.3245 -0.1517 -0.9336
vn -0.5314 -0.4177 -0.7370
vn -0.6574 -0.6202 -0.4281
vn -0.6832 -0.7282 -0.0541
vn -0.6051 -0.7254 0.3282
vn 0.7270 -0.6715 -0.1436
vn -0.4349 -0.6121 0.6605
vn -0.1984 -0.4057 0.8922
vn -0.7270 0.6715 0.1436
s off
f 2//1 3//1 1//1
f 4//2 5//2 3//2
f 6//3 7//3 5//3
f 8//4 9//4 7//4
f 10//5 11//5 9//5
f 12//6 13//6 11//6
f 14//7 15//7 13//7
f 16//8 17//8 15//8
f 17//9 20//9 19//9
f 20//10 21//10 19//10
f 22//11 23//11 21//11
f 24//12 25//12 23//12
f 26//13 27//13 25//13
f 28//14 29//14 27//14
f 6//15 30//15 22//15
f 30//16 31//16 29//16
f 32//17 1//17 31//17
f 31//18 7//18 15//18
f 2//1 4//1 3//1
f 4//2 6//2 5//2
f 6//3 8//3 7//3
f 8//4 10//4 9//4
f 10//5 12//5 11//5
f 12//6 14//6 13//6
f 14//7 16//7 15//7
f 16//8 18//8 17//8
f 17//9 18//9 20//9
f 20//10 22//10 21//10
f 22//11 24//11 23//11
f 24//12 26//12 25//12
f 26//13 28//13 27//13
f 28//14 30//14 29//14
f 6//15 4//15 2//15
f 2//15 32//15 30//15
f 30//15 28//15 26//15
f 26//15 24//15 22//15
f 22//15 20//15 18//15
f 18//15 16//15 14//15
f 14//15 12//15 10//15
f 10//15 8//15 6//15
f 6//15 2//15 30//15
f 30//15 26//15 22//15
f 22//15 18//15 6//15
f 18//15 14//15 6//15
f 14//15 10//15 6//15
f 30//16 32//16 31//16
f 32//17 2//17 1//17
f 31//18 1//18 3//18
f 3//18 5//18 7//18
f 7//18 9//18 11//18
f 11//18 13//18 15//18
f 15//18 17//18 19//18
f 19//18 21//18 23//18
f 23//18 25//18 27//18
f 27//18 29//18 23//18
f 29//18 31//18 23//18
f 31//18 3//18 7//18
f 7//18 11//18 15//18
f 15//18 19//18 31//18
f 19//18 23//18 31//18
