# Blender v2.83.0 OBJ File: ''
# www.blender.org
o Cylinder.191_Cylinder.1620
v -0.395338 1.405238 -0.396799
v -1.684452 1.267548 -1.919700
v -0.781274 1.806222 -0.106364
v -2.070388 1.668531 -1.629265
v -1.247025 1.992584 0.271038
v -2.536139 1.854894 -1.251863
v -1.721684 1.935953 0.677950
v -3.010798 1.798262 -0.844950
v -2.132989 1.644950 1.052425
v -3.422103 1.507259 -0.470475
v -2.418324 1.163877 1.337452
v -3.707438 1.026186 -0.185449
v -2.534246 0.565974 1.489638
v -3.823360 0.428283 -0.033263
v -2.463111 -0.057734 1.485814
v -3.752225 -0.195425 -0.037087
v -2.215745 -0.612293 1.326562
v -3.504859 -0.749984 -0.196339
v -1.829810 -1.013277 1.036128
v -3.118924 -1.150968 -0.486773
v -1.364059 -1.199639 0.658726
v -2.653173 -1.337330 -0.864175
v -0.889400 -1.143008 0.251813
v -2.178514 -1.280699 -1.271088
v -0.478094 -0.852005 -0.122662
v -1.767208 -0.989695 -1.645563
v -0.192760 -0.370932 -0.407689
v -1.481874 -0.508622 -1.930590
v -0.076837 0.226972 -0.559875
v -1.365951 0.089281 -2.082775
v -0.147973 0.850680 -0.556050
v -1.437087 0.712989 -2.078951
vn 0.4545 0.7663 -0.4540
vn 0.1847 0.9524 -0.2424
vn -0.1133 0.9935 0.0061
vn -0.3940 0.8834 0.2537
vn -0.6148 0.6387 0.4627
vn -0.7419 0.2969 0.6012
vn -0.7561 -0.0902 0.6482
vn -0.6552 -0.4636 0.5965
vn -0.4545 -0.7663 0.4540
vn -0.1847 -0.9524 0.2424
vn 0.1133 -0.9935 -0.0061
vn 0.3940 -0.8834 -0.2537
vn 0.6148 -0.6387 -0.4627
vn 0.7419 -0.2969 -0.6012
vn -0.6446 -0.0688 -0.7615
vn 0.7561 0.0902 -0.6482
vn 0.6552 0.4636 -0.5965
vn 0.6446 0.0688 0.7615
vn -0.6148 0.6388 0.4626
vn -0.6446 -0.0688 -0.7614
vn 0.6446 0.0688 0.7614
s off
f 2//1 3//1 1//1
f 4//2 5//2 3//2
f 6//3 7//3 5//3
f 8//4 9//4 7//4
f 9//5 12//5 11//5
f 12//6 13//6 11//6
f 14//7 15//7 13//7
f 16//8 17//8 15//8
f 18//9 19//9 17//9
f 20//10 21//10 19//10
f 22//11 23//11 21//11
f 24//12 25//12 23//12
f 26//13 27//13 25//13
f 28//14 29//14 27//14
f 22//15 14//15 6//15
f 30//16 31//16 29//16
f 32//17 1//17 31//17
f 31//18 7//18 15//18
f 2//1 4//1 3//1
f 4//2 6//2 5//2
f 6//3 8//3 7//3
f 8//4 10//4 9//4
f 9//19 10//19 12//19
f 12//6 14//6 13//6
f 14//7 16//7 15//7
f 16//8 18//8 17//8
f 18//9 20//9 19//9
f 20//10 22//10 21//10
f 22//11 24//11 23//11
f 24//12 26//12 25//12
f 26//13 28//13 27//13
f 28//14 30//14 29//14
f 6//15 4//15 2//15
f 2//20 32//20 30//20
f 30//15 28//15 26//15
f 26//15 24//15 30//15
f 24//15 22//15 30//15
f 22//20 20//20 18//20
f 18//15 16//15 14//15
f 14//15 12//15 10//15
f 10//15 8//15 14//15
f 8//15 6//15 14//15
f 6//15 2//15 30//15
f 22//15 18//15 14//15
f 6//15 30//15 22//15
f 30//16 32//16 31//16
f 32//17 2//17 1//17
f 31//18 1//18 3//18
f 3//18 5//18 7//18
f 7//18 9//18 11//18
f 11//18 13//18 7//18
f 13//21 15//21 7//21
f 15//18 17//18 19//18
f 19//21 21//21 23//21
f 23//18 25//18 27//18
f 27//18 29//18 23//18
f 29//18 31//18 23//18
f 31//18 3//18 7//18
f 15//18 19//18 31//18
f 19//18 23//18 31//18
