# Blender v2.83.0 OBJ File: ''
# www.blender.org
o Cylinder.301_Cylinder.1730
v 1.019525 1.906703 2.027622
v 1.349617 2.224206 0.080770
v 0.592871 2.016612 1.973207
v 0.922963 2.334115 0.026355
v 0.161058 1.955783 1.890072
v 0.491150 2.273286 -0.056780
v -0.210175 1.733477 1.790874
v 0.119917 2.050980 -0.155978
v -0.464312 1.383539 1.690714
v -0.134220 1.701042 -0.256137
v -0.562661 0.959242 1.604842
v -0.232569 1.276745 -0.342009
v -0.490251 0.525183 1.546331
v -0.160159 0.842686 -0.400521
v -0.258105 0.147443 1.524088
v 0.071987 0.464946 -0.422764
v 0.098434 -0.116471 1.541499
v 0.428526 0.201032 -0.405352
v 0.525088 -0.226380 1.595915
v 0.855180 0.091123 -0.350937
v 0.956901 -0.165551 1.679050
v 1.286993 0.151952 -0.267802
v 1.328134 0.056754 1.778248
v 1.658226 0.374257 -0.168604
v 1.582271 0.406693 1.878407
v 1.912363 0.724196 -0.068445
v 1.680620 0.830990 1.964279
v 2.010712 1.148493 0.017427
v 1.608210 1.265049 2.022790
v 1.938302 1.582552 0.075939
v 1.376064 1.642790 2.045033
v 1.706156 1.960293 0.098182
vn 0.2215 0.9558 0.1934
vn -0.1631 0.9778 0.1318
vn -0.5229 0.8509 0.0501
vn -0.8031 0.5945 -0.0392
vn -0.9611 0.2476 -0.1226
vn -0.9727 -0.1370 -0.1873
vn -0.8362 -0.5008 -0.2235
vn -0.5725 -0.7883 -0.2256
vn -0.2215 -0.9558 -0.1934
vn 0.1631 -0.9778 -0.1318
vn 0.5229 -0.8509 -0.0501
vn 0.8031 -0.5945 0.0392
vn 0.9611 -0.2476 0.1226
vn 0.9727 0.1370 0.1873
vn 0.1650 0.1588 -0.9734
vn 0.8362 0.5008 0.2235
vn 0.5725 0.7883 0.2256
vn -0.1650 -0.1588 0.9734
s off
f 2//1 3//1 1//1
f 4//2 5//2 3//2
f 6//3 7//3 5//3
f 8//4 9//4 7//4
f 10//5 11//5 9//5
f 12//6 13//6 11//6
f 14//7 15//7 13//7
f 16//8 17//8 15//8
f 18//9 19//9 17//9
f 20//10 21//10 19//10
f 22//11 23//11 21//11
f 24//12 25//12 23//12
f 26//13 27//13 25//13
f 28//14 29//14 27//14
f 22//15 14//15 6//15
f 30//16 31//16 29//16
f 32//17 1//17 31//17
f 7//18 15//18 23//18
f 2//1 4//1 3//1
f 4//2 6//2 5//2
f 6//3 8//3 7//3
f 8//4 10//4 9//4
f 10//5 12//5 11//5
f 12//6 14//6 13//6
f 14//7 16//7 15//7
f 16//8 18//8 17//8
f 18//9 20//9 19//9
f 20//10 22//10 21//10
f 22//11 24//11 23//11
f 24//12 26//12 25//12
f 26//13 28//13 27//13
f 28//14 30//14 29//14
f 6//15 4//15 2//15
f 2//15 32//15 30//15
f 30//15 28//15 26//15
f 26//15 24//15 22//15
f 22//15 20//15 18//15
f 18//15 16//15 14//15
f 14//15 12//15 10//15
f 10//15 8//15 6//15
f 6//15 2//15 30//15
f 30//15 26//15 6//15
f 26//15 22//15 6//15
f 22//15 18//15 14//15
f 14//15 10//15 6//15
f 30//16 32//16 31//16
f 32//17 2//17 1//17
f 31//18 1//18 3//18
f 3//18 5//18 7//18
f 7//18 9//18 11//18
f 11//18 13//18 7//18
f 13//18 15//18 7//18
f 15//18 17//18 23//18
f 17//18 19//18 23//18
f 19//18 21//18 23//18
f 23//18 25//18 27//18
f 27//18 29//18 31//18
f 31//18 3//18 7//18
f 23//18 27//18 31//18
f 31//18 7//18 23//18
