# Blender v2.83.0 OBJ File: ''
# www.blender.org
o Cylinder.256_Cylinder.1685
v -0.378100 1.756111 0.460453
v 0.685293 3.218654 1.314948
v -0.122775 1.933892 -0.161581
v 0.940619 3.396435 0.692913
v 0.316257 1.929828 -0.700987
v 1.379650 3.392372 0.153507
v 0.872154 1.744539 -1.075646
v 1.935548 3.207082 -0.221151
v 1.460289 1.406231 -1.228519
v 2.523682 2.868774 -0.374024
v 1.991121 0.966410 -1.136332
v 3.054515 2.428954 -0.281837
v 2.383837 0.492035 -0.813120
v 3.447231 1.954578 0.041375
v 2.578650 0.055324 -0.308090
v 3.642044 1.517868 0.546405
v 2.545900 -0.277236 0.301873
v 3.609294 1.185307 1.156367
v 2.290575 -0.455018 0.923907
v 3.353968 1.007526 1.778401
v 1.851544 -0.450954 1.463313
v 2.914937 1.011589 2.317808
v 1.295646 -0.265664 1.837972
v 2.359039 1.196879 2.692466
v 0.707511 0.072643 1.990844
v 1.770905 1.535187 2.845339
v 0.176679 0.512464 1.898658
v 1.240072 1.975008 2.753152
v -0.216038 0.986840 1.575445
v 0.847356 2.449383 2.429940
v -0.410850 1.423551 1.070415
v 0.652544 2.886094 1.924910
vn -0.7632 0.6324 -0.1325
vn -0.5647 0.6821 -0.4647
vn -0.2801 0.6279 -0.7261
vn 0.0471 0.4782 -0.8770
vn 0.3671 0.2556 -0.8944
vn 0.6312 -0.0058 -0.7756
vn 0.7993 -0.2664 -0.5387
vn 0.8456 -0.4864 -0.2198
vn 0.7632 -0.6324 0.1325
vn 0.5647 -0.6821 0.4647
vn 0.2801 -0.6279 0.7261
vn -0.0471 -0.4782 0.8770
vn -0.3671 -0.2556 0.8944
vn -0.6312 0.0058 0.7756
vn 0.5317 0.7313 0.4272
vn -0.7993 0.2664 0.5387
vn -0.8456 0.4864 0.2198
vn -0.5317 -0.7313 -0.4272
s off
f 2//1 3//1 1//1
f 4//2 5//2 3//2
f 6//3 7//3 5//3
f 8//4 9//4 7//4
f 10//5 11//5 9//5
f 12//6 13//6 11//6
f 14//7 15//7 13//7
f 16//8 17//8 15//8
f 18//9 19//9 17//9
f 20//10 21//10 19//10
f 22//11 23//11 21//11
f 24//12 25//12 23//12
f 26//13 27//13 25//13
f 28//14 29//14 27//14
f 22//15 14//15 6//15
f 30//16 31//16 29//16
f 32//17 1//17 31//17
f 15//18 23//18 31//18
f 2//1 4//1 3//1
f 4//2 6//2 5//2
f 6//3 8//3 7//3
f 8//4 10//4 9//4
f 10//5 12//5 11//5
f 12//6 14//6 13//6
f 14//7 16//7 15//7
f 16//8 18//8 17//8
f 18//9 20//9 19//9
f 20//10 22//10 21//10
f 22//11 24//11 23//11
f 24//12 26//12 25//12
f 26//13 28//13 27//13
f 28//14 30//14 29//14
f 6//15 4//15 2//15
f 2//15 32//15 30//15
f 30//15 28//15 26//15
f 26//15 24//15 22//15
f 22//15 20//15 14//15
f 20//15 18//15 14//15
f 18//15 16//15 14//15
f 14//15 12//15 10//15
f 10//15 8//15 6//15
f 6//15 2//15 30//15
f 30//15 26//15 22//15
f 14//15 10//15 6//15
f 6//15 30//15 22//15
f 30//16 32//16 31//16
f 32//17 2//17 1//17
f 31//18 1//18 3//18
f 3//18 5//18 31//18
f 5//18 7//18 31//18
f 7//18 9//18 15//18
f 9//18 11//18 15//18
f 11//18 13//18 15//18
f 15//18 17//18 19//18
f 19//18 21//18 15//18
f 21//18 23//18 15//18
f 23//18 25//18 27//18
f 27//18 29//18 23//18
f 29//18 31//18 23//18
f 31//18 7//18 15//18
