# Blender v2.83.0 OBJ File: ''
# www.blender.org
o Cylinder.145_Cylinder.1574
v 2.253157 1.691173 -0.525437
v 0.520192 2.453584 0.119201
v 2.330782 1.480986 -0.068174
v 0.597816 2.243397 0.576464
v 2.309865 1.125601 0.295910
v 0.576900 1.888012 0.940548
v 2.193593 0.679121 0.511387
v 0.460627 1.441533 1.156025
v 1.999666 0.209520 0.545452
v 0.266700 0.971932 1.190091
v 1.757607 -0.211710 0.392919
v 0.024642 0.550701 1.037558
v 1.504269 -0.520441 0.077011
v -0.228697 0.241971 0.721650
v 1.278219 -0.669671 -0.354179
v -0.454747 0.092741 0.290459
v 1.113872 -0.636681 -0.835007
v -0.619094 0.125730 -0.190368
v 1.036247 -0.426495 -1.292269
v -0.696718 0.335917 -0.647631
v 1.057163 -0.071110 -1.656353
v -0.675802 0.691302 -1.011715
v 1.173436 0.375370 -1.871831
v -0.559530 1.137781 -1.227192
v 1.367363 0.844971 -1.905896
v -0.365602 1.607382 -1.261257
v 1.609422 1.266201 -1.753363
v -0.123544 2.028613 -1.108725
v 1.862760 1.574932 -1.437455
v 0.129795 2.337344 -0.792816
v 2.088810 1.724162 -1.006264
v 0.355845 2.486574 -0.361625
vn 0.4754 0.8272 0.2995
vn 0.4975 0.6063 0.6204
vn 0.4439 0.2931 0.8468
vn 0.3228 -0.0648 0.9443
vn 0.1524 -0.4128 0.8980
vn -0.0411 -0.6979 0.7150
vn -0.2283 -0.8768 0.4232
vn -0.3808 -0.9222 0.0669
vn -0.4754 -0.8272 -0.2995
vn -0.4975 -0.6063 -0.6204
vn -0.4439 -0.2931 -0.8468
vn -0.3228 0.0648 -0.9443
vn -0.1524 0.4128 -0.8980
vn 0.0411 0.6979 -0.7150
vn -0.8665 0.3812 0.3223
vn 0.2283 0.8768 -0.4232
vn 0.3808 0.9222 -0.0669
vn 0.8665 -0.3812 -0.3223
s off
f 2//1 3//1 1//1
f 4//2 5//2 3//2
f 6//3 7//3 5//3
f 8//4 9//4 7//4
f 10//5 11//5 9//5
f 12//6 13//6 11//6
f 14//7 15//7 13//7
f 16//8 17//8 15//8
f 18//9 19//9 17//9
f 20//10 21//10 19//10
f 22//11 23//11 21//11
f 24//12 25//12 23//12
f 26//13 27//13 25//13
f 28//14 29//14 27//14
f 6//15 30//15 22//15
f 30//16 31//16 29//16
f 32//17 1//17 31//17
f 7//18 15//18 23//18
f 2//1 4//1 3//1
f 4//2 6//2 5//2
f 6//3 8//3 7//3
f 8//4 10//4 9//4
f 10//5 12//5 11//5
f 12//6 14//6 13//6
f 14//7 16//7 15//7
f 16//8 18//8 17//8
f 18//9 20//9 19//9
f 20//10 22//10 21//10
f 22//11 24//11 23//11
f 24//12 26//12 25//12
f 26//13 28//13 27//13
f 28//14 30//14 29//14
f 6//15 4//15 30//15
f 4//15 2//15 30//15
f 2//15 32//15 30//15
f 30//15 28//15 22//15
f 28//15 26//15 22//15
f 26//15 24//15 22//15
f 22//15 20//15 18//15
f 18//15 16//15 14//15
f 14//15 12//15 10//15
f 10//15 8//15 14//15
f 8//15 6//15 14//15
f 22//15 18//15 6//15
f 18//15 14//15 6//15
f 30//16 32//16 31//16
f 32//17 2//17 1//17
f 31//18 1//18 3//18
f 3//18 5//18 7//18
f 7//18 9//18 11//18
f 11//18 13//18 15//18
f 15//18 17//18 19//18
f 19//18 21//18 23//18
f 23//18 25//18 31//18
f 25//18 27//18 31//18
f 27//18 29//18 31//18
f 31//18 3//18 7//18
f 7//18 11//18 15//18
f 15//18 19//18 23//18
f 31//18 7//18 23//18
