# Blender v2.83.0 OBJ File: ''
# www.blender.org
o Cylinder.078_Cylinder.1507
v 0.034761 1.413827 2.675763
v -0.805776 2.500460 1.222241
v -0.582039 1.417751 3.035378
v -1.422576 2.504384 1.581856
v -1.227750 1.191996 3.240006
v -2.068287 2.278629 1.786484
v -1.804068 0.770930 3.258494
v -2.644606 1.857563 1.804972
v -2.223255 0.218657 3.088028
v -3.063792 1.305290 1.634506
v -2.421491 -0.380744 2.754559
v -3.262028 0.705889 1.301037
v -2.368599 -0.936020 2.308856
v -3.209136 0.150612 0.855334
v -2.072629 -1.362636 1.818772
v -2.913166 -0.276003 0.365250
v -1.578642 -1.595643 1.358919
v -2.419179 -0.509010 -0.094603
v -0.961842 -1.599567 0.999304
v -1.802379 -0.512934 -0.454218
v -0.316131 -1.373812 0.794676
v -1.156668 -0.287179 -0.658846
v 0.260188 -0.952746 0.776188
v -0.580349 0.133887 -0.677334
v 0.679374 -0.400473 0.946654
v -0.161163 0.686160 -0.506868
v 0.877611 0.198929 1.280123
v 0.037074 1.285562 -0.173399
v 0.824718 0.754205 1.725826
v -0.015819 1.840838 0.272304
v 0.528748 1.180821 2.215910
v -0.311789 2.267454 0.762388
vn 0.2776 0.8395 0.4670
vn -0.0741 0.7777 0.6242
vn -0.4145 0.5975 0.6864
vn -0.6919 0.3263 0.6441
vn -0.8639 0.0055 0.5037
vn -0.9044 -0.3162 0.2866
vn -0.8072 -0.5897 0.0259
vn -0.5871 -0.7735 -0.2388
vn -0.2776 -0.8395 -0.4670
vn 0.0741 -0.7777 -0.6242
vn 0.4145 -0.5975 -0.6864
vn 0.6919 -0.3263 -0.6441
vn 0.8639 -0.0055 -0.5037
vn 0.9044 0.3162 -0.2866
vn -0.4203 0.5433 -0.7268
vn 0.8072 0.5897 -0.0259
vn 0.5871 0.7735 0.2388
vn 0.4203 -0.5433 0.7268
s off
f 2//1 3//1 1//1
f 4//2 5//2 3//2
f 6//3 7//3 5//3
f 8//4 9//4 7//4
f 10//5 11//5 9//5
f 12//6 13//6 11//6
f 14//7 15//7 13//7
f 16//8 17//8 15//8
f 18//9 19//9 17//9
f 20//10 21//10 19//10
f 22//11 23//11 21//11
f 24//12 25//12 23//12
f 25//13 28//13 27//13
f 28//14 29//14 27//14
f 18//15 14//15 6//15
f 30//16 31//16 29//16
f 31//17 2//17 1//17
f 31//18 7//18 15//18
f 2//1 4//1 3//1
f 4//2 6//2 5//2
f 6//3 8//3 7//3
f 8//4 10//4 9//4
f 10//5 12//5 11//5
f 12//6 14//6 13//6
f 14//7 16//7 15//7
f 16//8 18//8 17//8
f 18//9 20//9 19//9
f 20//10 22//10 21//10
f 22//11 24//11 23//11
f 24//12 26//12 25//12
f 25//13 26//13 28//13
f 28//14 30//14 29//14
f 6//15 4//15 2//15
f 2//15 32//15 6//15
f 32//15 30//15 6//15
f 30//15 28//15 26//15
f 26//15 24//15 22//15
f 22//15 20//15 18//15
f 18//15 16//15 14//15
f 14//15 12//15 6//15
f 12//15 10//15 6//15
f 10//15 8//15 6//15
f 30//15 26//15 6//15
f 26//15 22//15 6//15
f 22//15 18//15 6//15
f 30//16 32//16 31//16
f 31//17 32//17 2//17
f 31//18 1//18 7//18
f 1//18 3//18 7//18
f 3//18 5//18 7//18
f 7//18 9//18 11//18
f 11//18 13//18 15//18
f 15//18 17//18 19//18
f 19//18 21//18 23//18
f 23//18 25//18 27//18
f 27//18 29//18 31//18
f 7//18 11//18 15//18
f 15//18 19//18 31//18
f 19//18 23//18 31//18
f 23//18 27//18 31//18
