# Blender v2.83.0 OBJ File: ''
# www.blender.org
o Cylinder.228_Cylinder.1657
v 1.646129 0.626443 -2.536799
v -0.123027 0.036207 -3.259093
v 1.346443 1.262786 -2.322760
v -0.422713 0.672550 -3.045054
v 1.005796 1.736817 -1.875758
v -0.763360 1.146581 -2.598052
v 0.676049 1.976370 -1.263844
v -1.093107 1.386134 -1.986138
v 0.407403 1.944974 -0.580178
v -1.361753 1.354738 -1.302472
v 0.240756 1.647409 0.071160
v -1.528400 1.057173 -0.651134
v 0.201480 1.128978 0.591009
v -1.567676 0.538742 -0.131285
v 0.295553 0.468605 0.900226
v -1.473603 -0.121631 0.177932
v 0.508654 -0.233172 0.951736
v -1.260503 -0.823408 0.229442
v 0.808339 -0.869515 0.737698
v -0.960817 -1.459751 0.015404
v 1.148986 -1.343546 0.290696
v -0.620170 -1.933782 -0.431598
v 1.478733 -1.583099 -0.321218
v -0.290423 -2.173335 -1.043512
v 1.747380 -1.551703 -1.004885
v -0.021777 -2.141939 -1.727179
v 1.914026 -1.254138 -1.656223
v 0.144870 -1.844374 -2.378517
v 1.953303 -0.735706 -2.176072
v 0.184147 -1.325942 -2.898365
v 1.859229 -0.075333 -2.485289
v 0.090073 -0.665569 -3.207583
vn 0.2267 0.4047 -0.8859
vn 0.0534 0.7051 -0.7071
vn -0.1280 0.8982 -0.4206
vn -0.2898 0.9545 -0.0701
vn -0.4076 0.8655 0.2911
vn -0.4633 0.6447 0.6080
vn -0.4485 0.3258 0.8323
vn -0.3654 -0.0427 0.9299
vn -0.2267 -0.4047 0.8859
vn -0.0534 -0.7051 0.7071
vn 0.1280 -0.8982 0.4206
vn 0.2898 -0.9545 0.0701
vn 0.4076 -0.8655 -0.2911
vn 0.4633 -0.6447 -0.6080
vn -0.8846 -0.2951 -0.3611
vn 0.4485 -0.3258 -0.8323
vn 0.3654 0.0427 -0.9299
vn 0.8846 0.2951 0.3611
s off
f 2//1 3//1 1//1
f 4//2 5//2 3//2
f 6//3 7//3 5//3
f 8//4 9//4 7//4
f 10//5 11//5 9//5
f 12//6 13//6 11//6
f 14//7 15//7 13//7
f 16//8 17//8 15//8
f 18//9 19//9 17//9
f 20//10 21//10 19//10
f 22//11 23//11 21//11
f 24//12 25//12 23//12
f 26//13 27//13 25//13
f 28//14 29//14 27//14
f 30//15 22//15 14//15
f 29//16 32//16 31//16
f 32//17 1//17 31//17
f 15//18 23//18 31//18
f 2//1 4//1 3//1
f 4//2 6//2 5//2
f 6//3 8//3 7//3
f 8//4 10//4 9//4
f 10//5 12//5 11//5
f 12//6 14//6 13//6
f 14//7 16//7 15//7
f 16//8 18//8 17//8
f 18//9 20//9 19//9
f 20//10 22//10 21//10
f 22//11 24//11 23//11
f 24//12 26//12 25//12
f 26//13 28//13 27//13
f 28//14 30//14 29//14
f 6//15 4//15 2//15
f 2//15 32//15 30//15
f 30//15 28//15 26//15
f 26//15 24//15 22//15
f 22//15 20//15 18//15
f 18//15 16//15 22//15
f 16//15 14//15 22//15
f 14//15 12//15 10//15
f 10//15 8//15 6//15
f 6//15 2//15 30//15
f 30//15 26//15 22//15
f 14//15 10//15 6//15
f 6//15 30//15 14//15
f 29//16 30//16 32//16
f 32//17 2//17 1//17
f 31//18 1//18 3//18
f 3//18 5//18 7//18
f 7//18 9//18 11//18
f 11//18 13//18 7//18
f 13//18 15//18 7//18
f 15//18 17//18 19//18
f 19//18 21//18 23//18
f 23//18 25//18 31//18
f 25//18 27//18 31//18
f 27//18 29//18 31//18
f 31//18 3//18 7//18
f 15//18 19//18 23//18
f 31//18 7//18 15//18
