# Blender v2.83.0 OBJ File: ''
# www.blender.org
o Cylinder.181_Cylinder.1610
v 0.740703 2.448466 -2.477161
v 1.152753 2.218084 -0.533675
v 1.415142 2.111101 -2.660145
v 1.827192 1.880719 -0.716659
v 1.904720 1.534185 -2.832331
v 2.316770 1.303803 -0.888845
v 2.134903 0.805550 -2.967506
v 2.546953 0.575168 -1.024020
v 2.070648 0.036123 -3.045091
v 2.482698 -0.194259 -1.101605
v 1.721738 -0.656958 -3.053275
v 2.133787 -0.887340 -1.109789
v 1.141290 -1.168176 -2.990811
v 1.553339 -1.398558 -1.047325
v 0.417673 -1.419705 -2.867209
v 0.829722 -1.650087 -0.923723
v -0.338950 -1.373250 -2.701287
v 0.073100 -1.603632 -0.757801
v -1.013388 -1.035885 -2.518304
v -0.601339 -1.266267 -0.574818
v -1.502966 -0.458970 -2.346117
v -1.090917 -0.689352 -0.402631
v -1.733150 0.269666 -2.210942
v -1.321100 0.039284 -0.267456
v -1.668895 1.039093 -2.133357
v -1.256845 0.808711 -0.189871
v -1.319984 1.732174 -2.125173
v -0.907934 1.501792 -0.181687
v -0.739536 2.243392 -2.187637
v -0.327486 2.013011 -0.244151
v -0.015918 2.494921 -2.311239
v 0.396132 2.264539 -0.367753
vn 0.4496 0.8932 0.0105
vn 0.7480 0.6588 -0.0805
vn 0.9325 0.3241 -0.1593
vn 0.9750 -0.0599 -0.2138
vn 0.8691 -0.4348 -0.2358
vn 0.6309 -0.7435 -0.2219
vn 0.2966 -0.9390 -0.1742
vn -0.0828 -0.9915 -0.1000
vn -0.4496 -0.8932 -0.0105
vn -0.7480 -0.6588 0.0805
vn -0.9325 -0.3241 0.1593
vn -0.9750 0.0599 0.2138
vn -0.8691 0.4348 0.2358
vn -0.6309 0.7435 0.2219
vn 0.2060 -0.1152 0.9717
vn -0.2966 0.9390 0.1742
vn 0.0828 0.9915 0.1000
vn -0.2060 0.1152 -0.9717
s off
f 2//1 3//1 1//1
f 4//2 5//2 3//2
f 6//3 7//3 5//3
f 8//4 9//4 7//4
f 10//5 11//5 9//5
f 12//6 13//6 11//6
f 14//7 15//7 13//7
f 16//8 17//8 15//8
f 18//9 19//9 17//9
f 20//10 21//10 19//10
f 22//11 23//11 21//11
f 24//12 25//12 23//12
f 26//13 27//13 25//13
f 28//14 29//14 27//14
f 30//15 22//15 14//15
f 30//16 31//16 29//16
f 32//17 1//17 31//17
f 31//18 7//18 15//18
f 2//1 4//1 3//1
f 4//2 6//2 5//2
f 6//3 8//3 7//3
f 8//4 10//4 9//4
f 10//5 12//5 11//5
f 12//6 14//6 13//6
f 14//7 16//7 15//7
f 16//8 18//8 17//8
f 18//9 20//9 19//9
f 20//10 22//10 21//10
f 22//11 24//11 23//11
f 24//12 26//12 25//12
f 26//13 28//13 27//13
f 28//14 30//14 29//14
f 6//15 4//15 2//15
f 2//15 32//15 30//15
f 30//15 28//15 26//15
f 26//15 24//15 22//15
f 22//15 20//15 18//15
f 18//15 16//15 22//15
f 16//15 14//15 22//15
f 14//15 12//15 10//15
f 10//15 8//15 14//15
f 8//15 6//15 14//15
f 6//15 2//15 30//15
f 30//15 26//15 22//15
f 6//15 30//15 14//15
f 30//16 32//16 31//16
f 32//17 2//17 1//17
f 31//18 1//18 3//18
f 3//18 5//18 7//18
f 7//18 9//18 11//18
f 11//18 13//18 15//18
f 15//18 17//18 23//18
f 17//18 19//18 23//18
f 19//18 21//18 23//18
f 23//18 25//18 27//18
f 27//18 29//18 31//18
f 31//18 3//18 7//18
f 7//18 11//18 15//18
f 23//18 27//18 15//18
f 27//18 31//18 15//18
