# Blender v2.83.0 OBJ File: ''
# www.blender.org
o Cylinder.051_Cylinder.1480
v 3.457906 2.429405 -1.928298
v 1.774820 2.556505 -3.001176
v 3.301532 2.882687 -1.629287
v 1.618446 3.009787 -2.702165
v 3.056737 3.173069 -1.210863
v 1.373652 3.300168 -2.283741
v 2.760790 3.256342 -0.736727
v 1.077703 3.383442 -1.809605
v 2.458744 3.119830 -0.279062
v 0.775658 3.246930 -1.351940
v 2.196584 2.784315 0.092456
v 0.513498 2.911414 -0.980421
v 2.014221 2.300875 0.321268
v 0.331135 2.427975 -0.751610
v 1.939419 1.743112 0.372539
v 0.256333 1.870211 -0.700339
v 1.983565 1.195938 0.238463
v 0.300479 1.323038 -0.834414
v 2.139938 0.742656 -0.060547
v 0.456852 0.869756 -1.133425
v 2.384733 0.452275 -0.478971
v 0.701647 0.579374 -1.551849
v 2.680681 0.369001 -0.953107
v 0.997595 0.496101 -2.025985
v 2.982727 0.505513 -1.410772
v 1.299641 0.632613 -2.483650
v 3.244887 0.841029 -1.782291
v 1.561801 0.968128 -2.855169
v 3.427249 1.324468 -2.011103
v 1.744164 1.451568 -3.083981
v 3.502052 1.882232 -2.062374
v 1.818966 2.009332 -3.135252
vn 0.4639 0.5937 -0.6575
vn 0.3227 0.8555 -0.4049
vn 0.1324 0.9870 -0.0907
vn -0.0781 0.9683 0.2373
vn -0.2767 0.8021 0.5291
vn -0.4332 0.5139 0.7405
vn -0.5237 0.1474 0.8390
vn -0.5345 -0.2416 0.8099
vn -0.4639 -0.5937 0.6575
vn -0.3227 -0.8555 0.4049
vn -0.1324 -0.9870 0.0907
vn 0.0781 -0.9683 -0.2373
vn 0.2767 -0.8021 -0.5291
vn 0.4332 -0.5139 -0.7405
vn -0.8415 0.0635 -0.5364
vn 0.5237 -0.1474 -0.8390
vn 0.5345 0.2416 -0.8099
vn 0.8415 -0.0635 0.5364
vn -0.8415 0.0636 -0.5364
vn 0.8415 -0.0636 0.5364
s off
f 2//1 3//1 1//1
f 4//2 5//2 3//2
f 6//3 7//3 5//3
f 8//4 9//4 7//4
f 10//5 11//5 9//5
f 12//6 13//6 11//6
f 14//7 15//7 13//7
f 16//8 17//8 15//8
f 18//9 19//9 17//9
f 20//10 21//10 19//10
f 22//11 23//11 21//11
f 24//12 25//12 23//12
f 26//13 27//13 25//13
f 28//14 29//14 27//14
f 10//15 6//15 22//15
f 30//16 31//16 29//16
f 32//17 1//17 31//17
f 15//18 23//18 31//18
f 2//1 4//1 3//1
f 4//2 6//2 5//2
f 6//3 8//3 7//3
f 8//4 10//4 9//4
f 10//5 12//5 11//5
f 12//6 14//6 13//6
f 14//7 16//7 15//7
f 16//8 18//8 17//8
f 18//9 20//9 19//9
f 20//10 22//10 21//10
f 22//11 24//11 23//11
f 24//12 26//12 25//12
f 26//13 28//13 27//13
f 28//14 30//14 29//14
f 6//19 4//19 2//19
f 2//15 32//15 30//15
f 30//19 28//19 26//19
f 26//19 24//19 22//19
f 22//15 20//15 18//15
f 18//15 16//15 14//15
f 14//15 12//15 10//15
f 10//15 8//15 6//15
f 6//15 2//15 30//15
f 30//15 26//15 6//15
f 26//15 22//15 6//15
f 22//15 18//15 14//15
f 14//15 10//15 22//15
f 30//16 32//16 31//16
f 32//17 2//17 1//17
f 31//18 1//18 3//18
f 3//20 5//20 31//20
f 5//18 7//18 31//18
f 7//18 9//18 11//18
f 11//18 13//18 15//18
f 15//18 17//18 19//18
f 19//18 21//18 15//18
f 21//18 23//18 15//18
f 23//18 25//18 27//18
f 27//20 29//20 31//20
f 7//18 11//18 31//18
f 11//18 15//18 31//18
f 23//18 27//18 31//18
