# Blender v2.83.0 OBJ File: ''
# www.blender.org
o Cylinder.348_Cylinder.1777
v -0.457989 -0.240971 -0.284344
v 0.254930 1.245269 -1.416967
v -0.429179 0.027491 0.086070
v 0.283740 1.513731 -1.046554
v -0.566081 0.332290 0.399859
v 0.146838 1.818531 -0.732764
v -0.847853 0.627024 0.609252
v -0.134934 2.113264 -0.523371
v -1.231598 0.866820 0.682371
v -0.518678 2.353060 -0.450252
v -1.658893 1.015173 0.608084
v -0.945974 2.501413 -0.524539
v -2.064687 1.049497 0.397701
v -1.351768 2.535738 -0.734922
v -2.387203 0.964567 0.083250
v -1.674283 2.450807 -1.049373
v -2.577338 0.773312 -0.287396
v -1.864419 2.259552 -1.420019
v -2.606148 0.504849 -0.657809
v -1.893229 1.991090 -1.790432
v -2.469246 0.200050 -0.971599
v -1.756327 1.686291 -2.104222
v -2.187475 -0.094683 -1.180992
v -1.474555 1.391557 -2.313615
v -1.803730 -0.334480 -1.254111
v -1.090811 1.151761 -2.386734
v -1.376434 -0.482833 -1.179824
v -0.663515 1.003408 -2.312447
v -0.970640 -0.517157 -0.969441
v -0.257720 0.969084 -2.102064
v -0.648125 -0.432226 -0.654990
v 0.064795 1.054014 -1.787613
vn 0.9322 -0.3236 0.1621
vn 0.8853 -0.0749 0.4590
vn 0.7036 0.1853 0.6860
vn 0.4148 0.4172 0.8086
vn 0.0629 0.5857 0.8081
vn -0.2987 0.6650 0.6846
vn -0.6147 0.6430 0.4568
vn -0.8372 0.5231 0.1595
vn -0.9322 0.3237 -0.1621
vn -0.8853 0.0749 -0.4590
vn -0.7036 -0.1853 -0.6860
vn -0.4148 -0.4172 -0.8086
vn -0.0629 -0.5857 -0.8081
vn 0.2987 -0.6650 -0.6846
vn 0.3565 0.7431 -0.5663
vn 0.6147 -0.6430 -0.4568
vn 0.8372 -0.5231 -0.1595
vn -0.3565 -0.7431 0.5663
vn -0.9322 0.3236 -0.1621
s off
f 2//1 3//1 1//1
f 4//2 5//2 3//2
f 6//3 7//3 5//3
f 8//4 9//4 7//4
f 10//5 11//5 9//5
f 12//6 13//6 11//6
f 14//7 15//7 13//7
f 16//8 17//8 15//8
f 18//9 19//9 17//9
f 20//10 21//10 19//10
f 22//11 23//11 21//11
f 24//12 25//12 23//12
f 26//13 27//13 25//13
f 28//14 29//14 27//14
f 14//15 10//15 6//15
f 30//16 31//16 29//16
f 32//17 1//17 31//17
f 15//18 23//18 31//18
f 2//1 4//1 3//1
f 4//2 6//2 5//2
f 6//3 8//3 7//3
f 8//4 10//4 9//4
f 10//5 12//5 11//5
f 12//6 14//6 13//6
f 14//7 16//7 15//7
f 16//8 18//8 17//8
f 18//19 20//19 19//19
f 20//10 22//10 21//10
f 22//11 24//11 23//11
f 24//12 26//12 25//12
f 26//13 28//13 27//13
f 28//14 30//14 29//14
f 6//15 4//15 2//15
f 2//15 32//15 30//15
f 30//15 28//15 26//15
f 26//15 24//15 22//15
f 22//15 20//15 18//15
f 18//15 16//15 14//15
f 14//15 12//15 10//15
f 10//15 8//15 6//15
f 6//15 2//15 30//15
f 30//15 26//15 6//15
f 26//15 22//15 6//15
f 22//15 18//15 6//15
f 18//15 14//15 6//15
f 30//16 32//16 31//16
f 32//17 2//17 1//17
f 31//18 1//18 3//18
f 3//18 5//18 7//18
f 7//18 9//18 11//18
f 11//18 13//18 7//18
f 13//18 15//18 7//18
f 15//18 17//18 19//18
f 19//18 21//18 23//18
f 23//18 25//18 31//18
f 25//18 27//18 31//18
f 27//18 29//18 31//18
f 31//18 3//18 7//18
f 15//18 19//18 23//18
f 31//18 7//18 15//18
