# Blender v2.83.0 OBJ File: ''
# www.blender.org
o Cylinder.214_Cylinder.1643
v -2.338394 0.214928 2.216874
v -2.758815 1.193407 0.523999
v -2.564982 -0.067718 2.109777
v -2.985404 0.910761 0.416903
v -2.662718 -0.393631 1.945673
v -3.083140 0.584848 0.252798
v -2.616721 -0.713192 1.749544
v -3.037143 0.265287 0.056669
v -2.433994 -0.977751 1.551249
v -2.854416 0.000728 -0.141625
v -2.142355 -1.147031 1.380977
v -2.562778 -0.168552 -0.311897
v -1.786205 -1.195262 1.264651
v -2.206627 -0.216783 -0.428224
v -1.419763 -1.115100 1.219979
v -1.840185 -0.136621 -0.472895
v -1.098817 -0.918749 1.253763
v -1.519238 0.059730 -0.439111
v -0.872228 -0.636102 1.360860
v -1.292650 0.342377 -0.332015
v -0.774492 -0.310190 1.524964
v -1.194914 0.668289 -0.167910
v -0.820489 0.009371 1.721093
v -1.240911 0.987850 0.028219
v -1.003216 0.273930 1.919388
v -1.423638 1.252409 0.226513
v -1.294855 0.443211 2.089660
v -1.715276 1.421690 0.396785
v -1.651005 0.491441 2.205986
v -2.071427 1.469920 0.513112
v -2.017448 0.411279 2.250658
v -2.437870 1.389758 0.557783
vn -0.7720 0.4481 0.4507
vn -0.9428 0.1277 0.3079
vn -0.9700 -0.2122 0.1183
vn -0.8496 -0.5198 -0.0894
vn -0.5998 -0.7482 -0.2835
vn -0.2587 -0.8628 -0.4344
vn 0.1218 -0.8459 -0.5192
vn 0.4837 -0.7003 -0.5249
vn 0.7720 -0.4481 -0.4507
vn 0.9428 -0.1277 -0.3079
vn 0.9700 0.2122 -0.1183
vn 0.8496 0.5198 0.0894
vn 0.5998 0.7482 0.2835
vn 0.2587 0.8628 0.4344
vn -0.2102 0.4892 -0.8464
vn -0.1218 0.8459 0.5192
vn -0.4837 0.7003 0.5249
vn 0.2102 -0.4892 0.8464
s off
f 1//1 4//1 3//1
f 4//2 5//2 3//2
f 6//3 7//3 5//3
f 8//4 9//4 7//4
f 10//5 11//5 9//5
f 12//6 13//6 11//6
f 14//7 15//7 13//7
f 16//8 17//8 15//8
f 18//9 19//9 17//9
f 20//10 21//10 19//10
f 22//11 23//11 21//11
f 24//12 25//12 23//12
f 26//13 27//13 25//13
f 28//14 29//14 27//14
f 22//15 14//15 6//15
f 30//16 31//16 29//16
f 32//17 1//17 31//17
f 27//18 31//18 15//18
f 1//1 2//1 4//1
f 4//2 6//2 5//2
f 6//3 8//3 7//3
f 8//4 10//4 9//4
f 10//5 12//5 11//5
f 12//6 14//6 13//6
f 14//7 16//7 15//7
f 16//8 18//8 17//8
f 18//9 20//9 19//9
f 20//10 22//10 21//10
f 22//11 24//11 23//11
f 24//12 26//12 25//12
f 26//13 28//13 27//13
f 28//14 30//14 29//14
f 6//15 4//15 2//15
f 2//15 32//15 30//15
f 30//15 28//15 22//15
f 28//15 26//15 22//15
f 26//15 24//15 22//15
f 22//15 20//15 18//15
f 18//15 16//15 22//15
f 16//15 14//15 22//15
f 14//15 12//15 10//15
f 10//15 8//15 14//15
f 8//15 6//15 14//15
f 6//15 2//15 30//15
f 6//15 30//15 22//15
f 30//16 32//16 31//16
f 32//17 2//17 1//17
f 31//18 1//18 3//18
f 3//18 5//18 7//18
f 7//18 9//18 11//18
f 11//18 13//18 15//18
f 15//18 17//18 23//18
f 17//18 19//18 23//18
f 19//18 21//18 23//18
f 23//18 25//18 27//18
f 27//18 29//18 31//18
f 31//18 3//18 7//18
f 7//18 11//18 31//18
f 11//18 15//18 31//18
f 23//18 27//18 15//18
