# Blender v2.83.0 OBJ File: ''
# www.blender.org
o Cylinder.260_Cylinder.1689
v 0.494721 2.430395 0.084382
v 2.169856 2.917654 1.062391
v 0.883599 2.033196 -0.383800
v 2.558734 2.520455 0.594209
v 1.212197 1.443397 -0.652775
v 2.887332 1.930656 0.325234
v 1.430488 0.750789 -0.681595
v 3.105623 1.238048 0.296414
v 1.505238 0.060815 -0.465873
v 3.180373 0.548074 0.512136
v 1.425069 -0.521482 -0.038450
v 3.100204 -0.034222 0.939559
v 1.202185 -0.907452 0.535603
v 2.877320 -0.420193 1.513611
v 0.870519 -1.038336 1.168890
v 2.545653 -0.551077 2.146899
v 0.480562 -0.894208 1.765001
v 2.155697 -0.406949 2.743010
v 0.091684 -0.497009 2.233182
v 1.766819 -0.009750 3.211191
v -0.236914 0.092789 2.502158
v 1.438221 0.580049 3.480167
v -0.455205 0.785398 2.530978
v 1.219930 1.272657 3.508987
v -0.529956 1.475371 2.315256
v 1.145179 1.962631 3.293265
v -0.449786 2.057668 1.887833
v 1.225348 2.544928 2.865842
v -0.226902 2.443639 1.313780
v 1.448233 2.930898 2.291789
v 0.104765 2.574523 0.680492
v 1.779900 3.061782 1.658501
vn 0.1103 0.8012 -0.5881
vn 0.3067 0.5311 -0.7899
vn 0.4564 0.1801 -0.8714
vn 0.5366 -0.1983 -0.8202
vn 0.5351 -0.5465 -0.6442
vn 0.4521 -0.8115 -0.3701
vn 0.3004 -0.9530 -0.0397
vn 0.1029 -0.9494 0.2968
vn -0.1103 -0.8012 0.5881
vn -0.3067 -0.5311 0.7899
vn -0.4564 -0.1801 0.8714
vn -0.5366 0.1983 0.8202
vn -0.5351 0.5465 0.6442
vn -0.4521 0.8115 0.3701
vn 0.8376 0.2436 0.4890
vn -0.3004 0.9530 0.0397
vn -0.1029 0.9494 -0.2968
vn -0.8376 -0.2436 -0.4890
s off
f 2//1 3//1 1//1
f 4//2 5//2 3//2
f 6//3 7//3 5//3
f 8//4 9//4 7//4
f 10//5 11//5 9//5
f 12//6 13//6 11//6
f 14//7 15//7 13//7
f 15//8 18//8 17//8
f 18//9 19//9 17//9
f 20//10 21//10 19//10
f 22//11 23//11 21//11
f 24//12 25//12 23//12
f 26//13 27//13 25//13
f 28//14 29//14 27//14
f 18//15 14//15 6//15
f 30//16 31//16 29//16
f 32//17 1//17 31//17
f 15//18 23//18 31//18
f 2//1 4//1 3//1
f 4//2 6//2 5//2
f 6//3 8//3 7//3
f 8//4 10//4 9//4
f 10//5 12//5 11//5
f 12//6 14//6 13//6
f 14//7 16//7 15//7
f 15//8 16//8 18//8
f 18//9 20//9 19//9
f 20//10 22//10 21//10
f 22//11 24//11 23//11
f 24//12 26//12 25//12
f 26//13 28//13 27//13
f 28//14 30//14 29//14
f 6//15 4//15 2//15
f 2//15 32//15 30//15
f 30//15 28//15 26//15
f 26//15 24//15 22//15
f 22//15 20//15 18//15
f 18//15 16//15 14//15
f 14//15 12//15 10//15
f 10//15 8//15 14//15
f 8//15 6//15 14//15
f 6//15 2//15 30//15
f 30//15 26//15 6//15
f 26//15 22//15 6//15
f 22//15 18//15 6//15
f 30//16 32//16 31//16
f 32//17 2//17 1//17
f 31//18 1//18 3//18
f 3//18 5//18 7//18
f 7//18 9//18 11//18
f 11//18 13//18 7//18
f 13//18 15//18 7//18
f 15//18 17//18 19//18
f 19//18 21//18 23//18
f 23//18 25//18 27//18
f 27//18 29//18 23//18
f 29//18 31//18 23//18
f 31//18 3//18 7//18
f 15//18 19//18 23//18
f 31//18 7//18 15//18
