# Blender v2.83.0 OBJ File: ''
# www.blender.org
o Cylinder.015_Cylinder.1444
v 1.776864 0.533987 -2.319158
v 2.837468 0.655484 -0.627899
v 1.695929 0.171380 -2.242354
v 2.756534 0.292876 -0.551095
v 1.502027 -0.121848 -2.099691
v 2.562632 -0.000351 -0.408432
v 1.224678 -0.301055 -1.912889
v 2.285282 -0.179559 -0.221630
v 0.906104 -0.338959 -1.710385
v 1.966709 -0.217463 -0.019127
v 0.594807 -0.229789 -1.523010
v 1.655411 -0.108293 0.168248
v 0.338179 0.009834 -1.379290
v 1.398783 0.131331 0.311968
v 0.175288 0.343431 -1.301105
v 1.235892 0.464927 0.390154
v 0.130933 0.720214 -1.300357
v 1.191538 0.841710 0.390902
v 0.211868 1.082821 -1.377161
v 1.272472 1.204318 0.314098
v 0.405770 1.376049 -1.519824
v 1.466374 1.497545 0.171435
v 0.683120 1.555256 -1.706626
v 1.743724 1.676753 -0.015367
v 1.001693 1.593160 -1.909129
v 2.062297 1.714657 -0.217871
v 1.312990 1.483990 -2.096504
v 2.373595 1.605487 -0.405245
v 1.569619 1.244367 -2.240224
v 2.630223 1.365863 -0.548966
v 1.732510 0.910770 -2.318410
v 2.793114 1.032266 -0.627151
vn 0.8205 -0.2878 -0.4939
vn 0.6764 -0.6316 -0.3788
vn 0.4294 -0.8793 -0.2061
vn 0.1169 -0.9931 -0.0020
vn -0.2133 -0.9558 0.2024
vn -0.5111 -0.7729 0.3760
vn -0.7310 -0.4724 0.4924
vn -0.8397 -0.0999 0.5338
vn -0.8205 0.2878 0.4939
vn -0.6764 0.6316 0.3788
vn -0.4294 0.8793 0.2061
vn -0.1169 0.9931 0.0020
vn 0.2133 0.9558 -0.2024
vn 0.5111 0.7729 -0.3760
vn 0.5303 0.0607 0.8456
vn 0.7311 0.4724 -0.4924
vn 0.8397 0.0999 -0.5338
vn -0.5303 -0.0607 -0.8456
vn -0.7311 -0.4724 0.4924
vn 0.7310 0.4724 -0.4924
s off
f 2//1 3//1 1//1
f 4//2 5//2 3//2
f 6//3 7//3 5//3
f 8//4 9//4 7//4
f 10//5 11//5 9//5
f 12//6 13//6 11//6
f 14//7 15//7 13//7
f 16//8 17//8 15//8
f 18//9 19//9 17//9
f 20//10 21//10 19//10
f 22//11 23//11 21//11
f 24//12 25//12 23//12
f 25//13 28//13 27//13
f 28//14 29//14 27//14
f 22//15 14//15 6//15
f 30//16 31//16 29//16
f 32//17 1//17 31//17
f 7//18 15//18 23//18
f 2//1 4//1 3//1
f 4//2 6//2 5//2
f 6//3 8//3 7//3
f 8//4 10//4 9//4
f 10//5 12//5 11//5
f 12//6 14//6 13//6
f 14//19 16//19 15//19
f 16//8 18//8 17//8
f 18//9 20//9 19//9
f 20//10 22//10 21//10
f 22//11 24//11 23//11
f 24//12 26//12 25//12
f 25//13 26//13 28//13
f 28//14 30//14 29//14
f 6//15 4//15 30//15
f 4//15 2//15 30//15
f 2//15 32//15 30//15
f 30//15 28//15 26//15
f 26//15 24//15 22//15
f 22//15 20//15 18//15
f 18//15 16//15 14//15
f 14//15 12//15 10//15
f 10//15 8//15 14//15
f 8//15 6//15 14//15
f 30//15 26//15 6//15
f 26//15 22//15 6//15
f 22//15 18//15 14//15
f 30//20 32//20 31//20
f 32//17 2//17 1//17
f 31//18 1//18 7//18
f 1//18 3//18 7//18
f 3//18 5//18 7//18
f 7//18 9//18 11//18
f 11//18 13//18 7//18
f 13//18 15//18 7//18
f 15//18 17//18 23//18
f 17//18 19//18 23//18
f 19//18 21//18 23//18
f 23//18 25//18 27//18
f 27//18 29//18 31//18
f 23//18 27//18 31//18
f 31//18 7//18 23//18
