# Blender v2.83.0 OBJ File: ''
# www.blender.org
o Cylinder.236_Cylinder.1665
v -2.522556 -1.588024 0.710564
v -1.478226 -0.452338 -0.562068
v -2.501616 -1.858567 0.486318
v -1.457286 -0.722881 -0.786314
v -2.367661 -2.148226 0.337753
v -1.323331 -1.012540 -0.934879
v -2.141085 -2.412904 0.287486
v -1.096755 -1.277218 -0.985145
v -1.856381 -2.612306 0.343171
v -0.812051 -1.476621 -0.929461
v -1.556894 -2.716075 0.496330
v -0.512564 -1.580389 -0.776302
v -1.288217 -2.708413 0.723645
v -0.243887 -1.572727 -0.548987
v -1.091255 -2.590487 0.990511
v -0.046925 -1.454801 -0.282121
v -0.995992 -2.380249 1.256298
v 0.048338 -1.244563 -0.016334
v -1.016932 -2.109706 1.480544
v 0.027398 -0.974020 0.207912
v -1.150887 -1.820047 1.629110
v -0.106557 -0.684361 0.356478
v -1.377464 -1.555368 1.679376
v -0.333133 -0.419683 0.406744
v -1.662167 -1.355966 1.623691
v -0.617837 -0.220280 0.351059
v -1.961654 -1.252197 1.470533
v -0.917324 -0.116511 0.197901
v -2.230331 -1.259859 1.243217
v -1.186001 -0.124174 -0.029415
v -2.427294 -1.377786 0.976352
v -1.382963 -0.242100 -0.296280
vn -0.8508 0.2948 -0.4351
vn -0.7632 -0.0218 -0.6457
vn -0.5595 -0.3350 -0.7581
vn -0.2706 -0.5972 -0.7550
vn 0.0595 -0.7685 -0.6370
vn 0.3805 -0.8228 -0.4220
vn 0.6436 -0.7519 -0.1428
vn 0.8088 -0.5665 0.1582
vn 0.8508 -0.2948 0.4351
vn 0.7632 0.0218 0.6457
vn 0.5595 0.3350 0.7581
vn 0.2706 0.5972 0.7550
vn -0.0595 0.7685 0.6370
vn -0.3805 0.8228 0.4220
vn 0.5222 0.5678 -0.6363
vn -0.6436 0.7519 0.1428
vn -0.8088 0.5665 -0.1582
vn -0.5222 -0.5678 0.6363
s off
f 2//1 3//1 1//1
f 4//2 5//2 3//2
f 6//3 7//3 5//3
f 8//4 9//4 7//4
f 10//5 11//5 9//5
f 12//6 13//6 11//6
f 14//7 15//7 13//7
f 16//8 17//8 15//8
f 18//9 19//9 17//9
f 20//10 21//10 19//10
f 22//11 23//11 21//11
f 24//12 25//12 23//12
f 26//13 27//13 25//13
f 28//14 29//14 27//14
f 22//15 14//15 6//15
f 30//16 31//16 29//16
f 32//17 1//17 31//17
f 15//18 23//18 31//18
f 2//1 4//1 3//1
f 4//2 6//2 5//2
f 6//3 8//3 7//3
f 8//4 10//4 9//4
f 10//5 12//5 11//5
f 12//6 14//6 13//6
f 14//7 16//7 15//7
f 16//8 18//8 17//8
f 18//9 20//9 19//9
f 20//10 22//10 21//10
f 22//11 24//11 23//11
f 24//12 26//12 25//12
f 26//13 28//13 27//13
f 28//14 30//14 29//14
f 6//15 4//15 2//15
f 2//15 32//15 30//15
f 30//15 28//15 26//15
f 26//15 24//15 22//15
f 22//15 20//15 14//15
f 20//15 18//15 14//15
f 18//15 16//15 14//15
f 14//15 12//15 10//15
f 10//15 8//15 14//15
f 8//15 6//15 14//15
f 6//15 2//15 30//15
f 30//15 26//15 6//15
f 26//15 22//15 6//15
f 30//16 32//16 31//16
f 32//17 2//17 1//17
f 31//18 1//18 7//18
f 1//18 3//18 7//18
f 3//18 5//18 7//18
f 7//18 9//18 15//18
f 9//18 11//18 15//18
f 11//18 13//18 15//18
f 15//18 17//18 23//18
f 17//18 19//18 23//18
f 19//18 21//18 23//18
f 23//18 25//18 27//18
f 27//18 29//18 23//18
f 29//18 31//18 23//18
f 31//18 7//18 15//18
