# Blender v2.83.0 OBJ File: ''
# www.blender.org
o Cylinder.230_Cylinder.1659
v -0.009994 -0.673463 1.318888
v -1.341360 0.768852 1.702546
v -0.301327 -0.875551 1.067634
v -1.632693 0.566763 1.451293
v -0.515979 -0.976864 0.703624
v -1.847345 0.465451 1.087283
v -0.621271 -0.961977 0.282275
v -1.952637 0.480337 0.665934
v -0.601174 -0.833157 -0.132266
v -1.932540 0.609157 0.251393
v -0.458748 -0.610016 -0.476890
v -1.790113 0.832299 -0.093231
v -0.215674 -0.326524 -0.699130
v -1.547040 1.115790 -0.315471
v 0.091040 -0.025841 -0.765152
v -1.240325 1.416473 -0.381494
v 0.414701 0.246257 -0.664906
v -0.916665 1.688571 -0.281247
v 0.706034 0.448345 -0.413653
v -0.625332 1.890660 -0.029994
v 0.920686 0.549658 -0.049643
v -0.410680 1.991972 0.334016
v 1.025979 0.534771 0.371706
v -0.305387 1.977086 0.755365
v 1.005882 0.405951 0.786248
v -0.325484 1.848266 1.169906
v 0.863455 0.182810 1.130871
v -0.467911 1.625124 1.514530
v 0.620381 -0.100682 1.353112
v -0.710985 1.341632 1.736770
v 0.313666 -0.401365 1.419134
v -1.017699 1.040949 1.802793
vn -0.3277 -0.5135 0.7930
vn -0.5594 -0.6524 0.5114
vn -0.7058 -0.6919 0.1519
vn -0.7448 -0.6261 -0.2307
vn -0.6704 -0.4650 -0.5782
vn -0.4940 -0.2331 -0.8377
vn -0.2423 0.0343 -0.9696
vn 0.0462 0.2964 -0.9539
vn 0.3277 0.5135 -0.7930
vn 0.5594 0.6524 -0.5114
vn 0.7058 0.6919 -0.1519
vn 0.7448 0.6261 0.2307
vn 0.6704 0.4650 0.5782
vn 0.4940 0.2331 0.8377
vn -0.6657 0.7212 0.1918
vn 0.2423 -0.0343 0.9696
vn -0.0462 -0.2964 0.9539
vn 0.6657 -0.7212 -0.1918
s off
f 2//1 3//1 1//1
f 4//2 5//2 3//2
f 6//3 7//3 5//3
f 8//4 9//4 7//4
f 10//5 11//5 9//5
f 12//6 13//6 11//6
f 14//7 15//7 13//7
f 16//8 17//8 15//8
f 18//9 19//9 17//9
f 20//10 21//10 19//10
f 22//11 23//11 21//11
f 24//12 25//12 23//12
f 26//13 27//13 25//13
f 28//14 29//14 27//14
f 22//15 14//15 6//15
f 30//16 31//16 29//16
f 32//17 1//17 31//17
f 15//18 23//18 31//18
f 2//1 4//1 3//1
f 4//2 6//2 5//2
f 6//3 8//3 7//3
f 8//4 10//4 9//4
f 10//5 12//5 11//5
f 12//6 14//6 13//6
f 14//7 16//7 15//7
f 16//8 18//8 17//8
f 18//9 20//9 19//9
f 20//10 22//10 21//10
f 22//11 24//11 23//11
f 24//12 26//12 25//12
f 26//13 28//13 27//13
f 28//14 30//14 29//14
f 6//15 4//15 30//15
f 4//15 2//15 30//15
f 2//15 32//15 30//15
f 30//15 28//15 22//15
f 28//15 26//15 22//15
f 26//15 24//15 22//15
f 22//15 20//15 18//15
f 18//15 16//15 14//15
f 14//15 12//15 10//15
f 10//15 8//15 14//15
f 8//15 6//15 14//15
f 22//15 18//15 14//15
f 6//15 30//15 22//15
f 30//16 32//16 31//16
f 32//17 2//17 1//17
f 31//18 1//18 3//18
f 3//18 5//18 31//18
f 5//18 7//18 31//18
f 7//18 9//18 11//18
f 11//18 13//18 15//18
f 15//18 17//18 23//18
f 17//18 19//18 23//18
f 19//18 21//18 23//18
f 23//18 25//18 27//18
f 27//18 29//18 31//18
f 7//18 11//18 15//18
f 23//18 27//18 31//18
f 31//18 7//18 15//18
