# Blender v2.83.0 OBJ File: ''
# www.blender.org
o Cylinder.315_Cylinder.1744
v -2.903938 -0.896022 1.705473
v -1.246619 -1.050194 0.596634
v -2.738334 -0.858371 1.947757
v -1.081015 -1.012543 0.838918
v -2.586177 -0.711619 2.154773
v -0.928858 -0.865790 1.045934
v -2.470631 -0.478107 2.295006
v -0.813312 -0.632278 1.186166
v -2.409288 -0.193385 2.347105
v -0.751969 -0.347556 1.238266
v -2.411486 0.099200 2.303139
v -0.754166 -0.054971 1.194300
v -2.476890 0.355105 2.169802
v -0.819571 0.200934 1.060963
v -2.595544 0.535371 1.967393
v -0.938225 0.381200 0.858554
v -2.749383 0.612553 1.726727
v -1.092064 0.458382 0.617888
v -2.914987 0.574902 1.484443
v -1.257668 0.420731 0.375604
v -3.067144 0.428150 1.277427
v -1.409825 0.273979 0.168587
v -3.182690 0.194638 1.137194
v -1.525371 0.040466 0.028355
v -3.244033 -0.090084 1.085095
v -1.586714 -0.244256 -0.023744
v -3.241836 -0.382670 1.129061
v -1.584516 -0.536841 0.020222
v -3.176431 -0.638575 1.262398
v -1.519112 -0.792746 0.153559
v -3.057777 -0.818840 1.464807
v -1.400458 -0.973011 0.355968
vn 0.0074 -0.9889 0.1486
vn 0.2211 -0.8649 0.4506
vn 0.4010 -0.6093 0.6841
vn 0.5199 -0.2609 0.8134
vn 0.5597 0.1273 0.8189
vn 0.5143 0.4960 0.6997
vn 0.3905 0.7892 0.4740
vn 0.2073 0.9623 0.1761
vn -0.0074 0.9889 -0.1486
vn -0.2211 0.8649 -0.4506
vn -0.4010 0.6093 -0.6841
vn -0.5199 0.2609 -0.8134
vn -0.5597 -0.1273 -0.8189
vn -0.5143 -0.4960 -0.6997
vn 0.8287 -0.0771 -0.5544
vn -0.3905 -0.7892 -0.4740
vn -0.2073 -0.9623 -0.1761
vn -0.8287 0.0771 0.5544
s off
f 2//1 3//1 1//1
f 4//2 5//2 3//2
f 6//3 7//3 5//3
f 8//4 9//4 7//4
f 10//5 11//5 9//5
f 12//6 13//6 11//6
f 14//7 15//7 13//7
f 16//8 17//8 15//8
f 18//9 19//9 17//9
f 20//10 21//10 19//10
f 22//11 23//11 21//11
f 24//12 25//12 23//12
f 26//13 27//13 25//13
f 28//14 29//14 27//14
f 22//15 14//15 6//15
f 30//16 31//16 29//16
f 32//17 1//17 31//17
f 7//18 15//18 23//18
f 2//1 4//1 3//1
f 4//2 6//2 5//2
f 6//3 8//3 7//3
f 8//4 10//4 9//4
f 10//5 12//5 11//5
f 12//6 14//6 13//6
f 14//7 16//7 15//7
f 16//8 18//8 17//8
f 18//9 20//9 19//9
f 20//10 22//10 21//10
f 22//11 24//11 23//11
f 24//12 26//12 25//12
f 26//13 28//13 27//13
f 28//14 30//14 29//14
f 6//15 4//15 30//15
f 4//15 2//15 30//15
f 2//15 32//15 30//15
f 30//15 28//15 26//15
f 26//15 24//15 22//15
f 22//15 20//15 18//15
f 18//15 16//15 22//15
f 16//15 14//15 22//15
f 14//15 12//15 10//15
f 10//15 8//15 14//15
f 8//15 6//15 14//15
f 30//15 26//15 6//15
f 26//15 22//15 6//15
f 30//16 32//16 31//16
f 32//17 2//17 1//17
f 31//18 1//18 3//18
f 3//18 5//18 7//18
f 7//18 9//18 11//18
f 11//18 13//18 15//18
f 15//18 17//18 19//18
f 19//18 21//18 23//18
f 23//18 25//18 27//18
f 27//18 29//18 31//18
f 31//18 3//18 7//18
f 7//18 11//18 15//18
f 15//18 19//18 23//18
f 23//18 27//18 31//18
f 31//18 7//18 23//18
