# Blender v2.83.0 OBJ File: ''
# www.blender.org
o Cylinder.179_Cylinder.1608
v -0.988345 -1.604264 0.904500
v 0.466260 -0.691077 -0.120298
v -1.088178 -1.062749 1.245336
v 0.366428 -0.149561 0.220538
v -1.346149 -0.487166 1.392066
v 0.108456 0.426022 0.367267
v -1.722986 0.034858 1.322351
v -0.268380 0.948045 0.297552
v -2.161318 0.423848 1.046804
v -0.706713 1.337035 0.022006
v -2.594414 0.620585 0.607376
v -1.139808 1.533772 -0.417423
v -2.956338 0.595118 0.070964
v -1.501732 1.508305 -0.953834
v -3.191991 0.351323 -0.480766
v -1.737385 1.264510 -1.505564
v -3.265496 -0.073684 -0.963819
v -1.810891 0.839503 -1.988618
v -3.165664 -0.615199 -1.304656
v -1.711058 0.297988 -2.329454
v -2.907693 -1.190782 -1.451385
v -1.453087 -0.277595 -2.476184
v -2.530856 -1.712806 -1.381670
v -1.076250 -0.799618 -2.406469
v -2.092523 -2.101796 -1.106124
v -0.637918 -1.188609 -2.130922
v -1.659428 -2.298533 -0.666695
v -0.204822 -1.385346 -1.691493
v -1.297503 -2.273066 -0.130283
v 0.157102 -1.359879 -1.155082
v -1.061851 -2.029270 0.421447
v 0.392755 -1.116083 -0.603351
vn 0.6688 -0.3038 0.6786
vn 0.5589 0.0393 0.8283
vn 0.3639 0.3765 0.8520
vn 0.1135 0.6563 0.7459
vn -0.1542 0.8362 0.5263
vn -0.3984 0.8888 0.2266
vn -0.5819 0.8061 -0.1077
vn -0.6769 0.6007 -0.4255
vn -0.6688 0.3038 -0.6786
vn -0.5589 -0.0393 -0.8283
vn -0.3639 -0.3765 -0.8520
vn -0.1135 -0.6563 -0.7459
vn 0.1542 -0.8362 -0.5263
vn 0.3984 -0.8888 -0.2266
vn 0.7273 0.4566 -0.5124
vn 0.5819 -0.8061 0.1077
vn 0.6769 -0.6007 0.4255
vn -0.7273 -0.4566 0.5124
s off
f 2//1 3//1 1//1
f 4//2 5//2 3//2
f 6//3 7//3 5//3
f 8//4 9//4 7//4
f 10//5 11//5 9//5
f 12//6 13//6 11//6
f 13//7 16//7 15//7
f 16//8 17//8 15//8
f 18//9 19//9 17//9
f 20//10 21//10 19//10
f 22//11 23//11 21//11
f 24//12 25//12 23//12
f 26//13 27//13 25//13
f 28//14 29//14 27//14
f 22//15 14//15 6//15
f 30//16 31//16 29//16
f 32//17 1//17 31//17
f 15//18 23//18 31//18
f 2//1 4//1 3//1
f 4//2 6//2 5//2
f 6//3 8//3 7//3
f 8//4 10//4 9//4
f 10//5 12//5 11//5
f 12//6 14//6 13//6
f 13//7 14//7 16//7
f 16//8 18//8 17//8
f 18//9 20//9 19//9
f 20//10 22//10 21//10
f 22//11 24//11 23//11
f 24//12 26//12 25//12
f 26//13 28//13 27//13
f 28//14 30//14 29//14
f 6//15 4//15 2//15
f 2//15 32//15 30//15
f 30//15 28//15 22//15
f 28//15 26//15 22//15
f 26//15 24//15 22//15
f 22//15 20//15 14//15
f 20//15 18//15 14//15
f 18//15 16//15 14//15
f 14//15 12//15 10//15
f 10//15 8//15 6//15
f 6//15 2//15 30//15
f 14//15 10//15 6//15
f 6//15 30//15 22//15
f 30//16 32//16 31//16
f 32//17 2//17 1//17
f 31//18 1//18 3//18
f 3//18 5//18 7//18
f 7//18 9//18 15//18
f 9//18 11//18 15//18
f 11//18 13//18 15//18
f 15//18 17//18 23//18
f 17//18 19//18 23//18
f 19//18 21//18 23//18
f 23//18 25//18 27//18
f 27//18 29//18 23//18
f 29//18 31//18 23//18
f 31//18 3//18 7//18
f 31//18 7//18 15//18
