# Blender v2.83.0 OBJ File: ''
# www.blender.org
o Cylinder.221_Cylinder.1650
v -0.703454 -0.001927 1.259367
v 0.081370 -0.398967 -0.536854
v -0.653063 -0.677625 1.430742
v 0.131760 -1.074665 -0.365479
v -0.361256 -1.258834 1.686713
v 0.423567 -1.655874 -0.109509
v 0.127541 -1.657071 1.988310
v 0.912364 -2.054111 0.192089
v 0.738914 -1.811707 2.289618
v 1.523738 -2.208747 0.493397
v 1.379787 -1.699201 2.544767
v 2.164611 -2.096241 0.748546
v 1.952592 -1.336680 2.714911
v 2.737416 -1.733720 0.918689
v 2.370126 -0.779336 2.774147
v 3.154950 -1.176376 0.977926
v 2.568822 -0.112018 2.713459
v 3.353646 -0.509058 0.917237
v 2.518431 0.563680 2.542084
v 3.303255 0.166640 0.745863
v 2.226625 1.144889 2.286113
v 3.011448 0.747849 0.489892
v 1.737827 1.543126 1.984516
v 2.522651 1.146086 0.188294
v 1.126454 1.697762 1.683207
v 1.911278 1.300722 -0.113014
v 0.485581 1.585256 1.428059
v 1.270404 1.188216 -0.368163
v -0.087225 1.222735 1.257915
v 0.697599 0.825695 -0.538306
v -0.504758 0.665390 1.198678
v 0.280065 0.268350 -0.597543
vn -0.9170 -0.1610 -0.3651
vn -0.8196 -0.5187 -0.2434
vn -0.5974 -0.7974 -0.0848
vn -0.2843 -0.9548 0.0868
vn 0.0721 -0.9668 0.2452
vn 0.4175 -0.8316 0.3662
vn 0.6994 -0.5698 0.4315
vn 0.8748 -0.2213 0.4311
vn 0.9170 0.1610 0.3651
vn 0.8196 0.5187 0.2434
vn 0.5974 0.7974 0.0848
vn 0.2843 0.9548 -0.0868
vn -0.0721 0.9668 -0.2452
vn -0.4175 0.8316 -0.3662
vn 0.3924 -0.1985 -0.8981
vn -0.6994 0.5698 -0.4315
vn -0.8748 0.2213 -0.4311
vn -0.3924 0.1985 0.8981
s off
f 2//1 3//1 1//1
f 4//2 5//2 3//2
f 6//3 7//3 5//3
f 8//4 9//4 7//4
f 10//5 11//5 9//5
f 12//6 13//6 11//6
f 14//7 15//7 13//7
f 16//8 17//8 15//8
f 18//9 19//9 17//9
f 20//10 21//10 19//10
f 22//11 23//11 21//11
f 24//12 25//12 23//12
f 26//13 27//13 25//13
f 28//14 29//14 27//14
f 30//15 22//15 14//15
f 30//16 31//16 29//16
f 32//17 1//17 31//17
f 31//18 7//18 15//18
f 2//1 4//1 3//1
f 4//2 6//2 5//2
f 6//3 8//3 7//3
f 8//4 10//4 9//4
f 10//5 12//5 11//5
f 12//6 14//6 13//6
f 14//7 16//7 15//7
f 16//8 18//8 17//8
f 18//9 20//9 19//9
f 20//10 22//10 21//10
f 22//11 24//11 23//11
f 24//12 26//12 25//12
f 26//13 28//13 27//13
f 28//14 30//14 29//14
f 6//15 4//15 2//15
f 2//15 32//15 30//15
f 30//15 28//15 26//15
f 26//15 24//15 22//15
f 22//15 20//15 14//15
f 20//15 18//15 14//15
f 18//15 16//15 14//15
f 14//15 12//15 6//15
f 12//15 10//15 6//15
f 10//15 8//15 6//15
f 6//15 2//15 30//15
f 30//15 26//15 22//15
f 6//15 30//15 14//15
f 30//16 32//16 31//16
f 32//17 2//17 1//17
f 31//18 1//18 3//18
f 3//18 5//18 31//18
f 5//18 7//18 31//18
f 7//18 9//18 11//18
f 11//18 13//18 7//18
f 13//18 15//18 7//18
f 15//18 17//18 19//18
f 19//18 21//18 23//18
f 23//18 25//18 31//18
f 25//18 27//18 31//18
f 27//18 29//18 31//18
f 15//18 19//18 31//18
f 19//18 23//18 31//18
