# Blender v2.83.0 OBJ File: ''
# www.blender.org
o Cylinder.176_Cylinder.1605
v 1.219974 0.377536 2.014639
v 1.539420 1.654894 0.509212
v 0.896426 0.497845 2.048066
v 1.215872 1.775203 0.542639
v 0.554681 0.517841 1.992516
v 0.874127 1.795199 0.487089
v 0.246767 0.434480 1.856446
v 0.566213 1.711838 0.351019
v 0.019562 0.260452 1.660570
v 0.339008 1.537810 0.155144
v -0.092346 0.022252 1.434711
v 0.227100 1.299610 -0.070716
v -0.071918 -0.243856 1.213252
v 0.247528 1.033502 -0.292175
v 0.077734 -0.497361 1.029908
v 0.397180 0.779998 -0.475518
v 0.333828 -0.699667 0.912593
v 0.653274 0.577691 -0.592834
v 0.657376 -0.819976 0.879166
v 0.976822 0.457382 -0.626261
v 0.999121 -0.839973 0.934716
v 1.318567 0.437386 -0.570711
v 1.307035 -0.756611 1.070786
v 1.626481 0.520747 -0.434640
v 1.534240 -0.582584 1.266662
v 1.853686 0.694775 -0.238765
v 1.646148 -0.344384 1.492521
v 1.965594 0.932975 -0.012905
v 1.625721 -0.078275 1.713980
v 1.945167 1.199083 0.208554
v 1.476068 0.175229 1.897324
v 1.795514 1.452588 0.391897
vn 0.3227 0.6868 0.6513
vn -0.0589 0.7673 0.6386
vn -0.4315 0.7310 0.5287
vn -0.7384 0.5833 0.3383
vn -0.9329 0.3469 0.0964
vn -0.9854 0.0577 -0.1602
vn -0.8879 -0.2404 -0.3924
vn -0.6551 -0.5018 -0.5648
vn -0.3227 -0.6868 -0.6513
vn 0.0589 -0.7673 -0.6386
vn 0.4315 -0.7310 -0.5287
vn 0.7384 -0.5833 -0.3383
vn 0.9329 -0.3469 -0.0964
vn 0.9854 -0.0577 0.1602
vn 0.1597 0.6387 -0.7527
vn 0.8879 0.2404 0.3924
vn 0.6551 0.5018 0.5648
vn -0.1597 -0.6387 0.7527
s off
f 2//1 3//1 1//1
f 4//2 5//2 3//2
f 6//3 7//3 5//3
f 8//4 9//4 7//4
f 10//5 11//5 9//5
f 12//6 13//6 11//6
f 14//7 15//7 13//7
f 16//8 17//8 15//8
f 18//9 19//9 17//9
f 20//10 21//10 19//10
f 22//11 23//11 21//11
f 24//12 25//12 23//12
f 26//13 27//13 25//13
f 28//14 29//14 27//14
f 30//15 22//15 14//15
f 30//16 31//16 29//16
f 32//17 1//17 31//17
f 31//18 7//18 15//18
f 2//1 4//1 3//1
f 4//2 6//2 5//2
f 6//3 8//3 7//3
f 8//4 10//4 9//4
f 10//5 12//5 11//5
f 12//6 14//6 13//6
f 14//7 16//7 15//7
f 16//8 18//8 17//8
f 18//9 20//9 19//9
f 20//10 22//10 21//10
f 22//11 24//11 23//11
f 24//12 26//12 25//12
f 26//13 28//13 27//13
f 28//14 30//14 29//14
f 6//15 4//15 2//15
f 2//15 32//15 30//15
f 30//15 28//15 26//15
f 26//15 24//15 30//15
f 24//15 22//15 30//15
f 22//15 20//15 14//15
f 20//15 18//15 14//15
f 18//15 16//15 14//15
f 14//15 12//15 10//15
f 10//15 8//15 14//15
f 8//15 6//15 14//15
f 6//15 2//15 30//15
f 6//15 30//15 14//15
f 30//16 32//16 31//16
f 32//17 2//17 1//17
f 31//18 1//18 3//18
f 3//18 5//18 7//18
f 7//18 9//18 11//18
f 11//18 13//18 15//18
f 15//18 17//18 19//18
f 19//18 21//18 23//18
f 23//18 25//18 27//18
f 27//18 29//18 31//18
f 31//18 3//18 7//18
f 7//18 11//18 15//18
f 15//18 19//18 31//18
f 19//18 23//18 31//18
f 23//18 27//18 31//18
