# Blender v2.83.0 OBJ File: ''
# www.blender.org
o Cylinder.290_Cylinder.1719
v 1.072820 -0.605504 -1.432932
v 1.863445 -0.121679 0.339306
v 0.955326 -0.813904 -1.323622
v 1.745951 -0.330079 0.448616
v 0.765987 -0.950062 -1.201983
v 1.556612 -0.466236 0.570254
v 0.533628 -0.993248 -1.086534
v 1.324253 -0.509423 0.685703
v 0.293624 -0.936888 -0.994851
v 1.084249 -0.453063 0.777387
v 0.082513 -0.789562 -0.940891
v 0.873138 -0.305737 0.831347
v -0.067564 -0.573700 -0.932870
v 0.723061 -0.089875 0.839368
v -0.133761 -0.322164 -0.972008
v 0.656864 0.161661 0.800229
v -0.105999 -0.073248 -1.052348
v 0.684626 0.410577 0.719889
v 0.011496 0.135152 -1.161658
v 0.802121 0.618977 0.610579
v 0.200835 0.271309 -1.283297
v 0.991460 0.755134 0.488941
v 0.433194 0.314495 -1.398746
v 1.223819 0.798320 0.373492
v 0.673198 0.258135 -1.490429
v 1.463823 0.741961 0.281808
v 0.884309 0.110810 -1.544389
v 1.674933 0.594635 0.227849
v 1.034386 -0.105053 -1.552410
v 1.825011 0.378772 0.219827
v 1.100583 -0.356589 -1.513271
v 1.891207 0.127236 0.258966
vn 0.8026 -0.5601 -0.2051
vn 0.5706 -0.8207 -0.0305
vn 0.2517 -0.9563 0.1488
vn -0.1055 -0.9463 0.3054
vn -0.4467 -0.7923 0.4156
vn -0.7198 -0.5177 0.4625
vn -0.8834 -0.1642 0.4389
vn -0.9125 0.2143 0.3486
vn -0.8026 0.5601 0.2051
vn -0.5706 0.8207 0.0305
vn -0.2517 0.9563 -0.1488
vn 0.1055 0.9463 -0.3054
vn 0.4467 0.7923 -0.4156
vn 0.7198 0.5177 -0.4625
vn 0.3953 0.2419 0.8861
vn 0.8834 0.1642 -0.4389
vn 0.9125 -0.2143 -0.3486
vn -0.3953 -0.2419 -0.8861
s off
f 2//1 3//1 1//1
f 4//2 5//2 3//2
f 6//3 7//3 5//3
f 8//4 9//4 7//4
f 10//5 11//5 9//5
f 12//6 13//6 11//6
f 14//7 15//7 13//7
f 16//8 17//8 15//8
f 18//9 19//9 17//9
f 20//10 21//10 19//10
f 22//11 23//11 21//11
f 24//12 25//12 23//12
f 25//13 28//13 27//13
f 28//14 29//14 27//14
f 22//15 14//15 6//15
f 30//16 31//16 29//16
f 32//17 1//17 31//17
f 19//18 23//18 31//18
f 2//1 4//1 3//1
f 4//2 6//2 5//2
f 6//3 8//3 7//3
f 8//4 10//4 9//4
f 10//5 12//5 11//5
f 12//6 14//6 13//6
f 14//7 16//7 15//7
f 16//8 18//8 17//8
f 18//9 20//9 19//9
f 20//10 22//10 21//10
f 22//11 24//11 23//11
f 24//12 26//12 25//12
f 25//13 26//13 28//13
f 28//14 30//14 29//14
f 6//15 4//15 30//15
f 4//15 2//15 30//15
f 2//15 32//15 30//15
f 30//15 28//15 26//15
f 26//15 24//15 22//15
f 22//15 20//15 18//15
f 18//15 16//15 22//15
f 16//15 14//15 22//15
f 14//15 12//15 10//15
f 10//15 8//15 14//15
f 8//15 6//15 14//15
f 30//15 26//15 6//15
f 26//15 22//15 6//15
f 30//16 32//16 31//16
f 32//17 2//17 1//17
f 31//18 1//18 3//18
f 3//18 5//18 7//18
f 7//18 9//18 11//18
f 11//18 13//18 15//18
f 15//18 17//18 19//18
f 19//18 21//18 23//18
f 23//18 25//18 27//18
f 27//18 29//18 23//18
f 29//18 31//18 23//18
f 31//18 3//18 7//18
f 7//18 11//18 31//18
f 11//18 15//18 31//18
f 15//18 19//18 31//18
