# Blender v2.83.0 OBJ File: ''
# www.blender.org
o Cylinder.047_Cylinder.1476
v 1.830841 -1.696879 -0.355022
v 1.018413 0.126586 -0.477239
v 1.687803 -1.730850 0.088973
v 0.875375 0.092615 -0.033244
v 1.401535 -1.834600 0.443983
v 0.589107 -0.011135 0.321766
v 1.015619 -1.992333 0.655962
v 0.203191 -0.168869 0.533745
v 0.588807 -2.180037 0.692636
v -0.223621 -0.356572 0.570420
v 0.186079 -2.369135 0.548424
v -0.626349 -0.545670 0.426207
v -0.131256 -2.530838 0.245280
v -0.943684 -0.707374 0.123063
v -0.314884 -2.640530 -0.170646
v -1.127312 -0.817065 -0.292863
v -0.336851 -2.681509 -0.636031
v -1.149279 -0.858045 -0.758248
v -0.193813 -2.647539 -1.080026
v -1.006241 -0.824074 -1.202243
v 0.092455 -2.543789 -1.435037
v -0.719973 -0.720324 -1.557254
v 0.478371 -2.386055 -1.647015
v -0.334057 -0.562591 -1.769232
v 0.905182 -2.198351 -1.683690
v 0.092754 -0.374887 -1.805907
v 1.307911 -2.009254 -1.539478
v 0.495483 -0.185789 -1.661695
v 1.625246 -1.847550 -1.236333
v 0.812817 -0.024085 -1.358550
v 1.808874 -1.737859 -0.820407
v 0.996446 0.085606 -0.942624
vn 0.8611 0.4043 0.3083
vn 0.6785 0.3457 0.6482
vn 0.3926 0.2345 0.8893
vn 0.0470 0.0876 0.9950
vn -0.3058 -0.0726 0.9493
vn -0.6121 -0.2218 0.7591
vn -0.8251 -0.3373 0.4532
vn -0.9126 -0.4013 0.0784
vn -0.8611 -0.4043 -0.3083
vn -0.6785 -0.3457 -0.6482
vn -0.3926 -0.2345 -0.8893
vn -0.0470 -0.0876 -0.9950
vn 0.3058 0.0726 -0.9493
vn 0.6121 0.2218 -0.7591
vn -0.4062 0.9117 -0.0611
vn 0.8251 0.3373 -0.4532
vn 0.9126 0.4013 -0.0784
vn 0.4062 -0.9117 0.0611
s off
f 2//1 3//1 1//1
f 4//2 5//2 3//2
f 6//3 7//3 5//3
f 8//4 9//4 7//4
f 10//5 11//5 9//5
f 12//6 13//6 11//6
f 14//7 15//7 13//7
f 16//8 17//8 15//8
f 18//9 19//9 17//9
f 20//10 21//10 19//10
f 22//11 23//11 21//11
f 24//12 25//12 23//12
f 26//13 27//13 25//13
f 28//14 29//14 27//14
f 22//15 14//15 6//15
f 30//16 31//16 29//16
f 32//17 1//17 31//17
f 7//18 15//18 23//18
f 2//1 4//1 3//1
f 4//2 6//2 5//2
f 6//3 8//3 7//3
f 8//4 10//4 9//4
f 10//5 12//5 11//5
f 12//6 14//6 13//6
f 14//7 16//7 15//7
f 16//8 18//8 17//8
f 18//9 20//9 19//9
f 20//10 22//10 21//10
f 22//11 24//11 23//11
f 24//12 26//12 25//12
f 26//13 28//13 27//13
f 28//14 30//14 29//14
f 6//15 4//15 2//15
f 2//15 32//15 30//15
f 30//15 28//15 26//15
f 26//15 24//15 22//15
f 22//15 20//15 18//15
f 18//15 16//15 14//15
f 14//15 12//15 10//15
f 10//15 8//15 14//15
f 8//15 6//15 14//15
f 6//15 2//15 22//15
f 2//15 30//15 22//15
f 30//15 26//15 22//15
f 22//15 18//15 14//15
f 30//16 32//16 31//16
f 32//17 2//17 1//17
f 31//18 1//18 3//18
f 3//18 5//18 7//18
f 7//18 9//18 15//18
f 9//18 11//18 15//18
f 11//18 13//18 15//18
f 15//18 17//18 19//18
f 19//18 21//18 23//18
f 23//18 25//18 31//18
f 25//18 27//18 31//18
f 27//18 29//18 31//18
f 31//18 3//18 7//18
f 15//18 19//18 23//18
f 31//18 7//18 23//18
