# Blender v2.83.0 OBJ File: ''
# www.blender.org
o Cylinder.003_Cylinder.1432
v 0.029635 1.158123 0.198297
v 1.640574 0.728212 -0.906261
v 0.090861 1.355057 0.210943
v 1.701801 0.925146 -0.893615
v 0.106845 1.553838 0.156886
v 1.717785 1.123927 -0.947672
v 0.075154 1.724204 0.044357
v 1.686094 1.294293 -1.060201
v 0.000612 1.840217 -0.109513
v 1.611552 1.410306 -1.214070
v -0.105433 1.884217 -0.281298
v 1.505507 1.454306 -1.385856
v -0.226835 1.849503 -0.444846
v 1.384105 1.419593 -1.549404
v -0.345113 1.741362 -0.575258
v 1.265827 1.311452 -1.679816
v -0.442260 1.576257 -0.652681
v 1.168680 1.146346 -1.757239
v -0.503486 1.379323 -0.665326
v 1.107454 0.949412 -1.769884
v -0.519470 1.180542 -0.611270
v 1.091470 0.750631 -1.715827
v -0.487779 1.010176 -0.498741
v 1.123161 0.580265 -1.603299
v -0.413237 0.894162 -0.344871
v 1.197703 0.464252 -1.449429
v -0.307193 0.850163 -0.173086
v 1.303747 0.420252 -1.277643
v -0.185790 0.884876 -0.009537
v 1.425150 0.454966 -1.114095
v -0.067512 0.993017 0.120875
v 1.543428 0.563107 -0.983683
vn 0.5132 -0.2129 0.8314
vn 0.5876 0.1680 0.7915
vn 0.5724 0.5234 0.6312
vn 0.4702 0.7991 0.3747
vn 0.2963 0.9531 0.0612
vn 0.0774 0.9621 -0.2616
vn -0.1534 0.8245 -0.5446
vn -0.3608 0.5615 -0.7447
vn -0.5132 0.2130 -0.8314
vn -0.5876 -0.1680 -0.7915
vn -0.5724 -0.5234 -0.6312
vn -0.4702 -0.7991 -0.3747
vn -0.2963 -0.9531 -0.0612
vn -0.0774 -0.9621 0.2616
vn 0.8055 -0.2150 -0.5523
vn 0.1534 -0.8245 0.5446
vn 0.3608 -0.5615 0.7447
vn -0.8055 0.2150 0.5523
vn -0.5132 0.2129 -0.8314
s off
f 2//1 3//1 1//1
f 4//2 5//2 3//2
f 6//3 7//3 5//3
f 8//4 9//4 7//4
f 9//5 12//5 11//5
f 12//6 13//6 11//6
f 14//7 15//7 13//7
f 16//8 17//8 15//8
f 17//9 20//9 19//9
f 20//10 21//10 19//10
f 22//11 23//11 21//11
f 24//12 25//12 23//12
f 26//13 27//13 25//13
f 28//14 29//14 27//14
f 22//15 14//15 6//15
f 30//16 31//16 29//16
f 32//17 1//17 31//17
f 31//18 7//18 15//18
f 2//1 4//1 3//1
f 4//2 6//2 5//2
f 6//3 8//3 7//3
f 8//4 10//4 9//4
f 9//5 10//5 12//5
f 12//6 14//6 13//6
f 14//7 16//7 15//7
f 16//8 18//8 17//8
f 17//19 18//19 20//19
f 20//10 22//10 21//10
f 22//11 24//11 23//11
f 24//12 26//12 25//12
f 26//13 28//13 27//13
f 28//14 30//14 29//14
f 6//15 4//15 2//15
f 2//15 32//15 30//15
f 30//15 28//15 22//15
f 28//15 26//15 22//15
f 26//15 24//15 22//15
f 22//15 20//15 14//15
f 20//15 18//15 14//15
f 18//15 16//15 14//15
f 14//15 12//15 6//15
f 12//15 10//15 6//15
f 10//15 8//15 6//15
f 6//15 2//15 22//15
f 2//15 30//15 22//15
f 30//16 32//16 31//16
f 32//17 2//17 1//17
f 31//18 1//18 3//18
f 3//18 5//18 7//18
f 7//18 9//18 15//18
f 9//18 11//18 15//18
f 11//18 13//18 15//18
f 15//18 17//18 23//18
f 17//18 19//18 23//18
f 19//18 21//18 23//18
f 23//18 25//18 27//18
f 27//18 29//18 31//18
f 31//18 3//18 7//18
f 23//18 27//18 15//18
f 27//18 31//18 15//18
