# Blender v2.83.0 OBJ File: ''
# www.blender.org
o Cylinder.177_Cylinder.1606
v 2.164412 -0.265645 -0.289555
v 1.898870 0.212032 -2.213434
v 2.881686 -0.001175 -0.322891
v 2.616145 0.476501 -2.246771
v 3.450052 0.508899 -0.274694
v 3.184511 0.986575 -2.198573
v 3.782982 1.186922 -0.152301
v 3.517441 1.664599 -2.076180
v 3.829789 1.929674 0.025655
v 3.564247 2.407350 -1.898224
v 3.583347 2.624075 0.232082
v 3.317806 3.101752 -1.691798
v 3.081175 3.164410 0.435552
v 2.815634 3.642087 -1.488328
v 2.399725 3.468417 0.605090
v 2.134184 3.946094 -1.318789
v 1.642740 3.489815 0.714885
v 1.377199 3.967492 -1.208995
v 0.925466 3.225346 0.748221
v 0.659925 3.703023 -1.175658
v 0.357099 2.715273 0.700024
v 0.091558 3.192949 -1.223856
v 0.024170 2.037249 0.577631
v -0.241371 2.514925 -1.346249
v -0.022637 1.294497 0.399675
v -0.288178 1.772174 -1.524205
v 0.223805 0.600096 0.193248
v -0.041736 1.077772 -1.730631
v 0.725977 0.059761 -0.010222
v 0.460436 0.537437 -1.934102
v 1.407428 -0.244247 -0.179760
v 1.141887 0.233430 -2.103640
vn 0.3221 -0.9075 -0.2698
vn 0.6563 -0.7061 -0.2659
vn 0.8905 -0.3973 -0.2216
vn 0.9893 -0.0280 -0.1435
vn 0.9374 0.3456 -0.0436
vn 0.7428 0.6666 0.0630
vn 0.4351 0.8861 0.1599
vn 0.0612 0.9707 0.2326
vn -0.3221 0.9075 0.2698
vn -0.6563 0.7061 0.2659
vn -0.8905 0.3973 0.2216
vn -0.9893 0.0280 0.1435
vn -0.9374 -0.3456 0.0436
vn -0.7428 -0.6666 -0.0630
vn -0.1328 0.2388 -0.9619
vn -0.4351 -0.8861 -0.1599
vn -0.0612 -0.9707 -0.2326
vn 0.1328 -0.2388 0.9619
s off
f 2//1 3//1 1//1
f 4//2 5//2 3//2
f 6//3 7//3 5//3
f 8//4 9//4 7//4
f 10//5 11//5 9//5
f 12//6 13//6 11//6
f 14//7 15//7 13//7
f 16//8 17//8 15//8
f 18//9 19//9 17//9
f 20//10 21//10 19//10
f 22//11 23//11 21//11
f 24//12 25//12 23//12
f 26//13 27//13 25//13
f 28//14 29//14 27//14
f 30//15 22//15 14//15
f 30//16 31//16 29//16
f 32//17 1//17 31//17
f 31//18 7//18 15//18
f 2//1 4//1 3//1
f 4//2 6//2 5//2
f 6//3 8//3 7//3
f 8//4 10//4 9//4
f 10//5 12//5 11//5
f 12//6 14//6 13//6
f 14//7 16//7 15//7
f 16//8 18//8 17//8
f 18//9 20//9 19//9
f 20//10 22//10 21//10
f 22//11 24//11 23//11
f 24//12 26//12 25//12
f 26//13 28//13 27//13
f 28//14 30//14 29//14
f 6//15 4//15 2//15
f 2//15 32//15 30//15
f 30//15 28//15 26//15
f 26//15 24//15 22//15
f 22//15 20//15 18//15
f 18//15 16//15 14//15
f 14//15 12//15 10//15
f 10//15 8//15 14//15
f 8//15 6//15 14//15
f 6//15 2//15 30//15
f 30//15 26//15 22//15
f 22//15 18//15 14//15
f 6//15 30//15 14//15
f 30//16 32//16 31//16
f 32//17 2//17 1//17
f 31//18 1//18 7//18
f 1//18 3//18 7//18
f 3//18 5//18 7//18
f 7//18 9//18 11//18
f 11//18 13//18 7//18
f 13//18 15//18 7//18
f 15//18 17//18 19//18
f 19//18 21//18 23//18
f 23//18 25//18 27//18
f 27//18 29//18 31//18
f 15//18 19//18 31//18
f 19//18 23//18 31//18
f 23//18 27//18 31//18
