# Blender v2.83.0 OBJ File: ''
# www.blender.org
o Cylinder.164_Cylinder.1593
v -1.140529 2.094619 -1.024986
v -0.469115 2.721272 -2.801643
v -1.224145 1.744616 -1.180036
v -0.552731 2.371268 -2.956693
v -1.163822 1.372910 -1.288346
v -0.492408 1.999562 -3.065002
v -0.968743 1.036091 -1.333424
v -0.297329 1.662743 -3.110081
v -0.668607 0.785436 -1.308410
v 0.002807 1.412088 -3.085067
v -0.309107 0.659106 -1.217110
v 0.362307 1.285758 -2.993767
v 0.055025 0.676332 -1.073425
v 0.726440 1.302985 -2.850082
v 0.368356 0.834494 -0.899229
v 1.039770 1.461146 -2.675886
v 0.583181 1.109510 -0.721042
v 1.254596 1.736162 -2.497699
v 0.666798 1.459514 -0.565992
v 1.338212 2.086166 -2.342649
v 0.606475 1.831220 -0.457682
v 1.277889 2.457872 -2.234339
v 0.411396 2.168039 -0.412603
v 1.082810 2.794691 -2.189260
v 0.111260 2.418694 -0.437618
v 0.782674 3.045346 -2.214275
v -0.248240 2.545024 -0.528918
v 0.423174 3.171676 -2.305575
v -0.612373 2.527797 -0.672603
v 0.059041 3.154449 -2.449260
v -0.925704 2.369636 -0.846799
v -0.254289 2.996288 -2.623456
vn -0.9175 0.3224 -0.2330
vn -0.9293 -0.0440 -0.3667
vn -0.7996 -0.4036 -0.4446
vn -0.5483 -0.7019 -0.4547
vn -0.2134 -0.8932 -0.3957
vn 0.1540 -0.9486 -0.2764
vn 0.4979 -0.8596 -0.1150
vn 0.7660 -0.6397 0.0638
vn 0.9175 -0.3224 0.2330
vn 0.9293 0.0440 0.3667
vn 0.7996 0.4036 0.4446
vn 0.5483 0.7019 0.4547
vn 0.2134 0.8932 0.3957
vn -0.1540 0.9486 0.2764
vn 0.3357 0.3133 -0.8883
vn -0.4979 0.8596 0.1150
vn -0.7660 0.6397 -0.0638
vn -0.3357 -0.3133 0.8883
s off
f 2//1 3//1 1//1
f 4//2 5//2 3//2
f 6//3 7//3 5//3
f 8//4 9//4 7//4
f 10//5 11//5 9//5
f 12//6 13//6 11//6
f 14//7 15//7 13//7
f 16//8 17//8 15//8
f 18//9 19//9 17//9
f 20//10 21//10 19//10
f 22//11 23//11 21//11
f 24//12 25//12 23//12
f 26//13 27//13 25//13
f 28//14 29//14 27//14
f 22//15 14//15 6//15
f 30//16 31//16 29//16
f 32//17 1//17 31//17
f 31//18 7//18 15//18
f 2//1 4//1 3//1
f 4//2 6//2 5//2
f 6//3 8//3 7//3
f 8//4 10//4 9//4
f 10//5 12//5 11//5
f 12//6 14//6 13//6
f 14//7 16//7 15//7
f 16//8 18//8 17//8
f 18//9 20//9 19//9
f 20//10 22//10 21//10
f 22//11 24//11 23//11
f 24//12 26//12 25//12
f 26//13 28//13 27//13
f 28//14 30//14 29//14
f 6//15 4//15 2//15
f 2//15 32//15 30//15
f 30//15 28//15 26//15
f 26//15 24//15 22//15
f 22//15 20//15 18//15
f 18//15 16//15 14//15
f 14//15 12//15 10//15
f 10//15 8//15 6//15
f 6//15 2//15 30//15
f 30//15 26//15 22//15
f 22//15 18//15 14//15
f 14//15 10//15 6//15
f 6//15 30//15 22//15
f 30//16 32//16 31//16
f 32//17 2//17 1//17
f 31//18 1//18 3//18
f 3//18 5//18 31//18
f 5//18 7//18 31//18
f 7//18 9//18 11//18
f 11//18 13//18 7//18
f 13//18 15//18 7//18
f 15//18 17//18 19//18
f 19//18 21//18 15//18
f 21//18 23//18 15//18
f 23//18 25//18 27//18
f 27//18 29//18 31//18
f 23//18 27//18 15//18
f 27//18 31//18 15//18
