# Blender v2.83.0 OBJ File: ''
# www.blender.org
o Cylinder.317_Cylinder.1746
v 0.232757 -0.549106 2.350460
v 0.600480 -1.443530 0.599807
v 0.906156 -0.677824 2.557670
v 1.273879 -1.572248 0.807017
v 1.606874 -0.556594 2.642917
v 1.974597 -1.451017 0.892265
v 2.228234 -0.203871 2.593225
v 2.595957 -1.098295 0.842572
v 2.675639 0.326644 2.416157
v 3.043363 -0.567780 0.665504
v 2.880976 0.954186 2.138671
v 3.248699 0.059762 0.388018
v 2.812984 1.583217 1.803012
v 3.180707 0.688793 0.052359
v 2.482013 2.117973 1.460280
v 2.849736 1.223549 -0.290372
v 1.938453 2.477043 1.162654
v 2.306176 1.582619 -0.587998
v 1.265054 2.605760 0.955444
v 1.632777 1.711337 -0.795208
v 0.564335 2.484530 0.870197
v 0.932058 1.590106 -0.880456
v -0.057025 2.131808 0.919889
v 0.310698 1.237384 -0.830764
v -0.504430 1.601293 1.096957
v -0.136707 0.706869 -0.653696
v -0.709767 0.973750 1.374443
v -0.342043 0.079327 -0.376210
v -0.641774 0.344719 1.710102
v -0.274051 -0.549705 -0.040550
v -0.310804 -0.190038 2.052834
v 0.056920 -1.084461 0.302181
vn -0.2867 -0.8762 0.3874
vn 0.0949 -0.8783 0.4687
vn 0.4621 -0.7466 0.4785
vn 0.7589 -0.5013 0.4156
vn 0.9402 -0.1797 0.2893
vn 0.9784 0.1693 0.1190
vn 0.8676 0.4925 -0.0694
vn 0.6247 0.7407 -0.2472
vn 0.2867 0.8762 -0.3874
vn -0.0949 0.8783 -0.4687
vn -0.4621 0.7466 -0.4785
vn -0.7589 0.5013 -0.4156
vn -0.9402 0.1797 -0.2893
vn -0.9784 -0.1693 -0.1190
vn 0.1839 -0.4472 -0.8753
vn -0.8676 -0.4925 0.0694
vn -0.6247 -0.7407 0.2472
vn -0.1839 0.4472 0.8753
s off
f 2//1 3//1 1//1
f 4//2 5//2 3//2
f 6//3 7//3 5//3
f 8//4 9//4 7//4
f 10//5 11//5 9//5
f 12//6 13//6 11//6
f 14//7 15//7 13//7
f 16//8 17//8 15//8
f 18//9 19//9 17//9
f 20//10 21//10 19//10
f 22//11 23//11 21//11
f 24//12 25//12 23//12
f 26//13 27//13 25//13
f 28//14 29//14 27//14
f 30//15 22//15 14//15
f 30//16 31//16 29//16
f 32//17 1//17 31//17
f 31//18 7//18 15//18
f 2//1 4//1 3//1
f 4//2 6//2 5//2
f 6//3 8//3 7//3
f 8//4 10//4 9//4
f 10//5 12//5 11//5
f 12//6 14//6 13//6
f 14//7 16//7 15//7
f 16//8 18//8 17//8
f 18//9 20//9 19//9
f 20//10 22//10 21//10
f 22//11 24//11 23//11
f 24//12 26//12 25//12
f 26//13 28//13 27//13
f 28//14 30//14 29//14
f 6//15 4//15 30//15
f 4//15 2//15 30//15
f 2//15 32//15 30//15
f 30//15 28//15 26//15
f 26//15 24//15 30//15
f 24//15 22//15 30//15
f 22//15 20//15 18//15
f 18//15 16//15 22//15
f 16//15 14//15 22//15
f 14//15 12//15 10//15
f 10//15 8//15 14//15
f 8//15 6//15 14//15
f 6//15 30//15 14//15
f 30//16 32//16 31//16
f 32//17 2//17 1//17
f 31//18 1//18 3//18
f 3//18 5//18 7//18
f 7//18 9//18 11//18
f 11//18 13//18 7//18
f 13//18 15//18 7//18
f 15//18 17//18 19//18
f 19//18 21//18 23//18
f 23//18 25//18 27//18
f 27//18 29//18 31//18
f 31//18 3//18 7//18
f 15//18 19//18 23//18
f 23//18 27//18 15//18
f 27//18 31//18 15//18
