# Blender v2.83.0 OBJ File: ''
# www.blender.org
o Cylinder.005_Cylinder.1434
v 1.542897 1.956938 -1.243601
v 2.851689 0.512225 -0.796533
v 1.622866 1.970200 -1.434849
v 2.931658 0.525488 -0.987782
v 1.645014 1.927719 -1.636967
v 2.953806 0.483007 -1.189900
v 1.605970 1.835962 -1.819184
v 2.914762 0.391249 -1.372116
v 1.511678 1.708897 -1.953758
v 2.820470 0.264184 -1.506691
v 1.376494 1.565869 -2.020203
v 2.685286 0.121156 -1.573136
v 1.220997 1.428653 -2.008403
v 2.529788 -0.016060 -1.561335
v 1.068860 1.318139 -1.920153
v 2.377652 -0.126574 -1.473086
v 0.943246 1.251151 -1.768890
v 2.252038 -0.193561 -1.321823
v 0.863278 1.237888 -1.577642
v 2.172070 -0.206824 -1.130574
v 0.841130 1.280369 -1.375524
v 2.149922 -0.164344 -0.928457
v 0.880173 1.372127 -1.193307
v 2.188965 -0.072586 -0.746240
v 0.974465 1.499192 -1.058733
v 2.283257 0.054479 -0.611665
v 1.109650 1.642220 -0.992288
v 2.418442 0.197507 -0.545220
v 1.265147 1.779436 -1.004088
v 2.573939 0.334723 -0.557021
v 1.417284 1.889950 -1.092338
v 2.726076 0.445237 -0.645271
vn 0.6508 0.6886 0.3199
vn 0.7486 0.6606 -0.0568
vn 0.7324 0.5320 -0.4249
vn 0.6047 0.3225 -0.7282
vn 0.3850 0.0639 -0.9207
vn 0.1066 -0.2045 -0.9730
vn -0.1880 -0.4417 -0.8772
vn -0.4539 -0.6117 -0.6479
vn -0.6508 -0.6886 -0.3199
vn -0.7486 -0.6606 0.0568
vn -0.7324 -0.5320 0.4249
vn -0.6047 -0.3225 0.7282
vn -0.3850 -0.0639 0.9207
vn -0.1066 0.2045 0.9730
vn 0.6544 -0.7224 0.2235
vn 0.1880 0.4417 0.8772
vn 0.4539 0.6117 0.6479
vn -0.6544 0.7224 -0.2235
vn 0.3850 0.0638 -0.9207
s off
f 2//1 3//1 1//1
f 4//2 5//2 3//2
f 6//3 7//3 5//3
f 8//4 9//4 7//4
f 10//5 11//5 9//5
f 12//6 13//6 11//6
f 14//7 15//7 13//7
f 16//8 17//8 15//8
f 18//9 19//9 17//9
f 20//10 21//10 19//10
f 22//11 23//11 21//11
f 23//12 26//12 25//12
f 26//13 27//13 25//13
f 28//14 29//14 27//14
f 30//15 22//15 14//15
f 30//16 31//16 29//16
f 32//17 1//17 31//17
f 27//18 31//18 15//18
f 2//1 4//1 3//1
f 4//2 6//2 5//2
f 6//3 8//3 7//3
f 8//4 10//4 9//4
f 10//19 12//19 11//19
f 12//6 14//6 13//6
f 14//7 16//7 15//7
f 16//8 18//8 17//8
f 18//9 20//9 19//9
f 20//10 22//10 21//10
f 22//11 24//11 23//11
f 23//12 24//12 26//12
f 26//13 28//13 27//13
f 28//14 30//14 29//14
f 6//15 4//15 2//15
f 2//15 32//15 30//15
f 30//15 28//15 26//15
f 26//15 24//15 30//15
f 24//15 22//15 30//15
f 22//15 20//15 14//15
f 20//15 18//15 14//15
f 18//15 16//15 14//15
f 14//15 12//15 10//15
f 10//15 8//15 6//15
f 6//15 2//15 30//15
f 14//15 10//15 6//15
f 6//15 30//15 14//15
f 30//16 32//16 31//16
f 32//17 2//17 1//17
f 31//18 1//18 3//18
f 3//18 5//18 7//18
f 7//18 9//18 11//18
f 11//18 13//18 15//18
f 15//18 17//18 23//18
f 17//18 19//18 23//18
f 19//18 21//18 23//18
f 23//18 25//18 27//18
f 27//18 29//18 31//18
f 31//18 3//18 15//18
f 3//18 7//18 15//18
f 7//18 11//18 15//18
f 23//18 27//18 15//18
