# Blender v2.83.0 OBJ File: ''
# www.blender.org
o Cylinder.267_Cylinder.1696
v 3.206186 -1.683016 0.615384
v 3.789147 -0.154215 1.765569
v 2.975405 -1.995620 1.147861
v 3.558365 -0.466819 2.298046
v 2.537631 -2.174244 1.607166
v 3.120592 -0.645443 2.757350
v 1.959513 -2.191694 1.923373
v 2.542474 -0.662893 3.073558
v 1.329062 -2.045313 2.048345
v 1.912023 -0.516512 3.198530
v 0.742261 -1.757386 1.963053
v 1.325222 -0.228585 3.113238
v 0.288443 -1.371747 1.680485
v 0.871404 0.157054 2.830670
v 0.036698 -0.947107 1.243657
v 0.619659 0.581694 2.393842
v 0.025353 -0.548113 0.719074
v 0.608314 0.980687 1.869259
v 0.256134 -0.235509 0.186597
v 0.839095 1.293292 1.336782
v 0.693907 -0.056885 -0.272708
v 1.276868 1.471916 0.877477
v 1.272026 -0.039435 -0.588916
v 1.854987 1.489366 0.561269
v 1.902476 -0.185816 -0.713887
v 2.485437 1.342985 0.436298
v 2.489278 -0.473744 -0.628596
v 3.072239 1.055057 0.521589
v 2.943096 -0.859382 -0.346027
v 3.526057 0.669419 0.804158
v 3.194841 -1.284022 0.090801
v 3.777802 0.244779 1.240986
vn 0.8902 -0.4368 0.1294
vn 0.6885 -0.5850 0.4287
vn 0.3819 -0.6442 0.6627
vn 0.0172 -0.6053 0.7958
vn -0.3501 -0.4742 0.8078
vn -0.6641 -0.2710 0.6968
vn -0.8770 -0.0265 0.4797
vn -0.9564 0.2221 0.1896
vn -0.8902 0.4368 -0.1294
vn -0.6885 0.5850 -0.4287
vn -0.3819 0.6442 -0.6627
vn -0.0172 0.6053 -0.7958
vn 0.3501 0.4742 -0.8078
vn 0.6641 0.2710 -0.6968
vn 0.2915 0.7644 0.5751
vn 0.8770 0.0265 -0.4797
vn 0.9564 -0.2221 -0.1896
vn -0.2915 -0.7644 -0.5751
s off
f 2//1 3//1 1//1
f 4//2 5//2 3//2
f 6//3 7//3 5//3
f 8//4 9//4 7//4
f 10//5 11//5 9//5
f 12//6 13//6 11//6
f 14//7 15//7 13//7
f 16//8 17//8 15//8
f 18//9 19//9 17//9
f 20//10 21//10 19//10
f 22//11 23//11 21//11
f 24//12 25//12 23//12
f 25//13 28//13 27//13
f 28//14 29//14 27//14
f 30//15 22//15 14//15
f 30//16 31//16 29//16
f 31//17 2//17 1//17
f 7//18 15//18 23//18
f 2//1 4//1 3//1
f 4//2 6//2 5//2
f 6//3 8//3 7//3
f 8//4 10//4 9//4
f 10//5 12//5 11//5
f 12//6 14//6 13//6
f 14//7 16//7 15//7
f 16//8 18//8 17//8
f 18//9 20//9 19//9
f 20//10 22//10 21//10
f 22//11 24//11 23//11
f 24//12 26//12 25//12
f 25//13 26//13 28//13
f 28//14 30//14 29//14
f 6//15 4//15 30//15
f 4//15 2//15 30//15
f 2//15 32//15 30//15
f 30//15 28//15 26//15
f 26//15 24//15 22//15
f 22//15 20//15 18//15
f 18//15 16//15 14//15
f 14//15 12//15 6//15
f 12//15 10//15 6//15
f 10//15 8//15 6//15
f 30//15 26//15 22//15
f 22//15 18//15 14//15
f 6//15 30//15 14//15
f 30//16 32//16 31//16
f 31//17 32//17 2//17
f 31//18 1//18 3//18
f 3//18 5//18 7//18
f 7//18 9//18 11//18
f 11//18 13//18 15//18
f 15//18 17//18 23//18
f 17//18 19//18 23//18
f 19//18 21//18 23//18
f 23//18 25//18 27//18
f 27//18 29//18 23//18
f 29//18 31//18 23//18
f 31//18 3//18 7//18
f 7//18 11//18 15//18
f 31//18 7//18 23//18
