# Blender v2.83.0 OBJ File: ''
# www.blender.org
o Cylinder.255_Cylinder.1684
v -0.524156 -1.336287 0.285597
v 1.380688 -1.288212 0.893263
v -0.663357 -1.414352 0.728125
v 1.241488 -1.366277 1.335790
v -0.805109 -1.308998 1.164139
v 1.099735 -1.260923 1.771805
v -0.927832 -1.036265 1.527261
v 0.977012 -0.988190 2.134927
v -1.012842 -0.637674 1.762209
v 0.892002 -0.589599 2.369874
v -1.047198 -0.173907 1.833213
v 0.857646 -0.125832 2.440878
v -1.025669 0.284432 1.729465
v 0.879176 0.332507 2.337130
v -0.951532 0.667564 1.466758
v 0.953312 0.715639 2.074423
v -0.836075 0.917162 1.085088
v 1.068769 0.965237 1.692753
v -0.696874 0.995227 0.642560
v 1.207970 1.043302 1.250226
v -0.555122 0.889873 0.206546
v 1.349722 0.937948 0.814211
v -0.432399 0.617140 -0.156576
v 1.472445 0.665215 0.451089
v -0.347388 0.218549 -0.391524
v 1.557456 0.266624 0.216141
v -0.313033 -0.245218 -0.462528
v 1.591812 -0.197143 0.145137
v -0.334562 -0.703557 -0.358779
v 1.570282 -0.655482 0.248886
v -0.408699 -1.086690 -0.096073
v 1.496146 -1.038615 0.511593
vn 0.0730 -0.9858 -0.1509
vn -0.0458 -0.9743 0.2205
vn -0.1576 -0.8144 0.5584
vn -0.2454 -0.5306 0.8113
vn -0.2959 -0.1659 0.9407
vn -0.3013 0.2240 0.9268
vn -0.2609 0.5798 0.7719
vn -0.1807 0.8473 0.4994
vn -0.0730 0.9858 0.1509
vn 0.0458 0.9743 -0.2205
vn 0.1576 0.8144 -0.5584
vn 0.2454 0.5306 -0.8113
vn 0.2959 0.1659 -0.9407
vn 0.3013 -0.2240 -0.9268
vn 0.9524 0.0240 0.3038
vn 0.2609 -0.5798 -0.7719
vn 0.1807 -0.8473 -0.4994
vn -0.9524 -0.0240 -0.3038
s off
f 2//1 3//1 1//1
f 4//2 5//2 3//2
f 6//3 7//3 5//3
f 8//4 9//4 7//4
f 10//5 11//5 9//5
f 12//6 13//6 11//6
f 14//7 15//7 13//7
f 16//8 17//8 15//8
f 18//9 19//9 17//9
f 20//10 21//10 19//10
f 22//11 23//11 21//11
f 24//12 25//12 23//12
f 26//13 27//13 25//13
f 28//14 29//14 27//14
f 22//15 14//15 6//15
f 30//16 31//16 29//16
f 32//17 1//17 31//17
f 15//18 23//18 31//18
f 2//1 4//1 3//1
f 4//2 6//2 5//2
f 6//3 8//3 7//3
f 8//4 10//4 9//4
f 10//5 12//5 11//5
f 12//6 14//6 13//6
f 14//7 16//7 15//7
f 16//8 18//8 17//8
f 18//9 20//9 19//9
f 20//10 22//10 21//10
f 22//11 24//11 23//11
f 24//12 26//12 25//12
f 26//13 28//13 27//13
f 28//14 30//14 29//14
f 6//15 4//15 2//15
f 2//15 32//15 30//15
f 30//15 28//15 26//15
f 26//15 24//15 22//15
f 22//15 20//15 18//15
f 18//15 16//15 14//15
f 14//15 12//15 10//15
f 10//15 8//15 6//15
f 6//15 2//15 30//15
f 30//15 26//15 22//15
f 22//15 18//15 14//15
f 14//15 10//15 6//15
f 6//15 30//15 22//15
f 30//16 32//16 31//16
f 32//17 2//17 1//17
f 31//18 1//18 3//18
f 3//18 5//18 31//18
f 5//18 7//18 31//18
f 7//18 9//18 11//18
f 11//18 13//18 7//18
f 13//18 15//18 7//18
f 15//18 17//18 23//18
f 17//18 19//18 23//18
f 19//18 21//18 23//18
f 23//18 25//18 27//18
f 27//18 29//18 23//18
f 29//18 31//18 23//18
f 31//18 7//18 15//18
