# Blender v2.83.0 OBJ File: ''
# www.blender.org
o Cylinder.149_Cylinder.1578
v -0.226695 -1.116394 -2.045333
v -1.471558 -1.241509 -0.484993
v -0.253534 -0.690021 -2.032557
v -1.498397 -0.815136 -0.472217
v -0.150727 -0.291134 -1.918552
v -1.395590 -0.416248 -0.358212
v 0.066075 0.019540 -1.720673
v -1.178788 -0.105574 -0.160333
v 0.363865 0.194705 -1.469046
v -0.880998 0.069590 0.091294
v 0.697308 0.207692 -1.201979
v -0.547555 0.082577 0.358361
v 1.015640 0.056524 -0.960130
v -0.229223 -0.068590 0.600210
v 1.270397 -0.235784 -0.780319
v 0.025535 -0.360898 0.780021
v 1.422796 -0.624731 -0.689920
v 0.177934 -0.749846 0.870420
v 1.449635 -1.051105 -0.702696
v 0.204773 -1.176219 0.857644
v 1.346828 -1.449992 -0.816702
v 0.101966 -1.575106 0.743639
v 1.130027 -1.760666 -1.014580
v -0.114836 -1.885781 0.545760
v 0.832237 -1.935831 -1.266207
v -0.412626 -2.060945 0.294133
v 0.498794 -1.948818 -1.533274
v -0.746069 -2.073932 0.027066
v 0.180462 -1.797650 -1.775123
v -1.064401 -1.922764 -0.214783
v -0.074296 -1.505342 -1.954934
v -1.319159 -1.630456 -0.394594
vn -0.7802 -0.0304 -0.6249
vn -0.7448 0.3537 -0.5658
vn -0.5961 0.6839 -0.4207
vn -0.3566 0.9100 -0.2115
vn -0.0628 0.9976 0.0299
vn 0.2405 0.9333 0.2667
vn 0.5072 0.7269 0.4630
vn 0.6967 0.4098 0.5887
vn 0.7802 0.0304 0.6249
vn 0.7448 -0.3537 0.5658
vn 0.5961 -0.6839 0.4207
vn 0.3566 -0.9100 0.2115
vn 0.0628 -0.9976 -0.0299
vn -0.2405 -0.9333 -0.2667
vn -0.6224 -0.0626 0.7802
vn -0.5072 -0.7269 -0.4630
vn -0.6967 -0.4098 -0.5887
vn 0.6224 0.0626 -0.7802
s off
f 2//1 3//1 1//1
f 4//2 5//2 3//2
f 6//3 7//3 5//3
f 8//4 9//4 7//4
f 10//5 11//5 9//5
f 12//6 13//6 11//6
f 14//7 15//7 13//7
f 16//8 17//8 15//8
f 18//9 19//9 17//9
f 20//10 21//10 19//10
f 22//11 23//11 21//11
f 24//12 25//12 23//12
f 26//13 27//13 25//13
f 28//14 29//14 27//14
f 6//15 30//15 22//15
f 30//16 31//16 29//16
f 32//17 1//17 31//17
f 15//18 23//18 31//18
f 2//1 4//1 3//1
f 4//2 6//2 5//2
f 6//3 8//3 7//3
f 8//4 10//4 9//4
f 10//5 12//5 11//5
f 12//6 14//6 13//6
f 14//7 16//7 15//7
f 16//8 18//8 17//8
f 18//9 20//9 19//9
f 20//10 22//10 21//10
f 22//11 24//11 23//11
f 24//12 26//12 25//12
f 26//13 28//13 27//13
f 28//14 30//14 29//14
f 6//15 4//15 30//15
f 4//15 2//15 30//15
f 2//15 32//15 30//15
f 30//15 28//15 26//15
f 26//15 24//15 22//15
f 22//15 20//15 18//15
f 18//15 16//15 14//15
f 14//15 12//15 10//15
f 10//15 8//15 6//15
f 30//15 26//15 22//15
f 22//15 18//15 6//15
f 18//15 14//15 6//15
f 14//15 10//15 6//15
f 30//16 32//16 31//16
f 32//17 2//17 1//17
f 31//18 1//18 7//18
f 1//18 3//18 7//18
f 3//18 5//18 7//18
f 7//18 9//18 11//18
f 11//18 13//18 15//18
f 15//18 17//18 19//18
f 19//18 21//18 23//18
f 23//18 25//18 27//18
f 27//18 29//18 23//18
f 29//18 31//18 23//18
f 7//18 11//18 31//18
f 11//18 15//18 31//18
f 15//18 19//18 23//18
