# Blender v2.83.0 OBJ File: ''
# www.blender.org
o Cylinder.029_Cylinder.1458
v 2.020953 1.047960 -0.021118
v 0.048428 0.950734 0.294620
v 2.053810 1.097012 0.199255
v 0.081285 0.999786 0.514993
v 2.091229 1.057170 0.420756
v 0.118703 0.959944 0.736493
v 2.127513 0.934501 0.609662
v 0.154988 0.837275 0.925399
v 2.157138 0.747678 0.737214
v 0.184613 0.650452 1.052952
v 2.175595 0.525146 0.783995
v 0.203070 0.427920 1.099732
v 2.180073 0.300781 0.742881
v 0.207548 0.203555 1.058619
v 2.169891 0.108742 0.620133
v 0.197366 0.011516 0.935871
v 2.146598 -0.021736 0.434437
v 0.174073 -0.118961 0.750175
v 2.113741 -0.070787 0.214064
v 0.141216 -0.168013 0.529802
v 2.076323 -0.030946 -0.007436
v 0.103797 -0.128172 0.308302
v 2.040038 0.091724 -0.196342
v 0.067513 -0.005502 0.119395
v 2.010413 0.278546 -0.323895
v 0.037887 0.181320 -0.008157
v 1.991956 0.501079 -0.370675
v 0.019431 0.403853 -0.054938
v 1.987478 0.725444 -0.329562
v 0.014953 0.628218 -0.013824
v 1.997660 0.917483 -0.206813
v 0.025135 0.820257 0.108924
vn -0.0809 0.9754 -0.2050
vn -0.0196 0.9834 0.1802
vn 0.0446 0.8417 0.5380
vn 0.1021 0.5719 0.8139
vn 0.1440 0.2150 0.9659
vn 0.1640 -0.1746 0.9709
vn 0.1590 -0.5377 0.8280
vn 0.1299 -0.8189 0.5591
vn 0.0809 -0.9754 0.2050
vn 0.0196 -0.9834 -0.1802
vn -0.0446 -0.8417 -0.5380
vn -0.1021 -0.5719 -0.8139
vn -0.1440 -0.2150 -0.9659
vn -0.1640 0.1746 -0.9709
vn -0.9863 -0.0486 0.1579
vn -0.1590 0.5377 -0.8280
vn -0.1299 0.8189 -0.5591
vn 0.9863 0.0486 -0.1579
s off
f 2//1 3//1 1//1
f 4//2 5//2 3//2
f 6//3 7//3 5//3
f 8//4 9//4 7//4
f 10//5 11//5 9//5
f 12//6 13//6 11//6
f 14//7 15//7 13//7
f 16//8 17//8 15//8
f 17//9 20//9 19//9
f 20//10 21//10 19//10
f 22//11 23//11 21//11
f 24//12 25//12 23//12
f 26//13 27//13 25//13
f 28//14 29//14 27//14
f 22//15 14//15 6//15
f 30//16 31//16 29//16
f 32//17 1//17 31//17
f 15//18 23//18 31//18
f 2//1 4//1 3//1
f 4//2 6//2 5//2
f 6//3 8//3 7//3
f 8//4 10//4 9//4
f 10//5 12//5 11//5
f 12//6 14//6 13//6
f 14//7 16//7 15//7
f 16//8 18//8 17//8
f 17//9 18//9 20//9
f 20//10 22//10 21//10
f 22//11 24//11 23//11
f 24//12 26//12 25//12
f 26//13 28//13 27//13
f 28//14 30//14 29//14
f 6//15 4//15 30//15
f 4//15 2//15 30//15
f 2//15 32//15 30//15
f 30//15 28//15 26//15
f 26//15 24//15 22//15
f 22//15 20//15 18//15
f 18//15 16//15 14//15
f 14//15 12//15 10//15
f 10//15 8//15 14//15
f 8//15 6//15 14//15
f 30//15 26//15 6//15
f 26//15 22//15 6//15
f 22//15 18//15 14//15
f 30//16 32//16 31//16
f 32//17 2//17 1//17
f 31//18 1//18 3//18
f 3//18 5//18 7//18
f 7//18 9//18 11//18
f 11//18 13//18 7//18
f 13//18 15//18 7//18
f 15//18 17//18 19//18
f 19//18 21//18 23//18
f 23//18 25//18 27//18
f 27//18 29//18 23//18
f 29//18 31//18 23//18
f 31//18 3//18 15//18
f 3//18 7//18 15//18
f 15//18 19//18 23//18
