# Blender v2.83.0 OBJ File: ''
# www.blender.org
o Cylinder.162_Cylinder.1591
v -1.860299 -1.578242 0.019013
v -2.811284 -0.367812 -1.257892
v -1.524688 -1.543229 -0.197746
v -2.475673 -0.332799 -1.474651
v -1.172976 -1.389441 -0.313904
v -2.123961 -0.179011 -1.590809
v -0.858708 -1.140291 -0.311778
v -1.809693 0.070140 -1.588683
v -0.629728 -0.833709 -0.191691
v -1.580713 0.376721 -1.468596
v -0.520896 -0.516370 0.028074
v -1.471881 0.694060 -1.248831
v -0.548782 -0.236587 0.314060
v -1.499767 0.973844 -0.962844
v -0.709139 -0.036952 0.622729
v -1.660124 1.173478 -0.654175
v -0.977555 0.052140 0.907089
v -1.928540 1.262571 -0.369816
v -1.313166 0.017127 1.123847
v -2.264151 1.227558 -0.153057
v -1.664878 -0.136661 1.240006
v -2.615863 1.073770 -0.036899
v -1.979146 -0.385811 1.237880
v -2.930131 0.824619 -0.039025
v -2.208126 -0.692393 1.117793
v -3.159111 0.518037 -0.159112
v -2.316958 -1.009732 0.898028
v -3.267943 0.200699 -0.378877
v -2.289072 -1.289515 0.612041
v -3.240057 -0.079085 -0.664864
v -2.128715 -1.489150 0.303372
v -3.079700 -0.278720 -0.973533
vn -0.2714 -0.7913 -0.5480
vn 0.0695 -0.6976 -0.7131
vn 0.3998 -0.4978 -0.7696
vn 0.6693 -0.2221 -0.7090
vn 0.8368 0.0873 -0.5405
vn 0.8770 0.3835 -0.2896
vn 0.7836 0.6212 0.0053
vn 0.5709 0.7644 0.2994
vn 0.2714 0.7913 0.5480
vn -0.0695 0.6976 0.7131
vn -0.3998 0.4978 0.7696
vn -0.6693 0.2221 0.7090
vn -0.8368 -0.0873 0.5405
vn -0.8770 -0.3835 0.2896
vn -0.4755 0.6052 -0.6385
vn -0.7836 -0.6212 -0.0053
vn -0.5709 -0.7644 -0.2994
vn 0.4755 -0.6052 0.6385
s off
f 2//1 3//1 1//1
f 4//2 5//2 3//2
f 6//3 7//3 5//3
f 8//4 9//4 7//4
f 10//5 11//5 9//5
f 12//6 13//6 11//6
f 14//7 15//7 13//7
f 16//8 17//8 15//8
f 18//9 19//9 17//9
f 20//10 21//10 19//10
f 22//11 23//11 21//11
f 24//12 25//12 23//12
f 26//13 27//13 25//13
f 28//14 29//14 27//14
f 22//15 14//15 6//15
f 30//16 31//16 29//16
f 32//17 1//17 31//17
f 15//18 23//18 31//18
f 2//1 4//1 3//1
f 4//2 6//2 5//2
f 6//3 8//3 7//3
f 8//4 10//4 9//4
f 10//5 12//5 11//5
f 12//6 14//6 13//6
f 14//7 16//7 15//7
f 16//8 18//8 17//8
f 18//9 20//9 19//9
f 20//10 22//10 21//10
f 22//11 24//11 23//11
f 24//12 26//12 25//12
f 26//13 28//13 27//13
f 28//14 30//14 29//14
f 6//15 4//15 30//15
f 4//15 2//15 30//15
f 2//15 32//15 30//15
f 30//15 28//15 26//15
f 26//15 24//15 30//15
f 24//15 22//15 30//15
f 22//15 20//15 14//15
f 20//15 18//15 14//15
f 18//15 16//15 14//15
f 14//15 12//15 6//15
f 12//15 10//15 6//15
f 10//15 8//15 6//15
f 6//15 30//15 22//15
f 30//16 32//16 31//16
f 32//17 2//17 1//17
f 31//18 1//18 3//18
f 3//18 5//18 7//18
f 7//18 9//18 11//18
f 11//18 13//18 7//18
f 13//18 15//18 7//18
f 15//18 17//18 19//18
f 19//18 21//18 23//18
f 23//18 25//18 27//18
f 27//18 29//18 23//18
f 29//18 31//18 23//18
f 31//18 3//18 15//18
f 3//18 7//18 15//18
f 15//18 19//18 23//18
