# Blender v2.83.0 OBJ File: ''
# www.blender.org
o Cylinder.139_Cylinder.1568
v -1.830978 -1.356266 -2.087286
v -0.529775 -1.738959 -3.557121
v -1.894534 -1.930742 -1.993977
v -0.593330 -2.313435 -3.463812
v -1.784853 -2.456132 -1.760087
v -0.483649 -2.838825 -3.229922
v -1.518633 -2.852449 -1.421223
v -0.217430 -3.235142 -2.891058
v -1.136404 -3.059359 -1.028975
v 0.164799 -3.442051 -2.498810
v -0.696357 -3.045360 -0.643059
v 0.604846 -3.428052 -2.112894
v -0.265485 -2.812584 -0.322227
v 1.035718 -3.195276 -1.792062
v 0.090615 -2.396469 -0.115322
v 1.391819 -2.779162 -1.585157
v 0.317732 -1.860366 -0.053845
v 1.618935 -2.243058 -1.523680
v 0.381288 -1.285890 -0.147154
v 1.682491 -1.668582 -1.616989
v 0.271607 -0.760500 -0.381044
v 1.572810 -1.143193 -1.850879
v 0.005387 -0.364182 -0.719907
v 1.306590 -0.746875 -2.189743
v -0.376842 -0.157273 -1.112155
v 0.924362 -0.539966 -2.581990
v -0.816889 -0.171272 -1.498072
v 0.484315 -0.553965 -2.967907
v -1.247761 -0.404048 -1.818904
v 0.053442 -0.786741 -3.288739
v -1.603862 -0.820163 -2.025809
v -0.302659 -1.202856 -3.495644
vn -0.7516 -0.0239 -0.6592
vn -0.7359 -0.3976 -0.5480
vn -0.6082 -0.7107 -0.3534
vn -0.3879 -0.9157 -0.1050
vn -0.1086 -0.9812 0.1594
vn 0.1873 -0.8974 0.3995
vn 0.4547 -0.6769 0.5788
vn 0.6529 -0.3534 0.6700
vn 0.7516 0.0239 0.6592
vn 0.7359 0.3976 0.5480
vn 0.6082 0.7107 0.3534
vn 0.3879 0.9157 0.1050
vn 0.1086 0.9812 -0.1594
vn -0.1873 0.8974 -0.3995
vn 0.6506 -0.1913 -0.7349
vn -0.4547 0.6769 -0.5788
vn -0.6529 0.3534 -0.6700
vn -0.6506 0.1913 0.7349
s off
f 2//1 3//1 1//1
f 4//2 5//2 3//2
f 6//3 7//3 5//3
f 8//4 9//4 7//4
f 10//5 11//5 9//5
f 12//6 13//6 11//6
f 14//7 15//7 13//7
f 16//8 17//8 15//8
f 17//9 20//9 19//9
f 20//10 21//10 19//10
f 22//11 23//11 21//11
f 24//12 25//12 23//12
f 26//13 27//13 25//13
f 28//14 29//14 27//14
f 22//15 14//15 6//15
f 30//16 31//16 29//16
f 32//17 1//17 31//17
f 31//18 7//18 15//18
f 2//1 4//1 3//1
f 4//2 6//2 5//2
f 6//3 8//3 7//3
f 8//4 10//4 9//4
f 10//5 12//5 11//5
f 12//6 14//6 13//6
f 14//7 16//7 15//7
f 16//8 18//8 17//8
f 17//9 18//9 20//9
f 20//10 22//10 21//10
f 22//11 24//11 23//11
f 24//12 26//12 25//12
f 26//13 28//13 27//13
f 28//14 30//14 29//14
f 6//15 4//15 2//15
f 2//15 32//15 30//15
f 30//15 28//15 22//15
f 28//15 26//15 22//15
f 26//15 24//15 22//15
f 22//15 20//15 18//15
f 18//15 16//15 14//15
f 14//15 12//15 10//15
f 10//15 8//15 14//15
f 8//15 6//15 14//15
f 6//15 2//15 22//15
f 2//15 30//15 22//15
f 22//15 18//15 14//15
f 30//16 32//16 31//16
f 32//17 2//17 1//17
f 31//18 1//18 7//18
f 1//18 3//18 7//18
f 3//18 5//18 7//18
f 7//18 9//18 11//18
f 11//18 13//18 15//18
f 15//18 17//18 19//18
f 19//18 21//18 23//18
f 23//18 25//18 27//18
f 27//18 29//18 23//18
f 29//18 31//18 23//18
f 7//18 11//18 15//18
f 15//18 19//18 31//18
f 19//18 23//18 31//18
