# Blender v2.83.0 OBJ File: ''
# www.blender.org
o Cylinder.225_Cylinder.1654
v -0.132157 0.079836 -0.393875
v 0.552060 1.728817 -1.295379
v 0.081040 0.033021 -0.317696
v 0.765257 1.682002 -1.219199
v 0.262048 0.036519 -0.173918
v 0.946265 1.685499 -1.075422
v 0.383309 0.089796 0.015568
v 1.067527 1.738777 -0.885935
v 0.426364 0.184742 0.221916
v 1.110581 1.833723 -0.679587
v 0.384656 0.306903 0.413711
v 1.068874 1.955884 -0.487792
v 0.264537 0.437680 0.561754
v 0.948754 2.086661 -0.339749
v 0.084292 0.557164 0.643506
v 0.768510 2.206145 -0.257997
v -0.128637 0.647164 0.646522
v 0.555580 2.296145 -0.254981
v -0.341834 0.693979 0.570343
v 0.342383 2.342960 -0.331160
v -0.522842 0.690482 0.426565
v 0.161375 2.339463 -0.474938
v -0.644104 0.637205 0.237079
v 0.040114 2.286186 -0.664425
v -0.687158 0.542258 0.030731
v -0.002941 2.191239 -0.870773
v -0.645451 0.420097 -0.161064
v 0.038767 2.069078 -1.062568
v -0.525331 0.289320 -0.309107
v 0.158886 1.938301 -1.210610
v -0.345086 0.169836 -0.390859
v 0.339131 1.818817 -1.292363
vn 0.1804 -0.5284 -0.8296
vn 0.5196 -0.5657 -0.6404
vn 0.7796 -0.5168 -0.3536
vn 0.9210 -0.3893 -0.0130
vn 0.9222 -0.2025 0.3295
vn 0.7829 0.0151 0.6219
vn 0.5245 0.2305 0.8196
vn 0.1862 0.4107 0.8926
vn -0.1804 0.5284 0.8296
vn -0.5196 0.5657 0.6404
vn -0.7796 0.5168 0.3536
vn -0.9210 0.3893 0.0130
vn -0.9222 0.2025 -0.3295
vn -0.7829 -0.0151 -0.6219
vn 0.3421 0.8245 -0.4508
vn -0.5245 -0.2305 -0.8196
vn -0.1862 -0.4107 -0.8926
vn -0.3421 -0.8245 0.4508
vn 0.3421 0.8245 -0.4507
s off
f 2//1 3//1 1//1
f 4//2 5//2 3//2
f 6//3 7//3 5//3
f 8//4 9//4 7//4
f 10//5 11//5 9//5
f 12//6 13//6 11//6
f 14//7 15//7 13//7
f 16//8 17//8 15//8
f 18//9 19//9 17//9
f 20//10 21//10 19//10
f 22//11 23//11 21//11
f 24//12 25//12 23//12
f 26//13 27//13 25//13
f 28//14 29//14 27//14
f 30//15 22//15 14//15
f 30//16 31//16 29//16
f 32//17 1//17 31//17
f 19//18 23//18 31//18
f 2//1 4//1 3//1
f 4//2 6//2 5//2
f 6//3 8//3 7//3
f 8//4 10//4 9//4
f 10//5 12//5 11//5
f 12//6 14//6 13//6
f 14//7 16//7 15//7
f 16//8 18//8 17//8
f 18//9 20//9 19//9
f 20//10 22//10 21//10
f 22//11 24//11 23//11
f 24//12 26//12 25//12
f 26//13 28//13 27//13
f 28//14 30//14 29//14
f 6//15 4//15 2//15
f 2//15 32//15 30//15
f 30//15 28//15 22//15
f 28//15 26//15 22//15
f 26//15 24//15 22//15
f 22//19 20//19 18//19
f 18//15 16//15 14//15
f 14//15 12//15 10//15
f 10//15 8//15 6//15
f 6//15 2//15 30//15
f 22//15 18//15 14//15
f 14//15 10//15 6//15
f 6//15 30//15 14//15
f 30//16 32//16 31//16
f 32//17 2//17 1//17
f 31//18 1//18 3//18
f 3//18 5//18 7//18
f 7//18 9//18 11//18
f 11//18 13//18 7//18
f 13//18 15//18 7//18
f 15//18 17//18 19//18
f 19//18 21//18 23//18
f 23//18 25//18 31//18
f 25//18 27//18 31//18
f 27//18 29//18 31//18
f 31//18 3//18 15//18
f 3//18 7//18 15//18
f 15//18 19//18 31//18
