# Blender v2.83.0 OBJ File: ''
# www.blender.org
o Cylinder.031_Cylinder.1460
v -0.732628 0.447777 1.578721
v -1.796940 1.741223 0.485910
v -0.774378 0.136548 1.251014
v -1.838690 1.429995 0.158203
v -0.666768 -0.092982 0.874538
v -1.731080 1.200464 -0.218273
v -0.426180 -0.205871 0.506609
v -1.490492 1.087575 -0.586202
v -0.089242 -0.184933 0.203241
v -1.153554 1.108514 -0.889570
v 0.292751 -0.033354 0.010618
v -0.771561 1.260093 -1.082193
v 0.661643 0.225789 -0.041934
v -0.402669 1.519235 -1.134745
v 0.961275 0.553043 0.053585
v -0.103037 1.846489 -1.039226
v 1.146029 0.898587 0.282633
v 0.081717 2.192033 -0.810177
v 1.187779 1.209815 0.610341
v 0.123467 2.503262 -0.482470
v 1.080169 1.439346 0.986816
v 0.015857 2.732792 -0.105994
v 0.839581 1.552235 1.354745
v -0.224731 2.845682 0.261935
v 0.502643 1.531296 1.658114
v -0.561669 2.824743 0.565303
v 0.120650 1.379717 1.850736
v -0.943662 2.673164 0.757926
v -0.248242 1.120575 1.903288
v -1.312554 2.414021 0.810478
v -0.547874 0.793320 1.807769
v -1.612186 2.086767 0.714958
vn -0.8416 -0.3340 0.4244
vn -0.8128 -0.5710 0.1158
vn -0.6602 -0.7210 -0.2105
vn -0.4071 -0.7613 -0.5047
vn -0.0920 -0.6857 -0.7220
vn 0.2371 -0.5057 -0.8295
vn 0.5301 -0.2487 -0.8106
vn 0.7424 0.0461 -0.6684
vn 0.8416 0.3340 -0.4244
vn 0.8128 0.5710 -0.1158
vn 0.6602 0.7210 0.2105
vn 0.4071 0.7613 0.5047
vn 0.0920 0.6857 0.7220
vn -0.2371 0.5057 0.8295
vn -0.5322 0.6467 -0.5464
vn -0.5301 0.2487 0.8106
vn -0.7424 -0.0461 0.6684
vn 0.5322 -0.6467 0.5464
s off
f 2//1 3//1 1//1
f 4//2 5//2 3//2
f 6//3 7//3 5//3
f 8//4 9//4 7//4
f 10//5 11//5 9//5
f 12//6 13//6 11//6
f 14//7 15//7 13//7
f 16//8 17//8 15//8
f 18//9 19//9 17//9
f 20//10 21//10 19//10
f 22//11 23//11 21//11
f 24//12 25//12 23//12
f 26//13 27//13 25//13
f 28//14 29//14 27//14
f 6//15 30//15 22//15
f 30//16 31//16 29//16
f 32//17 1//17 31//17
f 15//18 23//18 31//18
f 2//1 4//1 3//1
f 4//2 6//2 5//2
f 6//3 8//3 7//3
f 8//4 10//4 9//4
f 10//5 12//5 11//5
f 12//6 14//6 13//6
f 14//7 16//7 15//7
f 16//8 18//8 17//8
f 18//9 20//9 19//9
f 20//10 22//10 21//10
f 22//11 24//11 23//11
f 24//12 26//12 25//12
f 26//13 28//13 27//13
f 28//14 30//14 29//14
f 6//15 4//15 2//15
f 2//15 32//15 30//15
f 30//15 28//15 22//15
f 28//15 26//15 22//15
f 26//15 24//15 22//15
f 22//15 20//15 18//15
f 18//15 16//15 14//15
f 14//15 12//15 10//15
f 10//15 8//15 6//15
f 6//15 2//15 30//15
f 22//15 18//15 6//15
f 18//15 14//15 6//15
f 14//15 10//15 6//15
f 30//16 32//16 31//16
f 32//17 2//17 1//17
f 31//18 1//18 7//18
f 1//18 3//18 7//18
f 3//18 5//18 7//18
f 7//18 9//18 11//18
f 11//18 13//18 7//18
f 13//18 15//18 7//18
f 15//18 17//18 23//18
f 17//18 19//18 23//18
f 19//18 21//18 23//18
f 23//18 25//18 31//18
f 25//18 27//18 31//18
f 27//18 29//18 31//18
f 31//18 7//18 15//18
