# Blender v2.83.0 OBJ File: ''
# www.blender.org
o Cylinder.030_Cylinder.1459
v -2.355903 -1.749925 1.623428
v -0.917714 -1.601606 3.005316
v -2.431833 -1.208773 1.644369
v -0.993644 -1.060454 3.026257
v -2.359489 -0.682974 1.512644
v -0.921301 -0.534656 2.894532
v -2.149886 -0.252577 1.248307
v -0.711698 -0.104259 2.630195
v -1.834934 0.016895 0.891600
v -0.396746 0.165213 2.273489
v -1.462582 0.084416 0.496830
v -0.024393 0.232735 1.878718
v -1.089516 -0.060292 0.124097
v 0.348673 0.088027 1.505985
v -0.772532 -0.395199 -0.169855
v 0.665656 -0.246880 1.212033
v -0.559889 -0.869319 -0.340274
v 0.878299 -0.721000 1.041614
v -0.483960 -1.410470 -0.361215
v 0.954229 -1.262152 1.020673
v -0.556303 -1.936269 -0.229491
v 0.881886 -1.787950 1.152397
v -0.765906 -2.366666 0.034846
v 0.672283 -2.218348 1.416734
v -1.080858 -2.636138 0.391553
v 0.357331 -2.487820 1.773441
v -1.453211 -2.703660 0.786323
v -0.015022 -2.555341 2.168211
v -1.826277 -2.558951 1.159057
v -0.388088 -2.410633 2.540945
v -2.143261 -2.224044 1.453009
v -0.705072 -2.075726 2.834897
vn -0.6809 -0.1235 0.7219
vn -0.6822 0.2646 0.6816
vn -0.5796 0.6124 0.5375
vn -0.3888 0.8670 0.3116
vn -0.1388 0.9896 0.0383
vn 0.1323 0.9615 -0.2409
vn 0.3833 0.7870 -0.4834
vn 0.5759 0.4928 -0.6523
vn 0.6809 0.1235 -0.7219
vn 0.6822 -0.2646 -0.6816
vn 0.5796 -0.6124 -0.5375
vn 0.3888 -0.8670 -0.3116
vn 0.1388 -0.9896 -0.0383
vn -0.1323 -0.9615 0.2409
vn 0.7191 0.0742 0.6909
vn -0.3833 -0.7870 0.4834
vn -0.5759 -0.4928 0.6523
vn -0.7191 -0.0742 -0.6909
s off
f 2//1 3//1 1//1
f 4//2 5//2 3//2
f 6//3 7//3 5//3
f 8//4 9//4 7//4
f 10//5 11//5 9//5
f 12//6 13//6 11//6
f 14//7 15//7 13//7
f 16//8 17//8 15//8
f 18//9 19//9 17//9
f 20//10 21//10 19//10
f 22//11 23//11 21//11
f 24//12 25//12 23//12
f 26//13 27//13 25//13
f 28//14 29//14 27//14
f 6//15 30//15 22//15
f 30//16 31//16 29//16
f 32//17 1//17 31//17
f 31//18 7//18 15//18
f 2//1 4//1 3//1
f 4//2 6//2 5//2
f 6//3 8//3 7//3
f 8//4 10//4 9//4
f 10//5 12//5 11//5
f 12//6 14//6 13//6
f 14//7 16//7 15//7
f 16//8 18//8 17//8
f 18//9 20//9 19//9
f 20//10 22//10 21//10
f 22//11 24//11 23//11
f 24//12 26//12 25//12
f 26//13 28//13 27//13
f 28//14 30//14 29//14
f 6//15 4//15 2//15
f 2//15 32//15 30//15
f 30//15 28//15 22//15
f 28//15 26//15 22//15
f 26//15 24//15 22//15
f 22//15 20//15 18//15
f 18//15 16//15 14//15
f 14//15 12//15 10//15
f 10//15 8//15 6//15
f 6//15 2//15 30//15
f 22//15 18//15 6//15
f 18//15 14//15 6//15
f 14//15 10//15 6//15
f 30//16 32//16 31//16
f 32//17 2//17 1//17
f 31//18 1//18 7//18
f 1//18 3//18 7//18
f 3//18 5//18 7//18
f 7//18 9//18 11//18
f 11//18 13//18 7//18
f 13//18 15//18 7//18
f 15//18 17//18 19//18
f 19//18 21//18 15//18
f 21//18 23//18 15//18
f 23//18 25//18 27//18
f 27//18 29//18 31//18
f 23//18 27//18 15//18
f 27//18 31//18 15//18
