# Blender v2.83.0 OBJ File: ''
# www.blender.org
o Cylinder.006_Cylinder.1435
v 1.520625 -1.305303 0.858389
v -0.413560 -1.170005 0.367855
v 1.498330 -1.509846 0.889881
v -0.435855 -1.374547 0.399347
v 1.496116 -1.712566 0.842700
v -0.438069 -1.577267 0.352166
v 1.514318 -1.882601 0.724027
v -0.419867 -1.747303 0.233494
v 1.550167 -1.994066 0.551932
v -0.384018 -1.858767 0.061398
v 1.598204 -2.029989 0.352612
v -0.335981 -1.894691 -0.137922
v 1.651116 -1.984904 0.156413
v -0.283069 -1.849605 -0.334121
v 1.700848 -1.865672 -0.006796
v -0.233337 -1.730374 -0.497329
v 1.739829 -1.690447 -0.112167
v -0.194356 -1.555149 -0.602700
v 1.762124 -1.485905 -0.143659
v -0.172061 -1.350606 -0.634192
v 1.764338 -1.283185 -0.096477
v -0.169847 -1.147886 -0.587011
v 1.746136 -1.113149 0.022195
v -0.188049 -0.977851 -0.468339
v 1.710287 -1.001685 0.194291
v -0.223898 -0.866386 -0.296243
v 1.662250 -0.965761 0.393611
v -0.271935 -0.830463 -0.096923
v 1.609338 -1.010847 0.589809
v -0.324847 -0.875548 0.099276
v 1.559606 -1.130079 0.753018
v -0.374579 -0.994780 0.262484
vn -0.2308 0.1726 0.9576
vn -0.2542 -0.2166 0.9426
vn -0.2389 -0.5728 0.7841
vn -0.1873 -0.8418 0.5062
vn -0.1071 -0.9827 0.1513
vn -0.0106 -0.9739 -0.2267
vn 0.0874 -0.8169 -0.5701
vn 0.1722 -0.5355 -0.8268
vn 0.2308 -0.1726 -0.9576
vn 0.2542 0.2166 -0.9426
vn 0.2389 0.5728 -0.7841
vn 0.1873 0.8418 -0.5062
vn 0.1071 0.9827 -0.1513
vn 0.0106 0.9739 0.2267
vn -0.9671 0.0676 -0.2453
vn -0.0874 0.8169 0.5701
vn -0.1722 0.5355 0.8268
vn 0.9671 -0.0676 0.2453
vn -0.9671 0.0677 -0.2453
vn 0.9671 -0.0677 0.2453
s off
f 2//1 3//1 1//1
f 4//2 5//2 3//2
f 6//3 7//3 5//3
f 8//4 9//4 7//4
f 10//5 11//5 9//5
f 12//6 13//6 11//6
f 14//7 15//7 13//7
f 16//8 17//8 15//8
f 18//9 19//9 17//9
f 20//10 21//10 19//10
f 22//11 23//11 21//11
f 24//12 25//12 23//12
f 26//13 27//13 25//13
f 28//14 29//14 27//14
f 6//15 30//15 22//15
f 30//16 31//16 29//16
f 32//17 1//17 31//17
f 31//18 7//18 15//18
f 2//1 4//1 3//1
f 4//2 6//2 5//2
f 6//3 8//3 7//3
f 8//4 10//4 9//4
f 10//5 12//5 11//5
f 12//6 14//6 13//6
f 14//7 16//7 15//7
f 16//8 18//8 17//8
f 18//9 20//9 19//9
f 20//10 22//10 21//10
f 22//11 24//11 23//11
f 24//12 26//12 25//12
f 26//13 28//13 27//13
f 28//14 30//14 29//14
f 6//15 4//15 30//15
f 4//15 2//15 30//15
f 2//15 32//15 30//15
f 30//15 28//15 22//15
f 28//15 26//15 22//15
f 26//15 24//15 22//15
f 22//15 20//15 18//15
f 18//15 16//15 14//15
f 14//19 12//19 10//19
f 10//15 8//15 6//15
f 22//15 18//15 6//15
f 18//15 14//15 6//15
f 14//15 10//15 6//15
f 30//16 32//16 31//16
f 32//17 2//17 1//17
f 31//18 1//18 7//18
f 1//18 3//18 7//18
f 3//18 5//18 7//18
f 7//20 9//20 15//20
f 9//18 11//18 15//18
f 11//18 13//18 15//18
f 15//18 17//18 19//18
f 19//18 21//18 23//18
f 23//18 25//18 27//18
f 27//18 29//18 31//18
f 15//18 19//18 23//18
f 23//18 27//18 15//18
f 27//18 31//18 15//18
