# Blender v2.83.0 OBJ File: ''
# www.blender.org
o Cylinder.013_Cylinder.1442
v 0.622678 1.160124 1.221733
v -0.263637 -0.267077 0.136586
v 0.077382 1.403622 1.346862
v -0.808933 -0.023579 0.261716
v -0.442793 1.494142 1.652672
v -1.329108 0.066941 0.567526
v -0.858656 1.417904 2.092607
v -1.744971 -0.009297 1.007460
v -1.106896 1.186514 2.599689
v -1.993210 -0.240687 1.514542
v -1.149719 0.835198 3.096720
v -2.036034 -0.592003 2.011574
v -0.980606 0.417443 3.508033
v -1.866921 -1.009758 2.422886
v -0.625304 -0.003153 3.771007
v -1.511619 -1.430354 2.685861
v -0.137904 -0.362558 3.845608
v -1.024219 -1.789759 2.760462
v 0.407392 -0.606056 3.720479
v -0.478923 -2.033257 2.635333
v 0.927568 -0.696577 3.414669
v 0.041253 -2.123778 2.329523
v 1.343431 -0.620338 2.974735
v 0.457116 -2.047540 1.889588
v 1.591670 -0.388948 2.467653
v 0.705355 -1.816149 1.382506
v 1.634493 -0.037633 1.970621
v 0.748178 -1.464834 0.885474
v 1.465381 0.380123 1.559308
v 0.579066 -1.047078 0.474162
v 1.110078 0.800719 1.296334
v 0.223763 -0.626482 0.211187
vn 0.0702 0.5758 -0.8146
vn -0.2772 0.6847 -0.6741
vn -0.5823 0.6893 -0.4310
vn -0.7988 0.5890 -0.1223
vn -0.8937 0.3991 0.2051
vn -0.8525 0.1484 0.5012
vn -0.6816 -0.1249 0.7210
vn -0.4068 -0.3792 0.8311
vn -0.0702 -0.5758 0.8146
vn 0.2772 -0.6847 0.6741
vn 0.5823 -0.6893 0.4310
vn 0.7988 -0.5890 0.1223
vn 0.8937 -0.3991 -0.2051
vn 0.8525 -0.1484 -0.5012
vn -0.4432 -0.7136 -0.5426
vn 0.6816 0.1249 -0.7210
vn 0.4068 0.3792 -0.8311
vn 0.4432 0.7136 0.5426
s off
f 1//1 4//1 3//1
f 4//2 5//2 3//2
f 6//3 7//3 5//3
f 8//4 9//4 7//4
f 10//5 11//5 9//5
f 12//6 13//6 11//6
f 14//7 15//7 13//7
f 16//8 17//8 15//8
f 18//9 19//9 17//9
f 20//10 21//10 19//10
f 22//11 23//11 21//11
f 24//12 25//12 23//12
f 26//13 27//13 25//13
f 28//14 29//14 27//14
f 22//15 14//15 6//15
f 30//16 31//16 29//16
f 32//17 1//17 31//17
f 27//18 31//18 15//18
f 1//1 2//1 4//1
f 4//2 6//2 5//2
f 6//3 8//3 7//3
f 8//4 10//4 9//4
f 10//5 12//5 11//5
f 12//6 14//6 13//6
f 14//7 16//7 15//7
f 16//8 18//8 17//8
f 18//9 20//9 19//9
f 20//10 22//10 21//10
f 22//11 24//11 23//11
f 24//12 26//12 25//12
f 26//13 28//13 27//13
f 28//14 30//14 29//14
f 6//15 4//15 2//15
f 2//15 32//15 30//15
f 30//15 28//15 26//15
f 26//15 24//15 30//15
f 24//15 22//15 30//15
f 22//15 20//15 18//15
f 18//15 16//15 14//15
f 14//15 12//15 10//15
f 10//15 8//15 6//15
f 6//15 2//15 22//15
f 2//15 30//15 22//15
f 22//15 18//15 14//15
f 14//15 10//15 6//15
f 30//16 32//16 31//16
f 32//17 2//17 1//17
f 31//18 1//18 3//18
f 3//18 5//18 7//18
f 7//18 9//18 11//18
f 11//18 13//18 15//18
f 15//18 17//18 23//18
f 17//18 19//18 23//18
f 19//18 21//18 23//18
f 23//18 25//18 27//18
f 27//18 29//18 31//18
f 31//18 3//18 15//18
f 3//18 7//18 15//18
f 7//18 11//18 15//18
f 23//18 27//18 15//18
