# Blender v2.83.0 OBJ File: ''
# www.blender.org
o Cylinder.085_Cylinder.1514
v -1.302729 0.683305 0.425761
v 0.057702 0.282124 -0.984304
v -1.456716 -0.063264 0.489602
v -0.096285 -0.464445 -0.920462
v -1.392653 -0.777932 0.754741
v -0.032222 -1.179112 -0.655323
v -1.120294 -1.351896 1.180814
v 0.240137 -1.753077 -0.229251
v -0.681102 -1.697777 1.702954
v 0.679329 -2.098957 0.292889
v -0.141941 -1.762917 2.241670
v 1.218490 -2.164097 0.831605
v 0.415107 -1.537398 2.714947
v 1.775538 -1.938579 1.304883
v 0.905236 -1.055555 3.050734
v 2.265667 -1.456736 1.640670
v 1.253829 -0.390743 3.197910
v 2.614260 -0.791924 1.787845
v 1.407816 0.355825 3.134068
v 2.768247 -0.045355 1.724004
v 1.343753 1.070493 2.868929
v 2.704185 0.669312 1.458865
v 1.071394 1.644458 2.442857
v 2.431825 1.243277 1.032793
v 0.632202 1.990339 1.920717
v 1.992633 1.589158 0.510653
v 0.093041 2.055478 1.382001
v 1.453472 1.654298 -0.028064
v -0.464007 1.829960 0.908723
v 0.896424 1.428779 -0.501341
v -0.954137 1.348116 0.572936
v 0.406294 0.946935 -0.837128
vn -0.7048 0.0852 -0.7042
vn -0.7282 -0.2948 -0.6187
vn -0.6407 -0.6299 -0.4390
vn -0.4557 -0.8691 -0.1924
vn -0.2013 -0.9760 0.0835
vn 0.0837 -0.9343 0.3466
vn 0.3560 -0.7503 0.5570
vn 0.5741 -0.4522 0.6826
vn 0.7048 -0.0852 0.7042
vn 0.7282 0.2948 0.6187
vn 0.6407 0.6299 0.4390
vn 0.4557 0.8691 0.1924
vn 0.2013 0.9760 -0.0835
vn -0.0837 0.9343 -0.3466
vn 0.6802 -0.2006 -0.7050
vn -0.3560 0.7503 -0.5570
vn -0.5741 0.4522 -0.6826
vn -0.6802 0.2006 0.7050
s off
f 2//1 3//1 1//1
f 4//2 5//2 3//2
f 6//3 7//3 5//3
f 8//4 9//4 7//4
f 10//5 11//5 9//5
f 12//6 13//6 11//6
f 13//7 16//7 15//7
f 16//8 17//8 15//8
f 18//9 19//9 17//9
f 20//10 21//10 19//10
f 22//11 23//11 21//11
f 24//12 25//12 23//12
f 26//13 27//13 25//13
f 28//14 29//14 27//14
f 22//15 14//15 6//15
f 30//16 31//16 29//16
f 32//17 1//17 31//17
f 7//18 15//18 23//18
f 2//1 4//1 3//1
f 4//2 6//2 5//2
f 6//3 8//3 7//3
f 8//4 10//4 9//4
f 10//5 12//5 11//5
f 12//6 14//6 13//6
f 13//7 14//7 16//7
f 16//8 18//8 17//8
f 18//9 20//9 19//9
f 20//10 22//10 21//10
f 22//11 24//11 23//11
f 24//12 26//12 25//12
f 26//13 28//13 27//13
f 28//14 30//14 29//14
f 6//15 4//15 2//15
f 2//15 32//15 30//15
f 30//15 28//15 26//15
f 26//15 24//15 22//15
f 22//15 20//15 18//15
f 18//15 16//15 14//15
f 14//15 12//15 10//15
f 10//15 8//15 6//15
f 6//15 2//15 30//15
f 30//15 26//15 22//15
f 22//15 18//15 14//15
f 14//15 10//15 6//15
f 6//15 30//15 22//15
f 30//16 32//16 31//16
f 32//17 2//17 1//17
f 31//18 1//18 3//18
f 3//18 5//18 31//18
f 5//18 7//18 31//18
f 7//18 9//18 11//18
f 11//18 13//18 7//18
f 13//18 15//18 7//18
f 15//18 17//18 19//18
f 19//18 21//18 15//18
f 21//18 23//18 15//18
f 23//18 25//18 27//18
f 27//18 29//18 23//18
f 29//18 31//18 23//18
f 31//18 7//18 23//18
