# Blender v2.83.0 OBJ File: ''
# www.blender.org
o Cylinder.180_Cylinder.1609
v -1.809655 -1.295972 2.995323
v -0.860913 -1.527615 1.249978
v -1.869629 -1.080843 2.934170
v -0.920887 -1.312486 1.188825
v -1.999593 -0.913220 2.841277
v -1.050851 -1.144863 1.095932
v -2.179760 -0.818621 2.730786
v -1.231017 -1.050265 0.985441
v -2.382701 -0.811450 2.619519
v -1.433959 -1.043094 0.874173
v -2.577521 -0.892797 2.524414
v -1.628779 -1.124441 0.779068
v -2.734560 -1.050279 2.459951
v -1.785818 -1.281922 0.714605
v -2.829911 -1.259919 2.435944
v -1.881169 -1.491562 0.690598
v -2.849056 -1.489802 2.456047
v -1.900314 -1.721446 0.710701
v -2.789082 -1.704931 2.517200
v -1.840340 -1.936575 0.771854
v -2.659118 -1.872555 2.610093
v -1.710377 -2.104198 0.864747
v -2.478951 -1.967153 2.720584
v -1.530210 -2.198796 0.975238
v -2.276010 -1.974324 2.831851
v -1.327268 -2.205967 1.086506
v -2.081190 -1.892977 2.926956
v -1.132448 -2.124620 1.181611
v -1.924150 -1.735495 2.991419
v -0.975409 -1.967139 1.246074
v -1.828800 -1.525855 3.015427
v -0.880058 -1.757498 1.270081
vn 0.8414 0.3513 0.4107
vn 0.6782 0.6801 0.2784
vn 0.4118 0.9054 0.1037
vn 0.0827 0.9928 -0.0868
vn -0.2590 0.9291 -0.2641
vn -0.5613 0.7239 -0.4012
vn -0.7781 0.4085 -0.4772
vn -0.8764 0.0310 -0.4805
vn -0.8414 -0.3513 -0.4107
vn -0.6782 -0.6801 -0.2784
vn -0.4118 -0.9054 -0.1037
vn -0.0827 -0.9928 0.0868
vn 0.2590 -0.9291 0.2641
vn 0.5613 -0.7239 0.4012
vn 0.4744 -0.1158 -0.8727
vn 0.7781 -0.4085 0.4772
vn 0.8764 -0.0310 0.4805
vn -0.4744 0.1158 0.8727
s off
f 2//1 3//1 1//1
f 4//2 5//2 3//2
f 6//3 7//3 5//3
f 8//4 9//4 7//4
f 10//5 11//5 9//5
f 12//6 13//6 11//6
f 14//7 15//7 13//7
f 16//8 17//8 15//8
f 17//9 20//9 19//9
f 20//10 21//10 19//10
f 22//11 23//11 21//11
f 24//12 25//12 23//12
f 26//13 27//13 25//13
f 28//14 29//14 27//14
f 22//15 14//15 6//15
f 30//16 31//16 29//16
f 32//17 1//17 31//17
f 15//18 23//18 31//18
f 2//1 4//1 3//1
f 4//2 6//2 5//2
f 6//3 8//3 7//3
f 8//4 10//4 9//4
f 10//5 12//5 11//5
f 12//6 14//6 13//6
f 14//7 16//7 15//7
f 16//8 18//8 17//8
f 17//9 18//9 20//9
f 20//10 22//10 21//10
f 22//11 24//11 23//11
f 24//12 26//12 25//12
f 26//13 28//13 27//13
f 28//14 30//14 29//14
f 6//15 4//15 2//15
f 2//15 32//15 30//15
f 30//15 28//15 26//15
f 26//15 24//15 22//15
f 22//15 20//15 18//15
f 18//15 16//15 14//15
f 14//15 12//15 10//15
f 10//15 8//15 6//15
f 6//15 2//15 30//15
f 30//15 26//15 22//15
f 22//15 18//15 14//15
f 14//15 10//15 6//15
f 6//15 30//15 22//15
f 30//16 32//16 31//16
f 32//17 2//17 1//17
f 31//18 1//18 3//18
f 3//18 5//18 7//18
f 7//18 9//18 11//18
f 11//18 13//18 7//18
f 13//18 15//18 7//18
f 15//18 17//18 19//18
f 19//18 21//18 15//18
f 21//18 23//18 15//18
f 23//18 25//18 31//18
f 25//18 27//18 31//18
f 27//18 29//18 31//18
f 31//18 3//18 15//18
f 3//18 7//18 15//18
