# Blender v2.83.0 OBJ File: ''
# www.blender.org
o Cylinder.130_Cylinder.1559
v 1.030317 2.550927 -3.133612
v 1.728455 2.750842 -1.270110
v 1.352667 2.029577 -3.198446
v 2.050806 2.229491 -1.334945
v 1.467064 1.424313 -3.176372
v 2.165203 1.624227 -1.312871
v 1.356093 0.827280 -3.070749
v 2.054231 1.027194 -1.207247
v 1.036647 0.329372 -2.897657
v 1.734786 0.529286 -1.034156
v 0.557360 0.006390 -2.683449
v 1.255498 0.206305 -0.819947
v -0.008802 -0.092494 -2.460734
v 0.689336 0.107420 -0.597233
v -0.575646 0.047773 -2.263421
v 0.122493 0.247688 -0.399920
v -1.056874 0.405838 -2.121547
v -0.358735 0.605752 -0.258046
v -1.379224 0.927188 -2.056713
v -0.681085 1.127102 -0.193211
v -1.493621 1.532452 -2.078787
v -0.795483 1.732366 -0.215286
v -1.382650 2.129485 -2.184410
v -0.684511 2.329399 -0.320909
v -1.063204 2.627393 -2.357502
v -0.365065 2.827308 -0.494001
v -0.583916 2.950375 -2.571711
v 0.114222 3.150290 -0.708209
v -0.017754 3.049259 -2.794425
v 0.680384 3.249174 -0.930923
v 0.549089 2.908992 -2.991738
v 1.247228 3.108906 -1.128237
vn 0.7776 0.5240 -0.3475
vn 0.9185 0.1604 -0.3613
vn 0.9196 -0.2276 -0.3201
vn 0.7807 -0.5809 -0.2302
vn 0.5230 -0.8458 -0.1052
vn 0.1856 -0.9820 0.0358
vn -0.1800 -0.9686 0.1714
vn -0.5183 -0.8078 0.2808
vn -0.7776 -0.5240 0.3475
vn -0.9185 -0.1604 0.3613
vn -0.9196 0.2276 0.3201
vn -0.7807 0.5809 0.2302
vn -0.5230 0.8458 0.1052
vn -0.1856 0.9820 -0.0358
vn 0.3491 0.1000 0.9318
vn 0.1800 0.9686 -0.1714
vn 0.5183 0.8078 -0.2808
vn -0.3491 -0.1000 -0.9318
s off
f 2//1 3//1 1//1
f 4//2 5//2 3//2
f 6//3 7//3 5//3
f 8//4 9//4 7//4
f 10//5 11//5 9//5
f 12//6 13//6 11//6
f 14//7 15//7 13//7
f 16//8 17//8 15//8
f 18//9 19//9 17//9
f 20//10 21//10 19//10
f 22//11 23//11 21//11
f 24//12 25//12 23//12
f 26//13 27//13 25//13
f 28//14 29//14 27//14
f 30//15 22//15 14//15
f 30//16 31//16 29//16
f 32//17 1//17 31//17
f 27//18 31//18 15//18
f 2//1 4//1 3//1
f 4//2 6//2 5//2
f 6//3 8//3 7//3
f 8//4 10//4 9//4
f 10//5 12//5 11//5
f 12//6 14//6 13//6
f 14//7 16//7 15//7
f 16//8 18//8 17//8
f 18//9 20//9 19//9
f 20//10 22//10 21//10
f 22//11 24//11 23//11
f 24//12 26//12 25//12
f 26//13 28//13 27//13
f 28//14 30//14 29//14
f 6//15 4//15 2//15
f 2//15 32//15 30//15
f 30//15 28//15 26//15
f 26//15 24//15 22//15
f 22//15 20//15 14//15
f 20//15 18//15 14//15
f 18//15 16//15 14//15
f 14//15 12//15 10//15
f 10//15 8//15 6//15
f 6//15 2//15 30//15
f 30//15 26//15 22//15
f 14//15 10//15 6//15
f 6//15 30//15 14//15
f 30//16 32//16 31//16
f 32//17 2//17 1//17
f 31//18 1//18 3//18
f 3//18 5//18 7//18
f 7//18 9//18 11//18
f 11//18 13//18 7//18
f 13//18 15//18 7//18
f 15//18 17//18 19//18
f 19//18 21//18 23//18
f 23//18 25//18 27//18
f 27//18 29//18 31//18
f 31//18 3//18 15//18
f 3//18 7//18 15//18
f 15//18 19//18 23//18
f 23//18 27//18 15//18
