# Blender v2.83.0 OBJ File: ''
# www.blender.org
o Cylinder.056_Cylinder.1485
v -0.612434 1.130183 -1.468234
v -1.780617 -0.365937 -0.838175
v -0.540436 1.324527 -0.873260
v -1.708619 -0.171592 -0.243200
v -0.280166 1.362409 -0.300746
v -1.448350 -0.133711 0.329313
v 0.128752 1.238059 0.162148
v -1.039431 -0.258060 0.792207
v 0.624065 0.970411 0.444950
v -0.544118 -0.525708 1.075009
v 1.130365 0.600210 0.504606
v -0.037818 -0.895909 1.134666
v 1.570574 0.183817 0.332035
v 0.402390 -1.312303 0.962095
v 1.877672 -0.215377 -0.046492
v 0.709489 -1.711496 0.583568
v 2.004908 -0.536598 -0.573346
v 0.836724 -2.032717 0.056713
v 1.932910 -0.730942 -1.168320
v 0.764727 -2.227062 -0.538261
v 1.672641 -0.768824 -1.740834
v 0.504457 -2.264943 -1.110775
v 1.263722 -0.644474 -2.203728
v 0.095539 -2.140594 -1.573669
v 0.768409 -0.376826 -2.486531
v -0.399774 -1.872945 -1.856471
v 0.262108 -0.006625 -2.546187
v -0.906075 -1.502744 -1.916127
v -0.178100 0.409769 -2.373615
v -1.346283 -1.086351 -1.743556
v -0.485198 0.808963 -1.995089
v -1.653382 -0.687157 -1.365029
vn -0.8036 0.5876 -0.0947
vn -0.6987 0.6609 0.2739
vn -0.4874 0.6336 0.6008
vn -0.2019 0.5098 0.8362
vn 0.1143 0.3085 0.9443
vn 0.4131 0.0601 0.9087
vn 0.6490 -0.1974 0.7347
vn 0.7862 -0.4248 0.4489
vn 0.8036 -0.5876 0.0947
vn 0.6987 -0.6609 -0.2739
vn 0.4874 -0.6336 -0.6008
vn 0.2019 -0.5098 -0.8362
vn -0.1143 -0.3085 -0.9443
vn -0.4131 -0.0601 -0.9087
vn -0.5841 -0.7481 0.3150
vn -0.6490 0.1974 -0.7347
vn -0.7862 0.4248 -0.4489
vn 0.5841 0.7481 -0.3150
s off
f 2//1 3//1 1//1
f 4//2 5//2 3//2
f 6//3 7//3 5//3
f 8//4 9//4 7//4
f 10//5 11//5 9//5
f 12//6 13//6 11//6
f 14//7 15//7 13//7
f 16//8 17//8 15//8
f 18//9 19//9 17//9
f 20//10 21//10 19//10
f 22//11 23//11 21//11
f 24//12 25//12 23//12
f 26//13 27//13 25//13
f 28//14 29//14 27//14
f 6//15 30//15 22//15
f 30//16 31//16 29//16
f 32//17 1//17 31//17
f 7//18 15//18 23//18
f 2//1 4//1 3//1
f 4//2 6//2 5//2
f 6//3 8//3 7//3
f 8//4 10//4 9//4
f 10//5 12//5 11//5
f 12//6 14//6 13//6
f 14//7 16//7 15//7
f 16//8 18//8 17//8
f 18//9 20//9 19//9
f 20//10 22//10 21//10
f 22//11 24//11 23//11
f 24//12 26//12 25//12
f 26//13 28//13 27//13
f 28//14 30//14 29//14
f 6//15 4//15 2//15
f 2//15 32//15 30//15
f 30//15 28//15 26//15
f 26//15 24//15 30//15
f 24//15 22//15 30//15
f 22//15 20//15 18//15
f 18//15 16//15 14//15
f 14//15 12//15 6//15
f 12//15 10//15 6//15
f 10//15 8//15 6//15
f 6//15 2//15 30//15
f 22//15 18//15 6//15
f 18//15 14//15 6//15
f 30//16 32//16 31//16
f 32//17 2//17 1//17
f 31//18 1//18 7//18
f 1//18 3//18 7//18
f 3//18 5//18 7//18
f 7//18 9//18 11//18
f 11//18 13//18 15//18
f 15//18 17//18 19//18
f 19//18 21//18 15//18
f 21//18 23//18 15//18
f 23//18 25//18 27//18
f 27//18 29//18 23//18
f 29//18 31//18 23//18
f 7//18 11//18 15//18
f 31//18 7//18 23//18
