# Blender v2.83.0 OBJ File: ''
# www.blender.org
o Cylinder.084_Cylinder.1513
v 0.279217 1.074245 1.882149
v 1.640800 1.078734 0.417201
v 0.347929 0.661949 1.944749
v 1.709512 0.666438 0.479802
v 0.526926 0.316607 2.110058
v 1.888510 0.321095 0.645111
v 0.788957 0.090793 2.352909
v 2.150540 0.095282 0.887961
v 1.094130 0.018887 2.636329
v 2.455714 0.023376 1.171381
v 1.395986 0.111835 2.917171
v 2.757569 0.116324 1.452223
v 1.648569 0.355486 3.152678
v 3.010152 0.359975 1.687731
v 1.813426 0.712748 3.306998
v 3.175009 0.717237 1.842051
v 1.865459 1.129229 3.356637
v 3.227042 1.133718 1.891689
v 1.796747 1.541525 3.294036
v 3.158330 1.546014 1.829088
v 1.617750 1.886867 3.128727
v 2.979333 1.891356 1.663780
v 1.355719 2.112680 2.885876
v 2.717303 2.117169 1.420929
v 1.050546 2.184587 2.602456
v 2.412129 2.189076 1.137509
v 0.748690 2.091639 2.321614
v 2.110274 2.096128 0.856667
v 0.496107 1.847987 2.086106
v 1.857691 1.852476 0.621159
v 0.331250 1.490726 1.931787
v 1.692833 1.495214 0.466839
vn -0.7142 -0.2199 -0.6645
vn -0.5976 -0.5765 -0.5572
vn -0.3901 -0.8453 -0.3651
vn -0.1231 -0.9854 -0.1174
vn 0.1626 -0.9755 0.1481
vn 0.4235 -0.8171 0.3911
vn 0.6200 -0.5343 0.5746
vn 0.7221 -0.1701 0.6706
vn 0.7142 0.2199 0.6645
vn 0.5976 0.5765 0.5572
vn 0.3901 0.8453 0.3651
vn 0.1231 0.9854 0.1174
vn -0.1626 0.9755 -0.1481
vn -0.4235 0.8171 -0.3911
vn 0.6808 0.0022 -0.7325
vn -0.6200 0.5343 -0.5746
vn -0.7221 0.1701 -0.6706
vn -0.6808 -0.0022 0.7325
s off
f 2//1 3//1 1//1
f 4//2 5//2 3//2
f 6//3 7//3 5//3
f 8//4 9//4 7//4
f 10//5 11//5 9//5
f 12//6 13//6 11//6
f 14//7 15//7 13//7
f 16//8 17//8 15//8
f 18//9 19//9 17//9
f 20//10 21//10 19//10
f 22//11 23//11 21//11
f 24//12 25//12 23//12
f 26//13 27//13 25//13
f 28//14 29//14 27//14
f 30//15 22//15 14//15
f 30//16 31//16 29//16
f 32//17 1//17 31//17
f 15//18 23//18 31//18
f 2//1 4//1 3//1
f 4//2 6//2 5//2
f 6//3 8//3 7//3
f 8//4 10//4 9//4
f 10//5 12//5 11//5
f 12//6 14//6 13//6
f 14//7 16//7 15//7
f 16//8 18//8 17//8
f 18//9 20//9 19//9
f 20//10 22//10 21//10
f 22//11 24//11 23//11
f 24//12 26//12 25//12
f 26//13 28//13 27//13
f 28//14 30//14 29//14
f 6//15 4//15 2//15
f 2//15 32//15 30//15
f 30//15 28//15 26//15
f 26//15 24//15 22//15
f 22//15 20//15 18//15
f 18//15 16//15 14//15
f 14//15 12//15 10//15
f 10//15 8//15 6//15
f 6//15 2//15 30//15
f 30//15 26//15 22//15
f 22//15 18//15 14//15
f 14//15 10//15 6//15
f 6//15 30//15 14//15
f 30//16 32//16 31//16
f 32//17 2//17 1//17
f 31//18 1//18 3//18
f 3//18 5//18 7//18
f 7//18 9//18 11//18
f 11//18 13//18 15//18
f 15//18 17//18 19//18
f 19//18 21//18 23//18
f 23//18 25//18 27//18
f 27//18 29//18 23//18
f 29//18 31//18 23//18
f 31//18 3//18 15//18
f 3//18 7//18 15//18
f 7//18 11//18 15//18
f 15//18 19//18 23//18
