# Blender v2.83.0 OBJ File: ''
# www.blender.org
o Cylinder.074_Cylinder.1503
v -0.939177 1.754716 1.239308
v 0.742632 1.762648 0.156969
v -1.292448 1.443802 0.688093
v 0.389360 1.451733 -0.394245
v -1.553603 0.906012 0.278353
v 0.128206 0.913943 -0.803985
v -1.682881 0.223221 0.072468
v -0.001072 0.231152 -1.009870
v -1.660603 -0.500624 0.101781
v 0.021206 -0.492692 -0.980557
v -1.490160 -1.155322 0.361829
v 0.191649 -1.147391 -0.720509
v -1.197500 -1.641202 0.813023
v 0.484309 -1.633271 -0.269315
v -0.827178 -1.884294 1.386673
v 0.854631 -1.876362 0.304335
v -0.435572 -1.847588 1.995445
v 1.246237 -1.839657 0.913107
v -0.082301 -1.536674 2.546659
v 1.599508 -1.528743 1.464321
v 0.178853 -0.998884 2.956399
v 1.860662 -0.990953 1.874061
v 0.308132 -0.316093 3.162285
v 1.989941 -0.308162 2.079947
v 0.285854 0.407751 3.132972
v 1.967663 0.415683 2.050634
v 0.115410 1.062450 2.872923
v 1.797219 1.070381 1.790585
v -0.177250 1.548330 2.421729
v 1.504559 1.556262 1.339391
v -0.547572 1.791422 1.848079
v 1.134237 1.799353 0.765741
vn -0.2352 0.9033 -0.3588
vn -0.4038 0.6704 -0.6225
vn -0.5109 0.3354 -0.7915
vn -0.5403 -0.0506 -0.8399
vn -0.4874 -0.4290 -0.7605
vn -0.3603 -0.7420 -0.5653
vn -0.1784 -0.9421 -0.2841
vn 0.0307 -0.9987 0.0404
vn 0.2352 -0.9033 0.3588
vn 0.4038 -0.6704 0.6225
vn 0.5109 -0.3354 0.7915
vn 0.5403 0.0506 0.8399
vn 0.4874 0.4290 0.7605
vn 0.3603 0.7420 0.5653
vn 0.8409 0.0040 -0.5412
vn 0.1784 0.9421 0.2841
vn -0.0307 0.9987 -0.0404
vn -0.8409 -0.0040 0.5412
s off
f 2//1 3//1 1//1
f 4//2 5//2 3//2
f 6//3 7//3 5//3
f 8//4 9//4 7//4
f 10//5 11//5 9//5
f 12//6 13//6 11//6
f 14//7 15//7 13//7
f 16//8 17//8 15//8
f 18//9 19//9 17//9
f 20//10 21//10 19//10
f 22//11 23//11 21//11
f 24//12 25//12 23//12
f 26//13 27//13 25//13
f 28//14 29//14 27//14
f 30//15 22//15 14//15
f 30//16 31//16 29//16
f 32//17 1//17 31//17
f 15//18 23//18 31//18
f 2//1 4//1 3//1
f 4//2 6//2 5//2
f 6//3 8//3 7//3
f 8//4 10//4 9//4
f 10//5 12//5 11//5
f 12//6 14//6 13//6
f 14//7 16//7 15//7
f 16//8 18//8 17//8
f 18//9 20//9 19//9
f 20//10 22//10 21//10
f 22//11 24//11 23//11
f 24//12 26//12 25//12
f 26//13 28//13 27//13
f 28//14 30//14 29//14
f 6//15 4//15 30//15
f 4//15 2//15 30//15
f 2//15 32//15 30//15
f 30//15 28//15 26//15
f 26//15 24//15 22//15
f 22//15 20//15 18//15
f 18//15 16//15 22//15
f 16//15 14//15 22//15
f 14//15 12//15 10//15
f 10//15 8//15 14//15
f 8//15 6//15 14//15
f 30//15 26//15 22//15
f 6//15 30//15 14//15
f 30//16 32//16 31//16
f 32//17 2//17 1//17
f 31//18 1//18 3//18
f 3//18 5//18 7//18
f 7//18 9//18 11//18
f 11//18 13//18 7//18
f 13//18 15//18 7//18
f 15//18 17//18 19//18
f 19//18 21//18 23//18
f 23//18 25//18 27//18
f 27//18 29//18 23//18
f 29//18 31//18 23//18
f 31//18 3//18 15//18
f 3//18 7//18 15//18
f 15//18 19//18 23//18
