# Blender v2.83.0 OBJ File: ''
# www.blender.org
o Cylinder.350_Cylinder.1779
v -2.531245 -1.736763 1.246799
v -0.877488 -1.735878 2.371560
v -2.481329 -1.301424 1.173066
v -0.827573 -1.300539 2.297827
v -2.341510 -0.933297 0.967198
v -0.687754 -0.932412 2.091959
v -2.133073 -0.688426 0.660537
v -0.479317 -0.687541 1.785298
v -1.887752 -0.604092 0.299769
v -0.233995 -0.603207 1.424530
v -1.642893 -0.693132 -0.060181
v 0.010864 -0.692247 1.064580
v -1.435774 -0.941991 -0.364515
v 0.217982 -0.941106 0.760246
v -1.297928 -1.312783 -0.566901
v 0.355828 -1.311898 0.557860
v -1.250340 -1.749058 -0.636527
v 0.403416 -1.748173 0.488234
v -1.300255 -2.184397 -0.562794
v 0.353501 -2.183512 0.561967
v -1.440074 -2.552524 -0.356926
v 0.213682 -2.551639 0.767835
v -1.648511 -2.797395 -0.050265
v 0.005245 -2.796510 1.074496
v -1.893833 -2.881729 0.310503
v -0.240077 -2.880844 1.435264
v -2.138692 -2.792689 0.670453
v -0.484936 -2.791804 1.795215
v -2.345811 -2.543829 0.974788
v -0.692054 -2.542945 2.099549
v -2.483657 -2.173037 1.177173
v -0.829900 -2.172152 2.301934
vn -0.5510 0.2004 0.8101
vn -0.4661 0.5601 0.6849
vn -0.3102 0.8345 0.4555
vn -0.1071 0.9818 0.1567
vn 0.1123 0.9797 -0.1659
vn 0.3147 0.8285 -0.4633
vn 0.4691 0.5511 -0.6901
vn 0.5521 0.1898 -0.8119
vn 0.5510 -0.2004 -0.8101
vn 0.4661 -0.5601 -0.6849
vn 0.3102 -0.8345 -0.4555
vn 0.1071 -0.9818 -0.1567
vn -0.1123 -0.9797 0.1659
vn -0.3147 -0.8285 0.4633
vn 0.8269 0.0004 0.5624
vn -0.4691 -0.5511 0.6901
vn -0.5521 -0.1898 0.8119
vn -0.8269 -0.0004 -0.5624
s off
f 2//1 3//1 1//1
f 4//2 5//2 3//2
f 6//3 7//3 5//3
f 8//4 9//4 7//4
f 10//5 11//5 9//5
f 12//6 13//6 11//6
f 14//7 15//7 13//7
f 16//8 17//8 15//8
f 18//9 19//9 17//9
f 20//10 21//10 19//10
f 22//11 23//11 21//11
f 24//12 25//12 23//12
f 26//13 27//13 25//13
f 28//14 29//14 27//14
f 10//15 6//15 22//15
f 30//16 31//16 29//16
f 32//17 1//17 31//17
f 7//18 15//18 23//18
f 2//1 4//1 3//1
f 4//2 6//2 5//2
f 6//3 8//3 7//3
f 8//4 10//4 9//4
f 10//5 12//5 11//5
f 12//6 14//6 13//6
f 14//7 16//7 15//7
f 16//8 18//8 17//8
f 18//9 20//9 19//9
f 20//10 22//10 21//10
f 22//11 24//11 23//11
f 24//12 26//12 25//12
f 26//13 28//13 27//13
f 28//14 30//14 29//14
f 6//15 4//15 2//15
f 2//15 32//15 30//15
f 30//15 28//15 26//15
f 26//15 24//15 22//15
f 22//15 20//15 14//15
f 20//15 18//15 14//15
f 18//15 16//15 14//15
f 14//15 12//15 10//15
f 10//15 8//15 6//15
f 6//15 2//15 30//15
f 30//15 26//15 6//15
f 26//15 22//15 6//15
f 14//15 10//15 22//15
f 30//16 32//16 31//16
f 32//17 2//17 1//17
f 31//18 1//18 7//18
f 1//18 3//18 7//18
f 3//18 5//18 7//18
f 7//18 9//18 11//18
f 11//18 13//18 15//18
f 15//18 17//18 19//18
f 19//18 21//18 23//18
f 23//18 25//18 27//18
f 27//18 29//18 23//18
f 29//18 31//18 23//18
f 7//18 11//18 15//18
f 15//18 19//18 23//18
f 31//18 7//18 23//18
