# Blender v2.83.0 OBJ File: ''
# www.blender.org
o Cylinder.157_Cylinder.1586
v -0.835566 -0.575602 -0.023284
v 1.063755 -1.030916 -0.453713
v -0.866370 -0.823825 0.103364
v 1.032951 -1.279139 -0.327064
v -0.863352 -1.009663 0.313265
v 1.035969 -1.464977 -0.117164
v -0.826971 -1.104825 0.574461
v 1.072350 -1.560139 0.144033
v -0.762767 -1.094823 0.847190
v 1.136554 -1.550137 0.416761
v -0.680514 -0.981179 1.089930
v 1.218807 -1.436493 0.659501
v -0.592733 -0.781196 1.265726
v 1.306588 -1.236510 0.835297
v -0.512790 -0.525318 1.347815
v 1.386531 -0.980632 0.917387
v -0.452854 -0.252501 1.323700
v 1.446467 -0.707815 0.893271
v -0.422050 -0.004278 1.197052
v 1.477271 -0.459592 0.766623
v -0.425068 0.181560 0.987152
v 1.474253 -0.273754 0.556723
v -0.461449 0.276722 0.725955
v 1.437872 -0.178592 0.295526
v -0.525653 0.266720 0.453226
v 1.373668 -0.188594 0.022797
v -0.607906 0.153076 0.210486
v 1.291415 -0.302238 -0.219943
v -0.695687 -0.046907 0.034690
v 1.203634 -0.502221 -0.395739
v -0.775630 -0.302785 -0.047399
v 1.123691 -0.758099 -0.477828
vn -0.2934 -0.4053 -0.8658
vn -0.3131 -0.7133 -0.6270
vn -0.2851 -0.9127 -0.2928
vn -0.2138 -0.9731 0.0860
vn -0.1099 -0.8854 0.4517
vn 0.0108 -0.6629 0.7487
vn 0.1298 -0.3394 0.9316
vn 0.2290 0.0357 0.9728
vn 0.2934 0.4053 0.8658
vn 0.3131 0.7133 0.6270
vn 0.2851 0.9127 0.2928
vn 0.2138 0.9731 -0.0860
vn 0.1099 0.8854 -0.4517
vn -0.0108 0.6629 -0.7487
vn 0.9497 -0.2277 -0.2152
vn -0.1298 0.3394 -0.9316
vn -0.2290 -0.0357 -0.9728
vn -0.9497 0.2277 0.2152
s off
f 2//1 3//1 1//1
f 4//2 5//2 3//2
f 6//3 7//3 5//3
f 8//4 9//4 7//4
f 9//5 12//5 11//5
f 12//6 13//6 11//6
f 14//7 15//7 13//7
f 16//8 17//8 15//8
f 17//9 20//9 19//9
f 20//10 21//10 19//10
f 22//11 23//11 21//11
f 24//12 25//12 23//12
f 26//13 27//13 25//13
f 28//14 29//14 27//14
f 22//15 14//15 6//15
f 30//16 31//16 29//16
f 32//17 1//17 31//17
f 27//18 31//18 15//18
f 2//1 4//1 3//1
f 4//2 6//2 5//2
f 6//3 8//3 7//3
f 8//4 10//4 9//4
f 9//5 10//5 12//5
f 12//6 14//6 13//6
f 14//7 16//7 15//7
f 16//8 18//8 17//8
f 17//9 18//9 20//9
f 20//10 22//10 21//10
f 22//11 24//11 23//11
f 24//12 26//12 25//12
f 26//13 28//13 27//13
f 28//14 30//14 29//14
f 6//15 4//15 30//15
f 4//15 2//15 30//15
f 2//15 32//15 30//15
f 30//15 28//15 26//15
f 26//15 24//15 22//15
f 22//15 20//15 18//15
f 18//15 16//15 14//15
f 14//15 12//15 10//15
f 10//15 8//15 14//15
f 8//15 6//15 14//15
f 30//15 26//15 6//15
f 26//15 22//15 6//15
f 22//15 18//15 14//15
f 30//16 32//16 31//16
f 32//17 2//17 1//17
f 31//18 1//18 3//18
f 3//18 5//18 7//18
f 7//18 9//18 11//18
f 11//18 13//18 15//18
f 15//18 17//18 19//18
f 19//18 21//18 23//18
f 23//18 25//18 27//18
f 27//18 29//18 31//18
f 31//18 3//18 15//18
f 3//18 7//18 15//18
f 7//18 11//18 15//18
f 15//18 19//18 23//18
f 23//18 27//18 15//18
