# Blender v2.83.0 OBJ File: ''
# www.blender.org
o Cylinder.093_Cylinder.1522
v 1.297950 0.985801 2.118770
v 2.853985 0.054459 1.275351
v 1.171140 1.206110 1.641542
v 2.727176 0.274768 0.798123
v 0.933385 1.247096 1.157646
v 2.489421 0.315754 0.314227
v 0.620882 1.102521 0.740750
v 2.176918 0.171179 -0.102669
v 0.281205 0.794395 0.454323
v 1.837241 -0.136947 -0.389096
v -0.033932 0.369626 0.341971
v 1.522104 -0.561716 -0.501448
v -0.276553 -0.107117 0.420798
v 1.279483 -1.038459 -0.422621
v -0.409720 -0.563255 0.678804
v 1.146315 -1.494597 -0.164615
v -0.413161 -0.929345 1.076709
v 1.142874 -1.860687 0.233290
v -0.286352 -1.149654 1.553936
v 1.269684 -2.080996 0.710518
v -0.048597 -1.190640 2.037832
v 1.507438 -2.121982 1.194414
v 0.263906 -1.046065 2.454729
v 1.819942 -1.977407 1.611310
v 0.603583 -0.737939 2.741156
v 2.159619 -1.669281 1.897737
v 0.918720 -0.313170 2.853508
v 2.474756 -1.244512 2.010089
v 1.161341 0.163574 2.774681
v 2.717377 -0.767768 1.931262
v 1.294509 0.619712 2.516675
v 2.850544 -0.311630 1.673256
vn 0.5828 0.7856 0.2078
vn 0.4487 0.8817 -0.1458
vn 0.2463 0.8436 -0.4772
vn 0.0064 0.6771 -0.7359
vn -0.2345 0.4074 -0.8826
vn -0.4397 0.0758 -0.8949
vn -0.5780 -0.2674 -0.7710
vn -0.6282 -0.5699 -0.5297
vn -0.5828 -0.7856 -0.2078
vn -0.4487 -0.8817 0.1458
vn -0.2463 -0.8436 0.4772
vn -0.0064 -0.6771 0.7359
vn 0.2345 -0.4074 0.8826
vn 0.4397 -0.0758 0.8949
vn 0.7780 -0.4657 -0.4217
vn 0.5780 0.2674 0.7710
vn 0.6282 0.5699 0.5297
vn -0.7780 0.4657 0.4217
s off
f 2//1 3//1 1//1
f 4//2 5//2 3//2
f 6//3 7//3 5//3
f 8//4 9//4 7//4
f 10//5 11//5 9//5
f 12//6 13//6 11//6
f 14//7 15//7 13//7
f 16//8 17//8 15//8
f 17//9 20//9 19//9
f 20//10 21//10 19//10
f 22//11 23//11 21//11
f 24//12 25//12 23//12
f 26//13 27//13 25//13
f 28//14 29//14 27//14
f 22//15 14//15 6//15
f 30//16 31//16 29//16
f 32//17 1//17 31//17
f 7//18 15//18 23//18
f 2//1 4//1 3//1
f 4//2 6//2 5//2
f 6//3 8//3 7//3
f 8//4 10//4 9//4
f 10//5 12//5 11//5
f 12//6 14//6 13//6
f 14//7 16//7 15//7
f 16//8 18//8 17//8
f 17//9 18//9 20//9
f 20//10 22//10 21//10
f 22//11 24//11 23//11
f 24//12 26//12 25//12
f 26//13 28//13 27//13
f 28//14 30//14 29//14
f 6//15 4//15 30//15
f 4//15 2//15 30//15
f 2//15 32//15 30//15
f 30//15 28//15 26//15
f 26//15 24//15 22//15
f 22//15 20//15 18//15
f 18//15 16//15 14//15
f 14//15 12//15 10//15
f 10//15 8//15 14//15
f 8//15 6//15 14//15
f 30//15 26//15 22//15
f 22//15 18//15 14//15
f 6//15 30//15 22//15
f 30//16 32//16 31//16
f 32//17 2//17 1//17
f 31//18 1//18 3//18
f 3//18 5//18 7//18
f 7//18 9//18 11//18
f 11//18 13//18 7//18
f 13//18 15//18 7//18
f 15//18 17//18 19//18
f 19//18 21//18 15//18
f 21//18 23//18 15//18
f 23//18 25//18 31//18
f 25//18 27//18 31//18
f 27//18 29//18 31//18
f 31//18 3//18 7//18
f 31//18 7//18 23//18
