# Blender v2.83.0 OBJ File: ''
# www.blender.org
o Cylinder.087_Cylinder.1516
v -0.900011 0.013295 -0.707314
v -0.511892 1.407621 -2.087611
v -0.587221 -0.234820 -0.869998
v -0.199102 1.159506 -2.250295
v -0.189308 -0.393519 -0.918423
v 0.198810 1.000807 -2.298720
v 0.233149 -0.438642 -0.845217
v 0.621267 0.955684 -2.225514
v 0.615834 -0.363319 -0.661523
v 1.003952 1.031007 -2.041820
v 0.900488 -0.179018 -0.395308
v 1.288606 1.215308 -1.775605
v 1.043774 0.086204 -0.087102
v 1.431892 1.480530 -1.467399
v 1.023878 0.391968 0.216176
v 1.411996 1.786294 -1.164121
v 0.843830 0.691725 0.468353
v 1.231948 2.086051 -0.911944
v 0.531040 0.939840 0.631037
v 0.919159 2.334166 -0.749260
v 0.133128 1.098539 0.679463
v 0.521246 2.492865 -0.700835
v -0.289329 1.143662 0.606256
v 0.098789 2.537988 -0.774041
v -0.672015 1.068339 0.422562
v -0.283896 2.462665 -0.957735
v -0.956668 0.884038 0.156348
v -0.568550 2.278364 -1.223950
v -1.099954 0.618816 -0.151860
v -0.711836 2.013142 -1.532157
v -1.080059 0.313052 -0.455137
v -0.691941 1.707377 -1.835434
vn -0.6603 -0.4275 -0.6175
vn -0.3324 -0.6152 -0.7149
vn 0.0461 -0.7092 -0.7035
vn 0.4176 -0.6953 -0.5849
vn 0.7255 -0.5755 -0.3774
vn 0.9230 -0.3681 -0.1123
vn 0.9799 -0.1047 0.1698
vn 0.8877 0.1747 0.4261
vn 0.6603 0.4275 0.6175
vn 0.3324 0.6152 0.7149
vn -0.0461 0.7092 0.7035
vn -0.4176 0.6953 0.5849
vn -0.7255 0.5755 0.3774
vn -0.9230 0.3681 0.1123
vn 0.1941 0.6972 -0.6901
vn -0.9799 0.1047 -0.1698
vn -0.8877 -0.1747 -0.4261
vn -0.1941 -0.6972 0.6901
s off
f 2//1 3//1 1//1
f 4//2 5//2 3//2
f 6//3 7//3 5//3
f 8//4 9//4 7//4
f 10//5 11//5 9//5
f 12//6 13//6 11//6
f 14//7 15//7 13//7
f 16//8 17//8 15//8
f 18//9 19//9 17//9
f 20//10 21//10 19//10
f 22//11 23//11 21//11
f 24//12 25//12 23//12
f 26//13 27//13 25//13
f 28//14 29//14 27//14
f 30//15 22//15 14//15
f 30//16 31//16 29//16
f 32//17 1//17 31//17
f 7//18 15//18 23//18
f 2//1 4//1 3//1
f 4//2 6//2 5//2
f 6//3 8//3 7//3
f 8//4 10//4 9//4
f 10//5 12//5 11//5
f 12//6 14//6 13//6
f 14//7 16//7 15//7
f 16//8 18//8 17//8
f 18//9 20//9 19//9
f 20//10 22//10 21//10
f 22//11 24//11 23//11
f 24//12 26//12 25//12
f 26//13 28//13 27//13
f 28//14 30//14 29//14
f 6//15 4//15 30//15
f 4//15 2//15 30//15
f 2//15 32//15 30//15
f 30//15 28//15 26//15
f 26//15 24//15 30//15
f 24//15 22//15 30//15
f 22//15 20//15 18//15
f 18//15 16//15 22//15
f 16//15 14//15 22//15
f 14//15 12//15 6//15
f 12//15 10//15 6//15
f 10//15 8//15 6//15
f 6//15 30//15 14//15
f 30//16 32//16 31//16
f 32//17 2//17 1//17
f 31//18 1//18 3//18
f 3//18 5//18 7//18
f 7//18 9//18 15//18
f 9//18 11//18 15//18
f 11//18 13//18 15//18
f 15//18 17//18 19//18
f 19//18 21//18 15//18
f 21//18 23//18 15//18
f 23//18 25//18 27//18
f 27//18 29//18 31//18
f 31//18 3//18 7//18
f 23//18 27//18 31//18
f 31//18 7//18 23//18
