# Blender v2.83.0 OBJ File: ''
# www.blender.org
o Cylinder.352_Cylinder.1781
v -1.548173 -0.788884 2.898349
v -1.579006 -1.071370 0.918639
v -1.364780 -1.026051 2.929334
v -1.395613 -1.308537 0.949625
v -1.103833 -1.175878 2.946649
v -1.134666 -1.458364 0.966939
v -0.805058 -1.215556 2.947657
v -0.835892 -1.498041 0.967948
v -0.513943 -1.139042 2.932206
v -0.544776 -1.421528 0.952496
v -0.274805 -0.957988 2.902646
v -0.305638 -1.240473 0.922937
v -0.124053 -0.699955 2.863480
v -0.154886 -0.982440 0.883770
v -0.084636 -0.404227 2.820668
v -0.115469 -0.686713 0.840959
v -0.162555 -0.115827 2.780730
v -0.193388 -0.398312 0.801020
v -0.345948 0.121340 2.749745
v -0.376781 -0.161145 0.770035
v -0.606895 0.271167 2.732430
v -0.637728 -0.011318 0.752720
v -0.905669 0.310845 2.731422
v -0.936502 0.028359 0.751712
v -1.196785 0.234331 2.746873
v -1.227618 -0.048154 0.767164
v -1.435922 0.053276 2.776433
v -1.466756 -0.229209 0.796723
v -1.586675 -0.204756 2.815599
v -1.617508 -0.487242 0.835890
v -1.626092 -0.500484 2.858411
v -1.656925 -0.782970 0.878701
vn -0.7934 -0.6007 0.0981
vn -0.5002 -0.8561 0.1299
vn -0.1308 -0.9812 0.1420
vn 0.2585 -0.9569 0.1325
vn 0.6085 -0.7869 0.1028
vn 0.8658 -0.4971 0.0574
vn 0.9913 -0.1316 0.0033
vn 0.9659 0.2539 -0.0513
vn 0.7934 0.6007 -0.0981
vn 0.5002 0.8561 -0.1299
vn 0.1308 0.9812 -0.1420
vn -0.2585 0.9569 -0.1325
vn -0.6085 0.7869 -0.1028
vn -0.8658 0.4971 -0.0574
vn -0.0154 -0.1412 -0.9899
vn -0.9913 0.1316 -0.0033
vn -0.9659 -0.2539 0.0513
vn 0.0154 0.1412 0.9899
s off
f 2//1 3//1 1//1
f 4//2 5//2 3//2
f 6//3 7//3 5//3
f 8//4 9//4 7//4
f 10//5 11//5 9//5
f 12//6 13//6 11//6
f 14//7 15//7 13//7
f 16//8 17//8 15//8
f 18//9 19//9 17//9
f 20//10 21//10 19//10
f 22//11 23//11 21//11
f 24//12 25//12 23//12
f 26//13 27//13 25//13
f 28//14 29//14 27//14
f 6//15 30//15 22//15
f 30//16 31//16 29//16
f 32//17 1//17 31//17
f 31//18 7//18 15//18
f 2//1 4//1 3//1
f 4//2 6//2 5//2
f 6//3 8//3 7//3
f 8//4 10//4 9//4
f 10//5 12//5 11//5
f 12//6 14//6 13//6
f 14//7 16//7 15//7
f 16//8 18//8 17//8
f 18//9 20//9 19//9
f 20//10 22//10 21//10
f 22//11 24//11 23//11
f 24//12 26//12 25//12
f 26//13 28//13 27//13
f 28//14 30//14 29//14
f 6//15 4//15 2//15
f 2//15 32//15 30//15
f 30//15 28//15 22//15
f 28//15 26//15 22//15
f 26//15 24//15 22//15
f 22//15 20//15 14//15
f 20//15 18//15 14//15
f 18//15 16//15 14//15
f 14//15 12//15 10//15
f 10//15 8//15 6//15
f 6//15 2//15 30//15
f 14//15 10//15 22//15
f 10//15 6//15 22//15
f 30//16 32//16 31//16
f 32//17 2//17 1//17
f 31//18 1//18 7//18
f 1//18 3//18 7//18
f 3//18 5//18 7//18
f 7//18 9//18 15//18
f 9//18 11//18 15//18
f 11//18 13//18 15//18
f 15//18 17//18 23//18
f 17//18 19//18 23//18
f 19//18 21//18 23//18
f 23//18 25//18 27//18
f 27//18 29//18 31//18
f 23//18 27//18 15//18
f 27//18 31//18 15//18
