# Blender v2.83.0 OBJ File: ''
# www.blender.org
o Cylinder.205_Cylinder.1634
v -0.842111 0.448636 -0.914334
v 0.173666 1.838683 -1.932158
v -0.576900 0.008963 -1.250119
v 0.438877 1.399011 -2.267943
v -0.156939 -0.410854 -1.404350
v 0.858838 0.979193 -2.422174
v 0.353835 -0.746903 -1.353546
v 1.369612 0.643144 -2.371370
v 0.877664 -0.948023 -1.105442
v 1.893440 0.442025 -2.123266
v 1.334797 -0.983595 -0.697809
v 2.350574 0.406453 -1.715633
v 1.655641 -0.848204 -0.192706
v 2.671418 0.541844 -1.210530
v 1.791350 -0.562462 0.332970
v 2.807127 0.827586 -0.684854
v 1.721264 -0.169870 0.799189
v 2.737041 1.220177 -0.218635
v 1.456053 0.269803 1.134974
v 2.471830 1.659850 0.117150
v 1.036093 0.689620 1.289205
v 2.051870 2.079667 0.271381
v 0.525318 1.025669 1.238401
v 1.541095 2.415716 0.220577
v 0.001489 1.226789 0.990297
v 1.017266 2.616836 -0.027527
v -0.455644 1.262361 0.582664
v 0.560133 2.652408 -0.435160
v -0.776488 1.126969 0.077560
v 0.239289 2.517017 -0.940264
v -0.912197 0.841227 -0.448116
v 0.103580 2.231274 -1.465940
vn -0.7451 0.0580 -0.6644
vn -0.5230 -0.2207 -0.8233
vn -0.2212 -0.4657 -0.8568
vn 0.1142 -0.6399 -0.7599
vn 0.4323 -0.7166 -0.5473
vn 0.6845 -0.6843 -0.2514
vn 0.8325 -0.5477 0.0828
vn 0.8538 -0.3278 0.4044
vn 0.7451 -0.0580 0.6644
vn 0.5230 0.2207 0.8233
vn 0.2212 0.4657 0.8568
vn -0.1142 0.6399 0.7599
vn -0.4323 0.7166 0.5473
vn -0.6845 0.6843 0.2514
vn 0.5079 0.6950 -0.5089
vn -0.8325 0.5477 -0.0828
vn -0.8538 0.3278 -0.4044
vn -0.5079 -0.6950 0.5089
s off
f 2//1 3//1 1//1
f 4//2 5//2 3//2
f 6//3 7//3 5//3
f 8//4 9//4 7//4
f 10//5 11//5 9//5
f 12//6 13//6 11//6
f 14//7 15//7 13//7
f 16//8 17//8 15//8
f 18//9 19//9 17//9
f 20//10 21//10 19//10
f 22//11 23//11 21//11
f 24//12 25//12 23//12
f 26//13 27//13 25//13
f 28//14 29//14 27//14
f 30//15 22//15 14//15
f 30//16 31//16 29//16
f 31//17 2//17 1//17
f 7//18 15//18 23//18
f 2//1 4//1 3//1
f 4//2 6//2 5//2
f 6//3 8//3 7//3
f 8//4 10//4 9//4
f 10//5 12//5 11//5
f 12//6 14//6 13//6
f 14//7 16//7 15//7
f 16//8 18//8 17//8
f 18//9 20//9 19//9
f 20//10 22//10 21//10
f 22//11 24//11 23//11
f 24//12 26//12 25//12
f 26//13 28//13 27//13
f 28//14 30//14 29//14
f 6//15 4//15 2//15
f 2//15 32//15 6//15
f 32//15 30//15 6//15
f 30//15 28//15 22//15
f 28//15 26//15 22//15
f 26//15 24//15 22//15
f 22//15 20//15 14//15
f 20//15 18//15 14//15
f 18//15 16//15 14//15
f 14//15 12//15 6//15
f 12//15 10//15 6//15
f 10//15 8//15 6//15
f 6//15 30//15 14//15
f 30//16 32//16 31//16
f 31//17 32//17 2//17
f 31//18 1//18 3//18
f 3//18 5//18 7//18
f 7//18 9//18 15//18
f 9//18 11//18 15//18
f 11//18 13//18 15//18
f 15//18 17//18 19//18
f 19//18 21//18 15//18
f 21//18 23//18 15//18
f 23//18 25//18 27//18
f 27//18 29//18 31//18
f 31//18 3//18 7//18
f 23//18 27//18 31//18
f 31//18 7//18 23//18
