# Blender v2.83.0 OBJ File: ''
# www.blender.org
o Cylinder.038_Cylinder.1467
v -1.384792 0.735556 2.144639
v -1.702802 1.165843 0.217537
v -1.357453 0.534318 2.095195
v -1.675462 0.964605 0.168093
v -1.253921 0.361488 2.039520
v -1.571930 0.791775 0.112418
v -1.089957 0.243377 1.986091
v -1.407966 0.673665 0.058989
v -0.890524 0.197968 1.943042
v -1.208533 0.628255 0.015939
v -0.685983 0.232172 1.916926
v -1.003992 0.662460 -0.010177
v -0.507474 0.340784 1.911719
v -0.825483 0.771071 -0.015383
v -0.382174 0.507267 1.928215
v -0.700183 0.937554 0.001113
v -0.329157 0.706276 1.963902
v -0.647167 1.136563 0.036799
v -0.356497 0.907514 2.013346
v -0.674506 1.337801 0.086243
v -0.460029 1.080344 2.069021
v -0.778038 1.510632 0.141918
v -0.623993 1.198455 2.122450
v -0.942002 1.628742 0.195347
v -0.823426 1.243864 2.165499
v -1.141436 1.674152 0.238397
v -1.027967 1.209660 2.191615
v -1.345976 1.639947 0.264513
v -1.206476 1.101048 2.196822
v -1.524485 1.531336 0.269719
v -1.331776 0.934565 2.180326
v -1.649786 1.364852 0.253223
vn -0.9786 -0.1636 0.1249
vn -0.8540 -0.5196 0.0249
vn -0.5995 -0.7965 -0.0789
vn -0.2536 -0.9521 -0.1707
vn 0.1308 -0.9628 -0.2366
vn 0.4953 -0.8269 -0.2664
vn 0.7844 -0.5651 -0.2556
vn 0.9541 -0.2173 -0.2060
vn 0.9786 0.1636 -0.1249
vn 0.8540 0.5196 -0.0249
vn 0.5995 0.7965 0.0789
vn 0.2536 0.9521 0.1707
vn -0.1308 0.9628 0.2366
vn -0.4953 0.8269 0.2664
vn -0.1590 0.2151 -0.9636
vn -0.7844 0.5651 0.2556
vn -0.9541 0.2173 0.2060
vn 0.1590 -0.2151 0.9636
s off
f 2//1 3//1 1//1
f 4//2 5//2 3//2
f 6//3 7//3 5//3
f 8//4 9//4 7//4
f 10//5 11//5 9//5
f 12//6 13//6 11//6
f 14//7 15//7 13//7
f 16//8 17//8 15//8
f 18//9 19//9 17//9
f 20//10 21//10 19//10
f 22//11 23//11 21//11
f 24//12 25//12 23//12
f 26//13 27//13 25//13
f 28//14 29//14 27//14
f 6//15 30//15 22//15
f 30//16 31//16 29//16
f 32//17 1//17 31//17
f 7//18 15//18 23//18
f 2//1 4//1 3//1
f 4//2 6//2 5//2
f 6//3 8//3 7//3
f 8//4 10//4 9//4
f 10//5 12//5 11//5
f 12//6 14//6 13//6
f 14//7 16//7 15//7
f 16//8 18//8 17//8
f 18//9 20//9 19//9
f 20//10 22//10 21//10
f 22//11 24//11 23//11
f 24//12 26//12 25//12
f 26//13 28//13 27//13
f 28//14 30//14 29//14
f 6//15 4//15 2//15
f 2//15 32//15 30//15
f 30//15 28//15 26//15
f 26//15 24//15 30//15
f 24//15 22//15 30//15
f 22//15 20//15 18//15
f 18//15 16//15 14//15
f 14//15 12//15 10//15
f 10//15 8//15 6//15
f 6//15 2//15 30//15
f 22//15 18//15 6//15
f 18//15 14//15 6//15
f 14//15 10//15 6//15
f 30//16 32//16 31//16
f 32//17 2//17 1//17
f 31//18 1//18 3//18
f 3//18 5//18 7//18
f 7//18 9//18 11//18
f 11//18 13//18 15//18
f 15//18 17//18 19//18
f 19//18 21//18 23//18
f 23//18 25//18 31//18
f 25//18 27//18 31//18
f 27//18 29//18 31//18
f 31//18 3//18 7//18
f 7//18 11//18 15//18
f 15//18 19//18 23//18
f 31//18 7//18 23//18
