# Blender v2.83.0 OBJ File: ''
# www.blender.org
o Cylinder.105_Cylinder.1534
v -1.309504 0.387699 1.555909
v -0.263107 1.927578 0.825274
v -1.129285 0.232572 1.487068
v -0.082889 1.772450 0.756433
v -0.920815 0.100664 1.507627
v 0.125581 1.640543 0.776992
v -0.715830 0.012058 1.614456
v 0.330566 1.551937 0.883820
v -0.545538 -0.019757 1.791291
v 0.500858 1.520122 1.060655
v -0.435864 0.010062 2.011210
v 0.610532 1.549941 1.280574
v -0.403505 0.096977 2.240733
v 0.642892 1.636855 1.510098
v -0.453387 0.227754 2.444918
v 0.593009 1.767633 1.714282
v -0.577916 0.382484 2.592678
v 0.468480 1.922363 1.862042
v -0.758134 0.537611 2.661519
v 0.288262 2.077490 1.930883
v -0.966605 0.669519 2.640960
v 0.079791 2.209398 1.910325
v -1.171590 0.758125 2.534132
v -0.125193 2.298004 1.803496
v -1.341882 0.789940 2.357297
v -0.295486 2.329819 1.626661
v -1.451556 0.760121 2.137377
v -0.405160 2.299999 1.406742
v -1.483915 0.673206 1.907854
v -0.437519 2.213085 1.177218
v -1.434033 0.542429 1.703669
v -0.387637 2.082308 0.973034
vn -0.4430 -0.1205 -0.8884
vn -0.1307 -0.3511 -0.9272
vn 0.2015 -0.5283 -0.8248
vn 0.5030 -0.6250 -0.5969
vn 0.7280 -0.6266 -0.2781
vn 0.8421 -0.5328 0.0830
vn 0.8280 -0.3579 0.4315
vn 0.6879 -0.1285 0.7143
vn 0.4430 0.1205 0.8884
vn 0.1307 0.3511 0.9272
vn -0.2015 0.5283 0.8248
vn -0.5030 0.6250 0.5969
vn -0.7280 0.6266 0.2781
vn -0.8421 0.5328 -0.0830
vn 0.5232 0.7699 -0.3653
vn -0.8280 0.3579 -0.4315
vn -0.6879 0.1285 -0.7143
vn -0.5232 -0.7699 0.3653
s off
f 2//1 3//1 1//1
f 4//2 5//2 3//2
f 6//3 7//3 5//3
f 8//4 9//4 7//4
f 10//5 11//5 9//5
f 12//6 13//6 11//6
f 14//7 15//7 13//7
f 16//8 17//8 15//8
f 18//9 19//9 17//9
f 20//10 21//10 19//10
f 22//11 23//11 21//11
f 24//12 25//12 23//12
f 26//13 27//13 25//13
f 28//14 29//14 27//14
f 10//15 6//15 22//15
f 30//16 31//16 29//16
f 32//17 1//17 31//17
f 15//18 23//18 31//18
f 2//1 4//1 3//1
f 4//2 6//2 5//2
f 6//3 8//3 7//3
f 8//4 10//4 9//4
f 10//5 12//5 11//5
f 12//6 14//6 13//6
f 14//7 16//7 15//7
f 16//8 18//8 17//8
f 18//9 20//9 19//9
f 20//10 22//10 21//10
f 22//11 24//11 23//11
f 24//12 26//12 25//12
f 26//13 28//13 27//13
f 28//14 30//14 29//14
f 6//15 4//15 2//15
f 2//15 32//15 30//15
f 30//15 28//15 26//15
f 26//15 24//15 30//15
f 24//15 22//15 30//15
f 22//15 20//15 14//15
f 20//15 18//15 14//15
f 18//15 16//15 14//15
f 14//15 12//15 10//15
f 10//15 8//15 6//15
f 6//15 2//15 22//15
f 2//15 30//15 22//15
f 14//15 10//15 22//15
f 30//16 32//16 31//16
f 32//17 2//17 1//17
f 31//18 1//18 7//18
f 1//18 3//18 7//18
f 3//18 5//18 7//18
f 7//18 9//18 11//18
f 11//18 13//18 7//18
f 13//18 15//18 7//18
f 15//18 17//18 19//18
f 19//18 21//18 15//18
f 21//18 23//18 15//18
f 23//18 25//18 31//18
f 25//18 27//18 31//18
f 27//18 29//18 31//18
f 31//18 7//18 15//18
