# Blender v2.83.0 OBJ File: ''
# www.blender.org
o Cylinder.322_Cylinder.1751
v 0.049495 1.598999 0.375174
v -1.221462 2.102189 -1.084781
v -0.516577 1.511527 0.837817
v -1.787533 2.014717 -0.622138
v -1.059667 1.160072 1.189468
v -2.330624 1.663262 -0.270487
v -1.497095 0.598140 1.376594
v -2.768052 1.101330 -0.083361
v -1.762267 -0.088719 1.370704
v -3.033224 0.414471 -0.089251
v -1.814813 -0.795938 1.172696
v -3.085770 -0.292748 -0.287259
v -1.646733 -1.415848 0.812716
v -2.917690 -0.912658 -0.647239
v -1.283615 -1.854075 0.345566
v -2.554572 -1.350885 -1.114389
v -0.780742 -2.043903 -0.157635
v -2.051699 -1.540712 -1.617589
v -0.214670 -1.956430 -0.620277
v -1.485627 -1.453240 -2.080232
v 0.328420 -1.604975 -0.971929
v -0.942537 -1.101785 -2.431884
v 0.765849 -1.043044 -1.159054
v -0.505108 -0.539854 -2.619009
v 1.031021 -0.356184 -1.153165
v -0.239936 0.147006 -2.613120
v 1.083567 0.351035 -0.955157
v -0.187390 0.854225 -2.415112
v 0.915486 0.970946 -0.595176
v -0.355471 1.474136 -2.055131
v 0.552368 1.409173 -0.128025
v -0.718589 1.912363 -1.587980
vn 0.0714 0.9605 0.2689
vn -0.2283 0.8419 0.4889
vn -0.4932 0.5952 0.6345
vn -0.6830 0.2578 0.6834
vn -0.7688 -0.1188 0.6283
vn -0.7376 -0.4773 0.4776
vn -0.5941 -0.7632 0.2541
vn -0.3601 -0.9329 -0.0080
vn -0.0714 -0.9605 -0.2689
vn 0.2283 -0.8419 -0.4889
vn 0.4932 -0.5952 -0.6345
vn 0.6830 -0.2578 -0.6834
vn 0.7688 0.1188 -0.6283
vn 0.7376 0.4773 -0.4776
vn -0.6355 0.2516 -0.7300
vn 0.5941 0.7632 -0.2541
vn 0.3601 0.9329 0.0080
vn 0.6355 -0.2516 0.7300
s off
f 2//1 3//1 1//1
f 4//2 5//2 3//2
f 6//3 7//3 5//3
f 8//4 9//4 7//4
f 10//5 11//5 9//5
f 12//6 13//6 11//6
f 14//7 15//7 13//7
f 16//8 17//8 15//8
f 18//9 19//9 17//9
f 20//10 21//10 19//10
f 22//11 23//11 21//11
f 24//12 25//12 23//12
f 26//13 27//13 25//13
f 28//14 29//14 27//14
f 6//15 30//15 22//15
f 30//16 31//16 29//16
f 32//17 1//17 31//17
f 7//18 15//18 23//18
f 2//1 4//1 3//1
f 4//2 6//2 5//2
f 6//3 8//3 7//3
f 8//4 10//4 9//4
f 10//5 12//5 11//5
f 12//6 14//6 13//6
f 14//7 16//7 15//7
f 16//8 18//8 17//8
f 18//9 20//9 19//9
f 20//10 22//10 21//10
f 22//11 24//11 23//11
f 24//12 26//12 25//12
f 26//13 28//13 27//13
f 28//14 30//14 29//14
f 6//15 4//15 2//15
f 2//15 32//15 30//15
f 30//15 28//15 26//15
f 26//15 24//15 22//15
f 22//15 20//15 18//15
f 18//15 16//15 14//15
f 14//15 12//15 10//15
f 10//15 8//15 6//15
f 6//15 2//15 30//15
f 30//15 26//15 22//15
f 22//15 18//15 6//15
f 18//15 14//15 6//15
f 14//15 10//15 6//15
f 30//16 32//16 31//16
f 32//17 2//17 1//17
f 31//18 1//18 3//18
f 3//18 5//18 7//18
f 7//18 9//18 11//18
f 11//18 13//18 7//18
f 13//18 15//18 7//18
f 15//18 17//18 19//18
f 19//18 21//18 15//18
f 21//18 23//18 15//18
f 23//18 25//18 27//18
f 27//18 29//18 31//18
f 31//18 3//18 7//18
f 23//18 27//18 31//18
f 31//18 7//18 23//18
