# Blender v2.83.0 OBJ File: ''
# www.blender.org
o Cylinder.039_Cylinder.1468
v 3.414362 -0.083149 -3.068185
v 3.726202 1.053162 -1.452156
v 3.397326 -0.625654 -2.683436
v 3.709166 0.510657 -1.067406
v 3.130182 -1.098638 -2.299308
v 3.442022 0.037673 -0.683278
v 2.653602 -1.430093 -1.974281
v 2.965442 -0.293782 -0.358251
v 2.040140 -1.569559 -1.757837
v 2.351980 -0.433248 -0.141808
v 1.383190 -1.495803 -1.682930
v 1.695030 -0.359492 -0.066900
v 0.782768 -1.220054 -1.760961
v 1.094608 -0.083743 -0.144931
v 0.330281 -0.784292 -1.980052
v 0.642121 0.352019 -0.364022
v 0.094617 -0.254858 -2.306848
v 0.406456 0.881453 -0.690818
v 0.111653 0.287646 -2.691597
v 0.423493 1.423957 -1.075568
v 0.378796 0.760630 -3.075726
v 0.690636 1.896941 -1.459696
v 0.855377 1.092086 -3.400753
v 1.167216 2.228397 -1.784723
v 1.468839 1.231552 -3.617196
v 1.780679 2.367863 -2.001166
v 2.125789 1.157796 -3.692104
v 2.437629 2.294107 -2.076074
v 2.726212 0.882047 -3.614072
v 3.038051 2.018358 -1.998043
v 3.178699 0.446285 -3.394981
v 3.490538 1.582596 -1.778951
vn 0.9874 -0.1109 -0.1126
vn 0.9025 -0.4145 0.1173
vn 0.6801 -0.6550 0.3293
vn 0.3542 -0.7958 0.4912
vn -0.0256 -0.8154 0.5783
vn -0.4015 -0.7109 0.5774
vn -0.7163 -0.4982 0.4885
vn -0.9221 -0.2096 0.3253
vn -0.9874 0.1109 0.1126
vn -0.9025 0.4145 -0.1173
vn -0.6801 0.6550 -0.3293
vn -0.3542 0.7958 -0.4912
vn 0.0256 0.8154 -0.5783
vn 0.4015 0.7109 -0.5774
vn 0.1559 0.5682 0.8080
vn 0.7163 0.4982 -0.4885
vn 0.9221 0.2096 -0.3253
vn -0.1559 -0.5682 -0.8080
s off
f 2//1 3//1 1//1
f 4//2 5//2 3//2
f 6//3 7//3 5//3
f 8//4 9//4 7//4
f 10//5 11//5 9//5
f 12//6 13//6 11//6
f 14//7 15//7 13//7
f 16//8 17//8 15//8
f 18//9 19//9 17//9
f 20//10 21//10 19//10
f 22//11 23//11 21//11
f 24//12 25//12 23//12
f 26//13 27//13 25//13
f 28//14 29//14 27//14
f 18//15 14//15 6//15
f 30//16 31//16 29//16
f 32//17 1//17 31//17
f 7//18 15//18 23//18
f 2//1 4//1 3//1
f 4//2 6//2 5//2
f 6//3 8//3 7//3
f 8//4 10//4 9//4
f 10//5 12//5 11//5
f 12//6 14//6 13//6
f 14//7 16//7 15//7
f 16//8 18//8 17//8
f 18//9 20//9 19//9
f 20//10 22//10 21//10
f 22//11 24//11 23//11
f 24//12 26//12 25//12
f 26//13 28//13 27//13
f 28//14 30//14 29//14
f 6//15 4//15 30//15
f 4//15 2//15 30//15
f 2//15 32//15 30//15
f 30//15 28//15 26//15
f 26//15 24//15 22//15
f 22//15 20//15 18//15
f 18//15 16//15 14//15
f 14//15 12//15 6//15
f 12//15 10//15 6//15
f 10//15 8//15 6//15
f 30//15 26//15 6//15
f 26//15 22//15 6//15
f 22//15 18//15 6//15
f 30//16 32//16 31//16
f 32//17 2//17 1//17
f 31//18 1//18 7//18
f 1//18 3//18 7//18
f 3//18 5//18 7//18
f 7//18 9//18 11//18
f 11//18 13//18 15//18
f 15//18 17//18 19//18
f 19//18 21//18 23//18
f 23//18 25//18 27//18
f 27//18 29//18 31//18
f 7//18 11//18 15//18
f 15//18 19//18 23//18
f 23//18 27//18 31//18
f 31//18 7//18 23//18
