# Blender v2.83.0 OBJ File: ''
# www.blender.org
o Cylinder.237_Cylinder.1666
v 0.576858 0.722388 -2.899233
v 0.977863 0.560024 -0.946585
v 0.560612 0.014287 -2.954776
v 0.961618 -0.148077 -1.002128
v 0.279315 -0.638105 -2.951254
v 0.680321 -0.800469 -0.998606
v -0.224208 -1.135468 -2.889204
v 0.176797 -1.297832 -0.936556
v -0.873302 -1.402082 -2.778072
v -0.472297 -1.564446 -0.825424
v -1.569148 -1.397358 -2.634777
v -1.168142 -1.559721 -0.682129
v -2.205808 -1.122015 -2.481134
v -1.804802 -1.284378 -0.528487
v -2.686357 -0.617971 -2.340535
v -2.285352 -0.780335 -0.387887
v -2.937637 0.038037 -2.234383
v -2.536632 -0.124327 -0.281736
v -2.921392 0.746138 -2.178841
v -2.520387 0.583774 -0.226193
v -2.640095 1.398530 -2.182362
v -2.239090 1.236166 -0.229715
v -2.136571 1.895893 -2.244412
v -1.735566 1.733529 -0.291765
v -1.487477 2.162507 -2.355545
v -1.086472 2.000143 -0.402897
v -0.791631 2.157783 -2.498839
v -0.390626 1.995419 -0.546192
v -0.154971 1.882439 -2.652482
v 0.246034 1.720076 -0.699835
v 0.325579 1.378395 -2.793082
v 0.726584 1.216032 -0.840434
vn 0.9794 -0.0066 -0.2017
vn 0.8961 -0.3876 -0.2163
vn 0.6764 -0.7095 -0.1979
vn 0.3537 -0.9234 -0.1494
vn -0.0229 -0.9967 -0.0782
vn -0.3959 -0.9183 0.0050
vn -0.7087 -0.7001 0.0873
vn -0.9136 -0.3753 0.1564
vn -0.9794 0.0066 0.2017
vn -0.8961 0.3876 0.2163
vn -0.6764 0.7095 0.1979
vn -0.3537 0.9234 0.1494
vn 0.0229 0.9967 0.0782
vn 0.3959 0.9183 -0.0050
vn 0.2005 -0.0812 0.9763
vn 0.7087 0.7001 -0.0873
vn 0.9136 0.3753 -0.1564
vn -0.2005 0.0812 -0.9763
s off
f 2//1 3//1 1//1
f 4//2 5//2 3//2
f 6//3 7//3 5//3
f 8//4 9//4 7//4
f 10//5 11//5 9//5
f 12//6 13//6 11//6
f 14//7 15//7 13//7
f 16//8 17//8 15//8
f 18//9 19//9 17//9
f 20//10 21//10 19//10
f 22//11 23//11 21//11
f 24//12 25//12 23//12
f 26//13 27//13 25//13
f 28//14 29//14 27//14
f 30//15 22//15 14//15
f 30//16 31//16 29//16
f 32//17 1//17 31//17
f 31//18 7//18 15//18
f 2//1 4//1 3//1
f 4//2 6//2 5//2
f 6//3 8//3 7//3
f 8//4 10//4 9//4
f 10//5 12//5 11//5
f 12//6 14//6 13//6
f 14//7 16//7 15//7
f 16//8 18//8 17//8
f 18//9 20//9 19//9
f 20//10 22//10 21//10
f 22//11 24//11 23//11
f 24//12 26//12 25//12
f 26//13 28//13 27//13
f 28//14 30//14 29//14
f 6//15 4//15 2//15
f 2//15 32//15 30//15
f 30//15 28//15 26//15
f 26//15 24//15 22//15
f 22//15 20//15 18//15
f 18//15 16//15 14//15
f 14//15 12//15 10//15
f 10//15 8//15 6//15
f 6//15 2//15 30//15
f 30//15 26//15 22//15
f 22//15 18//15 14//15
f 14//15 10//15 6//15
f 6//15 30//15 14//15
f 30//16 32//16 31//16
f 32//17 2//17 1//17
f 31//18 1//18 3//18
f 3//18 5//18 7//18
f 7//18 9//18 11//18
f 11//18 13//18 15//18
f 15//18 17//18 23//18
f 17//18 19//18 23//18
f 19//18 21//18 23//18
f 23//18 25//18 27//18
f 27//18 29//18 31//18
f 31//18 3//18 7//18
f 7//18 11//18 15//18
f 23//18 27//18 15//18
f 27//18 31//18 15//18
