# Blender v2.83.0 OBJ File: ''
# www.blender.org
o Cylinder.014_Cylinder.1443
v -1.654166 -0.146866 -1.229633
v -0.858056 0.408563 -2.978263
v -1.590851 -0.400916 -1.281502
v -0.794740 0.154513 -3.030132
v -1.441841 -0.622344 -1.283995
v -0.645730 -0.066915 -3.032625
v -1.229822 -0.777440 -1.236732
v -0.433712 -0.222010 -2.985362
v -0.987072 -0.842592 -1.146909
v -0.190962 -0.287162 -2.895538
v -0.750548 -0.807881 -1.028199
v 0.045563 -0.252451 -2.776829
v -0.556258 -0.678592 -0.898676
v 0.239853 -0.123162 -2.647306
v -0.433781 -0.474407 -0.778059
v 0.362330 0.081022 -2.526689
v -0.401763 -0.226413 -0.684710
v 0.394348 0.329017 -2.433340
v -0.465078 0.027637 -0.632840
v 0.331032 0.583066 -2.381470
v -0.614088 0.249065 -0.630347
v 0.182022 0.804494 -2.378977
v -0.826107 0.404161 -0.677610
v -0.029997 0.959590 -2.426240
v -1.068857 0.469313 -0.767434
v -0.272746 1.024742 -2.516064
v -1.305381 0.434602 -0.886144
v -0.509271 0.990031 -2.634773
v -1.499671 0.305312 -1.015666
v -0.703561 0.860742 -2.764296
v -1.622148 0.101128 -1.136284
v -0.826038 0.656557 -2.884914
vn -0.8862 -0.1300 -0.4448
vn -0.7279 -0.4844 -0.4853
vn -0.4589 -0.7650 -0.4519
vn -0.1200 -0.9291 -0.3497
vn 0.2372 -0.9518 -0.1943
vn 0.5583 -0.8296 -0.0093
vn 0.7943 -0.5811 0.1771
vn 0.9095 -0.2441 0.3365
vn 0.8862 0.1300 0.4448
vn 0.7279 0.4844 0.4853
vn 0.4589 0.7650 0.4519
vn 0.1200 0.9291 0.3497
vn -0.2372 0.9518 0.1943
vn -0.5583 0.8296 0.0093
vn 0.3981 0.2777 -0.8743
vn -0.7943 0.5811 -0.1771
vn -0.9095 0.2441 -0.3365
vn -0.3981 -0.2777 0.8743
s off
f 2//1 3//1 1//1
f 4//2 5//2 3//2
f 6//3 7//3 5//3
f 8//4 9//4 7//4
f 10//5 11//5 9//5
f 12//6 13//6 11//6
f 14//7 15//7 13//7
f 16//8 17//8 15//8
f 18//9 19//9 17//9
f 20//10 21//10 19//10
f 22//11 23//11 21//11
f 24//12 25//12 23//12
f 26//13 27//13 25//13
f 28//14 29//14 27//14
f 30//15 22//15 14//15
f 30//16 31//16 29//16
f 32//17 1//17 31//17
f 27//18 31//18 15//18
f 2//1 4//1 3//1
f 4//2 6//2 5//2
f 6//3 8//3 7//3
f 8//4 10//4 9//4
f 10//5 12//5 11//5
f 12//6 14//6 13//6
f 14//7 16//7 15//7
f 16//8 18//8 17//8
f 18//9 20//9 19//9
f 20//10 22//10 21//10
f 22//11 24//11 23//11
f 24//12 26//12 25//12
f 26//13 28//13 27//13
f 28//14 30//14 29//14
f 6//15 4//15 2//15
f 2//15 32//15 30//15
f 30//15 28//15 26//15
f 26//15 24//15 22//15
f 22//15 20//15 18//15
f 18//15 16//15 22//15
f 16//15 14//15 22//15
f 14//15 12//15 6//15
f 12//15 10//15 6//15
f 10//15 8//15 6//15
f 6//15 2//15 30//15
f 30//15 26//15 22//15
f 6//15 30//15 14//15
f 30//16 32//16 31//16
f 32//17 2//17 1//17
f 31//18 1//18 7//18
f 1//18 3//18 7//18
f 3//18 5//18 7//18
f 7//18 9//18 11//18
f 11//18 13//18 15//18
f 15//18 17//18 19//18
f 19//18 21//18 23//18
f 23//18 25//18 27//18
f 27//18 29//18 31//18
f 7//18 11//18 31//18
f 11//18 15//18 31//18
f 15//18 19//18 23//18
f 23//18 27//18 15//18
