# Blender v2.83.0 OBJ File: ''
# www.blender.org
o Cylinder.111_Cylinder.1540
v -0.950178 -0.590096 1.111028
v 0.523257 -0.776154 -0.228513
v -0.899557 -0.050265 1.091728
v 0.573879 -0.236323 -0.247813
v -0.991839 0.456006 0.919902
v 0.481596 0.269948 -0.419639
v -1.212978 0.851645 0.621707
v 0.260458 0.665586 -0.717834
v -1.529304 1.076417 0.242541
v -0.055869 0.890359 -1.097000
v -1.892662 1.096103 -0.159870
v -0.419227 0.910045 -1.499411
v -2.247733 0.907707 -0.524265
v -0.774298 0.721649 -1.863806
v -2.540461 0.539910 -0.795166
v -1.067025 0.353852 -2.134707
v -2.726280 0.048706 -0.931332
v -1.252844 -0.137352 -2.270873
v -2.776901 -0.491124 -0.912033
v -1.303466 -0.677182 -2.251574
v -2.684618 -0.997396 -0.740206
v -1.211183 -1.183454 -2.079748
v -2.463480 -1.393034 -0.442012
v -0.990045 -1.579092 -1.781553
v -2.147153 -1.617806 -0.062846
v -0.673718 -1.803864 -1.402387
v -1.783796 -1.637493 0.339566
v -0.310360 -1.823551 -0.999975
v -1.428725 -1.449097 0.703961
v 0.044711 -1.635155 -0.635581
v -1.135997 -1.081299 0.974862
v 0.337438 -1.267357 -0.364679
vn 0.6697 -0.0363 0.7417
vn 0.6545 0.3472 0.6716
vn 0.5395 0.6779 0.4993
vn 0.3425 0.9054 0.2510
vn 0.0933 0.9950 -0.0356
vn -0.1701 0.9331 -0.3167
vn -0.4076 0.7292 -0.5496
vn -0.5830 0.4143 -0.6989
vn -0.6697 0.0363 -0.7417
vn -0.6545 -0.3472 -0.6716
vn -0.5395 -0.6779 -0.4993
vn -0.3425 -0.9054 -0.2510
vn -0.0933 -0.9950 0.0356
vn 0.1701 -0.9331 0.3167
vn 0.7367 -0.0930 -0.6698
vn 0.4076 -0.7292 0.5496
vn 0.5830 -0.4143 0.6989
vn -0.7367 0.0930 0.6698
s off
f 2//1 3//1 1//1
f 4//2 5//2 3//2
f 6//3 7//3 5//3
f 8//4 9//4 7//4
f 10//5 11//5 9//5
f 12//6 13//6 11//6
f 14//7 15//7 13//7
f 16//8 17//8 15//8
f 18//9 19//9 17//9
f 20//10 21//10 19//10
f 22//11 23//11 21//11
f 24//12 25//12 23//12
f 26//13 27//13 25//13
f 28//14 29//14 27//14
f 22//15 14//15 6//15
f 30//16 31//16 29//16
f 32//17 1//17 31//17
f 15//18 23//18 31//18
f 2//1 4//1 3//1
f 4//2 6//2 5//2
f 6//3 8//3 7//3
f 8//4 10//4 9//4
f 10//5 12//5 11//5
f 12//6 14//6 13//6
f 14//7 16//7 15//7
f 16//8 18//8 17//8
f 18//9 20//9 19//9
f 20//10 22//10 21//10
f 22//11 24//11 23//11
f 24//12 26//12 25//12
f 26//13 28//13 27//13
f 28//14 30//14 29//14
f 6//15 4//15 2//15
f 2//15 32//15 30//15
f 30//15 28//15 26//15
f 26//15 24//15 22//15
f 22//15 20//15 18//15
f 18//15 16//15 14//15
f 14//15 12//15 10//15
f 10//15 8//15 14//15
f 8//15 6//15 14//15
f 6//15 2//15 30//15
f 30//15 26//15 22//15
f 22//15 18//15 14//15
f 6//15 30//15 22//15
f 30//16 32//16 31//16
f 32//17 2//17 1//17
f 31//18 1//18 3//18
f 3//18 5//18 31//18
f 5//18 7//18 31//18
f 7//18 9//18 11//18
f 11//18 13//18 15//18
f 15//18 17//18 23//18
f 17//18 19//18 23//18
f 19//18 21//18 23//18
f 23//18 25//18 27//18
f 27//18 29//18 31//18
f 7//18 11//18 31//18
f 11//18 15//18 31//18
f 23//18 27//18 31//18
