# Blender v2.83.0 OBJ File: ''
# www.blender.org
o Cylinder.081_Cylinder.1510
v 2.130358 1.726931 -0.429067
v 3.035988 0.778396 1.080938
v 2.293648 1.497851 -0.670901
v 3.199278 0.549317 0.839104
v 2.334429 1.197125 -0.884266
v 3.240060 0.248590 0.625739
v 2.246494 0.870534 -1.036680
v 3.152125 -0.078001 0.473325
v 2.043229 0.567799 -1.104940
v 2.948860 -0.380736 0.405065
v 1.755580 0.335009 -1.078652
v 2.661211 -0.613526 0.431353
v 1.427339 0.207604 -0.961820
v 2.332969 -0.740931 0.548185
v 1.108477 0.204979 -0.772230
v 2.014108 -0.743555 0.737775
v 0.847538 0.327536 -0.538745
v 1.753169 -0.620999 0.971260
v 0.684248 0.556615 -0.296912
v 1.589879 -0.391920 1.213093
v 0.643466 0.857341 -0.083546
v 1.549097 -0.091194 1.426459
v 0.731401 1.183932 0.068868
v 1.637032 0.235397 1.578873
v 0.934666 1.486667 0.137127
v 1.840297 0.538133 1.647132
v 1.222316 1.719458 0.110840
v 2.127946 0.770923 1.620845
v 1.550557 1.846863 -0.005992
v 2.456188 0.898328 1.504013
v 1.869419 1.849487 -0.195583
v 2.775050 0.900952 1.314422
vn 0.7754 0.6275 -0.0709
vn 0.8848 0.3434 -0.3149
vn 0.8595 0.0071 -0.5111
vn 0.7034 -0.3304 -0.6294
vn 0.4402 -0.6175 -0.6519
vn 0.1099 -0.8106 -0.5751
vn -0.2370 -0.8804 -0.4108
vn -0.5479 -0.8160 -0.1840
vn -0.7754 -0.6275 0.0709
vn -0.8848 -0.3434 0.3149
vn -0.8595 -0.0071 0.5111
vn -0.7034 0.3304 0.6294
vn -0.4402 0.6175 0.6519
vn -0.1099 0.8106 0.5751
vn 0.4528 -0.4743 0.7550
vn 0.2370 0.8804 0.4108
vn 0.5479 0.8160 0.1840
vn -0.4528 0.4743 -0.7550
s off
f 2//1 3//1 1//1
f 4//2 5//2 3//2
f 6//3 7//3 5//3
f 8//4 9//4 7//4
f 10//5 11//5 9//5
f 12//6 13//6 11//6
f 14//7 15//7 13//7
f 16//8 17//8 15//8
f 18//9 19//9 17//9
f 20//10 21//10 19//10
f 22//11 23//11 21//11
f 24//12 25//12 23//12
f 26//13 27//13 25//13
f 28//14 29//14 27//14
f 22//15 14//15 6//15
f 30//16 31//16 29//16
f 32//17 1//17 31//17
f 31//18 7//18 15//18
f 2//1 4//1 3//1
f 4//2 6//2 5//2
f 6//3 8//3 7//3
f 8//4 10//4 9//4
f 10//5 12//5 11//5
f 12//6 14//6 13//6
f 14//7 16//7 15//7
f 16//8 18//8 17//8
f 18//9 20//9 19//9
f 20//10 22//10 21//10
f 22//11 24//11 23//11
f 24//12 26//12 25//12
f 26//13 28//13 27//13
f 28//14 30//14 29//14
f 6//15 4//15 30//15
f 4//15 2//15 30//15
f 2//15 32//15 30//15
f 30//15 28//15 26//15
f 26//15 24//15 22//15
f 22//15 20//15 18//15
f 18//15 16//15 14//15
f 14//15 12//15 10//15
f 10//15 8//15 6//15
f 30//15 26//15 6//15
f 26//15 22//15 6//15
f 22//15 18//15 14//15
f 14//15 10//15 6//15
f 30//16 32//16 31//16
f 32//17 2//17 1//17
f 31//18 1//18 7//18
f 1//18 3//18 7//18
f 3//18 5//18 7//18
f 7//18 9//18 11//18
f 11//18 13//18 15//18
f 15//18 17//18 19//18
f 19//18 21//18 23//18
f 23//18 25//18 27//18
f 27//18 29//18 31//18
f 7//18 11//18 15//18
f 15//18 19//18 23//18
f 23//18 27//18 15//18
f 27//18 31//18 15//18
