# Blender v2.83.0 OBJ File: ''
# www.blender.org
o Cylinder.329_Cylinder.1758
v -0.052895 -1.099992 0.600021
v 0.032947 -0.181672 -1.174611
v -0.318341 -1.689587 0.282083
v -0.232499 -0.771268 -1.492550
v -0.307512 -2.329659 -0.048612
v -0.221670 -1.411340 -1.823244
v -0.022056 -2.922764 -0.341717
v 0.063786 -2.004444 -2.116350
v 0.494568 -3.378605 -0.552612
v 0.580411 -2.460286 -2.327244
v 1.163710 -3.627787 -0.649188
v 1.249553 -2.709467 -2.423820
v 1.883498 -3.632371 -0.616743
v 1.969341 -2.714052 -2.391375
v 2.544352 -3.391662 -0.460216
v 2.630194 -2.473343 -2.234848
v 3.045662 -2.942305 -0.203438
v 3.131504 -2.023985 -1.978070
v 3.311108 -2.352710 0.114500
v 3.396950 -1.434390 -1.660132
v 3.300279 -1.712638 0.445195
v 3.386121 -0.794318 -1.329437
v 3.014823 -1.119533 0.738301
v 3.100666 -0.201213 -1.036332
v 2.498198 -0.663691 0.949195
v 2.584041 0.254628 -0.825437
v 1.829056 -0.414510 1.045771
v 1.914899 0.503809 -0.728861
v 1.109267 -0.409925 1.013326
v 1.195110 0.508394 -0.761306
v 0.448414 -0.650635 0.856799
v 0.534256 0.267685 -0.917833
vn -0.9287 0.3458 0.1340
vn -0.9990 0.0064 -0.0450
vn -0.9172 -0.3341 -0.2172
vn -0.6957 -0.6236 -0.3564
vn -0.3684 -0.8183 -0.4413
vn 0.0150 -0.8883 -0.4590
vn 0.3962 -0.8231 -0.4068
vn 0.7170 -0.6326 -0.2927
vn 0.9287 -0.3458 -0.1340
vn 0.9990 -0.0064 0.0450
vn 0.9172 0.3341 0.2172
vn 0.6957 0.6236 0.3564
vn 0.3684 0.8183 0.4413
vn -0.0150 0.8883 0.4590
vn 0.0429 0.4592 -0.8873
vn -0.3962 0.8231 0.4068
vn -0.7170 0.6326 0.2927
vn -0.0429 -0.4592 0.8873
s off
f 2//1 3//1 1//1
f 4//2 5//2 3//2
f 6//3 7//3 5//3
f 8//4 9//4 7//4
f 10//5 11//5 9//5
f 12//6 13//6 11//6
f 14//7 15//7 13//7
f 16//8 17//8 15//8
f 18//9 19//9 17//9
f 20//10 21//10 19//10
f 22//11 23//11 21//11
f 24//12 25//12 23//12
f 26//13 27//13 25//13
f 28//14 29//14 27//14
f 18//15 14//15 6//15
f 30//16 31//16 29//16
f 32//17 1//17 31//17
f 7//18 15//18 23//18
f 2//1 4//1 3//1
f 4//2 6//2 5//2
f 6//3 8//3 7//3
f 8//4 10//4 9//4
f 10//5 12//5 11//5
f 12//6 14//6 13//6
f 14//7 16//7 15//7
f 16//8 18//8 17//8
f 18//9 20//9 19//9
f 20//10 22//10 21//10
f 22//11 24//11 23//11
f 24//12 26//12 25//12
f 26//13 28//13 27//13
f 28//14 30//14 29//14
f 6//15 4//15 30//15
f 4//15 2//15 30//15
f 2//15 32//15 30//15
f 30//15 28//15 26//15
f 26//15 24//15 22//15
f 22//15 20//15 18//15
f 18//15 16//15 14//15
f 14//15 12//15 10//15
f 10//15 8//15 14//15
f 8//15 6//15 14//15
f 30//15 26//15 6//15
f 26//15 22//15 6//15
f 22//15 18//15 6//15
f 30//16 32//16 31//16
f 32//17 2//17 1//17
f 31//18 1//18 3//18
f 3//18 5//18 7//18
f 7//18 9//18 11//18
f 11//18 13//18 15//18
f 15//18 17//18 19//18
f 19//18 21//18 23//18
f 23//18 25//18 27//18
f 27//18 29//18 31//18
f 31//18 3//18 7//18
f 7//18 11//18 15//18
f 15//18 19//18 23//18
f 23//18 27//18 31//18
f 31//18 7//18 23//18
