# Blender v2.83.0 OBJ File: ''
# www.blender.org
o Cylinder.342_Cylinder.1771
v 2.816215 -1.006415 -1.670974
v 2.125751 -0.708094 0.182203
v 2.479380 -1.444208 -1.725998
v 1.788916 -1.145887 0.127179
v 2.016090 -1.721969 -1.853899
v 1.325626 -1.423648 -0.000722
v 1.496875 -1.797410 -2.035206
v 0.806411 -1.499089 -0.182029
v 1.000782 -1.659047 -2.242316
v 0.310318 -1.360726 -0.389139
v 0.603335 -1.327944 -2.443698
v -0.087129 -1.029623 -0.590521
v 0.365044 -0.854509 -2.608694
v -0.325420 -0.556188 -0.755517
v 0.322184 -0.310818 -2.712185
v -0.368279 -0.012497 -0.859008
v 0.481282 0.220357 -2.738416
v -0.209181 0.518678 -0.885239
v 0.818117 0.658150 -2.683392
v 0.127653 0.956471 -0.830215
v 1.281407 0.935910 -2.555490
v 0.590943 1.234231 -0.702314
v 1.800622 1.011352 -2.374184
v 1.110158 1.309673 -0.521007
v 2.296715 0.872989 -2.167074
v 1.606252 1.171310 -0.313897
v 2.694162 0.541886 -1.965692
v 2.003698 0.840207 -0.112515
v 2.932454 0.068451 -1.800695
v 2.241990 0.366772 0.052482
v 2.975313 -0.475241 -1.697204
v 2.284849 -0.176920 0.155973
vn 0.7160 -0.5965 0.3628
vn 0.4293 -0.8529 0.2972
vn 0.0772 -0.9794 0.1864
vn -0.2866 -0.9569 0.0473
vn -0.6068 -0.7887 -0.0991
vn -0.8346 -0.5004 -0.2304
vn -0.9353 -0.1359 -0.3266
vn -0.8937 0.2493 -0.3731
vn -0.7160 0.5965 -0.3628
vn -0.4293 0.8529 -0.2972
vn -0.0772 0.9794 -0.1864
vn 0.2866 0.9569 -0.0473
vn 0.6068 0.7887 0.0991
vn 0.8346 0.5004 0.2304
vn -0.3452 0.1492 0.9266
vn 0.9353 0.1359 0.3266
vn 0.8937 -0.2493 0.3731
vn 0.3452 -0.1492 -0.9266
s off
f 2//1 3//1 1//1
f 4//2 5//2 3//2
f 6//3 7//3 5//3
f 8//4 9//4 7//4
f 10//5 11//5 9//5
f 12//6 13//6 11//6
f 14//7 15//7 13//7
f 16//8 17//8 15//8
f 18//9 19//9 17//9
f 20//10 21//10 19//10
f 22//11 23//11 21//11
f 24//12 25//12 23//12
f 26//13 27//13 25//13
f 28//14 29//14 27//14
f 22//15 14//15 6//15
f 30//16 31//16 29//16
f 32//17 1//17 31//17
f 7//18 15//18 23//18
f 2//1 4//1 3//1
f 4//2 6//2 5//2
f 6//3 8//3 7//3
f 8//4 10//4 9//4
f 10//5 12//5 11//5
f 12//6 14//6 13//6
f 14//7 16//7 15//7
f 16//8 18//8 17//8
f 18//9 20//9 19//9
f 20//10 22//10 21//10
f 22//11 24//11 23//11
f 24//12 26//12 25//12
f 26//13 28//13 27//13
f 28//14 30//14 29//14
f 6//15 4//15 30//15
f 4//15 2//15 30//15
f 2//15 32//15 30//15
f 30//15 28//15 26//15
f 26//15 24//15 30//15
f 24//15 22//15 30//15
f 22//15 20//15 18//15
f 18//15 16//15 22//15
f 16//15 14//15 22//15
f 14//15 12//15 10//15
f 10//15 8//15 14//15
f 8//15 6//15 14//15
f 6//15 30//15 22//15
f 30//16 32//16 31//16
f 32//17 2//17 1//17
f 31//18 1//18 3//18
f 3//18 5//18 7//18
f 7//18 9//18 15//18
f 9//18 11//18 15//18
f 11//18 13//18 15//18
f 15//18 17//18 19//18
f 19//18 21//18 15//18
f 21//18 23//18 15//18
f 23//18 25//18 31//18
f 25//18 27//18 31//18
f 27//18 29//18 31//18
f 31//18 3//18 7//18
f 31//18 7//18 23//18
