# Blender v2.83.0 OBJ File: ''
# www.blender.org
o Cylinder.132_Cylinder.1561
v -1.945230 -0.241125 0.898333
v -2.243535 -2.045839 0.089618
v -1.924225 -0.531161 1.537825
v -2.222530 -2.335876 0.729110
v -1.639111 -0.832371 2.104830
v -1.937416 -2.637085 1.296115
v -1.133294 -1.098896 2.513027
v -1.431599 -2.903611 1.704312
v -0.483780 -1.290163 2.700272
v -0.782084 -3.094877 1.891557
v 0.210549 -1.377051 2.638058
v -0.087756 -3.181765 1.829343
v 0.843986 -1.346333 2.335857
v 0.545681 -3.151047 1.527142
v 1.320097 -1.202685 1.839676
v 1.021792 -3.007400 1.030961
v 1.566399 -0.967978 1.225055
v 1.268094 -2.772692 0.416340
v 1.545394 -0.677942 0.585564
v 1.247089 -2.482656 -0.223152
v 1.260280 -0.376732 0.018558
v 0.961975 -2.181447 -0.790157
v 0.754463 -0.110206 -0.389639
v 0.456158 -1.914921 -1.198354
v 0.104949 0.081060 -0.576884
v -0.193356 -1.723655 -1.385599
v -0.589380 0.167948 -0.514670
v -0.887685 -1.636766 -1.323385
v -1.222818 0.137230 -0.212469
v -1.521123 -1.667484 -1.021184
v -1.698929 -0.006417 0.283712
v -1.997234 -1.811132 -0.525003
vn -0.9884 0.1237 0.0886
vn -0.9017 -0.0437 0.4302
vn -0.6777 -0.2045 0.7063
vn -0.3506 -0.3341 0.8749
vn 0.0299 -0.4129 0.9103
vn 0.4059 -0.4288 0.8071
vn 0.7200 -0.3794 0.5811
vn 0.9246 -0.2723 0.2665
vn 0.9884 -0.1237 -0.0886
vn 0.9017 0.0437 -0.4302
vn 0.6777 0.2045 -0.7063
vn 0.3506 0.3341 -0.8749
vn -0.0299 0.4129 -0.9103
vn -0.4059 0.4288 -0.8071
vn -0.1492 -0.9024 -0.4044
vn -0.7200 0.3794 -0.5811
vn -0.9246 0.2723 -0.2665
vn 0.1492 0.9024 0.4044
s off
f 2//1 3//1 1//1
f 4//2 5//2 3//2
f 6//3 7//3 5//3
f 8//4 9//4 7//4
f 10//5 11//5 9//5
f 12//6 13//6 11//6
f 14//7 15//7 13//7
f 16//8 17//8 15//8
f 18//9 19//9 17//9
f 20//10 21//10 19//10
f 22//11 23//11 21//11
f 24//12 25//12 23//12
f 26//13 27//13 25//13
f 28//14 29//14 27//14
f 6//15 30//15 22//15
f 30//16 31//16 29//16
f 32//17 1//17 31//17
f 23//18 27//18 31//18
f 2//1 4//1 3//1
f 4//2 6//2 5//2
f 6//3 8//3 7//3
f 8//4 10//4 9//4
f 10//5 12//5 11//5
f 12//6 14//6 13//6
f 14//7 16//7 15//7
f 16//8 18//8 17//8
f 18//9 20//9 19//9
f 20//10 22//10 21//10
f 22//11 24//11 23//11
f 24//12 26//12 25//12
f 26//13 28//13 27//13
f 28//14 30//14 29//14
f 6//15 4//15 2//15
f 2//15 32//15 30//15
f 30//15 28//15 26//15
f 26//15 24//15 22//15
f 22//15 20//15 18//15
f 18//15 16//15 14//15
f 14//15 12//15 6//15
f 12//15 10//15 6//15
f 10//15 8//15 6//15
f 6//15 2//15 30//15
f 30//15 26//15 22//15
f 22//15 18//15 6//15
f 18//15 14//15 6//15
f 30//16 32//16 31//16
f 32//17 2//17 1//17
f 31//18 1//18 3//18
f 3//18 5//18 7//18
f 7//18 9//18 11//18
f 11//18 13//18 15//18
f 15//18 17//18 19//18
f 19//18 21//18 23//18
f 23//18 25//18 27//18
f 27//18 29//18 31//18
f 31//18 3//18 15//18
f 3//18 7//18 15//18
f 7//18 11//18 15//18
f 15//18 19//18 31//18
f 19//18 23//18 31//18
