# Blender v2.83.0 OBJ File: ''
# www.blender.org
o Cylinder.026_Cylinder.1455
v 0.410361 -1.108640 0.110297
v 1.074336 -1.844663 1.847366
v 0.519493 -0.880411 0.165287
v 1.183468 -1.616433 1.902356
v 0.703919 -0.698841 0.171726
v 1.367894 -1.434863 1.908795
v 0.935563 -0.591572 0.128634
v 1.599538 -1.327595 1.865703
v 1.179159 -0.574936 0.042572
v 1.843133 -1.310958 1.779640
v 1.397621 -0.651465 -0.073359
v 2.061595 -1.387487 1.663709
v 1.557690 -0.809508 -0.201509
v 2.221665 -1.545530 1.535559
v 1.634998 -1.025004 -0.322369
v 2.298973 -1.761027 1.414700
v 1.617776 -1.265147 -0.417538
v 2.281750 -2.001169 1.319531
v 1.508644 -1.493376 -0.472528
v 2.172619 -2.229399 1.264541
v 1.324218 -1.674946 -0.478967
v 1.988192 -2.410969 1.258102
v 1.092574 -1.782215 -0.435875
v 1.756548 -2.518238 1.301194
v 0.848978 -1.798851 -0.349812
v 1.512953 -2.534874 1.387256
v 0.630516 -1.722322 -0.233881
v 1.294491 -2.458345 1.503187
v 0.470446 -1.564280 -0.105731
v 1.134421 -2.300302 1.631338
v 0.393138 -1.348783 0.015128
v 1.057113 -2.084805 1.752197
vn -0.8439 0.2956 0.4478
vn -0.6183 0.6105 0.4950
vn -0.2986 0.8324 0.4668
vn 0.0665 0.9276 0.3676
vn 0.4215 0.8816 0.2124
vn 0.7124 0.7014 0.0249
vn 0.8948 0.4143 -0.1665
vn 0.9409 0.0643 -0.3324
vn 0.8439 -0.2956 -0.4478
vn 0.6183 -0.6105 -0.4950
vn 0.2986 -0.8324 -0.4668
vn -0.0665 -0.9276 -0.3676
vn -0.4215 -0.8816 -0.2124
vn -0.7124 -0.7014 -0.0249
vn 0.3320 -0.3680 0.8685
vn -0.8948 -0.4143 0.1665
vn -0.9409 -0.0643 0.3324
vn -0.3320 0.3680 -0.8685
vn 0.7124 0.7013 0.0249
vn -0.7124 -0.7013 -0.0249
s off
f 2//1 3//1 1//1
f 4//2 5//2 3//2
f 5//3 8//3 7//3
f 8//4 9//4 7//4
f 10//5 11//5 9//5
f 12//6 13//6 11//6
f 14//7 15//7 13//7
f 16//8 17//8 15//8
f 18//9 19//9 17//9
f 20//10 21//10 19//10
f 22//11 23//11 21//11
f 24//12 25//12 23//12
f 25//13 28//13 27//13
f 28//14 29//14 27//14
f 22//15 14//15 6//15
f 29//16 32//16 31//16
f 32//17 1//17 31//17
f 19//18 23//18 31//18
f 2//1 4//1 3//1
f 4//2 6//2 5//2
f 5//3 6//3 8//3
f 8//4 10//4 9//4
f 10//5 12//5 11//5
f 12//19 14//19 13//19
f 14//7 16//7 15//7
f 16//8 18//8 17//8
f 18//9 20//9 19//9
f 20//10 22//10 21//10
f 22//11 24//11 23//11
f 24//12 26//12 25//12
f 25//13 26//13 28//13
f 28//20 30//20 29//20
f 6//15 4//15 2//15
f 2//15 32//15 6//15
f 32//15 30//15 6//15
f 30//15 28//15 22//15
f 28//15 26//15 22//15
f 26//15 24//15 22//15
f 22//15 20//15 14//15
f 20//15 18//15 14//15
f 18//15 16//15 14//15
f 14//15 12//15 10//15
f 10//15 8//15 6//15
f 14//15 10//15 6//15
f 6//15 30//15 22//15
f 29//16 30//16 32//16
f 32//17 2//17 1//17
f 31//18 1//18 3//18
f 3//18 5//18 7//18
f 7//18 9//18 11//18
f 11//18 13//18 7//18
f 13//18 15//18 7//18
f 15//18 17//18 19//18
f 19//18 21//18 23//18
f 23//18 25//18 27//18
f 27//18 29//18 23//18
f 29//18 31//18 23//18
f 31//18 3//18 15//18
f 3//18 7//18 15//18
f 15//18 19//18 31//18
