# Blender v2.83.0 OBJ File: ''
# www.blender.org
o Cylinder.272_Cylinder.1701
v -1.101090 -1.982018 1.368682
v 0.509930 -1.177359 0.498544
v -0.944397 -2.030050 1.614374
v 0.666622 -1.225391 0.744236
v -0.829463 -1.972602 1.880294
v 0.781557 -1.167943 1.010156
v -0.773785 -1.818419 2.125960
v 0.837235 -1.013761 1.255822
v -0.785839 -1.590975 2.313971
v 0.825181 -0.786317 1.443832
v -0.863791 -1.324896 2.415703
v 0.747229 -0.520237 1.545565
v -0.995772 -1.060690 2.415669
v 0.615247 -0.256031 1.545531
v -1.161691 -0.838580 2.313875
v 0.449329 -0.033921 1.443736
v -1.336287 -0.692380 2.125816
v 0.274733 0.112279 1.255678
v -1.492980 -0.644348 1.880125
v 0.118040 0.160310 1.009987
v -1.607914 -0.701796 1.614204
v 0.003106 0.102862 0.744066
v -1.663592 -0.855979 1.368538
v -0.052573 -0.051320 0.498400
v -1.651538 -1.083423 1.180528
v -0.040518 -0.278764 0.310390
v -1.573586 -1.349503 1.078796
v 0.037433 -0.544844 0.208657
v -1.441604 -1.613709 1.078830
v 0.169415 -0.809050 0.208691
v -1.275686 -1.835819 1.180624
v 0.335334 -1.031160 0.310486
vn 0.2639 -0.9009 -0.3445
vn 0.4469 -0.8946 0.0001
vn 0.5618 -0.7521 0.3447
vn 0.5912 -0.4950 0.6368
vn 0.5306 -0.1626 0.8319
vn 0.3892 0.1945 0.9004
vn 0.1885 0.5221 0.8318
vn -0.0408 0.7701 0.6366
vn -0.2639 0.9009 0.3445
vn -0.4469 0.8946 -0.0001
vn -0.5618 0.7521 -0.3447
vn -0.5912 0.4950 -0.6368
vn -0.5306 0.1626 -0.8319
vn -0.3892 -0.1945 -0.9004
vn 0.8055 0.4023 -0.4351
vn -0.1885 -0.5221 -0.8318
vn 0.0408 -0.7701 -0.6366
vn -0.8055 -0.4023 0.4351
s off
f 2//1 3//1 1//1
f 4//2 5//2 3//2
f 6//3 7//3 5//3
f 8//4 9//4 7//4
f 10//5 11//5 9//5
f 12//6 13//6 11//6
f 14//7 15//7 13//7
f 16//8 17//8 15//8
f 18//9 19//9 17//9
f 20//10 21//10 19//10
f 22//11 23//11 21//11
f 24//12 25//12 23//12
f 26//13 27//13 25//13
f 28//14 29//14 27//14
f 22//15 14//15 6//15
f 30//16 31//16 29//16
f 32//17 1//17 31//17
f 31//18 7//18 15//18
f 2//1 4//1 3//1
f 4//2 6//2 5//2
f 6//3 8//3 7//3
f 8//4 10//4 9//4
f 10//5 12//5 11//5
f 12//6 14//6 13//6
f 14//7 16//7 15//7
f 16//8 18//8 17//8
f 18//9 20//9 19//9
f 20//10 22//10 21//10
f 22//11 24//11 23//11
f 24//12 26//12 25//12
f 26//13 28//13 27//13
f 28//14 30//14 29//14
f 6//15 4//15 2//15
f 2//15 32//15 30//15
f 30//15 28//15 26//15
f 26//15 24//15 22//15
f 22//15 20//15 14//15
f 20//15 18//15 14//15
f 18//15 16//15 14//15
f 14//15 12//15 6//15
f 12//15 10//15 6//15
f 10//15 8//15 6//15
f 6//15 2//15 22//15
f 2//15 30//15 22//15
f 30//15 26//15 22//15
f 30//16 32//16 31//16
f 32//17 2//17 1//17
f 31//18 1//18 3//18
f 3//18 5//18 7//18
f 7//18 9//18 11//18
f 11//18 13//18 7//18
f 13//18 15//18 7//18
f 15//18 17//18 23//18
f 17//18 19//18 23//18
f 19//18 21//18 23//18
f 23//18 25//18 27//18
f 27//18 29//18 31//18
f 31//18 3//18 7//18
f 23//18 27//18 15//18
f 27//18 31//18 15//18
