# Blender v2.83.0 OBJ File: ''
# www.blender.org
o Cylinder.169_Cylinder.1598
v 0.064212 1.828548 2.583831
v -0.775160 2.676131 0.978509
v -0.174908 1.647896 2.613478
v -1.014280 2.495479 1.008156
v -0.345144 1.402784 2.573074
v -1.184516 2.250367 0.967752
v -0.420580 1.130529 2.468770
v -1.259951 1.978112 0.863448
v -0.389730 0.872578 2.316446
v -1.229101 1.720161 0.711125
v -0.257291 0.668204 2.139292
v -1.096663 1.515786 0.533970
v -0.043427 0.548519 1.964277
v -0.882799 1.396102 0.358956
v 0.219305 0.531744 1.818047
v -0.620067 1.379327 0.212725
v 0.490905 0.620434 1.722863
v -0.348467 1.468017 0.117541
v 0.730025 0.801087 1.693216
v -0.109347 1.648670 0.087894
v 0.900261 1.046199 1.733619
v 0.060890 1.893782 0.128298
v 0.975697 1.318454 1.837923
v 0.136325 2.166037 0.232601
v 0.944847 1.576404 1.990247
v 0.105475 2.423987 0.384925
v 0.812408 1.780779 2.167401
v -0.026963 2.628362 0.562080
v 0.598544 1.900464 2.342416
v -0.240828 2.748047 0.737094
v 0.335812 1.917238 2.488647
v -0.503560 2.764822 0.883325
vn -0.4398 0.6786 0.5883
vn -0.7102 0.3974 0.5811
vn -0.8724 0.0557 0.4856
vn -0.9019 -0.2945 0.3161
vn -0.7940 -0.5999 0.0984
vn -0.5653 -0.8139 -0.1342
vn -0.2505 -0.9040 -0.3463
vn 0.1024 -0.8565 -0.5058
vn 0.4398 -0.6786 -0.5883
vn 0.7102 -0.3974 -0.5811
vn 0.8724 -0.0557 -0.4856
vn 0.9019 0.2945 -0.3161
vn 0.7940 0.5999 -0.0984
vn 0.5653 0.8139 0.1342
vn -0.4197 0.4238 -0.8027
vn 0.2505 0.9040 0.3463
vn -0.1024 0.8565 0.5058
vn 0.4197 -0.4238 0.8027
vn 0.7102 -0.3974 -0.5812
s off
f 2//1 3//1 1//1
f 4//2 5//2 3//2
f 6//3 7//3 5//3
f 8//4 9//4 7//4
f 10//5 11//5 9//5
f 12//6 13//6 11//6
f 14//7 15//7 13//7
f 16//8 17//8 15//8
f 18//9 19//9 17//9
f 20//10 21//10 19//10
f 22//11 23//11 21//11
f 24//12 25//12 23//12
f 26//13 27//13 25//13
f 28//14 29//14 27//14
f 30//15 22//15 14//15
f 30//16 31//16 29//16
f 32//17 1//17 31//17
f 31//18 7//18 15//18
f 2//1 4//1 3//1
f 4//2 6//2 5//2
f 6//3 8//3 7//3
f 8//4 10//4 9//4
f 10//5 12//5 11//5
f 12//6 14//6 13//6
f 14//7 16//7 15//7
f 16//8 18//8 17//8
f 18//9 20//9 19//9
f 20//19 22//19 21//19
f 22//11 24//11 23//11
f 24//12 26//12 25//12
f 26//13 28//13 27//13
f 28//14 30//14 29//14
f 6//15 4//15 2//15
f 2//15 32//15 30//15
f 30//15 28//15 26//15
f 26//15 24//15 22//15
f 22//15 20//15 14//15
f 20//15 18//15 14//15
f 18//15 16//15 14//15
f 14//15 12//15 10//15
f 10//15 8//15 6//15
f 6//15 2//15 30//15
f 30//15 26//15 22//15
f 14//15 10//15 6//15
f 6//15 30//15 14//15
f 30//16 32//16 31//16
f 32//17 2//17 1//17
f 31//18 1//18 3//18
f 3//18 5//18 31//18
f 5//18 7//18 31//18
f 7//18 9//18 11//18
f 11//18 13//18 7//18
f 13//18 15//18 7//18
f 15//18 17//18 19//18
f 19//18 21//18 23//18
f 23//18 25//18 27//18
f 27//18 29//18 31//18
f 15//18 19//18 23//18
f 23//18 27//18 15//18
f 27//18 31//18 15//18
