# Blender v2.83.0 OBJ File: ''
# www.blender.org
o Cylinder.232_Cylinder.1661
v -0.028114 -1.721363 1.612135
v -0.555327 -0.950180 -0.156289
v -0.092271 -1.121376 1.892907
v -0.619484 -0.350194 0.124483
v -0.395995 -0.617094 2.203364
v -0.923207 0.154089 0.434940
v -0.893045 -0.285288 2.496243
v -1.420258 0.485895 0.727819
v -1.507751 -0.176473 2.726956
v -2.034964 0.594710 0.958532
v -2.146530 -0.307214 2.860378
v -2.673742 0.463968 1.091954
v -2.712132 -0.657609 2.876196
v -3.239345 0.113574 1.107772
v -3.118451 -1.174312 2.772004
v -3.645663 -0.403129 1.003580
v -3.303627 -1.778659 2.563663
v -3.830840 -1.007477 0.795239
v -3.239470 -2.378645 2.282892
v -3.766682 -1.607463 0.514467
v -2.935747 -2.882928 1.972434
v -3.462959 -2.111745 0.204010
v -2.438696 -3.214734 1.679555
v -2.965909 -2.443552 -0.088869
v -1.823990 -3.323550 1.448843
v -2.351202 -2.552367 -0.319582
v -1.185211 -3.192808 1.315421
v -1.712424 -2.421625 -0.453004
v -0.619609 -2.842413 1.299602
v -1.146821 -2.071230 -0.468822
v -0.213290 -2.325710 1.403794
v -0.740503 -1.554527 -0.364630
vn 0.9598 0.1964 -0.2005
vn 0.8499 0.5265 -0.0238
vn 0.6105 0.7764 0.1566
vn 0.2782 0.9081 0.3130
vn -0.0964 0.9015 0.4219
vn -0.4564 0.7577 0.4665
vn -0.7468 0.4986 0.4401
vn -0.9236 0.1635 0.3467
vn -0.9598 -0.1964 0.2005
vn -0.8499 -0.5265 0.0238
vn -0.6105 -0.7764 -0.1566
vn -0.2782 -0.9081 -0.3130
vn 0.0964 -0.9015 -0.4219
vn 0.4564 -0.7577 -0.4665
vn -0.2636 0.3856 -0.8842
vn 0.7468 -0.4986 -0.4401
vn 0.9236 -0.1635 -0.3467
vn 0.2636 -0.3856 0.8842
vn -0.8498 -0.5265 0.0238
s off
f 2//1 3//1 1//1
f 4//2 5//2 3//2
f 6//3 7//3 5//3
f 8//4 9//4 7//4
f 10//5 11//5 9//5
f 12//6 13//6 11//6
f 14//7 15//7 13//7
f 16//8 17//8 15//8
f 18//9 19//9 17//9
f 20//10 21//10 19//10
f 22//11 23//11 21//11
f 24//12 25//12 23//12
f 26//13 27//13 25//13
f 28//14 29//14 27//14
f 30//15 22//15 14//15
f 30//16 31//16 29//16
f 32//17 1//17 31//17
f 19//18 23//18 31//18
f 2//1 4//1 3//1
f 4//2 6//2 5//2
f 6//3 8//3 7//3
f 8//4 10//4 9//4
f 10//5 12//5 11//5
f 12//6 14//6 13//6
f 14//7 16//7 15//7
f 16//8 18//8 17//8
f 18//9 20//9 19//9
f 20//19 22//19 21//19
f 22//11 24//11 23//11
f 24//12 26//12 25//12
f 26//13 28//13 27//13
f 28//14 30//14 29//14
f 6//15 4//15 2//15
f 2//15 32//15 30//15
f 30//15 28//15 26//15
f 26//15 24//15 22//15
f 22//15 20//15 18//15
f 18//15 16//15 14//15
f 14//15 12//15 10//15
f 10//15 8//15 6//15
f 6//15 2//15 30//15
f 30//15 26//15 22//15
f 22//15 18//15 14//15
f 14//15 10//15 6//15
f 6//15 30//15 14//15
f 30//16 32//16 31//16
f 32//17 2//17 1//17
f 31//18 1//18 3//18
f 3//18 5//18 7//18
f 7//18 9//18 11//18
f 11//18 13//18 7//18
f 13//18 15//18 7//18
f 15//18 17//18 19//18
f 19//18 21//18 23//18
f 23//18 25//18 27//18
f 27//18 29//18 23//18
f 29//18 31//18 23//18
f 31//18 3//18 15//18
f 3//18 7//18 15//18
f 15//18 19//18 31//18
