# Blender v2.83.0 OBJ File: ''
# www.blender.org
o Cylinder.292_Cylinder.1721
v -0.753905 -0.292431 1.265598
v -1.299000 0.845197 -0.286393
v -0.681651 -0.876091 0.812391
v -1.226746 0.261536 -0.739600
v -0.342921 -1.346597 0.348535
v -0.888016 -0.208969 -1.203456
v 0.210717 -1.632318 -0.055352
v -0.334378 -0.494691 -1.607343
v 0.894976 -1.689757 -0.337783
v 0.349881 -0.552129 -1.889774
v 1.605684 -1.510168 -0.455759
v 1.060589 -0.372540 -2.007750
v 2.234642 -1.120892 -0.391320
v 1.689547 0.016736 -1.943311
v 2.686098 -0.581193 -0.154276
v 2.141003 0.556435 -1.706267
v 2.891320 0.026765 0.219285
v 2.346225 1.164392 -1.332705
v 2.819066 0.610425 0.672492
v 2.273971 1.748052 -0.879499
v 2.480336 1.080931 1.136348
v 1.935241 2.218558 -0.415642
v 1.926698 1.366652 1.540236
v 1.381603 2.504280 -0.011755
v 1.242439 1.424091 1.822667
v 0.697344 2.561718 0.270676
v 0.531730 1.244501 1.940643
v -0.013364 2.382129 0.388652
v -0.097228 0.855225 1.876203
v -0.642323 1.992853 0.324213
v -0.548683 0.315526 1.639159
v -1.093778 1.453154 0.087168
vn -0.9572 -0.2419 0.1589
vn -0.8471 -0.5243 -0.0868
vn -0.6080 -0.7269 -0.3193
vn -0.2764 -0.8188 -0.5031
vn 0.0973 -0.7861 -0.6104
vn 0.4562 -0.6337 -0.6247
vn 0.7457 -0.3848 -0.5440
vn 0.9216 -0.0774 -0.3804
vn 0.9572 0.2419 -0.1589
vn 0.8471 0.5243 0.0868
vn 0.6080 0.7269 0.3193
vn 0.2764 0.8188 0.5031
vn -0.0973 0.7861 0.6104
vn -0.4562 0.6337 0.6247
vn -0.2725 0.5688 -0.7760
vn -0.7457 0.3848 0.5440
vn -0.9216 0.0774 0.3804
vn 0.2725 -0.5688 0.7760
s off
f 2//1 3//1 1//1
f 4//2 5//2 3//2
f 6//3 7//3 5//3
f 8//4 9//4 7//4
f 10//5 11//5 9//5
f 12//6 13//6 11//6
f 13//7 16//7 15//7
f 16//8 17//8 15//8
f 18//9 19//9 17//9
f 20//10 21//10 19//10
f 22//11 23//11 21//11
f 24//12 25//12 23//12
f 26//13 27//13 25//13
f 27//14 30//14 29//14
f 22//15 14//15 6//15
f 30//16 31//16 29//16
f 32//17 1//17 31//17
f 15//18 23//18 31//18
f 2//1 4//1 3//1
f 4//2 6//2 5//2
f 6//3 8//3 7//3
f 8//4 10//4 9//4
f 10//5 12//5 11//5
f 12//6 14//6 13//6
f 13//7 14//7 16//7
f 16//8 18//8 17//8
f 18//9 20//9 19//9
f 20//10 22//10 21//10
f 22//11 24//11 23//11
f 24//12 26//12 25//12
f 26//13 28//13 27//13
f 27//14 28//14 30//14
f 6//15 4//15 30//15
f 4//15 2//15 30//15
f 2//15 32//15 30//15
f 30//15 28//15 26//15
f 26//15 24//15 30//15
f 24//15 22//15 30//15
f 22//15 20//15 14//15
f 20//15 18//15 14//15
f 18//15 16//15 14//15
f 14//15 12//15 10//15
f 10//15 8//15 6//15
f 14//15 10//15 6//15
f 6//15 30//15 22//15
f 30//16 32//16 31//16
f 32//17 2//17 1//17
f 31//18 1//18 3//18
f 3//18 5//18 7//18
f 7//18 9//18 15//18
f 9//18 11//18 15//18
f 11//18 13//18 15//18
f 15//18 17//18 19//18
f 19//18 21//18 23//18
f 23//18 25//18 27//18
f 27//18 29//18 23//18
f 29//18 31//18 23//18
f 31//18 3//18 7//18
f 15//18 19//18 23//18
f 31//18 7//18 15//18
