# Blender v2.83.0 OBJ File: ''
# www.blender.org
o Cylinder.257_Cylinder.1686
v -2.215591 -2.771526 -0.095655
v -0.774511 -2.137288 -1.328956
v -1.760069 -2.697214 0.474826
v -0.318990 -2.062976 -0.758475
v -1.425990 -2.363760 1.036671
v 0.015090 -1.729522 -0.196630
v -1.264213 -1.821930 1.504345
v 0.176867 -1.187692 0.271044
v -1.299368 -1.154212 1.806648
v 0.141711 -0.519974 0.573347
v -1.526103 -0.462260 1.897558
v -0.085023 0.171978 0.664257
v -1.909899 0.148582 1.763234
v -0.468819 0.782820 0.529933
v -2.392327 0.585319 1.424126
v -0.951247 1.219557 0.190825
v -2.899942 0.781462 0.931861
v -1.458862 1.415700 -0.301441
v -3.355464 0.707150 0.361380
v -1.914384 1.341388 -0.871921
v -3.689543 0.373697 -0.200465
v -2.248463 1.007934 -1.433766
v -3.851320 -0.168134 -0.668139
v -2.410240 0.466104 -1.901440
v -3.816165 -0.835852 -0.970442
v -2.375085 -0.201614 -2.203743
v -3.589430 -1.527804 -1.061352
v -2.148350 -0.893566 -2.294653
v -3.205633 -2.138646 -0.927028
v -1.764554 -1.504408 -2.160329
v -2.723205 -2.575384 -0.587920
v -1.282125 -1.941146 -1.821221
vn 0.3090 -0.9430 -0.1239
vn 0.5230 -0.8324 0.1831
vn 0.6574 -0.5952 0.4621
vn 0.6918 -0.2673 0.6708
vn 0.6208 0.1013 0.7774
vn 0.4553 0.4544 0.7657
vn 0.2205 0.7384 0.6373
vn -0.0479 0.9099 0.4120
vn -0.3090 0.9430 0.1239
vn -0.5230 0.8324 -0.1831
vn -0.6574 0.5952 -0.4621
vn -0.6918 0.2673 -0.6708
vn -0.6208 -0.1013 -0.7774
vn -0.4553 -0.4544 -0.7657
vn 0.7205 0.3171 -0.6167
vn -0.2205 -0.7384 -0.6373
vn 0.0479 -0.9099 -0.4120
vn -0.7205 -0.3171 0.6167
vn 0.7205 0.3171 -0.6166
vn -0.7205 -0.3171 0.6166
s off
f 2//1 3//1 1//1
f 4//2 5//2 3//2
f 6//3 7//3 5//3
f 8//4 9//4 7//4
f 10//5 11//5 9//5
f 12//6 13//6 11//6
f 14//7 15//7 13//7
f 16//8 17//8 15//8
f 18//9 19//9 17//9
f 20//10 21//10 19//10
f 22//11 23//11 21//11
f 24//12 25//12 23//12
f 26//13 27//13 25//13
f 28//14 29//14 27//14
f 22//15 14//15 6//15
f 30//16 31//16 29//16
f 32//17 1//17 31//17
f 15//18 23//18 31//18
f 2//1 4//1 3//1
f 4//2 6//2 5//2
f 6//3 8//3 7//3
f 8//4 10//4 9//4
f 10//5 12//5 11//5
f 12//6 14//6 13//6
f 14//7 16//7 15//7
f 16//8 18//8 17//8
f 18//9 20//9 19//9
f 20//10 22//10 21//10
f 22//11 24//11 23//11
f 24//12 26//12 25//12
f 26//13 28//13 27//13
f 28//14 30//14 29//14
f 6//19 4//19 30//19
f 4//15 2//15 30//15
f 2//15 32//15 30//15
f 30//15 28//15 26//15
f 26//15 24//15 22//15
f 22//15 20//15 18//15
f 18//15 16//15 14//15
f 14//15 12//15 10//15
f 10//15 8//15 14//15
f 8//15 6//15 14//15
f 30//15 26//15 6//15
f 26//15 22//15 6//15
f 22//15 18//15 14//15
f 30//16 32//16 31//16
f 32//17 2//17 1//17
f 31//18 1//18 3//18
f 3//18 5//18 31//18
f 5//18 7//18 31//18
f 7//18 9//18 11//18
f 11//20 13//20 7//20
f 13//18 15//18 7//18
f 15//18 17//18 19//18
f 19//18 21//18 23//18
f 23//18 25//18 31//18
f 25//18 27//18 31//18
f 27//18 29//18 31//18
f 15//18 19//18 23//18
f 31//18 7//18 15//18
