# Blender v2.83.0 OBJ File: ''
# www.blender.org
o Cylinder.079_Cylinder.1508
v 2.624033 0.251500 -0.943013
v 0.640301 0.502839 -0.983436
v 2.698827 0.833187 -0.996720
v 0.715095 1.084525 -1.037143
v 2.766011 1.391559 -0.821950
v 0.782279 1.642897 -0.862374
v 2.815358 1.841610 -0.445312
v 0.831625 2.092948 -0.485736
v 2.839354 2.114824 0.075856
v 0.855621 2.366162 0.035432
v 2.834346 2.169606 0.662210
v 0.850613 2.420944 0.621786
v 2.801097 1.997616 1.224484
v 0.817364 2.248954 1.184060
v 2.744669 1.625039 1.677076
v 0.760936 1.876377 1.636652
v 2.673652 1.108595 1.951082
v 0.689919 1.359933 1.910659
v 2.598858 0.526909 2.004790
v 0.615125 0.778247 1.964366
v 2.531674 -0.031463 1.830021
v 0.547941 0.219875 1.789597
v 2.482327 -0.481515 1.453382
v 0.498595 -0.230177 1.412959
v 2.458332 -0.754729 0.932214
v 0.474599 -0.503390 0.891790
v 2.463339 -0.809511 0.345860
v 0.479607 -0.558172 0.305436
v 2.496588 -0.637521 -0.216414
v 0.512856 -0.386182 -0.256838
v 2.553017 -0.264943 -0.669006
v 0.569284 -0.013605 -0.709430
vn 0.0085 -0.0930 -0.9956
vn 0.0565 0.2920 -0.9547
vn 0.0958 0.6326 -0.7685
vn 0.1206 0.8769 -0.4653
vn 0.1270 0.9877 -0.0912
vn 0.1141 0.9481 0.2968
vn 0.0838 0.7642 0.6395
vn 0.0407 0.4639 0.8849
vn -0.0085 0.0930 0.9956
vn -0.0565 -0.2920 0.9547
vn -0.0958 -0.6326 0.7685
vn -0.1206 -0.8769 0.4653
vn -0.1270 -0.9877 0.0912
vn -0.1141 -0.9481 -0.2968
vn -0.9919 0.1257 -0.0202
vn -0.0838 -0.7642 -0.6395
vn -0.0407 -0.4639 -0.8849
vn 0.9919 -0.1257 0.0202
s off
f 2//1 3//1 1//1
f 4//2 5//2 3//2
f 6//3 7//3 5//3
f 8//4 9//4 7//4
f 10//5 11//5 9//5
f 12//6 13//6 11//6
f 14//7 15//7 13//7
f 16//8 17//8 15//8
f 18//9 19//9 17//9
f 20//10 21//10 19//10
f 22//11 23//11 21//11
f 24//12 25//12 23//12
f 26//13 27//13 25//13
f 28//14 29//14 27//14
f 30//15 22//15 14//15
f 30//16 31//16 29//16
f 32//17 1//17 31//17
f 31//18 7//18 15//18
f 2//1 4//1 3//1
f 4//2 6//2 5//2
f 6//3 8//3 7//3
f 8//4 10//4 9//4
f 10//5 12//5 11//5
f 12//6 14//6 13//6
f 14//7 16//7 15//7
f 16//8 18//8 17//8
f 18//9 20//9 19//9
f 20//10 22//10 21//10
f 22//11 24//11 23//11
f 24//12 26//12 25//12
f 26//13 28//13 27//13
f 28//14 30//14 29//14
f 6//15 4//15 30//15
f 4//15 2//15 30//15
f 2//15 32//15 30//15
f 30//15 28//15 26//15
f 26//15 24//15 22//15
f 22//15 20//15 18//15
f 18//15 16//15 14//15
f 14//15 12//15 10//15
f 10//15 8//15 6//15
f 30//15 26//15 22//15
f 22//15 18//15 14//15
f 14//15 10//15 6//15
f 6//15 30//15 14//15
f 30//16 32//16 31//16
f 32//17 2//17 1//17
f 31//18 1//18 7//18
f 1//18 3//18 7//18
f 3//18 5//18 7//18
f 7//18 9//18 15//18
f 9//18 11//18 15//18
f 11//18 13//18 15//18
f 15//18 17//18 19//18
f 19//18 21//18 23//18
f 23//18 25//18 27//18
f 27//18 29//18 31//18
f 15//18 19//18 31//18
f 19//18 23//18 31//18
f 23//18 27//18 31//18
