# Blender v2.83.0 OBJ File: ''
# www.blender.org
o Cylinder.126_Cylinder.1555
v -1.978752 1.450569 0.244041
v -0.827417 1.368962 -1.389290
v -2.031655 0.856974 0.236407
v -0.880321 0.775367 -1.396923
v -1.895137 0.290348 0.360949
v -0.743803 0.208741 -1.272382
v -1.589983 -0.163045 0.598706
v -0.438649 -0.244651 -1.034625
v -1.162648 -0.434179 0.913481
v -0.011314 -0.515786 -0.719850
v -0.678190 -0.481778 1.257353
v 0.473144 -0.563385 -0.375978
v -0.210365 -0.298594 1.577970
v 0.940969 -0.380201 -0.055361
v 0.169606 0.087484 1.826522
v 1.320941 0.005877 0.193191
v 0.403877 0.617679 1.965168
v 1.555211 0.536072 0.331838
v 0.456780 1.211274 1.972802
v 1.608114 1.129667 0.339471
v 0.320263 1.777900 1.848260
v 1.471597 1.696293 0.214930
v 0.015108 2.231293 1.610504
v 1.166442 2.149686 -0.022827
v -0.412227 2.502428 1.295729
v 0.739107 2.420821 -0.337602
v -0.896685 2.550026 0.951856
v 0.254649 2.468420 -0.681474
v -1.364510 2.366842 0.631239
v -0.213176 2.285235 -1.002092
v -1.744482 1.980764 0.382687
v -0.593148 1.899157 -1.250644
vn -0.8129 0.0799 -0.5770
vn -0.7849 -0.3074 -0.5380
vn -0.6375 -0.6478 -0.4170
vn -0.3931 -0.8896 -0.2326
vn -0.0888 -0.9960 -0.0128
vn 0.2291 -0.9507 0.2090
vn 0.5120 -0.7607 0.3989
vn 0.7170 -0.4549 0.5281
vn 0.8129 -0.0799 0.5770
vn 0.7849 0.3074 0.5380
vn 0.6375 0.6478 0.4170
vn 0.3931 0.8896 0.2326
vn 0.0888 0.9960 0.0128
vn -0.2291 0.9507 -0.2090
vn 0.5757 -0.0408 -0.8167
vn -0.5120 0.7607 -0.3989
vn -0.7170 0.4549 -0.5281
vn -0.5757 0.0408 0.8167
s off
f 2//1 3//1 1//1
f 4//2 5//2 3//2
f 6//3 7//3 5//3
f 8//4 9//4 7//4
f 10//5 11//5 9//5
f 12//6 13//6 11//6
f 14//7 15//7 13//7
f 16//8 17//8 15//8
f 18//9 19//9 17//9
f 20//10 21//10 19//10
f 22//11 23//11 21//11
f 24//12 25//12 23//12
f 26//13 27//13 25//13
f 27//14 30//14 29//14
f 30//15 22//15 14//15
f 30//16 31//16 29//16
f 32//17 1//17 31//17
f 31//18 7//18 15//18
f 2//1 4//1 3//1
f 4//2 6//2 5//2
f 6//3 8//3 7//3
f 8//4 10//4 9//4
f 10//5 12//5 11//5
f 12//6 14//6 13//6
f 14//7 16//7 15//7
f 16//8 18//8 17//8
f 18//9 20//9 19//9
f 20//10 22//10 21//10
f 22//11 24//11 23//11
f 24//12 26//12 25//12
f 26//13 28//13 27//13
f 27//14 28//14 30//14
f 6//15 4//15 30//15
f 4//15 2//15 30//15
f 2//15 32//15 30//15
f 30//15 28//15 26//15
f 26//15 24//15 30//15
f 24//15 22//15 30//15
f 22//15 20//15 14//15
f 20//15 18//15 14//15
f 18//15 16//15 14//15
f 14//15 12//15 6//15
f 12//15 10//15 6//15
f 10//15 8//15 6//15
f 6//15 30//15 14//15
f 30//16 32//16 31//16
f 32//17 2//17 1//17
f 31//18 1//18 3//18
f 3//18 5//18 7//18
f 7//18 9//18 11//18
f 11//18 13//18 15//18
f 15//18 17//18 19//18
f 19//18 21//18 23//18
f 23//18 25//18 31//18
f 25//18 27//18 31//18
f 27//18 29//18 31//18
f 31//18 3//18 7//18
f 7//18 11//18 15//18
f 15//18 19//18 31//18
f 19//18 23//18 31//18
