# Blender v2.83.0 OBJ File: ''
# www.blender.org
o Cylinder.223_Cylinder.1652
v -1.948396 -2.415432 1.377284
v -0.038560 -2.687816 0.849710
v -1.892544 -2.510639 1.628625
v 0.017292 -2.783023 1.101051
v -1.818233 -2.501113 1.892714
v 0.091603 -2.773497 1.365140
v -1.736776 -2.388304 2.129347
v 0.173059 -2.660688 1.601773
v -1.660575 -2.189386 2.302498
v 0.249260 -2.461770 1.774924
v -1.601230 -1.934643 2.385807
v 0.308605 -2.207027 1.858232
v -1.567776 -1.662857 2.366589
v 0.342059 -1.935241 1.839015
v -1.565306 -1.415405 2.247772
v 0.344529 -1.687789 1.720198
v -1.594196 -1.229959 2.047444
v 0.315639 -1.502343 1.519870
v -1.650048 -1.134752 1.796103
v 0.259787 -1.407136 1.268529
v -1.724359 -1.144278 1.532014
v 0.185476 -1.416662 1.004440
v -1.805816 -1.257087 1.295381
v 0.104020 -1.529471 0.767807
v -1.882017 -1.456005 1.122230
v 0.027818 -1.728389 0.594656
v -1.941362 -1.710748 1.038921
v -0.031527 -1.983132 0.511347
v -1.974816 -1.982534 1.058139
v -0.064981 -2.254918 0.530565
v -1.977286 -2.229987 1.176956
v -0.067451 -2.502370 0.649382
vn -0.2162 -0.9280 -0.3035
vn -0.1219 -0.9901 0.0700
vn -0.0090 -0.9014 0.4328
vn 0.1052 -0.6755 0.7298
vn 0.2035 -0.3468 0.9156
vn 0.2707 0.0347 0.9620
vn 0.2967 0.4109 0.8620
vn 0.2776 0.7246 0.6308
vn 0.2162 0.9280 0.3035
vn 0.1219 0.9901 -0.0700
vn 0.0090 0.9014 -0.4328
vn -0.1052 0.6755 -0.7298
vn -0.2035 0.3468 -0.9156
vn -0.2707 -0.0347 -0.9620
vn 0.9549 -0.1362 -0.2638
vn -0.2967 -0.4109 -0.8620
vn -0.2776 -0.7246 -0.6308
vn -0.9549 0.1362 0.2638
s off
f 2//1 3//1 1//1
f 4//2 5//2 3//2
f 6//3 7//3 5//3
f 8//4 9//4 7//4
f 10//5 11//5 9//5
f 12//6 13//6 11//6
f 14//7 15//7 13//7
f 16//8 17//8 15//8
f 18//9 19//9 17//9
f 20//10 21//10 19//10
f 22//11 23//11 21//11
f 24//12 25//12 23//12
f 26//13 27//13 25//13
f 28//14 29//14 27//14
f 6//15 30//15 22//15
f 30//16 31//16 29//16
f 32//17 1//17 31//17
f 31//18 7//18 15//18
f 2//1 4//1 3//1
f 4//2 6//2 5//2
f 6//3 8//3 7//3
f 8//4 10//4 9//4
f 10//5 12//5 11//5
f 12//6 14//6 13//6
f 14//7 16//7 15//7
f 16//8 18//8 17//8
f 18//9 20//9 19//9
f 20//10 22//10 21//10
f 22//11 24//11 23//11
f 24//12 26//12 25//12
f 26//13 28//13 27//13
f 28//14 30//14 29//14
f 6//15 4//15 2//15
f 2//15 32//15 30//15
f 30//15 28//15 26//15
f 26//15 24//15 22//15
f 22//15 20//15 18//15
f 18//15 16//15 14//15
f 14//15 12//15 10//15
f 10//15 8//15 6//15
f 6//15 2//15 30//15
f 30//15 26//15 22//15
f 22//15 18//15 6//15
f 18//15 14//15 6//15
f 14//15 10//15 6//15
f 30//16 32//16 31//16
f 32//17 2//17 1//17
f 31//18 1//18 7//18
f 1//18 3//18 7//18
f 3//18 5//18 7//18
f 7//18 9//18 11//18
f 11//18 13//18 15//18
f 15//18 17//18 19//18
f 19//18 21//18 23//18
f 23//18 25//18 27//18
f 27//18 29//18 31//18
f 7//18 11//18 15//18
f 15//18 19//18 23//18
f 23//18 27//18 15//18
f 27//18 31//18 15//18
