# Blender v2.83.0 OBJ File: ''
# www.blender.org
o Cylinder.326_Cylinder.1755
v 0.121785 -2.693702 0.979145
v -0.531423 -1.838055 -0.706437
v 0.309803 -2.654806 0.926028
v -0.343405 -1.799159 -0.759554
v 0.479660 -2.551592 0.912598
v -0.173548 -1.695945 -0.772984
v 0.605497 -2.399773 0.940900
v -0.047711 -1.544126 -0.744682
v 0.668158 -2.222463 1.006625
v 0.014949 -1.366816 -0.678958
v 0.658101 -2.046655 1.099767
v 0.004893 -1.191008 -0.585816
v 0.576859 -1.899115 1.206146
v -0.076349 -1.043468 -0.479437
v 0.436800 -1.802304 1.309566
v -0.216408 -0.946657 -0.376016
v 0.259246 -1.770960 1.394284
v -0.393962 -0.915313 -0.291298
v 0.071228 -1.809856 1.447401
v -0.581980 -0.954209 -0.238181
v -0.098629 -1.913070 1.460831
v -0.751837 -1.057423 -0.224751
v -0.224466 -2.064889 1.432529
v -0.877674 -1.209242 -0.253053
v -0.287127 -2.242199 1.366804
v -0.940335 -1.386552 -0.318778
v -0.277070 -2.418007 1.273662
v -0.930278 -1.562360 -0.411920
v -0.195828 -2.565547 1.167284
v -0.849036 -1.709900 -0.518299
v -0.055768 -2.662358 1.063863
v -0.708976 -1.806711 -0.621720
vn 0.0505 -0.8825 -0.4676
vn 0.4078 -0.7406 -0.5340
vn 0.7031 -0.4860 -0.5192
vn 0.8913 -0.1573 -0.4253
vn 0.9438 0.1953 -0.2666
vn 0.8527 0.5181 -0.0674
vn 0.6317 0.7621 0.1421
vn 0.3145 0.8901 0.3299
vn -0.0505 0.8825 0.4676
vn -0.4078 0.7406 0.5340
vn -0.7031 0.4860 0.5192
vn -0.8913 0.1573 0.4253
vn -0.9438 -0.1953 0.2666
vn -0.8527 -0.5181 0.0674
vn -0.3266 0.4278 -0.8428
vn -0.6317 -0.7621 -0.1421
vn -0.3145 -0.8901 -0.3299
vn 0.3266 -0.4278 0.8428
s off
f 2//1 3//1 1//1
f 4//2 5//2 3//2
f 6//3 7//3 5//3
f 8//4 9//4 7//4
f 10//5 11//5 9//5
f 12//6 13//6 11//6
f 14//7 15//7 13//7
f 16//8 17//8 15//8
f 18//9 19//9 17//9
f 20//10 21//10 19//10
f 22//11 23//11 21//11
f 24//12 25//12 23//12
f 26//13 27//13 25//13
f 28//14 29//14 27//14
f 10//15 6//15 22//15
f 30//16 31//16 29//16
f 32//17 1//17 31//17
f 15//18 23//18 31//18
f 2//1 4//1 3//1
f 4//2 6//2 5//2
f 6//3 8//3 7//3
f 8//4 10//4 9//4
f 10//5 12//5 11//5
f 12//6 14//6 13//6
f 14//7 16//7 15//7
f 16//8 18//8 17//8
f 18//9 20//9 19//9
f 20//10 22//10 21//10
f 22//11 24//11 23//11
f 24//12 26//12 25//12
f 26//13 28//13 27//13
f 28//14 30//14 29//14
f 6//15 4//15 2//15
f 2//15 32//15 30//15
f 30//15 28//15 22//15
f 28//15 26//15 22//15
f 26//15 24//15 22//15
f 22//15 20//15 18//15
f 18//15 16//15 14//15
f 14//15 12//15 10//15
f 10//15 8//15 6//15
f 6//15 2//15 22//15
f 2//15 30//15 22//15
f 22//15 18//15 14//15
f 14//15 10//15 22//15
f 30//16 32//16 31//16
f 32//17 2//17 1//17
f 31//18 1//18 3//18
f 3//18 5//18 7//18
f 7//18 9//18 11//18
f 11//18 13//18 15//18
f 15//18 17//18 19//18
f 19//18 21//18 15//18
f 21//18 23//18 15//18
f 23//18 25//18 27//18
f 27//18 29//18 23//18
f 29//18 31//18 23//18
f 31//18 3//18 7//18
f 7//18 11//18 15//18
f 31//18 7//18 15//18
