# Blender v2.83.0 OBJ File: ''
# www.blender.org
o Cylinder.183_Cylinder.1612
v 0.341693 1.239123 0.045713
v 0.241994 0.621891 -1.854047
v 0.233016 0.757158 0.208006
v 0.133318 0.139926 -1.691753
v 0.326975 0.269280 0.361587
v 0.227277 -0.347952 -1.538172
v 0.609265 -0.150236 0.483073
v 0.509567 -0.767468 -1.416686
v 1.036911 -0.437522 0.553970
v 0.937212 -1.054754 -1.345789
v 1.544806 -0.548842 0.563484
v 1.445107 -1.166074 -1.336275
v 2.055629 -0.467248 0.510166
v 1.955930 -1.084480 -1.389593
v 2.491611 -0.205162 0.402135
v 2.391912 -0.822394 -1.497625
v 2.786378 0.197515 0.255835
v 2.686679 -0.419717 -1.643924
v 2.895054 0.679480 0.093542
v 2.795356 0.062248 -1.806218
v 2.801095 1.167358 -0.060039
v 2.701397 0.550126 -1.959798
v 2.518806 1.586874 -0.181525
v 2.419107 0.969642 -2.081285
v 2.091160 1.874160 -0.252422
v 1.991462 1.256928 -2.152181
v 1.583264 1.985480 -0.261936
v 1.483566 1.368248 -2.161695
v 1.072441 1.903886 -0.208618
v 0.972743 1.286654 -2.108377
v 0.636459 1.641800 -0.100586
v 0.536761 1.024568 -2.000346
vn -0.9766 0.2141 -0.0183
vn -0.9823 -0.1569 0.1025
vn -0.8384 -0.5040 0.2077
vn -0.5668 -0.7743 0.2813
vn -0.2090 -0.9268 0.3121
vn 0.1807 -0.9382 0.2953
vn 0.5428 -0.8067 0.2336
vn 0.8223 -0.5524 0.1363
vn 0.9766 -0.2141 0.0183
vn 0.9823 0.1569 -0.1025
vn 0.8384 0.5040 -0.2077
vn 0.5668 0.7743 -0.2813
vn 0.2090 0.9268 -0.3121
vn -0.1807 0.9382 -0.2953
vn -0.0498 -0.3086 -0.9499
vn -0.5428 0.8067 -0.2336
vn -0.8223 0.5524 -0.1363
vn 0.0498 0.3086 0.9499
vn -0.0499 -0.3086 -0.9499
s off
f 2//1 3//1 1//1
f 3//2 6//2 5//2
f 6//3 7//3 5//3
f 8//4 9//4 7//4
f 9//5 12//5 11//5
f 12//6 13//6 11//6
f 14//7 15//7 13//7
f 16//8 17//8 15//8
f 18//9 19//9 17//9
f 20//10 21//10 19//10
f 22//11 23//11 21//11
f 24//12 25//12 23//12
f 26//13 27//13 25//13
f 28//14 29//14 27//14
f 22//15 14//15 6//15
f 30//16 31//16 29//16
f 32//17 1//17 31//17
f 31//18 7//18 15//18
f 2//1 4//1 3//1
f 3//2 4//2 6//2
f 6//3 8//3 7//3
f 8//4 10//4 9//4
f 9//5 10//5 12//5
f 12//6 14//6 13//6
f 14//7 16//7 15//7
f 16//8 18//8 17//8
f 18//9 20//9 19//9
f 20//10 22//10 21//10
f 22//11 24//11 23//11
f 24//12 26//12 25//12
f 26//13 28//13 27//13
f 28//14 30//14 29//14
f 6//19 4//19 2//19
f 2//19 32//19 6//19
f 32//15 30//15 6//15
f 30//15 28//15 22//15
f 28//15 26//15 22//15
f 26//19 24//19 22//19
f 22//19 20//19 18//19
f 18//15 16//15 14//15
f 14//15 12//15 10//15
f 10//15 8//15 6//15
f 22//15 18//15 14//15
f 14//15 10//15 6//15
f 6//15 30//15 22//15
f 30//16 32//16 31//16
f 32//17 2//17 1//17
f 31//18 1//18 3//18
f 3//18 5//18 31//18
f 5//18 7//18 31//18
f 7//18 9//18 11//18
f 11//18 13//18 15//18
f 15//18 17//18 19//18
f 19//18 21//18 23//18
f 23//18 25//18 27//18
f 27//18 29//18 23//18
f 29//18 31//18 23//18
f 7//18 11//18 15//18
f 15//18 19//18 31//18
f 19//18 23//18 31//18
