# Blender v2.83.0 OBJ File: ''
# www.blender.org
o Cylinder.170_Cylinder.1599
v -0.976048 -2.357445 0.351258
v -2.850990 -2.223659 -0.331892
v -0.851019 -2.164378 0.045919
v -2.725961 -2.030593 -0.637231
v -0.752928 -1.860123 -0.163713
v -2.627870 -1.726338 -0.846863
v -0.696709 -1.491000 -0.245723
v -2.571651 -1.357215 -0.928873
v -0.690919 -1.113204 -0.187628
v -2.565861 -0.979419 -0.870778
v -0.736441 -0.784251 0.001730
v -2.611382 -0.650466 -0.681420
v -0.826344 -0.554222 0.293522
v -2.701286 -0.420437 -0.389628
v -0.946941 -0.458136 0.643325
v -2.821883 -0.324351 -0.039825
v -1.079873 -0.510621 0.997885
v -2.954815 -0.376836 0.314734
v -1.204901 -0.703688 1.303223
v -3.079843 -0.569903 0.620073
v -1.302992 -1.007942 1.512855
v -3.177934 -0.874157 0.829705
v -1.359212 -1.377066 1.594866
v -3.234154 -1.243281 0.911716
v -1.365002 -1.754862 1.536770
v -3.239944 -1.621077 0.853620
v -1.319480 -2.083815 1.347412
v -3.194422 -1.950030 0.664262
v -1.229577 -2.313844 1.055621
v -3.104519 -2.180059 0.372470
v -1.108979 -2.409930 0.705817
v -2.983922 -2.276145 0.022667
vn 0.1191 -0.8605 -0.4953
vn 0.2352 -0.6017 -0.7633
vn 0.3155 -0.2513 -0.9150
vn 0.3477 0.1373 -0.9275
vn 0.3271 0.5050 -0.7987
vn 0.2566 0.7959 -0.5484
vn 0.1471 0.9656 -0.2145
vn 0.0151 0.9883 0.1520
vn -0.1191 0.8605 0.4953
vn -0.2352 0.6017 0.7633
vn -0.3155 0.2513 0.9150
vn -0.3477 -0.1373 0.9275
vn -0.3271 -0.5050 0.7987
vn -0.2566 -0.7959 0.5484
vn -0.9375 0.0669 -0.3416
vn -0.1471 -0.9656 0.2145
vn -0.0151 -0.9883 -0.1520
vn 0.9375 -0.0669 0.3416
s off
f 2//1 3//1 1//1
f 4//2 5//2 3//2
f 6//3 7//3 5//3
f 8//4 9//4 7//4
f 10//5 11//5 9//5
f 12//6 13//6 11//6
f 14//7 15//7 13//7
f 16//8 17//8 15//8
f 18//9 19//9 17//9
f 20//10 21//10 19//10
f 22//11 23//11 21//11
f 24//12 25//12 23//12
f 26//13 27//13 25//13
f 28//14 29//14 27//14
f 30//15 22//15 14//15
f 30//16 31//16 29//16
f 32//17 1//17 31//17
f 15//18 23//18 31//18
f 2//1 4//1 3//1
f 4//2 6//2 5//2
f 6//3 8//3 7//3
f 8//4 10//4 9//4
f 10//5 12//5 11//5
f 12//6 14//6 13//6
f 14//7 16//7 15//7
f 16//8 18//8 17//8
f 18//9 20//9 19//9
f 20//10 22//10 21//10
f 22//11 24//11 23//11
f 24//12 26//12 25//12
f 26//13 28//13 27//13
f 28//14 30//14 29//14
f 6//15 4//15 2//15
f 2//15 32//15 30//15
f 30//15 28//15 26//15
f 26//15 24//15 22//15
f 22//15 20//15 18//15
f 18//15 16//15 14//15
f 14//15 12//15 10//15
f 10//15 8//15 6//15
f 6//15 2//15 30//15
f 30//15 26//15 22//15
f 22//15 18//15 14//15
f 14//15 10//15 6//15
f 6//15 30//15 14//15
f 30//16 32//16 31//16
f 32//17 2//17 1//17
f 31//18 1//18 3//18
f 3//18 5//18 7//18
f 7//18 9//18 11//18
f 11//18 13//18 15//18
f 15//18 17//18 23//18
f 17//18 19//18 23//18
f 19//18 21//18 23//18
f 23//18 25//18 27//18
f 27//18 29//18 23//18
f 29//18 31//18 23//18
f 31//18 3//18 7//18
f 7//18 11//18 31//18
f 11//18 15//18 31//18
