# Blender v2.83.0 OBJ File: ''
# www.blender.org
o Cylinder.189_Cylinder.1618
v -1.794978 -0.341545 -1.034603
v 0.082824 -0.315012 -0.346741
v -1.796010 -0.073672 -1.042120
v 0.081792 -0.047139 -0.354258
v -1.761668 0.171245 -1.145317
v 0.116134 0.197778 -0.457455
v -1.697182 0.355920 -1.328483
v 0.180621 0.382453 -0.640622
v -1.612368 0.452238 -1.563734
v 0.265435 0.478771 -0.875872
v -1.520138 0.445535 -1.815253
v 0.357664 0.472068 -1.127392
v -1.434535 0.336832 -2.044751
v 0.443268 0.363365 -1.356889
v -1.368589 0.142678 -2.217287
v 0.509213 0.169211 -1.529426
v -1.332341 -0.107369 -2.306595
v 0.545461 -0.080836 -1.618734
v -1.331310 -0.375242 -2.299078
v 0.546492 -0.348709 -1.611217
v -1.365652 -0.620159 -2.195881
v 0.512151 -0.593626 -1.508020
v -1.430138 -0.804834 -2.012715
v 0.447664 -0.778301 -1.324854
v -1.514952 -0.901152 -1.777464
v 0.362850 -0.874619 -1.089603
v -1.607182 -0.894450 -1.525944
v 0.270621 -0.867917 -0.838083
v -1.692786 -0.785747 -1.296447
v 0.185017 -0.759214 -0.608585
v -1.758731 -0.591592 -1.123911
v 0.119072 -0.565059 -0.436049
vn -0.3442 0.0250 0.9386
vn -0.3194 0.4056 0.8564
vn -0.2461 0.7245 0.6438
vn -0.1353 0.9331 0.3333
vn -0.0038 0.9996 -0.0280
vn 0.1282 0.9139 -0.3851
vn 0.2406 0.6891 -0.6835
vn 0.3165 0.3594 -0.8779
vn 0.3442 -0.0250 -0.9386
vn 0.3194 -0.4056 -0.8564
vn 0.2461 -0.7245 -0.6438
vn 0.1353 -0.9331 -0.3333
vn 0.0038 -0.9996 0.0281
vn -0.1282 -0.9139 0.3851
vn 0.9389 0.0133 0.3439
vn -0.2406 -0.6891 0.6835
vn -0.3165 -0.3594 0.8779
vn -0.9389 -0.0133 -0.3439
vn 0.0038 -0.9996 0.0280
s off
f 2//1 3//1 1//1
f 4//2 5//2 3//2
f 6//3 7//3 5//3
f 8//4 9//4 7//4
f 10//5 11//5 9//5
f 12//6 13//6 11//6
f 14//7 15//7 13//7
f 16//8 17//8 15//8
f 18//9 19//9 17//9
f 20//10 21//10 19//10
f 22//11 23//11 21//11
f 24//12 25//12 23//12
f 26//13 27//13 25//13
f 28//14 29//14 27//14
f 14//15 10//15 6//15
f 30//16 31//16 29//16
f 32//17 1//17 31//17
f 31//18 7//18 15//18
f 2//1 4//1 3//1
f 4//2 6//2 5//2
f 6//3 8//3 7//3
f 8//4 10//4 9//4
f 10//5 12//5 11//5
f 12//6 14//6 13//6
f 14//7 16//7 15//7
f 16//8 18//8 17//8
f 18//9 20//9 19//9
f 20//10 22//10 21//10
f 22//11 24//11 23//11
f 24//12 26//12 25//12
f 26//19 28//19 27//19
f 28//14 30//14 29//14
f 6//15 4//15 2//15
f 2//15 32//15 30//15
f 30//15 28//15 22//15
f 28//15 26//15 22//15
f 26//15 24//15 22//15
f 22//15 20//15 18//15
f 18//15 16//15 14//15
f 14//15 12//15 10//15
f 10//15 8//15 6//15
f 6//15 2//15 22//15
f 2//15 30//15 22//15
f 22//15 18//15 6//15
f 18//15 14//15 6//15
f 30//16 32//16 31//16
f 32//17 2//17 1//17
f 31//18 1//18 3//18
f 3//18 5//18 31//18
f 5//18 7//18 31//18
f 7//18 9//18 11//18
f 11//18 13//18 7//18
f 13//18 15//18 7//18
f 15//18 17//18 19//18
f 19//18 21//18 23//18
f 23//18 25//18 27//18
f 27//18 29//18 31//18
f 15//18 19//18 23//18
f 23//18 27//18 15//18
f 27//18 31//18 15//18
