# Blender v2.83.0 OBJ File: ''
# www.blender.org
o Cylinder.068_Cylinder.1497
v 2.270550 0.107265 -0.144451
v 1.633881 1.831146 0.644778
v 2.075995 0.050974 -0.178447
v 1.439326 1.774856 0.610783
v 1.898963 0.032491 -0.280885
v 1.262294 1.756373 0.508345
v 1.766405 0.054628 -0.436172
v 1.129735 1.778510 0.353058
v 1.698501 0.114015 -0.620666
v 1.061831 1.837897 0.168563
v 1.705590 0.201611 -0.806280
v 1.068920 1.925493 -0.017050
v 1.786592 0.304080 -0.964756
v 1.149923 2.027962 -0.175526
v 1.929176 0.405823 -1.071966
v 1.292506 2.129705 -0.282737
v 2.111634 0.491350 -1.111590
v 1.474964 2.215231 -0.322360
v 2.306189 0.547640 -1.077595
v 1.669519 2.271521 -0.288365
v 2.483221 0.566123 -0.975157
v 1.846552 2.290005 -0.185927
v 2.615780 0.543986 -0.819870
v 1.979110 2.267868 -0.030640
v 2.683683 0.484599 -0.635375
v 2.047014 2.208481 0.153854
v 2.676594 0.397003 -0.449761
v 2.039925 2.120885 0.339468
v 2.595592 0.294534 -0.291286
v 1.958923 2.018416 0.497944
v 2.453008 0.192791 -0.184075
v 1.816339 1.916673 0.605154
vn -0.0345 -0.4265 0.9038
vn -0.3944 -0.4990 0.7717
vn -0.6943 -0.4954 0.5220
vn -0.8884 -0.4165 0.1929
vn -0.9473 -0.2741 -0.1655
vn -0.8620 -0.0900 -0.4988
vn -0.6455 0.1078 -0.7561
vn -0.3306 0.2892 -0.8984
vn 0.0345 0.4265 -0.9038
vn 0.3944 0.4990 -0.7717
vn 0.6943 0.4954 -0.5220
vn 0.8884 0.4165 -0.1929
vn 0.9473 0.2741 0.1655
vn 0.8620 0.0900 0.4988
vn -0.3183 0.8619 0.3946
vn 0.6455 -0.1078 0.7561
vn 0.3306 -0.2892 0.8984
vn 0.3183 -0.8619 -0.3946
s off
f 2//1 3//1 1//1
f 4//2 5//2 3//2
f 6//3 7//3 5//3
f 8//4 9//4 7//4
f 10//5 11//5 9//5
f 12//6 13//6 11//6
f 14//7 15//7 13//7
f 16//8 17//8 15//8
f 18//9 19//9 17//9
f 20//10 21//10 19//10
f 22//11 23//11 21//11
f 24//12 25//12 23//12
f 26//13 27//13 25//13
f 28//14 29//14 27//14
f 22//15 14//15 6//15
f 30//16 31//16 29//16
f 32//17 1//17 31//17
f 15//18 23//18 31//18
f 2//1 4//1 3//1
f 4//2 6//2 5//2
f 6//3 8//3 7//3
f 8//4 10//4 9//4
f 10//5 12//5 11//5
f 12//6 14//6 13//6
f 14//7 16//7 15//7
f 16//8 18//8 17//8
f 18//9 20//9 19//9
f 20//10 22//10 21//10
f 22//11 24//11 23//11
f 24//12 26//12 25//12
f 26//13 28//13 27//13
f 28//14 30//14 29//14
f 6//15 4//15 2//15
f 2//15 32//15 6//15
f 32//15 30//15 6//15
f 30//15 28//15 26//15
f 26//15 24//15 22//15
f 22//15 20//15 14//15
f 20//15 18//15 14//15
f 18//15 16//15 14//15
f 14//15 12//15 10//15
f 10//15 8//15 14//15
f 8//15 6//15 14//15
f 30//15 26//15 22//15
f 6//15 30//15 22//15
f 30//16 32//16 31//16
f 32//17 2//17 1//17
f 31//18 1//18 3//18
f 3//18 5//18 7//18
f 7//18 9//18 11//18
f 11//18 13//18 15//18
f 15//18 17//18 19//18
f 19//18 21//18 15//18
f 21//18 23//18 15//18
f 23//18 25//18 27//18
f 27//18 29//18 23//18
f 29//18 31//18 23//18
f 31//18 3//18 7//18
f 7//18 11//18 15//18
f 31//18 7//18 15//18
