# Blender v2.83.0 OBJ File: ''
# www.blender.org
o Cylinder.054_Cylinder.1483
v -2.635827 -2.142385 0.226409
v -1.553827 -0.717283 1.119921
v -2.859108 -1.827576 -0.005309
v -1.777109 -0.402475 0.888202
v -2.948387 -1.546531 -0.345449
v -1.866387 -0.121430 0.548062
v -2.890070 -1.342035 -0.742227
v -1.808071 0.083066 0.151284
v -2.693037 -1.245222 -1.135238
v -1.611037 0.179880 -0.241726
v -2.387283 -1.270829 -1.464648
v -1.305284 0.154272 -0.571137
v -2.019358 -1.414959 -1.680309
v -0.937358 0.010142 -0.786798
v -1.645274 -1.655669 -1.749388
v -0.563274 -0.230568 -0.855876
v -1.321982 -1.956314 -1.661368
v -0.239982 -0.531212 -0.767856
v -1.098700 -2.271122 -1.429649
v -0.016701 -0.846020 -0.536138
v -1.009422 -2.552167 -1.089509
v 0.072578 -1.127066 -0.195998
v -1.067738 -2.756663 -0.692731
v 0.014261 -1.331561 0.200780
v -1.264772 -2.853477 -0.299720
v -0.182772 -1.428375 0.593791
v -1.570525 -2.827869 0.029690
v -0.488526 -1.402768 0.923201
v -1.938451 -2.683739 0.245351
v -0.856452 -1.258637 1.138862
v -2.312535 -2.443028 0.314429
v -1.230536 -1.017927 1.207941
vn -0.6792 0.0569 0.7317
vn -0.8173 0.3202 0.4791
vn -0.8310 0.5347 0.1535
vn -0.7182 0.6678 -0.1955
vn -0.4960 0.6993 -0.5147
vn -0.1983 0.6243 -0.7556
vn 0.1295 0.4543 -0.8814
vn 0.4377 0.2151 -0.8730
vn 0.6792 -0.0569 -0.7317
vn 0.8173 -0.3202 -0.4791
vn 0.8310 -0.5347 -0.1535
vn 0.7182 -0.6678 0.1955
vn 0.4960 -0.6993 0.5147
vn 0.1983 -0.6243 0.7556
vn 0.5410 0.7126 0.4468
vn -0.1295 -0.4543 0.8814
vn -0.4377 -0.2151 0.8730
vn -0.5410 -0.7126 -0.4468
s off
f 2//1 3//1 1//1
f 4//2 5//2 3//2
f 6//3 7//3 5//3
f 8//4 9//4 7//4
f 10//5 11//5 9//5
f 12//6 13//6 11//6
f 14//7 15//7 13//7
f 16//8 17//8 15//8
f 18//9 19//9 17//9
f 20//10 21//10 19//10
f 22//11 23//11 21//11
f 24//12 25//12 23//12
f 26//13 27//13 25//13
f 28//14 29//14 27//14
f 6//15 30//15 22//15
f 30//16 31//16 29//16
f 31//17 2//17 1//17
f 15//18 23//18 31//18
f 2//1 4//1 3//1
f 4//2 6//2 5//2
f 6//3 8//3 7//3
f 8//4 10//4 9//4
f 10//5 12//5 11//5
f 12//6 14//6 13//6
f 14//7 16//7 15//7
f 16//8 18//8 17//8
f 18//9 20//9 19//9
f 20//10 22//10 21//10
f 22//11 24//11 23//11
f 24//12 26//12 25//12
f 26//13 28//13 27//13
f 28//14 30//14 29//14
f 6//15 4//15 2//15
f 2//15 32//15 30//15
f 30//15 28//15 22//15
f 28//15 26//15 22//15
f 26//15 24//15 22//15
f 22//15 20//15 18//15
f 18//15 16//15 14//15
f 14//15 12//15 10//15
f 10//15 8//15 6//15
f 6//15 2//15 30//15
f 22//15 18//15 6//15
f 18//15 14//15 6//15
f 14//15 10//15 6//15
f 30//16 32//16 31//16
f 31//17 32//17 2//17
f 31//18 1//18 3//18
f 3//18 5//18 31//18
f 5//18 7//18 31//18
f 7//18 9//18 11//18
f 11//18 13//18 7//18
f 13//18 15//18 7//18
f 15//18 17//18 19//18
f 19//18 21//18 23//18
f 23//18 25//18 27//18
f 27//18 29//18 31//18
f 15//18 19//18 23//18
f 23//18 27//18 31//18
f 31//18 7//18 15//18
