# Blender v2.83.0 OBJ File: ''
# www.blender.org
o Cylinder.331_Cylinder.1760
v -0.187092 0.070144 -1.115683
v 1.500715 -0.253720 -2.138630
v -0.346380 -0.289152 -1.264746
v 1.341427 -0.613016 -2.287693
v -0.432453 -0.700415 -1.276557
v 1.255354 -1.024279 -2.299504
v -0.432209 -1.101035 -1.149320
v 1.255598 -1.424898 -2.172266
v -0.345685 -1.430020 -0.902403
v 1.342122 -1.753884 -1.925349
v -0.186053 -1.637286 -0.573398
v 1.501754 -1.961150 -1.596345
v 0.022385 -1.691279 -0.212393
v 1.710192 -2.015142 -1.235340
v 0.247895 -1.583777 0.125651
v 1.935702 -1.907641 -0.897295
v 0.456146 -1.331149 0.389272
v 2.143953 -1.655012 -0.633674
v 0.615433 -0.971853 0.538335
v 2.303240 -1.295717 -0.484611
v 0.701507 -0.560590 0.550147
v 2.389314 -0.884453 -0.472799
v 0.701263 -0.159970 0.422909
v 2.389070 -0.483833 -0.600037
v 0.614739 0.169016 0.175992
v 2.302546 -0.154848 -0.846954
v 0.455106 0.376282 -0.153013
v 2.142913 0.052418 -1.175959
v 0.246669 0.430274 -0.514017
v 1.934476 0.106410 -1.536964
v 0.021158 0.322772 -0.852062
v 1.708965 -0.001091 -1.875009
vn -0.3798 0.4931 -0.7827
vn -0.4959 0.1284 -0.8588
vn -0.5365 -0.2557 -0.8042
vn -0.4954 -0.6010 -0.6272
vn -0.3789 -0.8548 -0.3546
vn -0.2048 -0.9784 -0.0281
vn 0.0006 -0.9531 0.3027
vn 0.2058 -0.7827 0.5874
vn 0.3798 -0.4931 0.7827
vn 0.4959 -0.1284 0.8588
vn 0.5365 0.2557 0.8042
vn 0.4954 0.6010 0.6272
vn 0.3789 0.8548 0.3546
vn 0.2048 0.9784 0.0281
vn 0.8439 -0.1619 -0.5115
vn -0.0006 0.9531 -0.3027
vn -0.2058 0.7827 -0.5874
vn -0.8439 0.1619 0.5115
s off
f 1//1 4//1 3//1
f 4//2 5//2 3//2
f 6//3 7//3 5//3
f 8//4 9//4 7//4
f 10//5 11//5 9//5
f 12//6 13//6 11//6
f 14//7 15//7 13//7
f 16//8 17//8 15//8
f 18//9 19//9 17//9
f 19//10 22//10 21//10
f 22//11 23//11 21//11
f 24//12 25//12 23//12
f 26//13 27//13 25//13
f 28//14 29//14 27//14
f 22//15 14//15 6//15
f 30//16 31//16 29//16
f 32//17 1//17 31//17
f 15//18 23//18 31//18
f 1//1 2//1 4//1
f 4//2 6//2 5//2
f 6//3 8//3 7//3
f 8//4 10//4 9//4
f 10//5 12//5 11//5
f 12//6 14//6 13//6
f 14//7 16//7 15//7
f 16//8 18//8 17//8
f 18//9 20//9 19//9
f 19//10 20//10 22//10
f 22//11 24//11 23//11
f 24//12 26//12 25//12
f 26//13 28//13 27//13
f 28//14 30//14 29//14
f 6//15 4//15 2//15
f 2//15 32//15 30//15
f 30//15 28//15 26//15
f 26//15 24//15 30//15
f 24//15 22//15 30//15
f 22//15 20//15 18//15
f 18//15 16//15 14//15
f 14//15 12//15 10//15
f 10//15 8//15 14//15
f 8//15 6//15 14//15
f 6//15 2//15 22//15
f 2//15 30//15 22//15
f 22//15 18//15 14//15
f 30//16 32//16 31//16
f 32//17 2//17 1//17
f 31//18 1//18 3//18
f 3//18 5//18 7//18
f 7//18 9//18 11//18
f 11//18 13//18 7//18
f 13//18 15//18 7//18
f 15//18 17//18 19//18
f 19//18 21//18 23//18
f 23//18 25//18 27//18
f 27//18 29//18 23//18
f 29//18 31//18 23//18
f 31//18 3//18 7//18
f 15//18 19//18 23//18
f 31//18 7//18 15//18
