# Blender v2.83.0 OBJ File: ''
# www.blender.org
o Cylinder.103_Cylinder.1532
v -1.211878 0.647272 0.488721
v -3.095757 0.879852 1.118726
v -1.164787 1.003651 0.497972
v -3.048666 1.236231 1.127977
v -1.078731 1.323890 0.637076
v -2.962610 1.556470 1.267082
v -0.966813 1.559237 0.884856
v -2.850692 1.791817 1.514862
v -0.846071 1.673862 1.203590
v -2.729950 1.906442 1.833596
v -0.734887 1.650314 1.544754
v -2.618766 1.882894 2.174759
v -0.650187 1.492179 1.856407
v -2.534066 1.724759 2.486413
v -0.604866 1.223530 2.091105
v -2.488745 1.456110 2.721110
v -0.605825 0.885268 2.213115
v -2.489704 1.117848 2.843121
v -0.652916 0.528890 2.203865
v -2.536795 0.761470 2.833870
v -0.738971 0.208650 2.064760
v -2.622850 0.441230 2.694766
v -0.850889 -0.026697 1.816980
v -2.734768 0.205883 2.446985
v -0.971632 -0.141322 1.498246
v -2.855510 0.091258 2.128251
v -1.082816 -0.117774 1.157082
v -2.966695 0.114806 1.787088
v -1.167516 0.040362 0.845429
v -3.051395 0.272942 1.475434
v -1.212837 0.309011 0.610731
v -3.096715 0.541590 1.240737
vn -0.3092 0.0655 -0.9487
vn -0.2355 0.4398 -0.8667
vn -0.1260 0.7471 -0.6527
vn 0.0027 0.9407 -0.3393
vn 0.1310 0.9911 0.0257
vn 0.2393 0.8906 0.3868
vn 0.3112 0.6545 0.6891
vn 0.3358 0.3188 0.8864
vn 0.3092 -0.0655 0.9487
vn 0.2355 -0.4398 0.8667
vn 0.1260 -0.7471 0.6527
vn -0.0027 -0.9407 0.3393
vn -0.1310 -0.9911 -0.0257
vn -0.2393 -0.8906 -0.3868
vn -0.9419 0.1163 0.3150
vn -0.3112 -0.6545 -0.6891
vn -0.3358 -0.3188 -0.8864
vn 0.9419 -0.1163 -0.3150
s off
f 2//1 3//1 1//1
f 4//2 5//2 3//2
f 6//3 7//3 5//3
f 8//4 9//4 7//4
f 10//5 11//5 9//5
f 12//6 13//6 11//6
f 14//7 15//7 13//7
f 16//8 17//8 15//8
f 18//9 19//9 17//9
f 20//10 21//10 19//10
f 22//11 23//11 21//11
f 24//12 25//12 23//12
f 26//13 27//13 25//13
f 28//14 29//14 27//14
f 30//15 22//15 14//15
f 30//16 31//16 29//16
f 32//17 1//17 31//17
f 23//18 27//18 31//18
f 2//1 4//1 3//1
f 4//2 6//2 5//2
f 6//3 8//3 7//3
f 8//4 10//4 9//4
f 10//5 12//5 11//5
f 12//6 14//6 13//6
f 14//7 16//7 15//7
f 16//8 18//8 17//8
f 18//9 20//9 19//9
f 20//10 22//10 21//10
f 22//11 24//11 23//11
f 24//12 26//12 25//12
f 26//13 28//13 27//13
f 28//14 30//14 29//14
f 6//15 4//15 2//15
f 2//15 32//15 30//15
f 30//15 28//15 26//15
f 26//15 24//15 22//15
f 22//15 20//15 18//15
f 18//15 16//15 14//15
f 14//15 12//15 10//15
f 10//15 8//15 6//15
f 6//15 2//15 30//15
f 30//15 26//15 22//15
f 22//15 18//15 14//15
f 14//15 10//15 6//15
f 6//15 30//15 14//15
f 30//16 32//16 31//16
f 32//17 2//17 1//17
f 31//18 1//18 3//18
f 3//18 5//18 7//18
f 7//18 9//18 11//18
f 11//18 13//18 7//18
f 13//18 15//18 7//18
f 15//18 17//18 19//18
f 19//18 21//18 23//18
f 23//18 25//18 27//18
f 27//18 29//18 31//18
f 31//18 3//18 15//18
f 3//18 7//18 15//18
f 15//18 19//18 31//18
f 19//18 23//18 31//18
