# Blender v2.83.0 OBJ File: ''
# www.blender.org
o Cylinder.252_Cylinder.1681
v 0.066075 -0.409145 2.837414
v 1.982051 -0.395781 2.263956
v 0.045021 0.214655 2.781608
v 1.960997 0.228019 2.208149
v -0.042736 0.768202 2.501306
v 1.873240 0.781566 1.927848
v -0.183834 1.167223 2.039183
v 1.732142 1.180587 1.465725
v -0.356794 1.350971 1.465593
v 1.559183 1.364335 0.892134
v -0.535282 1.291472 0.867859
v 1.380694 1.304836 0.294400
v -0.692128 0.997784 0.336981
v 1.223849 1.011148 -0.236477
v -0.803451 0.514619 -0.046219
v 1.112526 0.527983 -0.619678
v -0.852304 -0.084467 -0.223404
v 1.063673 -0.071102 -0.796862
v -0.831249 -0.708267 -0.167597
v 1.084727 -0.694902 -0.741056
v -0.743493 -1.261814 0.112704
v 1.172483 -1.248449 -0.460755
v -0.602395 -1.660835 0.574827
v 1.313582 -1.647471 0.001369
v -0.429435 -1.844583 1.148418
v 1.486541 -1.831219 0.574959
v -0.250946 -1.785084 1.746152
v 1.665030 -1.771720 1.172693
v -0.094101 -1.491396 2.277030
v 1.821875 -1.478032 1.703571
v 0.017222 -1.008230 2.660230
v 1.933198 -0.994866 2.086772
vn 0.2848 0.0949 0.9539
vn 0.2503 0.4687 0.8472
vn 0.1776 0.7710 0.6115
vn 0.0780 0.9560 0.2828
vn -0.0336 0.9955 -0.0891
vn -0.1400 0.8833 -0.4473
vn -0.2252 0.6368 -0.7375
vn -0.2760 0.2932 -0.9153
vn -0.2848 -0.0949 -0.9539
vn -0.2503 -0.4687 -0.8472
vn -0.1776 -0.7710 -0.6115
vn -0.0780 -0.9560 -0.2828
vn 0.0336 -0.9955 0.0891
vn 0.1400 -0.8833 0.4473
vn 0.9580 0.0067 -0.2867
vn 0.2252 -0.6368 0.7375
vn 0.2760 -0.2932 0.9153
vn -0.9580 -0.0067 0.2867
s off
f 2//1 3//1 1//1
f 4//2 5//2 3//2
f 6//3 7//3 5//3
f 8//4 9//4 7//4
f 10//5 11//5 9//5
f 12//6 13//6 11//6
f 14//7 15//7 13//7
f 16//8 17//8 15//8
f 18//9 19//9 17//9
f 20//10 21//10 19//10
f 22//11 23//11 21//11
f 24//12 25//12 23//12
f 26//13 27//13 25//13
f 28//14 29//14 27//14
f 14//15 10//15 6//15
f 30//16 31//16 29//16
f 32//17 1//17 31//17
f 7//18 15//18 23//18
f 2//1 4//1 3//1
f 4//2 6//2 5//2
f 6//3 8//3 7//3
f 8//4 10//4 9//4
f 10//5 12//5 11//5
f 12//6 14//6 13//6
f 14//7 16//7 15//7
f 16//8 18//8 17//8
f 18//9 20//9 19//9
f 20//10 22//10 21//10
f 22//11 24//11 23//11
f 24//12 26//12 25//12
f 26//13 28//13 27//13
f 28//14 30//14 29//14
f 6//15 4//15 2//15
f 2//15 32//15 30//15
f 30//15 28//15 26//15
f 26//15 24//15 22//15
f 22//15 20//15 18//15
f 18//15 16//15 14//15
f 14//15 12//15 10//15
f 10//15 8//15 6//15
f 6//15 2//15 22//15
f 2//15 30//15 22//15
f 30//15 26//15 22//15
f 22//15 18//15 6//15
f 18//15 14//15 6//15
f 30//16 32//16 31//16
f 32//17 2//17 1//17
f 31//18 1//18 3//18
f 3//18 5//18 7//18
f 7//18 9//18 15//18
f 9//18 11//18 15//18
f 11//18 13//18 15//18
f 15//18 17//18 19//18
f 19//18 21//18 23//18
f 23//18 25//18 31//18
f 25//18 27//18 31//18
f 27//18 29//18 31//18
f 31//18 3//18 7//18
f 15//18 19//18 23//18
f 31//18 7//18 23//18
