# Blender v2.83.0 OBJ File: ''
# www.blender.org
o Cylinder.156_Cylinder.1585
v 0.857096 1.472765 0.767952
v -0.364283 1.551625 2.349727
v 0.994364 1.659631 0.864627
v -0.227016 1.738491 2.446403
v 1.176280 1.768134 0.999686
v -0.045099 1.846994 2.581461
v 1.375150 1.781756 1.152566
v 0.153771 1.860616 2.734342
v 1.560699 1.698423 1.299993
v 0.339320 1.777283 2.881769
v 1.704677 1.530821 1.419523
v 0.483298 1.609681 3.001298
v 1.785166 1.304467 1.492958
v 0.563787 1.383327 3.074733
v 1.789911 1.053821 1.509118
v 0.568532 1.132681 3.090893
v 1.718191 0.817040 1.465543
v 0.496812 0.895900 3.047319
v 1.580924 0.630174 1.368868
v 0.359545 0.709034 2.950644
v 1.399007 0.521671 1.233809
v 0.177628 0.600531 2.815585
v 1.200137 0.508049 1.080929
v -0.021242 0.586909 2.662705
v 1.014588 0.591382 0.933502
v -0.206791 0.670242 2.515278
v 0.870610 0.758984 0.813972
v -0.350769 0.837844 2.395748
v 0.790122 0.985338 0.740538
v -0.431258 1.064198 2.322313
v 0.785376 1.235985 0.724377
v -0.436003 1.314845 2.306153
vn -0.5731 0.6672 -0.4758
vn -0.3204 0.9011 -0.2923
vn -0.0189 0.9977 -0.0643
vn 0.2855 0.9426 0.1735
vn 0.5464 0.7439 0.3848
vn 0.7242 0.4319 0.5376
vn 0.7916 0.0542 0.6086
vn 0.7386 -0.3317 0.5869
vn 0.5731 -0.6672 0.4758
vn 0.3204 -0.9010 0.2923
vn 0.0189 -0.9977 0.0643
vn -0.2855 -0.9426 -0.1735
vn -0.5464 -0.7439 -0.3848
vn -0.7242 -0.4319 -0.5376
vn -0.6107 0.0394 0.7909
vn -0.7916 -0.0542 -0.6086
vn -0.7386 0.3317 -0.5869
vn 0.6107 -0.0394 -0.7909
vn -0.3204 0.9010 -0.2923
vn -0.0189 0.9978 -0.0643
s off
f 2//1 3//1 1//1
f 4//2 5//2 3//2
f 6//3 7//3 5//3
f 8//4 9//4 7//4
f 10//5 11//5 9//5
f 12//6 13//6 11//6
f 13//7 16//7 15//7
f 16//8 17//8 15//8
f 18//9 19//9 17//9
f 20//10 21//10 19//10
f 22//11 23//11 21//11
f 24//12 25//12 23//12
f 26//13 27//13 25//13
f 28//14 29//14 27//14
f 6//15 30//15 22//15
f 30//16 31//16 29//16
f 32//17 1//17 31//17
f 15//18 23//18 31//18
f 2//1 4//1 3//1
f 4//19 6//19 5//19
f 6//20 8//20 7//20
f 8//4 10//4 9//4
f 10//5 12//5 11//5
f 12//6 14//6 13//6
f 13//7 14//7 16//7
f 16//8 18//8 17//8
f 18//9 20//9 19//9
f 20//10 22//10 21//10
f 22//11 24//11 23//11
f 24//12 26//12 25//12
f 26//13 28//13 27//13
f 28//14 30//14 29//14
f 6//15 4//15 2//15
f 2//15 32//15 30//15
f 30//15 28//15 22//15
f 28//15 26//15 22//15
f 26//15 24//15 22//15
f 22//15 20//15 18//15
f 18//15 16//15 22//15
f 16//15 14//15 22//15
f 14//15 12//15 10//15
f 10//15 8//15 6//15
f 6//15 2//15 30//15
f 14//15 10//15 22//15
f 10//15 6//15 22//15
f 30//16 32//16 31//16
f 32//17 2//17 1//17
f 31//18 1//18 3//18
f 3//18 5//18 7//18
f 7//18 9//18 11//18
f 11//18 13//18 7//18
f 13//18 15//18 7//18
f 15//18 17//18 19//18
f 19//18 21//18 23//18
f 23//18 25//18 27//18
f 27//18 29//18 23//18
f 29//18 31//18 23//18
f 31//18 3//18 7//18
f 15//18 19//18 23//18
f 31//18 7//18 15//18
