# Blender v2.83.0 OBJ File: ''
# www.blender.org
o Cylinder.144_Cylinder.1573
v -0.159130 -0.873126 1.057427
v -0.060588 -2.290017 -0.350661
v -0.184526 -1.028794 1.212291
v -0.085984 -2.445685 -0.195796
v -0.124063 -1.176535 1.365187
v -0.025520 -2.593426 -0.042900
v 0.013055 -1.293857 1.492838
v 0.111598 -2.710747 0.084750
v 0.205952 -1.362898 1.575810
v 0.304495 -2.779788 0.167723
v 0.425262 -1.373147 1.601472
v 0.523805 -2.790038 0.193384
v 0.637597 -1.323045 1.565916
v 0.736139 -2.739936 0.157829
v 0.810630 -1.220219 1.474556
v 0.909172 -2.637109 0.066469
v 0.918019 -1.080322 1.341301
v 1.016562 -2.497213 -0.066787
v 0.943415 -0.924654 1.186437
v 1.041957 -2.341545 -0.221651
v 0.882952 -0.776913 1.033541
v 0.981494 -2.193804 -0.374547
v 0.745834 -0.659592 0.905890
v 0.844376 -2.076482 -0.502198
v 0.552937 -0.590551 0.822918
v 0.651479 -2.007442 -0.585170
v 0.333627 -0.580301 0.797256
v 0.432169 -1.997192 -0.610831
v 0.121292 -0.630404 0.832812
v 0.219835 -2.047294 -0.575276
v -0.051741 -0.733230 0.924172
v 0.046801 -2.150121 -0.483916
vn -0.9922 0.0464 -0.1161
vn -0.9606 -0.2267 0.1609
vn -0.7828 -0.4652 0.4133
vn -0.4858 -0.6329 0.6028
vn -0.1149 -0.7042 0.7006
vn 0.2735 -0.6684 0.6917
vn 0.6203 -0.5308 0.5775
vn 0.8727 -0.3123 0.3754
vn 0.9922 -0.0464 0.1161
vn 0.9606 0.2267 -0.1609
vn 0.7828 0.4652 -0.4133
vn 0.4858 0.6329 -0.6028
vn 0.1149 0.7042 -0.7006
vn -0.2735 0.6684 -0.6917
vn 0.0493 -0.7084 -0.7040
vn -0.6203 0.5308 -0.5775
vn -0.8727 0.3123 -0.3754
vn -0.0493 0.7084 0.7040
s off
f 2//1 3//1 1//1
f 4//2 5//2 3//2
f 6//3 7//3 5//3
f 7//4 10//4 9//4
f 10//5 11//5 9//5
f 12//6 13//6 11//6
f 14//7 15//7 13//7
f 16//8 17//8 15//8
f 18//9 19//9 17//9
f 20//10 21//10 19//10
f 22//11 23//11 21//11
f 24//12 25//12 23//12
f 26//13 27//13 25//13
f 28//14 29//14 27//14
f 22//15 14//15 6//15
f 30//16 31//16 29//16
f 32//17 1//17 31//17
f 7//18 15//18 23//18
f 2//1 4//1 3//1
f 4//2 6//2 5//2
f 6//3 8//3 7//3
f 7//4 8//4 10//4
f 10//5 12//5 11//5
f 12//6 14//6 13//6
f 14//7 16//7 15//7
f 16//8 18//8 17//8
f 18//9 20//9 19//9
f 20//10 22//10 21//10
f 22//11 24//11 23//11
f 24//12 26//12 25//12
f 26//13 28//13 27//13
f 28//14 30//14 29//14
f 6//15 4//15 2//15
f 2//15 32//15 30//15
f 30//15 28//15 26//15
f 26//15 24//15 22//15
f 22//15 20//15 14//15
f 20//15 18//15 14//15
f 18//15 16//15 14//15
f 14//15 12//15 6//15
f 12//15 10//15 6//15
f 10//15 8//15 6//15
f 6//15 2//15 30//15
f 30//15 26//15 22//15
f 6//15 30//15 22//15
f 30//16 32//16 31//16
f 32//17 2//17 1//17
f 31//18 1//18 3//18
f 3//18 5//18 31//18
f 5//18 7//18 31//18
f 7//18 9//18 11//18
f 11//18 13//18 7//18
f 13//18 15//18 7//18
f 15//18 17//18 19//18
f 19//18 21//18 23//18
f 23//18 25//18 27//18
f 27//18 29//18 31//18
f 15//18 19//18 23//18
f 23//18 27//18 31//18
f 31//18 7//18 23//18
