# Blender v2.83.0 OBJ File: ''
# www.blender.org
o Cylinder.012_Cylinder.1441
v -0.531557 -0.073919 2.268070
v 1.429172 0.235801 2.512233
v -0.571572 0.485524 1.879758
v 1.389157 0.795243 2.123921
v -0.559392 0.858568 1.308748
v 1.401337 1.168287 1.552911
v -0.496872 0.988421 0.641971
v 1.463857 1.298141 0.886134
v -0.393530 0.855315 -0.019064
v 1.567199 1.165035 0.225100
v -0.265099 0.479513 -0.573718
v 1.695630 0.789233 -0.329554
v -0.131131 -0.081772 -0.937551
v 1.829598 0.227948 -0.693387
v -0.012021 -0.743089 -1.055173
v 1.948708 -0.433370 -0.811009
v 0.074097 -1.403759 -0.908677
v 2.034826 -1.094040 -0.664513
v 0.114112 -1.963202 -0.520365
v 2.074841 -1.653482 -0.276202
v 0.101932 -2.336246 0.050645
v 2.062661 -2.026527 0.294808
v 0.039412 -2.466100 0.717422
v 2.000142 -2.156380 0.961586
v -0.063930 -2.332993 1.378456
v 1.896799 -2.023274 1.622620
v -0.192361 -1.957191 1.933111
v 1.768368 -1.647472 2.177274
v -0.326330 -1.395906 2.296944
v 1.634399 -1.086187 2.541108
v -0.445439 -0.734588 2.414566
v 1.515290 -0.424869 2.658729
vn -0.1883 0.5509 0.8131
vn -0.1964 0.8228 0.5333
vn -0.1746 0.9694 0.1724
vn -0.1262 0.9685 -0.2147
vn -0.0587 0.8201 -0.5692
vn 0.0179 0.5468 -0.8370
vn 0.0916 0.1904 -0.9774
vn 0.1515 -0.1951 -0.9690
vn 0.1883 -0.5509 -0.8131
vn 0.1964 -0.8228 -0.5333
vn 0.1746 -0.9694 -0.1724
vn 0.1262 -0.9685 0.2147
vn 0.0587 -0.8201 0.5692
vn -0.0179 -0.5468 0.8370
vn 0.9804 0.1549 0.1221
vn -0.0916 -0.1904 0.9774
vn -0.1515 0.1951 0.9690
vn -0.9804 -0.1549 -0.1221
s off
f 2//1 3//1 1//1
f 4//2 5//2 3//2
f 6//3 7//3 5//3
f 8//4 9//4 7//4
f 9//5 12//5 11//5
f 12//6 13//6 11//6
f 14//7 15//7 13//7
f 16//8 17//8 15//8
f 18//9 19//9 17//9
f 20//10 21//10 19//10
f 22//11 23//11 21//11
f 24//12 25//12 23//12
f 26//13 27//13 25//13
f 28//14 29//14 27//14
f 18//15 14//15 6//15
f 30//16 31//16 29//16
f 32//17 1//17 31//17
f 27//18 31//18 15//18
f 2//1 4//1 3//1
f 4//2 6//2 5//2
f 6//3 8//3 7//3
f 8//4 10//4 9//4
f 9//5 10//5 12//5
f 12//6 14//6 13//6
f 14//7 16//7 15//7
f 16//8 18//8 17//8
f 18//9 20//9 19//9
f 20//10 22//10 21//10
f 22//11 24//11 23//11
f 24//12 26//12 25//12
f 26//13 28//13 27//13
f 28//14 30//14 29//14
f 6//15 4//15 2//15
f 2//15 32//15 30//15
f 30//15 28//15 26//15
f 26//15 24//15 22//15
f 22//15 20//15 18//15
f 18//15 16//15 14//15
f 14//15 12//15 10//15
f 10//15 8//15 14//15
f 8//15 6//15 14//15
f 6//15 2//15 30//15
f 30//15 26//15 6//15
f 26//15 22//15 6//15
f 22//15 18//15 6//15
f 30//16 32//16 31//16
f 32//17 2//17 1//17
f 31//18 1//18 7//18
f 1//18 3//18 7//18
f 3//18 5//18 7//18
f 7//18 9//18 11//18
f 11//18 13//18 15//18
f 15//18 17//18 19//18
f 19//18 21//18 23//18
f 23//18 25//18 27//18
f 27//18 29//18 31//18
f 7//18 11//18 31//18
f 11//18 15//18 31//18
f 15//18 19//18 23//18
f 23//18 27//18 15//18
