# Blender v2.83.0 OBJ File: ''
# www.blender.org
o Cylinder.032_Cylinder.1461
v -1.044597 -0.402425 1.118659
v -2.614182 -0.002790 -0.054667
v -1.041775 -0.873195 0.954540
v -2.611361 -0.473560 -0.218785
v -0.920928 -1.258206 0.661745
v -2.490514 -0.858571 -0.511580
v -0.700454 -1.498845 0.284850
v -2.270039 -1.099210 -0.888476
v -0.413917 -1.558476 -0.118768
v -1.983502 -1.158842 -1.292094
v -0.104940 -1.428022 -0.487661
v -1.674525 -1.028387 -1.660987
v 0.179438 -1.127342 -0.765668
v -1.390148 -0.727707 -1.938994
v 0.395922 -0.702213 -0.910465
v -1.173664 -0.302578 -2.083791
v 0.511555 -0.217356 -0.900008
v -1.058030 0.182279 -2.073334
v 0.508734 0.253413 -0.735890
v -1.060852 0.653048 -1.909215
v 0.387887 0.638425 -0.443095
v -1.181699 1.038060 -1.616421
v 0.167412 0.879064 -0.066199
v -1.402174 1.278699 -1.239525
v -0.119125 0.938695 0.337419
v -1.688711 1.338330 -0.835907
v -0.428102 0.808241 0.706312
v -1.997687 1.207876 -0.467014
v -0.712479 0.507561 0.984319
v -2.282065 0.907196 -0.189007
v -0.928964 0.082431 1.129116
v -2.498549 0.482066 -0.044210
vn -0.6197 -0.2617 0.7399
vn -0.5704 -0.6031 0.5576
vn -0.4342 -0.8527 0.2904
vn -0.2319 -0.9725 -0.0210
vn 0.0057 -0.9442 -0.3292
vn 0.2424 -0.7722 -0.5873
vn 0.4422 -0.4827 -0.7560
vn 0.5747 -0.1196 -0.8096
vn 0.6197 0.2617 -0.7399
vn 0.5704 0.6031 -0.5576
vn 0.4342 0.8527 -0.2904
vn 0.2319 0.9725 0.0210
vn -0.0057 0.9442 0.3292
vn -0.2424 0.7722 0.5873
vn -0.7848 0.1998 -0.5867
vn -0.4422 0.4827 0.7560
vn -0.5747 0.1196 0.8096
vn 0.7848 -0.1998 0.5867
s off
f 2//1 3//1 1//1
f 4//2 5//2 3//2
f 6//3 7//3 5//3
f 8//4 9//4 7//4
f 10//5 11//5 9//5
f 12//6 13//6 11//6
f 14//7 15//7 13//7
f 16//8 17//8 15//8
f 18//9 19//9 17//9
f 20//10 21//10 19//10
f 22//11 23//11 21//11
f 24//12 25//12 23//12
f 26//13 27//13 25//13
f 28//14 29//14 27//14
f 22//15 14//15 6//15
f 30//16 31//16 29//16
f 32//17 1//17 31//17
f 7//18 15//18 23//18
f 2//1 4//1 3//1
f 4//2 6//2 5//2
f 6//3 8//3 7//3
f 8//4 10//4 9//4
f 10//5 12//5 11//5
f 12//6 14//6 13//6
f 14//7 16//7 15//7
f 16//8 18//8 17//8
f 18//9 20//9 19//9
f 20//10 22//10 21//10
f 22//11 24//11 23//11
f 24//12 26//12 25//12
f 26//13 28//13 27//13
f 28//14 30//14 29//14
f 6//15 4//15 2//15
f 2//15 32//15 30//15
f 30//15 28//15 26//15
f 26//15 24//15 22//15
f 22//15 20//15 18//15
f 18//15 16//15 22//15
f 16//15 14//15 22//15
f 14//15 12//15 10//15
f 10//15 8//15 6//15
f 6//15 2//15 22//15
f 2//15 30//15 22//15
f 30//15 26//15 22//15
f 14//15 10//15 6//15
f 30//16 32//16 31//16
f 32//17 2//17 1//17
f 31//18 1//18 3//18
f 3//18 5//18 7//18
f 7//18 9//18 11//18
f 11//18 13//18 7//18
f 13//18 15//18 7//18
f 15//18 17//18 19//18
f 19//18 21//18 15//18
f 21//18 23//18 15//18
f 23//18 25//18 27//18
f 27//18 29//18 31//18
f 31//18 3//18 7//18
f 23//18 27//18 31//18
f 31//18 7//18 23//18
