# Blender v2.83.0 OBJ File: ''
# www.blender.org
o Cylinder.008_Cylinder.1437
v 2.720029 0.631153 -2.674221
v 0.798877 0.114637 -2.880097
v 2.591429 1.066288 -2.565866
v 0.670276 0.549772 -2.771742
v 2.466185 1.423403 -2.293096
v 0.545032 0.906887 -2.498972
v 2.363365 1.648131 -1.897437
v 0.442212 1.131616 -2.103313
v 2.298622 1.706260 -1.439125
v 0.377470 1.189744 -1.645001
v 2.281814 1.588940 -0.987933
v 0.360662 1.072424 -1.193809
v 2.315498 1.314031 -0.612551
v 0.394346 0.797515 -0.818427
v 2.394547 0.923386 -0.370128
v 0.473395 0.406870 -0.576004
v 2.506926 0.476478 -0.297571
v 0.585774 -0.040038 -0.503447
v 2.635527 0.041343 -0.405925
v 0.714375 -0.475173 -0.611801
v 2.760771 -0.315772 -0.678695
v 0.839618 -0.832288 -0.884571
v 2.863591 -0.540501 -1.074354
v 0.942438 -1.057017 -1.280230
v 2.928333 -0.598630 -1.532667
v 1.007181 -1.115146 -1.738543
v 2.945142 -0.481309 -1.983859
v 1.023989 -0.997825 -2.189735
v 2.911457 -0.206400 -2.359241
v 0.990305 -0.722916 -2.565117
v 2.832408 0.184245 -2.601664
v 0.911256 -0.332271 -2.807539
vn 0.0360 0.2515 -0.9672
vn -0.0722 0.5893 -0.8047
vn -0.1695 0.8374 -0.5197
vn -0.2409 0.9580 -0.1555
vn -0.2757 0.9328 0.2323
vn -0.2685 0.7655 0.5847
vn -0.2204 0.4817 0.8481
vn -0.1388 0.1246 0.9825
vn -0.0360 -0.2515 0.9672
vn 0.0722 -0.5893 0.8047
vn 0.1695 -0.8374 0.5197
vn 0.2409 -0.9580 0.1555
vn 0.2757 -0.9328 -0.2323
vn 0.2685 -0.7655 -0.5847
vn -0.9606 -0.2583 -0.1029
vn 0.2204 -0.4817 -0.8481
vn 0.1388 -0.1246 -0.9825
vn 0.9606 0.2583 0.1029
s off
f 2//1 3//1 1//1
f 4//2 5//2 3//2
f 6//3 7//3 5//3
f 8//4 9//4 7//4
f 10//5 11//5 9//5
f 12//6 13//6 11//6
f 14//7 15//7 13//7
f 16//8 17//8 15//8
f 18//9 19//9 17//9
f 20//10 21//10 19//10
f 22//11 23//11 21//11
f 24//12 25//12 23//12
f 26//13 27//13 25//13
f 28//14 29//14 27//14
f 30//15 22//15 14//15
f 30//16 31//16 29//16
f 32//17 1//17 31//17
f 31//18 7//18 15//18
f 2//1 4//1 3//1
f 4//2 6//2 5//2
f 6//3 8//3 7//3
f 8//4 10//4 9//4
f 10//5 12//5 11//5
f 12//6 14//6 13//6
f 14//7 16//7 15//7
f 16//8 18//8 17//8
f 18//9 20//9 19//9
f 20//10 22//10 21//10
f 22//11 24//11 23//11
f 24//12 26//12 25//12
f 26//13 28//13 27//13
f 28//14 30//14 29//14
f 6//15 4//15 2//15
f 2//15 32//15 30//15
f 30//15 28//15 22//15
f 28//15 26//15 22//15
f 26//15 24//15 22//15
f 22//15 20//15 14//15
f 20//15 18//15 14//15
f 18//15 16//15 14//15
f 14//15 12//15 10//15
f 10//15 8//15 6//15
f 6//15 2//15 30//15
f 14//15 10//15 6//15
f 6//15 30//15 14//15
f 30//16 32//16 31//16
f 32//17 2//17 1//17
f 31//18 1//18 3//18
f 3//18 5//18 31//18
f 5//18 7//18 31//18
f 7//18 9//18 15//18
f 9//18 11//18 15//18
f 11//18 13//18 15//18
f 15//18 17//18 19//18
f 19//18 21//18 23//18
f 23//18 25//18 27//18
f 27//18 29//18 23//18
f 29//18 31//18 23//18
f 15//18 19//18 31//18
f 19//18 23//18 31//18
