# Blender v2.83.0 OBJ File: ''
# www.blender.org
o Cylinder.024_Cylinder.1453
v 3.101190 -0.512375 1.667567
v 1.251955 -0.522090 0.905834
v 3.096575 -0.218870 1.675027
v 1.247340 -0.228585 0.913294
v 3.049547 0.048980 1.785780
v 1.200312 0.039265 1.024047
v 2.967264 0.250399 1.982965
v 1.118030 0.240684 1.221233
v 2.862255 0.354722 2.236563
v 1.013020 0.345007 1.474830
v 2.750505 0.346067 2.507965
v 0.901270 0.336351 1.746232
v 2.649028 0.225751 2.755853
v 0.799793 0.216036 1.994120
v 2.573272 0.012091 2.942488
v 0.724037 0.002376 2.180755
v 2.534771 -0.262384 3.039456
v 0.685536 -0.272099 2.277724
v 2.539386 -0.555888 3.031996
v 0.690151 -0.565604 2.270264
v 2.586414 -0.823739 2.921243
v 0.737180 -0.833454 2.159511
v 2.668696 -1.025158 2.724058
v 0.819462 -1.034873 1.962325
v 2.773706 -1.129481 2.470460
v 0.924471 -1.139196 1.708728
v 2.885456 -1.120826 2.199058
v 1.036221 -1.130541 1.437326
v 2.986933 -1.000510 1.951171
v 1.137698 -1.010225 1.189438
v 3.062689 -0.786850 1.764535
v 1.213454 -0.796565 1.002803
vn 0.3806 0.0295 -0.9243
vn 0.3456 0.4097 -0.8442
vn 0.2580 0.7276 -0.6356
vn 0.1311 0.9347 -0.3302
vn -0.0157 0.9996 0.0254
vn -0.1602 0.9122 0.3772
vn -0.2802 0.6859 0.6715
vn -0.3576 0.3553 0.8636
vn -0.3806 -0.0295 0.9243
vn -0.3456 -0.4097 0.8442
vn -0.2580 -0.7276 0.6356
vn -0.1311 -0.9347 0.3302
vn 0.0157 -0.9996 -0.0254
vn 0.1602 -0.9122 -0.3772
vn -0.9246 -0.0049 -0.3809
vn 0.2802 -0.6859 -0.6715
vn 0.3576 -0.3553 -0.8636
vn 0.9246 0.0049 0.3809
s off
f 2//1 3//1 1//1
f 4//2 5//2 3//2
f 6//3 7//3 5//3
f 8//4 9//4 7//4
f 10//5 11//5 9//5
f 12//6 13//6 11//6
f 14//7 15//7 13//7
f 16//8 17//8 15//8
f 18//9 19//9 17//9
f 20//10 21//10 19//10
f 22//11 23//11 21//11
f 24//12 25//12 23//12
f 26//13 27//13 25//13
f 28//14 29//14 27//14
f 18//15 14//15 6//15
f 30//16 31//16 29//16
f 32//17 1//17 31//17
f 31//18 7//18 15//18
f 2//1 4//1 3//1
f 4//2 6//2 5//2
f 6//3 8//3 7//3
f 8//4 10//4 9//4
f 10//5 12//5 11//5
f 12//6 14//6 13//6
f 14//7 16//7 15//7
f 16//8 18//8 17//8
f 18//9 20//9 19//9
f 20//10 22//10 21//10
f 22//11 24//11 23//11
f 24//12 26//12 25//12
f 26//13 28//13 27//13
f 28//14 30//14 29//14
f 6//15 4//15 2//15
f 2//15 32//15 30//15
f 30//15 28//15 26//15
f 26//15 24//15 22//15
f 22//15 20//15 18//15
f 18//15 16//15 14//15
f 14//15 12//15 10//15
f 10//15 8//15 14//15
f 8//15 6//15 14//15
f 6//15 2//15 22//15
f 2//15 30//15 22//15
f 30//15 26//15 22//15
f 22//15 18//15 6//15
f 30//16 32//16 31//16
f 32//17 2//17 1//17
f 31//18 1//18 3//18
f 3//18 5//18 7//18
f 7//18 9//18 11//18
f 11//18 13//18 7//18
f 13//18 15//18 7//18
f 15//18 17//18 19//18
f 19//18 21//18 23//18
f 23//18 25//18 27//18
f 27//18 29//18 23//18
f 29//18 31//18 23//18
f 31//18 3//18 7//18
f 15//18 19//18 31//18
f 19//18 23//18 31//18
