# Blender v2.83.0 OBJ File: ''
# www.blender.org
o Cylinder.219_Cylinder.1648
v 0.980909 2.530615 -1.373450
v 1.466500 3.212592 0.442894
v 1.369907 2.519184 -1.473155
v 1.855499 3.201161 0.343190
v 1.738333 2.364165 -1.513448
v 2.223924 3.046143 0.302897
v 2.030096 2.089160 -1.488194
v 2.515687 2.771137 0.328151
v 2.200779 1.736034 -1.401238
v 2.686370 2.418011 0.415107
v 2.224396 1.358548 -1.265818
v 2.709987 2.040525 0.550526
v 2.097352 1.014171 -1.102551
v 2.582943 1.696149 0.713793
v 1.838988 0.755332 -0.936293
v 2.324579 1.437309 0.880051
v 1.488638 0.621435 -0.792355
v 1.974230 1.303412 1.023989
v 1.099640 0.632866 -0.692650
v 1.585231 1.314843 1.123694
v 0.731214 0.787884 -0.652357
v 1.216805 1.469861 1.163987
v 0.439451 1.062890 -0.677611
v 0.925042 1.744867 1.138733
v 0.268768 1.416016 -0.764567
v 0.754359 2.097993 1.051777
v 0.245151 1.793501 -0.899987
v 0.730742 2.475479 0.916358
v 0.372195 2.137878 -1.063254
v 0.857786 2.819856 0.753091
v 0.630559 2.396718 -1.229512
v 1.116150 3.078696 0.586833
vn -0.0588 0.9396 -0.3371
vn 0.3162 0.8572 -0.4064
vn 0.6431 0.6443 -0.4138
vn 0.8721 0.3333 -0.3583
vn 0.9683 -0.0285 -0.2482
vn 0.9171 -0.3859 -0.1003
vn 0.7263 -0.6845 0.0629
vn 0.4249 -0.8790 0.2165
vn 0.0588 -0.9396 0.3371
vn -0.3162 -0.8572 0.4064
vn -0.6431 -0.6443 0.4138
vn -0.8721 -0.3333 0.3583
vn -0.9683 0.0285 0.2482
vn -0.9171 0.3859 0.1003
vn 0.2428 0.3410 0.9082
vn -0.7263 0.6845 -0.0629
vn -0.4249 0.8790 -0.2165
vn -0.2428 -0.3410 -0.9082
s off
f 2//1 3//1 1//1
f 4//2 5//2 3//2
f 6//3 7//3 5//3
f 8//4 9//4 7//4
f 10//5 11//5 9//5
f 12//6 13//6 11//6
f 14//7 15//7 13//7
f 16//8 17//8 15//8
f 18//9 19//9 17//9
f 20//10 21//10 19//10
f 22//11 23//11 21//11
f 24//12 25//12 23//12
f 26//13 27//13 25//13
f 28//14 29//14 27//14
f 22//15 14//15 6//15
f 30//16 31//16 29//16
f 32//17 1//17 31//17
f 7//18 15//18 23//18
f 2//1 4//1 3//1
f 4//2 6//2 5//2
f 6//3 8//3 7//3
f 8//4 10//4 9//4
f 10//5 12//5 11//5
f 12//6 14//6 13//6
f 14//7 16//7 15//7
f 16//8 18//8 17//8
f 18//9 20//9 19//9
f 20//10 22//10 21//10
f 22//11 24//11 23//11
f 24//12 26//12 25//12
f 26//13 28//13 27//13
f 28//14 30//14 29//14
f 6//15 4//15 30//15
f 4//15 2//15 30//15
f 2//15 32//15 30//15
f 30//15 28//15 26//15
f 26//15 24//15 22//15
f 22//15 20//15 14//15
f 20//15 18//15 14//15
f 18//15 16//15 14//15
f 14//15 12//15 6//15
f 12//15 10//15 6//15
f 10//15 8//15 6//15
f 30//15 26//15 22//15
f 6//15 30//15 22//15
f 30//16 32//16 31//16
f 32//17 2//17 1//17
f 31//18 1//18 3//18
f 3//18 5//18 7//18
f 7//18 9//18 11//18
f 11//18 13//18 7//18
f 13//18 15//18 7//18
f 15//18 17//18 19//18
f 19//18 21//18 15//18
f 21//18 23//18 15//18
f 23//18 25//18 27//18
f 27//18 29//18 23//18
f 29//18 31//18 23//18
f 31//18 3//18 7//18
f 31//18 7//18 23//18
