# Blender v2.83.0 OBJ File: ''
# www.blender.org
o Cylinder.305_Cylinder.1734
v 1.124356 2.876919 2.294173
v 0.008889 1.222768 2.433879
v 1.356830 2.762650 2.797362
v 0.241363 1.108499 2.937068
v 1.727816 2.543467 3.164280
v 0.612349 0.889315 3.303985
v 2.180836 2.252737 3.339065
v 1.065369 0.598586 3.478771
v 2.646921 1.934723 3.295110
v 1.531454 0.280572 3.434815
v 3.055115 1.637839 3.039104
v 1.939648 -0.016313 3.178810
v 3.343273 1.407282 2.610025
v 2.227806 -0.246869 2.749730
v 3.467525 1.278154 2.073194
v 2.352058 -0.375997 2.212899
v 3.408957 1.270112 1.510339
v 2.293489 -0.384039 1.650044
v 3.176483 1.384381 1.007150
v 2.061016 -0.269770 1.146855
v 2.805497 1.603565 0.640232
v 1.690030 -0.050587 0.779938
v 2.352477 1.894294 0.465447
v 1.237010 0.240143 0.605152
v 1.886391 2.212308 0.509402
v 0.770924 0.558157 0.649108
v 1.478198 2.509193 0.765407
v 0.362731 0.855041 0.905113
v 1.190040 2.739749 1.194487
v 0.074573 1.085598 1.334193
v 1.065787 2.868878 1.731319
v -0.049680 1.214726 1.871024
vn -0.7213 0.5246 0.4523
vn -0.5092 0.4074 0.7582
vn -0.2195 0.2282 0.9485
vn 0.1035 0.0142 0.9945
vn 0.4108 -0.2019 0.8891
vn 0.6555 -0.3873 0.6483
vn 0.8005 -0.5137 0.3088
vn 0.8235 -0.5619 -0.0777
vn 0.7213 -0.5246 -0.4523
vn 0.5092 -0.4074 -0.7582
vn 0.2195 -0.2282 -0.9485
vn -0.1035 -0.0142 -0.9945
vn -0.4108 0.2019 -0.8891
vn -0.6555 0.3873 -0.6483
vn -0.5577 -0.8271 0.0699
vn -0.8005 0.5137 -0.3088
vn -0.8235 0.5619 0.0777
vn 0.5577 0.8271 -0.0699
s off
f 2//1 3//1 1//1
f 4//2 5//2 3//2
f 6//3 7//3 5//3
f 8//4 9//4 7//4
f 10//5 11//5 9//5
f 12//6 13//6 11//6
f 14//7 15//7 13//7
f 16//8 17//8 15//8
f 18//9 19//9 17//9
f 20//10 21//10 19//10
f 22//11 23//11 21//11
f 24//12 25//12 23//12
f 26//13 27//13 25//13
f 27//14 30//14 29//14
f 6//15 30//15 22//15
f 30//16 31//16 29//16
f 32//17 1//17 31//17
f 15//18 23//18 31//18
f 2//1 4//1 3//1
f 4//2 6//2 5//2
f 6//3 8//3 7//3
f 8//4 10//4 9//4
f 10//5 12//5 11//5
f 12//6 14//6 13//6
f 14//7 16//7 15//7
f 16//8 18//8 17//8
f 18//9 20//9 19//9
f 20//10 22//10 21//10
f 22//11 24//11 23//11
f 24//12 26//12 25//12
f 26//13 28//13 27//13
f 27//14 28//14 30//14
f 6//15 4//15 30//15
f 4//15 2//15 30//15
f 2//15 32//15 30//15
f 30//15 28//15 26//15
f 26//15 24//15 22//15
f 22//15 20//15 18//15
f 18//15 16//15 14//15
f 14//15 12//15 10//15
f 10//15 8//15 14//15
f 8//15 6//15 14//15
f 30//15 26//15 22//15
f 22//15 18//15 6//15
f 18//15 14//15 6//15
f 30//16 32//16 31//16
f 32//17 2//17 1//17
f 31//18 1//18 3//18
f 3//18 5//18 7//18
f 7//18 9//18 11//18
f 11//18 13//18 15//18
f 15//18 17//18 19//18
f 19//18 21//18 23//18
f 23//18 25//18 27//18
f 27//18 29//18 31//18
f 31//18 3//18 7//18
f 7//18 11//18 15//18
f 15//18 19//18 23//18
f 23//18 27//18 31//18
f 31//18 7//18 15//18
