# Blender v2.83.0 OBJ File: ''
# www.blender.org
o Cylinder.310_Cylinder.1739
v 0.796232 -0.524459 3.604854
v -1.164017 -0.714171 3.256378
v 0.925532 -1.153382 3.219901
v -1.034716 -1.343094 2.871425
v 1.072952 -1.581422 2.623662
v -0.887296 -1.771134 2.275187
v 1.216048 -1.743415 1.906911
v -0.744201 -1.933127 1.558434
v 1.333034 -1.614699 1.178764
v -0.627214 -1.804411 0.830287
v 1.406102 -1.214868 0.550076
v -0.554147 -1.404580 0.201600
v 1.424126 -0.604794 0.116559
v -0.536123 -0.794506 -0.231917
v 1.384363 0.122644 -0.055787
v -0.575885 -0.067068 -0.404264
v 1.292867 0.856702 0.059274
v -0.667382 0.666990 -0.289202
v 1.163566 1.485625 0.444227
v -0.796682 1.295913 0.095750
v 1.016146 1.913666 1.040465
v -0.944102 1.723954 0.691988
v 0.873051 2.075659 1.757217
v -1.087198 1.885947 1.408741
v 0.756064 1.946942 2.485364
v -1.204184 1.757230 2.136888
v 0.682997 1.547111 3.114052
v -1.277252 1.357399 2.765576
v 0.664972 0.937037 3.547569
v -1.295276 0.747325 3.199093
v 0.704735 0.209598 3.719915
v -1.255513 0.019886 3.371439
vn -0.0976 -0.5341 0.8398
vn -0.0241 -0.8149 0.5791
vn 0.0531 -0.9717 0.2302
vn 0.1222 -0.9805 -0.1537
vn 0.1727 -0.8401 -0.5142
vn 0.1969 -0.5718 -0.7964
vn 0.1911 -0.2164 -0.9574
vn 0.1563 0.1719 -0.9726
vn 0.0976 0.5341 -0.8398
vn 0.0241 0.8149 -0.5791
vn -0.0531 0.9717 -0.2302
vn -0.1222 0.9805 0.1537
vn -0.1727 0.8401 0.5142
vn -0.1969 0.5718 0.7964
vn -0.9801 -0.0949 -0.1742
vn -0.1911 0.2164 0.9574
vn -0.1563 -0.1719 0.9726
vn 0.9801 0.0949 0.1742
s off
f 2//1 3//1 1//1
f 4//2 5//2 3//2
f 6//3 7//3 5//3
f 8//4 9//4 7//4
f 10//5 11//5 9//5
f 12//6 13//6 11//6
f 14//7 15//7 13//7
f 16//8 17//8 15//8
f 18//9 19//9 17//9
f 20//10 21//10 19//10
f 22//11 23//11 21//11
f 24//12 25//12 23//12
f 26//13 27//13 25//13
f 28//14 29//14 27//14
f 10//15 6//15 22//15
f 30//16 31//16 29//16
f 32//17 1//17 31//17
f 27//18 31//18 15//18
f 2//1 4//1 3//1
f 4//2 6//2 5//2
f 6//3 8//3 7//3
f 8//4 10//4 9//4
f 10//5 12//5 11//5
f 12//6 14//6 13//6
f 14//7 16//7 15//7
f 16//8 18//8 17//8
f 18//9 20//9 19//9
f 20//10 22//10 21//10
f 22//11 24//11 23//11
f 24//12 26//12 25//12
f 26//13 28//13 27//13
f 28//14 30//14 29//14
f 6//15 4//15 30//15
f 4//15 2//15 30//15
f 2//15 32//15 30//15
f 30//15 28//15 26//15
f 26//15 24//15 22//15
f 22//15 20//15 18//15
f 18//15 16//15 22//15
f 16//15 14//15 22//15
f 14//15 12//15 10//15
f 10//15 8//15 6//15
f 30//15 26//15 6//15
f 26//15 22//15 6//15
f 14//15 10//15 22//15
f 30//16 32//16 31//16
f 32//17 2//17 1//17
f 31//18 1//18 3//18
f 3//18 5//18 7//18
f 7//18 9//18 11//18
f 11//18 13//18 7//18
f 13//18 15//18 7//18
f 15//18 17//18 19//18
f 19//18 21//18 15//18
f 21//18 23//18 15//18
f 23//18 25//18 27//18
f 27//18 29//18 31//18
f 31//18 3//18 15//18
f 3//18 7//18 15//18
f 23//18 27//18 15//18
