# Blender v2.83.0 OBJ File: ''
# www.blender.org
o Cylinder.229_Cylinder.1658
v -0.592454 -1.436446 0.246941
v -1.810120 -0.187766 1.225761
v -0.529721 -1.046949 -0.171899
v -1.747387 0.201731 0.806921
v -0.298743 -0.601264 -0.453120
v -1.516409 0.647416 0.525700
v 0.065314 -0.167243 -0.553907
v -1.152351 1.081437 0.424913
v 0.507028 0.189039 -0.458917
v -0.710638 1.437718 0.519903
v 0.959150 0.413340 -0.182612
v -0.258515 1.662020 0.796208
v 1.352850 0.471514 0.232944
v 0.135184 1.720193 1.211764
v 1.628190 0.354703 0.724486
v 0.410524 1.603383 1.703306
v 1.743252 0.080691 1.217182
v 0.525586 1.329371 2.196002
v 1.680519 -0.308806 1.636022
v 0.462853 0.939874 2.614842
v 1.449541 -0.754491 1.917243
v 0.231876 0.494189 2.896062
v 1.085484 -1.188512 2.018030
v -0.132182 0.060168 2.996850
v 0.643770 -1.544794 1.923040
v -0.573896 -0.296114 2.901860
v 0.191647 -1.769096 1.646735
v -1.026019 -0.520416 2.625555
v -0.202053 -1.827269 1.231178
v -1.419718 -0.578589 2.209998
v -0.477392 -1.710458 0.739636
v -1.695058 -0.461778 1.718456
vn -0.7858 -0.3898 -0.4802
vn -0.6842 -0.1011 -0.7222
vn -0.4785 0.2030 -0.8543
vn -0.2000 0.4762 -0.8563
vn 0.1090 0.6769 -0.7279
vn 0.4014 0.7746 -0.4887
vn 0.6327 0.7543 -0.1752
vn 0.7677 0.6192 0.1651
vn 0.7858 0.3898 0.4802
vn 0.6842 0.1011 0.7222
vn 0.4785 -0.2030 0.8543
vn 0.2000 -0.4762 0.8563
vn -0.1090 -0.6769 0.7279
vn -0.4014 -0.7746 0.4887
vn -0.6088 0.6243 0.4894
vn -0.6327 -0.7543 0.1752
vn -0.7677 -0.6192 -0.1651
vn 0.6088 -0.6243 -0.4894
s off
f 2//1 3//1 1//1
f 4//2 5//2 3//2
f 6//3 7//3 5//3
f 8//4 9//4 7//4
f 10//5 11//5 9//5
f 11//6 14//6 13//6
f 14//7 15//7 13//7
f 16//8 17//8 15//8
f 18//9 19//9 17//9
f 20//10 21//10 19//10
f 22//11 23//11 21//11
f 24//12 25//12 23//12
f 26//13 27//13 25//13
f 28//14 29//14 27//14
f 22//15 14//15 6//15
f 30//16 31//16 29//16
f 32//17 1//17 31//17
f 15//18 23//18 31//18
f 2//1 4//1 3//1
f 4//2 6//2 5//2
f 6//3 8//3 7//3
f 8//4 10//4 9//4
f 10//5 12//5 11//5
f 11//6 12//6 14//6
f 14//7 16//7 15//7
f 16//8 18//8 17//8
f 18//9 20//9 19//9
f 20//10 22//10 21//10
f 22//11 24//11 23//11
f 24//12 26//12 25//12
f 26//13 28//13 27//13
f 28//14 30//14 29//14
f 6//15 4//15 2//15
f 2//15 32//15 30//15
f 30//15 28//15 26//15
f 26//15 24//15 22//15
f 22//15 20//15 18//15
f 18//15 16//15 14//15
f 14//15 12//15 10//15
f 10//15 8//15 6//15
f 6//15 2//15 30//15
f 30//15 26//15 6//15
f 26//15 22//15 6//15
f 22//15 18//15 14//15
f 14//15 10//15 6//15
f 30//16 32//16 31//16
f 32//17 2//17 1//17
f 31//18 1//18 3//18
f 3//18 5//18 7//18
f 7//18 9//18 11//18
f 11//18 13//18 7//18
f 13//18 15//18 7//18
f 15//18 17//18 19//18
f 19//18 21//18 15//18
f 21//18 23//18 15//18
f 23//18 25//18 27//18
f 27//18 29//18 23//18
f 29//18 31//18 23//18
f 31//18 3//18 7//18
f 31//18 7//18 15//18
