# Blender v2.83.0 OBJ File: ''
# www.blender.org
o Cylinder.147_Cylinder.1576
v 0.118868 -1.381318 0.110270
v -1.814992 -1.177886 0.578032
v 0.225853 -1.091208 0.426407
v -1.708007 -0.887776 0.894169
v 0.338355 -0.949737 0.829992
v -1.595505 -0.746305 1.297754
v 0.439245 -0.978441 1.259583
v -1.494615 -0.775009 1.727346
v 0.513164 -1.172951 1.649780
v -1.420696 -0.969519 2.117543
v 0.548859 -1.503655 1.941178
v -1.385001 -1.300223 2.408941
v 0.540896 -1.920206 2.089414
v -1.392964 -1.716774 2.557177
v 0.490486 -2.359187 2.071921
v -1.443374 -2.155755 2.539684
v 0.405304 -2.753768 1.891363
v -1.528556 -2.550336 2.359125
v 0.298319 -3.043878 1.575226
v -1.635541 -2.840446 2.042988
v 0.185818 -3.185349 1.171641
v -1.748042 -2.981917 1.639403
v 0.084928 -3.156645 0.742049
v -1.848933 -2.953213 1.209811
v 0.011008 -2.962135 0.351852
v -1.922852 -2.758703 0.819614
v -0.024687 -2.631431 0.060454
v -1.958547 -2.427999 0.528216
v -0.016723 -2.214880 -0.087782
v -1.950583 -2.011448 0.379980
v 0.033687 -1.775899 -0.070289
v -1.900174 -1.572467 0.397473
vn -0.0807 0.7478 -0.6590
vn 0.0180 0.9420 -0.3352
vn 0.1140 0.9927 0.0396
vn 0.1926 0.8923 0.4083
vn 0.2419 0.6560 0.7149
vn 0.2544 0.3199 0.9127
vn 0.2281 -0.0649 0.9715
vn 0.1672 -0.4399 0.8824
vn 0.0807 -0.7478 0.6590
vn -0.0180 -0.9420 0.3352
vn -0.1140 -0.9927 -0.0396
vn -0.1926 -0.8923 -0.4083
vn -0.2419 -0.6560 -0.7149
vn -0.2544 -0.3199 -0.9127
vn -0.9669 0.1017 0.2339
vn -0.2281 0.0649 -0.9715
vn -0.1672 0.4399 -0.8824
vn 0.9669 -0.1017 -0.2339
s off
f 2//1 3//1 1//1
f 4//2 5//2 3//2
f 6//3 7//3 5//3
f 8//4 9//4 7//4
f 10//5 11//5 9//5
f 12//6 13//6 11//6
f 14//7 15//7 13//7
f 16//8 17//8 15//8
f 18//9 19//9 17//9
f 20//10 21//10 19//10
f 22//11 23//11 21//11
f 24//12 25//12 23//12
f 26//13 27//13 25//13
f 28//14 29//14 27//14
f 22//15 14//15 6//15
f 30//16 31//16 29//16
f 32//17 1//17 31//17
f 31//18 7//18 15//18
f 2//1 4//1 3//1
f 4//2 6//2 5//2
f 6//3 8//3 7//3
f 8//4 10//4 9//4
f 10//5 12//5 11//5
f 12//6 14//6 13//6
f 14//7 16//7 15//7
f 16//8 18//8 17//8
f 18//9 20//9 19//9
f 20//10 22//10 21//10
f 22//11 24//11 23//11
f 24//12 26//12 25//12
f 26//13 28//13 27//13
f 28//14 30//14 29//14
f 6//15 4//15 2//15
f 2//15 32//15 30//15
f 30//15 28//15 22//15
f 28//15 26//15 22//15
f 26//15 24//15 22//15
f 22//15 20//15 18//15
f 18//15 16//15 14//15
f 14//15 12//15 10//15
f 10//15 8//15 14//15
f 8//15 6//15 14//15
f 6//15 2//15 30//15
f 22//15 18//15 14//15
f 6//15 30//15 22//15
f 30//16 32//16 31//16
f 32//17 2//17 1//17
f 31//18 1//18 3//18
f 3//18 5//18 7//18
f 7//18 9//18 15//18
f 9//18 11//18 15//18
f 11//18 13//18 15//18
f 15//18 17//18 19//18
f 19//18 21//18 23//18
f 23//18 25//18 27//18
f 27//18 29//18 31//18
f 31//18 3//18 7//18
f 15//18 19//18 31//18
f 19//18 23//18 31//18
f 23//18 27//18 31//18
