# Blender v2.83.0 OBJ File: ''
# www.blender.org
o Cylinder.067_Cylinder.1496
v 1.993624 -0.853476 2.621367
v 0.248329 -1.434906 1.836582
v 2.106859 -1.279414 2.685108
v 0.361565 -1.860843 1.900324
v 2.282526 -1.677212 2.589159
v 0.537232 -2.258641 1.804375
v 2.493881 -1.986308 2.348127
v 0.748587 -2.567738 1.563343
v 2.708747 -2.159647 1.998707
v 0.963452 -2.741076 1.213922
v 2.894412 -2.170838 1.594094
v 1.149117 -2.752268 0.809309
v 3.022611 -2.018178 1.195888
v 1.277316 -2.599607 0.411103
v 3.073827 -1.724908 0.864712
v 1.328532 -2.306338 0.079927
v 3.040262 -1.335676 0.650984
v 1.294967 -1.917105 -0.133801
v 2.927026 -0.909738 0.587242
v 1.181732 -1.491168 -0.197543
v 2.751359 -0.511940 0.683191
v 1.006065 -1.093370 -0.101594
v 2.540004 -0.202843 0.924223
v 0.794710 -0.784273 0.139439
v 2.325139 -0.029505 1.273644
v 0.579844 -0.610934 0.488859
v 2.139473 -0.018314 1.678257
v 0.394179 -0.599743 0.893472
v 2.011274 -0.170974 2.076463
v 0.265980 -0.752403 1.291678
v 1.960059 -0.464244 2.407639
v 0.214764 -1.045674 1.622854
vn -0.4169 0.0251 0.9086
vn -0.2879 -0.3428 0.8942
vn -0.1150 -0.6586 0.7437
vn 0.0754 -0.8741 0.4799
vn 0.2543 -0.9565 0.1431
vn 0.3945 -0.8933 -0.2155
vn 0.4746 -0.6941 -0.5413
vn 0.4825 -0.3892 -0.7847
vn 0.4169 -0.0251 -0.9086
vn 0.2879 0.3428 -0.8942
vn 0.1150 0.6586 -0.7437
vn -0.0754 0.8741 -0.4799
vn -0.2543 0.9565 -0.1431
vn -0.3945 0.8933 0.2155
vn -0.8726 -0.2907 -0.3924
vn -0.4746 0.6941 0.5413
vn -0.4825 0.3892 0.7847
vn 0.8726 0.2907 0.3924
s off
f 2//1 3//1 1//1
f 4//2 5//2 3//2
f 6//3 7//3 5//3
f 8//4 9//4 7//4
f 10//5 11//5 9//5
f 12//6 13//6 11//6
f 14//7 15//7 13//7
f 16//8 17//8 15//8
f 18//9 19//9 17//9
f 20//10 21//10 19//10
f 22//11 23//11 21//11
f 24//12 25//12 23//12
f 26//13 27//13 25//13
f 28//14 29//14 27//14
f 14//15 10//15 6//15
f 30//16 31//16 29//16
f 32//17 1//17 31//17
f 31//18 7//18 15//18
f 2//1 4//1 3//1
f 4//2 6//2 5//2
f 6//3 8//3 7//3
f 8//4 10//4 9//4
f 10//5 12//5 11//5
f 12//6 14//6 13//6
f 14//7 16//7 15//7
f 16//8 18//8 17//8
f 18//9 20//9 19//9
f 20//10 22//10 21//10
f 22//11 24//11 23//11
f 24//12 26//12 25//12
f 26//13 28//13 27//13
f 28//14 30//14 29//14
f 6//15 4//15 2//15
f 2//15 32//15 30//15
f 30//15 28//15 26//15
f 26//15 24//15 22//15
f 22//15 20//15 18//15
f 18//15 16//15 14//15
f 14//15 12//15 10//15
f 10//15 8//15 6//15
f 6//15 2//15 22//15
f 2//15 30//15 22//15
f 30//15 26//15 22//15
f 22//15 18//15 6//15
f 18//15 14//15 6//15
f 30//16 32//16 31//16
f 32//17 2//17 1//17
f 31//18 1//18 3//18
f 3//18 5//18 31//18
f 5//18 7//18 31//18
f 7//18 9//18 11//18
f 11//18 13//18 7//18
f 13//18 15//18 7//18
f 15//18 17//18 19//18
f 19//18 21//18 23//18
f 23//18 25//18 27//18
f 27//18 29//18 31//18
f 15//18 19//18 23//18
f 23//18 27//18 15//18
f 27//18 31//18 15//18
