# Blender v2.83.0 OBJ File: ''
# www.blender.org
o Cylinder.238_Cylinder.1667
v 2.025177 0.095648 -2.802267
v 1.117745 -1.308442 -1.704498
v 1.597565 0.154911 -3.079938
v 0.690133 -1.249179 -1.982169
v 1.140352 0.347694 -3.211300
v 0.232920 -1.056396 -2.113531
v 0.723144 0.644648 -3.176354
v -0.184288 -0.759442 -2.078585
v 0.409458 1.000564 -2.980421
v -0.497974 -0.403526 -1.882652
v 0.247049 1.361258 -2.653330
v -0.660383 -0.042832 -1.555560
v 0.260643 1.671816 -2.244877
v -0.646789 0.267726 -1.147107
v 0.448170 1.884959 -1.817245
v -0.459263 0.480869 -0.719476
v 0.781080 1.968239 -1.435539
v -0.126352 0.564149 -0.337769
v 1.208692 1.908976 -1.157868
v 0.301260 0.504886 -0.060098
v 1.665905 1.716193 -1.026506
v 0.758473 0.312103 0.071264
v 2.083113 1.419240 -1.061451
v 1.175681 0.015149 0.036318
v 2.396800 1.063323 -1.257384
v 1.489367 -0.340767 -0.159615
v 2.559209 0.702630 -1.584476
v 1.651777 -0.701461 -0.486707
v 2.545615 0.392071 -1.992929
v 1.638183 -1.012019 -0.895160
v 2.358088 0.178928 -2.420561
v 1.450656 -1.225163 -1.322792
vn 0.3164 -0.7027 -0.6372
vn -0.0265 -0.6050 -0.7958
vn -0.3653 -0.4153 -0.8331
vn -0.6486 -0.1622 -0.7436
vn -0.8331 0.1155 -0.5410
vn -0.8908 0.3756 -0.2559
vn -0.8128 0.5785 0.0681
vn -0.6111 0.6934 0.3817
vn -0.3164 0.7027 0.6372
vn 0.0265 0.6050 0.7958
vn 0.3653 0.4153 0.8331
vn 0.6486 0.1622 0.7436
vn 0.8331 -0.1155 0.5410
vn 0.8908 -0.3756 0.2559
vn -0.4537 -0.7020 0.5489
vn 0.8128 -0.5785 -0.0681
vn 0.6111 -0.6934 -0.3817
vn 0.4537 0.7020 -0.5489
s off
f 2//1 3//1 1//1
f 4//2 5//2 3//2
f 6//3 7//3 5//3
f 8//4 9//4 7//4
f 10//5 11//5 9//5
f 12//6 13//6 11//6
f 14//7 15//7 13//7
f 16//8 17//8 15//8
f 18//9 19//9 17//9
f 20//10 21//10 19//10
f 22//11 23//11 21//11
f 24//12 25//12 23//12
f 26//13 27//13 25//13
f 28//14 29//14 27//14
f 10//15 6//15 22//15
f 30//16 31//16 29//16
f 32//17 1//17 31//17
f 31//18 7//18 15//18
f 2//1 4//1 3//1
f 4//2 6//2 5//2
f 6//3 8//3 7//3
f 8//4 10//4 9//4
f 10//5 12//5 11//5
f 12//6 14//6 13//6
f 14//7 16//7 15//7
f 16//8 18//8 17//8
f 18//9 20//9 19//9
f 20//10 22//10 21//10
f 22//11 24//11 23//11
f 24//12 26//12 25//12
f 26//13 28//13 27//13
f 28//14 30//14 29//14
f 6//15 4//15 30//15
f 4//15 2//15 30//15
f 2//15 32//15 30//15
f 30//15 28//15 26//15
f 26//15 24//15 22//15
f 22//15 20//15 18//15
f 18//15 16//15 22//15
f 16//15 14//15 22//15
f 14//15 12//15 10//15
f 10//15 8//15 6//15
f 30//15 26//15 6//15
f 26//15 22//15 6//15
f 14//15 10//15 22//15
f 30//16 32//16 31//16
f 32//17 2//17 1//17
f 31//18 1//18 3//18
f 3//18 5//18 7//18
f 7//18 9//18 11//18
f 11//18 13//18 7//18
f 13//18 15//18 7//18
f 15//18 17//18 19//18
f 19//18 21//18 23//18
f 23//18 25//18 27//18
f 27//18 29//18 31//18
f 31//18 3//18 7//18
f 15//18 19//18 23//18
f 23//18 27//18 15//18
f 27//18 31//18 15//18
