# Blender v2.83.0 OBJ File: ''
# www.blender.org
o Cylinder.295_Cylinder.1724
v 2.173472 0.308676 1.237193
v 2.897090 -0.519901 -0.433087
v 2.597037 0.866890 1.143781
v 3.320655 0.038312 -0.526499
v 2.795149 1.505048 0.913037
v 3.518767 0.676470 -0.757243
v 2.737647 2.125996 0.580091
v 3.461265 1.297418 -1.090189
v 2.433284 2.635200 0.195630
v 3.156902 1.806623 -1.474650
v 1.928398 2.955139 -0.181815
v 2.652015 2.126562 -1.852095
v 1.299852 3.037106 -0.494782
v 2.023470 2.208528 -2.165062
v 0.643338 2.868620 -0.695624
v 1.366956 2.040042 -2.365904
v 0.058803 2.475333 -0.753764
v 0.782421 1.646755 -2.424044
v -0.364763 1.917119 -0.660352
v 0.358855 1.088542 -2.330632
v -0.562875 1.278962 -0.429609
v 0.160743 0.450384 -2.099889
v -0.505372 0.658013 -0.096663
v 0.218245 -0.170564 -1.766943
v -0.201010 0.148809 0.287799
v 0.522608 -0.679769 -1.382481
v 0.303877 -0.171130 0.665244
v 1.027495 -0.999708 -1.005036
v 0.932423 -0.253096 0.978211
v 1.656041 -1.081674 -0.692069
v 1.588938 -0.084610 1.179052
v 2.312555 -0.913188 -0.491228
vn 0.7142 -0.4526 0.5339
vn 0.8891 -0.1159 0.4427
vn 0.9287 0.2383 0.2841
vn 0.8269 0.5563 0.0822
vn 0.5992 0.7896 -0.1321
vn 0.2802 0.9027 -0.3264
vn -0.0813 0.8784 -0.4710
vn -0.4305 0.7203 -0.5439
vn -0.7142 0.4526 -0.5339
vn -0.8891 0.1159 -0.4427
vn -0.9287 -0.2383 -0.2841
vn -0.8269 -0.5563 -0.0822
vn -0.5992 -0.7896 0.1321
vn -0.2802 -0.9027 0.3264
vn 0.3618 -0.4143 -0.8351
vn 0.0813 -0.8784 0.4710
vn 0.4305 -0.7203 0.5439
vn -0.3618 0.4143 0.8351
s off
f 2//1 3//1 1//1
f 4//2 5//2 3//2
f 6//3 7//3 5//3
f 8//4 9//4 7//4
f 10//5 11//5 9//5
f 12//6 13//6 11//6
f 14//7 15//7 13//7
f 16//8 17//8 15//8
f 18//9 19//9 17//9
f 20//10 21//10 19//10
f 22//11 23//11 21//11
f 24//12 25//12 23//12
f 26//13 27//13 25//13
f 28//14 29//14 27//14
f 18//15 14//15 6//15
f 30//16 31//16 29//16
f 32//17 1//17 31//17
f 15//18 23//18 31//18
f 2//1 4//1 3//1
f 4//2 6//2 5//2
f 6//3 8//3 7//3
f 8//4 10//4 9//4
f 10//5 12//5 11//5
f 12//6 14//6 13//6
f 14//7 16//7 15//7
f 16//8 18//8 17//8
f 18//9 20//9 19//9
f 20//10 22//10 21//10
f 22//11 24//11 23//11
f 24//12 26//12 25//12
f 26//13 28//13 27//13
f 28//14 30//14 29//14
f 6//15 4//15 2//15
f 2//15 32//15 30//15
f 30//15 28//15 22//15
f 28//15 26//15 22//15
f 26//15 24//15 22//15
f 22//15 20//15 18//15
f 18//15 16//15 14//15
f 14//15 12//15 6//15
f 12//15 10//15 6//15
f 10//15 8//15 6//15
f 6//15 2//15 22//15
f 2//15 30//15 22//15
f 22//15 18//15 6//15
f 30//16 32//16 31//16
f 32//17 2//17 1//17
f 31//18 1//18 3//18
f 3//18 5//18 7//18
f 7//18 9//18 11//18
f 11//18 13//18 7//18
f 13//18 15//18 7//18
f 15//18 17//18 19//18
f 19//18 21//18 23//18
f 23//18 25//18 27//18
f 27//18 29//18 31//18
f 31//18 3//18 15//18
f 3//18 7//18 15//18
f 15//18 19//18 23//18
f 23//18 27//18 31//18
