# Blender v2.83.0 OBJ File: ''
# www.blender.org
o Cylinder.142_Cylinder.1571
v 0.242907 -1.553767 2.394824
v 2.089925 -2.319354 2.345850
v 0.464572 -1.014941 2.331580
v 2.311591 -1.780528 2.282606
v 0.655051 -0.537405 2.050251
v 2.502069 -1.302993 2.001277
v 0.785344 -0.193860 1.593668
v 2.632362 -0.959447 1.544693
v 0.835615 -0.036606 1.031340
v 2.682634 -0.802193 0.982366
v 0.798211 -0.089585 0.448877
v 2.645230 -0.855172 0.399903
v 0.678827 -0.344730 -0.065045
v 2.525846 -1.110317 -0.114020
v 0.495637 -0.763199 -0.432188
v 2.342656 -1.528786 -0.481162
v 0.276531 -1.281282 -0.596657
v 2.123550 -2.046870 -0.645631
v 0.054866 -1.820108 -0.533413
v 1.901884 -2.585695 -0.582387
v -0.135613 -2.297644 -0.252085
v 1.711406 -3.063231 -0.301059
v -0.265906 -2.641190 0.204499
v 1.581113 -3.406777 0.155525
v -0.316177 -2.798443 0.766827
v 1.530841 -3.564031 0.717853
v -0.278773 -2.745465 1.349290
v 1.568245 -3.511052 1.300316
v -0.159389 -2.490319 1.863213
v 1.687630 -3.255906 1.814239
v 0.023801 -2.071850 2.230356
v 1.870819 -2.837437 2.181382
vn 0.0638 0.0904 0.9939
vn 0.2037 0.4354 0.8769
vn 0.3126 0.7140 0.6265
vn 0.3739 0.8840 0.2806
vn 0.3782 0.9194 -0.1079
vn 0.3250 0.8148 -0.4800
vn 0.2223 0.5862 -0.7791
vn 0.0858 0.2683 -0.9595
vn -0.0638 -0.0904 -0.9939
vn -0.2037 -0.4354 -0.8769
vn -0.3126 -0.7140 -0.6265
vn -0.3739 -0.8840 -0.2806
vn -0.3782 -0.9194 0.1079
vn -0.3250 -0.8148 0.4800
vn 0.9235 -0.3828 -0.0245
vn -0.2223 -0.5862 0.7791
vn -0.0858 -0.2683 0.9595
vn -0.9235 0.3828 0.0245
s off
f 2//1 3//1 1//1
f 4//2 5//2 3//2
f 6//3 7//3 5//3
f 8//4 9//4 7//4
f 10//5 11//5 9//5
f 12//6 13//6 11//6
f 14//7 15//7 13//7
f 16//8 17//8 15//8
f 17//9 20//9 19//9
f 20//10 21//10 19//10
f 22//11 23//11 21//11
f 24//12 25//12 23//12
f 26//13 27//13 25//13
f 28//14 29//14 27//14
f 22//15 14//15 6//15
f 30//16 31//16 29//16
f 32//17 1//17 31//17
f 7//18 15//18 23//18
f 2//1 4//1 3//1
f 4//2 6//2 5//2
f 6//3 8//3 7//3
f 8//4 10//4 9//4
f 10//5 12//5 11//5
f 12//6 14//6 13//6
f 14//7 16//7 15//7
f 16//8 18//8 17//8
f 17//9 18//9 20//9
f 20//10 22//10 21//10
f 22//11 24//11 23//11
f 24//12 26//12 25//12
f 26//13 28//13 27//13
f 28//14 30//14 29//14
f 6//15 4//15 2//15
f 2//15 32//15 30//15
f 30//15 28//15 26//15
f 26//15 24//15 30//15
f 24//15 22//15 30//15
f 22//15 20//15 14//15
f 20//15 18//15 14//15
f 18//15 16//15 14//15
f 14//15 12//15 10//15
f 10//15 8//15 6//15
f 6//15 2//15 30//15
f 14//15 10//15 6//15
f 6//15 30//15 22//15
f 30//16 32//16 31//16
f 32//17 2//17 1//17
f 31//18 1//18 3//18
f 3//18 5//18 31//18
f 5//18 7//18 31//18
f 7//18 9//18 11//18
f 11//18 13//18 7//18
f 13//18 15//18 7//18
f 15//18 17//18 23//18
f 17//18 19//18 23//18
f 19//18 21//18 23//18
f 23//18 25//18 27//18
f 27//18 29//18 23//18
f 29//18 31//18 23//18
f 31//18 7//18 23//18
