# Blender v2.83.0 OBJ File: ''
# www.blender.org
o Cylinder.335_Cylinder.1764
v -0.644587 1.493603 -0.740007
v -2.420317 1.578588 -1.656282
v -0.636514 1.198481 -0.783023
v -2.412244 1.283466 -1.699299
v -0.576616 0.941854 -0.922908
v -2.352345 1.026840 -1.839184
v -0.474010 0.762793 -1.138366
v -2.249740 0.847778 -2.054641
v -0.344317 0.688557 -1.396593
v -2.120047 0.773543 -2.312869
v -0.207283 0.730449 -1.658279
v -1.983013 0.815434 -2.574554
v -0.083769 0.882089 -1.883583
v -1.859499 0.967075 -2.799858
v 0.007421 1.120394 -2.038205
v -1.768308 1.205379 -2.954481
v 0.052405 1.409082 -2.098606
v -1.723325 1.494068 -3.014881
v 0.044332 1.704204 -2.055589
v -1.731398 1.789190 -2.971864
v -0.015566 1.960831 -1.915704
v -1.791296 2.045816 -2.831979
v -0.118172 2.139892 -1.700247
v -1.893902 2.224877 -2.616522
v -0.247865 2.214128 -1.442019
v -2.023595 2.299113 -2.358294
v -0.384899 2.172237 -1.180333
v -2.160629 2.257222 -2.096609
v -0.508414 2.020596 -0.955029
v -2.284143 2.105581 -1.871304
v -0.599604 1.782291 -0.800407
v -2.375334 1.867276 -1.716682
vn -0.4593 -0.1404 0.8771
vn -0.4140 -0.5083 0.7552
vn -0.3056 -0.7987 0.5183
vn -0.1508 -0.9676 0.2024
vn 0.0271 -0.9892 -0.1442
vn 0.2008 -0.8602 -0.4689
vn 0.3439 -0.6002 -0.7222
vn 0.4347 -0.2488 -0.8655
vn 0.4593 0.1404 -0.8771
vn 0.4140 0.5083 -0.7552
vn 0.3056 0.7987 -0.5183
vn 0.1508 0.9676 -0.2024
vn -0.0271 0.9892 0.1442
vn -0.2008 0.8602 0.4689
vn -0.8879 0.0425 -0.4581
vn -0.3439 0.6002 0.7222
vn -0.4347 0.2488 0.8655
vn 0.8879 -0.0425 0.4581
s off
f 2//1 3//1 1//1
f 4//2 5//2 3//2
f 6//3 7//3 5//3
f 8//4 9//4 7//4
f 10//5 11//5 9//5
f 12//6 13//6 11//6
f 14//7 15//7 13//7
f 16//8 17//8 15//8
f 18//9 19//9 17//9
f 20//10 21//10 19//10
f 22//11 23//11 21//11
f 24//12 25//12 23//12
f 26//13 27//13 25//13
f 28//14 29//14 27//14
f 30//15 22//15 14//15
f 30//16 31//16 29//16
f 32//17 1//17 31//17
f 7//18 15//18 23//18
f 2//1 4//1 3//1
f 4//2 6//2 5//2
f 6//3 8//3 7//3
f 8//4 10//4 9//4
f 10//5 12//5 11//5
f 12//6 14//6 13//6
f 14//7 16//7 15//7
f 16//8 18//8 17//8
f 18//9 20//9 19//9
f 20//10 22//10 21//10
f 22//11 24//11 23//11
f 24//12 26//12 25//12
f 26//13 28//13 27//13
f 28//14 30//14 29//14
f 6//15 4//15 2//15
f 2//15 32//15 30//15
f 30//15 28//15 26//15
f 26//15 24//15 22//15
f 22//15 20//15 18//15
f 18//15 16//15 14//15
f 14//15 12//15 10//15
f 10//15 8//15 14//15
f 8//15 6//15 14//15
f 6//15 2//15 30//15
f 30//15 26//15 22//15
f 22//15 18//15 14//15
f 6//15 30//15 14//15
f 30//16 32//16 31//16
f 32//17 2//17 1//17
f 31//18 1//18 7//18
f 1//18 3//18 7//18
f 3//18 5//18 7//18
f 7//18 9//18 15//18
f 9//18 11//18 15//18
f 11//18 13//18 15//18
f 15//18 17//18 23//18
f 17//18 19//18 23//18
f 19//18 21//18 23//18
f 23//18 25//18 31//18
f 25//18 27//18 31//18
f 27//18 29//18 31//18
f 31//18 7//18 23//18
