# Blender v2.83.0 OBJ File: ''
# www.blender.org
o Cylinder.092_Cylinder.1521
v 3.218567 1.066528 1.759661
v 1.401489 1.638321 2.368990
v 3.239228 0.771622 2.098013
v 1.422150 1.343415 2.707342
v 3.186915 0.379116 2.310336
v 1.369837 0.950909 2.919665
v 3.069592 -0.051234 2.364306
v 1.252514 0.520558 2.973635
v 2.905119 -0.453912 2.251706
v 1.088042 0.117881 2.861036
v 2.718538 -0.767613 1.989679
v 0.901461 -0.195820 2.599009
v 2.538253 -0.944578 1.618116
v 0.721175 -0.372785 2.227445
v 2.391711 -0.957868 1.193584
v 0.574633 -0.386075 1.802913
v 2.301221 -0.805458 0.780714
v 0.484143 -0.233665 1.390043
v 2.280560 -0.510552 0.442362
v 0.463482 0.061241 1.051691
v 2.332873 -0.118046 0.230039
v 0.515796 0.453747 0.839368
v 2.450197 0.312305 0.176068
v 0.633119 0.884098 0.785398
v 2.614669 0.714982 0.288668
v 0.797591 1.286775 0.897997
v 2.801250 1.028683 0.550695
v 0.984172 1.600476 1.160025
v 2.981535 1.205649 0.922259
v 1.164458 1.777442 1.531588
v 3.128078 1.218938 1.346791
v 1.311000 1.790731 1.956120
vn 0.4153 0.6982 0.5832
vn 0.4012 0.3939 0.8270
vn 0.3261 0.0296 0.9449
vn 0.2014 -0.3392 0.9189
vn 0.0460 -0.6564 0.7530
vn -0.1164 -0.8736 0.4726
vn -0.2611 -0.9578 0.1201
vn -0.3661 -0.8962 -0.2506
vn -0.4153 -0.6982 -0.5832
vn -0.4012 -0.3939 -0.8270
vn -0.3262 -0.0296 -0.9449
vn -0.2014 0.3392 -0.9189
vn -0.0460 0.6564 -0.7530
vn 0.1164 0.8736 -0.4726
vn -0.9085 0.2859 0.3047
vn 0.2611 0.9578 -0.1201
vn 0.3661 0.8962 0.2506
vn 0.9085 -0.2859 -0.3047
vn 0.3262 0.0296 0.9449
s off
f 2//1 3//1 1//1
f 4//2 5//2 3//2
f 6//3 7//3 5//3
f 8//4 9//4 7//4
f 10//5 11//5 9//5
f 12//6 13//6 11//6
f 14//7 15//7 13//7
f 16//8 17//8 15//8
f 18//9 19//9 17//9
f 20//10 21//10 19//10
f 22//11 23//11 21//11
f 24//12 25//12 23//12
f 26//13 27//13 25//13
f 28//14 29//14 27//14
f 22//15 14//15 6//15
f 30//16 31//16 29//16
f 32//17 1//17 31//17
f 15//18 23//18 31//18
f 2//1 4//1 3//1
f 4//2 6//2 5//2
f 6//19 8//19 7//19
f 8//4 10//4 9//4
f 10//5 12//5 11//5
f 12//6 14//6 13//6
f 14//7 16//7 15//7
f 16//8 18//8 17//8
f 18//9 20//9 19//9
f 20//10 22//10 21//10
f 22//11 24//11 23//11
f 24//12 26//12 25//12
f 26//13 28//13 27//13
f 28//14 30//14 29//14
f 6//15 4//15 2//15
f 2//15 32//15 30//15
f 30//15 28//15 26//15
f 26//15 24//15 22//15
f 22//15 20//15 18//15
f 18//15 16//15 14//15
f 14//15 12//15 10//15
f 10//15 8//15 14//15
f 8//15 6//15 14//15
f 6//15 2//15 22//15
f 2//15 30//15 22//15
f 30//15 26//15 22//15
f 22//15 18//15 14//15
f 30//16 32//16 31//16
f 32//17 2//17 1//17
f 31//18 1//18 3//18
f 3//18 5//18 7//18
f 7//18 9//18 11//18
f 11//18 13//18 7//18
f 13//18 15//18 7//18
f 15//18 17//18 19//18
f 19//18 21//18 23//18
f 23//18 25//18 27//18
f 27//18 29//18 31//18
f 31//18 3//18 7//18
f 15//18 19//18 23//18
f 23//18 27//18 31//18
f 31//18 7//18 15//18
