# Blender v2.83.0 OBJ File: ''
# www.blender.org
o Cylinder.058_Cylinder.1487
v 0.228443 1.099162 0.122953
v -1.507104 1.918102 0.686171
v 0.456225 1.225968 0.640478
v -1.279322 2.044908 1.203696
v 0.599238 1.146713 1.196412
v -1.136308 1.965654 1.759629
v 0.635711 0.873464 1.706118
v -1.099835 1.692404 2.269336
v 0.560091 0.447819 2.092000
v -1.175456 1.266759 2.655217
v 0.383889 -0.065421 2.295309
v -1.351657 0.753519 2.858526
v 0.133932 -0.588119 2.285093
v -1.601614 0.230821 2.848311
v -0.151727 -1.040700 2.062909
v -1.887273 -0.221760 2.626127
v -0.429599 -1.354262 1.662581
v -2.165146 -0.535322 2.225799
v -0.657381 -1.481068 1.145057
v -2.392927 -0.662128 1.708274
v -0.800395 -1.401814 0.589123
v -2.535941 -0.582874 1.152341
v -0.836868 -1.128564 0.079416
v -2.572414 -0.309624 0.642634
v -0.761247 -0.702919 -0.306465
v -2.496794 0.116021 0.256752
v -0.585046 -0.189679 -0.509774
v -2.320592 0.629261 0.053443
v -0.335088 0.333020 -0.499559
v -2.070635 1.151960 0.063659
v -0.049429 0.785600 -0.277374
v -1.784976 1.604541 0.285843
vn 0.3041 0.8857 -0.3508
vn 0.4313 0.9020 0.0176
vn 0.4930 0.7810 0.3834
vn 0.4795 0.5411 0.6908
vn 0.3931 0.2188 0.8931
vn 0.2468 -0.1368 0.9594
vn 0.0629 -0.4715 0.8796
vn -0.1305 -0.7345 0.6659
vn -0.3041 -0.8857 0.3508
vn -0.4313 -0.9020 -0.0176
vn -0.4930 -0.7810 -0.3834
vn -0.4795 -0.5411 -0.6908
vn -0.3931 -0.2188 -0.8931
vn -0.2468 0.1368 -0.9594
vn -0.8678 0.4095 0.2816
vn -0.0629 0.4715 -0.8796
vn 0.1305 0.7345 -0.6659
vn 0.8678 -0.4095 -0.2816
s off
f 2//1 3//1 1//1
f 4//2 5//2 3//2
f 6//3 7//3 5//3
f 8//4 9//4 7//4
f 10//5 11//5 9//5
f 12//6 13//6 11//6
f 14//7 15//7 13//7
f 16//8 17//8 15//8
f 18//9 19//9 17//9
f 20//10 21//10 19//10
f 22//11 23//11 21//11
f 24//12 25//12 23//12
f 26//13 27//13 25//13
f 28//14 29//14 27//14
f 30//15 22//15 14//15
f 30//16 31//16 29//16
f 32//17 1//17 31//17
f 15//18 23//18 31//18
f 2//1 4//1 3//1
f 4//2 6//2 5//2
f 6//3 8//3 7//3
f 8//4 10//4 9//4
f 10//5 12//5 11//5
f 12//6 14//6 13//6
f 14//7 16//7 15//7
f 16//8 18//8 17//8
f 18//9 20//9 19//9
f 20//10 22//10 21//10
f 22//11 24//11 23//11
f 24//12 26//12 25//12
f 26//13 28//13 27//13
f 28//14 30//14 29//14
f 6//15 4//15 2//15
f 2//15 32//15 6//15
f 32//15 30//15 6//15
f 30//15 28//15 22//15
f 28//15 26//15 22//15
f 26//15 24//15 22//15
f 22//15 20//15 18//15
f 18//15 16//15 14//15
f 14//15 12//15 6//15
f 12//15 10//15 6//15
f 10//15 8//15 6//15
f 22//15 18//15 14//15
f 6//15 30//15 14//15
f 30//16 32//16 31//16
f 32//17 2//17 1//17
f 31//18 1//18 3//18
f 3//18 5//18 7//18
f 7//18 9//18 11//18
f 11//18 13//18 15//18
f 15//18 17//18 19//18
f 19//18 21//18 15//18
f 21//18 23//18 15//18
f 23//18 25//18 27//18
f 27//18 29//18 23//18
f 29//18 31//18 23//18
f 31//18 3//18 15//18
f 3//18 7//18 15//18
f 7//18 11//18 15//18
