# Blender v2.83.0 OBJ File: ''
# www.blender.org
o Cylinder.359_Cylinder.1788
v -0.270281 0.462414 -0.404905
v 1.308716 -0.183072 -1.448992
v -0.335733 -0.148517 -0.126194
v 1.243264 -0.794003 -1.170280
v -0.239729 -0.641813 0.323966
v 1.339268 -1.287299 -0.720121
v 0.003115 -0.942373 0.877039
v 1.582112 -1.587859 -0.167047
v 0.355828 -1.004441 1.448828
v 1.934825 -1.649927 0.404741
v 0.764713 -0.818567 1.952281
v 2.343709 -1.464054 0.908194
v 1.167520 -0.413049 2.310752
v 2.746517 -1.058535 1.266665
v 1.502927 0.150377 2.469668
v 3.081923 -0.495110 1.425581
v 1.719870 0.785934 2.404835
v 3.298866 0.140447 1.360748
v 1.785321 1.396864 2.126123
v 3.364318 0.751378 1.082036
v 1.689317 1.890160 1.675964
v 3.268314 1.244674 0.631877
v 1.446474 2.190721 1.122890
v 3.025470 1.545235 0.078803
v 1.093761 2.252789 0.551102
v 2.672757 1.607303 -0.492985
v 0.684876 2.066915 0.047649
v 2.263872 1.421429 -0.996438
v 0.282068 1.661396 -0.310823
v 1.861065 1.015910 -1.354910
v -0.053338 1.097970 -0.469739
v 1.525658 0.452484 -1.513826
vn -0.6060 -0.2755 -0.7462
vn -0.5970 -0.6010 -0.5313
vn -0.4971 -0.8351 -0.2355
vn -0.3215 -0.9420 0.0961
vn -0.0970 -0.9055 0.4131
vn 0.1423 -0.7311 0.6672
vn 0.3599 -0.4455 0.8198
vn 0.5228 -0.0920 0.8475
vn 0.6060 0.2755 0.7462
vn 0.5970 0.6010 0.5313
vn 0.4971 0.8351 0.2355
vn 0.3215 0.9420 -0.0961
vn 0.0970 0.9055 -0.4131
vn -0.1423 0.7311 -0.6672
vn 0.7895 -0.3227 -0.5220
vn -0.3599 0.4455 -0.8198
vn -0.5228 0.0920 -0.8475
vn -0.7895 0.3227 0.5220
s off
f 2//1 3//1 1//1
f 4//2 5//2 3//2
f 6//3 7//3 5//3
f 8//4 9//4 7//4
f 10//5 11//5 9//5
f 12//6 13//6 11//6
f 14//7 15//7 13//7
f 16//8 17//8 15//8
f 18//9 19//9 17//9
f 20//10 21//10 19//10
f 22//11 23//11 21//11
f 24//12 25//12 23//12
f 26//13 27//13 25//13
f 28//14 29//14 27//14
f 30//15 22//15 14//15
f 30//16 31//16 29//16
f 32//17 1//17 31//17
f 7//18 15//18 23//18
f 2//1 4//1 3//1
f 4//2 6//2 5//2
f 6//3 8//3 7//3
f 8//4 10//4 9//4
f 10//5 12//5 11//5
f 12//6 14//6 13//6
f 14//7 16//7 15//7
f 16//8 18//8 17//8
f 18//9 20//9 19//9
f 20//10 22//10 21//10
f 22//11 24//11 23//11
f 24//12 26//12 25//12
f 26//13 28//13 27//13
f 28//14 30//14 29//14
f 6//15 4//15 30//15
f 4//15 2//15 30//15
f 2//15 32//15 30//15
f 30//15 28//15 22//15
f 28//15 26//15 22//15
f 26//15 24//15 22//15
f 22//15 20//15 18//15
f 18//15 16//15 14//15
f 14//15 12//15 10//15
f 10//15 8//15 14//15
f 8//15 6//15 14//15
f 22//15 18//15 14//15
f 6//15 30//15 14//15
f 30//16 32//16 31//16
f 32//17 2//17 1//17
f 31//18 1//18 3//18
f 3//18 5//18 7//18
f 7//18 9//18 11//18
f 11//18 13//18 15//18
f 15//18 17//18 19//18
f 19//18 21//18 15//18
f 21//18 23//18 15//18
f 23//18 25//18 27//18
f 27//18 29//18 23//18
f 29//18 31//18 23//18
f 31//18 3//18 7//18
f 7//18 11//18 15//18
f 31//18 7//18 23//18
