# Blender v2.83.0 OBJ File: ''
# www.blender.org
o Cylinder.235_Cylinder.1664
v 1.629403 1.418861 0.351946
v 1.372466 1.536264 -1.628004
v 1.530480 2.081023 0.404047
v 1.273543 2.198426 -1.575903
v 1.187058 2.652744 0.482513
v 0.930121 2.770147 -1.497437
v 0.651421 3.046983 0.575399
v 0.394484 3.164386 -1.404550
v 0.005114 3.203721 0.668564
v -0.251823 3.321124 -1.311385
v -0.653469 3.099097 0.747824
v -0.910406 3.216500 -1.232125
v -1.224064 2.749038 0.801113
v -1.481001 2.866441 -1.178837
v -1.619803 2.206838 0.820318
v -1.876740 2.324241 -1.159632
v -1.780439 1.555041 0.802514
v -2.037376 1.672444 -1.177435
v -1.681517 0.892879 0.750413
v -1.938454 1.010282 -1.229536
v -1.338095 0.321158 0.671947
v -1.595032 0.438561 -1.308002
v -0.802458 -0.073081 0.579061
v -1.059395 0.044322 -1.400889
v -0.156150 -0.229820 0.485896
v -0.413087 -0.112417 -1.494053
v 0.502433 -0.125195 0.406636
v 0.245496 -0.007792 -1.573314
v 1.073028 0.224864 0.353347
v 0.816091 0.342267 -1.626602
v 1.468767 0.767065 0.334143
v 1.211830 0.884468 -1.645807
vn 0.9807 0.1558 -0.1180
vn 0.8497 0.5213 -0.0794
vn 0.5893 0.8074 -0.0286
vn 0.2392 0.9706 0.0265
vn -0.1473 0.9860 0.0776
vn -0.5114 0.8514 0.1168
vn -0.7976 0.5871 0.1383
vn -0.9624 0.2334 0.1387
vn -0.9807 -0.1558 0.1180
vn -0.8497 -0.5213 0.0794
vn -0.5893 -0.8074 0.0286
vn -0.2392 -0.9706 -0.0265
vn 0.1473 -0.9860 -0.0776
vn 0.5114 -0.8514 -0.1168
vn -0.1285 0.0587 -0.9900
vn 0.7976 -0.5871 -0.1383
vn 0.9624 -0.2334 -0.1387
vn 0.1285 -0.0587 0.9900
s off
f 2//1 3//1 1//1
f 4//2 5//2 3//2
f 6//3 7//3 5//3
f 8//4 9//4 7//4
f 10//5 11//5 9//5
f 12//6 13//6 11//6
f 14//7 15//7 13//7
f 16//8 17//8 15//8
f 18//9 19//9 17//9
f 20//10 21//10 19//10
f 22//11 23//11 21//11
f 24//12 25//12 23//12
f 26//13 27//13 25//13
f 28//14 29//14 27//14
f 22//15 14//15 6//15
f 30//16 31//16 29//16
f 32//17 1//17 31//17
f 7//18 15//18 23//18
f 2//1 4//1 3//1
f 4//2 6//2 5//2
f 6//3 8//3 7//3
f 8//4 10//4 9//4
f 10//5 12//5 11//5
f 12//6 14//6 13//6
f 14//7 16//7 15//7
f 16//8 18//8 17//8
f 18//9 20//9 19//9
f 20//10 22//10 21//10
f 22//11 24//11 23//11
f 24//12 26//12 25//12
f 26//13 28//13 27//13
f 28//14 30//14 29//14
f 6//15 4//15 2//15
f 2//15 32//15 30//15
f 30//15 28//15 26//15
f 26//15 24//15 22//15
f 22//15 20//15 14//15
f 20//15 18//15 14//15
f 18//15 16//15 14//15
f 14//15 12//15 10//15
f 10//15 8//15 14//15
f 8//15 6//15 14//15
f 6//15 2//15 30//15
f 30//15 26//15 6//15
f 26//15 22//15 6//15
f 30//16 32//16 31//16
f 32//17 2//17 1//17
f 31//18 1//18 3//18
f 3//18 5//18 31//18
f 5//18 7//18 31//18
f 7//18 9//18 15//18
f 9//18 11//18 15//18
f 11//18 13//18 15//18
f 15//18 17//18 19//18
f 19//18 21//18 23//18
f 23//18 25//18 27//18
f 27//18 29//18 23//18
f 29//18 31//18 23//18
f 15//18 19//18 23//18
f 31//18 7//18 23//18
