# Blender v2.83.0 OBJ File: ''
# www.blender.org
o Cylinder.285_Cylinder.1714
v 0.930883 1.281639 0.571615
v 2.223870 1.268923 -0.954171
v 0.770141 1.953099 0.429803
v 2.063128 1.940384 -1.095983
v 0.425260 2.491435 0.133057
v 1.718247 2.478720 -1.392730
v -0.051256 2.814690 -0.273448
v 1.241731 2.801974 -1.799234
v -0.586862 2.873651 -0.727824
v 0.706125 2.860935 -2.253611
v -1.100016 2.659342 -1.160897
v 0.192971 2.646626 -2.686683
v -1.512595 2.204389 -1.506735
v -0.219608 2.191674 -3.032521
v -1.761789 1.578056 -1.712687
v -0.468802 1.565340 -3.238474
v -1.809658 0.875695 -1.747400
v -0.516671 0.862979 -3.273186
v -1.648917 0.204235 -1.605588
v -0.355930 0.191519 -3.131375
v -1.304036 -0.334101 -1.308842
v -0.011049 -0.346817 -2.834628
v -0.827519 -0.657357 -0.902337
v 0.465468 -0.670072 -2.428123
v -0.291913 -0.716317 -0.447960
v 1.001073 -0.729033 -1.973747
v 0.221241 -0.502008 -0.014888
v 1.514228 -0.514724 -1.540674
v 0.633820 -0.047055 0.330950
v 1.926807 -0.059771 -1.194836
v 0.883014 0.579279 0.536903
v 2.176000 0.566563 -0.988883
vn 0.7280 0.3041 0.6144
vn 0.5853 0.6455 0.4907
vn 0.3535 0.8886 0.2922
vn 0.0679 0.9965 0.0492
vn -0.2281 0.9526 -0.2012
vn -0.4893 0.7638 -0.4210
vn -0.6761 0.4586 -0.5767
vn -0.7599 0.0837 -0.6446
vn -0.7280 -0.3041 -0.6144
vn -0.5853 -0.6455 -0.4907
vn -0.3535 -0.8886 -0.2922
vn -0.0679 -0.9965 -0.0492
vn 0.2281 -0.9526 0.2012
vn 0.4893 -0.7638 0.4210
vn 0.6465 -0.0064 -0.7629
vn 0.6761 -0.4586 0.5767
vn 0.7599 -0.0837 0.6446
vn -0.6465 0.0064 0.7629
s off
f 1//1 4//1 3//1
f 4//2 5//2 3//2
f 6//3 7//3 5//3
f 8//4 9//4 7//4
f 10//5 11//5 9//5
f 12//6 13//6 11//6
f 14//7 15//7 13//7
f 16//8 17//8 15//8
f 18//9 19//9 17//9
f 20//10 21//10 19//10
f 22//11 23//11 21//11
f 24//12 25//12 23//12
f 26//13 27//13 25//13
f 28//14 29//14 27//14
f 30//15 22//15 14//15
f 30//16 31//16 29//16
f 32//17 1//17 31//17
f 31//18 7//18 15//18
f 1//1 2//1 4//1
f 4//2 6//2 5//2
f 6//3 8//3 7//3
f 8//4 10//4 9//4
f 10//5 12//5 11//5
f 12//6 14//6 13//6
f 14//7 16//7 15//7
f 16//8 18//8 17//8
f 18//9 20//9 19//9
f 20//10 22//10 21//10
f 22//11 24//11 23//11
f 24//12 26//12 25//12
f 26//13 28//13 27//13
f 28//14 30//14 29//14
f 6//15 4//15 2//15
f 2//15 32//15 30//15
f 30//15 28//15 26//15
f 26//15 24//15 22//15
f 22//15 20//15 18//15
f 18//15 16//15 14//15
f 14//15 12//15 10//15
f 10//15 8//15 6//15
f 6//15 2//15 30//15
f 30//15 26//15 22//15
f 22//15 18//15 14//15
f 14//15 10//15 6//15
f 6//15 30//15 14//15
f 30//16 32//16 31//16
f 32//17 2//17 1//17
f 31//18 1//18 3//18
f 3//18 5//18 31//18
f 5//18 7//18 31//18
f 7//18 9//18 11//18
f 11//18 13//18 15//18
f 15//18 17//18 19//18
f 19//18 21//18 23//18
f 23//18 25//18 27//18
f 27//18 29//18 31//18
f 7//18 11//18 15//18
f 15//18 19//18 23//18
f 23//18 27//18 15//18
f 27//18 31//18 15//18
