# Blender v2.83.0 OBJ File: ''
# www.blender.org
o Cylinder.076_Cylinder.1505
v 0.349471 -1.361423 1.302395
v 0.680820 -2.474365 -0.325969
v 0.354087 -0.932058 1.009875
v 0.685436 -2.045000 -0.618489
v 0.162281 -0.552484 0.711417
v 0.493630 -1.665426 -0.916947
v -0.196748 -0.280488 0.452457
v 0.134601 -1.393430 -1.175906
v -0.668340 -0.157478 0.272421
v -0.336991 -1.270420 -1.355942
v -1.180700 -0.202183 0.198717
v -0.849351 -1.315125 -1.429646
v -1.655825 -0.407795 0.242566
v -1.324476 -1.520737 -1.385798
v -2.021383 -0.743013 0.397292
v -1.690034 -1.855954 -1.231071
v -2.221720 -1.156801 0.639340
v -1.890371 -2.269743 -0.989024
v -2.226337 -1.586167 0.931860
v -1.894988 -2.699109 -0.696504
v -2.034531 -1.965741 1.230318
v -1.703182 -3.078682 -0.398046
v -1.675502 -2.237737 1.489277
v -1.344153 -3.350679 -0.139086
v -1.203910 -2.360747 1.669314
v -0.872561 -3.473689 0.040950
v -0.691550 -2.316042 1.743018
v -0.360200 -3.428984 0.114654
v -0.216424 -2.110430 1.699169
v 0.114925 -3.223372 0.070805
v 0.149134 -1.775212 1.544442
v 0.480483 -2.888154 -0.083921
vn 0.9861 0.0860 0.1419
vn 0.9145 0.3957 -0.0844
vn 0.7036 0.6452 -0.2978
vn 0.3856 0.7964 -0.4659
vn 0.0089 0.8264 -0.5630
vn -0.3692 0.7306 -0.5744
vn -0.6910 0.5235 -0.4984
vn -0.9077 0.2368 -0.3465
vn -0.9861 -0.0860 -0.1419
vn -0.9145 -0.3957 0.0844
vn -0.7036 -0.6452 0.2978
vn -0.3856 -0.7964 0.4659
vn -0.0089 -0.8264 0.5630
vn 0.3692 -0.7306 0.5744
vn 0.1657 -0.5565 -0.8142
vn 0.6910 -0.5235 0.4984
vn 0.9077 -0.2368 0.3465
vn -0.1657 0.5565 0.8142
s off
f 2//1 3//1 1//1
f 4//2 5//2 3//2
f 6//3 7//3 5//3
f 8//4 9//4 7//4
f 10//5 11//5 9//5
f 12//6 13//6 11//6
f 14//7 15//7 13//7
f 16//8 17//8 15//8
f 18//9 19//9 17//9
f 20//10 21//10 19//10
f 22//11 23//11 21//11
f 24//12 25//12 23//12
f 26//13 27//13 25//13
f 28//14 29//14 27//14
f 22//15 14//15 6//15
f 30//16 31//16 29//16
f 32//17 1//17 31//17
f 27//18 31//18 15//18
f 2//1 4//1 3//1
f 4//2 6//2 5//2
f 6//3 8//3 7//3
f 8//4 10//4 9//4
f 10//5 12//5 11//5
f 12//6 14//6 13//6
f 14//7 16//7 15//7
f 16//8 18//8 17//8
f 18//9 20//9 19//9
f 20//10 22//10 21//10
f 22//11 24//11 23//11
f 24//12 26//12 25//12
f 26//13 28//13 27//13
f 28//14 30//14 29//14
f 6//15 4//15 30//15
f 4//15 2//15 30//15
f 2//15 32//15 30//15
f 30//15 28//15 26//15
f 26//15 24//15 22//15
f 22//15 20//15 18//15
f 18//15 16//15 14//15
f 14//15 12//15 6//15
f 12//15 10//15 6//15
f 10//15 8//15 6//15
f 30//15 26//15 6//15
f 26//15 22//15 6//15
f 22//15 18//15 14//15
f 30//16 32//16 31//16
f 32//17 2//17 1//17
f 31//18 1//18 7//18
f 1//18 3//18 7//18
f 3//18 5//18 7//18
f 7//18 9//18 11//18
f 11//18 13//18 15//18
f 15//18 17//18 19//18
f 19//18 21//18 23//18
f 23//18 25//18 27//18
f 27//18 29//18 31//18
f 7//18 11//18 31//18
f 11//18 15//18 31//18
f 15//18 19//18 23//18
f 23//18 27//18 15//18
