# Blender v2.83.0 OBJ File: ''
# www.blender.org
o Cylinder.166_Cylinder.1595
v -0.934016 -0.883704 -0.246760
v 0.718695 -0.866420 -1.372926
v -1.026191 -0.357344 -0.373955
v 0.626519 -0.340060 -1.500121
v -1.224351 0.068863 -0.658224
v 0.428359 0.086147 -1.784390
v -1.498327 0.330032 -1.056291
v 0.154383 0.347316 -2.182456
v -1.806409 0.386402 -1.507552
v -0.153699 0.403686 -2.633718
v -2.101694 0.229392 -1.943309
v -0.448983 0.246675 -3.069475
v -2.339227 -0.117096 -2.297220
v -0.686516 -0.099812 -3.423386
v -2.482847 -0.600312 -2.515406
v -0.830136 -0.583028 -3.641572
v -2.510688 -1.146689 -2.564650
v -0.857978 -1.129405 -3.690816
v -2.418512 -1.673049 -2.437456
v -0.765802 -1.655765 -3.563622
v -2.220353 -2.099256 -2.153187
v -0.567642 -2.081972 -3.279352
v -1.946377 -2.360425 -1.755120
v -0.293666 -2.343141 -2.881286
v -1.638295 -2.416796 -1.303858
v 0.014416 -2.399512 -2.430024
v -1.343010 -2.259785 -0.868102
v 0.309700 -2.242501 -1.994267
v -1.105477 -1.913297 -0.514190
v 0.547234 -1.896013 -1.640356
v -0.961857 -1.430081 -0.296005
v 0.690854 -1.412797 -1.422170
vn 0.5376 0.2858 0.7933
vn 0.4324 0.6308 0.6443
vn 0.2615 0.8797 0.3972
vn 0.0507 0.9947 0.0896
vn -0.1678 0.9582 -0.2316
vn -0.3608 0.7759 -0.5175
vn -0.4988 0.4755 -0.7247
vn -0.5609 0.1026 -0.8215
vn -0.5376 -0.2858 -0.7933
vn -0.4324 -0.6308 -0.6443
vn -0.2615 -0.8797 -0.3972
vn -0.0507 -0.9947 -0.0896
vn 0.1678 -0.9582 0.2316
vn 0.3608 -0.7759 0.5175
vn 0.8264 0.0086 -0.5631
vn 0.4988 -0.4755 0.7247
vn 0.5609 -0.1026 0.8215
vn -0.8264 -0.0086 0.5631
s off
f 2//1 3//1 1//1
f 4//2 5//2 3//2
f 6//3 7//3 5//3
f 8//4 9//4 7//4
f 10//5 11//5 9//5
f 12//6 13//6 11//6
f 14//7 15//7 13//7
f 16//8 17//8 15//8
f 18//9 19//9 17//9
f 20//10 21//10 19//10
f 22//11 23//11 21//11
f 24//12 25//12 23//12
f 25//13 28//13 27//13
f 28//14 29//14 27//14
f 10//15 6//15 22//15
f 30//16 31//16 29//16
f 32//17 1//17 31//17
f 7//18 15//18 23//18
f 2//1 4//1 3//1
f 4//2 6//2 5//2
f 6//3 8//3 7//3
f 8//4 10//4 9//4
f 10//5 12//5 11//5
f 12//6 14//6 13//6
f 14//7 16//7 15//7
f 16//8 18//8 17//8
f 18//9 20//9 19//9
f 20//10 22//10 21//10
f 22//11 24//11 23//11
f 24//12 26//12 25//12
f 25//13 26//13 28//13
f 28//14 30//14 29//14
f 6//15 4//15 2//15
f 2//15 32//15 30//15
f 30//15 28//15 26//15
f 26//15 24//15 22//15
f 22//15 20//15 18//15
f 18//15 16//15 14//15
f 14//15 12//15 10//15
f 10//15 8//15 6//15
f 6//15 2//15 22//15
f 2//15 30//15 22//15
f 30//15 26//15 22//15
f 22//15 18//15 14//15
f 14//15 10//15 22//15
f 30//16 32//16 31//16
f 32//17 2//17 1//17
f 31//18 1//18 7//18
f 1//18 3//18 7//18
f 3//18 5//18 7//18
f 7//18 9//18 11//18
f 11//18 13//18 7//18
f 13//18 15//18 7//18
f 15//18 17//18 19//18
f 19//18 21//18 15//18
f 21//18 23//18 15//18
f 23//18 25//18 27//18
f 27//18 29//18 31//18
f 23//18 27//18 31//18
f 31//18 7//18 23//18
