# Blender v2.83.0 OBJ File: ''
# www.blender.org
o Cylinder.053_Cylinder.1482
v 2.579771 0.528642 -1.246371
v 1.512338 0.138404 0.399320
v 2.702369 0.287799 -1.223962
v 1.634936 -0.102439 0.421730
v 2.741469 0.022107 -1.261603
v 1.674036 -0.368131 0.384088
v 2.691119 -0.227985 -1.353565
v 1.623686 -0.618223 0.292126
v 2.558983 -0.424402 -1.485847
v 1.491550 -0.814640 0.159844
v 2.365179 -0.537241 -1.638310
v 1.297746 -0.927480 0.007381
v 2.139210 -0.549325 -1.787744
v 1.071778 -0.939563 -0.142052
v 1.915480 -0.458813 -1.911398
v 0.848047 -0.849051 -0.265706
v 1.728048 -0.279485 -1.990446
v 0.660616 -0.669723 -0.344755
v 1.605450 -0.038641 -2.012856
v 0.538017 -0.428880 -0.367165
v 1.566350 0.227051 -1.975214
v 0.498917 -0.163188 -0.329523
v 1.616700 0.477142 -1.883253
v 0.549267 0.086904 -0.237561
v 1.748836 0.673560 -1.750971
v 0.681403 0.283321 -0.105279
v 1.942640 0.786399 -1.598507
v 0.875207 0.396161 0.047184
v 2.168609 0.798483 -1.449074
v 1.101176 0.408245 0.196618
v 2.392339 0.707970 -1.325420
v 1.324906 0.317732 0.320271
vn 0.7147 0.4161 0.5622
vn 0.8333 0.0446 0.5511
vn 0.8250 -0.3338 0.4560
vn 0.6912 -0.6613 0.2915
vn 0.4521 -0.8881 0.0826
vn 0.1442 -0.9798 -0.1388
vn -0.1857 -0.9222 -0.3391
vn -0.4873 -0.7243 -0.4878
vn -0.7147 -0.4161 -0.5622
vn -0.8333 -0.0446 -0.5511
vn -0.8250 0.3338 -0.4560
vn -0.6912 0.6613 -0.2915
vn -0.4521 0.8881 -0.0826
vn -0.1442 0.9798 0.1388
vn -0.5337 -0.1951 0.8228
vn 0.1857 0.9222 0.3391
vn 0.4873 0.7243 0.4878
vn 0.5337 0.1951 -0.8228
s off
f 2//1 3//1 1//1
f 4//2 5//2 3//2
f 6//3 7//3 5//3
f 8//4 9//4 7//4
f 10//5 11//5 9//5
f 12//6 13//6 11//6
f 14//7 15//7 13//7
f 16//8 17//8 15//8
f 18//9 19//9 17//9
f 20//10 21//10 19//10
f 22//11 23//11 21//11
f 23//12 26//12 25//12
f 26//13 27//13 25//13
f 28//14 29//14 27//14
f 22//15 14//15 6//15
f 30//16 31//16 29//16
f 32//17 1//17 31//17
f 31//18 7//18 15//18
f 2//1 4//1 3//1
f 4//2 6//2 5//2
f 6//3 8//3 7//3
f 8//4 10//4 9//4
f 10//5 12//5 11//5
f 12//6 14//6 13//6
f 14//7 16//7 15//7
f 16//8 18//8 17//8
f 18//9 20//9 19//9
f 20//10 22//10 21//10
f 22//11 24//11 23//11
f 23//12 24//12 26//12
f 26//13 28//13 27//13
f 28//14 30//14 29//14
f 6//15 4//15 2//15
f 2//15 32//15 6//15
f 32//15 30//15 6//15
f 30//15 28//15 26//15
f 26//15 24//15 22//15
f 22//15 20//15 14//15
f 20//15 18//15 14//15
f 18//15 16//15 14//15
f 14//15 12//15 10//15
f 10//15 8//15 6//15
f 30//15 26//15 22//15
f 14//15 10//15 6//15
f 6//15 30//15 22//15
f 30//16 32//16 31//16
f 32//17 2//17 1//17
f 31//18 1//18 3//18
f 3//18 5//18 7//18
f 7//18 9//18 11//18
f 11//18 13//18 7//18
f 13//18 15//18 7//18
f 15//18 17//18 19//18
f 19//18 21//18 15//18
f 21//18 23//18 15//18
f 23//18 25//18 27//18
f 27//18 29//18 31//18
f 31//18 3//18 7//18
f 23//18 27//18 15//18
f 27//18 31//18 15//18
