# Blender v2.83.0 OBJ File: ''
# www.blender.org
o Cylinder.086_Cylinder.1515
v -2.465919 0.171727 -0.241306
v -0.467826 0.093663 -0.202193
v -2.436899 0.789149 -0.491505
v -0.438806 0.711085 -0.452392
v -2.409205 1.263699 -0.959144
v -0.411112 1.185635 -0.920031
v -2.387053 1.523132 -1.573029
v -0.388960 1.445068 -1.533917
v -2.373814 1.527951 -2.239702
v -0.375721 1.449887 -2.200590
v -2.371505 1.277423 -2.857668
v -0.373412 1.199359 -2.818555
v -2.380478 0.809688 -3.332847
v -0.382385 0.731624 -3.293734
v -2.399365 0.195955 -3.592897
v -0.401273 0.117891 -3.553784
v -2.425293 -0.470341 -3.598228
v -0.427200 -0.548405 -3.559116
v -2.454313 -1.087763 -3.348029
v -0.456220 -1.165827 -3.308917
v -2.482007 -1.562313 -2.880390
v -0.483914 -1.640377 -2.841278
v -2.504159 -1.821746 -2.266505
v -0.506067 -1.899810 -2.227392
v -2.517398 -1.826566 -1.599832
v -0.519305 -1.904630 -1.560719
v -2.519707 -1.576037 -0.981866
v -0.521614 -1.654101 -0.942753
v -2.510734 -1.108302 -0.506687
v -0.512641 -1.186366 -0.467574
v -2.491847 -0.494569 -0.246637
v -0.493754 -0.572633 -0.207524
vn -0.0035 0.3757 0.9267
vn 0.0135 0.7014 0.7126
vn 0.0283 0.9204 0.3900
vn 0.0389 0.9992 0.0080
vn 0.0435 0.9259 -0.3752
vn 0.0415 0.7117 -0.7013
vn 0.0332 0.3891 -0.9206
vn 0.0199 0.0072 -0.9998
vn 0.0035 -0.3757 -0.9267
vn -0.0135 -0.7014 -0.7126
vn -0.0283 -0.9204 -0.3900
vn -0.0389 -0.9992 -0.0080
vn -0.0435 -0.9259 0.3752
vn -0.0415 -0.7117 0.7013
vn 0.9990 -0.0390 0.0196
vn -0.0332 -0.3891 0.9206
vn -0.0199 -0.0072 0.9998
vn -0.9990 0.0390 -0.0196
s off
f 2//1 3//1 1//1
f 4//2 5//2 3//2
f 6//3 7//3 5//3
f 8//4 9//4 7//4
f 10//5 11//5 9//5
f 12//6 13//6 11//6
f 14//7 15//7 13//7
f 16//8 17//8 15//8
f 18//9 19//9 17//9
f 20//10 21//10 19//10
f 22//11 23//11 21//11
f 24//12 25//12 23//12
f 26//13 27//13 25//13
f 28//14 29//14 27//14
f 22//15 14//15 6//15
f 30//16 31//16 29//16
f 32//17 1//17 31//17
f 27//18 31//18 15//18
f 2//1 4//1 3//1
f 4//2 6//2 5//2
f 6//3 8//3 7//3
f 8//4 10//4 9//4
f 10//5 12//5 11//5
f 12//6 14//6 13//6
f 14//7 16//7 15//7
f 16//8 18//8 17//8
f 18//9 20//9 19//9
f 20//10 22//10 21//10
f 22//11 24//11 23//11
f 24//12 26//12 25//12
f 26//13 28//13 27//13
f 28//14 30//14 29//14
f 6//15 4//15 30//15
f 4//15 2//15 30//15
f 2//15 32//15 30//15
f 30//15 28//15 26//15
f 26//15 24//15 22//15
f 22//15 20//15 18//15
f 18//15 16//15 14//15
f 14//15 12//15 10//15
f 10//15 8//15 14//15
f 8//15 6//15 14//15
f 30//15 26//15 6//15
f 26//15 22//15 6//15
f 22//15 18//15 14//15
f 30//16 32//16 31//16
f 32//17 2//17 1//17
f 31//18 1//18 3//18
f 3//18 5//18 7//18
f 7//18 9//18 15//18
f 9//18 11//18 15//18
f 11//18 13//18 15//18
f 15//18 17//18 19//18
f 19//18 21//18 23//18
f 23//18 25//18 27//18
f 27//18 29//18 31//18
f 31//18 3//18 15//18
f 3//18 7//18 15//18
f 15//18 19//18 23//18
f 23//18 27//18 15//18
