# Blender v2.83.0 OBJ File: ''
# www.blender.org
o Cylinder.248_Cylinder.1677
v 2.992441 1.869976 -2.090236
v 1.662542 2.345426 -3.506328
v 2.715260 2.370104 -1.662009
v 1.385361 2.845553 -3.078101
v 2.284708 2.648088 -1.164331
v 0.954809 3.123538 -2.580423
v 1.766332 2.661608 -0.672967
v 0.436433 3.137058 -2.089059
v 1.239050 2.408607 -0.262724
v -0.090849 2.884057 -1.678816
v 0.783137 1.927601 0.003942
v -0.546762 2.403051 -1.412150
v 0.468001 1.291819 0.086434
v -0.861898 1.767269 -1.329658
v 0.341618 0.598053 -0.027806
v -0.988281 1.073503 -1.443898
v 0.423229 -0.048077 -0.321387
v -0.906669 0.427373 -1.737479
v 0.700410 -0.548204 -0.749613
v -0.629488 -0.072754 -2.165705
v 1.130962 -0.826188 -1.247292
v -0.198936 -0.350739 -2.663384
v 1.649339 -0.839709 -1.738655
v 0.319440 -0.364259 -3.154747
v 2.176620 -0.586708 -2.148898
v 0.846722 -0.111258 -3.564990
v 2.632534 -0.105701 -2.415565
v 1.302635 0.369748 -3.831656
v 2.947670 0.530081 -2.498057
v 1.617772 1.005531 -3.914149
v 3.074053 1.223847 -2.383816
v 1.744154 1.699297 -3.799909
vn 0.6382 0.6733 -0.3733
vn 0.4411 0.8900 -0.1155
vn 0.1769 0.9711 0.1599
vn -0.1142 0.9045 0.4110
vn -0.3880 0.7001 0.5994
vn -0.6027 0.3891 0.6967
vn -0.7256 0.0189 0.6878
vn -0.7381 -0.3542 0.5743
vn -0.6382 -0.6733 0.3733
vn -0.4411 -0.8900 0.1155
vn -0.1769 -0.9711 -0.1599
vn 0.1142 -0.9045 -0.4110
vn 0.3880 -0.7001 -0.5994
vn 0.6027 -0.3891 -0.6967
vn -0.6649 0.2377 -0.7080
vn 0.7256 -0.0189 -0.6878
vn 0.7381 0.3542 -0.5743
vn 0.6649 -0.2377 0.7080
vn -0.6650 0.2377 -0.7080
vn 0.6650 -0.2377 0.7080
s off
f 2//1 3//1 1//1
f 4//2 5//2 3//2
f 6//3 7//3 5//3
f 8//4 9//4 7//4
f 10//5 11//5 9//5
f 12//6 13//6 11//6
f 14//7 15//7 13//7
f 16//8 17//8 15//8
f 18//9 19//9 17//9
f 20//10 21//10 19//10
f 22//11 23//11 21//11
f 24//12 25//12 23//12
f 26//13 27//13 25//13
f 28//14 29//14 27//14
f 6//15 30//15 22//15
f 30//16 31//16 29//16
f 32//17 1//17 31//17
f 15//18 23//18 31//18
f 2//1 4//1 3//1
f 4//2 6//2 5//2
f 6//3 8//3 7//3
f 8//4 10//4 9//4
f 10//5 12//5 11//5
f 12//6 14//6 13//6
f 14//7 16//7 15//7
f 16//8 18//8 17//8
f 18//9 20//9 19//9
f 20//10 22//10 21//10
f 22//11 24//11 23//11
f 24//12 26//12 25//12
f 26//13 28//13 27//13
f 28//14 30//14 29//14
f 6//19 4//19 2//19
f 2//15 32//15 6//15
f 32//15 30//15 6//15
f 30//15 28//15 22//15
f 28//15 26//15 22//15
f 26//15 24//15 22//15
f 22//15 20//15 14//15
f 20//15 18//15 14//15
f 18//15 16//15 14//15
f 14//15 12//15 10//15
f 10//15 8//15 6//15
f 14//15 10//15 22//15
f 10//15 6//15 22//15
f 30//16 32//16 31//16
f 32//17 2//17 1//17
f 31//18 1//18 3//18
f 3//18 5//18 7//18
f 7//18 9//18 15//18
f 9//18 11//18 15//18
f 11//18 13//18 15//18
f 15//20 17//20 19//20
f 19//18 21//18 23//18
f 23//18 25//18 27//18
f 27//18 29//18 23//18
f 29//18 31//18 23//18
f 31//18 3//18 15//18
f 3//18 7//18 15//18
f 15//18 19//18 23//18
