# Blender v2.83.0 OBJ File: ''
# www.blender.org
o Cylinder.184_Cylinder.1613
v 2.710124 -1.915430 -0.535167
v 1.721335 -2.956235 -1.927654
v 2.867155 -1.825350 -0.714003
v 1.878366 -2.866155 -2.106489
v 2.952617 -1.666452 -0.893455
v 1.963827 -2.707258 -2.285942
v 2.953498 -1.462928 -1.046204
v 1.964708 -2.503733 -2.438691
v 2.869665 -1.245761 -1.148995
v 1.880876 -2.286566 -2.541481
v 2.713881 -1.048014 -1.186179
v 1.725091 -2.088820 -2.578666
v 2.509862 -0.899792 -1.152096
v 1.521072 -1.940597 -2.544582
v 2.288669 -0.823660 -1.051933
v 1.299879 -1.864465 -2.444419
v 2.083975 -0.831208 -0.900940
v 1.095185 -1.872014 -2.293426
v 1.926944 -0.921288 -0.722104
v 0.938155 -1.962094 -2.114591
v 1.841483 -1.080186 -0.542652
v 0.852693 -2.120991 -1.935138
v 1.840601 -1.283710 -0.389903
v 0.851812 -2.324516 -1.782389
v 1.924434 -1.500877 -0.287112
v 0.935645 -2.541683 -1.679598
v 2.080219 -1.698624 -0.249928
v 1.091429 -2.739430 -1.642414
v 2.284238 -1.846847 -0.284011
v 1.295448 -2.887652 -1.676498
v 2.505431 -1.922979 -0.384174
v 1.516641 -2.963784 -1.776661
vn 0.6122 -0.7771 0.1461
vn 0.8017 -0.5825 -0.1339
vn 0.8692 -0.2992 -0.3936
vn 0.8044 0.0297 -0.5934
vn 0.6171 0.3540 -0.7028
vn 0.3358 0.6244 -0.7052
vn 0.0035 0.7998 -0.6003
vn -0.3294 0.8534 -0.4039
vn -0.6122 0.7771 -0.1461
vn -0.8017 0.5825 0.1339
vn -0.8692 0.2992 0.3936
vn -0.8044 -0.0297 0.5934
vn -0.6171 -0.3540 0.7028
vn -0.3358 -0.6244 0.7052
vn -0.4944 -0.5204 -0.6962
vn -0.0035 -0.7998 0.6003
vn 0.3294 -0.8534 0.4039
vn 0.4944 0.5204 0.6962
s off
f 2//1 3//1 1//1
f 4//2 5//2 3//2
f 6//3 7//3 5//3
f 8//4 9//4 7//4
f 10//5 11//5 9//5
f 12//6 13//6 11//6
f 14//7 15//7 13//7
f 16//8 17//8 15//8
f 18//9 19//9 17//9
f 20//10 21//10 19//10
f 22//11 23//11 21//11
f 24//12 25//12 23//12
f 26//13 27//13 25//13
f 28//14 29//14 27//14
f 6//15 30//15 22//15
f 30//16 31//16 29//16
f 32//17 1//17 31//17
f 27//18 31//18 15//18
f 2//1 4//1 3//1
f 4//2 6//2 5//2
f 6//3 8//3 7//3
f 8//4 10//4 9//4
f 10//5 12//5 11//5
f 12//6 14//6 13//6
f 14//7 16//7 15//7
f 16//8 18//8 17//8
f 18//9 20//9 19//9
f 20//10 22//10 21//10
f 22//11 24//11 23//11
f 24//12 26//12 25//12
f 26//13 28//13 27//13
f 28//14 30//14 29//14
f 6//15 4//15 2//15
f 2//15 32//15 30//15
f 30//15 28//15 26//15
f 26//15 24//15 22//15
f 22//15 20//15 18//15
f 18//15 16//15 22//15
f 16//15 14//15 22//15
f 14//15 12//15 10//15
f 10//15 8//15 6//15
f 6//15 2//15 30//15
f 30//15 26//15 22//15
f 14//15 10//15 22//15
f 10//15 6//15 22//15
f 30//16 32//16 31//16
f 32//17 2//17 1//17
f 31//18 1//18 3//18
f 3//18 5//18 7//18
f 7//18 9//18 11//18
f 11//18 13//18 15//18
f 15//18 17//18 19//18
f 19//18 21//18 23//18
f 23//18 25//18 27//18
f 27//18 29//18 31//18
f 31//18 3//18 15//18
f 3//18 7//18 15//18
f 7//18 11//18 15//18
f 15//18 19//18 23//18
f 23//18 27//18 15//18
