# Blender v2.83.0 OBJ File: ''
# www.blender.org
o Cylinder.242_Cylinder.1671
v -3.365145 -0.799773 -2.727190
v -1.657118 -0.764752 -3.767102
v -3.338687 -1.446702 -2.705521
v -1.630661 -1.411680 -3.745433
v -3.185664 -2.032040 -2.473897
v -1.477638 -1.997018 -3.513810
v -2.929372 -2.466675 -2.067581
v -1.221345 -2.431653 -3.107493
v -2.608828 -2.684437 -1.548431
v -0.900801 -2.649416 -2.588343
v -2.272833 -2.652175 -0.995481
v -0.564806 -2.617154 -2.035394
v -1.972539 -2.374800 -0.492916
v -0.264512 -2.339778 -1.532828
v -1.753663 -1.894540 -0.117244
v -0.045636 -1.859518 -1.157156
v -1.649526 -1.284509 0.074342
v 0.058501 -1.249488 -0.965571
v -1.675983 -0.637581 0.052673
v 0.032043 -0.602560 -0.987240
v -1.829007 -0.052243 -0.178951
v -0.120980 -0.017222 -1.218863
v -2.085299 0.382392 -0.585267
v -0.377272 0.417414 -1.625179
v -2.405843 0.600155 -1.104418
v -0.697816 0.635176 -2.144330
v -2.741838 0.567893 -1.657367
v -1.033812 0.602914 -2.697279
v -3.042133 0.290517 -2.159933
v -1.334106 0.325539 -3.199846
v -3.261009 -0.189743 -2.535605
v -1.552982 -0.154722 -3.575518
vn -0.5186 -0.0498 -0.8535
vn -0.4635 -0.4282 -0.7758
vn -0.3379 -0.7413 -0.5799
vn -0.1607 -0.9416 -0.2957
vn 0.0408 -0.9986 0.0334
vn 0.2362 -0.9035 0.3575
vn 0.3956 -0.6709 0.6272
vn 0.4948 -0.3361 0.8014
vn 0.5186 0.0498 0.8535
vn 0.4635 0.4282 0.7758
vn 0.3379 0.7413 0.5799
vn 0.1607 0.9416 0.2957
vn -0.0408 0.9986 -0.0334
vn -0.2362 0.9035 -0.3575
vn 0.8540 0.0175 -0.5200
vn -0.3956 0.6709 -0.6272
vn -0.4948 0.3361 -0.8014
vn -0.8540 -0.0175 0.5200
s off
f 2//1 3//1 1//1
f 4//2 5//2 3//2
f 6//3 7//3 5//3
f 8//4 9//4 7//4
f 10//5 11//5 9//5
f 12//6 13//6 11//6
f 14//7 15//7 13//7
f 16//8 17//8 15//8
f 18//9 19//9 17//9
f 20//10 21//10 19//10
f 22//11 23//11 21//11
f 24//12 25//12 23//12
f 26//13 27//13 25//13
f 28//14 29//14 27//14
f 30//15 22//15 14//15
f 30//16 31//16 29//16
f 32//17 1//17 31//17
f 15//18 23//18 31//18
f 2//1 4//1 3//1
f 4//2 6//2 5//2
f 6//3 8//3 7//3
f 8//4 10//4 9//4
f 10//5 12//5 11//5
f 12//6 14//6 13//6
f 14//7 16//7 15//7
f 16//8 18//8 17//8
f 18//9 20//9 19//9
f 20//10 22//10 21//10
f 22//11 24//11 23//11
f 24//12 26//12 25//12
f 26//13 28//13 27//13
f 28//14 30//14 29//14
f 6//15 4//15 30//15
f 4//15 2//15 30//15
f 2//15 32//15 30//15
f 30//15 28//15 22//15
f 28//15 26//15 22//15
f 26//15 24//15 22//15
f 22//15 20//15 18//15
f 18//15 16//15 14//15
f 14//15 12//15 10//15
f 10//15 8//15 6//15
f 22//15 18//15 14//15
f 14//15 10//15 6//15
f 6//15 30//15 14//15
f 30//16 32//16 31//16
f 32//17 2//17 1//17
f 31//18 1//18 3//18
f 3//18 5//18 7//18
f 7//18 9//18 11//18
f 11//18 13//18 15//18
f 15//18 17//18 19//18
f 19//18 21//18 23//18
f 23//18 25//18 27//18
f 27//18 29//18 23//18
f 29//18 31//18 23//18
f 31//18 3//18 7//18
f 7//18 11//18 15//18
f 15//18 19//18 23//18
f 31//18 7//18 15//18
