# Blender v2.83.0 OBJ File: ''
# www.blender.org
o Cylinder.104_Cylinder.1533
v 3.086103 0.724890 0.151978
v 1.917520 0.977534 -1.451325
v 3.406836 1.117168 -0.019977
v 2.238252 1.369811 -1.623281
v 3.591125 1.616428 -0.075626
v 2.422540 1.869071 -1.678930
v 3.610912 2.146662 -0.006496
v 2.442328 2.399306 -1.609800
v 3.463187 2.627149 0.176888
v 2.294604 2.879792 -1.426415
v 3.170439 2.984736 0.446608
v 2.001855 3.237380 -1.156695
v 2.777236 3.164987 0.761601
v 1.608652 3.417630 -0.841702
v 2.343440 3.140458 1.073913
v 1.174856 3.393101 -0.529391
v 1.935092 2.914884 1.335996
v 0.766508 3.167527 -0.267308
v 1.614360 2.522607 1.507951
v 0.445776 2.775250 -0.095352
v 1.430071 2.023347 1.563600
v 0.261487 2.275990 -0.039703
v 1.410283 1.493112 1.494470
v 0.241699 1.745755 -0.108833
v 1.558008 1.012626 1.311086
v 0.389424 1.265269 -0.292217
v 1.850757 0.655038 1.041366
v 0.682173 0.907681 -0.561938
v 2.243960 0.474788 0.726373
v 1.075376 0.727431 -0.876931
v 2.677756 0.499317 0.414061
v 1.509172 0.751960 -1.189243
vn 0.5471 -0.6683 -0.5041
vn 0.7348 -0.3369 -0.5887
vn 0.8107 0.0458 -0.5837
vn 0.7631 0.4216 -0.4898
vn 0.5994 0.7331 -0.3214
vn 0.3444 0.9330 -0.1040
vn 0.0370 0.9909 0.1292
vn -0.2761 0.8980 0.3427
vn -0.5471 0.6683 0.5041
vn -0.7348 0.3369 0.5887
vn -0.8107 -0.0458 0.5837
vn -0.7631 -0.4216 0.4898
vn -0.5994 -0.7331 0.3214
vn -0.3444 -0.9330 0.1040
vn -0.5843 0.1263 -0.8017
vn -0.0370 -0.9909 -0.1292
vn 0.2761 -0.8980 -0.3427
vn 0.5843 -0.1263 0.8017
s off
f 2//1 3//1 1//1
f 4//2 5//2 3//2
f 6//3 7//3 5//3
f 7//4 10//4 9//4
f 10//5 11//5 9//5
f 12//6 13//6 11//6
f 14//7 15//7 13//7
f 16//8 17//8 15//8
f 18//9 19//9 17//9
f 20//10 21//10 19//10
f 22//11 23//11 21//11
f 24//12 25//12 23//12
f 26//13 27//13 25//13
f 28//14 29//14 27//14
f 18//15 14//15 6//15
f 30//16 31//16 29//16
f 32//17 1//17 31//17
f 31//18 7//18 15//18
f 2//1 4//1 3//1
f 4//2 6//2 5//2
f 6//3 8//3 7//3
f 7//4 8//4 10//4
f 10//5 12//5 11//5
f 12//6 14//6 13//6
f 14//7 16//7 15//7
f 16//8 18//8 17//8
f 18//9 20//9 19//9
f 20//10 22//10 21//10
f 22//11 24//11 23//11
f 24//12 26//12 25//12
f 26//13 28//13 27//13
f 28//14 30//14 29//14
f 6//15 4//15 2//15
f 2//15 32//15 30//15
f 30//15 28//15 26//15
f 26//15 24//15 22//15
f 22//15 20//15 18//15
f 18//15 16//15 14//15
f 14//15 12//15 10//15
f 10//15 8//15 14//15
f 8//15 6//15 14//15
f 6//15 2//15 30//15
f 30//15 26//15 6//15
f 26//15 22//15 6//15
f 22//15 18//15 6//15
f 30//16 32//16 31//16
f 32//17 2//17 1//17
f 31//18 1//18 7//18
f 1//18 3//18 7//18
f 3//18 5//18 7//18
f 7//18 9//18 11//18
f 11//18 13//18 15//18
f 15//18 17//18 19//18
f 19//18 21//18 23//18
f 23//18 25//18 27//18
f 27//18 29//18 31//18
f 7//18 11//18 15//18
f 15//18 19//18 23//18
f 23//18 27//18 15//18
f 27//18 31//18 15//18
