# Blender v2.83.0 OBJ File: ''
# www.blender.org
o Cylinder.117_Cylinder.1546
v -0.916474 -2.076362 -0.039219
v -1.098660 -1.670932 1.910764
v -1.048762 -1.852690 -0.098084
v -1.230948 -1.447260 1.851899
v -1.082958 -1.594634 -0.154932
v -1.265145 -1.189204 1.795051
v -1.013858 -1.341481 -0.201111
v -1.196044 -0.936050 1.748872
v -0.851980 -1.131769 -0.229589
v -1.034166 -0.726339 1.720395
v -0.621969 -0.997428 -0.236030
v -0.804156 -0.591997 1.713953
v -0.358843 -0.958908 -0.219455
v -0.541029 -0.553477 1.730528
v -0.102659 -1.022074 -0.182387
v -0.284845 -0.616643 1.767596
v 0.107581 -1.177309 -0.130469
v -0.074606 -0.771878 1.819514
v 0.239868 -1.400981 -0.071604
v 0.057682 -0.995550 1.878379
v 0.274065 -1.659037 -0.014756
v 0.091879 -1.253606 1.935227
v 0.204965 -1.912190 0.031423
v 0.022778 -1.506760 1.981406
v 0.043087 -2.121902 0.059900
v -0.139100 -1.716471 2.009884
v -0.186924 -2.256243 0.066342
v -0.369110 -1.850813 2.016325
v -0.450051 -2.294764 0.049767
v -0.632237 -1.889333 1.999750
v -0.706235 -2.231597 0.012699
v -0.888421 -1.826167 1.962682
vn -0.8633 -0.5042 0.0242
vn -0.9875 -0.1446 -0.0622
vn -0.9615 0.2371 -0.1391
vn -0.7890 0.5826 -0.1949
vn -0.4965 0.8395 -0.2209
vn -0.1283 0.9685 -0.2134
vn 0.2593 0.9501 -0.1733
vn 0.6075 0.7871 -0.1069
vn 0.8633 0.5042 -0.0242
vn 0.9875 0.1446 0.0622
vn 0.9615 -0.2371 0.1391
vn 0.7890 -0.5826 0.1949
vn 0.4965 -0.8395 0.2209
vn 0.1283 -0.9685 0.2134
vn -0.0911 0.2027 0.9750
vn -0.2593 -0.9501 0.1733
vn -0.6075 -0.7871 0.1069
vn 0.0911 -0.2027 -0.9750
s off
f 2//1 3//1 1//1
f 4//2 5//2 3//2
f 6//3 7//3 5//3
f 8//4 9//4 7//4
f 10//5 11//5 9//5
f 12//6 13//6 11//6
f 14//7 15//7 13//7
f 16//8 17//8 15//8
f 18//9 19//9 17//9
f 20//10 21//10 19//10
f 22//11 23//11 21//11
f 24//12 25//12 23//12
f 26//13 27//13 25//13
f 28//14 29//14 27//14
f 22//15 14//15 6//15
f 30//16 31//16 29//16
f 32//17 1//17 31//17
f 15//18 23//18 31//18
f 2//1 4//1 3//1
f 4//2 6//2 5//2
f 6//3 8//3 7//3
f 8//4 10//4 9//4
f 10//5 12//5 11//5
f 12//6 14//6 13//6
f 14//7 16//7 15//7
f 16//8 18//8 17//8
f 18//9 20//9 19//9
f 20//10 22//10 21//10
f 22//11 24//11 23//11
f 24//12 26//12 25//12
f 26//13 28//13 27//13
f 28//14 30//14 29//14
f 6//15 4//15 2//15
f 2//15 32//15 30//15
f 30//15 28//15 26//15
f 26//15 24//15 22//15
f 22//15 20//15 18//15
f 18//15 16//15 14//15
f 14//15 12//15 10//15
f 10//15 8//15 14//15
f 8//15 6//15 14//15
f 6//15 2//15 22//15
f 2//15 30//15 22//15
f 30//15 26//15 22//15
f 22//15 18//15 14//15
f 30//16 32//16 31//16
f 32//17 2//17 1//17
f 31//18 1//18 3//18
f 3//18 5//18 7//18
f 7//18 9//18 11//18
f 11//18 13//18 15//18
f 15//18 17//18 19//18
f 19//18 21//18 15//18
f 21//18 23//18 15//18
f 23//18 25//18 27//18
f 27//18 29//18 31//18
f 31//18 3//18 7//18
f 7//18 11//18 15//18
f 23//18 27//18 31//18
f 31//18 7//18 15//18
