# Blender v2.83.0 OBJ File: ''
# www.blender.org
o Cylinder.222_Cylinder.1651
v 1.296465 1.353755 1.972250
v 0.499432 2.333205 0.421309
v 1.121595 1.705635 2.284335
v 0.324562 2.685085 0.733395
v 0.797125 1.931241 2.593556
v 0.000091 2.910690 1.042615
v 0.372451 1.996226 2.852836
v -0.424582 2.975675 1.301895
v -0.087772 1.890696 3.022702
v -0.884805 2.870145 1.471761
v -0.513481 1.630718 3.077294
v -1.310514 2.610167 1.526353
v -0.839864 1.255871 3.008300
v -1.636897 2.235321 1.457360
v -1.017234 0.823222 2.826225
v -1.814267 1.802672 1.275284
v -1.018586 0.398638 2.558787
v -1.815619 1.378088 1.007846
v -0.843716 0.046758 2.246701
v -1.640749 1.026207 0.695761
v -0.519246 -0.178848 1.937481
v -1.316279 0.800602 0.386540
v -0.094572 -0.243832 1.678200
v -0.891605 0.735617 0.127260
v 0.365651 -0.138303 1.508334
v -0.431382 0.841147 -0.042606
v 0.791360 0.121675 1.453742
v -0.005673 1.101125 -0.097198
v 1.117743 0.496522 1.522736
v 0.320710 1.475972 -0.028204
v 1.295113 0.929172 1.704812
v 0.498080 1.908621 0.153871
vn 0.8484 0.5181 -0.1088
vn 0.6504 0.7470 0.1375
vn 0.3535 0.8622 0.3628
vn 0.0027 0.8461 0.5330
vn -0.3485 0.7012 0.6219
vn -0.6466 0.4496 0.6162
vn -0.8463 0.1295 0.5167
vn -0.9172 -0.2103 0.3385
vn -0.8484 -0.5181 0.1088
vn -0.6504 -0.7470 -0.1375
vn -0.3535 -0.8622 -0.3628
vn -0.0027 -0.8461 -0.5330
vn 0.3485 -0.7012 -0.6219
vn 0.6466 -0.4496 -0.6162
vn -0.3985 0.4897 -0.7755
vn 0.8463 -0.1295 -0.5167
vn 0.9172 0.2103 -0.3385
vn 0.3985 -0.4897 0.7755
s off
f 1//1 4//1 3//1
f 4//2 5//2 3//2
f 6//3 7//3 5//3
f 8//4 9//4 7//4
f 10//5 11//5 9//5
f 12//6 13//6 11//6
f 14//7 15//7 13//7
f 15//8 18//8 17//8
f 18//9 19//9 17//9
f 20//10 21//10 19//10
f 22//11 23//11 21//11
f 24//12 25//12 23//12
f 26//13 27//13 25//13
f 28//14 29//14 27//14
f 10//15 6//15 22//15
f 30//16 31//16 29//16
f 32//17 1//17 31//17
f 31//18 7//18 15//18
f 1//1 2//1 4//1
f 4//2 6//2 5//2
f 6//3 8//3 7//3
f 8//4 10//4 9//4
f 10//5 12//5 11//5
f 12//6 14//6 13//6
f 14//7 16//7 15//7
f 15//8 16//8 18//8
f 18//9 20//9 19//9
f 20//10 22//10 21//10
f 22//11 24//11 23//11
f 24//12 26//12 25//12
f 26//13 28//13 27//13
f 28//14 30//14 29//14
f 6//15 4//15 2//15
f 2//15 32//15 30//15
f 30//15 28//15 22//15
f 28//15 26//15 22//15
f 26//15 24//15 22//15
f 22//15 20//15 18//15
f 18//15 16//15 14//15
f 14//15 12//15 10//15
f 10//15 8//15 6//15
f 6//15 2//15 22//15
f 2//15 30//15 22//15
f 22//15 18//15 14//15
f 14//15 10//15 22//15
f 30//16 32//16 31//16
f 32//17 2//17 1//17
f 31//18 1//18 7//18
f 1//18 3//18 7//18
f 3//18 5//18 7//18
f 7//18 9//18 11//18
f 11//18 13//18 15//18
f 15//18 17//18 19//18
f 19//18 21//18 15//18
f 21//18 23//18 15//18
f 23//18 25//18 27//18
f 27//18 29//18 31//18
f 7//18 11//18 15//18
f 23//18 27//18 15//18
f 27//18 31//18 15//18
