# Blender v2.83.0 OBJ File: ''
# www.blender.org
o Cylinder.208_Cylinder.1637
v 0.085886 -0.300204 2.004357
v 1.052035 -1.556841 0.784758
v 0.168785 -0.135325 1.900142
v 1.134934 -1.391962 0.680544
v 0.181839 0.017082 1.753447
v 1.147988 -1.239554 0.533849
v 0.123061 0.133816 1.586605
v 1.089210 -1.122820 0.367007
v 0.001400 0.197105 1.425016
v 0.967549 -1.059532 0.205418
v -0.164623 0.197313 1.293280
v 0.801526 -1.059324 0.073682
v -0.349732 0.134409 1.211454
v 0.616417 -1.122228 -0.008144
v -0.525747 0.017969 1.191994
v 0.440403 -1.238667 -0.027605
v -0.665869 -0.134279 1.237863
v 0.300280 -1.390916 0.018264
v -0.748768 -0.299158 1.342077
v 0.217381 -1.555795 0.122479
v -0.761822 -0.451566 1.488772
v 0.204327 -1.708202 0.269174
v -0.703045 -0.568300 1.655614
v 0.263105 -1.824936 0.436016
v -0.581383 -0.631589 1.817203
v 0.384766 -1.888225 0.597605
v -0.415360 -0.631796 1.948939
v 0.550789 -1.888433 0.729341
v -0.230251 -0.568892 2.030766
v 0.735898 -1.825529 0.811167
v -0.054237 -0.452452 2.050225
v 0.911913 -1.709089 0.830627
vn 0.7834 -0.0010 0.6216
vn 0.8734 0.2968 0.3861
vn 0.8305 0.5494 0.0918
vn 0.6611 0.7184 -0.2164
vn 0.3911 0.7780 -0.4917
vn 0.0616 0.7191 -0.6922
vn -0.2773 0.5508 -0.7872
vn -0.5740 0.2986 -0.7624
vn -0.7834 0.0010 -0.6216
vn -0.8734 -0.2968 -0.3861
vn -0.8305 -0.5494 -0.0918
vn -0.6611 -0.7184 0.2164
vn -0.3911 -0.7780 0.4917
vn -0.0616 -0.7191 0.6922
vn 0.4831 -0.6283 -0.6098
vn 0.2773 -0.5508 0.7872
vn 0.5740 -0.2986 0.7624
vn -0.4831 0.6283 0.6098
s off
f 2//1 3//1 1//1
f 4//2 5//2 3//2
f 6//3 7//3 5//3
f 8//4 9//4 7//4
f 10//5 11//5 9//5
f 12//6 13//6 11//6
f 14//7 15//7 13//7
f 16//8 17//8 15//8
f 17//9 20//9 19//9
f 20//10 21//10 19//10
f 22//11 23//11 21//11
f 24//12 25//12 23//12
f 26//13 27//13 25//13
f 28//14 29//14 27//14
f 22//15 14//15 6//15
f 30//16 31//16 29//16
f 32//17 1//17 31//17
f 31//18 7//18 15//18
f 2//1 4//1 3//1
f 4//2 6//2 5//2
f 6//3 8//3 7//3
f 8//4 10//4 9//4
f 10//5 12//5 11//5
f 12//6 14//6 13//6
f 14//7 16//7 15//7
f 16//8 18//8 17//8
f 17//9 18//9 20//9
f 20//10 22//10 21//10
f 22//11 24//11 23//11
f 24//12 26//12 25//12
f 26//13 28//13 27//13
f 28//14 30//14 29//14
f 6//15 4//15 2//15
f 2//15 32//15 30//15
f 30//15 28//15 26//15
f 26//15 24//15 22//15
f 22//15 20//15 18//15
f 18//15 16//15 14//15
f 14//15 12//15 10//15
f 10//15 8//15 6//15
f 6//15 2//15 30//15
f 30//15 26//15 6//15
f 26//15 22//15 6//15
f 22//15 18//15 14//15
f 14//15 10//15 6//15
f 30//16 32//16 31//16
f 32//17 2//17 1//17
f 31//18 1//18 3//18
f 3//18 5//18 31//18
f 5//18 7//18 31//18
f 7//18 9//18 15//18
f 9//18 11//18 15//18
f 11//18 13//18 15//18
f 15//18 17//18 23//18
f 17//18 19//18 23//18
f 19//18 21//18 23//18
f 23//18 25//18 27//18
f 27//18 29//18 31//18
f 23//18 27//18 15//18
f 27//18 31//18 15//18
