# Blender v2.83.0 OBJ File: ''
# www.blender.org
o Cylinder.284_Cylinder.1713
v 0.868211 -0.589146 1.975098
v 1.368401 -2.156529 0.837944
v 1.396301 -0.493870 2.076062
v 1.896491 -2.061253 0.938907
v 1.893741 -0.281279 2.001844
v 2.393931 -1.848662 0.864689
v 2.284801 0.016263 1.763744
v 2.784991 -1.551120 0.626589
v 2.509946 0.353456 1.398010
v 3.010135 -1.213927 0.260855
v 2.534898 0.678966 0.960322
v 3.035088 -0.888417 -0.176833
v 2.355859 0.943238 0.517314
v 2.856049 -0.624145 -0.619841
v 2.000087 1.106038 0.136431
v 2.500277 -0.461344 -1.000724
v 1.521744 1.142582 -0.124343
v 2.021934 -0.424801 -1.261498
v 0.993654 1.047306 -0.225307
v 1.493844 -0.520077 -1.362462
v 0.496214 0.834715 -0.151089
v 0.996404 -0.732668 -1.288244
v 0.105154 0.537174 0.087011
v 0.605344 -1.030209 -1.050144
v -0.119991 0.199980 0.452745
v 0.380199 -1.367402 -0.684410
v -0.144943 -0.125530 0.890433
v 0.355247 -1.692913 -0.246722
v 0.034096 -0.389802 1.333441
v 0.534286 -1.957185 0.196286
v 0.389869 -0.552603 1.714325
v 0.890058 -2.119985 0.577170
vn -0.0457 -0.5961 0.8016
vn 0.3279 -0.4840 0.8113
vn 0.6516 -0.2982 0.6975
vn 0.8760 -0.0669 0.4776
vn 0.9671 0.1745 0.1849
vn 0.9110 0.3893 -0.1359
vn 0.7162 0.5449 -0.4361
vn 0.4123 0.6175 -0.6698
vn 0.0457 0.5961 -0.8016
vn -0.3279 0.4840 -0.8113
vn -0.6516 0.2982 -0.6975
vn -0.8760 0.0669 -0.4776
vn -0.9671 -0.1745 -0.1849
vn -0.9110 -0.3893 0.1359
vn 0.2501 -0.7837 -0.5686
vn -0.7162 -0.5449 0.4361
vn -0.4123 -0.6175 0.6698
vn -0.2501 0.7837 0.5686
s off
f 2//1 3//1 1//1
f 4//2 5//2 3//2
f 6//3 7//3 5//3
f 8//4 9//4 7//4
f 10//5 11//5 9//5
f 12//6 13//6 11//6
f 14//7 15//7 13//7
f 16//8 17//8 15//8
f 18//9 19//9 17//9
f 20//10 21//10 19//10
f 22//11 23//11 21//11
f 24//12 25//12 23//12
f 26//13 27//13 25//13
f 28//14 29//14 27//14
f 6//15 30//15 22//15
f 30//16 31//16 29//16
f 32//17 1//17 31//17
f 15//18 23//18 31//18
f 2//1 4//1 3//1
f 4//2 6//2 5//2
f 6//3 8//3 7//3
f 8//4 10//4 9//4
f 10//5 12//5 11//5
f 12//6 14//6 13//6
f 14//7 16//7 15//7
f 16//8 18//8 17//8
f 18//9 20//9 19//9
f 20//10 22//10 21//10
f 22//11 24//11 23//11
f 24//12 26//12 25//12
f 26//13 28//13 27//13
f 28//14 30//14 29//14
f 6//15 4//15 30//15
f 4//15 2//15 30//15
f 2//15 32//15 30//15
f 30//15 28//15 26//15
f 26//15 24//15 30//15
f 24//15 22//15 30//15
f 22//15 20//15 18//15
f 18//15 16//15 14//15
f 14//15 12//15 10//15
f 10//15 8//15 14//15
f 8//15 6//15 14//15
f 22//15 18//15 6//15
f 18//15 14//15 6//15
f 30//16 32//16 31//16
f 32//17 2//17 1//17
f 31//18 1//18 3//18
f 3//18 5//18 7//18
f 7//18 9//18 11//18
f 11//18 13//18 15//18
f 15//18 17//18 23//18
f 17//18 19//18 23//18
f 19//18 21//18 23//18
f 23//18 25//18 27//18
f 27//18 29//18 23//18
f 29//18 31//18 23//18
f 31//18 3//18 7//18
f 7//18 11//18 15//18
f 31//18 7//18 15//18
