# Blender v2.83.0 OBJ File: ''
# www.blender.org
o Cylinder.148_Cylinder.1577
v 3.237119 0.727571 -0.380071
v 2.377379 -0.807220 -1.331524
v 3.535062 0.976275 -1.050480
v 2.675322 -0.558517 -2.001932
v 3.568169 1.370574 -1.716440
v 2.708430 -0.164218 -2.667893
v 3.331402 1.850439 -2.276567
v 2.471662 0.315647 -3.228020
v 2.860803 2.342816 -2.645586
v 2.001064 0.808024 -3.597038
v 2.228020 2.772744 -2.767316
v 1.368280 1.237952 -3.718769
v 1.529386 3.074770 -2.623225
v 0.669646 1.539978 -3.574678
v 0.871262 3.202915 -2.235251
v 0.011523 1.668123 -3.186704
v 0.353843 3.137669 -1.662459
v -0.505897 1.602877 -2.613911
v 0.055900 2.888965 -0.992050
v -0.803840 1.354173 -1.943503
v 0.022792 2.494667 -0.326089
v -0.836948 0.959875 -1.277542
v 0.259560 2.014802 0.234038
v -0.600180 0.480010 -0.717415
v 0.730158 1.522425 0.603056
v -0.129582 -0.012367 -0.348396
v 1.362942 1.092497 0.724787
v 0.503202 -0.442295 -0.226666
v 2.061576 0.790470 0.580696
v 1.201836 -0.744322 -0.370757
v 2.719700 0.662325 0.192721
v 1.859960 -0.872467 -0.758731
vn 0.8169 -0.5550 0.1571
vn 0.9019 -0.3899 -0.1860
vn 0.8496 -0.1654 -0.5008
vn 0.6679 0.0842 -0.7394
vn 0.3846 0.3211 -0.8654
vn 0.0427 0.5090 -0.8597
vn -0.3056 0.6195 -0.7231
vn -0.6075 0.6356 -0.4764
vn -0.8169 0.5550 -0.1571
vn -0.9019 0.3899 0.1860
vn -0.8496 0.1654 0.5008
vn -0.6679 -0.0842 0.7394
vn -0.3846 -0.3211 0.8654
vn -0.0427 -0.5090 0.8597
vn -0.4299 -0.7674 -0.4757
vn 0.3056 -0.6195 0.7231
vn 0.6075 -0.6356 0.4764
vn 0.4299 0.7674 0.4757
s off
f 2//1 3//1 1//1
f 4//2 5//2 3//2
f 6//3 7//3 5//3
f 8//4 9//4 7//4
f 10//5 11//5 9//5
f 12//6 13//6 11//6
f 14//7 15//7 13//7
f 16//8 17//8 15//8
f 18//9 19//9 17//9
f 20//10 21//10 19//10
f 22//11 23//11 21//11
f 23//12 26//12 25//12
f 25//13 28//13 27//13
f 28//14 29//14 27//14
f 22//15 14//15 6//15
f 30//16 31//16 29//16
f 32//17 1//17 31//17
f 27//18 31//18 15//18
f 2//1 4//1 3//1
f 4//2 6//2 5//2
f 6//3 8//3 7//3
f 8//4 10//4 9//4
f 10//5 12//5 11//5
f 12//6 14//6 13//6
f 14//7 16//7 15//7
f 16//8 18//8 17//8
f 18//9 20//9 19//9
f 20//10 22//10 21//10
f 22//11 24//11 23//11
f 23//12 24//12 26//12
f 25//13 26//13 28//13
f 28//14 30//14 29//14
f 6//15 4//15 2//15
f 2//15 32//15 30//15
f 30//15 28//15 26//15
f 26//15 24//15 22//15
f 22//15 20//15 14//15
f 20//15 18//15 14//15
f 18//15 16//15 14//15
f 14//15 12//15 10//15
f 10//15 8//15 6//15
f 6//15 2//15 30//15
f 30//15 26//15 22//15
f 14//15 10//15 6//15
f 6//15 30//15 22//15
f 30//16 32//16 31//16
f 32//17 2//17 1//17
f 31//18 1//18 3//18
f 3//18 5//18 31//18
f 5//18 7//18 31//18
f 7//18 9//18 11//18
f 11//18 13//18 15//18
f 15//18 17//18 19//18
f 19//18 21//18 15//18
f 21//18 23//18 15//18
f 23//18 25//18 27//18
f 27//18 29//18 31//18
f 7//18 11//18 31//18
f 11//18 15//18 31//18
f 23//18 27//18 15//18
