# Blender v2.83.0 OBJ File: ''
# www.blender.org
o Cylinder.033_Cylinder.1462
v 1.639508 -1.694168 -0.246064
v 0.046026 -1.654259 -1.454046
v 1.645673 -2.126549 -0.268481
v 0.052191 -2.086640 -1.476463
v 1.751479 -2.517756 -0.420977
v 0.157997 -2.477848 -1.628959
v 1.940819 -2.808233 -0.680336
v 0.347336 -2.768325 -1.888319
v 2.184866 -2.953757 -1.007073
v 0.591384 -2.913848 -2.215056
v 2.446468 -2.932173 -1.351446
v 0.852985 -2.892265 -2.559428
v 2.685797 -2.746768 -1.661026
v 1.092314 -2.706859 -2.869008
v 2.866417 -2.425766 -1.888683
v 1.272935 -2.385857 -3.096665
v 2.960833 -2.018039 -1.999758
v 1.367350 -1.978130 -3.207740
v 2.954668 -1.585658 -1.977341
v 1.361186 -1.545749 -3.185323
v 2.848862 -1.194450 -1.824845
v 1.255380 -1.154541 -3.032827
v 2.659523 -0.903973 -1.565486
v 1.066040 -0.864064 -2.773468
v 2.415475 -0.758449 -1.238748
v 0.821993 -0.718540 -2.446731
v 2.153873 -0.780033 -0.894376
v 0.560391 -0.740124 -2.102358
v 1.914544 -0.965439 -0.584796
v 0.321062 -0.925530 -1.792778
v 1.733923 -1.286441 -0.357139
v 0.140441 -1.246532 -1.565121
vn -0.6042 -0.0498 0.7953
vn -0.5527 -0.4282 0.7150
vn -0.4171 -0.7413 0.5258
vn -0.2180 -0.9416 0.2565
vn 0.0142 -0.9986 -0.0518
vn 0.2444 -0.9035 -0.3522
vn 0.4373 -0.6708 -0.5990
vn 0.5636 -0.3361 -0.7546
vn 0.6042 0.0498 -0.7953
vn 0.5527 0.4282 -0.7150
vn 0.4171 0.7413 -0.5258
vn 0.2180 0.9416 -0.2565
vn -0.0142 0.9986 0.0518
vn -0.2444 0.9035 0.3522
vn -0.7967 0.0200 -0.6040
vn -0.4373 0.6708 0.5990
vn -0.5636 0.3361 0.7546
vn 0.7967 -0.0200 0.6040
s off
f 2//1 3//1 1//1
f 4//2 5//2 3//2
f 6//3 7//3 5//3
f 8//4 9//4 7//4
f 10//5 11//5 9//5
f 12//6 13//6 11//6
f 14//7 15//7 13//7
f 16//8 17//8 15//8
f 18//9 19//9 17//9
f 20//10 21//10 19//10
f 22//11 23//11 21//11
f 24//12 25//12 23//12
f 26//13 27//13 25//13
f 28//14 29//14 27//14
f 22//15 14//15 6//15
f 30//16 31//16 29//16
f 32//17 1//17 31//17
f 15//18 23//18 31//18
f 2//1 4//1 3//1
f 4//2 6//2 5//2
f 6//3 8//3 7//3
f 8//4 10//4 9//4
f 10//5 12//5 11//5
f 12//6 14//6 13//6
f 14//7 16//7 15//7
f 16//8 18//8 17//8
f 18//9 20//9 19//9
f 20//10 22//10 21//10
f 22//11 24//11 23//11
f 24//12 26//12 25//12
f 26//13 28//13 27//13
f 28//14 30//14 29//14
f 6//15 4//15 2//15
f 2//15 32//15 30//15
f 30//15 28//15 26//15
f 26//15 24//15 22//15
f 22//15 20//15 18//15
f 18//15 16//15 14//15
f 14//15 12//15 10//15
f 10//15 8//15 6//15
f 6//15 2//15 30//15
f 30//15 26//15 6//15
f 26//15 22//15 6//15
f 22//15 18//15 14//15
f 14//15 10//15 6//15
f 30//16 32//16 31//16
f 32//17 2//17 1//17
f 31//18 1//18 3//18
f 3//18 5//18 7//18
f 7//18 9//18 11//18
f 11//18 13//18 15//18
f 15//18 17//18 19//18
f 19//18 21//18 23//18
f 23//18 25//18 27//18
f 27//18 29//18 23//18
f 29//18 31//18 23//18
f 31//18 3//18 7//18
f 7//18 11//18 15//18
f 15//18 19//18 23//18
f 31//18 7//18 15//18
