# Blender v2.83.0 OBJ File: ''
# www.blender.org
o Cylinder.200_Cylinder.1629
v -0.175954 1.149552 2.880275
v -1.875352 0.138579 3.180243
v 0.182109 0.597728 3.049004
v -1.517289 -0.413244 3.348972
v 0.513882 0.012494 2.956191
v -1.185515 -0.998479 3.256159
v 0.768857 -0.517056 2.615965
v -0.930541 -1.528028 2.915934
v 0.908215 -0.910301 2.080125
v -0.791183 -1.921273 2.380094
v 0.910740 -1.107373 1.430245
v -0.788658 -2.118346 1.730214
v 0.776048 -1.078271 0.765265
v -0.923350 -2.089244 1.065234
v 0.524645 -0.827425 0.186422
v -1.174753 -1.838397 0.486390
v 0.194804 -0.393023 -0.218162
v -1.504593 -1.403996 0.081807
v -0.163259 0.158800 -0.386891
v -1.862656 -0.852173 -0.086922
v -0.495032 0.744035 -0.294078
v -2.194430 -0.266938 0.005891
v -0.750007 1.273584 0.046147
v -2.449404 0.262612 0.346116
v -0.889365 1.666829 0.581988
v -2.588762 0.655857 0.881957
v -0.891890 1.863902 1.231868
v -2.591288 0.852929 1.531837
v -0.757198 1.834800 1.896848
v -2.456596 0.823827 2.196817
v -0.505795 1.583953 2.475692
v -2.205192 0.572980 2.775661
vn -0.0037 0.2902 0.9570
vn 0.1983 -0.0429 0.9792
vn 0.3702 -0.3694 0.8524
vn 0.4857 -0.6397 0.5958
vn 0.5273 -0.8126 0.2485
vn 0.4885 -0.8618 -0.1367
vn 0.3755 -0.7798 -0.5010
vn 0.2052 -0.5791 -0.7890
vn 0.0037 -0.2902 -0.9570
vn -0.1983 0.0429 -0.9792
vn -0.3702 0.3694 -0.8524
vn -0.4857 0.6397 -0.5958
vn -0.5273 0.8126 -0.2485
vn -0.4885 0.8618 0.1367
vn -0.8497 -0.5055 0.1500
vn -0.3755 0.7798 0.5010
vn -0.2052 0.5791 0.7890
vn 0.8497 0.5055 -0.1500
s off
f 2//1 3//1 1//1
f 4//2 5//2 3//2
f 6//3 7//3 5//3
f 8//4 9//4 7//4
f 10//5 11//5 9//5
f 12//6 13//6 11//6
f 14//7 15//7 13//7
f 16//8 17//8 15//8
f 18//9 19//9 17//9
f 20//10 21//10 19//10
f 22//11 23//11 21//11
f 24//12 25//12 23//12
f 26//13 27//13 25//13
f 28//14 29//14 27//14
f 22//15 14//15 6//15
f 30//16 31//16 29//16
f 32//17 1//17 31//17
f 7//18 15//18 23//18
f 2//1 4//1 3//1
f 4//2 6//2 5//2
f 6//3 8//3 7//3
f 8//4 10//4 9//4
f 10//5 12//5 11//5
f 12//6 14//6 13//6
f 14//7 16//7 15//7
f 16//8 18//8 17//8
f 18//9 20//9 19//9
f 20//10 22//10 21//10
f 22//11 24//11 23//11
f 24//12 26//12 25//12
f 26//13 28//13 27//13
f 28//14 30//14 29//14
f 6//15 4//15 2//15
f 2//15 32//15 30//15
f 30//15 28//15 26//15
f 26//15 24//15 22//15
f 22//15 20//15 18//15
f 18//15 16//15 14//15
f 14//15 12//15 10//15
f 10//15 8//15 6//15
f 6//15 2//15 30//15
f 30//15 26//15 6//15
f 26//15 22//15 6//15
f 22//15 18//15 14//15
f 14//15 10//15 6//15
f 30//16 32//16 31//16
f 32//17 2//17 1//17
f 31//18 1//18 7//18
f 1//18 3//18 7//18
f 3//18 5//18 7//18
f 7//18 9//18 11//18
f 11//18 13//18 15//18
f 15//18 17//18 19//18
f 19//18 21//18 23//18
f 23//18 25//18 27//18
f 27//18 29//18 31//18
f 7//18 11//18 15//18
f 15//18 19//18 23//18
f 23//18 27//18 31//18
f 31//18 7//18 23//18
