# Blender v2.83.0 OBJ File: ''
# www.blender.org
o Cylinder.345_Cylinder.1774
v -1.209169 1.260929 1.718200
v -0.025885 -0.211523 1.061142
v -0.789062 1.736665 1.408649
v 0.394222 0.264213 0.751591
v -0.547958 2.158918 0.896587
v 0.635325 0.686466 0.239529
v -0.522563 2.463406 0.259972
v 0.660720 0.990953 -0.397086
v -0.716743 2.603771 -0.404278
v 0.466541 1.131319 -1.061336
v -1.100936 2.558645 -0.995037
v 0.082348 1.086192 -1.652094
v -1.616651 2.334897 -1.422366
v -0.433368 0.862445 -2.079424
v -2.185377 1.966592 -1.621210
v -1.002093 0.494140 -2.278268
v -2.720529 1.509800 -1.561296
v -1.537245 0.037348 -2.218354
v -3.140635 1.034065 -1.251745
v -1.957352 -0.438388 -1.908803
v -3.381739 0.611811 -0.739683
v -2.198456 -0.860641 -1.396741
v -3.407135 0.307324 -0.103068
v -2.223851 -1.165128 -0.760126
v -3.212955 0.166959 0.561182
v -2.029671 -1.305494 -0.095875
v -2.828762 0.212085 1.151941
v -1.645478 -1.260367 0.494884
v -2.313046 0.435832 1.579271
v -1.129762 -1.036620 0.922213
v -1.744320 0.804138 1.778115
v -0.561037 -0.668314 1.121057
vn 0.5441 0.0639 0.8366
vn 0.7303 0.3169 0.6052
vn 0.8054 0.5216 0.2816
vn 0.7579 0.6469 -0.0848
vn 0.5949 0.6737 -0.4384
vn 0.3414 0.5980 -0.7252
vn 0.0360 0.4312 -0.9015
vn -0.2750 0.1988 -0.9407
vn -0.5441 -0.0639 -0.8366
vn -0.7303 -0.3169 -0.6052
vn -0.8054 -0.5216 -0.2816
vn -0.7579 -0.6469 0.0848
vn -0.5949 -0.6737 0.4384
vn -0.3414 -0.5980 0.7252
vn 0.5916 -0.7362 -0.3285
vn -0.0360 -0.4312 0.9015
vn 0.2750 -0.1988 0.9407
vn -0.5916 0.7362 0.3285
s off
f 2//1 3//1 1//1
f 4//2 5//2 3//2
f 6//3 7//3 5//3
f 8//4 9//4 7//4
f 9//5 12//5 11//5
f 12//6 13//6 11//6
f 14//7 15//7 13//7
f 16//8 17//8 15//8
f 18//9 19//9 17//9
f 20//10 21//10 19//10
f 22//11 23//11 21//11
f 24//12 25//12 23//12
f 26//13 27//13 25//13
f 28//14 29//14 27//14
f 22//15 14//15 6//15
f 30//16 31//16 29//16
f 32//17 1//17 31//17
f 7//18 15//18 23//18
f 2//1 4//1 3//1
f 4//2 6//2 5//2
f 6//3 8//3 7//3
f 8//4 10//4 9//4
f 9//5 10//5 12//5
f 12//6 14//6 13//6
f 14//7 16//7 15//7
f 16//8 18//8 17//8
f 18//9 20//9 19//9
f 20//10 22//10 21//10
f 22//11 24//11 23//11
f 24//12 26//12 25//12
f 26//13 28//13 27//13
f 28//14 30//14 29//14
f 6//15 4//15 2//15
f 2//15 32//15 30//15
f 30//15 28//15 26//15
f 26//15 24//15 22//15
f 22//15 20//15 18//15
f 18//15 16//15 14//15
f 14//15 12//15 10//15
f 10//15 8//15 6//15
f 6//15 2//15 30//15
f 30//15 26//15 22//15
f 22//15 18//15 14//15
f 14//15 10//15 6//15
f 6//15 30//15 22//15
f 30//16 32//16 31//16
f 32//17 2//17 1//17
f 31//18 1//18 3//18
f 3//18 5//18 7//18
f 7//18 9//18 11//18
f 11//18 13//18 15//18
f 15//18 17//18 23//18
f 17//18 19//18 23//18
f 19//18 21//18 23//18
f 23//18 25//18 31//18
f 25//18 27//18 31//18
f 27//18 29//18 31//18
f 31//18 3//18 7//18
f 7//18 11//18 15//18
f 31//18 7//18 23//18
