# Blender v2.83.0 OBJ File: ''
# www.blender.org
o Cylinder.245_Cylinder.1674
v -0.276306 2.905590 -2.345993
v -0.256089 1.026142 -3.029560
v -0.741084 2.803369 -2.078685
v -0.720867 0.923921 -2.762252
v -1.060984 2.649173 -1.664187
v -1.040767 0.769724 -2.347754
v -1.187304 2.466476 -1.165603
v -1.167087 0.587027 -1.849169
v -1.100814 2.283092 -0.658837
v -1.080597 0.403644 -1.342404
v -0.814680 2.126941 -0.221041
v -0.794463 0.247493 -0.904608
v -0.372465 2.021795 0.081135
v -0.352248 0.142346 -0.602431
v 0.158510 1.983660 0.201688
v 0.178727 0.104212 -0.481878
v 0.697407 2.018344 0.122265
v 0.717623 0.138895 -0.561301
v 1.162184 2.120565 -0.145043
v 1.182401 0.241116 -0.828610
v 1.482084 2.274761 -0.559541
v 1.502301 0.395313 -1.243107
v 1.608405 2.457458 -1.058125
v 1.628622 0.578010 -1.741692
v 1.521914 2.640841 -1.564891
v 1.542131 0.761393 -2.248457
v 1.235781 2.796993 -2.002687
v 1.255998 0.917544 -2.686254
v 0.793565 2.902139 -2.304863
v 0.813782 1.022691 -2.988430
v 0.262590 2.940274 -2.425417
v 0.282807 1.060825 -3.108983
vn -0.5242 0.2861 -0.8021
vn -0.8102 0.1926 -0.5536
vn -0.9728 0.0699 -0.2209
vn -0.9873 -0.0635 0.1455
vn -0.8515 -0.1873 0.4897
vn -0.5861 -0.2825 0.7594
vn -0.2314 -0.3347 0.9135
vn 0.1585 -0.3360 0.9284
vn 0.5242 -0.2861 0.8021
vn 0.8102 -0.1926 0.5536
vn 0.9728 -0.0699 0.2209
vn 0.9873 0.0635 -0.1455
vn 0.8515 0.1873 -0.4897
vn 0.5861 0.2825 -0.7594
vn 0.0101 -0.9397 -0.3418
vn 0.2314 0.3347 -0.9135
vn -0.1585 0.3360 -0.9284
vn -0.0101 0.9397 0.3418
s off
f 2//1 3//1 1//1
f 4//2 5//2 3//2
f 6//3 7//3 5//3
f 8//4 9//4 7//4
f 9//5 12//5 11//5
f 12//6 13//6 11//6
f 14//7 15//7 13//7
f 16//8 17//8 15//8
f 17//9 20//9 19//9
f 20//10 21//10 19//10
f 22//11 23//11 21//11
f 24//12 25//12 23//12
f 26//13 27//13 25//13
f 28//14 29//14 27//14
f 6//15 30//15 22//15
f 30//16 31//16 29//16
f 32//17 1//17 31//17
f 7//18 15//18 23//18
f 2//1 4//1 3//1
f 4//2 6//2 5//2
f 6//3 8//3 7//3
f 8//4 10//4 9//4
f 9//5 10//5 12//5
f 12//6 14//6 13//6
f 14//7 16//7 15//7
f 16//8 18//8 17//8
f 17//9 18//9 20//9
f 20//10 22//10 21//10
f 22//11 24//11 23//11
f 24//12 26//12 25//12
f 26//13 28//13 27//13
f 28//14 30//14 29//14
f 6//15 4//15 2//15
f 2//15 32//15 30//15
f 30//15 28//15 22//15
f 28//15 26//15 22//15
f 26//15 24//15 22//15
f 22//15 20//15 18//15
f 18//15 16//15 14//15
f 14//15 12//15 10//15
f 10//15 8//15 14//15
f 8//15 6//15 14//15
f 6//15 2//15 30//15
f 22//15 18//15 6//15
f 18//15 14//15 6//15
f 30//16 32//16 31//16
f 32//17 2//17 1//17
f 31//18 1//18 3//18
f 3//18 5//18 7//18
f 7//18 9//18 11//18
f 11//18 13//18 7//18
f 13//18 15//18 7//18
f 15//18 17//18 19//18
f 19//18 21//18 15//18
f 21//18 23//18 15//18
f 23//18 25//18 27//18
f 27//18 29//18 31//18
f 31//18 3//18 7//18
f 23//18 27//18 31//18
f 31//18 7//18 23//18
