# Blender v2.83.0 OBJ File: ''
# www.blender.org
o Cylinder.073_Cylinder.1502
v -0.346909 1.139513 -2.658052
v -2.155186 1.655795 -3.338922
v -0.188739 1.694330 -2.657423
v -1.997017 2.210612 -3.338293
v -0.114953 2.227303 -2.449251
v -1.923231 2.743585 -3.130121
v -0.136783 2.657291 -2.065228
v -1.945061 3.173573 -2.746097
v -0.250906 2.918833 -1.563818
v -2.059184 3.435115 -2.244687
v -0.439947 2.972111 -1.021355
v -2.248225 3.488393 -1.702225
v -0.675128 2.809013 -0.520426
v -2.483406 3.325295 -1.201296
v -0.920643 2.454371 -0.137293
v -2.728920 2.970653 -0.818162
v -1.139115 1.962175 0.069718
v -2.947393 2.478457 -0.611152
v -1.297285 1.407358 0.069089
v -3.105562 1.923640 -0.611781
v -1.371071 0.874385 -0.139083
v -3.179349 1.390667 -0.819953
v -1.349241 0.444396 -0.523107
v -3.157519 0.960678 -1.203976
v -1.235118 0.182855 -1.024517
v -3.043396 0.699137 -1.705387
v -1.046077 0.129577 -1.566980
v -2.854354 0.645859 -2.247849
v -0.810896 0.292675 -2.067909
v -2.619174 0.808957 -2.748778
v -0.565381 0.647317 -2.451043
v -2.373659 1.163599 -3.131912
vn 0.3277 -0.0923 -0.9403
vn 0.4076 0.2827 -0.8683
vn 0.4256 0.6147 -0.6641
vn 0.3787 0.8531 -0.3588
vn 0.2742 0.9617 0.0011
vn 0.1279 0.9238 0.3608
vn -0.0378 0.7453 0.6656
vn -0.1978 0.4533 0.8691
vn -0.3277 0.0923 0.9403
vn -0.4076 -0.2827 0.8683
vn -0.4256 -0.6147 0.6641
vn -0.3787 -0.8531 0.3588
vn -0.2742 -0.9617 -0.0011
vn -0.1279 -0.9238 -0.3608
vn -0.9041 0.2581 -0.3404
vn 0.0378 -0.7453 -0.6656
vn 0.1978 -0.4533 -0.8691
vn 0.9041 -0.2581 0.3404
s off
f 2//1 3//1 1//1
f 4//2 5//2 3//2
f 6//3 7//3 5//3
f 8//4 9//4 7//4
f 10//5 11//5 9//5
f 12//6 13//6 11//6
f 14//7 15//7 13//7
f 16//8 17//8 15//8
f 17//9 20//9 19//9
f 20//10 21//10 19//10
f 22//11 23//11 21//11
f 24//12 25//12 23//12
f 26//13 27//13 25//13
f 28//14 29//14 27//14
f 22//15 14//15 6//15
f 30//16 31//16 29//16
f 31//17 2//17 1//17
f 27//18 31//18 15//18
f 2//1 4//1 3//1
f 4//2 6//2 5//2
f 6//3 8//3 7//3
f 8//4 10//4 9//4
f 10//5 12//5 11//5
f 12//6 14//6 13//6
f 14//7 16//7 15//7
f 16//8 18//8 17//8
f 17//9 18//9 20//9
f 20//10 22//10 21//10
f 22//11 24//11 23//11
f 24//12 26//12 25//12
f 26//13 28//13 27//13
f 28//14 30//14 29//14
f 6//15 4//15 30//15
f 4//15 2//15 30//15
f 2//15 32//15 30//15
f 30//15 28//15 26//15
f 26//15 24//15 30//15
f 24//15 22//15 30//15
f 22//15 20//15 18//15
f 18//15 16//15 14//15
f 14//15 12//15 10//15
f 10//15 8//15 6//15
f 22//15 18//15 14//15
f 14//15 10//15 6//15
f 6//15 30//15 22//15
f 30//16 32//16 31//16
f 31//17 32//17 2//17
f 31//18 1//18 3//18
f 3//18 5//18 31//18
f 5//18 7//18 31//18
f 7//18 9//18 11//18
f 11//18 13//18 15//18
f 15//18 17//18 19//18
f 19//18 21//18 23//18
f 23//18 25//18 27//18
f 27//18 29//18 31//18
f 7//18 11//18 31//18
f 11//18 15//18 31//18
f 15//18 19//18 23//18
f 23//18 27//18 15//18
