# Blender v2.83.0 OBJ File: ''
# www.blender.org
o Cylinder.123_Cylinder.1552
v 2.555251 1.773546 -2.050632
v 1.238578 3.149343 -1.439443
v 2.935453 2.034157 -1.818212
v 1.618779 3.409955 -1.207023
v 3.256007 2.171913 -1.437740
v 1.939334 3.547711 -0.826550
v 3.468112 2.165842 -0.967139
v 2.151439 3.541639 -0.355949
v 3.539478 2.016867 -0.478053
v 2.222804 3.392664 0.133136
v 3.459238 1.747668 -0.044943
v 2.142564 3.123466 0.566247
v 3.239609 1.399230 0.266256
v 1.922935 2.775027 0.877446
v 2.914028 1.024597 0.408166
v 1.597354 2.400394 1.019355
v 2.532061 0.680806 0.359182
v 1.215387 2.056603 0.970371
v 2.151859 0.420194 0.126762
v 0.835185 1.795991 0.737952
v 1.831305 0.282438 -0.253710
v 0.514631 1.658235 0.357479
v 1.619199 0.288509 -0.724312
v 0.302526 1.664306 -0.113122
v 1.547834 0.437484 -1.213397
v 0.231160 1.813281 -0.602208
v 1.628074 0.706683 -1.646508
v 0.311400 2.082480 -1.035318
v 1.847703 1.055122 -1.957707
v 0.531029 2.430919 -1.346517
v 2.173285 1.429754 -2.099617
v 0.856611 2.805551 -1.488427
vn 0.1554 0.5215 -0.8390
vn 0.4254 0.6750 -0.6028
vn 0.6307 0.7257 -0.2749
vn 0.7399 0.6660 0.0949
vn 0.7365 0.5048 0.4502
vn 0.6210 0.2669 0.7370
vn 0.4109 -0.0118 0.9116
vn 0.1382 -0.2886 0.9474
vn -0.1554 -0.5215 0.8390
vn -0.4254 -0.6750 0.6028
vn -0.6307 -0.7257 0.2749
vn -0.7399 -0.6660 -0.0949
vn -0.7365 -0.5048 -0.4502
vn -0.6210 -0.2669 -0.7370
vn -0.6583 0.6879 0.3056
vn -0.4109 0.0118 -0.9116
vn -0.1382 0.2886 -0.9474
vn 0.6583 -0.6879 -0.3056
s off
f 2//1 3//1 1//1
f 4//2 5//2 3//2
f 6//3 7//3 5//3
f 8//4 9//4 7//4
f 9//5 12//5 11//5
f 12//6 13//6 11//6
f 14//7 15//7 13//7
f 16//8 17//8 15//8
f 18//9 19//9 17//9
f 20//10 21//10 19//10
f 22//11 23//11 21//11
f 24//12 25//12 23//12
f 26//13 27//13 25//13
f 28//14 29//14 27//14
f 14//15 10//15 6//15
f 30//16 31//16 29//16
f 32//17 1//17 31//17
f 31//18 7//18 15//18
f 2//1 4//1 3//1
f 4//2 6//2 5//2
f 6//3 8//3 7//3
f 8//4 10//4 9//4
f 9//5 10//5 12//5
f 12//6 14//6 13//6
f 14//7 16//7 15//7
f 16//8 18//8 17//8
f 18//9 20//9 19//9
f 20//10 22//10 21//10
f 22//11 24//11 23//11
f 24//12 26//12 25//12
f 26//13 28//13 27//13
f 28//14 30//14 29//14
f 6//15 4//15 2//15
f 2//15 32//15 30//15
f 30//15 28//15 26//15
f 26//15 24//15 30//15
f 24//15 22//15 30//15
f 22//15 20//15 18//15
f 18//15 16//15 14//15
f 14//15 12//15 10//15
f 10//15 8//15 6//15
f 6//15 2//15 22//15
f 2//15 30//15 22//15
f 22//15 18//15 6//15
f 18//15 14//15 6//15
f 30//16 32//16 31//16
f 32//17 2//17 1//17
f 31//18 1//18 3//18
f 3//18 5//18 7//18
f 7//18 9//18 11//18
f 11//18 13//18 15//18
f 15//18 17//18 23//18
f 17//18 19//18 23//18
f 19//18 21//18 23//18
f 23//18 25//18 27//18
f 27//18 29//18 31//18
f 31//18 3//18 7//18
f 7//18 11//18 15//18
f 23//18 27//18 15//18
f 27//18 31//18 15//18
