# Blender v2.83.0 OBJ File: ''
# www.blender.org
o Cylinder.186_Cylinder.1615
v -0.753822 2.223823 -0.059543
v -0.980927 1.305634 -1.821744
v -1.095660 2.521015 -0.170339
v -1.322765 1.602826 -1.932540
v -1.531150 2.685137 -0.199730
v -1.758255 1.766948 -1.961931
v -1.993994 2.691203 -0.143242
v -2.221098 1.773014 -1.905443
v -2.413726 2.538290 -0.009474
v -2.640831 1.620101 -1.771675
v -2.726448 2.249678 0.181209
v -2.953553 1.331489 -1.580992
v -2.884549 1.869305 0.399777
v -3.111654 0.951116 -1.362424
v -2.863961 1.455079 0.612954
v -3.091065 0.536890 -1.149247
v -2.667817 1.070063 0.788288
v -2.894922 0.151874 -0.973913
v -2.325979 0.772871 0.899084
v -2.553084 -0.145318 -0.863117
v -1.890489 0.608749 0.928475
v -2.117594 -0.309440 -0.833726
v -1.427646 0.602682 0.871987
v -1.654750 -0.315507 -0.890214
v -1.007913 0.755595 0.738218
v -1.235018 -0.162594 -1.023983
v -0.695191 1.044208 0.547536
v -0.922296 0.126019 -1.214665
v -0.537090 1.424581 0.328968
v -0.764195 0.506392 -1.433233
v -0.557679 1.838807 0.115790
v -0.784783 0.920618 -1.646411
vn 0.6706 0.6189 -0.4089
vn 0.3390 0.8157 -0.4687
vn -0.0442 0.8883 -0.4572
vn -0.4206 0.8257 -0.3760
vn -0.7331 0.6373 -0.2376
vn -0.9339 0.3520 -0.0630
vn -0.9926 0.0130 0.1211
vn -0.9001 -0.3279 0.2869
vn -0.6706 -0.6189 0.4089
vn -0.3390 -0.8157 0.4687
vn 0.0442 -0.8883 0.4572
vn 0.4206 -0.8257 0.3760
vn 0.7331 -0.6373 0.2376
vn 0.9339 -0.3520 0.0630
vn -0.1136 -0.4591 -0.8811
vn 0.9926 -0.0130 -0.1211
vn 0.9001 0.3279 -0.2869
vn 0.1136 0.4591 0.8811
s off
f 2//1 3//1 1//1
f 4//2 5//2 3//2
f 6//3 7//3 5//3
f 8//4 9//4 7//4
f 10//5 11//5 9//5
f 12//6 13//6 11//6
f 14//7 15//7 13//7
f 16//8 17//8 15//8
f 18//9 19//9 17//9
f 20//10 21//10 19//10
f 22//11 23//11 21//11
f 24//12 25//12 23//12
f 26//13 27//13 25//13
f 28//14 29//14 27//14
f 22//15 14//15 6//15
f 29//16 32//16 31//16
f 32//17 1//17 31//17
f 31//18 7//18 15//18
f 2//1 4//1 3//1
f 4//2 6//2 5//2
f 6//3 8//3 7//3
f 8//4 10//4 9//4
f 10//5 12//5 11//5
f 12//6 14//6 13//6
f 14//7 16//7 15//7
f 16//8 18//8 17//8
f 18//9 20//9 19//9
f 20//10 22//10 21//10
f 22//11 24//11 23//11
f 24//12 26//12 25//12
f 26//13 28//13 27//13
f 28//14 30//14 29//14
f 6//15 4//15 2//15
f 2//15 32//15 30//15
f 30//15 28//15 26//15
f 26//15 24//15 22//15
f 22//15 20//15 14//15
f 20//15 18//15 14//15
f 18//15 16//15 14//15
f 14//15 12//15 10//15
f 10//15 8//15 6//15
f 6//15 2//15 30//15
f 30//15 26//15 6//15
f 26//15 22//15 6//15
f 14//15 10//15 6//15
f 29//16 30//16 32//16
f 32//17 2//17 1//17
f 31//18 1//18 3//18
f 3//18 5//18 7//18
f 7//18 9//18 11//18
f 11//18 13//18 7//18
f 13//18 15//18 7//18
f 15//18 17//18 19//18
f 19//18 21//18 23//18
f 23//18 25//18 27//18
f 27//18 29//18 31//18
f 31//18 3//18 7//18
f 15//18 19//18 23//18
f 23//18 27//18 15//18
f 27//18 31//18 15//18
