# Blender v2.83.0 OBJ File: ''
# www.blender.org
o Cylinder.116_Cylinder.1545
v 0.351737 1.225016 0.917373
v 1.312582 0.460438 2.496043
v 0.619449 1.119218 0.703192
v 1.580294 0.354640 2.281862
v 0.803491 0.901229 0.485601
v 1.764336 0.136651 2.064270
v 0.875844 0.604237 0.297725
v 1.836689 -0.160341 1.876395
v 0.825493 0.273455 0.168168
v 1.786338 -0.491122 1.746838
v 0.660104 -0.040756 0.116652
v 1.620948 -0.805334 1.695322
v 0.404855 -0.290563 0.151022
v 1.365699 -1.055140 1.729692
v 0.098606 -0.437933 0.266044
v 1.059450 -1.202511 1.844714
v -0.212020 -0.460431 0.444207
v 0.748825 -1.225009 2.022877
v -0.479731 -0.354633 0.658388
v 0.481113 -1.119211 2.237058
v -0.663773 -0.136644 0.875979
v 0.297071 -0.901222 2.454649
v -0.736126 0.160348 1.063855
v 0.224718 -0.604230 2.642525
v -0.685775 0.491129 1.193412
v 0.275069 -0.273449 2.772082
v -0.520386 0.805341 1.244927
v 0.440459 0.040763 2.823597
v -0.265137 1.055148 1.210558
v 0.695708 0.290570 2.789228
v 0.041112 1.202518 1.095536
v 1.001957 0.437940 2.674206
vn 0.4610 0.8757 0.1436
vn 0.7114 0.6962 -0.0958
vn 0.8535 0.4107 -0.3206
vn 0.8657 0.0627 -0.4966
vn 0.7461 -0.2949 -0.5969
vn 0.5129 -0.6076 -0.6064
vn 0.2017 -0.8277 -0.5236
vn -0.1403 -0.9219 -0.3611
vn -0.4610 -0.8757 -0.1436
vn -0.7114 -0.6962 0.0958
vn -0.8535 -0.4107 0.3206
vn -0.8657 -0.0627 0.4966
vn -0.7461 0.2949 0.5969
vn -0.5129 0.6076 0.6064
vn 0.4804 -0.3823 0.7893
vn -0.2017 0.8277 0.5236
vn 0.1403 0.9219 0.3611
vn -0.4804 0.3823 -0.7893
s off
f 2//1 3//1 1//1
f 4//2 5//2 3//2
f 6//3 7//3 5//3
f 8//4 9//4 7//4
f 10//5 11//5 9//5
f 12//6 13//6 11//6
f 14//7 15//7 13//7
f 16//8 17//8 15//8
f 18//9 19//9 17//9
f 20//10 21//10 19//10
f 22//11 23//11 21//11
f 24//12 25//12 23//12
f 26//13 27//13 25//13
f 28//14 29//14 27//14
f 30//15 22//15 14//15
f 30//16 31//16 29//16
f 32//17 1//17 31//17
f 15//18 23//18 31//18
f 2//1 4//1 3//1
f 4//2 6//2 5//2
f 6//3 8//3 7//3
f 8//4 10//4 9//4
f 10//5 12//5 11//5
f 12//6 14//6 13//6
f 14//7 16//7 15//7
f 16//8 18//8 17//8
f 18//9 20//9 19//9
f 20//10 22//10 21//10
f 22//11 24//11 23//11
f 24//12 26//12 25//12
f 26//13 28//13 27//13
f 28//14 30//14 29//14
f 6//15 4//15 2//15
f 2//15 32//15 30//15
f 30//15 28//15 26//15
f 26//15 24//15 22//15
f 22//15 20//15 14//15
f 20//15 18//15 14//15
f 18//15 16//15 14//15
f 14//15 12//15 10//15
f 10//15 8//15 6//15
f 6//15 2//15 30//15
f 30//15 26//15 22//15
f 14//15 10//15 6//15
f 6//15 30//15 14//15
f 30//16 32//16 31//16
f 32//17 2//17 1//17
f 31//18 1//18 3//18
f 3//18 5//18 7//18
f 7//18 9//18 11//18
f 11//18 13//18 7//18
f 13//18 15//18 7//18
f 15//18 17//18 19//18
f 19//18 21//18 23//18
f 23//18 25//18 27//18
f 27//18 29//18 23//18
f 29//18 31//18 23//18
f 31//18 3//18 7//18
f 15//18 19//18 23//18
f 31//18 7//18 15//18
