# Blender v2.83.0 OBJ File: ''
# www.blender.org
o Cylinder.048_Cylinder.1477
v -0.478865 -1.268187 -0.916007
v -2.417284 -1.132427 -0.442616
v -0.420713 -0.861997 -0.794377
v -2.359132 -0.726237 -0.320985
v -0.333354 -0.537107 -0.529838
v -2.271774 -0.401347 -0.056446
v -0.230089 -0.342978 -0.162664
v -2.168508 -0.207218 0.310727
v -0.126638 -0.309165 0.251244
v -2.065057 -0.173405 0.724636
v -0.038751 -0.440815 0.648875
v -1.977170 -0.305055 1.122266
v 0.020193 -0.717886 0.969691
v -1.918227 -0.582126 1.443083
v 0.041218 -1.098196 1.164853
v -1.897201 -0.962437 1.638244
v 0.021126 -1.523847 1.204647
v -1.917294 -1.388087 1.678038
v -0.037026 -1.930037 1.083016
v -1.975446 -1.794277 1.556408
v -0.124385 -2.254927 0.818477
v -2.062804 -2.119167 1.291869
v -0.227650 -2.449056 0.451304
v -2.166070 -2.313296 0.924695
v -0.331101 -2.482869 0.037395
v -2.269521 -2.347109 0.510786
v -0.418988 -2.351219 -0.360236
v -2.357408 -2.215459 0.113156
v -0.477932 -2.074147 -0.681052
v -2.416351 -1.938388 -0.207661
v -0.498957 -1.693837 -0.876213
v -2.437377 -1.558077 -0.402822
vn -0.2054 0.3076 -0.9291
vn -0.1377 0.6474 -0.7496
vn -0.0491 0.8886 -0.4560
vn 0.0469 0.9946 -0.0930
vn 0.1359 0.9491 0.2842
vn 0.2041 0.7591 0.6181
vn 0.2413 0.4536 0.8579
vn 0.2417 0.0790 0.9671
vn 0.2054 -0.3076 0.9291
vn 0.1377 -0.6474 0.7496
vn 0.0491 -0.8886 0.4560
vn -0.0469 -0.9946 0.0930
vn -0.1359 -0.9491 -0.2842
vn -0.2041 -0.7591 -0.6181
vn -0.9692 0.0679 0.2367
vn -0.2413 -0.4536 -0.8579
vn -0.2417 -0.0790 -0.9671
vn 0.9692 -0.0679 -0.2367
s off
f 2//1 3//1 1//1
f 4//2 5//2 3//2
f 6//3 7//3 5//3
f 8//4 9//4 7//4
f 10//5 11//5 9//5
f 12//6 13//6 11//6
f 14//7 15//7 13//7
f 16//8 17//8 15//8
f 18//9 19//9 17//9
f 20//10 21//10 19//10
f 22//11 23//11 21//11
f 24//12 25//12 23//12
f 26//13 27//13 25//13
f 28//14 29//14 27//14
f 22//15 14//15 6//15
f 30//16 31//16 29//16
f 32//17 1//17 31//17
f 15//18 23//18 31//18
f 2//1 4//1 3//1
f 4//2 6//2 5//2
f 6//3 8//3 7//3
f 8//4 10//4 9//4
f 10//5 12//5 11//5
f 12//6 14//6 13//6
f 14//7 16//7 15//7
f 16//8 18//8 17//8
f 18//9 20//9 19//9
f 20//10 22//10 21//10
f 22//11 24//11 23//11
f 24//12 26//12 25//12
f 26//13 28//13 27//13
f 28//14 30//14 29//14
f 6//15 4//15 2//15
f 2//15 32//15 30//15
f 30//15 28//15 26//15
f 26//15 24//15 22//15
f 22//15 20//15 14//15
f 20//15 18//15 14//15
f 18//15 16//15 14//15
f 14//15 12//15 10//15
f 10//15 8//15 6//15
f 6//15 2//15 30//15
f 30//15 26//15 6//15
f 26//15 22//15 6//15
f 14//15 10//15 6//15
f 30//16 32//16 31//16
f 32//17 2//17 1//17
f 31//18 1//18 3//18
f 3//18 5//18 7//18
f 7//18 9//18 11//18
f 11//18 13//18 7//18
f 13//18 15//18 7//18
f 15//18 17//18 19//18
f 19//18 21//18 23//18
f 23//18 25//18 27//18
f 27//18 29//18 31//18
f 31//18 3//18 7//18
f 15//18 19//18 23//18
f 23//18 27//18 31//18
f 31//18 7//18 15//18
