# Blender v2.83.0 OBJ File: ''
# www.blender.org
o Cylinder.308_Cylinder.1737
v 2.245784 -1.229142 -2.982330
v 2.702272 -1.039100 -1.044418
v 2.345925 -1.895622 -2.940561
v 2.802413 -1.705580 -1.002649
v 2.189791 -2.544853 -2.840116
v 2.646280 -2.354812 -0.902204
v 1.801153 -3.077997 -2.696286
v 2.257641 -2.887955 -0.758374
v 1.239177 -3.413886 -2.530970
v 1.695665 -3.223845 -0.593058
v 0.589418 -3.501385 -2.369334
v 1.045906 -3.311344 -0.431422
v -0.049203 -3.327173 -2.235987
v 0.407285 -3.137131 -0.298075
v -0.579462 -2.917772 -2.151229
v -0.122974 -2.727730 -0.213317
v -0.920633 -2.335509 -2.127964
v -0.464145 -2.145468 -0.190052
v -1.020774 -1.669029 -2.169733
v -0.564286 -1.478988 -0.231821
v -0.864641 -1.019798 -2.270178
v -0.408153 -0.829756 -0.332266
v -0.476003 -0.486654 -2.414007
v -0.019515 -0.296612 -0.476095
v 0.085974 -0.150764 -2.579324
v 0.542462 0.039277 -0.641412
v 0.735733 -0.063265 -2.740959
v 1.192221 0.126776 -0.803047
v 1.374354 -0.237478 -2.874307
v 1.830842 -0.047436 -0.936395
v 1.904614 -0.646880 -2.959065
v 2.361102 -0.456838 -1.021153
vn 0.9622 0.1296 -0.2394
vn 0.9457 -0.2580 -0.1975
vn 0.7853 -0.6063 -0.1255
vn 0.5052 -0.8623 -0.0345
vn 0.1483 -0.9870 0.0619
vn -0.2312 -0.9615 0.1488
vn -0.5755 -0.7895 0.2130
vn -0.8322 -0.4974 0.2448
vn -0.9622 -0.1296 0.2394
vn -0.9457 0.2580 0.1975
vn -0.7853 0.6063 0.1255
vn -0.5052 0.8623 0.0345
vn -0.1483 0.9870 -0.0619
vn 0.2312 0.9615 -0.1488
vn 0.2282 0.0950 0.9690
vn 0.5755 0.7895 -0.2130
vn 0.8322 0.4974 -0.2448
vn -0.2282 -0.0950 -0.9690
s off
f 2//1 3//1 1//1
f 4//2 5//2 3//2
f 6//3 7//3 5//3
f 8//4 9//4 7//4
f 10//5 11//5 9//5
f 12//6 13//6 11//6
f 14//7 15//7 13//7
f 16//8 17//8 15//8
f 18//9 19//9 17//9
f 20//10 21//10 19//10
f 22//11 23//11 21//11
f 24//12 25//12 23//12
f 26//13 27//13 25//13
f 28//14 29//14 27//14
f 30//15 22//15 14//15
f 30//16 31//16 29//16
f 32//17 1//17 31//17
f 15//18 23//18 31//18
f 2//1 4//1 3//1
f 4//2 6//2 5//2
f 6//3 8//3 7//3
f 8//4 10//4 9//4
f 10//5 12//5 11//5
f 12//6 14//6 13//6
f 14//7 16//7 15//7
f 16//8 18//8 17//8
f 18//9 20//9 19//9
f 20//10 22//10 21//10
f 22//11 24//11 23//11
f 24//12 26//12 25//12
f 26//13 28//13 27//13
f 28//14 30//14 29//14
f 6//15 4//15 30//15
f 4//15 2//15 30//15
f 2//15 32//15 30//15
f 30//15 28//15 26//15
f 26//15 24//15 30//15
f 24//15 22//15 30//15
f 22//15 20//15 18//15
f 18//15 16//15 14//15
f 14//15 12//15 10//15
f 10//15 8//15 6//15
f 22//15 18//15 14//15
f 14//15 10//15 6//15
f 6//15 30//15 14//15
f 30//16 32//16 31//16
f 32//17 2//17 1//17
f 31//18 1//18 3//18
f 3//18 5//18 7//18
f 7//18 9//18 11//18
f 11//18 13//18 7//18
f 13//18 15//18 7//18
f 15//18 17//18 19//18
f 19//18 21//18 15//18
f 21//18 23//18 15//18
f 23//18 25//18 27//18
f 27//18 29//18 23//18
f 29//18 31//18 23//18
f 31//18 3//18 15//18
f 3//18 7//18 15//18
