# Blender v2.83.0 OBJ File: ''
# www.blender.org
o Cylinder.283_Cylinder.1712
v -0.526626 1.925310 1.890594
v -0.481919 0.943965 0.148480
v -0.930951 1.418514 2.165700
v -0.886245 0.437169 0.423585
v -1.083907 0.817872 2.500121
v -1.039200 -0.163473 0.758006
v -0.962207 0.214825 2.842944
v -0.917500 -0.766520 1.100829
v -0.584379 -0.298818 3.141978
v -0.539672 -1.280163 1.399864
v -0.007944 -0.644859 3.351698
v 0.036763 -1.626204 1.609584
v 0.679342 -0.770617 3.440176
v 0.724048 -1.751962 1.698061
v 1.372844 -0.656946 3.393940
v 1.417550 -1.638291 1.651826
v 1.966984 -0.321152 3.220032
v 2.011690 -1.302497 1.477918
v 2.371309 0.185644 2.944927
v 2.416015 -0.795701 1.202812
v 2.524265 0.786286 2.610506
v 2.568971 -0.195059 0.868392
v 2.402565 1.389333 2.267683
v 2.447272 0.407988 0.525568
v 2.024737 1.902976 1.968648
v 2.069443 0.921631 0.226534
v 1.448302 2.249017 1.758928
v 1.493008 1.267672 0.016814
v 0.761016 2.374775 1.670451
v 0.805722 1.393430 -0.071663
v 0.067514 2.261104 1.716686
v 0.112220 1.279759 -0.025429
vn -0.8185 0.4913 -0.2978
vn -0.9759 0.1786 -0.1256
vn -0.9847 -0.1614 0.0656
vn -0.8436 -0.4768 0.2469
vn -0.5741 -0.7196 0.3906
vn -0.2172 -0.8529 0.4748
vn 0.1728 -0.8563 0.4868
vn 0.5365 -0.7293 0.4246
vn 0.8185 -0.4913 0.2978
vn 0.9759 -0.1786 0.1256
vn 0.9847 0.1614 -0.0656
vn 0.8436 0.4768 -0.2469
vn 0.5741 0.7196 -0.3906
vn 0.2172 0.8529 -0.4748
vn 0.0224 -0.4907 -0.8711
vn -0.1728 0.8563 -0.4868
vn -0.5365 0.7293 -0.4246
vn -0.0224 0.4907 0.8711
s off
f 2//1 3//1 1//1
f 4//2 5//2 3//2
f 6//3 7//3 5//3
f 8//4 9//4 7//4
f 10//5 11//5 9//5
f 12//6 13//6 11//6
f 14//7 15//7 13//7
f 16//8 17//8 15//8
f 18//9 19//9 17//9
f 20//10 21//10 19//10
f 22//11 23//11 21//11
f 24//12 25//12 23//12
f 26//13 27//13 25//13
f 28//14 29//14 27//14
f 30//15 22//15 14//15
f 30//16 31//16 29//16
f 32//17 1//17 31//17
f 7//18 15//18 23//18
f 2//1 4//1 3//1
f 4//2 6//2 5//2
f 6//3 8//3 7//3
f 8//4 10//4 9//4
f 10//5 12//5 11//5
f 12//6 14//6 13//6
f 14//7 16//7 15//7
f 16//8 18//8 17//8
f 18//9 20//9 19//9
f 20//10 22//10 21//10
f 22//11 24//11 23//11
f 24//12 26//12 25//12
f 26//13 28//13 27//13
f 28//14 30//14 29//14
f 6//15 4//15 2//15
f 2//15 32//15 30//15
f 30//15 28//15 26//15
f 26//15 24//15 22//15
f 22//15 20//15 18//15
f 18//15 16//15 14//15
f 14//15 12//15 6//15
f 12//15 10//15 6//15
f 10//15 8//15 6//15
f 6//15 2//15 30//15
f 30//15 26//15 22//15
f 22//15 18//15 14//15
f 6//15 30//15 14//15
f 30//16 32//16 31//16
f 32//17 2//17 1//17
f 31//18 1//18 3//18
f 3//18 5//18 31//18
f 5//18 7//18 31//18
f 7//18 9//18 11//18
f 11//18 13//18 7//18
f 13//18 15//18 7//18
f 15//18 17//18 19//18
f 19//18 21//18 15//18
f 21//18 23//18 15//18
f 23//18 25//18 27//18
f 27//18 29//18 31//18
f 23//18 27//18 31//18
f 31//18 7//18 23//18
