# Blender v2.83.0 OBJ File: ''
# www.blender.org
o Cylinder.174_Cylinder.1603
v -3.087528 0.488499 -0.988278
v -1.887336 0.670094 -2.577795
v -2.945022 -0.068594 -0.944322
v -1.744830 0.113001 -2.533838
v -2.645456 -0.529844 -0.770826
v -1.445264 -0.348249 -2.360342
v -2.234437 -0.825030 -0.494202
v -1.034245 -0.643435 -2.083718
v -1.774539 -0.909213 -0.156565
v -0.574347 -0.727618 -1.746082
v -1.335776 -0.769578 0.190683
v -0.135584 -0.587982 -1.398833
v -0.984947 -0.427381 0.494677
v 0.215245 -0.245786 -1.094839
v -0.775462 0.065281 0.709137
v 0.424730 0.246876 -0.880380
v -0.739213 0.633403 0.801413
v 0.460979 0.814998 -0.788104
v -0.881719 1.190495 0.757456
v 0.318473 1.372091 -0.832060
v -1.181284 1.651746 0.583960
v 0.018908 1.833341 -1.005557
v -1.592303 1.946932 0.307336
v -0.392111 2.128527 -1.282180
v -2.052202 2.031116 -0.030301
v -0.852010 2.212711 -1.619817
v -2.490965 1.891479 -0.377549
v -1.290773 2.073075 -1.967065
v -2.841794 1.549283 -0.681543
v -1.641602 1.730878 -2.271060
v -3.051279 1.056621 -0.896003
v -1.851087 1.238216 -2.485519
vn -0.7608 -0.2421 -0.6021
vn -0.6083 -0.5934 -0.5271
vn -0.3632 -0.8543 -0.3719
vn -0.0629 -0.9851 -0.1600
vn 0.2471 -0.9660 0.0762
vn 0.5194 -0.7998 0.3008
vn 0.7127 -0.5118 0.4797
vn 0.7975 -0.1460 0.5855
vn 0.7608 0.2421 0.6021
vn 0.6083 0.5934 0.5271
vn 0.3632 0.8543 0.3719
vn 0.0629 0.9851 0.1600
vn -0.2471 0.9660 -0.0762
vn -0.5194 0.7998 -0.3008
vn 0.6001 0.0908 -0.7948
vn -0.7127 0.5118 -0.4797
vn -0.7975 0.1460 -0.5855
vn -0.6001 -0.0908 0.7948
s off
f 2//1 3//1 1//1
f 4//2 5//2 3//2
f 6//3 7//3 5//3
f 8//4 9//4 7//4
f 9//5 12//5 11//5
f 12//6 13//6 11//6
f 14//7 15//7 13//7
f 16//8 17//8 15//8
f 18//9 19//9 17//9
f 20//10 21//10 19//10
f 22//11 23//11 21//11
f 24//12 25//12 23//12
f 26//13 27//13 25//13
f 28//14 29//14 27//14
f 6//15 30//15 22//15
f 30//16 31//16 29//16
f 32//17 1//17 31//17
f 31//18 7//18 15//18
f 2//1 4//1 3//1
f 4//2 6//2 5//2
f 6//3 8//3 7//3
f 8//4 10//4 9//4
f 9//5 10//5 12//5
f 12//6 14//6 13//6
f 14//7 16//7 15//7
f 16//8 18//8 17//8
f 18//9 20//9 19//9
f 20//10 22//10 21//10
f 22//11 24//11 23//11
f 24//12 26//12 25//12
f 26//13 28//13 27//13
f 28//14 30//14 29//14
f 6//15 4//15 2//15
f 2//15 32//15 30//15
f 30//15 28//15 26//15
f 26//15 24//15 30//15
f 24//15 22//15 30//15
f 22//15 20//15 18//15
f 18//15 16//15 14//15
f 14//15 12//15 10//15
f 10//15 8//15 6//15
f 6//15 2//15 30//15
f 22//15 18//15 6//15
f 18//15 14//15 6//15
f 14//15 10//15 6//15
f 30//16 32//16 31//16
f 32//17 2//17 1//17
f 31//18 1//18 3//18
f 3//18 5//18 7//18
f 7//18 9//18 15//18
f 9//18 11//18 15//18
f 11//18 13//18 15//18
f 15//18 17//18 19//18
f 19//18 21//18 23//18
f 23//18 25//18 27//18
f 27//18 29//18 31//18
f 31//18 3//18 7//18
f 15//18 19//18 23//18
f 23//18 27//18 15//18
f 27//18 31//18 15//18
