# Blender v2.83.0 OBJ File: ''
# www.blender.org
o Cylinder.206_Cylinder.1635
v -0.871765 1.467157 0.428926
v -1.822215 1.248292 -1.317139
v -0.736336 1.123152 0.398327
v -1.686786 0.904288 -1.347738
v -0.497568 0.856145 0.301825
v -1.448017 0.637280 -1.444240
v -0.191810 0.706783 0.154112
v -1.142259 0.487919 -1.591953
v 0.134389 0.697806 -0.022326
v -0.816061 0.478942 -1.768391
v 0.431367 0.830581 -0.200625
v -0.519082 0.611717 -1.946690
v 0.653913 1.084894 -0.353643
v -0.296536 0.866030 -2.099708
v 0.768146 1.422028 -0.458083
v -0.182303 1.203164 -2.204148
v 0.756675 1.790658 -0.498046
v -0.193774 1.571793 -2.244111
v 0.621247 2.134662 -0.467447
v -0.329203 1.915797 -2.213512
v 0.382478 2.401670 -0.370945
v -0.567971 2.182805 -2.117010
v 0.076720 2.551031 -0.223231
v -0.873729 2.332167 -1.969296
v -0.249479 2.560008 -0.046794
v -1.199928 2.341144 -1.792859
v -0.546457 2.427233 0.131506
v -1.496907 2.208368 -1.614559
v -0.769003 2.172920 0.284524
v -1.719453 1.954055 -1.461541
v -0.883236 1.835786 0.388964
v -1.833686 1.616921 -1.357101
vn -0.8006 -0.3579 0.4806
vn -0.5999 -0.6855 0.4125
vn -0.3079 -0.9088 0.2815
vn 0.0309 -0.9937 0.1077
vn 0.3651 -0.9273 -0.0825
vn 0.6436 -0.7198 -0.2601
vn 0.8242 -0.4026 -0.3982
vn 0.8793 -0.0242 -0.4756
vn 0.8006 0.3579 -0.4806
vn 0.5999 0.6855 -0.4125
vn 0.3079 0.9088 -0.2815
vn -0.0309 0.9937 -0.1077
vn -0.3651 0.9273 0.0825
vn -0.6436 0.7198 0.2601
vn -0.4752 -0.1094 -0.8730
vn -0.8242 0.4026 0.3982
vn -0.8793 0.0242 0.4756
vn 0.4752 0.1094 0.8730
s off
f 2//1 3//1 1//1
f 4//2 5//2 3//2
f 6//3 7//3 5//3
f 8//4 9//4 7//4
f 10//5 11//5 9//5
f 12//6 13//6 11//6
f 14//7 15//7 13//7
f 16//8 17//8 15//8
f 18//9 19//9 17//9
f 20//10 21//10 19//10
f 22//11 23//11 21//11
f 24//12 25//12 23//12
f 26//13 27//13 25//13
f 28//14 29//14 27//14
f 30//15 22//15 14//15
f 30//16 31//16 29//16
f 32//17 1//17 31//17
f 31//18 7//18 15//18
f 2//1 4//1 3//1
f 4//2 6//2 5//2
f 6//3 8//3 7//3
f 8//4 10//4 9//4
f 10//5 12//5 11//5
f 12//6 14//6 13//6
f 14//7 16//7 15//7
f 16//8 18//8 17//8
f 18//9 20//9 19//9
f 20//10 22//10 21//10
f 22//11 24//11 23//11
f 24//12 26//12 25//12
f 26//13 28//13 27//13
f 28//14 30//14 29//14
f 6//15 4//15 2//15
f 2//15 32//15 30//15
f 30//15 28//15 26//15
f 26//15 24//15 22//15
f 22//15 20//15 18//15
f 18//15 16//15 14//15
f 14//15 12//15 10//15
f 10//15 8//15 6//15
f 6//15 2//15 30//15
f 30//15 26//15 22//15
f 22//15 18//15 14//15
f 14//15 10//15 6//15
f 6//15 30//15 14//15
f 30//16 32//16 31//16
f 32//17 2//17 1//17
f 31//18 1//18 3//18
f 3//18 5//18 7//18
f 7//18 9//18 11//18
f 11//18 13//18 15//18
f 15//18 17//18 23//18
f 17//18 19//18 23//18
f 19//18 21//18 23//18
f 23//18 25//18 27//18
f 27//18 29//18 31//18
f 31//18 3//18 7//18
f 7//18 11//18 15//18
f 23//18 27//18 15//18
f 27//18 31//18 15//18
