# Blender v2.83.0 OBJ File: ''
# www.blender.org
o Cylinder.330_Cylinder.1759
v -1.972962 0.551892 3.142066
v -3.240007 0.593192 1.595168
v -2.086321 -0.106506 3.217338
v -3.353365 -0.065205 1.670440
v -1.996768 -0.766587 3.126363
v -3.263813 -0.725286 1.579465
v -1.717939 -1.327860 2.882992
v -2.984984 -1.286560 1.336094
v -1.292282 -1.704877 2.524276
v -2.559327 -1.663577 0.977378
v -0.784599 -1.840241 2.104826
v -2.051644 -1.798940 0.557928
v -0.272182 -1.713342 1.688499
v -1.539226 -1.672042 0.141601
v 0.166960 -1.343501 1.338677
v -1.100084 -1.302201 -0.208221
v 0.465971 -0.787023 1.108619
v -0.801073 -0.745722 -0.438279
v 0.579330 -0.128625 1.033347
v -0.687715 -0.087325 -0.513551
v 0.489777 0.531456 1.124321
v -0.777267 0.572756 -0.422577
v 0.210948 1.092730 1.367692
v -1.056096 1.134030 -0.179206
v -0.214709 1.469747 1.726409
v -1.481754 1.511047 0.179510
v -0.722392 1.605110 2.145859
v -1.989436 1.646411 0.598961
v -1.234810 1.478212 2.562186
v -2.501854 1.519512 1.015288
v -1.673952 1.108370 2.912007
v -2.940997 1.149670 1.365109
vn -0.7551 0.2013 0.6239
vn -0.7622 -0.1887 0.6192
vn -0.6532 -0.5501 0.5203
vn -0.4448 -0.8277 0.3422
vn -0.1686 -0.9793 0.1120
vn 0.1332 -0.9818 -0.1353
vn 0.4147 -0.8348 -0.3620
vn 0.6331 -0.5608 -0.5336
vn 0.7551 -0.2013 -0.6239
vn 0.7622 0.1887 -0.6192
vn 0.6532 0.5501 -0.5203
vn 0.4448 0.8277 -0.3422
vn 0.1686 0.9793 -0.1120
vn -0.1332 0.9818 0.1353
vn -0.6335 0.0207 -0.7734
vn -0.4147 0.8348 0.3620
vn -0.6331 0.5608 0.5336
vn 0.6335 -0.0207 0.7734
vn -0.6335 0.0206 -0.7734
vn 0.6335 -0.0206 0.7734
s off
f 2//1 3//1 1//1
f 4//2 5//2 3//2
f 6//3 7//3 5//3
f 8//4 9//4 7//4
f 10//5 11//5 9//5
f 12//6 13//6 11//6
f 14//7 15//7 13//7
f 16//8 17//8 15//8
f 18//9 19//9 17//9
f 20//10 21//10 19//10
f 22//11 23//11 21//11
f 24//12 25//12 23//12
f 26//13 27//13 25//13
f 28//14 29//14 27//14
f 22//15 14//15 6//15
f 30//16 31//16 29//16
f 32//17 1//17 31//17
f 27//18 31//18 15//18
f 2//1 4//1 3//1
f 4//2 6//2 5//2
f 6//3 8//3 7//3
f 8//4 10//4 9//4
f 10//5 12//5 11//5
f 12//6 14//6 13//6
f 14//7 16//7 15//7
f 16//8 18//8 17//8
f 18//9 20//9 19//9
f 20//10 22//10 21//10
f 22//11 24//11 23//11
f 24//12 26//12 25//12
f 26//13 28//13 27//13
f 28//14 30//14 29//14
f 6//15 4//15 2//15
f 2//19 32//19 30//19
f 30//15 28//15 26//15
f 26//15 24//15 22//15
f 22//15 20//15 18//15
f 18//15 16//15 14//15
f 14//15 12//15 10//15
f 10//15 8//15 14//15
f 8//19 6//19 14//19
f 6//15 2//15 30//15
f 30//15 26//15 6//15
f 26//19 22//19 6//19
f 22//15 18//15 14//15
f 30//16 32//16 31//16
f 32//17 2//17 1//17
f 31//18 1//18 3//18
f 3//18 5//18 7//18
f 7//20 9//20 11//20
f 11//18 13//18 15//18
f 15//20 17//20 19//20
f 19//18 21//18 23//18
f 23//18 25//18 27//18
f 27//18 29//18 31//18
f 31//20 3//20 15//20
f 3//18 7//18 15//18
f 7//18 11//18 15//18
f 15//18 19//18 23//18
f 23//18 27//18 15//18
