# Blender v2.83.0 OBJ File: ''
# www.blender.org
o Cylinder.276_Cylinder.1705
v -1.991814 -1.066948 -2.064526
v -0.013884 -1.080241 -1.768529
v -2.007887 -1.398027 -1.971994
v -0.029956 -1.411320 -1.675997
v -2.041252 -1.667974 -1.761165
v -0.063321 -1.681267 -1.465168
v -2.086829 -1.835693 -1.464134
v -0.108899 -1.848986 -1.168137
v -2.137681 -1.875649 -1.126123
v -0.159751 -1.888942 -0.830126
v -2.186065 -1.781760 -0.798591
v -0.208135 -1.795053 -0.502594
v -2.224616 -1.568319 -0.531401
v -0.246685 -1.581612 -0.235404
v -2.247464 -1.267821 -0.365230
v -0.269533 -1.281114 -0.069233
v -2.251131 -0.926014 -0.325377
v -0.273200 -0.939307 -0.029380
v -2.235058 -0.594935 -0.417908
v -0.257128 -0.608228 -0.121911
v -2.201694 -0.324987 -0.628737
v -0.223763 -0.338280 -0.332740
v -2.156116 -0.157269 -0.925768
v -0.178185 -0.170562 -0.629771
v -2.105264 -0.117312 -1.263779
v -0.127333 -0.130606 -0.967782
v -2.056880 -0.211202 -1.591311
v -0.078949 -0.224495 -1.295314
v -2.018329 -0.424643 -1.858502
v -0.040398 -0.437936 -1.562505
v -1.995481 -0.725141 -2.024673
v -0.017551 -0.738434 -1.728675
vn 0.1406 -0.2728 -0.9517
vn 0.1120 -0.6202 -0.7764
vn 0.0664 -0.8732 -0.4829
vn 0.0107 -0.9932 -0.1158
vn -0.0467 -0.9620 0.2689
vn -0.0970 -0.7844 0.6126
vn -0.1324 -0.4874 0.8631
vn -0.1478 -0.1161 0.9822
vn -0.1406 0.2728 0.9517
vn -0.1120 0.6202 0.7764
vn -0.0664 0.8732 0.4829
vn -0.0107 0.9932 0.1158
vn 0.0467 0.9620 -0.2689
vn 0.0970 0.7844 -0.6126
vn 0.9890 -0.0066 0.1480
vn 0.1324 0.4874 -0.8631
vn 0.1478 0.1161 -0.9822
vn -0.9890 0.0066 -0.1480
vn -0.9890 0.0067 -0.1480
s off
f 2//1 3//1 1//1
f 4//2 5//2 3//2
f 6//3 7//3 5//3
f 8//4 9//4 7//4
f 10//5 11//5 9//5
f 12//6 13//6 11//6
f 14//7 15//7 13//7
f 16//8 17//8 15//8
f 18//9 19//9 17//9
f 20//10 21//10 19//10
f 22//11 23//11 21//11
f 24//12 25//12 23//12
f 25//13 28//13 27//13
f 28//14 29//14 27//14
f 22//15 14//15 6//15
f 30//16 31//16 29//16
f 32//17 1//17 31//17
f 15//18 23//18 31//18
f 2//1 4//1 3//1
f 4//2 6//2 5//2
f 6//3 8//3 7//3
f 8//4 10//4 9//4
f 10//5 12//5 11//5
f 12//6 14//6 13//6
f 14//7 16//7 15//7
f 16//8 18//8 17//8
f 18//9 20//9 19//9
f 20//10 22//10 21//10
f 22//11 24//11 23//11
f 24//12 26//12 25//12
f 25//13 26//13 28//13
f 28//14 30//14 29//14
f 6//15 4//15 2//15
f 2//15 32//15 30//15
f 30//15 28//15 26//15
f 26//15 24//15 22//15
f 22//15 20//15 18//15
f 18//15 16//15 22//15
f 16//15 14//15 22//15
f 14//15 12//15 6//15
f 12//15 10//15 6//15
f 10//15 8//15 6//15
f 6//15 2//15 30//15
f 30//15 26//15 22//15
f 6//15 30//15 22//15
f 30//16 32//16 31//16
f 32//17 2//17 1//17
f 31//18 1//18 3//18
f 3//18 5//18 7//18
f 7//18 9//18 11//18
f 11//19 13//19 7//19
f 13//18 15//18 7//18
f 15//18 17//18 19//18
f 19//18 21//18 23//18
f 23//18 25//18 27//18
f 27//18 29//18 23//18
f 29//18 31//18 23//18
f 31//18 3//18 7//18
f 15//18 19//18 23//18
f 31//18 7//18 15//18
