# Blender v2.83.0 OBJ File: ''
# www.blender.org
o Cylinder.297_Cylinder.1726
v 0.156817 0.771809 -2.295006
v -0.820968 2.047687 -1.105017
v 0.523276 0.587988 -1.796807
v -0.454509 1.863865 -0.606818
v 0.698360 0.241510 -1.281460
v -0.279426 1.517388 -0.091471
v 0.655414 -0.214876 -0.827421
v -0.322371 1.061002 0.362568
v 0.400977 -0.711690 -0.503814
v -0.576808 0.564188 0.686175
v -0.026216 -1.173296 -0.359904
v -1.004001 0.102581 0.830084
v -0.561128 -1.529419 -0.417602
v -1.538913 -0.253542 0.772386
v -1.122324 -1.725843 -0.668123
v -2.100109 -0.449966 0.521866
v -1.624367 -1.732664 -1.073326
v -2.602152 -0.456787 0.116662
v -1.990825 -1.548843 -1.571525
v -2.968611 -0.272966 -0.381537
v -2.165909 -1.202366 -2.086872
v -3.143694 0.073512 -0.896884
v -2.122964 -0.745979 -2.540912
v -3.100749 0.529898 -1.350923
v -1.868527 -0.249165 -2.864519
v -2.846312 1.026712 -1.674530
v -1.441334 0.212441 -3.008428
v -2.419119 1.488319 -1.818440
v -0.906421 0.568565 -2.950730
v -1.884207 1.844442 -1.760742
v -0.345225 0.764989 -2.700210
v -1.323010 2.040866 -1.510221
vn 0.6621 0.7154 -0.2230
vn 0.8291 0.5520 0.0894
vn 0.8698 0.3044 0.3883
vn 0.7781 0.0106 0.6280
vn 0.5680 -0.2849 0.7722
vn 0.2714 -0.5370 0.7987
vn -0.0666 -0.7074 0.7037
vn -0.3944 -0.7700 0.5016
vn -0.6621 -0.7154 0.2230
vn -0.8291 -0.5520 -0.0894
vn -0.8698 -0.3044 -0.3883
vn -0.7781 -0.0106 -0.6280
vn -0.5680 0.2849 -0.7722
vn -0.2714 0.5370 -0.7987
vn -0.4889 0.6379 0.5950
vn 0.0666 0.7074 -0.7037
vn 0.3944 0.7700 -0.5016
vn 0.4889 -0.6379 -0.5950
s off
f 2//1 3//1 1//1
f 4//2 5//2 3//2
f 6//3 7//3 5//3
f 8//4 9//4 7//4
f 10//5 11//5 9//5
f 12//6 13//6 11//6
f 14//7 15//7 13//7
f 16//8 17//8 15//8
f 18//9 19//9 17//9
f 20//10 21//10 19//10
f 22//11 23//11 21//11
f 24//12 25//12 23//12
f 26//13 27//13 25//13
f 28//14 29//14 27//14
f 18//15 14//15 6//15
f 30//16 31//16 29//16
f 32//17 1//17 31//17
f 7//18 15//18 23//18
f 2//1 4//1 3//1
f 4//2 6//2 5//2
f 6//3 8//3 7//3
f 8//4 10//4 9//4
f 10//5 12//5 11//5
f 12//6 14//6 13//6
f 14//7 16//7 15//7
f 16//8 18//8 17//8
f 18//9 20//9 19//9
f 20//10 22//10 21//10
f 22//11 24//11 23//11
f 24//12 26//12 25//12
f 26//13 28//13 27//13
f 28//14 30//14 29//14
f 6//15 4//15 2//15
f 2//15 32//15 30//15
f 30//15 28//15 22//15
f 28//15 26//15 22//15
f 26//15 24//15 22//15
f 22//15 20//15 18//15
f 18//15 16//15 14//15
f 14//15 12//15 10//15
f 10//15 8//15 14//15
f 8//15 6//15 14//15
f 6//15 2//15 22//15
f 2//15 30//15 22//15
f 22//15 18//15 6//15
f 30//16 32//16 31//16
f 32//17 2//17 1//17
f 31//18 1//18 3//18
f 3//18 5//18 7//18
f 7//18 9//18 11//18
f 11//18 13//18 15//18
f 15//18 17//18 19//18
f 19//18 21//18 15//18
f 21//18 23//18 15//18
f 23//18 25//18 27//18
f 27//18 29//18 31//18
f 31//18 3//18 7//18
f 7//18 11//18 15//18
f 23//18 27//18 31//18
f 31//18 7//18 23//18
