# Blender v2.83.0 OBJ File: ''
# www.blender.org
o Cylinder.217_Cylinder.1646
v 1.240141 1.615704 1.999310
v 1.055624 2.682817 0.317875
v 0.671166 1.607038 2.056249
v 0.486649 2.674151 0.374814
v 0.136664 1.413966 1.992372
v -0.047853 2.481079 0.310937
v -0.281991 1.065882 1.817404
v -0.466509 2.132994 0.135969
v -0.521065 0.615777 1.557984
v -0.705582 1.682889 -0.123451
v -0.544159 0.132177 1.253604
v -0.728676 1.199289 -0.427831
v -0.347758 -0.311295 0.950605
v -0.532275 0.755817 -0.730830
v 0.038238 -0.647124 0.695115
v -0.146280 0.419988 -0.986320
v 0.555064 -0.824184 0.526030
v 0.370546 0.242929 -1.155405
v 1.124038 -0.815518 0.469091
v 0.939521 0.251595 -1.212344
v 1.658540 -0.622446 0.532968
v 1.474023 0.444666 -1.148467
v 2.077196 -0.274361 0.707935
v 1.892679 0.792751 -0.973500
v 2.316270 0.175744 0.967356
v 2.131752 1.242856 -0.714079
v 2.339364 0.659344 1.271736
v 2.154847 1.726456 -0.409699
v 2.142962 1.102816 1.574735
v 1.958445 2.169929 -0.106700
v 1.756966 1.438645 1.830225
v 1.572449 2.505758 0.148790
vn 0.0404 0.8456 0.5322
vn -0.3434 0.7755 0.5298
vn -0.6750 0.5872 0.4468
vn -0.9037 0.3096 0.2957
vn -0.9949 -0.0152 0.0996
vn -0.9346 -0.3376 -0.1117
vn -0.7321 -0.6087 -0.3059
vn -0.4180 -0.7871 -0.4536
vn -0.0404 -0.8456 -0.5322
vn 0.3434 -0.7755 -0.5298
vn 0.6750 -0.5872 -0.4468
vn 0.9037 -0.3096 -0.2957
vn 0.9949 0.0152 -0.0996
vn 0.9346 0.3376 0.1117
vn -0.0923 0.5336 -0.8407
vn 0.7321 0.6087 0.3060
vn 0.4180 0.7871 0.4536
vn 0.0923 -0.5336 0.8407
s off
f 2//1 3//1 1//1
f 4//2 5//2 3//2
f 6//3 7//3 5//3
f 8//4 9//4 7//4
f 10//5 11//5 9//5
f 12//6 13//6 11//6
f 14//7 15//7 13//7
f 16//8 17//8 15//8
f 18//9 19//9 17//9
f 20//10 21//10 19//10
f 22//11 23//11 21//11
f 24//12 25//12 23//12
f 26//13 27//13 25//13
f 28//14 29//14 27//14
f 30//15 22//15 14//15
f 30//16 31//16 29//16
f 32//17 1//17 31//17
f 31//18 7//18 15//18
f 2//1 4//1 3//1
f 4//2 6//2 5//2
f 6//3 8//3 7//3
f 8//4 10//4 9//4
f 10//5 12//5 11//5
f 12//6 14//6 13//6
f 14//7 16//7 15//7
f 16//8 18//8 17//8
f 18//9 20//9 19//9
f 20//10 22//10 21//10
f 22//11 24//11 23//11
f 24//12 26//12 25//12
f 26//13 28//13 27//13
f 28//14 30//14 29//14
f 6//15 4//15 2//15
f 2//15 32//15 30//15
f 30//15 28//15 26//15
f 26//15 24//15 22//15
f 22//15 20//15 14//15
f 20//15 18//15 14//15
f 18//15 16//15 14//15
f 14//15 12//15 10//15
f 10//15 8//15 6//15
f 6//15 2//15 30//15
f 30//15 26//15 22//15
f 14//15 10//15 6//15
f 6//15 30//15 14//15
f 30//16 32//16 31//16
f 32//17 2//17 1//17
f 31//18 1//18 3//18
f 3//18 5//18 31//18
f 5//18 7//18 31//18
f 7//18 9//18 11//18
f 11//18 13//18 7//18
f 13//18 15//18 7//18
f 15//18 17//18 19//18
f 19//18 21//18 23//18
f 23//18 25//18 31//18
f 25//18 27//18 31//18
f 27//18 29//18 31//18
f 15//18 19//18 31//18
f 19//18 23//18 31//18
