# Blender v2.83.0 OBJ File: ''
# www.blender.org
o Cylinder.057_Cylinder.1486
v 0.141557 0.255757 0.623102
v 2.030420 0.605186 0.066238
v 0.219516 -0.018518 0.715430
v 2.108379 0.330912 0.158566
v 0.314592 -0.230239 0.905070
v 2.203454 0.119191 0.348206
v 0.412311 -0.347173 1.163152
v 2.301173 0.002256 0.606288
v 0.497795 -0.351520 1.450384
v 2.386657 -0.002090 0.893520
v 0.558031 -0.242616 1.723038
v 2.446893 0.106814 1.166174
v 0.583848 -0.037041 1.939605
v 2.472710 0.312388 1.382741
v 0.571316 0.233907 2.067115
v 2.460178 0.583336 1.510251
v 0.522342 0.528979 2.086155
v 2.411204 0.878409 1.529291
v 0.444383 0.803254 1.993827
v 2.333245 1.152683 1.436963
v 0.349307 1.014975 1.804187
v 2.238169 1.364404 1.247322
v 0.251589 1.131910 1.546105
v 2.140451 1.481339 0.989241
v 0.166104 1.136256 1.258873
v 2.054966 1.485686 0.702009
v 0.105869 1.027352 0.986219
v 1.994731 1.376782 0.429354
v 0.080052 0.821778 0.769652
v 1.968914 1.171207 0.212787
v 0.092584 0.550829 0.642142
v 1.981446 0.900259 0.085278
vn -0.2010 -0.3634 -0.9097
vn -0.0861 -0.6859 -0.7226
vn 0.0418 -0.9040 -0.4254
vn 0.1634 -0.9845 -0.0635
vn 0.2601 -0.9151 0.3081
vn 0.3172 -0.7064 0.6327
vn 0.3260 -0.3902 0.8611
vn 0.2852 -0.0145 0.9584
vn 0.2010 0.3634 0.9097
vn 0.0861 0.6859 0.7226
vn -0.0418 0.9040 0.4254
vn -0.1634 0.9845 0.0635
vn -0.2601 0.9151 -0.3081
vn -0.3172 0.7064 -0.6327
vn 0.9444 0.1747 -0.2784
vn -0.3260 0.3902 -0.8611
vn -0.2852 0.0145 -0.9584
vn -0.9444 -0.1747 0.2784
s off
f 2//1 3//1 1//1
f 4//2 5//2 3//2
f 6//3 7//3 5//3
f 8//4 9//4 7//4
f 10//5 11//5 9//5
f 12//6 13//6 11//6
f 14//7 15//7 13//7
f 16//8 17//8 15//8
f 18//9 19//9 17//9
f 20//10 21//10 19//10
f 22//11 23//11 21//11
f 24//12 25//12 23//12
f 26//13 27//13 25//13
f 28//14 29//14 27//14
f 22//15 14//15 6//15
f 30//16 31//16 29//16
f 32//17 1//17 31//17
f 15//18 23//18 31//18
f 2//1 4//1 3//1
f 4//2 6//2 5//2
f 6//3 8//3 7//3
f 8//4 10//4 9//4
f 10//5 12//5 11//5
f 12//6 14//6 13//6
f 14//7 16//7 15//7
f 16//8 18//8 17//8
f 18//9 20//9 19//9
f 20//10 22//10 21//10
f 22//11 24//11 23//11
f 24//12 26//12 25//12
f 26//13 28//13 27//13
f 28//14 30//14 29//14
f 6//15 4//15 2//15
f 2//15 32//15 30//15
f 30//15 28//15 26//15
f 26//15 24//15 22//15
f 22//15 20//15 18//15
f 18//15 16//15 14//15
f 14//15 12//15 10//15
f 10//15 8//15 6//15
f 6//15 2//15 30//15
f 30//15 26//15 6//15
f 26//15 22//15 6//15
f 22//15 18//15 14//15
f 14//15 10//15 6//15
f 30//16 32//16 31//16
f 32//17 2//17 1//17
f 31//18 1//18 3//18
f 3//18 5//18 31//18
f 5//18 7//18 31//18
f 7//18 9//18 11//18
f 11//18 13//18 7//18
f 13//18 15//18 7//18
f 15//18 17//18 23//18
f 17//18 19//18 23//18
f 19//18 21//18 23//18
f 23//18 25//18 31//18
f 25//18 27//18 31//18
f 27//18 29//18 31//18
f 31//18 7//18 15//18
