# Blender v2.83.0 OBJ File: ''
# www.blender.org
o Cylinder.110_Cylinder.1539
v 1.590167 0.149007 0.936531
v 0.215075 -1.286756 0.718110
v 1.784572 -0.020333 0.825773
v 0.409480 -1.456096 0.607352
v 1.940828 -0.139517 0.625484
v 0.565736 -1.575279 0.407062
v 2.035147 -0.190399 0.366155
v 0.660055 -1.626162 0.147733
v 2.053170 -0.165233 0.087267
v 0.678078 -1.600996 -0.131155
v 1.992153 -0.067851 -0.168722
v 0.617061 -1.503614 -0.387143
v 1.861385 0.086922 -0.362840
v 0.486293 -1.348841 -0.581261
v 1.680775 0.275523 -0.465533
v 0.305683 -1.160239 -0.683955
v 1.477818 0.469240 -0.461169
v 0.102726 -0.966523 -0.679591
v 1.283413 0.638580 -0.350412
v -0.091679 -0.797183 -0.568833
v 1.127157 0.757763 -0.150122
v -0.247935 -0.677999 -0.368543
v 1.032838 0.808646 0.109207
v -0.342254 -0.627117 -0.109214
v 1.014815 0.783480 0.388095
v -0.360277 -0.652282 0.169674
v 1.075832 0.686098 0.644084
v -0.299260 -0.749665 0.425662
v 1.206600 0.531325 0.838201
v -0.168492 -0.904438 0.619780
v 1.387211 0.342723 0.940895
v 0.012119 -1.093039 0.722474
vn 0.2175 -0.3470 0.9123
vn 0.4660 -0.5516 0.6918
vn 0.6437 -0.6721 0.3660
vn 0.7233 -0.6904 -0.0156
vn 0.6928 -0.6035 -0.3947
vn 0.5569 -0.4247 -0.7138
vn 0.3361 -0.1813 -0.9242
vn 0.0642 0.0897 -0.9939
vn -0.2175 0.3470 -0.9123
vn -0.4660 0.5516 -0.6918
vn -0.6437 0.6721 -0.3660
vn -0.7233 0.6904 0.0156
vn -0.6928 0.6035 0.3947
vn -0.5569 0.4247 0.7138
vn -0.6875 -0.7179 -0.1092
vn -0.3361 0.1813 0.9242
vn -0.0642 -0.0897 0.9939
vn 0.6875 0.7179 0.1092
s off
f 2//1 3//1 1//1
f 4//2 5//2 3//2
f 6//3 7//3 5//3
f 8//4 9//4 7//4
f 10//5 11//5 9//5
f 12//6 13//6 11//6
f 14//7 15//7 13//7
f 16//8 17//8 15//8
f 18//9 19//9 17//9
f 20//10 21//10 19//10
f 22//11 23//11 21//11
f 24//12 25//12 23//12
f 25//13 28//13 27//13
f 28//14 29//14 27//14
f 10//15 6//15 22//15
f 30//16 31//16 29//16
f 32//17 1//17 31//17
f 27//18 31//18 15//18
f 2//1 4//1 3//1
f 4//2 6//2 5//2
f 6//3 8//3 7//3
f 8//4 10//4 9//4
f 10//5 12//5 11//5
f 12//6 14//6 13//6
f 14//7 16//7 15//7
f 16//8 18//8 17//8
f 18//9 20//9 19//9
f 20//10 22//10 21//10
f 22//11 24//11 23//11
f 24//12 26//12 25//12
f 25//13 26//13 28//13
f 28//14 30//14 29//14
f 6//15 4//15 2//15
f 2//15 32//15 30//15
f 30//15 28//15 26//15
f 26//15 24//15 22//15
f 22//15 20//15 14//15
f 20//15 18//15 14//15
f 18//15 16//15 14//15
f 14//15 12//15 10//15
f 10//15 8//15 6//15
f 6//15 2//15 30//15
f 30//15 26//15 6//15
f 26//15 22//15 6//15
f 14//15 10//15 22//15
f 30//16 32//16 31//16
f 32//17 2//17 1//17
f 31//18 1//18 3//18
f 3//18 5//18 7//18
f 7//18 9//18 11//18
f 11//18 13//18 15//18
f 15//18 17//18 19//18
f 19//18 21//18 23//18
f 23//18 25//18 27//18
f 27//18 29//18 31//18
f 31//18 3//18 15//18
f 3//18 7//18 15//18
f 7//18 11//18 15//18
f 15//18 19//18 23//18
f 23//18 27//18 15//18
