# Blender v2.83.0 OBJ File: ''
# www.blender.org
o Cube.033_Cube.994
v 1.293409 1.934987 -0.262344
v 0.477279 1.903357 -1.056525
v 0.591974 2.498971 0.436014
v -0.224155 2.467340 -0.358167
v 0.919626 0.945688 0.161170
v 0.103497 0.914057 -0.633010
v 0.218192 1.509671 0.859528
v -0.597938 1.478041 0.065347
vn 0.3281 0.8684 -0.3718
vn -0.6157 0.4951 0.6130
vn -0.3281 -0.8684 0.3718
vn 0.6157 -0.4951 -0.6130
vn 0.7164 0.0278 0.6971
vn -0.7164 -0.0278 -0.6971
s off
f 2//1 3//1 1//1
f 4//2 7//2 3//2
f 8//3 5//3 7//3
f 6//4 1//4 5//4
f 7//5 1//5 3//5
f 4//6 6//6 8//6
f 2//1 4//1 3//1
f 4//2 8//2 7//2
f 8//3 6//3 5//3
f 6//4 2//4 1//4
f 7//5 5//5 1//5
f 4//6 2//6 6//6
