# Blender v2.83.0 OBJ File: ''
# www.blender.org
o Cube.055_Cube.1016
v 1.630197 0.989801 -0.189806
v 1.365386 0.619856 -0.981435
v 0.860517 0.696950 0.204519
v 0.595705 0.327005 -0.587111
v 2.043874 0.208110 0.037113
v 1.779062 -0.161834 -0.754516
v 1.274193 -0.084741 0.431437
v 1.009382 -0.454685 -0.360192
vn -0.4531 0.8561 -0.2485
vn -0.8430 -0.3207 0.4319
vn 0.4531 -0.8561 0.2485
vn 0.8430 0.3207 -0.4319
vn 0.2900 0.4052 0.8670
vn -0.2900 -0.4052 -0.8670
s off
f 2//1 3//1 1//1
f 4//2 7//2 3//2
f 8//3 5//3 7//3
f 6//4 1//4 5//4
f 7//5 1//5 3//5
f 4//6 6//6 8//6
f 2//1 4//1 3//1
f 4//2 8//2 7//2
f 8//3 6//3 5//3
f 6//4 2//4 1//4
f 7//5 5//5 1//5
f 4//6 2//6 6//6
