# Blender v2.83.0 OBJ File: ''
# www.blender.org
o Cube.091_Cube.1052
v 1.736381 -1.245939 2.312536
v 1.709986 -1.594787 1.678016
v 2.438374 -1.102597 2.204527
v 2.411979 -1.451445 1.570007
v 1.558853 -0.627259 1.979780
v 1.532458 -0.976108 1.345261
v 2.260846 -0.483917 1.871771
v 2.234451 -0.832766 1.237252
vn 0.2450 -0.8539 0.4592
vn 0.9688 0.1978 -0.1491
vn -0.2450 0.8539 -0.4592
vn -0.9688 -0.1978 0.1491
vn 0.0364 0.4815 0.8757
vn -0.0364 -0.4815 -0.8757
s off
f 2//1 3//1 1//1
f 4//2 7//2 3//2
f 8//3 5//3 7//3
f 6//4 1//4 5//4
f 7//5 1//5 3//5
f 4//6 6//6 8//6
f 2//1 4//1 3//1
f 4//2 8//2 7//2
f 8//3 6//3 5//3
f 6//4 2//4 1//4
f 7//5 5//5 1//5
f 4//6 2//6 6//6
