# Blender v2.83.0 OBJ File: ''
# www.blender.org
o Cube.065_Cube.1026
v -0.643582 -0.639469 0.524069
v 0.092567 -0.280231 2.032702
v -1.560863 0.807921 0.627009
v -0.824714 1.167159 2.135642
v 0.606866 0.210795 -0.288563
v 1.343015 0.570033 1.220070
v -0.310415 1.658185 -0.185623
v 0.425734 2.017423 1.323010
vn -0.7284 -0.4953 0.4734
vn -0.5343 0.8431 0.0600
vn 0.7284 0.4953 -0.4734
vn 0.5343 -0.8431 -0.0600
vn -0.4288 -0.2093 -0.8788
vn 0.4288 0.2093 0.8788
s off
f 2//1 3//1 1//1
f 4//2 7//2 3//2
f 8//3 5//3 7//3
f 6//4 1//4 5//4
f 7//5 1//5 3//5
f 4//6 6//6 8//6
f 2//1 4//1 3//1
f 4//2 8//2 7//2
f 8//3 6//3 5//3
f 6//4 2//4 1//4
f 7//5 5//5 1//5
f 4//6 2//6 6//6
