# Blender v2.83.0 OBJ File: ''
# www.blender.org
o Cube.054_Cube.1015
v -2.053940 0.036420 -1.945665
v -3.088608 -0.868115 -0.734791
v -1.980651 1.472091 -0.810581
v -3.015319 0.567556 0.400293
v -0.544295 -0.653220 -1.170871
v -1.578963 -1.557755 0.040003
v -0.471006 0.782450 -0.035787
v -1.505674 -0.122085 1.175087
vn -0.8242 0.3765 -0.4230
vn 0.0400 0.7838 0.6197
vn 0.8242 -0.3765 0.4230
vn -0.0400 -0.7838 -0.6197
vn 0.5649 0.4938 -0.6611
vn -0.5649 -0.4938 0.6611
s off
f 2//1 3//1 1//1
f 4//2 7//2 3//2
f 8//3 5//3 7//3
f 6//4 1//4 5//4
f 7//5 1//5 3//5
f 4//6 6//6 8//6
f 2//1 4//1 3//1
f 4//2 8//2 7//2
f 8//3 6//3 5//3
f 6//4 2//4 1//4
f 7//5 5//5 1//5
f 4//6 2//6 6//6
