# Blender v2.83.0 OBJ File: ''
# www.blender.org
o Cube.085_Cube.1046
v -1.088336 -1.439026 -0.252082
v -0.800311 -1.405641 -1.279946
v -2.079586 -1.145687 -0.520320
v -1.791561 -1.112302 -1.548183
v -1.362272 -2.465385 -0.362180
v -1.074247 -2.432001 -1.390043
v -2.353522 -2.172046 -0.630417
v -2.065497 -2.138662 -1.658280
vn 0.2565 0.9610 0.1031
vn -0.9282 0.2747 -0.2512
vn -0.2565 -0.9610 -0.1031
vn 0.9282 -0.2747 0.2512
vn -0.2697 -0.0313 0.9624
vn 0.2697 0.0313 -0.9624
s off
f 2//1 3//1 1//1
f 4//2 7//2 3//2
f 8//3 5//3 7//3
f 6//4 1//4 5//4
f 7//5 1//5 3//5
f 4//6 6//6 8//6
f 2//1 4//1 3//1
f 4//2 8//2 7//2
f 8//3 6//3 5//3
f 6//4 2//4 1//4
f 7//5 5//5 1//5
f 4//6 2//6 6//6
