# Blender v2.83.0 OBJ File: ''
# www.blender.org
o Cube.004_Cube.965
v -1.829654 2.384324 0.822887
v -2.695740 1.904345 1.382550
v -1.161407 2.238109 1.731609
v -2.027493 1.758130 2.291273
v -1.518125 1.363565 0.429556
v -2.384211 0.883585 0.989219
v -0.849879 1.217350 1.338278
v -1.715965 0.737370 1.897942
vn -0.2739 0.8974 0.3458
vn 0.5875 -0.1286 0.7989
vn 0.2739 -0.8974 -0.3458
vn -0.5875 0.1286 -0.7989
vn 0.7615 0.4220 -0.4920
vn -0.7615 -0.4220 0.4920
s off
f 2//1 3//1 1//1
f 4//2 7//2 3//2
f 8//3 5//3 7//3
f 6//4 1//4 5//4
f 7//5 1//5 3//5
f 4//6 6//6 8//6
f 2//1 4//1 3//1
f 4//2 8//2 7//2
f 8//3 6//3 5//3
f 6//4 2//4 1//4
f 7//5 5//5 1//5
f 4//6 2//6 6//6
