# Blender v2.83.0 OBJ File: ''
# www.blender.org
o Cube.023_Cube.984
v 1.558630 -1.574621 -0.706339
v 0.757525 -0.435146 0.073870
v 0.535495 -2.670152 -0.156880
v -0.265609 -1.530677 0.623329
v 0.631092 -1.350331 -1.986286
v -0.170012 -0.210856 -1.206077
v -0.392042 -2.445862 -1.436827
v -1.193146 -1.306387 -0.656618
vn 0.5810 -0.1405 0.8017
vn -0.6409 -0.6862 0.3442
vn -0.5810 0.1405 -0.8017
vn 0.6409 0.6862 -0.3442
vn 0.5018 -0.7137 -0.4887
vn -0.5018 0.7137 0.4887
s off
f 2//1 3//1 1//1
f 4//2 7//2 3//2
f 8//3 5//3 7//3
f 6//4 1//4 5//4
f 7//5 1//5 3//5
f 4//6 6//6 8//6
f 2//1 4//1 3//1
f 4//2 8//2 7//2
f 8//3 6//3 5//3
f 6//4 2//4 1//4
f 7//5 5//5 1//5
f 4//6 2//6 6//6
