# Blender v2.83.0 OBJ File: ''
# www.blender.org
o Cube.037_Cube.998
v 0.045079 2.275100 1.276162
v -0.622610 2.230376 -0.033898
v -1.168163 2.852820 1.874784
v -1.835853 2.808096 0.564723
v -0.451207 0.922951 1.575261
v -1.118896 0.878227 0.265201
v -1.664450 1.500671 2.173883
v -2.332139 1.455947 0.863823
vn 0.3374 0.9192 -0.2033
vn -0.8247 0.3927 0.4069
vn -0.3374 -0.9192 0.2033
vn 0.8247 -0.3927 -0.4069
vn 0.4539 0.0304 0.8905
vn -0.4539 -0.0304 -0.8905
s off
f 2//1 3//1 1//1
f 4//2 7//2 3//2
f 8//3 5//3 7//3
f 6//4 1//4 5//4
f 7//5 1//5 3//5
f 4//6 6//6 8//6
f 2//1 4//1 3//1
f 4//2 8//2 7//2
f 8//3 6//3 5//3
f 6//4 2//4 1//4
f 7//5 5//5 1//5
f 4//6 2//6 6//6
