# Blender v2.83.0 OBJ File: ''
# www.blender.org
o Cube.087_Cube.1048
v -2.330565 0.678469 -2.223521
v -1.607925 0.941984 -2.006236
v -2.004809 -0.006116 -2.476674
v -1.282168 0.257398 -2.259390
v -2.433207 0.361036 -1.497185
v -1.710566 0.624551 -1.279901
v -2.107450 -0.323550 -1.750339
v -1.384810 -0.060035 -1.533055
vn 0.1284 0.3971 -0.9087
vn 0.4076 -0.8565 -0.3167
vn -0.1284 -0.3971 0.9087
vn -0.4076 0.8565 0.3167
vn -0.9041 -0.3297 -0.2718
vn 0.9041 0.3297 0.2718
s off
f 2//1 3//1 1//1
f 4//2 7//2 3//2
f 8//3 5//3 7//3
f 6//4 1//4 5//4
f 7//5 1//5 3//5
f 4//6 6//6 8//6
f 2//1 4//1 3//1
f 4//2 8//2 7//2
f 8//3 6//3 5//3
f 6//4 2//4 1//4
f 7//5 5//5 1//5
f 4//6 2//6 6//6
