# Blender v2.83.0 OBJ File: ''
# www.blender.org
o Cube.073_Cube.1034
v -0.285062 -1.367442 -1.083491
v -0.345914 -0.770895 -1.763577
v 0.543411 -1.604463 -1.365527
v 0.482558 -1.007915 -2.045613
v 0.078284 -0.727098 -0.554314
v 0.017431 -0.130550 -1.234401
v 0.906757 -0.964118 -0.836351
v 0.845904 -0.367571 -1.516437
vn -0.4007 -0.7062 -0.5836
vn 0.9137 -0.2614 -0.3111
vn 0.4007 0.7062 0.5836
vn -0.9137 0.2614 0.3111
vn 0.0671 -0.6579 0.7501
vn -0.0671 0.6579 -0.7501
s off
f 2//1 3//1 1//1
f 4//2 7//2 3//2
f 8//3 5//3 7//3
f 6//4 1//4 5//4
f 7//5 1//5 3//5
f 4//6 6//6 8//6
f 2//1 4//1 3//1
f 4//2 8//2 7//2
f 8//3 6//3 5//3
f 6//4 2//4 1//4
f 7//5 5//5 1//5
f 4//6 2//6 6//6
