# Blender v2.83.0 OBJ File: ''
# www.blender.org
o Cube.044_Cube.1005
v -1.156018 1.249493 -0.103613
v -1.228259 0.707666 -1.432142
v -2.589120 1.340873 -0.062954
v -2.661361 0.799046 -1.391483
v -1.225189 -0.077857 0.441495
v -1.297430 -0.619684 -0.887034
v -2.658291 0.013523 0.482153
v -2.730532 -0.528304 -0.846376
vn 0.0481 0.9240 -0.3794
vn -0.9976 0.0636 0.0283
vn -0.0481 -0.9240 0.3794
vn 0.9976 -0.0636 -0.0283
vn 0.0503 0.3772 0.9248
vn -0.0503 -0.3772 -0.9248
s off
f 2//1 3//1 1//1
f 4//2 7//2 3//2
f 8//3 5//3 7//3
f 6//4 1//4 5//4
f 7//5 1//5 3//5
f 4//6 6//6 8//6
f 2//1 4//1 3//1
f 4//2 8//2 7//2
f 8//3 6//3 5//3
f 6//4 2//4 1//4
f 7//5 5//5 1//5
f 4//6 2//6 6//6
