# Blender v2.83.0 OBJ File: ''
# www.blender.org
o Cube.096_Cube.1057
v -2.263093 1.993767 0.444498
v -2.488209 1.088773 0.001025
v -2.388747 1.568114 1.376909
v -2.613864 0.663120 0.933435
v -1.263146 1.736539 0.461828
v -1.488263 0.831545 0.018354
v -1.388801 1.310886 1.394238
v -1.613917 0.405892 0.950765
vn -0.9683 0.2491 -0.0168
vn -0.1217 -0.4122 0.9029
vn 0.9683 -0.2491 0.0168
vn 0.1217 0.4122 -0.9029
vn 0.2180 0.8764 0.4295
vn -0.2180 -0.8764 -0.4295
s off
f 2//1 3//1 1//1
f 4//2 7//2 3//2
f 8//3 5//3 7//3
f 6//4 1//4 5//4
f 7//5 1//5 3//5
f 4//6 6//6 8//6
f 2//1 4//1 3//1
f 4//2 8//2 7//2
f 8//3 6//3 5//3
f 6//4 2//4 1//4
f 7//5 5//5 1//5
f 4//6 2//6 6//6
