# Blender v2.83.0 OBJ File: ''
# www.blender.org
o Cube.095_Cube.1056
v -1.317884 0.160076 2.180123
v -1.401556 0.318952 1.357216
v -1.956030 0.684110 2.346183
v -2.039702 0.842986 1.523276
v -1.861195 -0.479897 2.111809
v -1.944867 -0.321021 1.288902
v -2.499341 0.044138 2.277868
v -2.583014 0.203014 1.454961
vn 0.6451 0.7598 0.0811
vn -0.7577 0.6222 0.1972
vn -0.6451 -0.7598 -0.0811
vn 0.7577 -0.6222 -0.1972
vn 0.0993 -0.1886 0.9770
vn -0.0993 0.1886 -0.9770
s off
f 2//1 3//1 1//1
f 4//2 7//2 3//2
f 8//3 5//3 7//3
f 6//4 1//4 5//4
f 7//5 1//5 3//5
f 4//6 6//6 8//6
f 2//1 4//1 3//1
f 4//2 8//2 7//2
f 8//3 6//3 5//3
f 6//4 2//4 1//4
f 7//5 5//5 1//5
f 4//6 2//6 6//6
