# Blender v2.83.0 OBJ File: ''
# www.blender.org
o Cube.005_Cube.966
v -2.474404 -1.565070 -1.343528
v -1.924400 -1.220965 -2.062486
v -2.207953 -2.467705 -1.571707
v -1.657948 -2.123601 -2.290666
v -1.723197 -1.496847 -0.736200
v -1.173192 -1.152743 -1.455158
v -1.456746 -2.399483 -0.964380
v -0.906741 -2.055378 -1.683338
vn -0.7757 -0.0704 -0.6271
vn 0.2751 -0.9321 -0.2356
vn 0.7757 0.0704 0.6271
vn -0.2751 0.9321 0.2356
vn -0.5679 -0.3553 0.7424
vn 0.5679 0.3553 -0.7424
s off
f 2//1 3//1 1//1
f 4//2 7//2 3//2
f 8//3 5//3 7//3
f 6//4 1//4 5//4
f 7//5 1//5 3//5
f 4//6 6//6 8//6
f 2//1 4//1 3//1
f 4//2 8//2 7//2
f 8//3 6//3 5//3
f 6//4 2//4 1//4
f 7//5 5//5 1//5
f 4//6 2//6 6//6
