# Blender v2.83.0 OBJ File: ''
# www.blender.org
o Cube.069_Cube.1030
v 1.168113 -1.426521 -2.436350
v 1.747584 -1.914486 -1.720515
v 0.589401 -2.285425 -2.553373
v 1.168873 -2.773391 -1.837538
v 0.523424 -1.094119 -1.687882
v 1.102895 -1.582085 -0.972047
v -0.055287 -1.953024 -1.804905
v 0.524184 -2.440990 -1.089070
vn 0.6185 -0.3189 -0.7181
vn -0.5552 -0.8241 -0.1123
vn -0.6185 0.3189 0.7181
vn 0.5552 0.8241 0.1123
vn -0.5560 0.4682 -0.6868
vn 0.5560 -0.4682 0.6868
s off
f 2//1 3//1 1//1
f 4//2 7//2 3//2
f 8//3 5//3 7//3
f 6//4 1//4 5//4
f 7//5 1//5 3//5
f 4//6 6//6 8//6
f 2//1 4//1 3//1
f 4//2 8//2 7//2
f 8//3 6//3 5//3
f 6//4 2//4 1//4
f 7//5 5//5 1//5
f 4//6 2//6 6//6
