# Blender v2.83.0 OBJ File: ''
# www.blender.org
o Cube.034_Cube.995
v 1.147660 0.219292 -2.370768
v -0.456254 -0.777017 -2.892118
v 0.418084 0.450249 -0.567616
v -1.185830 -0.546061 -1.088966
v 2.003322 -1.451338 -1.810575
v 0.399407 -2.447648 -2.331925
v 1.273746 -1.220382 -0.007423
v -0.330168 -2.216691 -0.528773
vn -0.4368 0.8529 -0.2860
vn -0.3725 0.1179 0.9205
vn 0.4368 -0.8529 0.2860
vn 0.3725 -0.1179 -0.9205
vn 0.8188 0.5086 0.2662
vn -0.8188 -0.5086 -0.2662
s off
f 2//1 3//1 1//1
f 4//2 7//2 3//2
f 8//3 5//3 7//3
f 6//4 1//4 5//4
f 7//5 1//5 3//5
f 4//6 6//6 8//6
f 2//1 4//1 3//1
f 4//2 8//2 7//2
f 8//3 6//3 5//3
f 6//4 2//4 1//4
f 7//5 5//5 1//5
f 4//6 2//6 6//6
