# Blender v2.83.0 OBJ File: ''
# www.blender.org
o Cube.093_Cube.1054
v 0.229700 0.343039 1.286236
v 1.165092 1.007468 1.542090
v -0.370161 0.850928 2.160365
v 0.565231 1.515357 2.416219
v -0.153828 1.169156 0.543052
v 0.781564 1.833585 0.798906
v -0.753689 1.677045 1.417181
v 0.181703 2.341473 1.673035
vn 0.3263 -0.7028 0.6322
vn -0.5103 0.4320 0.7436
vn -0.3263 0.7028 -0.6322
vn 0.5103 -0.4320 -0.7436
vn -0.7957 -0.5652 -0.2176
vn 0.7957 0.5652 0.2176
s off
f 2//1 3//1 1//1
f 4//2 7//2 3//2
f 8//3 5//3 7//3
f 6//4 1//4 5//4
f 7//5 1//5 3//5
f 4//6 6//6 8//6
f 2//1 4//1 3//1
f 4//2 8//2 7//2
f 8//3 6//3 5//3
f 6//4 2//4 1//4
f 7//5 5//5 1//5
f 4//6 2//6 6//6
