# Blender v2.83.0 OBJ File: ''
# www.blender.org
o Cube.014_Cube.975
v -0.870196 1.128561 1.155922
v -2.583558 0.771091 1.470494
v -0.874149 -0.035509 -0.188428
v -2.587512 -0.392980 0.126144
v -1.346352 2.424519 0.035154
v -3.059715 2.067049 0.349726
v -1.350306 1.260449 -1.309195
v -3.063668 0.902978 -0.994624
vn 0.2678 -0.7288 0.6302
vn -0.0022 -0.6546 -0.7560
vn -0.2678 0.7288 -0.6302
vn 0.0022 0.6546 0.7560
vn 0.9635 0.2010 -0.1769
vn -0.9635 -0.2010 0.1769
s off
f 2//1 3//1 1//1
f 4//2 7//2 3//2
f 8//3 5//3 7//3
f 6//4 1//4 5//4
f 7//5 1//5 3//5
f 4//6 6//6 8//6
f 2//1 4//1 3//1
f 4//2 8//2 7//2
f 8//3 6//3 5//3
f 6//4 2//4 1//4
f 7//5 5//5 1//5
f 4//6 2//6 6//6
