# Blender v2.83.0 OBJ File: ''
# www.blender.org
o Cube.016_Cube.977
v -1.466776 -2.103723 0.632793
v -2.024936 -0.810377 0.509440
v -0.977375 -2.018786 -0.691131
v -1.535535 -0.725439 -0.814484
v -0.263262 -1.538441 1.113950
v -0.821421 -0.245095 0.990597
v 0.226140 -1.453504 -0.209974
v -0.332020 -0.160157 -0.333327
vn -0.8511 -0.3998 -0.3403
vn 0.3461 0.0601 -0.9363
vn 0.8511 0.3998 0.3403
vn -0.3461 -0.0601 0.9363
vn 0.3947 -0.9146 0.0872
vn -0.3947 0.9146 -0.0872
s off
f 2//1 3//1 1//1
f 4//2 7//2 3//2
f 8//3 5//3 7//3
f 6//4 1//4 5//4
f 3//5 5//5 1//5
f 4//6 6//6 8//6
f 2//1 4//1 3//1
f 4//2 8//2 7//2
f 8//3 6//3 5//3
f 6//4 2//4 1//4
f 3//5 7//5 5//5
f 4//6 2//6 6//6
