# Blender v2.83.0 OBJ File: ''
# www.blender.org
o Cube.013_Cube.974
v -1.479283 0.434462 -1.381034
v -1.644956 0.595688 -0.076340
v -2.669368 0.974734 -1.598917
v -2.835041 1.135960 -0.294223
v -0.920786 1.633537 -1.458289
v -1.086459 1.794763 -0.153595
v -2.110870 2.173809 -1.676172
v -2.276543 2.335035 -0.371478
vn -0.4215 -0.9050 0.0583
vn -0.8982 0.4077 -0.1644
vn 0.4215 0.9050 -0.0583
vn 0.8982 -0.4077 0.1644
vn 0.1250 -0.1217 -0.9847
vn -0.1250 0.1217 0.9847
s off
f 2//1 3//1 1//1
f 4//2 7//2 3//2
f 8//3 5//3 7//3
f 6//4 1//4 5//4
f 7//5 1//5 3//5
f 4//6 6//6 8//6
f 2//1 4//1 3//1
f 4//2 8//2 7//2
f 8//3 6//3 5//3
f 6//4 2//4 1//4
f 7//5 5//5 1//5
f 4//6 2//6 6//6
