# Blender v2.83.0 OBJ File: ''
# www.blender.org
o Cube.072_Cube.1033
v -1.862641 -2.298830 0.907673
v -1.008673 -2.182304 1.749835
v -2.580830 -1.561153 1.533862
v -1.726862 -1.444627 2.376024
v -1.407648 -1.353140 0.315451
v -0.553679 -1.236614 1.157612
v -2.125837 -0.615463 0.941640
v -1.271869 -0.498937 1.783801
vn -0.3776 -0.7848 0.4915
vn -0.5960 0.6122 0.5196
vn 0.3776 0.7848 -0.4915
vn 0.5960 -0.6122 -0.5196
vn -0.7087 -0.0967 -0.6989
vn 0.7087 0.0967 0.6989
s off
f 2//1 3//1 1//1
f 4//2 7//2 3//2
f 8//3 5//3 7//3
f 6//4 1//4 5//4
f 7//5 1//5 3//5
f 4//6 6//6 8//6
f 2//1 4//1 3//1
f 4//2 8//2 7//2
f 8//3 6//3 5//3
f 6//4 2//4 1//4
f 7//5 5//5 1//5
f 4//6 2//6 6//6
