# Blender v2.83.0 OBJ File: ''
# www.blender.org
o Cube.079_Cube.1040
v 0.058216 0.327270 -2.291401
v 0.732865 0.313524 -1.543698
v 0.437786 -0.534086 -2.649721
v 1.112435 -0.547832 -1.902018
v -0.586125 -0.194532 -1.719608
v 0.088524 -0.208278 -0.971905
v -0.206555 -1.055888 -2.077927
v 0.468094 -1.069634 -1.330225
vn 0.6398 0.5181 -0.5677
vn 0.3769 -0.8552 -0.3558
vn -0.6398 -0.5181 0.5677
vn -0.3769 0.8552 0.3558
vn -0.6698 0.0136 -0.7424
vn 0.6698 -0.0136 0.7424
s off
f 2//1 3//1 1//1
f 4//2 7//2 3//2
f 8//3 5//3 7//3
f 6//4 1//4 5//4
f 7//5 1//5 3//5
f 4//6 6//6 8//6
f 2//1 4//1 3//1
f 4//2 8//2 7//2
f 8//3 6//3 5//3
f 6//4 2//4 1//4
f 7//5 5//5 1//5
f 4//6 2//6 6//6
