# Blender v2.83.0 OBJ File: ''
# www.blender.org
o Cube.051_Cube.1012
v -1.242249 1.198007 0.440131
v -0.249590 0.635583 0.359098
v -0.984985 1.788271 -0.505207
v 0.007674 1.225847 -0.586240
v -1.748907 0.395805 -0.198641
v -0.756248 -0.166619 -0.279674
v -1.491643 0.986069 -1.143979
v -0.498984 0.423645 -1.225012
vn 0.4430 0.7014 0.5585
vn 0.2249 0.5161 -0.8265
vn -0.4430 -0.7014 -0.5585
vn -0.2249 -0.5161 0.8265
vn -0.8679 0.4917 0.0708
vn 0.8679 -0.4917 -0.0708
s off
f 2//1 3//1 1//1
f 4//2 7//2 3//2
f 8//3 5//3 7//3
f 6//4 1//4 5//4
f 7//5 1//5 3//5
f 4//6 6//6 8//6
f 2//1 4//1 3//1
f 4//2 8//2 7//2
f 8//3 6//3 5//3
f 6//4 2//4 1//4
f 7//5 5//5 1//5
f 4//6 2//6 6//6
