# Blender v2.83.0 OBJ File: ''
# www.blender.org
o Cube.046_Cube.1007
v 0.957055 0.746422 1.709663
v 0.959613 0.960931 0.468112
v -0.299985 0.831152 1.721713
v -0.297427 1.045661 0.480161
v 0.871511 -0.492238 1.495478
v 0.874069 -0.277728 0.253926
v -0.385528 -0.407508 1.507527
v -0.382970 -0.192999 0.265975
vn 0.0679 0.9831 0.1700
vn -0.9977 0.0672 0.0096
vn -0.0679 -0.9831 -0.1700
vn 0.9977 -0.0672 -0.0096
vn -0.0020 -0.1703 0.9854
vn 0.0020 0.1703 -0.9854
s off
f 2//1 3//1 1//1
f 4//2 7//2 3//2
f 8//3 5//3 7//3
f 6//4 1//4 5//4
f 7//5 1//5 3//5
f 4//6 6//6 8//6
f 2//1 4//1 3//1
f 4//2 8//2 7//2
f 8//3 6//3 5//3
f 6//4 2//4 1//4
f 7//5 5//5 1//5
f 4//6 2//6 6//6
