# Blender v2.83.0 OBJ File: ''
# www.blender.org
o Cube.009_Cube.970
v -0.069676 1.277270 0.540834
v -0.208509 2.254972 1.097824
v 0.517772 1.818908 -0.263497
v 0.378939 2.796611 0.293494
v 0.890034 1.087163 1.113747
v 0.751202 2.064866 1.670737
v 1.477483 1.628802 0.309416
v 1.338650 2.606504 0.866407
vn -0.8465 0.1677 -0.5053
vn 0.5181 0.4777 -0.7094
vn 0.8465 -0.1677 0.5053
vn -0.5181 -0.4777 0.7094
vn 0.1225 -0.8624 -0.4913
vn -0.1225 0.8624 0.4913
s off
f 2//1 3//1 1//1
f 4//2 7//2 3//2
f 8//3 5//3 7//3
f 6//4 1//4 5//4
f 7//5 1//5 3//5
f 4//6 6//6 8//6
f 2//1 4//1 3//1
f 4//2 8//2 7//2
f 8//3 6//3 5//3
f 6//4 2//4 1//4
f 7//5 5//5 1//5
f 4//6 2//6 6//6
