# Blender v2.83.0 OBJ File: ''
# www.blender.org
o Cube.027_Cube.988
v -0.664359 0.053115 -0.496574
v 0.182872 0.376068 -1.061854
v -1.314982 0.505958 -1.212998
v -0.467751 0.828912 -1.778278
v -0.687394 -0.859176 -1.052304
v 0.159837 -0.536223 -1.617584
v -1.338017 -0.406333 -1.768728
v -0.490786 -0.083379 -2.334008
vn 0.0216 0.8538 0.5201
vn -0.6089 0.4238 -0.6705
vn -0.0216 -0.8538 -0.5201
vn 0.6089 -0.4238 0.6705
vn -0.7929 -0.3023 0.5291
vn 0.7929 0.3023 -0.5291
s off
f 2//1 3//1 1//1
f 3//2 8//2 7//2
f 8//3 5//3 7//3
f 6//4 1//4 5//4
f 7//5 1//5 3//5
f 4//6 6//6 8//6
f 2//1 4//1 3//1
f 3//2 4//2 8//2
f 8//3 6//3 5//3
f 6//4 2//4 1//4
f 7//5 5//5 1//5
f 4//6 2//6 6//6
