# Blender v2.83.0 OBJ File: ''
# www.blender.org
o Cube.090_Cube.1051
v 0.271125 2.022691 -0.091431
v 1.714956 2.100909 -0.898411
v -0.517530 1.775933 -1.526393
v 0.926301 1.854150 -2.333373
v 0.459161 0.387156 0.086474
v 1.902992 0.465373 -0.720506
v -0.329494 0.140398 -1.348488
v 1.114337 0.218615 -2.155468
vn -0.1136 0.9877 -0.1074
vn -0.4763 -0.1490 -0.8666
vn 0.1136 -0.9877 0.1074
vn 0.4763 0.1490 0.8666
vn -0.8719 -0.0472 0.4873
vn 0.8719 0.0472 -0.4873
s off
f 2//1 3//1 1//1
f 4//2 7//2 3//2
f 8//3 5//3 7//3
f 6//4 1//4 5//4
f 7//5 1//5 3//5
f 4//6 6//6 8//6
f 2//1 4//1 3//1
f 4//2 8//2 7//2
f 8//3 6//3 5//3
f 6//4 2//4 1//4
f 7//5 5//5 1//5
f 4//6 2//6 6//6
