# Blender v2.83.0 OBJ File: ''
# www.blender.org
o Cube.002_Cube.963
v -2.603253 0.032892 -1.307596
v -0.699417 -0.291074 -1.262755
v -2.671623 -0.620342 -3.124233
v -0.767787 -0.944308 -3.079392
v -2.923081 -1.755932 -0.652327
v -1.019245 -2.079898 -0.607486
v -2.991451 -2.409165 -2.468964
v -1.087615 -2.733131 -2.424123
vn 0.1656 0.9260 -0.3392
vn -0.0354 -0.3382 -0.9404
vn -0.1656 -0.9260 0.3392
vn 0.0354 0.3382 0.9404
vn -0.9856 0.1677 -0.0232
vn 0.9856 -0.1677 0.0232
s off
f 2//1 3//1 1//1
f 4//2 7//2 3//2
f 8//3 5//3 7//3
f 6//4 1//4 5//4
f 7//5 1//5 3//5
f 4//6 6//6 8//6
f 2//1 4//1 3//1
f 4//2 8//2 7//2
f 8//3 6//3 5//3
f 6//4 2//4 1//4
f 7//5 5//5 1//5
f 4//6 2//6 6//6
