# Blender v2.83.0 OBJ File: ''
# www.blender.org
o Cube.074_Cube.1035
v -2.092691 0.954253 0.013161
v -2.239537 0.842238 1.165740
v -2.050183 2.114758 0.131362
v -2.197029 2.002743 1.283942
v -0.935461 0.897411 0.155075
v -1.082307 0.785396 1.307655
v -0.892953 2.057916 0.273276
v -1.039799 1.945901 1.425856
vn -0.9914 0.0487 -0.1216
vn 0.0364 0.9942 0.1013
vn 0.9914 -0.0487 0.1216
vn -0.0364 -0.9942 -0.1013
vn 0.1258 0.0960 -0.9874
vn -0.1258 -0.0960 0.9874
s off
f 2//1 3//1 1//1
f 4//2 7//2 3//2
f 8//3 5//3 7//3
f 6//4 1//4 5//4
f 7//5 1//5 3//5
f 4//6 6//6 8//6
f 2//1 4//1 3//1
f 4//2 8//2 7//2
f 8//3 6//3 5//3
f 6//4 2//4 1//4
f 7//5 5//5 1//5
f 4//6 2//6 6//6
