# Blender v2.83.0 OBJ File: ''
# www.blender.org
o Cube.003_Cube.964
v -0.601480 -0.752447 0.445709
v -1.033553 -0.384486 1.124540
v -0.229488 0.028409 0.259218
v -0.661560 0.396369 0.938049
v 0.075149 -0.946773 0.981715
v -0.356923 -0.578813 1.660547
v 0.447142 -0.165917 0.795224
v 0.015069 0.202043 1.474055
vn -0.7647 0.2196 -0.6058
vn 0.4204 0.8825 -0.2108
vn 0.7647 -0.2196 0.6058
vn -0.4204 -0.8825 0.2108
vn 0.4883 -0.4159 -0.7672
vn -0.4883 0.4159 0.7672
s off
f 2//1 3//1 1//1
f 4//2 7//2 3//2
f 8//3 5//3 7//3
f 5//4 2//4 1//4
f 7//5 1//5 3//5
f 4//6 6//6 8//6
f 2//1 4//1 3//1
f 4//2 8//2 7//2
f 8//3 6//3 5//3
f 5//4 6//4 2//4
f 7//5 5//5 1//5
f 4//6 2//6 6//6
