# Blender v2.83.0 OBJ File: ''
# www.blender.org
o Cube.064_Cube.1025
v -0.748589 -0.933258 -2.392261
v -1.578254 -0.166626 -1.918851
v -0.319418 -1.162863 -1.268304
v -1.149083 -0.396231 -0.794895
v -1.540834 -1.860480 -2.279165
v -2.370499 -1.093848 -1.805756
v -1.111663 -2.090085 -1.155209
v -1.941328 -1.323453 -0.681800
vn 0.6468 0.7570 -0.0923
vn 0.3504 -0.1875 0.9177
vn -0.6468 -0.7570 0.0923
vn -0.3504 0.1875 -0.9177
vn 0.6774 -0.6259 -0.3865
vn -0.6774 0.6259 0.3865
vn -0.3504 0.1875 -0.9176
s off
f 2//1 3//1 1//1
f 4//2 7//2 3//2
f 8//3 5//3 7//3
f 6//4 1//4 5//4
f 7//5 1//5 3//5
f 4//6 6//6 8//6
f 2//1 4//1 3//1
f 4//2 8//2 7//2
f 8//3 6//3 5//3
f 6//7 2//7 1//7
f 7//5 5//5 1//5
f 4//6 2//6 6//6
