# Blender v2.83.0 OBJ File: ''
# www.blender.org
o Cube.021_Cube.982
v -0.536799 -0.979120 -1.697443
v -0.928953 -0.063341 -1.454752
v -0.324770 -1.150281 -0.708969
v -0.716924 -0.234502 -0.466278
v -1.460158 -1.407358 -1.573534
v -1.852313 -0.491579 -1.330843
v -1.248129 -1.578519 -0.585059
v -1.640283 -0.662740 -0.342368
vn 0.9005 0.4177 -0.1208
vn 0.2068 -0.1669 0.9640
vn -0.9005 -0.4177 0.1208
vn -0.2068 0.1669 -0.9640
vn 0.3825 -0.8931 -0.2367
vn -0.3825 0.8931 0.2367
s off
f 2//1 3//1 1//1
f 4//2 7//2 3//2
f 8//3 5//3 7//3
f 6//4 1//4 5//4
f 7//5 1//5 3//5
f 4//6 6//6 8//6
f 2//1 4//1 3//1
f 4//2 8//2 7//2
f 8//3 6//3 5//3
f 6//4 2//4 1//4
f 7//5 5//5 1//5
f 4//6 2//6 6//6
