# Blender v2.83.0 OBJ File: ''
# www.blender.org
o Cube.089_Cube.1050
v -0.445567 -0.486997 -1.320475
v -0.780577 -0.855725 -0.845270
v 0.057265 -0.957173 -1.330815
v -0.277745 -1.325901 -0.855609
v -0.775629 -0.829030 -1.818557
v -1.110639 -1.197758 -1.343351
v -0.272797 -1.299206 -1.828896
v -0.607807 -1.667934 -1.353691
vn 0.4794 0.4968 0.7234
vn 0.7303 -0.6829 -0.0150
vn -0.4794 -0.4968 -0.7234
vn -0.7303 0.6829 0.0150
vn 0.4866 0.5356 -0.6902
vn -0.4866 -0.5356 0.6902
s off
f 2//1 3//1 1//1
f 4//2 7//2 3//2
f 7//3 6//3 5//3
f 5//4 2//4 1//4
f 7//5 1//5 3//5
f 4//6 6//6 8//6
f 2//1 4//1 3//1
f 4//2 8//2 7//2
f 7//3 8//3 6//3
f 5//4 6//4 2//4
f 7//5 5//5 1//5
f 4//6 2//6 6//6
