# Blender v2.83.0 OBJ File: ''
# www.blender.org
o Cube.056_Cube.1017
v 1.338951 0.268913 -2.509512
v 1.423926 -0.147543 -1.988492
v 0.806439 0.542838 -2.203712
v 0.891413 0.126382 -1.682692
v 1.740607 0.720186 -2.214313
v 1.825582 0.303731 -1.693292
v 1.208094 0.994111 -1.908513
v 1.293069 0.577656 -1.387493
vn -0.5973 -0.6711 -0.4390
vn -0.7920 0.4074 0.4548
vn 0.5973 0.6711 0.4390
vn 0.7920 -0.4074 -0.4548
vn -0.1264 0.6194 -0.7749
vn 0.1264 -0.6194 0.7749
s off
f 1//1 4//1 3//1
f 3//2 8//2 7//2
f 8//3 5//3 7//3
f 6//4 1//4 5//4
f 7//5 1//5 3//5
f 4//6 6//6 8//6
f 1//1 2//1 4//1
f 3//2 4//2 8//2
f 8//3 6//3 5//3
f 6//4 2//4 1//4
f 7//5 5//5 1//5
f 4//6 2//6 6//6
