# Blender v2.83.0 OBJ File: ''
# www.blender.org
o Cube.082_Cube.1043
v -1.241156 0.411827 -0.288575
v -0.895109 0.932282 -0.427544
v -1.546133 0.737261 0.170790
v -1.200086 1.257716 0.031821
v -1.685200 0.593908 -0.712375
v -1.339153 1.114364 -0.851344
v -1.990178 0.919342 -0.253010
v -1.644130 1.439798 -0.391978
vn 0.6935 -0.2844 0.6619
vn -0.4763 0.5083 0.7175
vn -0.6935 0.2844 -0.6619
vn 0.4763 -0.5083 -0.7175
vn -0.5405 -0.8129 0.2170
vn 0.5405 0.8129 -0.2170
s off
f 2//1 3//1 1//1
f 4//2 7//2 3//2
f 8//3 5//3 7//3
f 6//4 1//4 5//4
f 7//5 1//5 3//5
f 4//6 6//6 8//6
f 2//1 4//1 3//1
f 4//2 8//2 7//2
f 8//3 6//3 5//3
f 6//4 2//4 1//4
f 7//5 5//5 1//5
f 4//6 2//6 6//6
