# Blender v2.83.0 OBJ File: ''
# www.blender.org
o Cube.059_Cube.1020
v -2.502779 0.953297 1.035663
v -2.601232 0.848833 2.462598
v -1.078993 1.087131 1.143697
v -1.177446 0.982667 2.570632
v -2.361747 -0.470755 0.941141
v -2.460200 -0.575219 2.368075
v -0.937962 -0.336921 1.049174
v -1.036415 -0.441385 2.476109
vn -0.0983 0.9930 0.0659
vn 0.9928 0.0933 0.0753
vn 0.0983 -0.9930 -0.0659
vn -0.9928 -0.0933 -0.0753
vn 0.0686 0.0728 -0.9950
vn -0.0686 -0.0728 0.9950
s off
f 2//1 3//1 1//1
f 4//2 7//2 3//2
f 8//3 5//3 7//3
f 6//4 1//4 5//4
f 7//5 1//5 3//5
f 4//6 6//6 8//6
f 2//1 4//1 3//1
f 4//2 8//2 7//2
f 8//3 6//3 5//3
f 6//4 2//4 1//4
f 7//5 5//5 1//5
f 4//6 2//6 6//6
