# Blender v2.83.0 OBJ File: ''
# www.blender.org
o Cube.084_Cube.1045
v 0.242250 -1.335325 -1.231423
v 0.144410 -1.277176 -0.581553
v 0.894597 -1.314047 -1.135114
v 0.796757 -1.255897 -0.485244
v 0.254721 -1.992175 -1.170772
v 0.156881 -1.934025 -0.520901
v 0.907068 -1.970896 -1.074462
v 0.809228 -1.912746 -0.424592
vn -0.0189 0.9956 -0.0919
vn 0.9888 0.0323 0.1460
vn 0.0189 -0.9956 0.0919
vn -0.9888 -0.0323 -0.1460
vn 0.1483 -0.0881 -0.9850
vn -0.1483 0.0881 0.9850
s off
f 2//1 3//1 1//1
f 4//2 7//2 3//2
f 8//3 5//3 7//3
f 6//4 1//4 5//4
f 7//5 1//5 3//5
f 4//6 6//6 8//6
f 2//1 4//1 3//1
f 4//2 8//2 7//2
f 8//3 6//3 5//3
f 6//4 2//4 1//4
f 7//5 5//5 1//5
f 4//6 2//6 6//6
