# Blender v2.83.0 OBJ File: ''
# www.blender.org
o Cube.080_Cube.1041
v -0.835626 1.698601 2.560767
v 0.327283 1.625423 1.183444
v -2.214780 1.659853 1.398371
v -1.051871 1.586675 0.021047
v -0.853194 -0.103585 2.641685
v 0.309716 -0.176763 1.264362
v -2.232347 -0.142333 1.479289
v -1.069438 -0.215511 0.101966
vn 0.0097 0.9989 -0.0449
vn -0.7645 -0.0215 -0.6443
vn -0.0097 -0.9989 0.0449
vn 0.7645 0.0215 0.6443
vn -0.6446 0.0406 0.7634
vn 0.6446 -0.0406 -0.7634
s off
f 2//1 3//1 1//1
f 4//2 7//2 3//2
f 8//3 5//3 7//3
f 6//4 1//4 5//4
f 7//5 1//5 3//5
f 4//6 6//6 8//6
f 2//1 4//1 3//1
f 4//2 8//2 7//2
f 8//3 6//3 5//3
f 6//4 2//4 1//4
f 7//5 5//5 1//5
f 4//6 2//6 6//6
