# Blender v2.83.0 OBJ File: ''
# www.blender.org
o Cube.047_Cube.1008
v 0.066041 -1.436430 -0.263322
v 0.241768 -1.334885 0.297623
v -0.408434 -1.735740 -0.060500
v -0.232707 -1.634196 0.500444
v -0.249940 -0.930513 -0.255918
v -0.074212 -0.828968 0.305027
v -0.724415 -1.229824 -0.053096
v -0.548687 -1.128279 0.507848
vn 0.5297 -0.8481 -0.0124
vn -0.7954 -0.5018 0.3400
vn -0.5297 0.8481 0.0124
vn 0.7954 0.5018 -0.3400
vn -0.2946 -0.1702 -0.9403
vn 0.2946 0.1702 0.9403
s off
f 2//1 3//1 1//1
f 4//2 7//2 3//2
f 8//3 5//3 7//3
f 6//4 1//4 5//4
f 3//5 5//5 1//5
f 4//6 6//6 8//6
f 2//1 4//1 3//1
f 4//2 8//2 7//2
f 8//3 6//3 5//3
f 6//4 2//4 1//4
f 3//5 7//5 5//5
f 4//6 2//6 6//6
