# Blender v2.83.0 OBJ File: ''
# www.blender.org
o Cube.039_Cube.1000
v 1.595725 -0.079508 -0.415549
v 2.794761 1.440053 -0.729437
v 0.346748 1.101065 0.528687
v 1.545784 2.620626 0.214799
v 0.675047 0.297931 -2.105274
v 1.874084 1.817492 -2.419162
v -0.573930 1.478504 -1.161038
v 0.625107 2.998065 -1.474926
vn 0.4695 -0.1925 0.8617
vn -0.6369 0.6020 0.4815
vn -0.4695 0.1925 -0.8617
vn 0.6369 -0.6020 -0.4815
vn -0.6115 -0.7749 0.1601
vn 0.6115 0.7749 -0.1601
s off
f 2//1 3//1 1//1
f 4//2 7//2 3//2
f 8//3 5//3 7//3
f 6//4 1//4 5//4
f 7//5 1//5 3//5
f 4//6 6//6 8//6
f 2//1 4//1 3//1
f 4//2 8//2 7//2
f 8//3 6//3 5//3
f 6//4 2//4 1//4
f 7//5 5//5 1//5
f 4//6 2//6 6//6
