# Blender v2.83.0 OBJ File: ''
# www.blender.org
o Cube.057_Cube.1018
v 1.147909 1.808165 -1.394255
v 1.774471 0.364384 -1.710465
v 0.106904 1.133270 -0.375482
v 0.733467 -0.310511 -0.691692
v 2.197099 2.000742 -0.194595
v 2.823661 0.556961 -0.510804
v 1.156094 1.325847 0.824178
v 1.782657 -0.117933 0.507968
vn -0.6536 -0.1200 -0.7473
vn -0.6485 -0.4204 0.6346
vn 0.6536 0.1200 0.7473
vn 0.6485 0.4204 -0.6346
vn -0.3903 0.8994 0.1970
vn 0.3903 -0.8994 -0.1970
s off
f 2//1 3//1 1//1
f 4//2 7//2 3//2
f 8//3 5//3 7//3
f 6//4 1//4 5//4
f 7//5 1//5 3//5
f 4//6 6//6 8//6
f 2//1 4//1 3//1
f 4//2 8//2 7//2
f 8//3 6//3 5//3
f 6//4 2//4 1//4
f 7//5 5//5 1//5
f 4//6 2//6 6//6
