# Blender v2.83.0 OBJ File: ''
# www.blender.org
o Cube.060_Cube.1021
v -0.422463 -1.339900 -0.690166
v 0.187663 -1.250384 -0.830648
v -0.277589 -1.361795 -0.074915
v 0.332537 -1.272279 -0.215396
v -0.504680 -0.714193 -0.648540
v 0.105446 -0.624677 -0.789021
v -0.359807 -0.736088 -0.033289
v 0.250319 -0.646572 -0.173770
vn 0.1300 -0.9893 -0.0658
vn 0.2291 -0.0346 0.9728
vn -0.1300 0.9893 0.0658
vn -0.2291 0.0346 -0.9728
vn -0.9647 -0.1415 0.2221
vn 0.9647 0.1415 -0.2221
s off
f 2//1 3//1 1//1
f 4//2 7//2 3//2
f 8//3 5//3 7//3
f 6//4 1//4 5//4
f 7//5 1//5 3//5
f 4//6 6//6 8//6
f 2//1 4//1 3//1
f 4//2 8//2 7//2
f 8//3 6//3 5//3
f 6//4 2//4 1//4
f 7//5 5//5 1//5
f 4//6 2//6 6//6
