# Blender v2.83.0 OBJ File: ''
# www.blender.org
o Cube.058_Cube.1019
v -0.660443 0.567202 -1.155996
v -1.909103 1.073028 -0.254192
v 0.251429 0.439339 0.178322
v -0.997231 0.945166 1.080126
v -1.147887 -0.967742 -0.969965
v -2.396546 -0.461916 -0.068160
v -0.236015 -1.095605 0.364353
v -1.484675 -0.589778 1.266157
vn 0.3007 0.9468 -0.1147
vn 0.5625 -0.0789 0.8230
vn -0.3007 -0.9468 0.1147
vn -0.5625 0.0789 -0.8230
vn 0.7702 -0.3120 -0.5563
vn -0.7702 0.3120 0.5563
s off
f 2//1 3//1 1//1
f 4//2 7//2 3//2
f 8//3 5//3 7//3
f 6//4 1//4 5//4
f 7//5 1//5 3//5
f 4//6 6//6 8//6
f 2//1 4//1 3//1
f 4//2 8//2 7//2
f 8//3 6//3 5//3
f 6//4 2//4 1//4
f 7//5 5//5 1//5
f 4//6 2//6 6//6
