# Blender v2.83.0 OBJ File: ''
# www.blender.org
o Cube.040_Cube.1001
v 0.160689 -0.401331 -0.626696
v -1.182188 -0.741846 -0.694050
v 0.033784 -0.170207 0.735024
v -1.309093 -0.510723 0.667671
v 0.483772 -1.725882 -0.371772
v -0.859105 -2.066398 -0.439125
v 0.356867 -1.494759 0.989949
v -0.986010 -1.835274 0.922595
vn -0.2329 0.9550 -0.1838
vn -0.0915 0.1666 0.9818
vn 0.2329 -0.9550 0.1838
vn 0.0915 -0.1666 -0.9818
vn 0.9682 0.2455 0.0486
vn -0.9682 -0.2455 -0.0486
s off
f 2//1 3//1 1//1
f 4//2 7//2 3//2
f 8//3 5//3 7//3
f 6//4 1//4 5//4
f 7//5 1//5 3//5
f 4//6 6//6 8//6
f 2//1 4//1 3//1
f 4//2 8//2 7//2
f 8//3 6//3 5//3
f 6//4 2//4 1//4
f 7//5 5//5 1//5
f 4//6 2//6 6//6
