# Blender v2.83.0 OBJ File: ''
# www.blender.org
o Cube.007_Cube.968
v -0.756337 0.470703 -1.226117
v 0.418072 0.180185 -0.553793
v -1.475384 -0.228212 -0.272101
v -0.300975 -0.518730 0.400223
v -0.895592 1.629485 -0.482147
v 0.278817 1.338967 0.190177
v -1.614639 0.930570 0.471869
v -0.440230 0.640051 1.144193
vn 0.1006 -0.8372 -0.5375
vn -0.5195 -0.5050 0.6893
vn -0.1006 0.8372 0.5375
vn 0.5195 0.5050 -0.6893
vn -0.8485 0.2099 -0.4858
vn 0.8485 -0.2099 0.4858
s off
f 2//1 3//1 1//1
f 4//2 7//2 3//2
f 8//3 5//3 7//3
f 6//4 1//4 5//4
f 7//5 1//5 3//5
f 4//6 6//6 8//6
f 2//1 4//1 3//1
f 4//2 8//2 7//2
f 8//3 6//3 5//3
f 6//4 2//4 1//4
f 7//5 5//5 1//5
f 4//6 2//6 6//6
