# Blender v2.83.0 OBJ File: ''
# www.blender.org
o Cube.038_Cube.999
v 1.334048 -0.733603 1.052140
v 1.000603 -0.599345 1.812595
v 2.104384 -0.733530 1.389904
v 1.770939 -0.599271 2.150359
v 1.280202 -1.563951 1.175128
v 0.946757 -1.429693 1.935582
v 2.050538 -1.563877 1.512892
v 1.717093 -1.429619 2.273347
vn 0.0640 0.9872 -0.1462
vn 0.9158 0.0001 0.4016
vn -0.0640 -0.9872 0.1462
vn -0.9158 -0.0001 -0.4016
vn 0.3964 -0.1596 -0.9041
vn -0.3964 0.1596 0.9041
s off
f 2//1 3//1 1//1
f 4//2 7//2 3//2
f 8//3 5//3 7//3
f 6//4 1//4 5//4
f 7//5 1//5 3//5
f 4//6 6//6 8//6
f 2//1 4//1 3//1
f 4//2 8//2 7//2
f 8//3 6//3 5//3
f 6//4 2//4 1//4
f 7//5 5//5 1//5
f 4//6 2//6 6//6
