# Blender v2.83.0 OBJ File: ''
# www.blender.org
o Cone.144_Cone.1620
v -1.501319 0.023811 -0.084785
v -1.620284 -0.059075 0.087439
v -1.741334 -0.055918 0.277231
v -1.846039 0.032799 0.455696
v -1.918459 0.193572 0.595666
v -1.947570 0.401923 0.675830
v -1.928938 0.626134 0.683984
v -1.865401 0.832069 0.618888
v -1.766631 0.988378 0.490451
v -1.647666 1.071263 0.318227
v -1.526616 1.068107 0.128435
v -1.421911 0.979390 -0.050030
v 0.044173 0.327606 1.276128
v -1.349491 0.818617 -0.190000
v -1.320380 0.610266 -0.270164
v -1.339012 0.386055 -0.278318
v -1.402549 0.180120 -0.213222
vn 0.3529 -0.9148 -0.1965
vn 0.1488 -0.9826 0.1113
vn -0.0431 -0.9045 0.4243
vn -0.1937 -0.6924 0.6951
vn -0.2800 -0.3786 0.8822
vn -0.2889 -0.0108 0.9573
vn -0.2191 0.3549 0.9089
vn -0.0811 0.6629 0.7443
vn 0.1040 0.8662 0.4887
vn 0.3081 0.9340 0.1810
vn 0.5000 0.8559 -0.1321
vn 0.6506 0.6438 -0.4028
vn 0.7369 0.3300 -0.5900
vn 0.7458 -0.0378 -0.6651
vn 0.6760 -0.4035 -0.6167
vn 0.5380 -0.7114 -0.4521
vn -0.8391 0.0892 -0.5366
vn -0.8391 0.0893 -0.5366
s off
f 1//1 13//1 2//1
f 2//2 13//2 3//2
f 3//3 13//3 4//3
f 4//4 13//4 5//4
f 5//5 13//5 6//5
f 6//6 13//6 7//6
f 7//7 13//7 8//7
f 8//8 13//8 9//8
f 9//9 13//9 10//9
f 10//10 13//10 11//10
f 11//11 13//11 12//11
f 12//12 13//12 14//12
f 14//13 13//13 15//13
f 15//14 13//14 16//14
f 16//15 13//15 17//15
f 17//16 13//16 1//16
f 17//17 4//17 8//17
f 17//17 1//17 2//17
f 2//17 3//17 4//17
f 4//17 5//17 8//17
f 5//17 6//17 8//17
f 6//17 7//17 8//17
f 8//18 9//18 10//18
f 10//17 11//17 8//17
f 11//17 12//17 8//17
f 12//17 14//17 15//17
f 15//17 16//17 17//17
f 17//17 2//17 4//17
f 12//17 15//17 8//17
f 15//17 17//17 8//17
