# Blender v2.83.0 OBJ File: ''
# www.blender.org
o Cone.048_Cone.1524
v -2.666448 -0.018063 0.794025
v -2.513872 -0.326979 0.889991
v -2.269904 -0.543461 1.036731
v -1.971686 -0.634553 1.211905
v -1.664620 -0.586387 1.388845
v -1.395453 -0.406295 1.540614
v -1.205163 -0.121696 1.644105
v -1.122721 0.224084 1.683563
v -1.160677 0.578402 1.652982
v -1.313253 0.887318 1.557016
v -1.557221 1.103800 1.410276
v -1.855438 1.194892 1.235102
v -0.910319 0.238352 -0.506165
v -2.162505 1.146726 1.058162
v -2.431672 0.966635 0.906393
v -2.621962 0.682035 0.802902
v -2.704404 0.336255 0.763444
vn -0.4808 -0.4678 -0.7416
vn -0.2796 -0.7344 -0.6185
vn -0.0046 -0.8904 -0.4552
vn 0.3025 -0.9121 -0.2766
vn 0.5948 -0.7964 -0.1098
vn 0.8278 -0.5606 0.0196
vn 0.9662 -0.2409 0.0921
vn 0.9887 0.1143 0.0967
vn 0.8921 0.4507 0.0325
vn 0.6909 0.7172 -0.0907
vn 0.4159 0.8732 -0.2540
vn 0.1089 0.8950 -0.4326
vn -0.1834 0.7792 -0.5993
vn -0.4165 0.5435 -0.7288
vn -0.5548 0.2237 -0.8013
vn -0.5774 -0.1314 -0.8058
vn -0.5016 0.0209 0.8648
s off
f 1//1 13//1 2//1
f 2//2 13//2 3//2
f 3//3 13//3 4//3
f 4//4 13//4 5//4
f 5//5 13//5 6//5
f 6//6 13//6 7//6
f 7//7 13//7 8//7
f 8//8 13//8 9//8
f 9//9 13//9 10//9
f 10//10 13//10 11//10
f 11//11 13//11 12//11
f 12//12 13//12 14//12
f 14//13 13//13 15//13
f 15//14 13//14 16//14
f 16//15 13//15 17//15
f 17//16 13//16 1//16
f 15//17 17//17 8//17
f 17//17 1//17 2//17
f 2//17 3//17 4//17
f 4//17 5//17 6//17
f 6//17 7//17 8//17
f 8//17 9//17 10//17
f 10//17 11//17 12//17
f 12//17 14//17 15//17
f 15//17 16//17 17//17
f 17//17 2//17 4//17
f 4//17 6//17 17//17
f 6//17 8//17 17//17
f 8//17 10//17 12//17
f 12//17 15//17 8//17
