# Blender v2.83.0 OBJ File: ''
# www.blender.org
o Cone.049_Cone.1525
v 0.784109 0.760984 0.479441
v 0.932270 1.022162 0.559602
v 1.165348 1.199918 0.662894
v 1.447858 1.267189 0.773592
v 1.736792 1.213735 0.874843
v 1.988160 1.047693 0.951233
v 2.163696 0.794341 0.991132
v 2.236675 0.492251 0.988465
v 2.195986 0.187412 0.943639
v 2.047825 -0.073766 0.863478
v 1.814747 -0.251522 0.760186
v 0.801345 0.291326 2.580296
v 1.532236 -0.318793 0.649488
v 1.243303 -0.265339 0.548237
v 0.991934 -0.099297 0.471847
v 0.816399 0.154055 0.431948
v 0.743420 0.456146 0.434615
vn -0.8787 0.4644 0.1110
vn -0.6514 0.7260 0.2204
vn -0.3440 0.8721 0.3480
vn -0.0033 0.8804 0.4743
vn 0.3188 0.7495 0.5802
vn 0.5733 0.4995 0.6495
vn 0.7214 0.1683 0.6717
vn 0.7407 -0.1935 0.6434
vn 0.6281 -0.5309 0.5689
vn 0.4008 -0.7926 0.4595
vn 0.0934 -0.9387 0.3320
vn -0.2472 -0.9469 0.2056
vn -0.5693 -0.8160 0.0997
vn -0.8238 -0.5660 0.0304
vn -0.9720 -0.2349 0.0082
vn -0.9912 0.1269 0.0365
vn 0.3444 0.0914 -0.9344
s off
f 1//1 12//1 2//1
f 2//2 12//2 3//2
f 3//3 12//3 4//3
f 4//4 12//4 5//4
f 5//5 12//5 6//5
f 6//6 12//6 7//6
f 7//7 12//7 8//7
f 8//8 12//8 9//8
f 9//9 12//9 10//9
f 10//10 12//10 11//10
f 11//11 12//11 13//11
f 13//12 12//12 14//12
f 14//13 12//13 15//13
f 15//14 12//14 16//14
f 16//15 12//15 17//15
f 17//16 12//16 1//16
f 17//17 4//17 8//17
f 17//17 1//17 4//17
f 1//17 2//17 4//17
f 2//17 3//17 4//17
f 4//17 5//17 6//17
f 6//17 7//17 4//17
f 7//17 8//17 4//17
f 8//17 9//17 10//17
f 10//17 11//17 13//17
f 13//17 14//17 15//17
f 15//17 16//17 17//17
f 8//17 10//17 17//17
f 10//17 13//17 17//17
f 13//17 15//17 17//17
