# Blender v2.83.0 OBJ File: ''
# www.blender.org
o Cone.176_Cone.1652
v -2.617705 -0.101726 0.023400
v -2.593788 -0.443048 0.033396
v -2.476197 -0.749086 0.131814
v -2.282832 -0.973248 0.303670
v -2.043133 -1.081406 0.522802
v -1.793590 -1.057096 0.755848
v -1.572195 -0.904018 0.967329
v -1.412653 -0.645477 1.125049
v -1.339253 -0.320833 1.204997
v -1.363169 0.020490 1.195001
v -1.480760 0.326527 1.096583
v -0.616615 -0.158722 -0.849552
v -1.674125 0.550689 0.924726
v -1.913825 0.658848 0.705595
v -2.163367 0.634537 0.472549
v -2.384763 0.481459 0.261068
v -2.544304 0.222918 0.103347
vn -0.4006 -0.0549 -0.9146
vn -0.3250 -0.4004 -0.8568
vn -0.1590 -0.6834 -0.7125
vn 0.0721 -0.8608 -0.5038
vn 0.3333 -0.9056 -0.2624
vn 0.5847 -0.8109 -0.0251
vn 0.7880 -0.5912 0.1720
vn 0.9124 -0.2799 0.2988
vn 0.9388 0.0756 0.3362
vn 0.8632 0.4212 0.2783
vn 0.6972 0.7042 0.1340
vn 0.4661 0.8816 -0.0747
vn 0.2049 0.9263 -0.3161
vn -0.0465 0.8317 -0.5533
vn -0.2498 0.6119 -0.7504
vn -0.3741 0.3006 -0.8773
vn -0.6809 -0.0263 0.7319
s off
f 1//1 12//1 2//1
f 2//2 12//2 3//2
f 3//3 12//3 4//3
f 4//4 12//4 5//4
f 5//5 12//5 6//5
f 6//6 12//6 7//6
f 7//7 12//7 8//7
f 8//8 12//8 9//8
f 9//9 12//9 10//9
f 10//10 12//10 11//10
f 11//11 12//11 13//11
f 13//12 12//12 14//12
f 14//13 12//13 15//13
f 15//14 12//14 16//14
f 16//15 12//15 17//15
f 17//16 12//16 1//16
f 17//17 4//17 8//17
f 17//17 1//17 2//17
f 2//17 3//17 4//17
f 4//17 5//17 6//17
f 6//17 7//17 8//17
f 8//17 9//17 10//17
f 10//17 11//17 13//17
f 13//17 14//17 15//17
f 15//17 16//17 17//17
f 17//17 2//17 4//17
f 4//17 6//17 8//17
f 8//17 10//17 17//17
f 10//17 13//17 17//17
f 13//17 15//17 17//17
