# Blender v2.83.0 OBJ File: ''
# www.blender.org
o Cone.224_Cone.1700
v 1.548625 -1.580672 -1.862845
v 2.247350 -1.394506 -1.883232
v 2.871633 -1.114903 -1.647896
v 3.326433 -0.784432 -1.192665
v 3.542510 -0.453402 -0.586843
v 3.486969 -0.172210 0.077338
v 3.168266 0.016334 0.698763
v 2.634919 0.083528 1.182826
v 1.968127 0.019140 1.455832
v 1.269403 -0.167026 1.476219
v 0.645119 -0.446628 1.240883
v 1.263886 0.988607 -0.993949
v 0.190319 -0.777101 0.785652
v -0.025758 -1.108131 0.179830
v 0.029783 -1.389322 -0.484352
v 0.348486 -1.577867 -1.105777
v 0.881833 -1.645060 -1.589840
vn -0.1095 0.3075 -0.9452
vn 0.1597 0.4023 -0.9015
vn 0.3792 0.5264 -0.7610
vn 0.5157 0.6610 -0.5451
vn 0.5484 0.7856 -0.2867
vn 0.4722 0.8811 -0.0252
vn 0.2989 0.9332 0.1998
vn 0.0547 0.9337 0.3538
vn -0.2231 0.8827 0.4135
vn -0.4923 0.7880 0.3697
vn -0.7118 0.6639 0.2292
vn -0.8483 0.5293 0.0134
vn -0.8810 0.4047 -0.2450
vn -0.8049 0.3091 -0.5066
vn -0.6315 0.2571 -0.7315
vn -0.3873 0.2565 -0.8855
vn 0.2472 -0.8847 0.3952
s off
f 1//1 12//1 2//1
f 2//2 12//2 3//2
f 3//3 12//3 4//3
f 4//4 12//4 5//4
f 5//5 12//5 6//5
f 6//6 12//6 7//6
f 7//7 12//7 8//7
f 8//8 12//8 9//8
f 9//9 12//9 10//9
f 10//10 12//10 11//10
f 11//11 12//11 13//11
f 13//12 12//12 14//12
f 14//13 12//13 15//13
f 15//14 12//14 16//14
f 16//15 12//15 17//15
f 17//16 12//16 1//16
f 8//17 13//17 17//17
f 17//17 1//17 4//17
f 1//17 2//17 4//17
f 2//17 3//17 4//17
f 4//17 5//17 6//17
f 6//17 7//17 8//17
f 8//17 9//17 10//17
f 10//17 11//17 13//17
f 13//17 14//17 15//17
f 15//17 16//17 13//17
f 16//17 17//17 13//17
f 4//17 6//17 8//17
f 8//17 10//17 13//17
f 17//17 4//17 8//17
