# Blender v2.83.0 OBJ File: ''
# www.blender.org
o Cone.085_Cone.1561
v -0.157711 -0.721360 -3.184512
v 0.133327 -1.272285 -3.301011
v 0.221882 -1.899934 -3.297998
v 0.094471 -2.508753 -3.175930
v -0.229508 -3.006054 -2.953392
v -0.700733 -3.316128 -2.664263
v -1.247463 -3.391769 -2.352560
v -1.786464 -3.221462 -2.065737
v -2.235678 -2.831133 -1.847461
v -2.526716 -2.280208 -1.730961
v -2.615271 -1.652559 -1.733974
v -2.487860 -1.043740 -1.856042
v -0.223997 -1.630649 -0.774533
v -2.163881 -0.546439 -2.078580
v -1.692656 -0.236365 -2.367709
v -1.145926 -0.160724 -2.679413
v -0.606924 -0.331032 -2.966236
vn 0.8845 0.4280 0.1858
vn 0.9777 0.1387 0.1579
vn 0.9681 -0.1648 0.1886
vn 0.8573 -0.4363 0.2732
vn 0.6622 -0.6344 0.3988
vn 0.4123 -0.7291 0.5463
vn 0.1458 -0.7059 0.6932
vn -0.0967 -0.5683 0.8171
vn -0.2784 -0.3372 0.8993
vn -0.3716 -0.0480 0.9272
vn -0.3620 0.2555 0.8965
vn -0.2512 0.5270 0.8119
vn -0.0561 0.7251 0.6863
vn 0.1938 0.8198 0.5388
vn 0.4603 0.7966 0.3919
vn 0.7028 0.6590 0.2680
vn -0.4863 -0.0728 -0.8707
s off
f 1//1 13//1 2//1
f 2//2 13//2 3//2
f 3//3 13//3 4//3
f 4//4 13//4 5//4
f 5//5 13//5 6//5
f 6//6 13//6 7//6
f 7//7 13//7 8//7
f 8//8 13//8 9//8
f 9//9 13//9 10//9
f 10//10 13//10 11//10
f 11//11 13//11 12//11
f 12//12 13//12 14//12
f 14//13 13//13 15//13
f 15//14 13//14 16//14
f 16//15 13//15 17//15
f 17//16 13//16 1//16
f 15//17 17//17 8//17
f 17//17 1//17 2//17
f 2//17 3//17 4//17
f 4//17 5//17 6//17
f 6//17 7//17 8//17
f 8//17 9//17 10//17
f 10//17 11//17 12//17
f 12//17 14//17 15//17
f 15//17 16//17 17//17
f 17//17 2//17 8//17
f 2//17 4//17 8//17
f 4//17 6//17 8//17
f 8//17 10//17 12//17
f 12//17 15//17 8//17
