# Blender v2.83.0 OBJ File: ''
# www.blender.org
o Cone.112_Cone.1588
v 3.057731 0.860710 -0.913937
v 3.178755 1.394881 -1.056123
v 3.094176 1.950638 -1.120790
v 2.816869 2.443372 -1.098095
v 2.389053 2.798070 -0.991492
v 1.875859 2.960732 -0.817211
v 1.355415 2.906594 -0.601784
v 0.906955 2.643898 -0.378008
v 1.102298 1.212649 -2.382159
v 0.598752 2.212637 -0.179951
v 0.477728 1.678467 -0.037766
v 0.562307 1.122710 0.026902
v 0.839614 0.629975 0.004207
v 1.267430 0.275277 -0.102396
v 1.780625 0.112615 -0.276677
v 2.301069 0.166753 -0.492104
v 2.749529 0.429450 -0.715880
vn 0.5287 -0.3282 -0.7828
vn 0.5391 -0.0159 -0.8421
vn 0.4355 0.2844 -0.8541
vn 0.2335 0.5272 -0.8170
vn -0.0361 0.6754 -0.7366
vn -0.3322 0.7065 -0.6249
vn -0.6097 0.6157 -0.4991
vn -0.8265 0.4169 -0.3783
vn -0.9494 0.1404 -0.2808
vn -0.9599 -0.1719 -0.2216
vn -0.8562 -0.4722 -0.2095
vn -0.6542 -0.7150 -0.2466
vn -0.3847 -0.8632 -0.3271
vn -0.0886 -0.8943 -0.4387
vn 0.1890 -0.8035 -0.5645
vn 0.4057 -0.6047 -0.6853
vn 0.3630 0.1620 0.9176
s off
f 1//1 9//1 2//1
f 2//2 9//2 3//2
f 3//3 9//3 4//3
f 4//4 9//4 5//4
f 5//5 9//5 6//5
f 6//6 9//6 7//6
f 7//7 9//7 8//7
f 8//8 9//8 10//8
f 10//9 9//9 11//9
f 11//10 9//10 12//10
f 12//11 9//11 13//11
f 13//12 9//12 14//12
f 14//13 9//13 15//13
f 15//14 9//14 16//14
f 16//15 9//15 17//15
f 17//16 9//16 1//16
f 4//17 8//17 13//17
f 17//17 1//17 4//17
f 1//17 2//17 4//17
f 2//17 3//17 4//17
f 4//17 5//17 6//17
f 6//17 7//17 4//17
f 7//17 8//17 4//17
f 8//17 10//17 11//17
f 11//17 12//17 8//17
f 12//17 13//17 8//17
f 13//17 14//17 15//17
f 15//17 16//17 13//17
f 16//17 17//17 13//17
f 17//17 4//17 13//17
