# Blender v2.83.0 OBJ File: ''
# www.blender.org
o Cone.047_Cone.1523
v -2.334378 -1.142258 -1.943815
v -2.509903 -1.402852 -1.844373
v -2.594851 -1.657965 -1.653827
v -2.576289 -1.868759 -1.401185
v -2.457043 -2.003142 -1.124909
v -2.255267 -2.040656 -0.867061
v -2.001680 -1.975590 -0.666894
v -1.734888 -1.817849 -0.554883
v -1.495507 -1.591447 -0.548081
v -1.319982 -1.330854 -0.647522
v -1.235034 -1.075741 -0.838068
v -0.746263 -2.569795 -2.335497
v -1.253596 -0.864947 -1.090711
v -1.372842 -0.730563 -1.366987
v -1.574618 -0.693049 -1.624835
v -1.828206 -0.758116 -1.825002
v -2.094998 -0.915857 -1.937013
vn -0.3421 -0.1250 -0.9313
vn -0.4873 -0.4126 -0.7696
vn -0.5243 -0.6724 -0.5225
vn -0.4475 -0.8649 -0.2275
vn -0.2685 -0.9607 0.0703
vn -0.0145 -0.9454 0.3257
vn 0.2756 -0.8211 0.4998
vn 0.5579 -0.6069 0.5661
vn 0.7893 -0.3353 0.5144
vn 0.9345 -0.0478 0.3527
vn 0.9715 0.2121 0.1055
vn 0.8947 0.4045 -0.1894
vn 0.7157 0.5004 -0.4872
vn 0.4618 0.4850 -0.7427
vn 0.1716 0.3608 -0.9167
vn -0.1107 0.1466 -0.9830
vn -0.5843 0.6015 0.5448
s off
f 1//1 12//1 2//1
f 2//2 12//2 3//2
f 3//3 12//3 4//3
f 4//4 12//4 5//4
f 5//5 12//5 6//5
f 6//6 12//6 7//6
f 7//7 12//7 8//7
f 8//8 12//8 9//8
f 9//9 12//9 10//9
f 10//10 12//10 11//10
f 11//11 12//11 13//11
f 13//12 12//12 14//12
f 14//13 12//13 15//13
f 15//14 12//14 16//14
f 16//15 12//15 17//15
f 17//16 12//16 1//16
f 17//17 4//17 8//17
f 17//17 1//17 4//17
f 1//17 2//17 4//17
f 2//17 3//17 4//17
f 4//17 5//17 8//17
f 5//17 6//17 8//17
f 6//17 7//17 8//17
f 8//17 9//17 10//17
f 10//17 11//17 13//17
f 13//17 14//17 15//17
f 15//17 16//17 13//17
f 16//17 17//17 13//17
f 8//17 10//17 17//17
f 10//17 13//17 17//17
