# Blender v2.83.0 OBJ File: ''
# www.blender.org
o Cone.205_Cone.1681
v -0.973225 -2.364334 -1.868033
v -0.622432 -2.624214 -1.786035
v -0.269273 -2.779503 -1.565853
v 0.032489 -2.806561 -1.241008
v 0.236912 -2.701266 -0.860954
v 0.312874 -2.479651 -0.483550
v 0.248811 -2.175454 -0.166255
v 0.054477 -1.834986 0.042629
v -0.240544 -1.510081 0.111299
v -0.591336 -1.250201 0.029301
v -0.944496 -1.094912 -0.190881
v 0.571438 -0.658435 -1.866444
v -1.246258 -1.067854 -0.515726
v -1.450680 -1.173148 -0.895781
v -1.526643 -1.394763 -1.273184
v -1.462580 -1.698961 -1.590480
v -1.268245 -2.039429 -1.799363
vn 0.1379 -0.1239 -0.9827
vn 0.4131 -0.2863 -0.8645
vn 0.6692 -0.3576 -0.6514
vn 0.8671 -0.3270 -0.3758
vn 0.9767 -0.1991 -0.0796
vn 0.9814 0.0064 0.1920
vn 0.8803 0.2585 0.3977
vn 0.6890 0.5186 0.5062
vn 0.4365 0.7473 0.5010
vn 0.1613 0.9096 0.3829
vn -0.0948 0.9809 0.1698
vn -0.2927 0.9503 -0.1058
vn -0.4023 0.8225 -0.4020
vn -0.4070 0.6169 -0.6736
vn -0.3060 0.3649 -0.8794
vn -0.1146 0.1047 -0.9879
vn -0.5892 -0.6394 0.4940
s off
f 1//1 12//1 2//1
f 2//2 12//2 3//2
f 3//3 12//3 4//3
f 4//4 12//4 5//4
f 5//5 12//5 6//5
f 6//6 12//6 7//6
f 7//7 12//7 8//7
f 8//8 12//8 9//8
f 9//9 12//9 10//9
f 10//10 12//10 11//10
f 11//11 12//11 13//11
f 13//12 12//12 14//12
f 14//13 12//13 15//13
f 15//14 12//14 16//14
f 16//15 12//15 17//15
f 17//16 12//16 1//16
f 17//17 4//17 8//17
f 17//17 1//17 2//17
f 2//17 3//17 4//17
f 4//17 5//17 6//17
f 6//17 7//17 4//17
f 7//17 8//17 4//17
f 8//17 9//17 10//17
f 10//17 11//17 13//17
f 13//17 14//17 15//17
f 15//17 16//17 17//17
f 17//17 2//17 4//17
f 8//17 10//17 13//17
f 13//17 15//17 8//17
f 15//17 17//17 8//17
