# Blender v2.83.0 OBJ File: ''
# www.blender.org
o Cone.078_Cone.1554
v 0.937244 0.427869 0.111779
v 0.783930 1.041839 0.078845
v 0.439826 1.552044 -0.072260
v -0.042681 1.880809 -0.318532
v -0.590134 1.978084 -0.622477
v -1.119187 1.829059 -0.937823
v -1.549297 1.456421 -1.216562
v -1.814985 0.916902 -1.416258
v 0.519499 0.514274 -2.429011
v -1.875800 0.292638 -1.506509
v -1.722486 -0.321332 -1.473575
v -1.378382 -0.831537 -1.322470
v -0.895875 -1.160302 -1.076199
v -0.348423 -1.257577 -0.772253
v 0.180631 -1.108552 -0.456907
v 0.610741 -0.735914 -0.178168
v 0.876428 -0.196394 0.021528
vn 0.9611 0.2319 -0.1501
vn 0.8389 0.5080 -0.1953
vn 0.6360 0.7140 -0.2929
vn 0.3831 0.8186 -0.4280
vn 0.1187 0.8059 -0.5801
vn -0.1168 0.6778 -0.7259
vn -0.2876 0.4538 -0.8434
vn -0.3678 0.1681 -0.9146
vn -0.3451 -0.1360 -0.9287
vn -0.2229 -0.4120 -0.8835
vn -0.0200 -0.6180 -0.7859
vn 0.2329 -0.7226 -0.6508
vn 0.4973 -0.7099 -0.4987
vn 0.7328 -0.5818 -0.3529
vn 0.9036 -0.3579 -0.2354
vn 0.9838 -0.0721 -0.1642
vn -0.4944 -0.0770 0.8658
s off
f 1//1 9//1 2//1
f 2//2 9//2 3//2
f 3//3 9//3 4//3
f 4//4 9//4 5//4
f 5//5 9//5 6//5
f 6//6 9//6 7//6
f 7//7 9//7 8//7
f 8//8 9//8 10//8
f 10//9 9//9 11//9
f 11//10 9//10 12//10
f 12//11 9//11 13//11
f 13//12 9//12 14//12
f 14//13 9//13 15//13
f 15//14 9//14 16//14
f 16//15 9//15 17//15
f 17//16 9//16 1//16
f 17//17 4//17 8//17
f 17//17 1//17 2//17
f 2//17 3//17 17//17
f 3//17 4//17 17//17
f 4//17 5//17 8//17
f 5//17 6//17 8//17
f 6//17 7//17 8//17
f 8//17 10//17 11//17
f 11//17 12//17 13//17
f 13//17 14//17 17//17
f 14//17 15//17 17//17
f 15//17 16//17 17//17
f 8//17 11//17 17//17
f 11//17 13//17 17//17
