# Blender v2.83.0 OBJ File: ''
# www.blender.org
o Cone.033_Cone.1509
v -0.759103 1.035082 0.002619
v -0.880625 0.855847 0.259619
v -1.038811 0.602994 0.414489
v -1.209578 0.315018 0.443651
v -1.366928 0.035760 0.342665
v -1.486907 -0.192264 0.126906
v -1.551248 -0.334341 -0.170779
v -1.550157 -0.368840 -0.505070
v -2.843999 1.382611 -0.521117
v -1.483799 -0.290509 -0.825075
v -1.362278 -0.111274 -1.082075
v -1.204092 0.141579 -1.236945
v -1.033325 0.429556 -1.266107
v -0.875975 0.708813 -1.165121
v -0.755996 0.936838 -0.949362
v -0.691654 1.078914 -0.651676
v -0.692746 1.113413 -0.317385
vn -0.0062 0.8216 0.5700
vn -0.1588 0.5860 0.7946
vn -0.3381 0.2911 0.8949
vn -0.5170 -0.0182 0.8558
vn -0.6682 -0.2947 0.6831
vn -0.7687 -0.4965 0.4031
vn -0.8032 -0.5928 0.0586
vn -0.7664 -0.5689 -0.2982
vn -0.6640 -0.4285 -0.6128
vn -0.5115 -0.1929 -0.8374
vn -0.3321 0.1020 -0.9377
vn -0.1532 0.4113 -0.8985
vn -0.0020 0.6879 -0.7258
vn 0.0985 0.8897 -0.4459
vn 0.1330 0.9859 -0.1013
vn 0.0962 0.9620 0.2554
vn 0.8613 -0.5052 0.0549
s off
f 1//1 9//1 2//1
f 2//2 9//2 3//2
f 3//3 9//3 4//3
f 4//4 9//4 5//4
f 5//5 9//5 6//5
f 6//6 9//6 7//6
f 7//7 9//7 8//7
f 8//8 9//8 10//8
f 10//9 9//9 11//9
f 11//10 9//10 12//10
f 12//11 9//11 13//11
f 13//12 9//12 14//12
f 14//13 9//13 15//13
f 15//14 9//14 16//14
f 16//15 9//15 17//15
f 17//16 9//16 1//16
f 8//17 13//17 17//17
f 17//17 1//17 2//17
f 2//17 3//17 4//17
f 4//17 5//17 6//17
f 6//17 7//17 4//17
f 7//17 8//17 4//17
f 8//17 10//17 11//17
f 11//17 12//17 13//17
f 13//17 14//17 15//17
f 15//17 16//17 17//17
f 17//17 2//17 4//17
f 8//17 11//17 13//17
f 13//17 15//17 17//17
f 17//17 4//17 8//17
