# Blender v2.83.0 OBJ File: ''
# www.blender.org
o Cone.073_Cone.1549
v 1.362019 0.117384 1.589573
v 0.795995 0.305963 1.570952
v 0.209169 0.279659 1.464957
v -0.309120 0.042476 1.287722
v -0.679968 -0.369477 1.066230
v -0.846916 -0.893484 0.834202
v -0.784548 -1.449769 0.626962
v -0.502358 -1.953644 0.476060
v -0.043309 -2.328397 0.404469
v 0.522715 -2.516976 0.423089
v 1.109540 -2.490673 0.529085
v 0.959742 -0.385733 -0.844634
v 1.627830 -2.253489 0.706320
v 1.998678 -1.841536 0.927812
v 2.165626 -1.317529 1.159840
v 2.103257 -0.761243 1.367080
v 1.821068 -0.257369 1.517982
vn 0.3139 0.9182 -0.2416
vn 0.0066 0.9615 -0.2749
vn -0.2880 0.8912 -0.3504
vn -0.5250 0.7182 -0.4567
vn -0.6684 0.4687 -0.5775
vn -0.6963 0.1807 -0.6946
vn -0.6044 -0.1019 -0.7901
vn -0.4068 -0.3361 -0.8494
vn -0.1336 -0.4863 -0.8635
vn 0.1737 -0.5295 -0.8303
vn 0.4683 -0.4593 -0.7548
vn 0.7053 -0.2862 -0.6485
vn 0.8487 -0.0367 -0.5276
vn 0.8765 0.2512 -0.4105
vn 0.7847 0.5338 -0.3151
vn 0.5871 0.7680 -0.2558
vn -0.1502 -0.3599 0.9208
s off
f 1//1 12//1 2//1
f 2//2 12//2 3//2
f 3//3 12//3 4//3
f 4//4 12//4 5//4
f 5//5 12//5 6//5
f 6//6 12//6 7//6
f 7//7 12//7 8//7
f 8//8 12//8 9//8
f 9//9 12//9 10//9
f 10//10 12//10 11//10
f 11//11 12//11 13//11
f 13//12 12//12 14//12
f 14//13 12//13 15//13
f 15//14 12//14 16//14
f 16//15 12//15 17//15
f 17//16 12//16 1//16
f 8//17 13//17 17//17
f 17//17 1//17 2//17
f 2//17 3//17 4//17
f 4//17 5//17 6//17
f 6//17 7//17 8//17
f 8//17 9//17 10//17
f 10//17 11//17 13//17
f 13//17 14//17 15//17
f 15//17 16//17 17//17
f 17//17 2//17 4//17
f 4//17 6//17 8//17
f 8//17 10//17 13//17
f 13//17 15//17 17//17
f 17//17 4//17 8//17
