# Blender v2.83.0 OBJ File: ''
# www.blender.org
o Cone.019_Cone.1495
v -2.582182 0.193312 0.058205
v -3.020055 -0.062510 0.399655
v -3.273446 -0.321077 0.892302
v -3.303777 -0.543025 1.461147
v -3.106432 -0.694564 2.019588
v -2.711453 -0.752623 2.482607
v -2.178975 -0.708364 2.779714
v -1.590060 -0.568524 2.865677
v -1.034366 -0.354394 2.727409
v -0.596493 -0.098572 2.385961
v -0.343102 0.159995 1.893313
v -0.312771 0.381943 1.324468
v -1.280530 -1.887068 0.716090
v -0.510116 0.533482 0.766027
v -0.905095 0.591541 0.303007
v -1.437574 0.547282 0.005900
v -2.026489 0.407442 -0.080063
vn -0.3515 -0.4750 -0.8067
vn -0.5299 -0.6078 -0.5915
vn -0.6031 -0.7317 -0.3177
vn -0.5600 -0.8281 -0.0268
vn -0.4072 -0.8822 0.2367
vn -0.1679 -0.8857 0.4328
vn 0.1214 -0.8382 0.5316
vn 0.4167 -0.7469 0.5181
vn 0.6731 -0.6257 0.3944
vn 0.8514 -0.4929 0.1792
vn 0.9246 -0.3690 -0.0947
vn 0.8815 -0.2726 -0.3855
vn 0.7287 -0.2185 -0.6490
vn 0.4894 -0.2150 -0.8451
vn 0.2001 -0.2625 -0.9440
vn -0.0952 -0.3538 -0.9305
vn -0.2639 0.9033 0.3384
s off
f 1//1 13//1 2//1
f 2//2 13//2 3//2
f 3//3 13//3 4//3
f 4//4 13//4 5//4
f 5//5 13//5 6//5
f 6//6 13//6 7//6
f 7//7 13//7 8//7
f 8//8 13//8 9//8
f 9//9 13//9 10//9
f 10//10 13//10 11//10
f 11//11 13//11 12//11
f 12//12 13//12 14//12
f 14//13 13//13 15//13
f 15//14 13//14 16//14
f 16//15 13//15 17//15
f 17//16 13//16 1//16
f 8//17 12//17 17//17
f 17//17 1//17 2//17
f 2//17 3//17 4//17
f 4//17 5//17 8//17
f 5//17 6//17 8//17
f 6//17 7//17 8//17
f 8//17 9//17 10//17
f 10//17 11//17 8//17
f 11//17 12//17 8//17
f 12//17 14//17 15//17
f 15//17 16//17 12//17
f 16//17 17//17 12//17
f 17//17 2//17 4//17
f 17//17 4//17 8//17
