# Blender v2.83.0 OBJ File: ''
# www.blender.org
o Cone.143_Cone.1619
v 1.386061 0.551395 2.818293
v 0.986543 0.897139 2.588294
v 0.506777 1.040262 2.303000
v 0.019802 0.958977 2.005846
v -0.400243 0.665658 1.742069
v -0.689411 0.204959 1.551827
v -0.803679 -0.352980 1.464084
v -0.725650 -0.923220 1.492197
v -0.467203 -1.418947 1.631886
v -0.067685 -1.764690 1.861886
v 0.412081 -1.907814 2.147179
v 1.493812 -0.376578 0.514306
v 0.899056 -1.826528 2.444334
v 1.319101 -1.533209 2.708111
v 1.608269 -1.072511 2.898353
v 1.722537 -0.514571 2.986096
v 1.644507 0.055670 2.957983
vn 0.7098 0.6643 -0.2344
vn 0.4640 0.8010 -0.3784
vn 0.1937 0.8182 -0.5413
vn -0.0599 0.7135 -0.6981
vn -0.2582 0.5027 -0.8250
vn -0.3709 0.2179 -0.9027
vn -0.3811 -0.0975 -0.9194
vn -0.2870 -0.3955 -0.8725
vn -0.1031 -0.6307 -0.7691
vn 0.1428 -0.7674 -0.6251
vn 0.4130 -0.7847 -0.4622
vn 0.6666 -0.6800 -0.3054
vn 0.8649 -0.4692 -0.1785
vn 0.9777 -0.1844 -0.1008
vn 0.9878 0.1310 -0.0841
vn 0.8937 0.4290 -0.1310
vn -0.5172 -0.0286 0.8554
s off
f 1//1 12//1 2//1
f 2//2 12//2 3//2
f 3//3 12//3 4//3
f 4//4 12//4 5//4
f 5//5 12//5 6//5
f 6//6 12//6 7//6
f 7//7 12//7 8//7
f 8//8 12//8 9//8
f 9//9 12//9 10//9
f 10//10 12//10 11//10
f 11//11 12//11 13//11
f 13//12 12//12 14//12
f 14//13 12//13 15//13
f 15//14 12//14 16//14
f 16//15 12//15 17//15
f 17//16 12//16 1//16
f 17//17 4//17 8//17
f 17//17 1//17 2//17
f 2//17 3//17 4//17
f 4//17 5//17 6//17
f 6//17 7//17 8//17
f 8//17 9//17 10//17
f 10//17 11//17 8//17
f 11//17 13//17 8//17
f 13//17 14//17 15//17
f 15//17 16//17 17//17
f 17//17 2//17 4//17
f 4//17 6//17 8//17
f 13//17 15//17 8//17
f 15//17 17//17 8//17
