# Blender v2.83.0 OBJ File: ''
# www.blender.org
o Cone.088_Cone.1564
v -1.196919 -1.016948 0.030915
v -0.965292 -0.358827 0.273938
v -0.950907 0.376515 0.343928
v -1.155954 1.077130 0.230229
v -1.549218 1.636356 -0.049850
v -2.070827 1.969056 -0.453668
v -2.641370 2.024578 -0.919749
v -3.173989 1.794471 -1.377135
v -3.587595 1.313766 -1.756194
v -3.819223 0.655646 -1.999217
v -3.833608 -0.079696 -2.069207
v -1.122220 0.270159 -2.402828
v -3.628561 -0.780312 -1.955508
v -3.235297 -1.339538 -1.675429
v -2.713688 -1.672238 -1.271611
v -2.143144 -1.727760 -0.805530
v -1.610525 -1.497652 -0.348144
vn 0.9495 -0.2886 -0.1235
vn 0.9980 -0.0136 -0.0617
vn 0.9604 0.2697 -0.0703
vn 0.8423 0.5182 -0.1480
vn 0.6618 0.6942 -0.2830
vn 0.4464 0.7708 -0.4546
vn 0.2287 0.7363 -0.6368
vn 0.0420 0.5961 -0.8018
vn -0.0853 0.3714 -0.9245
vn -0.1338 0.0965 -0.9863
vn -0.0962 -0.1868 -0.9777
vn 0.0219 -0.4354 -0.9000
vn 0.2024 -0.6113 -0.7651
vn 0.4178 -0.6879 -0.5934
vn 0.6355 -0.6535 -0.4112
vn 0.8222 -0.5133 -0.2462
vn -0.6350 -0.0609 0.7701
s off
f 1//1 12//1 2//1
f 2//2 12//2 3//2
f 3//3 12//3 4//3
f 4//4 12//4 5//4
f 5//5 12//5 6//5
f 6//6 12//6 7//6
f 7//7 12//7 8//7
f 8//8 12//8 9//8
f 9//9 12//9 10//9
f 10//10 12//10 11//10
f 11//11 12//11 13//11
f 13//12 12//12 14//12
f 14//13 12//13 15//13
f 15//14 12//14 16//14
f 16//15 12//15 17//15
f 17//16 12//16 1//16
f 8//17 13//17 17//17
f 17//17 1//17 2//17
f 2//17 3//17 17//17
f 3//17 4//17 17//17
f 4//17 5//17 6//17
f 6//17 7//17 8//17
f 8//17 9//17 10//17
f 10//17 11//17 8//17
f 11//17 13//17 8//17
f 13//17 14//17 17//17
f 14//17 15//17 17//17
f 15//17 16//17 17//17
f 4//17 6//17 8//17
f 17//17 4//17 8//17
