# Blender v2.83.0 OBJ File: ''
# www.blender.org
o Cone.259_Cone.1735
v -3.014915 -0.566583 -1.339993
v -2.749784 -0.239678 -1.037116
v -2.360173 0.070637 -0.892880
v -1.905396 0.317116 -0.929241
v -1.454691 0.462238 -1.140665
v -1.076671 0.483908 -1.494964
v -0.828888 0.378826 -1.938200
v -0.749065 0.162992 -2.402893
v -0.849352 -0.130737 -2.818298
v -1.114483 -0.457643 -3.121174
v -1.504095 -0.767957 -3.265411
v -1.021852 -1.898916 -1.202736
v -1.958871 -1.014437 -3.229049
v -2.409577 -1.159559 -3.017625
v -2.787596 -1.181228 -2.663326
v -3.035379 -1.076147 -2.220091
v -3.115203 -0.860312 -1.755397
vn -0.3622 -0.4582 0.8117
vn -0.1518 -0.2535 0.9554
vn 0.1195 -0.0745 0.9900
vn 0.4105 0.0513 0.9104
vn 0.6769 0.1049 0.7286
vn 0.8780 0.0781 0.4723
vn 0.9833 -0.0250 0.1805
vn 0.9767 -0.1888 -0.1023
vn 0.8592 -0.3882 -0.3331
vn 0.6488 -0.5930 -0.4768
vn 0.3775 -0.7719 -0.5115
vn 0.0865 -0.8978 -0.4319
vn -0.1798 -0.9514 -0.2501
vn -0.3809 -0.9246 0.0062
vn -0.4862 -0.8214 0.2980
vn -0.4797 -0.6577 0.5808
vn -0.4551 0.7751 -0.4382
s off
f 1//1 12//1 2//1
f 2//2 12//2 3//2
f 3//3 12//3 4//3
f 4//4 12//4 5//4
f 5//5 12//5 6//5
f 6//6 12//6 7//6
f 7//7 12//7 8//7
f 8//8 12//8 9//8
f 9//9 12//9 10//9
f 10//10 12//10 11//10
f 11//11 12//11 13//11
f 13//12 12//12 14//12
f 14//13 12//13 15//13
f 15//14 12//14 16//14
f 16//15 12//15 17//15
f 17//16 12//16 1//16
f 17//17 4//17 8//17
f 17//17 1//17 2//17
f 2//17 3//17 17//17
f 3//17 4//17 17//17
f 4//17 5//17 6//17
f 6//17 7//17 4//17
f 7//17 8//17 4//17
f 8//17 9//17 10//17
f 10//17 11//17 13//17
f 13//17 14//17 17//17
f 14//17 15//17 17//17
f 15//17 16//17 17//17
f 8//17 10//17 17//17
f 10//17 13//17 17//17
