# Blender v2.83.0 OBJ File: ''
# www.blender.org
o Cone.217_Cone.1693
v -0.618894 -1.119709 -0.615098
v -0.621365 -0.892479 -0.515150
v -0.717644 -0.688936 -0.410603
v -0.893076 -0.540069 -0.317374
v -1.120952 -0.468541 -0.249655
v -1.366580 -0.485242 -0.217758
v -1.592565 -0.587628 -0.226537
v -1.764503 -0.760113 -0.274656
v -1.856219 -0.976437 -0.354789
v -1.853749 -1.203667 -0.454738
v -1.757469 -1.407210 -0.559285
v -1.582037 -1.556077 -0.652514
v -1.526941 -0.253928 -2.297564
v -1.354162 -1.627605 -0.720233
v -1.108534 -1.610904 -0.752130
v -0.882548 -1.508518 -0.743351
v -0.710610 -1.336033 -0.695232
vn 0.9014 0.1825 -0.3926
vn 0.8259 0.5120 -0.2362
vn 0.6181 0.7815 -0.0849
vn 0.3096 0.9501 0.0382
vn -0.0526 0.9920 0.1144
vn -0.4133 0.9010 0.1321
vn -0.7177 0.6907 0.0886
vn -0.9194 0.3933 -0.0095
vn -0.9876 0.0540 -0.1473
vn -0.9121 -0.2754 -0.3037
vn -0.7043 -0.5450 -0.4550
vn -0.3958 -0.7136 -0.5781
vn -0.0336 -0.7555 -0.6543
vn 0.3271 -0.6644 -0.6720
vn 0.6315 -0.4542 -0.6284
vn 0.8332 -0.1568 -0.5303
vn 0.1447 -0.3971 0.9063
s off
f 1//1 13//1 2//1
f 2//2 13//2 3//2
f 3//3 13//3 4//3
f 4//4 13//4 5//4
f 5//5 13//5 6//5
f 6//6 13//6 7//6
f 7//7 13//7 8//7
f 8//8 13//8 9//8
f 9//9 13//9 10//9
f 10//10 13//10 11//10
f 11//11 13//11 12//11
f 12//12 13//12 14//12
f 14//13 13//13 15//13
f 15//14 13//14 16//14
f 16//15 13//15 17//15
f 17//16 13//16 1//16
f 8//17 12//17 17//17
f 17//17 1//17 2//17
f 2//17 3//17 4//17
f 4//17 5//17 8//17
f 5//17 6//17 8//17
f 6//17 7//17 8//17
f 8//17 9//17 10//17
f 10//17 11//17 12//17
f 12//17 14//17 15//17
f 15//17 16//17 17//17
f 17//17 2//17 4//17
f 8//17 10//17 12//17
f 12//17 15//17 17//17
f 17//17 4//17 8//17
