# Blender v2.83.0 OBJ File: ''
# www.blender.org
o Cone.231_Cone.1707
v 2.796792 0.488161 -0.945372
v 2.694060 0.762703 -1.405897
v 2.564352 1.189775 -1.720214
v 2.427414 1.704357 -1.840473
v 2.304093 2.228111 -1.748365
v 2.213164 2.681299 -1.457912
v 2.168471 2.994927 -1.013334
v 2.176817 3.121248 -0.482313
v 2.236931 3.041032 0.054307
v 2.339663 2.766489 0.514831
v 2.469371 2.339418 0.829149
v 0.581050 1.283314 -0.300619
v 2.606310 1.824835 0.949408
v 2.729630 1.301081 0.857300
v 2.820559 0.847893 0.566847
v 2.865252 0.534265 0.122268
v 2.856906 0.407944 -0.408753
vn -0.4102 -0.8207 -0.3977
vn -0.4801 -0.6099 -0.6305
vn -0.5602 -0.3269 -0.7611
vn -0.6384 -0.0150 -0.7696
vn -0.7028 0.2785 -0.6546
vn -0.7435 0.5089 -0.4338
vn -0.7544 0.6411 -0.1407
vn -0.7339 0.6550 0.1801
vn -0.6849 0.5484 0.4797
vn -0.6151 0.3376 0.7125
vn -0.5350 0.0547 0.8431
vn -0.4568 -0.2573 0.8515
vn -0.3924 -0.5508 0.7366
vn -0.3517 -0.7812 0.5158
vn -0.3407 -0.9134 0.2226
vn -0.3613 -0.9273 -0.0981
vn 0.9679 0.2406 -0.0725
s off
f 1//1 12//1 2//1
f 2//2 12//2 3//2
f 3//3 12//3 4//3
f 4//4 12//4 5//4
f 5//5 12//5 6//5
f 6//6 12//6 7//6
f 7//7 12//7 8//7
f 8//8 12//8 9//8
f 9//9 12//9 10//9
f 10//10 12//10 11//10
f 11//11 12//11 13//11
f 13//12 12//12 14//12
f 14//13 12//13 15//13
f 15//14 12//14 16//14
f 16//15 12//15 17//15
f 17//16 12//16 1//16
f 17//17 4//17 8//17
f 17//17 1//17 4//17
f 1//17 2//17 4//17
f 2//17 3//17 4//17
f 4//17 5//17 6//17
f 6//17 7//17 8//17
f 8//17 9//17 10//17
f 10//17 11//17 13//17
f 13//17 14//17 15//17
f 15//17 16//17 17//17
f 4//17 6//17 8//17
f 8//17 10//17 13//17
f 13//17 15//17 8//17
f 15//17 17//17 8//17
