# Blender v2.83.0 OBJ File: ''
# www.blender.org
o Cone.110_Cone.1586
v 3.253342 -0.362847 0.672348
v 3.443903 -0.504164 1.344581
v 3.361442 -0.601061 2.046002
v 3.018514 -0.638786 2.669827
v 2.467326 -0.611596 3.121084
v 1.791791 -0.523630 3.331074
v 1.094754 -0.388281 3.267827
v 0.482332 -0.226153 2.940971
v 0.047760 -0.061930 2.400269
v -0.142801 0.079387 1.728036
v -0.060341 0.176284 1.026615
v 2.000067 1.732322 1.846048
v 0.282588 0.214009 0.402789
v 0.833776 0.186819 -0.048468
v 1.509311 0.098853 -0.258458
v 2.206349 -0.036497 -0.195210
v 2.818771 -0.198624 0.131646
vn 0.8224 0.5569 -0.1160
vn 0.8449 0.5074 0.1694
vn 0.7565 0.4795 0.4448
vn 0.5706 0.4773 0.6683
vn 0.3157 0.5012 0.8057
vn 0.0305 0.5476 0.8362
vn -0.2417 0.6094 0.7551
vn -0.4593 0.6773 0.5748
vn -0.5892 0.7408 0.3227
vn -0.6116 0.7903 0.0373
vn -0.5232 0.8182 -0.2381
vn -0.3374 0.8204 -0.4616
vn -0.0825 0.7965 -0.5990
vn 0.2028 0.7501 -0.6295
vn 0.4749 0.6883 -0.5484
vn 0.6925 0.6204 -0.3681
vn -0.1748 -0.9724 -0.1549
s off
f 1//1 12//1 2//1
f 2//2 12//2 3//2
f 3//3 12//3 4//3
f 4//4 12//4 5//4
f 5//5 12//5 6//5
f 6//6 12//6 7//6
f 7//7 12//7 8//7
f 8//8 12//8 9//8
f 9//9 12//9 10//9
f 10//10 12//10 11//10
f 11//11 12//11 13//11
f 13//12 12//12 14//12
f 14//13 12//13 15//13
f 15//14 12//14 16//14
f 16//15 12//15 17//15
f 17//16 12//16 1//16
f 15//17 17//17 8//17
f 17//17 1//17 2//17
f 2//17 3//17 4//17
f 4//17 5//17 6//17
f 6//17 7//17 8//17
f 8//17 9//17 10//17
f 10//17 11//17 13//17
f 13//17 14//17 15//17
f 15//17 16//17 17//17
f 17//17 2//17 4//17
f 4//17 6//17 17//17
f 6//17 8//17 17//17
f 8//17 10//17 13//17
f 13//17 15//17 8//17
