# Blender v2.83.0 OBJ File: ''
# www.blender.org
o Cone.190_Cone.1666
v -0.137586 -0.394273 -1.251711
v -0.488312 -0.704027 -0.872759
v -0.952319 -0.808181 -0.503423
v -1.458968 -0.690879 -0.199931
v -1.931126 -0.369979 -0.008486
v -2.296910 0.105665 0.041765
v -2.500633 0.663641 -0.056827
v -2.511281 1.219001 -0.289253
v -2.327232 1.687198 -0.620129
v -1.976507 1.996952 -0.999080
v -1.512499 2.101106 -1.368416
v -1.005850 1.983804 -1.671909
v -0.152249 1.313883 0.609332
v -0.533693 1.662904 -1.863354
v -0.167909 1.187260 -1.913605
v 0.035815 0.629284 -1.815012
v 0.046463 0.073923 -1.582586
vn 0.8103 -0.4285 0.3997
vn 0.5957 -0.5375 0.5968
vn 0.3400 -0.5341 0.7740
vn 0.0822 -0.4187 0.9044
vn -0.1386 -0.2088 0.9681
vn -0.2886 0.0634 0.9554
vn -0.3450 0.3567 0.8682
vn -0.2994 0.6263 0.7198
vn -0.1585 0.8313 0.5328
vn 0.0561 0.9403 0.3357
vn 0.3118 0.9368 0.1584
vn 0.5696 0.8214 0.0281
vn 0.7904 0.6116 -0.0356
vn 0.9404 0.3393 -0.0229
vn 0.9969 0.0460 0.0643
vn 0.9512 -0.2236 0.2127
vn -0.5401 -0.3337 -0.7726
s off
f 1//1 13//1 2//1
f 2//2 13//2 3//2
f 3//3 13//3 4//3
f 4//4 13//4 5//4
f 5//5 13//5 6//5
f 6//6 13//6 7//6
f 7//7 13//7 8//7
f 8//8 13//8 9//8
f 9//9 13//9 10//9
f 10//10 13//10 11//10
f 11//11 13//11 12//11
f 12//12 13//12 14//12
f 14//13 13//13 15//13
f 15//14 13//14 16//14
f 16//15 13//15 17//15
f 17//16 13//16 1//16
f 17//17 4//17 8//17
f 17//17 1//17 2//17
f 2//17 3//17 17//17
f 3//17 4//17 17//17
f 4//17 5//17 6//17
f 6//17 7//17 4//17
f 7//17 8//17 4//17
f 8//17 9//17 10//17
f 10//17 11//17 8//17
f 11//17 12//17 8//17
f 12//17 14//17 15//17
f 15//17 16//17 17//17
f 12//17 15//17 8//17
f 15//17 17//17 8//17
