# Blender v2.83.0 OBJ File: ''
# www.blender.org
o Cone.118_Cone.1594
v 1.141380 -0.970091 0.283199
v 1.252639 -1.543217 0.199789
v 1.374530 -2.036702 -0.099249
v 1.488497 -2.375419 -0.568388
v 1.577190 -2.507801 -1.136207
v 1.627104 -2.413692 -1.716260
v 1.630642 -2.107422 -2.220239
v 1.587265 -1.635616 -2.571419
v 1.503577 -1.070103 -2.716334
v 1.392318 -0.496977 -2.632925
v 1.270426 -0.003491 -2.333887
v 1.156459 0.335226 -1.864747
v -0.634301 -1.367257 -1.441276
v 1.067767 0.467607 -1.296928
v 1.017852 0.373499 -0.716875
v 1.014314 0.067228 -0.212896
v 1.057691 -0.404578 0.138284
vn -0.6506 -0.2316 0.7233
vn -0.5874 -0.5206 0.6196
vn -0.5235 -0.7461 0.4115
vn -0.4686 -0.8737 0.1305
vn -0.4311 -0.8841 -0.1805
vn -0.4166 -0.7756 -0.4743
vn -0.4274 -0.5648 -0.7060
vn -0.4618 -0.2837 -0.8404
vn -0.5146 0.0248 -0.8571
vn -0.5778 0.3138 -0.7534
vn -0.6417 0.5393 -0.5453
vn -0.6966 0.6670 -0.2643
vn -0.7342 0.6774 0.0467
vn -0.7487 0.5689 0.3404
vn -0.7379 0.3580 0.5722
vn -0.7034 0.0770 0.7066
vn 0.9784 0.1736 0.1124
s off
f 1//1 13//1 2//1
f 2//2 13//2 3//2
f 3//3 13//3 4//3
f 4//4 13//4 5//4
f 5//5 13//5 6//5
f 6//6 13//6 7//6
f 7//7 13//7 8//7
f 8//8 13//8 9//8
f 9//9 13//9 10//9
f 10//10 13//10 11//10
f 11//11 13//11 12//11
f 12//12 13//12 14//12
f 14//13 13//13 15//13
f 15//14 13//14 16//14
f 16//15 13//15 17//15
f 17//16 13//16 1//16
f 8//17 12//17 17//17
f 17//17 1//17 4//17
f 1//17 2//17 4//17
f 2//17 3//17 4//17
f 4//17 5//17 6//17
f 6//17 7//17 4//17
f 7//17 8//17 4//17
f 8//17 9//17 12//17
f 9//17 10//17 12//17
f 10//17 11//17 12//17
f 12//17 14//17 15//17
f 15//17 16//17 12//17
f 16//17 17//17 12//17
f 17//17 4//17 8//17
