# Blender v2.83.0 OBJ File: ''
# www.blender.org
o Cone.119_Cone.1595
v 0.364201 1.599519 1.094986
v 0.215048 1.488803 1.395429
v 0.132029 1.491147 1.738756
v 0.127781 1.606195 2.072697
v 0.202951 1.816432 2.346413
v 0.346095 2.089851 2.518234
v 0.535422 2.384826 2.562001
v 0.742107 2.656451 2.471051
v 0.934685 2.863373 2.259231
v 1.083838 2.974090 1.958788
v 1.166857 2.971746 1.615462
v 1.171106 2.856698 1.281520
v 2.271142 1.131279 2.076763
v 1.095935 2.646461 1.007804
v 0.952791 2.373042 0.835983
v 0.763464 2.078066 0.792216
v 0.556779 1.806441 0.883166
vn -0.0414 -0.9307 -0.3635
vn -0.1609 -0.9865 -0.0322
vn -0.2058 -0.9260 0.3164
vn -0.1693 -0.7586 0.6292
vn -0.0569 -0.5097 0.8585
vn 0.1142 -0.2171 0.9694
vn 0.3180 0.0745 0.9452
vn 0.5235 0.3208 0.7893
vn 0.6994 0.4843 0.5257
vn 0.8189 0.5400 0.1943
vn 0.8638 0.4796 -0.1542
vn 0.8273 0.3122 -0.4670
vn 0.7149 0.0633 -0.6963
vn 0.5438 -0.2293 -0.8073
vn 0.3400 -0.5209 -0.7830
vn 0.1345 -0.7672 -0.6272
vn -0.8108 0.5501 -0.1998
vn -0.8109 0.5501 -0.1998
s off
f 1//1 13//1 2//1
f 2//2 13//2 3//2
f 3//3 13//3 4//3
f 4//4 13//4 5//4
f 5//5 13//5 6//5
f 6//6 13//6 7//6
f 7//7 13//7 8//7
f 8//8 13//8 9//8
f 9//9 13//9 10//9
f 10//10 13//10 11//10
f 11//11 13//11 12//11
f 12//12 13//12 14//12
f 14//13 13//13 15//13
f 15//14 13//14 16//14
f 16//15 13//15 17//15
f 17//16 13//16 1//16
f 4//17 8//17 12//17
f 17//17 1//17 2//17
f 2//18 3//18 4//18
f 4//18 5//18 8//18
f 5//17 6//17 8//17
f 6//18 7//18 8//18
f 8//17 9//17 10//17
f 10//18 11//18 12//18
f 12//17 14//17 15//17
f 15//18 16//18 12//18
f 16//17 17//17 12//17
f 17//17 2//17 4//17
f 8//17 10//17 12//17
f 17//17 4//17 12//17
