# Blender v2.83.0 OBJ File: ''
# www.blender.org
o Cone.168_Cone.1644
v -0.005519 2.793970 -1.699897
v 0.530852 2.902019 -1.629644
v 1.065683 2.795198 -1.546892
v 1.517553 2.489771 -1.464239
v 1.817667 2.032235 -1.394269
v 1.920337 1.492246 -1.347633
v 1.809931 0.952014 -1.331432
v 1.503258 0.493782 -1.348132
v 1.047006 0.187313 -1.395191
v 0.510636 0.079264 -1.465444
v -0.024196 0.186084 -1.548197
v 0.238296 1.607637 0.428951
v -0.476066 0.491512 -1.630850
v -0.776180 0.949048 -1.700820
v -0.878850 1.489037 -1.747456
v -0.768444 2.029270 -1.763656
v -0.461770 2.487502 -1.746956
vn -0.2334 0.8378 0.4936
vn 0.0840 0.8381 0.5389
vn 0.3764 0.7160 0.5880
vn 0.5992 0.4899 0.6332
vn 0.7186 0.1943 0.6677
vn 0.7163 -0.1258 0.6864
vn 0.5927 -0.4217 0.6862
vn 0.3666 -0.6483 0.6673
vn 0.0725 -0.7711 0.6326
vn -0.2449 -0.7715 0.5872
vn -0.5373 -0.6493 0.5382
vn -0.7602 -0.4232 0.4930
vn -0.8795 -0.1276 0.4584
vn -0.8772 0.1925 0.4398
vn -0.7536 0.4883 0.4399
vn -0.5276 0.7149 0.4588
vn 0.1412 -0.0585 -0.9882
s off
f 1//1 12//1 2//1
f 2//2 12//2 3//2
f 3//3 12//3 4//3
f 4//4 12//4 5//4
f 5//5 12//5 6//5
f 6//6 12//6 7//6
f 7//7 12//7 8//7
f 8//8 12//8 9//8
f 9//9 12//9 10//9
f 10//10 12//10 11//10
f 11//11 12//11 13//11
f 13//12 12//12 14//12
f 14//13 12//13 15//13
f 15//14 12//14 16//14
f 16//15 12//15 17//15
f 17//16 12//16 1//16
f 8//17 13//17 17//17
f 17//17 1//17 2//17
f 2//17 3//17 4//17
f 4//17 5//17 6//17
f 6//17 7//17 8//17
f 8//17 9//17 13//17
f 9//17 10//17 13//17
f 10//17 11//17 13//17
f 13//17 14//17 15//17
f 15//17 16//17 13//17
f 16//17 17//17 13//17
f 17//17 2//17 8//17
f 2//17 4//17 8//17
f 4//17 6//17 8//17
