# Blender v2.83.0 OBJ File: ''
# www.blender.org
o Cone.101_Cone.1577
v -1.062981 1.917791 2.076753
v -1.437484 1.317698 2.069564
v -1.557873 0.623116 2.010596
v -1.405819 -0.060212 1.908826
v -1.004471 -0.628256 1.779747
v -0.414931 -0.994536 1.643010
v 0.273049 -1.103288 1.519433
v 0.954731 -0.937958 1.427829
v -0.085746 0.918639 -0.232728
v 1.526333 -0.523714 1.382143
v 1.900837 0.076378 1.389332
v 2.021225 0.770960 1.448300
v 1.869172 1.454289 1.550070
v 1.467824 2.022333 1.679149
v 0.878283 2.388613 1.815886
v 0.190303 2.497365 1.939463
v -0.491379 2.332034 2.031067
vn -0.7283 0.4606 -0.5074
vn -0.8323 0.1885 -0.5213
vn -0.8256 -0.1010 -0.5551
vn -0.7093 -0.3640 -0.6036
vn -0.5011 -0.5603 -0.6595
vn -0.2326 -0.6602 -0.7142
vn 0.0552 -0.6483 -0.7594
vn 0.3186 -0.5265 -0.7882
vn 0.5174 -0.3133 -0.7963
vn 0.6214 -0.0413 -0.7824
vn 0.6147 0.2483 -0.7487
vn 0.4984 0.5113 -0.7001
vn 0.2902 0.7076 -0.6443
vn 0.0217 0.8074 -0.5896
vn -0.2661 0.7955 -0.5444
vn -0.5295 0.6737 -0.5155
vn 0.1587 -0.1108 0.9811
s off
f 1//1 9//1 2//1
f 2//2 9//2 3//2
f 3//3 9//3 4//3
f 4//4 9//4 5//4
f 5//5 9//5 6//5
f 6//6 9//6 7//6
f 7//7 9//7 8//7
f 8//8 9//8 10//8
f 10//9 9//9 11//9
f 11//10 9//10 12//10
f 12//11 9//11 13//11
f 13//12 9//12 14//12
f 14//13 9//13 15//13
f 15//14 9//14 16//14
f 16//15 9//15 17//15
f 17//16 9//16 1//16
f 8//17 13//17 17//17
f 17//17 1//17 2//17
f 2//17 3//17 4//17
f 4//17 5//17 6//17
f 6//17 7//17 8//17
f 8//17 10//17 11//17
f 11//17 12//17 13//17
f 13//17 14//17 15//17
f 15//17 16//17 13//17
f 16//17 17//17 13//17
f 17//17 2//17 4//17
f 4//17 6//17 8//17
f 8//17 11//17 13//17
f 17//17 4//17 8//17
