# Blender v2.83.0 OBJ File: ''
# www.blender.org
o Cone.247_Cone.1723
v -0.926658 0.023512 -0.932035
v -1.157747 -0.199353 -1.230661
v -1.384238 -0.266521 -1.600037
v -1.571651 -0.167767 -1.983927
v -1.691454 0.081875 -2.323889
v -1.725408 0.444399 -2.568166
v -1.668343 0.864614 -2.679570
v -1.528947 1.278547 -2.641140
v -1.328443 1.623179 -2.458726
v -1.097354 1.846044 -2.160100
v -0.870863 1.913212 -1.790725
v -0.683450 1.814458 -1.406835
v -2.820155 1.305122 -0.745127
v -0.563647 1.564816 -1.066873
v -0.529693 1.202291 -0.822595
v -0.586758 0.782076 -0.711192
v -0.726154 0.368143 -0.749622
vn -0.3406 -0.6079 0.7173
vn -0.5224 -0.7231 0.4518
vn -0.6869 -0.7106 0.1526
vn -0.8090 -0.5721 -0.1351
vn -0.8701 -0.3289 -0.3672
vn -0.8609 -0.0179 -0.5085
vn -0.7828 0.3135 -0.5375
vn -0.6478 0.6149 -0.4498
vn -0.4763 0.8404 -0.2586
vn -0.2945 0.9556 0.0068
vn -0.1300 0.9431 0.3061
vn -0.0080 0.8047 0.5937
vn 0.0531 0.5614 0.8258
vn 0.0440 0.2504 0.9671
vn -0.0341 -0.0810 0.9961
vn -0.1692 -0.3824 0.9084
vn 0.8463 -0.2409 -0.4751
s off
f 1//1 13//1 2//1
f 2//2 13//2 3//2
f 3//3 13//3 4//3
f 4//4 13//4 5//4
f 5//5 13//5 6//5
f 6//6 13//6 7//6
f 7//7 13//7 8//7
f 8//8 13//8 9//8
f 9//9 13//9 10//9
f 10//10 13//10 11//10
f 11//11 13//11 12//11
f 12//12 13//12 14//12
f 14//13 13//13 15//13
f 15//14 13//14 16//14
f 16//15 13//15 17//15
f 17//16 13//16 1//16
f 17//17 4//17 8//17
f 17//17 1//17 2//17
f 2//17 3//17 17//17
f 3//17 4//17 17//17
f 4//17 5//17 6//17
f 6//17 7//17 4//17
f 7//17 8//17 4//17
f 8//17 9//17 10//17
f 10//17 11//17 12//17
f 12//17 14//17 17//17
f 14//17 15//17 17//17
f 15//17 16//17 17//17
f 8//17 10//17 17//17
f 10//17 12//17 17//17
