# Blender v2.83.0 OBJ File: ''
# www.blender.org
o Cone.081_Cone.1557
v 2.443810 -1.242940 0.354997
v 2.634231 -0.870338 0.485147
v 2.661114 -0.449258 0.603467
v 2.520366 -0.043805 0.691945
v 2.233414 0.284296 0.737111
v 1.843944 0.485093 0.732088
v 1.411250 0.528016 0.677641
v 1.001206 0.406532 0.582059
v 0.676236 0.139135 0.459894
v 0.485814 -0.233467 0.329744
v 0.458931 -0.654547 0.211424
v 0.599679 -1.060001 0.122946
v 1.851697 -0.033935 -1.502171
v 0.886631 -1.388101 0.077780
v 1.276101 -1.588898 0.082803
v 1.708796 -1.631821 0.137250
v 2.118840 -1.510337 0.232832
vn 0.8489 -0.2764 -0.4506
vn 0.9353 0.0391 -0.3518
vn 0.8900 0.3678 -0.2696
vn 0.7199 0.6594 -0.2164
vn 0.4510 0.8697 -0.2005
vn 0.1241 0.9666 -0.2241
vn -0.2110 0.9354 -0.2838
vn -0.5032 0.7808 -0.3703
vn -0.7081 0.5263 -0.4707
vn -0.7945 0.2107 -0.5695
vn -0.7493 -0.1179 -0.6517
vn -0.5792 -0.4096 -0.7048
vn -0.3103 -0.6198 -0.7208
vn 0.0166 -0.7167 -0.6971
vn 0.3517 -0.6855 -0.6375
vn 0.6439 -0.5309 -0.5509
vn -0.1458 -0.2590 0.9548
s off
f 1//1 13//1 2//1
f 2//2 13//2 3//2
f 3//3 13//3 4//3
f 4//4 13//4 5//4
f 5//5 13//5 6//5
f 6//6 13//6 7//6
f 7//7 13//7 8//7
f 8//8 13//8 9//8
f 9//9 13//9 10//9
f 10//10 13//10 11//10
f 11//11 13//11 12//11
f 12//12 13//12 14//12
f 14//13 13//13 15//13
f 15//14 13//14 16//14
f 16//15 13//15 17//15
f 17//16 13//16 1//16
f 4//17 8//17 12//17
f 17//17 1//17 4//17
f 1//17 2//17 4//17
f 2//17 3//17 4//17
f 4//17 5//17 6//17
f 6//17 7//17 8//17
f 8//17 9//17 12//17
f 9//17 10//17 12//17
f 10//17 11//17 12//17
f 12//17 14//17 15//17
f 15//17 16//17 12//17
f 16//17 17//17 12//17
f 4//17 6//17 8//17
f 17//17 4//17 12//17
