# Blender v2.83.0 OBJ File: ''
# www.blender.org
o Cone.226_Cone.1702
v -0.845515 0.256032 1.051479
v -0.535562 0.193257 0.979488
v -0.220827 0.254747 0.930952
v 0.050773 0.431142 0.913259
v 0.237889 0.695587 0.929104
v 0.312036 1.007822 0.976075
v 0.261925 1.320312 1.047019
v 0.095184 1.585485 1.131137
v -0.162801 1.762969 1.215623
v -0.472754 1.825744 1.287614
v -0.787489 1.764253 1.336151
v -1.059089 1.587858 1.353843
v -0.875462 1.387779 -0.794929
v -1.246206 1.323414 1.337998
v -1.320353 1.011178 1.291028
v -1.270241 0.698688 1.220083
v -1.103500 0.433516 1.135965
vn -0.2818 -0.8201 -0.4981
vn 0.0730 -0.8208 -0.5665
vn 0.4060 -0.6857 -0.6041
vn 0.6665 -0.4353 -0.6052
vn 0.8149 -0.1078 -0.5695
vn 0.8285 0.2470 -0.5026
vn 0.7054 0.5750 -0.4145
vn 0.4642 0.8264 -0.3187
vn 0.1416 0.9629 -0.2299
vn -0.2132 0.9636 -0.1614
vn -0.5461 0.8285 -0.1238
vn -0.8067 0.5781 -0.1228
vn -0.9550 0.2506 -0.1584
vn -0.9687 -0.1042 -0.2254
vn -0.8455 -0.4322 -0.3135
vn -0.6043 -0.6836 -0.4092
vn 0.1857 -0.1891 0.9642
s off
f 1//1 13//1 2//1
f 2//2 13//2 3//2
f 3//3 13//3 4//3
f 4//4 13//4 5//4
f 5//5 13//5 6//5
f 6//6 13//6 7//6
f 7//7 13//7 8//7
f 8//8 13//8 9//8
f 9//9 13//9 10//9
f 10//10 13//10 11//10
f 11//11 13//11 12//11
f 12//12 13//12 14//12
f 14//13 13//13 15//13
f 15//14 13//14 16//14
f 16//15 13//15 17//15
f 17//16 13//16 1//16
f 4//17 8//17 12//17
f 17//17 1//17 2//17
f 2//17 3//17 17//17
f 3//17 4//17 17//17
f 4//17 5//17 8//17
f 5//17 6//17 8//17
f 6//17 7//17 8//17
f 8//17 9//17 10//17
f 10//17 11//17 12//17
f 12//17 14//17 15//17
f 15//17 16//17 17//17
f 8//17 10//17 12//17
f 12//17 15//17 17//17
f 17//17 4//17 12//17
