# Blender v2.83.0 OBJ File: ''
# www.blender.org
o Cone.237_Cone.1713
v -0.168376 -1.343549 -1.568227
v 0.246736 -1.361881 -1.956096
v 0.735949 -1.220764 -2.208786
v 1.224785 -0.941681 -2.287827
v 1.638824 -0.567121 -2.181187
v 1.915032 -0.154106 -1.905101
v 2.011358 0.234485 -1.501599
v 1.913137 0.539494 -1.032112
v 1.635324 0.714485 -0.568115
v 1.220213 0.732818 -0.180247
v 0.731000 0.591701 0.072443
v 0.242164 0.312618 0.151485
v -0.226824 1.058058 -2.160794
v -0.171875 -0.061942 0.044846
v -0.448083 -0.474957 -0.231241
v -0.544409 -0.863549 -0.634743
v -0.446188 -1.168558 -1.104230
vn -0.6745 -0.1923 -0.7128
vn -0.4170 -0.1573 -0.8952
vn -0.1385 -0.0377 -0.9896
vn 0.1186 0.1484 -0.9818
vn 0.3151 0.3727 -0.8728
vn 0.4212 0.6010 -0.6793
vn 0.4207 0.7985 -0.4307
vn 0.3136 0.9351 -0.1649
vn 0.1163 0.9902 0.0776
vn -0.1412 0.9552 0.2600
vn -0.4197 0.8356 0.3545
vn -0.6768 0.6494 0.3466
vn -0.8733 0.4252 0.2377
vn -0.9794 0.1969 0.0442
vn -0.9789 -0.0006 -0.2044
vn -0.8718 -0.1372 -0.4702
vn 0.4801 -0.6863 0.5463
s off
f 1//1 13//1 2//1
f 2//2 13//2 3//2
f 3//3 13//3 4//3
f 4//4 13//4 5//4
f 5//5 13//5 6//5
f 6//6 13//6 7//6
f 7//7 13//7 8//7
f 8//8 13//8 9//8
f 9//9 13//9 10//9
f 10//10 13//10 11//10
f 11//11 13//11 12//11
f 12//12 13//12 14//12
f 14//13 13//13 15//13
f 15//14 13//14 16//14
f 16//15 13//15 17//15
f 17//16 13//16 1//16
f 4//17 8//17 12//17
f 17//17 1//17 4//17
f 1//17 2//17 4//17
f 2//17 3//17 4//17
f 4//17 5//17 6//17
f 6//17 7//17 4//17
f 7//17 8//17 4//17
f 8//17 9//17 10//17
f 10//17 11//17 12//17
f 12//17 14//17 15//17
f 15//17 16//17 12//17
f 16//17 17//17 12//17
f 8//17 10//17 12//17
f 17//17 4//17 12//17
