# Blender v2.83.0 OBJ File: ''
# www.blender.org
o Cone.032_Cone.1508
v 0.981658 -1.039266 -0.371811
v 0.674415 -0.409451 -0.401907
v 0.157994 0.062643 -0.352841
v -0.488985 0.305144 -0.232084
v -1.168025 0.281134 -0.058019
v -1.775749 -0.005733 0.142854
v -2.219636 -0.511783 0.339954
v -2.432109 -1.159975 0.503274
v -1.178793 -1.770697 -1.796237
v -2.380820 -1.851628 0.607949
v -2.073578 -2.481443 0.638045
v -1.557157 -2.953537 0.588980
v -0.910178 -3.196039 0.468222
v -0.231137 -3.172029 0.294157
v 0.376587 -2.885161 0.093284
v 0.820474 -2.379111 -0.103816
v 1.032947 -1.730918 -0.267135
vn 0.4915 0.1993 -0.8478
vn 0.3163 0.4337 -0.8437
vn 0.0688 0.5857 -0.8076
vn -0.2133 0.6322 -0.7449
vn -0.4870 0.5660 -0.6651
vn -0.7107 0.3974 -0.5805
vn -0.8504 0.1518 -0.5038
vn -0.8847 -0.1332 -0.4468
vn -0.8084 -0.4143 -0.4181
vn -0.6332 -0.6487 -0.4222
vn -0.3857 -0.8008 -0.4583
vn -0.1036 -0.8472 -0.5210
vn 0.1701 -0.7811 -0.6008
vn 0.3939 -0.6124 -0.6854
vn 0.5335 -0.3669 -0.7621
vn 0.5678 -0.0819 -0.8191
vn 0.2396 0.1626 0.9572
s off
f 1//1 9//1 2//1
f 2//2 9//2 3//2
f 3//3 9//3 4//3
f 4//4 9//4 5//4
f 5//5 9//5 6//5
f 6//6 9//6 7//6
f 7//7 9//7 8//7
f 8//8 9//8 10//8
f 10//9 9//9 11//9
f 11//10 9//10 12//10
f 12//11 9//11 13//11
f 13//12 9//12 14//12
f 14//13 9//13 15//13
f 15//14 9//14 16//14
f 16//15 9//15 17//15
f 17//16 9//16 1//16
f 8//17 13//17 17//17
f 17//17 1//17 2//17
f 2//17 3//17 4//17
f 4//17 5//17 6//17
f 6//17 7//17 8//17
f 8//17 10//17 11//17
f 11//17 12//17 13//17
f 13//17 14//17 15//17
f 15//17 16//17 13//17
f 16//17 17//17 13//17
f 17//17 2//17 4//17
f 4//17 6//17 17//17
f 6//17 8//17 17//17
f 8//17 11//17 13//17
