# Blender v2.83.0 OBJ File: ''
# www.blender.org
o Cone.130_Cone.1606
v 0.733563 1.245389 -0.928393
v 1.155429 0.859319 -0.526493
v 1.607215 0.350610 -0.366338
v 2.020139 -0.203293 -0.472311
v 2.331337 -0.718063 -0.828278
v 2.493434 -1.115330 -1.380046
v 2.481750 -1.334615 -2.043614
v 2.298064 -1.342533 -2.717959
v 1.970342 -1.137879 -3.300419
v 1.548476 -0.751810 -3.702320
v 1.096690 -0.243101 -3.862474
v 0.683766 0.310802 -3.756502
v -0.173733 -1.165864 -1.684503
v 0.372567 0.825572 -3.400535
v 0.210471 1.222840 -2.848766
v 0.222155 1.442125 -2.185198
v 0.405841 1.450043 -1.510853
vn -0.6777 0.0245 0.7349
vn -0.4909 -0.1668 0.8551
vn -0.3060 -0.3940 0.8667
vn -0.1512 -0.6224 0.7679
vn -0.0500 -0.8174 0.5738
vn -0.0179 -0.9493 0.3140
vn -0.0596 -0.9978 0.0280
vn -0.1690 -0.9558 -0.2407
vn -0.3292 -0.8295 -0.4512
vn -0.5160 -0.6382 -0.5714
vn -0.7009 -0.4110 -0.5830
vn -0.8557 -0.1825 -0.4842
vn -0.9569 0.0125 -0.2901
vn -0.9891 0.1443 -0.0303
vn -0.9473 0.1929 0.2558
vn -0.8380 0.1508 0.5245
vn 0.7628 0.6098 -0.2150
s off
f 1//1 13//1 2//1
f 2//2 13//2 3//2
f 3//3 13//3 4//3
f 4//4 13//4 5//4
f 5//5 13//5 6//5
f 6//6 13//6 7//6
f 7//7 13//7 8//7
f 8//8 13//8 9//8
f 9//9 13//9 10//9
f 10//10 13//10 11//10
f 11//11 13//11 12//11
f 12//12 13//12 14//12
f 14//13 13//13 15//13
f 15//14 13//14 16//14
f 16//15 13//15 17//15
f 17//16 13//16 1//16
f 4//17 8//17 12//17
f 17//17 1//17 2//17
f 2//17 3//17 4//17
f 4//17 5//17 6//17
f 6//17 7//17 8//17
f 8//17 9//17 10//17
f 10//17 11//17 12//17
f 12//17 14//17 15//17
f 15//17 16//17 12//17
f 16//17 17//17 12//17
f 17//17 2//17 4//17
f 4//17 6//17 8//17
f 8//17 10//17 12//17
f 17//17 4//17 12//17
