# Blender v2.83.0 OBJ File: ''
# www.blender.org
o Cone.187_Cone.1663
v 0.557193 1.517289 -0.390260
v 0.561778 1.724351 -0.364338
v 0.599382 1.905909 -0.268473
v 0.664280 2.034323 -0.117258
v 0.746590 2.090043 0.066285
v 0.833783 2.064585 0.254213
v 0.912583 1.961826 0.417916
v 0.970995 1.797410 0.532472
v -1.037950 1.492636 0.929243
v 1.000125 1.596368 0.580441
v 0.995539 1.389306 0.554519
v 0.957935 1.207748 0.458654
v 0.893038 1.079334 0.307439
v 0.810728 1.023614 0.123896
v 0.723535 1.049071 -0.064032
v 0.644735 1.151830 -0.227735
v 0.586323 1.316246 -0.342291
vn -0.6345 0.1098 -0.7650
vn -0.5957 0.4680 -0.6528
vn -0.5012 0.7538 -0.4250
vn -0.3655 0.9235 -0.1165
vn -0.2092 0.9514 0.2260
vn -0.0562 0.8332 0.5501
vn 0.0703 0.5869 0.8066
vn 0.1510 0.2501 0.9564
vn 0.1736 -0.1261 0.9767
vn 0.1347 -0.4843 0.8645
vn 0.0402 -0.7701 0.6367
vn -0.0955 -0.9398 0.3281
vn -0.2517 -0.9677 -0.0143
vn -0.4047 -0.8495 -0.3384
vn -0.5312 -0.6032 -0.5949
vn -0.6119 -0.2664 -0.7447
vn 0.9083 0.0321 -0.4171
s off
f 1//1 9//1 2//1
f 2//2 9//2 3//2
f 3//3 9//3 4//3
f 4//4 9//4 5//4
f 5//5 9//5 6//5
f 6//6 9//6 7//6
f 7//7 9//7 8//7
f 8//8 9//8 10//8
f 10//9 9//9 11//9
f 11//10 9//10 12//10
f 12//11 9//11 13//11
f 13//12 9//12 14//12
f 14//13 9//13 15//13
f 15//14 9//14 16//14
f 16//15 9//15 17//15
f 17//16 9//16 1//16
f 17//17 4//17 8//17
f 17//17 1//17 2//17
f 2//17 3//17 4//17
f 4//17 5//17 8//17
f 5//17 6//17 8//17
f 6//17 7//17 8//17
f 8//17 10//17 11//17
f 11//17 12//17 13//17
f 13//17 14//17 17//17
f 14//17 15//17 17//17
f 15//17 16//17 17//17
f 17//17 2//17 4//17
f 8//17 11//17 17//17
f 11//17 13//17 17//17
