# Blender v2.83.0 OBJ File: ''
# www.blender.org
o Cone.141_Cone.1617
v -0.386716 -2.476412 0.389713
v -0.617389 -2.376107 -0.029457
v -0.668523 -2.228963 -0.492824
v -0.532333 -2.057379 -0.929845
v -0.229551 -1.887479 -1.273986
v 0.193725 -1.745129 -1.472855
v 0.673056 -1.651999 -1.496176
v 1.135468 -1.622268 -1.340400
v 0.229490 -0.199635 0.310370
v 1.510563 -1.660462 -1.029241
v 1.741237 -1.760766 -0.610070
v 1.792371 -1.907911 -0.146703
v 1.656180 -2.079494 0.290317
v 1.353399 -2.249394 0.634458
v 0.930123 -2.391745 0.833328
v 0.450792 -2.484875 0.856649
v -0.011621 -2.514606 0.700872
vn -0.8248 0.2410 0.5115
vn -0.9225 0.3268 0.2056
vn -0.8930 0.4373 -0.1066
vn -0.7408 0.5557 -0.3774
vn -0.4891 0.6640 -0.5656
vn -0.1761 0.7456 -0.6427
vn 0.1504 0.7882 -0.5968
vn 0.4407 0.7853 -0.4349
vn 0.6507 0.7373 -0.1817
vn 0.7484 0.6515 0.1243
vn 0.7189 0.5410 0.4364
vn 0.5667 0.4226 0.7073
vn 0.3150 0.3143 0.8955
vn 0.0021 0.2327 0.9725
vn -0.3244 0.1901 0.9266
vn -0.6147 0.1930 0.7647
vn 0.1662 -0.9344 -0.3151
s off
f 1//1 9//1 2//1
f 2//2 9//2 3//2
f 3//3 9//3 4//3
f 4//4 9//4 5//4
f 5//5 9//5 6//5
f 6//6 9//6 7//6
f 7//7 9//7 8//7
f 8//8 9//8 10//8
f 10//9 9//9 11//9
f 11//10 9//10 12//10
f 12//11 9//11 13//11
f 13//12 9//12 14//12
f 14//13 9//13 15//13
f 15//14 9//14 16//14
f 16//15 9//15 17//15
f 17//16 9//16 1//16
f 8//17 13//17 17//17
f 17//17 1//17 2//17
f 2//17 3//17 4//17
f 4//17 5//17 6//17
f 6//17 7//17 8//17
f 8//17 10//17 11//17
f 11//17 12//17 13//17
f 13//17 14//17 15//17
f 15//17 16//17 13//17
f 16//17 17//17 13//17
f 17//17 2//17 8//17
f 2//17 4//17 8//17
f 4//17 6//17 8//17
f 8//17 11//17 13//17
