# Blender v2.83.0 OBJ File: ''
# www.blender.org
o Cone.150_Cone.1626
v -1.496709 1.665557 -0.388965
v -1.232000 1.175871 -0.484636
v -1.071729 0.642384 -0.391253
v -1.040296 0.146313 -0.123034
v -1.142487 -0.236819 0.279189
v -1.362743 -0.448683 0.754181
v -1.667534 -0.457025 1.229627
v -2.010457 -0.260576 1.633146
v -2.339305 0.110758 1.903306
v -2.604014 0.600444 1.998977
v -2.764285 1.133931 1.905594
v -0.332722 1.544316 1.784949
v -2.795718 1.630002 1.637374
v -2.693527 2.013134 1.235151
v -2.473271 2.224998 0.760159
v -2.168480 2.233340 0.284713
v -1.825557 2.036891 -0.118806
vn 0.7768 0.4958 -0.3883
vn 0.8989 0.2020 -0.3889
vn 0.9539 -0.0937 -0.2851
vn 0.9336 -0.3462 -0.0926
vn 0.8410 -0.5171 0.1593
vn 0.6902 -0.5803 0.4323
vn 0.5042 -0.5263 0.6847
vn 0.3113 -0.3632 0.8782
vn 0.1408 -0.1160 0.9832
vn 0.0188 0.1779 0.9839
vn -0.0363 0.4735 0.8800
vn -0.0159 0.7260 0.6875
vn 0.0767 0.8969 0.4356
vn 0.2274 0.9601 0.1627
vn 0.4134 0.9061 -0.0898
vn 0.6064 0.7430 -0.2832
vn -0.7926 -0.3281 -0.5139
s off
f 1//1 12//1 2//1
f 2//2 12//2 3//2
f 3//3 12//3 4//3
f 4//4 12//4 5//4
f 5//5 12//5 6//5
f 6//6 12//6 7//6
f 7//7 12//7 8//7
f 8//8 12//8 9//8
f 9//9 12//9 10//9
f 10//10 12//10 11//10
f 11//11 12//11 13//11
f 13//12 12//12 14//12
f 14//13 12//13 15//13
f 15//14 12//14 16//14
f 16//15 12//15 17//15
f 17//16 12//16 1//16
f 8//17 13//17 17//17
f 17//17 1//17 2//17
f 2//17 3//17 4//17
f 4//17 5//17 6//17
f 6//17 7//17 4//17
f 7//17 8//17 4//17
f 8//17 9//17 10//17
f 10//17 11//17 8//17
f 11//17 13//17 8//17
f 13//17 14//17 15//17
f 15//17 16//17 17//17
f 17//17 2//17 4//17
f 13//17 15//17 17//17
f 17//17 4//17 8//17
