# Blender v2.83.0 OBJ File: ''
# www.blender.org
o Cone.164_Cone.1640
v -1.136489 0.960116 -2.144372
v -1.234348 0.287717 -1.976425
v -1.243379 -0.282871 -1.571146
v -1.162207 -0.664780 -0.990232
v -1.003188 -0.799868 -0.322125
v -0.790533 -0.667569 0.331464
v -0.556616 -0.288025 0.871031
v -0.337049 0.280982 1.214432
v -0.165258 0.952826 1.309388
v -0.067399 1.625226 1.141441
v -0.058367 2.195814 0.736162
v -0.139540 2.577723 0.155248
v 1.233954 0.549556 -0.948383
v -0.298559 2.712811 -0.512860
v -0.511214 2.580512 -1.166449
v -0.745131 2.200968 -1.706016
v -0.964699 1.631960 -2.049417
vn 0.3943 -0.2763 -0.8764
vn 0.3715 -0.5415 -0.7541
vn 0.3869 -0.7448 -0.5437
vn 0.4382 -0.8551 -0.2772
vn 0.5175 -0.8557 0.0048
vn 0.6128 -0.7465 0.2594
vn 0.7095 -0.5441 0.4478
vn 0.7930 -0.2793 0.5414
vn 0.8506 0.0075 0.5258
vn 0.8734 0.2728 0.4035
vn 0.8580 0.4760 0.1930
vn 0.8067 0.5863 -0.0735
vn 0.7274 0.5869 -0.3555
vn 0.6322 0.4777 -0.6101
vn 0.5354 0.2753 -0.7985
vn 0.4519 0.0105 -0.8920
vn -0.9424 0.2035 0.2654
s off
f 1//1 13//1 2//1
f 2//2 13//2 3//2
f 3//3 13//3 4//3
f 4//4 13//4 5//4
f 5//5 13//5 6//5
f 6//6 13//6 7//6
f 7//7 13//7 8//7
f 8//8 13//8 9//8
f 9//9 13//9 10//9
f 10//10 13//10 11//10
f 11//11 13//11 12//11
f 12//12 13//12 14//12
f 14//13 13//13 15//13
f 15//14 13//14 16//14
f 16//15 13//15 17//15
f 17//16 13//16 1//16
f 17//17 4//17 8//17
f 17//17 1//17 2//17
f 2//17 3//17 4//17
f 4//17 5//17 6//17
f 6//17 7//17 8//17
f 8//17 9//17 10//17
f 10//17 11//17 12//17
f 12//17 14//17 15//17
f 15//17 16//17 17//17
f 17//17 2//17 4//17
f 4//17 6//17 8//17
f 8//17 10//17 17//17
f 10//17 12//17 17//17
f 12//17 15//17 17//17
