# Blender v2.83.0 OBJ File: ''
# www.blender.org
o Cone.016_Cone.1492
v -0.876853 0.999285 1.579429
v -0.863836 1.221130 1.356574
v -0.857162 1.340972 1.065641
v -0.857847 1.340567 0.750922
v -0.865787 1.219977 0.460329
v -0.879773 0.997560 0.238104
v -0.897675 0.707178 0.118078
v -0.916769 0.393038 0.118523
v -0.934148 0.102965 0.239373
v -0.947165 -0.118880 0.462228
v -0.953839 -0.238722 0.753161
v -0.953154 -0.238318 1.067880
v 1.090811 0.429780 0.905212
v -0.945214 -0.117728 1.358473
v -0.931228 0.104689 1.580698
v -0.913325 0.395072 1.700724
v -0.894231 0.709212 1.700279
vn 0.4085 0.6349 0.6558
vn 0.4200 0.8357 0.3539
vn 0.4236 0.9059 -0.0021
vn 0.4185 0.8348 -0.3578
vn 0.4056 0.6332 -0.6592
vn 0.3869 0.3318 -0.8604
vn 0.3651 -0.0235 -0.9307
vn 0.3437 -0.3786 -0.8594
vn 0.3258 -0.6795 -0.6574
vn 0.3142 -0.8803 -0.3554
vn 0.3107 -0.9505 0.0005
vn 0.3158 -0.8794 0.3563
vn 0.3287 -0.6778 0.6577
vn 0.3474 -0.3764 0.8588
vn 0.3692 -0.0211 0.9291
vn 0.3906 0.3340 0.8578
vn -0.9982 0.0607 0.0021
s off
f 1//1 13//1 2//1
f 2//2 13//2 3//2
f 3//3 13//3 4//3
f 4//4 13//4 5//4
f 5//5 13//5 6//5
f 6//6 13//6 7//6
f 7//7 13//7 8//7
f 8//8 13//8 9//8
f 9//9 13//9 10//9
f 10//10 13//10 11//10
f 11//11 13//11 12//11
f 12//12 13//12 14//12
f 14//13 13//13 15//13
f 15//14 13//14 16//14
f 16//15 13//15 17//15
f 17//16 13//16 1//16
f 8//17 12//17 17//17
f 17//17 1//17 2//17
f 2//17 3//17 4//17
f 4//17 5//17 6//17
f 6//17 7//17 8//17
f 8//17 9//17 10//17
f 10//17 11//17 8//17
f 11//17 12//17 8//17
f 12//17 14//17 17//17
f 14//17 15//17 17//17
f 15//17 16//17 17//17
f 17//17 2//17 4//17
f 4//17 6//17 8//17
f 17//17 4//17 8//17
