# Blender v2.83.0 OBJ File: ''
# www.blender.org
o Cone.194_Cone.1670
v 0.839730 1.214211 1.507452
v 0.711224 0.934499 1.641613
v 0.703003 0.655117 1.827706
v 0.816318 0.418601 2.037400
v 1.033919 0.260956 2.238770
v 1.322677 0.206183 2.401160
v 1.638632 0.262620 2.499848
v 1.933683 0.421676 2.519809
v 2.162910 0.659136 2.458004
v 2.291416 0.938848 2.323843
v 2.299637 1.218229 2.137749
v 2.176680 -0.120662 0.425188
v 2.186322 1.454746 1.928056
v 1.968721 1.612391 1.726685
v 1.679962 1.667164 1.564295
v 1.364007 1.610726 1.465608
v 1.068957 1.451670 1.445647
vn -0.6610 -0.0553 -0.7484
vn -0.7356 -0.3604 -0.5736
vn -0.6783 -0.6420 -0.3576
vn -0.4976 -0.8571 -0.1332
vn -0.2213 -0.9730 0.0653
vn 0.1087 -0.9721 0.2078
vn 0.4422 -0.8545 0.2725
vn 0.7283 -0.6381 0.2497
vn 0.9236 -0.3558 0.1428
vn 0.9982 -0.0507 -0.0320
vn 0.9408 0.2309 -0.2480
vn 0.7602 0.4460 -0.4724
vn 0.4839 0.5619 -0.6709
vn 0.1539 0.5610 -0.8134
vn -0.1796 0.4434 -0.8781
vn -0.4657 0.2270 -0.8553
vn -0.3377 0.5287 0.7788
s off
f 1//1 12//1 2//1
f 2//2 12//2 3//2
f 3//3 12//3 4//3
f 4//4 12//4 5//4
f 5//5 12//5 6//5
f 6//6 12//6 7//6
f 7//7 12//7 8//7
f 8//8 12//8 9//8
f 9//9 12//9 10//9
f 10//10 12//10 11//10
f 11//11 12//11 13//11
f 13//12 12//12 14//12
f 14//13 12//13 15//13
f 15//14 12//14 16//14
f 16//15 12//15 17//15
f 17//16 12//16 1//16
f 4//17 8//17 13//17
f 17//17 1//17 2//17
f 2//17 3//17 17//17
f 3//17 4//17 17//17
f 4//17 5//17 6//17
f 6//17 7//17 8//17
f 8//17 9//17 10//17
f 10//17 11//17 13//17
f 13//17 14//17 17//17
f 14//17 15//17 17//17
f 15//17 16//17 17//17
f 4//17 6//17 8//17
f 8//17 10//17 13//17
f 17//17 4//17 13//17
