# Blender v2.83.0 OBJ File: ''
# www.blender.org
o Cone.251_Cone.1727
v -1.341858 0.390815 1.839020
v -1.281613 0.589321 1.964306
v -1.295696 0.819052 2.040178
v -1.381963 1.045031 2.055085
v -1.527279 1.232856 2.006757
v -1.709522 1.353933 1.902552
v -1.900947 1.389828 1.758334
v -2.072411 1.335077 1.596060
v -2.197811 1.198015 1.440433
v -2.258055 0.999509 1.315147
v -2.243972 0.769779 1.239275
v -0.548854 1.358167 0.159392
v -2.157706 0.543799 1.224369
v -2.012390 0.355974 1.272696
v -1.830147 0.234897 1.376902
v -1.638722 0.199002 1.521119
v -1.467257 0.253753 1.683394
vn 0.8973 -0.3958 0.1957
vn 0.9335 -0.0596 0.3536
vn 0.8547 0.2983 0.4249
vn 0.6729 0.6232 0.3986
vn 0.4157 0.8657 0.2789
vn 0.1223 0.9889 0.0838
vn -0.1626 0.9741 -0.1568
vn -0.3957 0.8235 -0.4064
vn -0.5415 0.5601 -0.6270
vn -0.5777 0.2238 -0.7849
vn -0.4989 -0.1340 -0.8562
vn -0.3171 -0.4589 -0.8300
vn -0.0599 -0.7014 -0.7102
vn 0.2335 -0.8247 -0.5152
vn 0.5184 -0.8099 -0.2745
vn 0.7515 -0.6593 -0.0249
vn -0.6105 -0.2819 0.7402
s off
f 1//1 12//1 2//1
f 2//2 12//2 3//2
f 3//3 12//3 4//3
f 4//4 12//4 5//4
f 5//5 12//5 6//5
f 6//6 12//6 7//6
f 7//7 12//7 8//7
f 8//8 12//8 9//8
f 9//9 12//9 10//9
f 10//10 12//10 11//10
f 11//11 12//11 13//11
f 13//12 12//12 14//12
f 14//13 12//13 15//13
f 15//14 12//14 16//14
f 16//15 12//15 17//15
f 17//16 12//16 1//16
f 8//17 13//17 17//17
f 17//17 1//17 2//17
f 2//17 3//17 4//17
f 4//17 5//17 6//17
f 6//17 7//17 4//17
f 7//17 8//17 4//17
f 8//17 9//17 10//17
f 10//17 11//17 8//17
f 11//17 13//17 8//17
f 13//17 14//17 15//17
f 15//17 16//17 13//17
f 16//17 17//17 13//17
f 17//17 2//17 4//17
f 17//17 4//17 8//17
