# Blender v2.83.0 OBJ File: ''
# www.blender.org
o Cone.185_Cone.1661
v -1.182950 -1.263025 -0.684191
v -1.418338 -1.385027 -0.706284
v -1.682799 -1.407447 -0.724660
v -1.936072 -1.326872 -0.736522
v -2.139597 -1.155568 -0.740063
v -2.262391 -0.919616 -0.734745
v -2.285758 -0.654936 -0.721377
v -2.206142 -0.401824 -0.701995
v -2.035663 -0.198814 -0.679548
v -1.800274 -0.076812 -0.657455
v -1.535813 -0.054392 -0.639079
v -1.282540 -0.134967 -0.627217
v -1.738271 -0.842948 1.310822
v -1.079015 -0.306271 -0.623676
v -0.956221 -0.542224 -0.628994
v -0.932854 -0.806903 -0.642362
v -1.012470 -1.060016 -0.661744
vn 0.4173 -0.8589 0.2970
vn 0.0629 -0.9613 0.2683
vn -0.3043 -0.9200 0.2469
vn -0.6282 -0.7414 0.2359
vn -0.8595 -0.4527 0.2372
vn -0.9632 -0.0977 0.2505
vn -0.9233 0.2695 0.2737
vn -0.7460 0.5929 0.3033
vn -0.4582 0.8234 0.3349
vn -0.1037 0.9258 0.3636
vn 0.2634 0.8845 0.3851
vn 0.5873 0.7059 0.3960
vn 0.8187 0.4171 0.3947
vn 0.9223 0.0622 0.3815
vn 0.8824 -0.3050 0.3582
vn 0.7051 -0.6284 0.3286
vn 0.0645 0.0560 -0.9963
s off
f 1//1 13//1 2//1
f 2//2 13//2 3//2
f 3//3 13//3 4//3
f 4//4 13//4 5//4
f 5//5 13//5 6//5
f 6//6 13//6 7//6
f 7//7 13//7 8//7
f 8//8 13//8 9//8
f 9//9 13//9 10//9
f 10//10 13//10 11//10
f 11//11 13//11 12//11
f 12//12 13//12 14//12
f 14//13 13//13 15//13
f 15//14 13//14 16//14
f 16//15 13//15 17//15
f 17//16 13//16 1//16
f 17//17 4//17 8//17
f 17//17 1//17 2//17
f 2//17 3//17 4//17
f 4//17 5//17 8//17
f 5//17 6//17 8//17
f 6//17 7//17 8//17
f 8//17 9//17 10//17
f 10//17 11//17 12//17
f 12//17 14//17 15//17
f 15//17 16//17 17//17
f 17//17 2//17 4//17
f 8//17 10//17 12//17
f 12//17 15//17 8//17
f 15//17 17//17 8//17
