# Blender v2.83.0 OBJ File: ''
# www.blender.org
o Cone.021_Cone.1497
v 0.282758 1.630401 0.777593
v 0.173822 2.020737 0.481929
v -0.110786 2.370799 0.262610
v -0.527736 2.627294 0.153024
v -1.013551 2.751173 0.169854
v -1.494272 2.723575 0.310540
v -1.896711 2.548704 0.553662
v -2.159602 2.253181 0.862207
v -2.242922 1.881997 1.189203
v -2.133986 1.491661 1.484866
v -1.849379 1.141599 1.704186
v -1.351677 0.504780 -0.531815
v -1.432429 0.885104 1.813772
v -0.946613 0.761225 1.796941
v -0.465893 0.788823 1.656256
v -0.063453 0.963694 1.413134
v 0.199438 1.259217 1.104588
vn 0.7115 -0.2872 -0.6413
vn 0.5795 -0.0388 -0.8140
vn 0.3442 0.1646 -0.9243
vn 0.0414 0.2922 -0.9555
vn -0.2828 0.3245 -0.9026
vn -0.5790 0.2566 -0.7739
vn -0.8022 0.0988 -0.5888
vn -0.9183 -0.1248 -0.3757
vn -0.9097 -0.3802 -0.1668
vn -0.7777 -0.6286 0.0059
vn -0.5424 -0.8320 0.1162
vn -0.2396 -0.9596 0.1473
vn 0.0846 -0.9919 0.0945
vn 0.3808 -0.9240 -0.0342
vn 0.6040 -0.7662 -0.2193
vn 0.7201 -0.5426 -0.4324
vn 0.1858 0.6257 0.7576
s off
f 1//1 12//1 2//1
f 2//2 12//2 3//2
f 3//3 12//3 4//3
f 4//4 12//4 5//4
f 5//5 12//5 6//5
f 6//6 12//6 7//6
f 7//7 12//7 8//7
f 8//8 12//8 9//8
f 9//9 12//9 10//9
f 10//10 12//10 11//10
f 11//11 12//11 13//11
f 13//12 12//12 14//12
f 14//13 12//13 15//13
f 15//14 12//14 16//14
f 16//15 12//15 17//15
f 17//16 12//16 1//16
f 15//17 17//17 8//17
f 17//17 1//17 2//17
f 2//17 3//17 4//17
f 4//17 5//17 6//17
f 6//17 7//17 8//17
f 8//17 9//17 10//17
f 10//17 11//17 13//17
f 13//17 14//17 15//17
f 15//17 16//17 17//17
f 17//17 2//17 8//17
f 2//17 4//17 8//17
f 4//17 6//17 8//17
f 8//17 10//17 13//17
f 13//17 15//17 8//17
