# Blender v2.83.0 OBJ File: ''
# www.blender.org
o Cone.123_Cone.1599
v 2.062765 -1.098896 -1.038143
v 2.289901 -0.523238 -0.879091
v 2.360340 0.008101 -0.531258
v 2.263361 0.414229 -0.047601
v 2.013726 0.633318 0.498250
v 1.649440 0.632012 1.023193
v 1.225964 0.410511 1.447309
v 0.807766 0.002537 1.706033
v 0.458515 -0.529801 1.759974
v 0.231380 -1.105459 1.600922
v 0.160940 -1.636798 1.253089
v -0.220707 0.053574 -0.664911
v 0.257920 -2.042927 0.769431
v 0.507555 -2.262016 0.223581
v 0.871840 -2.260710 -0.301362
v 1.295317 -2.039209 -0.725479
v 1.713514 -1.631234 -0.984202
vn -0.0193 0.2733 -0.9617
vn 0.0530 0.5420 -0.8387
vn 0.0465 0.7696 -0.6369
vn -0.0376 0.9213 -0.3870
vn -0.1866 0.9742 -0.1271
vn -0.3778 0.9201 0.1033
vn -0.5821 0.7673 0.2690
vn -0.7684 0.5391 0.3449
vn -0.9083 0.2701 0.3194
vn -0.9805 0.0014 0.1964
vn -0.9741 -0.2261 -0.0055
vn -0.8900 -0.3779 -0.2553
vn -0.7409 -0.4307 -0.5152
vn -0.5497 -0.3766 -0.7456
vn -0.3454 -0.2239 -0.9114
vn -0.1592 0.0044 -0.9872
vn 0.7407 -0.4340 0.5129
s off
f 1//1 12//1 2//1
f 2//2 12//2 3//2
f 3//3 12//3 4//3
f 4//4 12//4 5//4
f 5//5 12//5 6//5
f 6//6 12//6 7//6
f 7//7 12//7 8//7
f 8//8 12//8 9//8
f 9//9 12//9 10//9
f 10//10 12//10 11//10
f 11//11 12//11 13//11
f 13//12 12//12 14//12
f 14//13 12//13 15//13
f 15//14 12//14 16//14
f 16//15 12//15 17//15
f 17//16 12//16 1//16
f 4//17 8//17 13//17
f 17//17 1//17 4//17
f 1//17 2//17 4//17
f 2//17 3//17 4//17
f 4//17 5//17 6//17
f 6//17 7//17 8//17
f 8//17 9//17 13//17
f 9//17 10//17 13//17
f 10//17 11//17 13//17
f 13//17 14//17 15//17
f 15//17 16//17 17//17
f 4//17 6//17 8//17
f 13//17 15//17 17//17
f 17//17 4//17 13//17
