# Blender v2.83.0 OBJ File: ''
# www.blender.org
o Cone.127_Cone.1603
v 3.519016 -2.630929 -0.221488
v 3.649582 -2.444324 0.409563
v 3.529424 -2.330483 1.059712
v 3.176833 -2.306738 1.629983
v 2.645489 -2.376702 2.033556
v 2.016283 -2.529726 2.208991
v 1.385008 -2.742512 2.129579
v 0.847768 -2.982665 1.807411
v 0.486354 -3.213625 1.291533
v 0.355787 -3.400230 0.660483
v 0.475945 -3.514071 0.010333
v 0.828536 -3.537816 -0.559938
v 1.428126 -1.056147 0.102077
v 1.359881 -3.467851 -0.963511
v 1.989087 -3.314827 -1.138946
v 2.620362 -3.102042 -1.059534
v 3.157602 -2.861888 -0.737365
vn 0.5318 0.7759 -0.3395
vn 0.5342 0.8440 -0.0491
vn 0.4270 0.8751 0.2276
vn 0.2267 0.8647 0.4483
vn -0.0364 0.8141 0.5796
vn -0.3221 0.7312 0.6013
vn -0.5870 0.6285 0.5103
vn -0.7907 0.5217 0.3203
vn -0.9022 0.4271 0.0604
vn -0.9045 0.3590 -0.2300
vn -0.7974 0.3278 -0.5067
vn -0.5970 0.3383 -0.7274
vn -0.3340 0.3888 -0.8586
vn -0.0483 0.4718 -0.8804
vn 0.2166 0.5744 -0.7894
vn 0.4203 0.6812 -0.5994
vn 0.2873 -0.9331 0.2165
s off
f 1//1 13//1 2//1
f 2//2 13//2 3//2
f 3//3 13//3 4//3
f 4//4 13//4 5//4
f 5//5 13//5 6//5
f 6//6 13//6 7//6
f 7//7 13//7 8//7
f 8//8 13//8 9//8
f 9//9 13//9 10//9
f 10//10 13//10 11//10
f 11//11 13//11 12//11
f 12//12 13//12 14//12
f 14//13 13//13 15//13
f 15//14 13//14 16//14
f 16//15 13//15 17//15
f 17//16 13//16 1//16
f 8//17 12//17 17//17
f 17//17 1//17 2//17
f 2//17 3//17 4//17
f 4//17 5//17 6//17
f 6//17 7//17 4//17
f 7//17 8//17 4//17
f 8//17 9//17 10//17
f 10//17 11//17 12//17
f 12//17 14//17 15//17
f 15//17 16//17 17//17
f 17//17 2//17 4//17
f 8//17 10//17 12//17
f 12//17 15//17 17//17
f 17//17 4//17 8//17
