# Blender v2.83.0 OBJ File: ''
# www.blender.org
o Cone.030_Cone.1506
v 0.654864 -0.463381 1.117666
v 0.424348 -0.422120 0.997578
v 0.173584 -0.466159 0.930954
v -0.059251 -0.588793 0.927934
v -0.238712 -0.771353 0.988980
v -0.337476 -0.986045 1.104797
v -0.340508 -1.200185 1.257754
v -0.247345 -1.381172 1.424563
v 0.897838 -2.095830 -0.198015
v -0.072172 -1.501451 1.579831
v 0.158343 -1.542712 1.699918
v 0.409107 -1.498674 1.766543
v 0.641943 -1.376039 1.769563
v 0.821403 -1.193479 1.708517
v 0.920168 -0.978787 1.592700
v 0.923199 -0.764647 1.439743
v 0.830037 -0.583660 1.272933
vn 0.4515 0.5997 -0.6607
vn 0.1062 0.5977 -0.7947
vn -0.2409 0.4781 -0.8446
vn -0.5367 0.2591 -0.8030
vn -0.7364 -0.0260 -0.6761
vn -0.8094 -0.3337 -0.4832
vn -0.7447 -0.6172 -0.2538
vn -0.5522 -0.8334 -0.0226
vn -0.2611 -0.9493 0.1749
vn 0.0843 -0.9473 0.3089
vn 0.4313 -0.8277 0.3589
vn 0.7272 -0.6087 0.3173
vn 0.9268 -0.3237 0.1904
vn 0.9999 -0.0160 -0.0025
vn 0.9352 0.2676 -0.2320
vn 0.7426 0.4838 -0.4631
vn -0.3032 0.5567 0.7734
s off
f 1//1 9//1 2//1
f 2//2 9//2 3//2
f 3//3 9//3 4//3
f 4//4 9//4 5//4
f 5//5 9//5 6//5
f 6//6 9//6 7//6
f 7//7 9//7 8//7
f 8//8 9//8 10//8
f 10//9 9//9 11//9
f 11//10 9//10 12//10
f 12//11 9//11 13//11
f 13//12 9//12 14//12
f 14//13 9//13 15//13
f 15//14 9//14 16//14
f 16//15 9//15 17//15
f 17//16 9//16 1//16
f 8//17 13//17 17//17
f 17//17 1//17 2//17
f 2//17 3//17 4//17
f 4//17 5//17 6//17
f 6//17 7//17 8//17
f 8//17 10//17 11//17
f 11//17 12//17 13//17
f 13//17 14//17 15//17
f 15//17 16//17 13//17
f 16//17 17//17 13//17
f 17//17 2//17 4//17
f 4//17 6//17 8//17
f 8//17 11//17 13//17
f 17//17 4//17 8//17
