# Blender v2.83.0 OBJ File: ''
# www.blender.org
o Cone.069_Cone.1545
v -0.101498 1.402350 -1.733312
v 0.186569 1.121869 -1.725154
v 0.348570 0.756966 -1.676992
v 0.359843 0.363193 -1.596157
v 0.218671 0.000499 -1.494956
v -0.053455 -0.275900 -1.388795
v -0.415104 -0.423924 -1.293837
v -0.811220 -0.421037 -1.224538
v -1.181497 -0.267681 -1.191449
v -1.469564 0.012800 -1.199606
v -1.631566 0.377703 -1.247769
v -0.301138 0.972993 0.466245
v -1.642839 0.771476 -1.328604
v -1.501666 1.134170 -1.429805
v -1.229541 1.410569 -1.535965
v -0.867891 1.558593 -1.630923
v -0.471775 1.555707 -1.700222
vn 0.6807 0.7049 0.1994
vn 0.8794 0.4200 0.2242
vn 0.9559 0.0851 0.2812
vn 0.8985 -0.2489 0.3615
vn 0.7161 -0.5310 0.4531
vn 0.4363 -0.7183 0.5419
vn 0.1018 -0.7824 0.6144
vn -0.2365 -0.7134 0.6596
vn -0.5272 -0.5219 0.6706
vn -0.7258 -0.2370 0.6457
vn -0.8023 0.0979 0.5888
vn -0.7450 0.4318 0.5084
vn -0.5625 0.7140 0.4169
vn -0.2828 0.9013 0.3281
vn 0.0517 0.9654 0.2556
vn 0.3901 0.8964 0.2104
vn -0.1702 -0.2028 -0.9643
s off
f 1//1 12//1 2//1
f 2//2 12//2 3//2
f 3//3 12//3 4//3
f 4//4 12//4 5//4
f 5//5 12//5 6//5
f 6//6 12//6 7//6
f 7//7 12//7 8//7
f 8//8 12//8 9//8
f 9//9 12//9 10//9
f 10//10 12//10 11//10
f 11//11 12//11 13//11
f 13//12 12//12 14//12
f 14//13 12//13 15//13
f 15//14 12//14 16//14
f 16//15 12//15 17//15
f 17//16 12//16 1//16
f 8//17 13//17 17//17
f 17//17 1//17 2//17
f 2//17 3//17 17//17
f 3//17 4//17 17//17
f 4//17 5//17 6//17
f 6//17 7//17 8//17
f 8//17 9//17 10//17
f 10//17 11//17 8//17
f 11//17 13//17 8//17
f 13//17 14//17 15//17
f 15//17 16//17 17//17
f 4//17 6//17 17//17
f 6//17 8//17 17//17
f 13//17 15//17 17//17
