# Blender v2.83.0 OBJ File: ''
# www.blender.org
o Cone.058_Cone.1534
v 0.043945 -0.287414 -2.452039
v 0.246821 -0.837807 -2.620431
v 0.368457 -1.433687 -2.569661
v 0.390336 -1.984338 -2.307457
v 0.309126 -2.405929 -1.873737
v 0.137190 -2.634275 -1.334531
v -0.099295 -2.634614 -0.771929
v -0.364327 -2.406893 -0.271582
v -0.617557 -1.985781 0.090338
v -0.820433 -1.435389 0.258731
v -0.942070 -0.839509 0.207961
v 1.513325 -0.704646 -0.423920
v -0.963948 -0.288857 -0.054243
v -0.882738 0.132733 -0.487963
v -0.710803 0.361080 -1.027169
v -0.474317 0.361418 -1.589772
v -0.209285 0.133697 -2.090119
vn 0.7713 0.4283 -0.4707
vn 0.8553 0.1319 -0.5011
vn 0.8924 -0.1646 -0.4202
vn 0.8770 -0.4161 -0.2402
vn 0.8116 -0.5842 0.0114
vn 0.7059 -0.6433 0.2963
vn 0.5762 -0.5845 0.5712
vn 0.4422 -0.4167 0.7942
vn 0.3242 -0.1654 0.9314
vn 0.2403 0.1310 0.9618
vn 0.2032 0.4275 0.8809
vn 0.2185 0.6790 0.7009
vn 0.2840 0.8470 0.4493
vn 0.3896 0.9062 0.1643
vn 0.5193 0.8474 -0.1106
vn 0.6534 0.6796 -0.3336
vn -0.9001 -0.2160 -0.3785
s off
f 1//1 12//1 2//1
f 2//2 12//2 3//2
f 3//3 12//3 4//3
f 4//4 12//4 5//4
f 5//5 12//5 6//5
f 6//6 12//6 7//6
f 7//7 12//7 8//7
f 8//8 12//8 9//8
f 9//9 12//9 10//9
f 10//10 12//10 11//10
f 11//11 12//11 13//11
f 13//12 12//12 14//12
f 14//13 12//13 15//13
f 15//14 12//14 16//14
f 16//15 12//15 17//15
f 17//16 12//16 1//16
f 8//17 13//17 17//17
f 17//17 1//17 2//17
f 2//17 3//17 4//17
f 4//17 5//17 6//17
f 6//17 7//17 4//17
f 7//17 8//17 4//17
f 8//17 9//17 10//17
f 10//17 11//17 13//17
f 13//17 14//17 17//17
f 14//17 15//17 17//17
f 15//17 16//17 17//17
f 17//17 2//17 8//17
f 2//17 4//17 8//17
f 8//17 10//17 13//17
