# Blender v2.83.0 OBJ File: ''
# www.blender.org
o Cone.053_Cone.1529
v 0.495184 -0.187261 -2.565556
v 0.384237 -0.770454 -2.476068
v 0.084347 -1.255646 -2.288758
v -0.358830 -1.568973 -2.032141
v -0.877823 -1.662732 -1.745286
v -1.393621 -1.522651 -1.471862
v -1.827698 -1.170054 -1.253497
v -2.113971 -0.658622 -1.123435
v 0.097544 -0.038945 -0.078110
v -2.208856 -0.066216 -1.101476
v -2.097908 0.516977 -1.190963
v -1.798019 1.002170 -1.378273
v -1.354843 1.315497 -1.634890
v -0.835849 1.409256 -1.921746
v -0.320051 1.269174 -2.195170
v 0.114027 0.916577 -2.413535
v 0.400300 0.405145 -2.543597
vn 0.9732 -0.1598 0.1651
vn 0.8646 -0.4424 0.2383
vn 0.6681 -0.6536 0.3557
vn 0.4136 -0.7612 0.4995
vn 0.1399 -0.7490 0.6476
vn -0.1113 -0.6187 0.7777
vn -0.3018 -0.3902 0.8699
vn -0.4026 -0.0982 0.9101
vn -0.3984 0.2127 0.8922
vn -0.2897 0.4953 0.8190
vn -0.0932 0.7065 0.7016
vn 0.1613 0.8141 0.5579
vn 0.4349 0.8019 0.4097
vn 0.6862 0.6716 0.2796
vn 0.8767 0.4430 0.1875
vn 0.9775 0.1511 0.1473
vn -0.4772 -0.0439 -0.8777
s off
f 1//1 9//1 2//1
f 2//2 9//2 3//2
f 3//3 9//3 4//3
f 4//4 9//4 5//4
f 5//5 9//5 6//5
f 6//6 9//6 7//6
f 7//7 9//7 8//7
f 8//8 9//8 10//8
f 10//9 9//9 11//9
f 11//10 9//10 12//10
f 12//11 9//11 13//11
f 13//12 9//12 14//12
f 14//13 9//13 15//13
f 15//14 9//14 16//14
f 16//15 9//15 17//15
f 17//16 9//16 1//16
f 8//17 13//17 17//17
f 17//17 1//17 2//17
f 2//17 3//17 17//17
f 3//17 4//17 17//17
f 4//17 5//17 8//17
f 5//17 6//17 8//17
f 6//17 7//17 8//17
f 8//17 10//17 13//17
f 10//17 11//17 13//17
f 11//17 12//17 13//17
f 13//17 14//17 15//17
f 15//17 16//17 17//17
f 13//17 15//17 17//17
f 17//17 4//17 8//17
