# Blender v2.83.0 OBJ File: ''
# www.blender.org
o Cone.189_Cone.1665
v 1.337896 0.306190 1.957759
v 1.458425 0.773253 1.493824
v 1.423473 1.076833 0.898400
v 1.238362 1.170711 0.262136
v 0.931272 1.040596 -0.318103
v 0.548955 0.706297 -0.753981
v 0.149616 0.218708 -0.979139
v -0.205950 -0.347941 -0.959299
v -0.463610 -0.907382 -0.697482
v -0.584140 -1.374445 -0.233547
v -0.549188 -1.678024 0.361877
v -0.364077 -1.771902 0.998141
v 2.038690 -1.327166 0.012726
v -0.056987 -1.641788 1.578380
v 0.325330 -1.307488 2.014258
v 0.724669 -0.819899 2.239416
v 1.080235 -0.253250 2.219576
vn 0.9526 0.0519 0.2997
vn 0.9721 0.2271 0.0587
vn 0.9220 0.3175 -0.2214
vn 0.8101 0.3093 -0.4981
vn 0.6533 0.2037 -0.7292
vn 0.4755 0.0167 -0.8796
vn 0.3038 -0.2231 -0.9263
vn 0.1643 -0.4792 -0.8622
vn 0.0783 -0.7127 -0.6971
vn 0.0588 -0.8879 -0.4562
vn 0.1089 -0.9783 -0.1760
vn 0.2208 -0.9701 0.1007
vn 0.3776 -0.8645 0.3318
vn 0.5554 -0.6775 0.4821
vn 0.7271 -0.4378 0.5288
vn 0.8666 -0.1816 0.4648
vn -0.8008 0.5133 0.3087
s off
f 1//1 13//1 2//1
f 2//2 13//2 3//2
f 3//3 13//3 4//3
f 4//4 13//4 5//4
f 5//5 13//5 6//5
f 6//6 13//6 7//6
f 7//7 13//7 8//7
f 8//8 13//8 9//8
f 9//9 13//9 10//9
f 10//10 13//10 11//10
f 11//11 13//11 12//11
f 12//12 13//12 14//12
f 14//13 13//13 15//13
f 15//14 13//14 16//14
f 16//15 13//15 17//15
f 17//16 13//16 1//16
f 17//17 4//17 8//17
f 17//17 1//17 2//17
f 2//17 3//17 17//17
f 3//17 4//17 17//17
f 4//17 5//17 8//17
f 5//17 6//17 8//17
f 6//17 7//17 8//17
f 8//17 9//17 10//17
f 10//17 11//17 12//17
f 12//17 14//17 15//17
f 15//17 16//17 17//17
f 8//17 10//17 12//17
f 12//17 15//17 8//17
f 15//17 17//17 8//17
