# Blender v2.83.0 OBJ File: ''
# www.blender.org
o Cone.145_Cone.1621
v 0.120527 -1.250849 -1.695311
v 0.499943 -1.155263 -1.342321
v 0.756203 -1.185244 -0.882834
v 0.850291 -1.336228 -0.386803
v 0.767884 -1.585230 0.070257
v 0.521528 -1.894341 0.418761
v 0.148729 -2.216502 0.605653
v -0.293759 -2.502666 0.602481
v -0.738571 -2.709268 0.409728
v -1.117988 -2.804855 0.056738
v -1.374247 -2.774873 -0.402748
v -1.468336 -2.623889 -0.898780
v -1.334787 -0.401429 0.032290
v -1.385929 -2.374887 -1.355839
v -1.139573 -2.065776 -1.704344
v -0.766773 -1.743615 -1.891236
v -0.324285 -1.457451 -1.888064
vn 0.1066 0.9249 -0.3650
vn 0.3066 0.9455 -0.1093
vn 0.4169 0.8886 0.1914
vn 0.4205 0.7627 0.4913
vn 0.3171 0.5871 0.7449
vn 0.1222 0.3884 0.9133
vn -0.1343 0.1970 0.9712
vn -0.4136 0.0419 0.9095
vn -0.6730 -0.0532 0.7378
vn -0.8730 -0.0738 0.4821
vn -0.9833 -0.0169 0.1814
vn -0.9869 0.1090 -0.1186
vn -0.8835 0.2846 -0.3721
vn -0.6886 0.4833 -0.5406
vn -0.4321 0.6747 -0.5984
vn -0.1528 0.8298 -0.5367
vn 0.5129 -0.7893 -0.3375
s off
f 1//1 13//1 2//1
f 2//2 13//2 3//2
f 3//3 13//3 4//3
f 4//4 13//4 5//4
f 5//5 13//5 6//5
f 6//6 13//6 7//6
f 7//7 13//7 8//7
f 8//8 13//8 9//8
f 9//9 13//9 10//9
f 10//10 13//10 11//10
f 11//11 13//11 12//11
f 12//12 13//12 14//12
f 14//13 13//13 15//13
f 15//14 13//14 16//14
f 16//15 13//15 17//15
f 17//16 13//16 1//16
f 4//17 8//17 12//17
f 17//17 1//17 2//17
f 2//17 3//17 4//17
f 4//17 5//17 6//17
f 6//17 7//17 4//17
f 7//17 8//17 4//17
f 8//17 9//17 10//17
f 10//17 11//17 12//17
f 12//17 14//17 15//17
f 15//17 16//17 12//17
f 16//17 17//17 12//17
f 17//17 2//17 4//17
f 8//17 10//17 12//17
f 17//17 4//17 12//17
