# Blender v2.83.0 OBJ File: ''
# www.blender.org
o Cone.011_Cone.1487
v -0.686479 -1.927863 2.596208
v -0.764304 -1.590827 2.965466
v -0.876049 -1.143752 3.174366
v -1.004703 -0.654702 3.191103
v -1.130679 -0.198130 3.013131
v -1.234798 0.156455 2.667543
v -1.301210 0.355070 2.206953
v -1.319803 0.367479 1.701481
v 0.945755 -0.357554 1.853578
v -1.287747 0.191792 1.228080
v -1.209922 -0.145245 0.858822
v -1.098177 -0.592319 0.649922
v -0.969523 -1.081370 0.633184
v -0.843547 -1.537942 0.811157
v -0.739427 -1.892527 1.156744
v -0.673016 -2.091142 1.617335
v -0.654423 -2.103550 2.122808
vn 0.6922 -0.4544 0.5606
vn 0.6294 -0.1943 0.7524
vn 0.5496 0.1163 0.8273
vn 0.4651 0.4300 0.7738
vn 0.3888 0.6991 0.6001
vn 0.3322 0.8826 0.3327
vn 0.3040 0.9526 0.0122
vn 0.3085 0.8984 -0.3125
vn 0.3449 0.7283 -0.5921
vn 0.4078 0.4682 -0.7839
vn 0.4876 0.1577 -0.8587
vn 0.5721 -0.1560 -0.8052
vn 0.6484 -0.4251 -0.6315
vn 0.7050 -0.6087 -0.3641
vn 0.7332 -0.6787 -0.0436
vn 0.7287 -0.6245 0.2811
vn -0.9664 -0.2552 0.0293
s off
f 1//1 9//1 2//1
f 2//2 9//2 3//2
f 3//3 9//3 4//3
f 4//4 9//4 5//4
f 5//5 9//5 6//5
f 6//6 9//6 7//6
f 7//7 9//7 8//7
f 8//8 9//8 10//8
f 10//9 9//9 11//9
f 11//10 9//10 12//10
f 12//11 9//11 13//11
f 13//12 9//12 14//12
f 14//13 9//13 15//13
f 15//14 9//14 16//14
f 16//15 9//15 17//15
f 17//16 9//16 1//16
f 4//17 8//17 13//17
f 17//17 1//17 2//17
f 2//17 3//17 4//17
f 4//17 5//17 6//17
f 6//17 7//17 8//17
f 8//17 10//17 11//17
f 11//17 12//17 8//17
f 12//17 13//17 8//17
f 13//17 14//17 15//17
f 15//17 16//17 13//17
f 16//17 17//17 13//17
f 17//17 2//17 4//17
f 4//17 6//17 8//17
f 17//17 4//17 13//17
