# Blender v2.83.0 OBJ File: ''
# www.blender.org
o Cone.240_Cone.1716
v 0.599187 -0.172449 -1.699439
v 0.986636 -0.315990 -1.782170
v 1.304564 -0.592156 -1.797002
v 1.504569 -0.958902 -1.741675
v 1.556203 -1.360394 -1.624613
v 1.451604 -1.735510 -1.463638
v 1.206696 -2.027140 -1.283257
v 0.858765 -2.190888 -1.110930
v 0.460780 -2.201824 -0.972894
v 0.073331 -2.058283 -0.890163
v -0.244597 -1.782117 -0.875331
v -0.444603 -1.415371 -0.930658
v 1.139790 -0.582109 0.469956
v -0.496236 -1.013879 -1.047720
v -0.391637 -0.638763 -1.208695
v -0.146729 -0.347132 -1.389076
v 0.201202 -0.183385 -1.561403
vn 0.3621 0.9283 0.0851
vn 0.6563 0.7532 0.0444
vn 0.8724 0.4850 0.0613
vn 0.9773 0.1645 0.1332
vn 0.9552 -0.1594 0.2492
vn 0.8095 -0.4376 0.3916
vn 0.5621 -0.6275 0.5387
vn 0.2510 -0.7004 0.6682
vn -0.0767 -0.6451 0.7602
vn -0.3709 -0.4700 0.8009
vn -0.5870 -0.2018 0.7841
vn -0.6919 0.1187 0.7121
vn -0.6698 0.4426 0.5962
vn -0.5240 0.7207 0.4538
vn -0.2767 0.9107 0.3066
vn 0.0344 0.9836 0.1772
vn -0.3049 -0.3025 -0.9031
s off
f 1//1 13//1 2//1
f 2//2 13//2 3//2
f 3//3 13//3 4//3
f 4//4 13//4 5//4
f 5//5 13//5 6//5
f 6//6 13//6 7//6
f 7//7 13//7 8//7
f 8//8 13//8 9//8
f 9//9 13//9 10//9
f 10//10 13//10 11//10
f 11//11 13//11 12//11
f 12//12 13//12 14//12
f 14//13 13//13 15//13
f 15//14 13//14 16//14
f 16//15 13//15 17//15
f 17//16 13//16 1//16
f 4//17 8//17 12//17
f 17//17 1//17 4//17
f 1//17 2//17 4//17
f 2//17 3//17 4//17
f 4//17 5//17 6//17
f 6//17 7//17 4//17
f 7//17 8//17 4//17
f 8//17 9//17 10//17
f 10//17 11//17 8//17
f 11//17 12//17 8//17
f 12//17 14//17 17//17
f 14//17 15//17 17//17
f 15//17 16//17 17//17
f 17//17 4//17 12//17
