# Blender v2.83.0 OBJ File: ''
# www.blender.org
o Cone.161_Cone.1637
v 2.850903 -1.421854 1.746551
v 2.842935 -1.949713 1.584198
v 2.840102 -2.375330 1.232208
v 2.842835 -2.633912 0.744167
v 2.850718 -2.686090 0.194375
v 2.862552 -2.523921 -0.333467
v 2.876534 -2.172094 -0.759000
v 2.890535 -1.684172 -1.017441
v 2.902426 -1.134435 -1.069443
v 2.910394 -0.606577 -0.907091
v 2.913227 -0.180959 -0.555101
v 2.910494 0.077623 -0.067059
v 0.877332 -1.237974 0.306073
v 2.902610 0.129801 0.482733
v 2.890777 -0.032368 1.010575
v 2.876795 -0.384195 1.436108
v 2.862793 -0.872118 1.694548
vn -0.5877 -0.2297 0.7758
vn -0.5909 -0.5118 0.6236
vn -0.5909 -0.7142 0.3751
vn -0.5877 -0.8062 0.0681
vn -0.5819 -0.7736 -0.2507
vn -0.5743 -0.6216 -0.5328
vn -0.5660 -0.3731 -0.7351
vn -0.5583 -0.0662 -0.8270
vn -0.5525 0.2527 -0.7943
vn -0.5493 0.5347 -0.6422
vn -0.5492 0.7372 -0.3936
vn -0.5524 0.8291 -0.0866
vn -0.5582 0.7965 0.2322
vn -0.5658 0.6445 0.5143
vn -0.5741 0.3960 0.7166
vn -0.5818 0.0891 0.8085
vn 0.9997 -0.0201 0.0162
s off
f 1//1 13//1 2//1
f 2//2 13//2 3//2
f 3//3 13//3 4//3
f 4//4 13//4 5//4
f 5//5 13//5 6//5
f 6//6 13//6 7//6
f 7//7 13//7 8//7
f 8//8 13//8 9//8
f 9//9 13//9 10//9
f 10//10 13//10 11//10
f 11//11 13//11 12//11
f 12//12 13//12 14//12
f 14//13 13//13 15//13
f 15//14 13//14 16//14
f 16//15 13//15 17//15
f 17//16 13//16 1//16
f 17//17 4//17 8//17
f 17//17 1//17 2//17
f 2//17 3//17 4//17
f 4//17 5//17 6//17
f 6//17 7//17 4//17
f 7//17 8//17 4//17
f 8//17 9//17 10//17
f 10//17 11//17 12//17
f 12//17 14//17 15//17
f 15//17 16//17 17//17
f 17//17 2//17 4//17
f 8//17 10//17 12//17
f 12//17 15//17 8//17
f 15//17 17//17 8//17
