# Blender v2.83.0 OBJ File: ''
# www.blender.org
o Cone.163_Cone.1639
v -0.314899 0.656541 -1.225013
v -0.041122 1.098781 -1.168120
v 0.379862 1.409450 -1.163171
v 0.883959 1.541253 -1.210922
v 1.394428 1.474123 -1.304102
v 1.833552 1.218280 -1.428525
v 2.134480 0.812675 -1.565249
v 2.251398 0.319057 -1.693460
v 2.166506 -0.187426 -1.793637
v 1.892729 -0.629665 -1.850531
v 1.471745 -0.940335 -1.855479
v 1.221449 -0.196815 0.421092
v 0.967647 -1.072137 -1.807729
v 0.457179 -1.005007 -1.714549
v 0.018054 -0.749165 -1.590126
v -0.282874 -0.343559 -1.453401
v -0.399791 0.150060 -1.325191
vn -0.6200 0.2900 0.7290
vn -0.3993 0.5292 0.7487
vn -0.1055 0.6697 0.7351
vn 0.2168 0.6903 0.6903
vn 0.5184 0.5877 0.6212
vn 0.7535 0.3776 0.5382
vn 0.8862 0.0920 0.4541
vn 0.8964 -0.2257 0.3815
vn 0.7824 -0.5271 0.3316
vn 0.5618 -0.7662 0.3120
vn 0.2679 -0.9068 0.3256
vn -0.0543 -0.9273 0.3704
vn -0.3560 -0.8247 0.4395
vn -0.5910 -0.6146 0.5224
vn -0.7238 -0.3290 0.6066
vn -0.7339 -0.0113 0.6791
vn -0.1478 0.2157 -0.9652
s off
f 1//1 12//1 2//1
f 2//2 12//2 3//2
f 3//3 12//3 4//3
f 4//4 12//4 5//4
f 5//5 12//5 6//5
f 6//6 12//6 7//6
f 7//7 12//7 8//7
f 8//8 12//8 9//8
f 9//9 12//9 10//9
f 10//10 12//10 11//10
f 11//11 12//11 13//11
f 13//12 12//12 14//12
f 14//13 12//13 15//13
f 15//14 12//14 16//14
f 16//15 12//15 17//15
f 17//16 12//16 1//16
f 17//17 4//17 8//17
f 17//17 1//17 2//17
f 2//17 3//17 4//17
f 4//17 5//17 6//17
f 6//17 7//17 8//17
f 8//17 9//17 10//17
f 10//17 11//17 13//17
f 13//17 14//17 15//17
f 15//17 16//17 17//17
f 17//17 2//17 4//17
f 4//17 6//17 8//17
f 8//17 10//17 13//17
f 13//17 15//17 8//17
f 15//17 17//17 8//17
