# Blender v2.83.0 OBJ File: ''
# www.blender.org
o Cone.211_Cone.1687
v 0.120746 1.787905 2.830037
v 0.039656 2.290888 2.855248
v -0.218928 2.729007 2.817996
v -0.615641 3.035563 2.723952
v -1.090086 3.163886 2.587434
v -1.570033 3.094441 2.429225
v -1.982415 2.837798 2.273412
v -2.264450 2.433031 2.143714
v -2.373201 1.941760 2.059879
v -2.292112 1.438778 2.034667
v -2.033527 1.000659 2.071919
v -1.636815 0.694103 2.165963
v -0.528036 2.056446 0.546155
v -1.162369 0.565779 2.302481
v -0.682422 0.635225 2.460690
v -0.270040 0.891868 2.616503
v 0.011995 1.296635 2.746201
vn 0.9535 0.1663 -0.2513
vn 0.8420 0.4753 -0.2553
vn 0.6269 0.7197 -0.2984
vn 0.3409 0.8625 -0.3740
vn 0.0276 0.8818 -0.4708
vn -0.2653 0.7748 -0.5739
vn -0.4933 0.5576 -0.6676
vn -0.6216 0.2635 -0.7377
vn -0.6307 -0.0629 -0.7735
vn -0.5191 -0.3718 -0.7696
vn -0.3040 -0.6163 -0.7265
vn -0.0181 -0.7591 -0.6508
vn 0.2953 -0.7784 -0.5540
vn 0.5882 -0.6713 -0.4509
vn 0.8161 -0.4542 -0.3572
vn 0.9444 -0.1601 -0.2871
vn -0.2991 -0.0958 0.9494
s off
f 1//1 13//1 2//1
f 2//2 13//2 3//2
f 3//3 13//3 4//3
f 4//4 13//4 5//4
f 5//5 13//5 6//5
f 6//6 13//6 7//6
f 7//7 13//7 8//7
f 8//8 13//8 9//8
f 9//9 13//9 10//9
f 10//10 13//10 11//10
f 11//11 13//11 12//11
f 12//12 13//12 14//12
f 14//13 13//13 15//13
f 15//14 13//14 16//14
f 16//15 13//15 17//15
f 17//16 13//16 1//16
f 17//17 4//17 8//17
f 17//17 1//17 4//17
f 1//17 2//17 4//17
f 2//17 3//17 4//17
f 4//17 5//17 6//17
f 6//17 7//17 4//17
f 7//17 8//17 4//17
f 8//17 9//17 12//17
f 9//17 10//17 12//17
f 10//17 11//17 12//17
f 12//17 14//17 15//17
f 15//17 16//17 17//17
f 12//17 15//17 8//17
f 15//17 17//17 8//17
