# Blender v2.83.0 OBJ File: ''
# www.blender.org
o Cone.180_Cone.1656
v 0.188721 -0.191964 1.465832
v -0.000993 -0.380217 1.183119
v -0.194965 -0.425719 0.848961
v -0.363662 -0.321543 0.514229
v -0.481403 -0.083547 0.229883
v -0.530263 0.252034 0.039213
v -0.502803 0.634112 -0.028754
v -0.403204 1.004519 0.036330
v -0.246628 1.306863 0.224555
v -0.056914 1.495116 0.507268
v 0.137057 1.540618 0.841426
v -1.756883 0.852905 1.807984
v 0.305755 1.436442 1.176158
v 0.423496 1.198446 1.460504
v 0.472356 0.862865 1.651174
v 0.444896 0.480787 1.719141
v 0.345296 0.110380 1.654057
vn -0.2667 -0.7100 0.6517
vn -0.4429 -0.8174 0.3684
vn -0.6095 -0.7904 0.0612
vn -0.7411 -0.6333 -0.2232
vn -0.8176 -0.3698 -0.4414
vn -0.8274 -0.0402 -0.5602
vn -0.7691 0.3054 -0.5615
vn -0.6514 0.6145 -0.4451
vn -0.4923 0.8398 -0.2288
vn -0.3161 0.9472 0.0545
vn -0.1495 0.9202 0.3617
vn -0.0180 0.7630 0.6461
vn 0.0586 0.4996 0.8643
vn 0.0684 0.1700 0.9831
vn 0.0100 -0.1757 0.9844
vn -0.1076 -0.4847 0.8681
vn 0.8640 -0.1477 -0.4814
s off
f 1//1 12//1 2//1
f 2//2 12//2 3//2
f 3//3 12//3 4//3
f 4//4 12//4 5//4
f 5//5 12//5 6//5
f 6//6 12//6 7//6
f 7//7 12//7 8//7
f 8//8 12//8 9//8
f 9//9 12//9 10//9
f 10//10 12//10 11//10
f 11//11 12//11 13//11
f 13//12 12//12 14//12
f 14//13 12//13 15//13
f 15//14 12//14 16//14
f 16//15 12//15 17//15
f 17//16 12//16 1//16
f 8//17 13//17 17//17
f 17//17 1//17 2//17
f 2//17 3//17 4//17
f 4//17 5//17 8//17
f 5//17 6//17 8//17
f 6//17 7//17 8//17
f 8//17 9//17 10//17
f 10//17 11//17 13//17
f 13//17 14//17 15//17
f 15//17 16//17 17//17
f 17//17 2//17 4//17
f 8//17 10//17 13//17
f 13//17 15//17 17//17
f 17//17 4//17 8//17
