# Blender v2.83.0 OBJ File: ''
# www.blender.org
o Cone.050_Cone.1526
v 1.736905 -2.834824 2.558244
v 1.528036 -2.581617 2.733675
v 1.244757 -2.345887 2.785634
v 0.930193 -2.163522 2.706211
v 0.632234 -2.062284 2.507497
v 0.396242 -2.057587 2.219745
v 0.258144 -2.150145 1.886762
v 0.238964 -2.325868 1.559242
v 2.103184 -1.230838 1.074023
v 0.341623 -2.558003 1.287047
v 0.550491 -2.811210 1.111616
v 0.833770 -3.046940 1.059657
v 1.148334 -3.229306 1.139080
v 1.446293 -3.330544 1.337794
v 1.682286 -3.335241 1.625546
v 1.820384 -3.242682 1.958529
v 1.839563 -3.066959 2.286049
vn 0.7997 0.2991 0.5205
vn 0.5615 0.5358 0.6306
vn 0.2721 0.7382 0.6173
vn -0.0245 0.8755 0.4827
vn -0.2829 0.9267 0.2472
vn -0.4641 0.8842 -0.0533
vn -0.5402 0.7543 -0.3731
vn -0.4998 0.5569 -0.6634
vn -0.3490 0.3219 -0.8801
vn -0.1107 0.0852 -0.9902
vn 0.1787 -0.1172 -0.9769
vn 0.4752 -0.2545 -0.8422
vn 0.7337 -0.3058 -0.6067
vn 0.9148 -0.2632 -0.3062
vn 0.9910 -0.1334 0.0135
vn 0.9506 0.0641 0.3038
vn -0.5320 -0.7328 0.4243
s off
f 1//1 9//1 2//1
f 2//2 9//2 3//2
f 3//3 9//3 4//3
f 4//4 9//4 5//4
f 5//5 9//5 6//5
f 6//6 9//6 7//6
f 7//7 9//7 8//7
f 8//8 9//8 10//8
f 10//9 9//9 11//9
f 11//10 9//10 12//10
f 12//11 9//11 13//11
f 13//12 9//12 14//12
f 14//13 9//13 15//13
f 15//14 9//14 16//14
f 16//15 9//15 17//15
f 17//16 9//16 1//16
f 8//17 13//17 17//17
f 17//17 1//17 2//17
f 2//17 3//17 4//17
f 4//17 5//17 6//17
f 6//17 7//17 8//17
f 8//17 10//17 11//17
f 11//17 12//17 13//17
f 13//17 14//17 15//17
f 15//17 16//17 13//17
f 16//17 17//17 13//17
f 17//17 2//17 4//17
f 4//17 6//17 17//17
f 6//17 8//17 17//17
f 8//17 11//17 13//17
