# Blender v2.83.0 OBJ File: ''
# www.blender.org
o Cone.228_Cone.1704
v 2.830339 -1.327326 -2.763465
v 2.416312 -1.383065 -3.179338
v 1.878683 -1.356458 -3.419594
v 1.299300 -1.251555 -3.447654
v 0.766370 -1.084327 -3.259249
v 0.361027 -0.880234 -2.883059
v 0.144980 -0.670346 -2.376357
v 0.151120 -0.486617 -1.816284
v 0.378513 -0.357018 -1.288106
v 0.792540 -0.301279 -0.872232
v 1.330170 -0.327886 -0.631977
v 1.236581 -2.708915 -1.409377
v 1.909552 -0.432789 -0.603916
v 2.442482 -0.600017 -0.792322
v 2.847826 -0.804110 -1.168512
v 3.063873 -1.013998 -1.675214
v 3.057732 -1.197728 -2.235287
vn 0.4430 -0.8338 -0.3293
vn 0.1850 -0.8417 -0.5072
vn -0.1179 -0.8061 -0.5800
vn -0.4194 -0.7323 -0.5365
vn -0.6738 -0.6316 -0.3834
vn -0.8423 -0.5194 -0.1440
vn -0.8992 -0.4126 0.1452
vn -0.8359 -0.3277 0.4403
vn -0.6620 -0.2774 0.6963
vn -0.4040 -0.2695 0.8742
vn -0.1011 -0.3052 0.9469
vn 0.2005 -0.3790 0.9034
vn 0.4549 -0.4797 0.7503
vn 0.6234 -0.5919 0.5110
vn 0.6803 -0.6986 0.2217
vn 0.6169 -0.7836 -0.0733
vn 0.1839 0.9334 -0.3082
s off
f 1//1 12//1 2//1
f 2//2 12//2 3//2
f 3//3 12//3 4//3
f 4//4 12//4 5//4
f 5//5 12//5 6//5
f 6//6 12//6 7//6
f 7//7 12//7 8//7
f 8//8 12//8 9//8
f 9//9 12//9 10//9
f 10//10 12//10 11//10
f 11//11 12//11 13//11
f 13//12 12//12 14//12
f 14//13 12//13 15//13
f 15//14 12//14 16//14
f 16//15 12//15 17//15
f 17//16 12//16 1//16
f 8//17 13//17 17//17
f 17//17 1//17 2//17
f 2//17 3//17 4//17
f 4//17 5//17 6//17
f 6//17 7//17 4//17
f 7//17 8//17 4//17
f 8//17 9//17 13//17
f 9//17 10//17 13//17
f 10//17 11//17 13//17
f 13//17 14//17 15//17
f 15//17 16//17 17//17
f 17//17 2//17 4//17
f 13//17 15//17 17//17
f 17//17 4//17 8//17
