# Blender v2.83.0 OBJ File: ''
# www.blender.org
o Cone.132_Cone.1608
v -0.482434 0.927430 1.688241
v -0.568476 0.826166 1.437164
v -0.615251 0.633061 1.234137
v -0.615638 0.377513 1.110069
v -0.569580 0.098428 1.083849
v -0.484086 -0.161706 1.159468
v -0.372174 -0.363287 1.325414
v -0.250880 -0.475626 1.556424
v -0.138671 -0.481620 1.817327
v -0.052630 -0.380356 2.068404
v -0.005854 -0.187251 2.271432
v -0.005467 0.068297 2.395500
v 1.497967 0.593650 0.983496
v -0.051526 0.347382 2.421720
v -0.137019 0.607517 2.346101
v -0.248932 0.809098 2.180154
v -0.370225 0.921436 1.949145
vn 0.0206 0.9247 -0.3800
vn -0.0670 0.7306 -0.6795
vn -0.0981 0.4348 -0.8952
vn -0.0679 0.0822 -0.9943
vn 0.0188 -0.2734 -0.9617
vn 0.1490 -0.5779 -0.8024
vn 0.3028 -0.7849 -0.5407
vn 0.4567 -0.8629 -0.2163
vn 0.5875 -0.8001 0.1214
vn 0.6751 -0.6060 0.4208
vn 0.7062 -0.3101 0.6365
vn 0.6761 0.0425 0.7356
vn 0.5893 0.3980 0.7031
vn 0.4591 0.7025 0.5438
vn 0.3053 0.9095 0.2820
vn 0.1514 0.9876 -0.0424
vn -0.9043 -0.1854 0.3846
s off
f 1//1 13//1 2//1
f 2//2 13//2 3//2
f 3//3 13//3 4//3
f 4//4 13//4 5//4
f 5//5 13//5 6//5
f 6//6 13//6 7//6
f 7//7 13//7 8//7
f 8//8 13//8 9//8
f 9//9 13//9 10//9
f 10//10 13//10 11//10
f 11//11 13//11 12//11
f 12//12 13//12 14//12
f 14//13 13//13 15//13
f 15//14 13//14 16//14
f 16//15 13//15 17//15
f 17//16 13//16 1//16
f 10//17 12//17 17//17
f 17//17 1//17 2//17
f 2//17 3//17 4//17
f 4//17 5//17 6//17
f 6//17 7//17 8//17
f 8//17 9//17 10//17
f 10//17 11//17 12//17
f 12//17 14//17 15//17
f 15//17 16//17 12//17
f 16//17 17//17 12//17
f 17//17 2//17 8//17
f 2//17 4//17 8//17
f 4//17 6//17 8//17
f 8//17 10//17 17//17
