# Blender v2.83.0 OBJ File: ''
# www.blender.org
o Cone.100_Cone.1576
v -2.154107 2.149011 0.668091
v -2.205757 2.164557 0.462312
v -2.233367 2.100798 0.261248
v -2.232733 1.967439 0.095509
v -2.203953 1.784785 -0.009673
v -2.151406 1.580641 -0.038285
v -2.083094 1.386088 0.014029
v -2.009416 1.230744 0.139305
v -1.941588 1.138259 0.318470
v -1.889938 1.122713 0.524249
v -1.862327 1.186472 0.725313
v -1.862961 1.319830 0.891052
v -0.171643 2.186821 0.063390
v -1.891742 1.502485 0.996234
v -1.944288 1.706628 1.024846
v -2.012601 1.901181 0.972532
v -2.086279 2.056525 0.847256
vn 0.0037 0.9972 0.0744
vn -0.0679 0.9537 -0.2931
vn -0.0923 0.7756 -0.6244
vn -0.0657 0.4902 -0.8692
vn 0.0077 0.1408 -0.9900
vn 0.1169 -0.2194 -0.9686
vn 0.2452 -0.5355 -0.8082
vn 0.3730 -0.7593 -0.5332
vn 0.4809 -0.8569 -0.1855
vn 0.5525 -0.8134 0.1821
vn 0.5769 -0.6353 0.5134
vn 0.5503 -0.3498 0.7581
vn 0.4769 -0.0004 0.8790
vn 0.3677 0.3597 0.8576
vn 0.2394 0.6758 0.6971
vn 0.1116 0.8996 0.4221
vn -0.9381 -0.2716 0.2149
s off
f 1//1 13//1 2//1
f 2//2 13//2 3//2
f 3//3 13//3 4//3
f 4//4 13//4 5//4
f 5//5 13//5 6//5
f 6//6 13//6 7//6
f 7//7 13//7 8//7
f 8//8 13//8 9//8
f 9//9 13//9 10//9
f 10//10 13//10 11//10
f 11//11 13//11 12//11
f 12//12 13//12 14//12
f 14//13 13//13 15//13
f 15//14 13//14 16//14
f 16//15 13//15 17//15
f 17//16 13//16 1//16
f 4//17 8//17 12//17
f 17//17 1//17 2//17
f 2//17 3//17 4//17
f 4//17 5//17 6//17
f 6//17 7//17 4//17
f 7//17 8//17 4//17
f 8//17 9//17 10//17
f 10//17 11//17 12//17
f 12//17 14//17 17//17
f 14//17 15//17 17//17
f 15//17 16//17 17//17
f 17//17 2//17 4//17
f 8//17 10//17 12//17
f 17//17 4//17 12//17
