# Blender v2.83.0 OBJ File: ''
# www.blender.org
o Cone.249_Cone.1725
v 1.205859 -2.173319 -1.370679
v 0.776472 -2.422339 -1.294048
v 0.294980 -2.548588 -1.360999
v -0.165316 -2.532844 -1.561339
v -0.534340 -2.377506 -1.864568
v -0.755910 -2.106221 -2.224524
v -0.796295 -1.760290 -2.586404
v -0.649346 -1.392379 -2.895117
v -0.111640 -0.255871 -0.876163
v -0.337436 -1.058498 -3.103664
v 0.091951 -0.809477 -3.180295
v 0.573443 -0.683229 -3.113344
v 1.033740 -0.698972 -2.913004
v 1.402763 -0.854311 -2.609775
v 1.624333 -1.125596 -2.249819
v 1.664718 -1.471527 -1.887938
v 1.517769 -1.839438 -1.579225
vn 0.2274 -0.0938 0.9693
vn -0.0777 -0.2194 0.9725
vn -0.3931 -0.2564 0.8830
vn -0.6708 -0.1992 0.7144
vn -0.8686 -0.0563 0.4923
vn -0.9564 0.1504 0.2505
vn -0.9207 0.3895 0.0259
vn -0.7670 0.6245 -0.1473
vn -0.5187 0.8197 -0.2428
vn -0.2137 0.9454 -0.2460
vn 0.1017 0.9824 -0.1565
vn 0.3795 0.9251 0.0121
vn 0.5773 0.7823 0.2342
vn 0.6650 0.5755 0.4760
vn 0.6293 0.3365 0.7006
vn 0.4756 0.1015 0.8738
vn 0.2729 -0.6800 -0.6805
s off
f 1//1 9//1 2//1
f 2//2 9//2 3//2
f 3//3 9//3 4//3
f 4//4 9//4 5//4
f 5//5 9//5 6//5
f 6//6 9//6 7//6
f 7//7 9//7 8//7
f 8//8 9//8 10//8
f 10//9 9//9 11//9
f 11//10 9//10 12//10
f 12//11 9//11 13//11
f 13//12 9//12 14//12
f 14//13 9//13 15//13
f 15//14 9//14 16//14
f 16//15 9//15 17//15
f 17//16 9//16 1//16
f 17//17 4//17 8//17
f 17//17 1//17 2//17
f 2//17 3//17 17//17
f 3//17 4//17 17//17
f 4//17 5//17 6//17
f 6//17 7//17 4//17
f 7//17 8//17 4//17
f 8//17 10//17 11//17
f 11//17 12//17 8//17
f 12//17 13//17 8//17
f 13//17 14//17 15//17
f 15//17 16//17 17//17
f 13//17 15//17 8//17
f 15//17 17//17 8//17
