# Blender v2.83.0 OBJ File: ''
# www.blender.org
o Cone.105_Cone.1581
v 2.709795 -0.917590 2.550918
v 2.838028 -0.461323 2.052315
v 2.706973 -0.058922 1.509980
v 2.336581 0.228350 1.006481
v 1.783240 0.356761 0.618468
v 1.131193 0.306759 0.405015
v 0.479707 0.085957 0.398617
v -0.072035 -0.272029 0.600248
v 1.651852 -2.304847 0.534810
v -0.440035 -0.712700 0.979212
v -0.568268 -1.168967 1.477815
v -0.437213 -1.571368 2.020149
v -0.066821 -1.858640 2.523649
v 0.486520 -1.987051 2.911662
v 1.138568 -1.937049 3.125115
v 1.790054 -1.716247 3.131513
v 2.341796 -1.358260 2.929881
vn 0.8861 -0.4322 -0.1676
vn 0.8855 -0.2444 -0.3953
vn 0.7758 -0.0935 -0.6240
vn 0.5737 -0.0026 -0.8190
vn 0.3101 0.0146 -0.9506
vn 0.0249 -0.0447 -0.9987
vn -0.2382 -0.1713 -0.9560
vn -0.4394 -0.3460 -0.8290
vn -0.5480 -0.5421 -0.6370
vn -0.5473 -0.7300 -0.4094
vn -0.4377 -0.8808 -0.1806
vn -0.2356 -0.9717 0.0144
vn 0.0280 -0.9889 0.1460
vn 0.3132 -0.9297 0.1941
vn 0.5764 -0.8031 0.1514
vn 0.7775 -0.6284 0.0244
vn -0.2585 0.7449 0.6151
vn -0.2585 0.7448 0.6151
s off
f 1//1 9//1 2//1
f 2//2 9//2 3//2
f 3//3 9//3 4//3
f 4//4 9//4 5//4
f 5//5 9//5 6//5
f 6//6 9//6 7//6
f 7//7 9//7 8//7
f 8//8 9//8 10//8
f 10//9 9//9 11//9
f 11//10 9//10 12//10
f 12//11 9//11 13//11
f 13//12 9//12 14//12
f 14//13 9//13 15//13
f 15//14 9//14 16//14
f 16//15 9//15 17//15
f 17//16 9//16 1//16
f 8//17 13//17 17//17
f 17//17 1//17 2//17
f 2//18 3//18 4//18
f 4//17 5//17 6//17
f 6//17 7//17 8//17
f 8//17 10//17 11//17
f 11//17 12//17 13//17
f 13//17 14//17 15//17
f 15//17 16//17 13//17
f 16//17 17//17 13//17
f 17//17 2//17 8//17
f 2//17 4//17 8//17
f 4//17 6//17 8//17
f 8//17 11//17 13//17
