# Blender v2.83.0 OBJ File: ''
# www.blender.org
o Cone.027_Cone.1503
v -0.196292 1.102598 -0.457315
v 0.143986 0.741705 -0.199416
v 0.489455 0.305406 -0.146136
v 0.787520 -0.139878 -0.305587
v 0.992804 -0.526355 -0.653493
v 1.074054 -0.795188 -1.136889
v 1.018900 -0.905450 -1.682183
v 0.835739 -0.840354 -2.206358
v -1.381925 -0.940274 -1.145725
v 0.552456 -0.609811 -2.629613
v 0.212178 -0.248918 -2.887513
v -0.133291 0.187381 -2.940793
v -0.431356 0.632665 -2.781343
v -0.636640 1.019143 -2.433436
v -0.717890 1.287976 -1.950040
v -0.662736 1.398238 -1.404746
v -0.479575 1.333142 -0.880570
vn -0.5673 0.0523 0.8218
vn -0.3677 -0.1797 0.9124
vn -0.1804 -0.4364 0.8815
vn -0.0338 -0.6785 0.7338
vn 0.0496 -0.8693 0.4918
vn 0.0572 -0.9797 0.1923
vn -0.0122 -0.9928 -0.1190
vn -0.1480 -0.9067 -0.3948
vn -0.3295 -0.7346 -0.5931
vn -0.5292 -0.5025 -0.6837
vn -0.7165 -0.2458 -0.6528
vn -0.8630 -0.0037 -0.5051
vn -0.9465 0.1871 -0.2631
vn -0.9540 0.2974 0.0364
vn -0.8847 0.3106 0.3477
vn -0.7489 0.2245 0.6235
vn 0.7800 0.5933 -0.1989
s off
f 1//1 9//1 2//1
f 2//2 9//2 3//2
f 3//3 9//3 4//3
f 4//4 9//4 5//4
f 5//5 9//5 6//5
f 6//6 9//6 7//6
f 7//7 9//7 8//7
f 8//8 9//8 10//8
f 10//9 9//9 11//9
f 11//10 9//10 12//10
f 12//11 9//11 13//11
f 13//12 9//12 14//12
f 14//13 9//13 15//13
f 15//14 9//14 16//14
f 16//15 9//15 17//15
f 17//16 9//16 1//16
f 4//17 8//17 13//17
f 17//17 1//17 2//17
f 2//17 3//17 4//17
f 4//17 5//17 6//17
f 6//17 7//17 8//17
f 8//17 10//17 11//17
f 11//17 12//17 8//17
f 12//17 13//17 8//17
f 13//17 14//17 15//17
f 15//17 16//17 17//17
f 17//17 2//17 4//17
f 4//17 6//17 8//17
f 13//17 15//17 17//17
f 17//17 4//17 13//17
