# Blender v2.83.0 OBJ File: ''
# www.blender.org
o Cone.156_Cone.1632
v -1.752522 -0.886926 -0.038952
v -1.825880 -1.263621 -0.325770
v -1.715649 -1.654307 -0.580250
v -1.438611 -1.999504 -0.763648
v -1.036943 -2.246660 -0.848045
v -0.571794 -2.358147 -0.820591
v -0.113980 -2.316992 -0.685466
v 0.266801 -2.129461 -0.463241
v -0.251258 -0.210653 -1.711269
v 0.512579 -1.824103 -0.187749
v 0.585937 -1.447407 0.099069
v 0.475706 -1.056722 0.353549
v 0.198669 -0.711524 0.536947
v -0.203000 -0.464368 0.621344
v -0.668149 -0.352882 0.593890
v -1.125963 -0.394037 0.458765
v -1.506744 -0.581568 0.236540
vn -0.7366 0.4946 -0.4612
vn -0.7235 0.2217 -0.6538
vn -0.5858 -0.0400 -0.8095
vn -0.3444 -0.2507 -0.9047
vn -0.0361 -0.3783 -0.9250
vn 0.2922 -0.4033 -0.8672
vn 0.5905 -0.3219 -0.7401
vn 0.8133 -0.1466 -0.5631
vn 0.9268 0.0959 -0.3631
vn 0.9137 0.3689 -0.1705
vn 0.7760 0.6306 -0.0148
vn 0.5346 0.8413 0.0804
vn 0.2263 0.9688 0.1007
vn -0.1020 0.9939 0.0429
vn -0.4003 0.9125 -0.0842
vn -0.6231 0.7372 -0.2612
vn -0.1844 -0.5724 0.7990
s off
f 1//1 9//1 2//1
f 2//2 9//2 3//2
f 3//3 9//3 4//3
f 4//4 9//4 5//4
f 5//5 9//5 6//5
f 6//6 9//6 7//6
f 7//7 9//7 8//7
f 8//8 9//8 10//8
f 10//9 9//9 11//9
f 11//10 9//10 12//10
f 12//11 9//11 13//11
f 13//12 9//12 14//12
f 14//13 9//13 15//13
f 15//14 9//14 16//14
f 16//15 9//15 17//15
f 17//16 9//16 1//16
f 8//17 13//17 17//17
f 17//17 1//17 2//17
f 2//17 3//17 4//17
f 4//17 5//17 6//17
f 6//17 7//17 4//17
f 7//17 8//17 4//17
f 8//17 10//17 11//17
f 11//17 12//17 13//17
f 13//17 14//17 15//17
f 15//17 16//17 13//17
f 16//17 17//17 13//17
f 17//17 2//17 8//17
f 2//17 4//17 8//17
f 8//17 11//17 13//17
