# Blender v2.83.0 OBJ File: ''
# www.blender.org
o Cone.103_Cone.1579
v -2.039801 -1.086192 1.424277
v -1.813536 -0.771477 1.227432
v -1.518820 -0.595363 0.960756
v -1.200521 -0.584662 0.664850
v -0.907097 -0.741002 0.384762
v -0.683218 -1.040583 0.163134
v -0.562970 -1.437795 0.033705
v -0.564657 -1.872168 0.016181
v -0.688024 -2.277571 0.113229
v -0.914288 -2.592285 0.310075
v -1.209004 -2.768399 0.576751
v -1.527304 -2.779101 0.872657
v -0.001709 -1.746194 2.231718
v -1.820728 -2.622760 1.152745
v -2.044607 -2.323179 1.374373
v -2.164855 -1.925967 1.503802
v -2.163168 -1.491594 1.521326
vn -0.1254 0.5893 0.7981
vn 0.0838 0.7864 0.6120
vn 0.3300 0.8614 0.3861
vn 0.5756 0.8029 0.1548
vn 0.7833 0.6199 -0.0466
vn 0.9215 0.3401 -0.1876
vn 0.9691 0.0062 -0.2466
vn 0.9189 -0.3310 -0.2147
vn 0.7785 -0.6202 -0.0967
vn 0.5693 -0.8172 0.0895
vn 0.3232 -0.8923 0.3154
vn 0.0775 -0.8338 0.5466
vn -0.1302 -0.6507 0.7481
vn -0.2683 -0.3709 0.8890
vn -0.3160 -0.0370 0.9481
vn -0.2657 0.3002 0.9161
vn -0.6811 0.0322 -0.7315
s off
f 1//1 13//1 2//1
f 2//2 13//2 3//2
f 3//3 13//3 4//3
f 4//4 13//4 5//4
f 5//5 13//5 6//5
f 6//6 13//6 7//6
f 7//7 13//7 8//7
f 8//8 13//8 9//8
f 9//9 13//9 10//9
f 10//10 13//10 11//10
f 11//11 13//11 12//11
f 12//12 13//12 14//12
f 14//13 13//13 15//13
f 15//14 13//14 16//14
f 16//15 13//15 17//15
f 17//16 13//16 1//16
f 8//17 12//17 17//17
f 17//17 1//17 2//17
f 2//17 3//17 4//17
f 4//17 5//17 6//17
f 6//17 7//17 4//17
f 7//17 8//17 4//17
f 8//17 9//17 12//17
f 9//17 10//17 12//17
f 10//17 11//17 12//17
f 12//17 14//17 15//17
f 15//17 16//17 17//17
f 17//17 2//17 4//17
f 12//17 15//17 17//17
f 17//17 4//17 8//17
