# Blender v2.83.0 OBJ File: ''
# www.blender.org
o Cone.111_Cone.1587
v 0.148224 2.494326 -0.587016
v -0.047001 2.907953 -0.034510
v -0.325299 3.069426 0.606535
v -0.644301 2.954161 1.238528
v -0.955442 2.579707 1.765252
v -1.211353 2.003070 2.106519
v -1.373074 1.312040 2.210373
v -1.415986 0.611819 2.061005
v -1.333554 0.009008 1.681154
v -1.138328 -0.404619 1.128648
v -0.860031 -0.566092 0.487603
v -2.379973 1.542333 -0.302073
v -0.541029 -0.450827 -0.144390
v -0.229888 -0.076373 -0.671114
v 0.026023 0.500264 -1.012381
v 0.187745 1.191295 -1.116236
v 0.230656 1.891516 -0.966867
vn -0.3334 0.6944 -0.6377
vn -0.4309 0.8129 -0.3918
vn -0.5539 0.8224 -0.1296
vn -0.6837 0.7215 0.1091
vn -0.8005 0.5256 0.2879
vn -0.8866 0.2645 0.3795
vn -0.9287 -0.0220 0.3702
vn -0.9206 -0.2904 0.2612
vn -0.8634 -0.4998 0.0691
vn -0.7658 -0.6183 -0.1767
vn -0.6428 -0.6278 -0.4390
vn -0.5130 -0.5269 -0.6776
vn -0.3962 -0.3310 -0.8564
vn -0.3102 -0.0699 -0.9481
vn -0.2680 0.2167 -0.9387
vn -0.2762 0.4851 -0.8297
vn 0.8937 -0.1453 0.4246
s off
f 1//1 12//1 2//1
f 2//2 12//2 3//2
f 3//3 12//3 4//3
f 4//4 12//4 5//4
f 5//5 12//5 6//5
f 6//6 12//6 7//6
f 7//7 12//7 8//7
f 8//8 12//8 9//8
f 9//9 12//9 10//9
f 10//10 12//10 11//10
f 11//11 12//11 13//11
f 13//12 12//12 14//12
f 14//13 12//13 15//13
f 15//14 12//14 16//14
f 16//15 12//15 17//15
f 17//16 12//16 1//16
f 4//17 8//17 13//17
f 17//17 1//17 4//17
f 1//17 2//17 4//17
f 2//17 3//17 4//17
f 4//17 5//17 6//17
f 6//17 7//17 4//17
f 7//17 8//17 4//17
f 8//17 9//17 10//17
f 10//17 11//17 13//17
f 13//17 14//17 15//17
f 15//17 16//17 13//17
f 16//17 17//17 13//17
f 8//17 10//17 13//17
f 17//17 4//17 13//17
