# Blender v2.83.0 OBJ File: ''
# www.blender.org
o Cone.090_Cone.1566
v -0.927226 -2.952187 0.279391
v -0.248807 -2.590398 0.405841
v 0.296259 -2.201305 0.804141
v 0.624991 -1.844144 1.413653
v 0.687343 -1.573289 2.141584
v 0.473821 -1.429975 2.877113
v 0.016932 -1.436022 3.508263
v -0.613765 -1.590507 3.938946
v -1.322254 -1.869912 4.103596
v -2.000673 -2.231701 3.977145
v -2.545739 -2.620794 3.578846
v -2.874471 -2.977955 2.969334
v -1.941641 -0.678326 1.616738
v -2.936822 -3.248810 2.241402
v -2.723300 -3.392124 1.505873
v -2.266412 -3.386077 0.874723
v -1.635714 -3.231592 0.444040
vn -0.0900 0.4748 -0.8755
vn 0.1332 0.6117 -0.7798
vn 0.2925 0.7478 -0.5960
vn 0.3638 0.8624 -0.3520
vn 0.3363 0.9379 -0.0851
vn 0.2140 0.9629 0.1641
vn 0.0156 0.9337 0.3578
vn -0.2286 0.8545 0.4664
vn -0.4816 0.7376 0.4734
vn -0.7047 0.6006 0.3776
vn -0.8641 0.4645 0.1938
vn -0.9354 0.3500 -0.0501
vn -0.9078 0.2744 -0.3170
vn -0.7856 0.2494 -0.5663
vn -0.5872 0.2787 -0.7599
vn -0.3430 0.3578 -0.8685
vn 0.4085 -0.8664 0.2874
s off
f 1//1 13//1 2//1
f 2//2 13//2 3//2
f 3//3 13//3 4//3
f 4//4 13//4 5//4
f 5//5 13//5 6//5
f 6//6 13//6 7//6
f 7//7 13//7 8//7
f 8//8 13//8 9//8
f 9//9 13//9 10//9
f 10//10 13//10 11//10
f 11//11 13//11 12//11
f 12//12 13//12 14//12
f 14//13 13//13 15//13
f 15//14 13//14 16//14
f 16//15 13//15 17//15
f 17//16 13//16 1//16
f 4//17 8//17 12//17
f 17//17 1//17 2//17
f 2//17 3//17 17//17
f 3//17 4//17 17//17
f 4//17 5//17 6//17
f 6//17 7//17 8//17
f 8//17 9//17 12//17
f 9//17 10//17 12//17
f 10//17 11//17 12//17
f 12//17 14//17 15//17
f 15//17 16//17 17//17
f 4//17 6//17 8//17
f 12//17 15//17 17//17
f 17//17 4//17 12//17
