# Blender v2.83.0 OBJ File: ''
# www.blender.org
o Cone.238_Cone.1714
v -1.174197 -0.706651 0.777448
v -0.819641 -0.862758 0.658948
v -0.544185 -1.014655 0.403657
v -0.389765 -1.139215 0.050443
v -0.379890 -1.217478 -0.346922
v -0.516063 -1.237526 -0.727943
v -0.777552 -1.196309 -1.034611
v -1.124550 -1.100102 -1.220241
v -2.035088 -2.677998 0.106108
v -1.504228 -0.963550 -1.256571
v -1.858783 -0.807444 -1.138070
v -2.134239 -0.655547 -0.882780
v -2.288659 -0.530986 -0.529566
v -2.298535 -0.452724 -0.132201
v -2.162362 -0.432675 0.248820
v -1.900872 -0.473892 0.555489
v -1.553874 -0.570100 0.741118
vn 0.1417 -0.3740 0.9165
vn 0.4173 -0.5088 0.7530
vn 0.6054 -0.6297 0.4867
vn 0.6773 -0.7185 0.1583
vn 0.6220 -0.7615 -0.1822
vn 0.4480 -0.7522 -0.4831
vn 0.1818 -0.6921 -0.6985
vn -0.1361 -0.5902 -0.7957
vn -0.4574 -0.4622 -0.7597
vn -0.7331 -0.3274 -0.5962
vn -0.9212 -0.2065 -0.3299
vn -0.9930 -0.1177 -0.0015
vn -0.9378 -0.0747 0.3391
vn -0.7638 -0.0840 0.6400
vn -0.4975 -0.1441 0.8554
vn -0.1796 -0.2459 0.9525
vn 0.3479 0.9214 -0.1728
s off
f 1//1 9//1 2//1
f 2//2 9//2 3//2
f 3//3 9//3 4//3
f 4//4 9//4 5//4
f 5//5 9//5 6//5
f 6//6 9//6 7//6
f 7//7 9//7 8//7
f 8//8 9//8 10//8
f 10//9 9//9 11//9
f 11//10 9//10 12//10
f 12//11 9//11 13//11
f 13//12 9//12 14//12
f 14//13 9//13 15//13
f 15//14 9//14 16//14
f 16//15 9//15 17//15
f 17//16 9//16 1//16
f 8//17 13//17 17//17
f 17//17 1//17 4//17
f 1//17 2//17 4//17
f 2//17 3//17 4//17
f 4//17 5//17 6//17
f 6//17 7//17 8//17
f 8//17 10//17 11//17
f 11//17 12//17 13//17
f 13//17 14//17 15//17
f 15//17 16//17 17//17
f 4//17 6//17 8//17
f 8//17 11//17 13//17
f 13//17 15//17 17//17
f 17//17 4//17 8//17
