# Blender v2.83.0 OBJ File: ''
# www.blender.org
o Cone.188_Cone.1664
v -2.929594 0.460718 1.748463
v -2.705272 0.180404 2.038595
v -2.367738 0.039918 2.320390
v -1.968380 0.060650 2.550947
v -1.567996 0.239442 2.695166
v -1.227541 0.549076 2.731091
v -0.998846 0.942411 2.653253
v -0.916728 1.359567 2.473502
v -1.023889 0.247357 0.436081
v -0.993688 1.737036 2.219203
v -1.218010 2.017350 1.929071
v -1.555543 2.157835 1.647276
v -1.954901 2.137104 1.416719
v -2.355286 1.958312 1.272500
v -2.695741 1.648678 1.236575
v -2.924436 1.255342 1.314413
v -3.006554 0.838186 1.494164
vn -0.4027 -0.7939 -0.4557
vn -0.1933 -0.9507 -0.2425
vn 0.0814 -0.9953 -0.0515
vn 0.3795 -0.9210 0.0882
vn 0.6556 -0.7389 0.1553
vn 0.8678 -0.4769 0.1397
vn 0.9836 -0.1748 0.0437
vn 0.9856 0.1214 -0.1181
vn 0.8733 0.3666 -0.3210
vn 0.6638 0.5234 -0.5342
vn 0.3892 0.5680 -0.7252
vn 0.0911 0.4937 -0.8649
vn -0.1851 0.3116 -0.9320
vn -0.3972 0.0496 -0.9164
vn -0.5131 -0.2525 -0.8204
vn -0.5150 -0.5487 -0.6586
vn -0.4689 0.4258 0.7739
s off
f 1//1 9//1 2//1
f 2//2 9//2 3//2
f 3//3 9//3 4//3
f 4//4 9//4 5//4
f 5//5 9//5 6//5
f 6//6 9//6 7//6
f 7//7 9//7 8//7
f 8//8 9//8 10//8
f 10//9 9//9 11//9
f 11//10 9//10 12//10
f 12//11 9//11 13//11
f 13//12 9//12 14//12
f 14//13 9//13 15//13
f 15//14 9//14 16//14
f 16//15 9//15 17//15
f 17//16 9//16 1//16
f 4//17 8//17 13//17
f 17//17 1//17 2//17
f 2//17 3//17 4//17
f 4//17 5//17 8//17
f 5//17 6//17 8//17
f 6//17 7//17 8//17
f 8//17 10//17 11//17
f 11//17 12//17 13//17
f 13//17 14//17 15//17
f 15//17 16//17 17//17
f 17//17 2//17 4//17
f 8//17 11//17 13//17
f 13//17 15//17 17//17
f 17//17 4//17 13//17
