# Blender v2.83.0 OBJ File: ''
# www.blender.org
o Cone.109_Cone.1585
v -0.780140 0.551610 -0.707981
v -0.954364 0.778429 -0.322923
v -1.074142 0.842628 0.137078
v -1.121239 0.734435 0.601993
v -1.088485 0.470320 1.001042
v -0.980866 0.090492 1.273474
v -0.814766 -0.347222 1.377812
v -0.615473 -0.776186 1.298174
v -0.413328 -1.131092 1.046683
v -0.239104 -1.357911 0.661626
v -0.119326 -1.422111 0.201625
v -0.072229 -1.313917 -0.263290
v -2.405297 -1.062581 -0.193714
v -0.104983 -1.049802 -0.662340
v -0.212602 -0.669974 -0.934771
v -0.378701 -0.232259 -1.039110
v -0.577994 0.196704 -0.959472
vn -0.6590 0.4787 -0.5801
vn -0.7634 0.5820 -0.2800
vn -0.8227 0.5664 0.0485
vn -0.8278 0.4342 0.3553
vn -0.7779 0.2055 0.5938
vn -0.6807 -0.0849 0.7276
vn -0.5510 -0.3927 0.7364
vn -0.4084 -0.6711 0.6188
vn -0.2747 -0.8777 0.3927
vn -0.1703 -0.9810 0.0926
vn -0.1110 -0.9654 -0.2359
vn -0.1059 -0.8332 -0.5428
vn -0.1558 -0.6045 -0.7812
vn -0.2530 -0.3141 -0.9150
vn -0.3828 -0.0063 -0.9238
vn -0.5254 0.2721 -0.8062
vn 0.9043 0.3864 0.1815
s off
f 1//1 13//1 2//1
f 2//2 13//2 3//2
f 3//3 13//3 4//3
f 4//4 13//4 5//4
f 5//5 13//5 6//5
f 6//6 13//6 7//6
f 7//7 13//7 8//7
f 8//8 13//8 9//8
f 9//9 13//9 10//9
f 10//10 13//10 11//10
f 11//11 13//11 12//11
f 12//12 13//12 14//12
f 14//13 13//13 15//13
f 15//14 13//14 16//14
f 16//15 13//15 17//15
f 17//16 13//16 1//16
f 4//17 8//17 12//17
f 17//17 1//17 4//17
f 1//17 2//17 4//17
f 2//17 3//17 4//17
f 4//17 5//17 6//17
f 6//17 7//17 8//17
f 8//17 9//17 10//17
f 10//17 11//17 8//17
f 11//17 12//17 8//17
f 12//17 14//17 17//17
f 14//17 15//17 17//17
f 15//17 16//17 17//17
f 4//17 6//17 8//17
f 17//17 4//17 12//17
