# Blender v2.83.0 OBJ File: ''
# www.blender.org
o Cone.213_Cone.1689
v 0.660854 -2.104134 -0.347241
v 0.909334 -2.160386 -0.059190
v 1.114105 -2.075509 0.255046
v 1.243994 -1.862425 0.547627
v 1.279225 -1.553574 0.774012
v 1.214436 -1.195977 0.899734
v 1.059489 -0.844073 0.905653
v 0.837974 -0.551437 0.790870
v 0.583615 -0.362621 0.572857
v 0.335136 -0.306369 0.284806
v 0.130364 -0.391246 -0.029430
v 0.000476 -0.604329 -0.322012
v 2.110991 -0.558478 -1.039631
v -0.034756 -0.913180 -0.548396
v 0.030033 -1.270778 -0.674118
v 0.184980 -1.622682 -0.680038
v 0.406495 -1.915318 -0.565254
vn 0.4756 -0.6904 -0.5451
vn 0.6867 -0.6771 -0.2646
vn 0.8426 -0.5383 0.0180
vn 0.9195 -0.2952 0.2597
vn 0.9057 0.0151 0.4237
vn 0.8034 0.3456 0.4850
vn 0.6280 0.6457 0.4343
vn 0.4064 0.8700 0.2793
vn 0.1722 0.9841 0.0436
vn -0.0389 0.9708 -0.2369
vn -0.1947 0.8320 -0.5195
vn -0.2716 0.5889 -0.7612
vn -0.2578 0.2785 -0.9252
vn -0.1555 -0.0519 -0.9865
vn 0.0198 -0.3521 -0.9358
vn 0.2414 -0.5763 -0.7808
vn -0.7444 -0.3374 0.5762
vn -0.7444 -0.3375 0.5762
s off
f 1//1 13//1 2//1
f 2//2 13//2 3//2
f 3//3 13//3 4//3
f 4//4 13//4 5//4
f 5//5 13//5 6//5
f 6//6 13//6 7//6
f 7//7 13//7 8//7
f 8//8 13//8 9//8
f 9//9 13//9 10//9
f 10//10 13//10 11//10
f 11//11 13//11 12//11
f 12//12 13//12 14//12
f 14//13 13//13 15//13
f 15//14 13//14 16//14
f 16//15 13//15 17//15
f 17//16 13//16 1//16
f 17//17 4//17 8//17
f 17//17 1//17 2//17
f 2//17 3//17 17//17
f 3//17 4//17 17//17
f 4//17 5//17 6//17
f 6//18 7//18 8//18
f 8//17 9//17 10//17
f 10//18 11//18 12//18
f 12//17 14//17 15//17
f 15//18 16//18 12//18
f 16//17 17//17 12//17
f 4//17 6//17 8//17
f 8//17 10//17 17//17
f 10//17 12//17 17//17
