# Blender v2.83.0 OBJ File: ''
# www.blender.org
o Cone.199_Cone.1675
v 0.212619 -0.710466 2.390058
v 0.021357 -0.682595 1.645836
v 0.064935 -0.468155 0.908720
v 0.336719 -0.099792 0.290928
v 0.795332 0.366414 -0.113485
v 1.370954 0.859487 -0.242953
v 1.975952 1.304362 -0.077763
v 2.518221 1.633310 0.356933
v 2.915205 1.796251 0.994960
v 3.106468 1.768381 1.739181
v 3.062890 1.553941 2.476298
v 2.791106 1.185578 3.094090
v 0.334776 2.075824 2.065799
v 2.332493 0.719372 3.498503
v 1.756871 0.226298 3.627971
v 1.151872 -0.218576 3.462781
v 0.609603 -0.547524 3.028084
vn -0.9654 0.0715 0.2508
vn -0.9929 0.1166 -0.0248
vn -0.9342 0.2250 -0.2768
vn -0.7983 0.3802 -0.4670
vn -0.6059 0.5587 -0.5663
vn -0.3863 0.7332 -0.5596
vn -0.1729 0.8771 -0.4481
vn 0.0018 0.9686 -0.2485
vn 0.1112 0.9938 0.0086
vn 0.1387 0.9487 0.2842
vn 0.0801 0.8403 0.5362
vn -0.0558 0.6850 0.7264
vn -0.2482 0.5066 0.8257
vn -0.4678 0.3321 0.8191
vn -0.6812 0.1881 0.7075
vn -0.8560 0.0966 0.5079
vn 0.6146 -0.7665 -0.1866
s off
f 1//1 13//1 2//1
f 2//2 13//2 3//2
f 3//3 13//3 4//3
f 4//4 13//4 5//4
f 5//5 13//5 6//5
f 6//6 13//6 7//6
f 7//7 13//7 8//7
f 8//8 13//8 9//8
f 9//9 13//9 10//9
f 10//10 13//10 11//10
f 11//11 13//11 12//11
f 12//12 13//12 14//12
f 14//13 13//13 15//13
f 15//14 13//14 16//14
f 16//15 13//15 17//15
f 17//16 13//16 1//16
f 4//17 8//17 12//17
f 17//17 1//17 2//17
f 2//17 3//17 4//17
f 4//17 5//17 6//17
f 6//17 7//17 8//17
f 8//17 9//17 10//17
f 10//17 11//17 12//17
f 12//17 14//17 15//17
f 15//17 16//17 12//17
f 16//17 17//17 12//17
f 17//17 2//17 4//17
f 4//17 6//17 8//17
f 8//17 10//17 12//17
f 17//17 4//17 12//17
