# Blender v2.83.0 OBJ File: ''
# www.blender.org
o Cone.094_Cone.1570
v 1.980338 -1.420358 1.117489
v 1.649017 -1.764530 1.647133
v 1.105590 -2.058109 2.003850
v 0.432787 -2.256401 2.133335
v -0.266963 -2.329217 2.015874
v -0.887129 -2.265472 1.669349
v -1.333298 -2.074871 1.146516
v -1.537543 -1.786430 0.526972
v -0.080342 0.310407 1.433381
v -1.468771 -1.444063 -0.094964
v -1.137451 -1.099892 -0.624608
v -0.594023 -0.806313 -0.981326
v 0.078780 -0.608021 -1.110810
v 0.778530 -0.535204 -0.993349
v 1.398697 -0.598949 -0.646824
v 1.844865 -0.789551 -0.123991
v 2.049110 -1.077991 0.495554
vn 0.5352 0.5151 0.6695
vn 0.3536 0.3826 0.8536
vn 0.1010 0.2805 0.9545
vn -0.1840 0.2242 0.9570
vn -0.4581 0.2223 0.8607
vn -0.6795 0.2751 0.6801
vn -0.8145 0.3746 0.4429
vn -0.8427 0.5056 0.1851
vn -0.7596 0.6481 -0.0540
vn -0.5780 0.7806 -0.2380
vn -0.3254 0.8827 -0.3390
vn -0.0404 0.9390 -0.3415
vn 0.2337 0.9409 -0.2452
vn 0.4551 0.8881 -0.0646
vn 0.5902 0.7886 0.1726
vn 0.6183 0.6576 0.4304
vn 0.1681 -0.8713 -0.4611
s off
f 1//1 9//1 2//1
f 2//2 9//2 3//2
f 3//3 9//3 4//3
f 4//4 9//4 5//4
f 5//5 9//5 6//5
f 6//6 9//6 7//6
f 7//7 9//7 8//7
f 8//8 9//8 10//8
f 10//9 9//9 11//9
f 11//10 9//10 12//10
f 12//11 9//11 13//11
f 13//12 9//12 14//12
f 14//13 9//13 15//13
f 15//14 9//14 16//14
f 16//15 9//15 17//15
f 17//16 9//16 1//16
f 4//17 8//17 13//17
f 17//17 1//17 2//17
f 2//17 3//17 17//17
f 3//17 4//17 17//17
f 4//17 5//17 6//17
f 6//17 7//17 4//17
f 7//17 8//17 4//17
f 8//17 10//17 11//17
f 11//17 12//17 13//17
f 13//17 14//17 15//17
f 15//17 16//17 13//17
f 16//17 17//17 13//17
f 8//17 11//17 13//17
f 17//17 4//17 13//17
