# Blender v2.83.0 OBJ File: ''
# www.blender.org
o Cone.065_Cone.1541
v 0.297889 0.120167 0.308900
v 0.209262 -0.160104 0.306435
v 0.020155 -0.385113 0.301697
v -0.240644 -0.520602 0.295408
v -0.533429 -0.545946 0.288525
v -0.813627 -0.457286 0.282097
v -1.038581 -0.268120 0.277100
v -1.174042 -0.007245 0.274298
v -1.199389 0.285620 0.274115
v -1.110762 0.565892 0.276580
v -0.921654 0.790900 0.281318
v -0.497511 0.200094 2.290959
v -0.660856 0.926390 0.287607
v -0.368070 0.951734 0.294490
v -0.087872 0.863074 0.300919
v 0.137081 0.673907 0.305915
v 0.272543 0.413033 0.308718
vn 0.8860 -0.2834 0.3670
vn 0.7097 -0.6041 0.3624
vn 0.4242 -0.8329 0.3554
vn 0.0728 -0.9350 0.3471
vn -0.2909 -0.8948 0.3386
vn -0.6115 -0.7185 0.3314
vn -0.8403 -0.4328 0.3264
vn -0.9424 -0.0814 0.3245
vn -0.9022 0.2824 0.3260
vn -0.7259 0.6031 0.3305
vn -0.4404 0.8320 0.3375
vn -0.0890 0.9340 0.3459
vn 0.2747 0.8939 0.3543
vn 0.5953 0.7175 0.3616
vn 0.8241 0.4319 0.3665
vn 0.9262 0.0804 0.3684
vn 0.0234 0.0014 -0.9997
s off
f 1//1 12//1 2//1
f 2//2 12//2 3//2
f 3//3 12//3 4//3
f 4//4 12//4 5//4
f 5//5 12//5 6//5
f 6//6 12//6 7//6
f 7//7 12//7 8//7
f 8//8 12//8 9//8
f 9//9 12//9 10//9
f 10//10 12//10 11//10
f 11//11 12//11 13//11
f 13//12 12//12 14//12
f 14//13 12//13 15//13
f 15//14 12//14 16//14
f 16//15 12//15 17//15
f 17//16 12//16 1//16
f 17//17 4//17 8//17
f 17//17 1//17 2//17
f 2//17 3//17 17//17
f 3//17 4//17 17//17
f 4//17 5//17 6//17
f 6//17 7//17 4//17
f 7//17 8//17 4//17
f 8//17 9//17 10//17
f 10//17 11//17 8//17
f 11//17 13//17 8//17
f 13//17 14//17 15//17
f 15//17 16//17 17//17
f 13//17 15//17 8//17
f 15//17 17//17 8//17
