# Blender v2.83.0 OBJ File: ''
# www.blender.org
o Cone.221_Cone.1697
v 0.966891 0.690088 0.640719
v 1.007931 0.924335 0.672447
v 1.057273 1.126559 0.791749
v 1.107407 1.265975 0.980460
v 1.150699 1.321358 1.209853
v 1.180558 1.284276 1.445003
v 1.192439 1.160375 1.650111
v 1.184534 0.968516 1.793952
v 1.158044 0.737910 1.854627
v 1.117005 0.503664 1.822899
v 1.067662 0.301440 1.703598
v -0.892271 1.016390 1.543572
v 1.017529 0.162023 1.514886
v 0.974237 0.106640 1.285494
v 0.944377 0.143723 1.050343
v 0.932496 0.267624 0.845235
v 0.940402 0.459483 0.701394
vn -0.4013 0.1916 -0.8957
vn -0.3296 0.5381 -0.7758
vn -0.2506 0.8093 -0.5313
vn -0.1765 0.9639 -0.1994
vn -0.1184 0.9784 0.1693
vn -0.0853 0.8506 0.5188
vn -0.0821 0.6000 0.7958
vn -0.1094 0.2647 0.9581
vn -0.1630 -0.1043 0.9811
vn -0.2348 -0.4508 0.8612
vn -0.3137 -0.7220 0.6167
vn -0.3879 -0.8766 0.2848
vn -0.4459 -0.8911 -0.0839
vn -0.4791 -0.7633 -0.4334
vn -0.4822 -0.5127 -0.7104
vn -0.4549 -0.1774 -0.8727
vn 0.9774 -0.1512 -0.1479
vn 0.9774 -0.1512 -0.1480
s off
f 1//1 12//1 2//1
f 2//2 12//2 3//2
f 3//3 12//3 4//3
f 4//4 12//4 5//4
f 5//5 12//5 6//5
f 6//6 12//6 7//6
f 7//7 12//7 8//7
f 8//8 12//8 9//8
f 9//9 12//9 10//9
f 10//10 12//10 11//10
f 11//11 12//11 13//11
f 13//12 12//12 14//12
f 14//13 12//13 15//13
f 15//14 12//14 16//14
f 16//15 12//15 17//15
f 17//16 12//16 1//16
f 8//17 13//17 17//17
f 17//18 1//18 2//18
f 2//18 3//18 4//18
f 4//17 5//17 6//17
f 6//17 7//17 8//17
f 8//17 9//17 10//17
f 10//17 11//17 13//17
f 13//17 14//17 15//17
f 15//17 16//17 13//17
f 16//17 17//17 13//17
f 17//17 2//17 8//17
f 2//17 4//17 8//17
f 4//17 6//17 8//17
f 8//17 10//17 13//17
