# Blender v2.83.0 OBJ File: ''
# www.blender.org
o Cone.210_Cone.1686
v 0.478234 -1.078380 -3.485832
v 0.542283 -0.606921 -3.356280
v 0.691509 -0.226555 -3.080215
v 0.903194 0.004813 -2.699666
v 1.145111 0.051958 -2.272568
v 1.380430 -0.092297 -1.863943
v 1.573326 -0.405991 -1.536000
v 1.694432 -0.841366 -1.338665
v 1.725312 -1.332141 -1.301982
v 1.661263 -1.803599 -1.431535
v 1.512037 -2.183966 -1.707599
v 1.300352 -2.415334 -2.088149
v -0.636499 -1.240745 -1.405398
v 1.058435 -2.462479 -2.515247
v 0.823115 -2.318223 -2.923872
v 0.630219 -2.004530 -3.251815
v 0.509113 -1.569154 -3.449149
vn -0.8635 0.2393 -0.4440
vn -0.7904 0.5314 -0.3049
vn -0.6666 0.7411 -0.0798
vn -0.5111 0.8366 0.1971
vn -0.3475 0.8033 0.4837
vn -0.2006 0.6463 0.7362
vn -0.0930 0.3895 0.9163
vn -0.0409 0.0719 0.9966
vn -0.0522 -0.2580 0.9647
vn -0.1254 -0.5501 0.8257
vn -0.2491 -0.7598 0.6005
vn -0.4046 -0.8553 0.3236
vn -0.5683 -0.8220 0.0371
vn -0.7151 -0.6650 -0.2155
vn -0.8227 -0.4082 -0.3956
vn -0.8749 -0.0906 -0.4758
vn 0.8691 0.0177 -0.4943
s off
f 1//1 13//1 2//1
f 2//2 13//2 3//2
f 3//3 13//3 4//3
f 4//4 13//4 5//4
f 5//5 13//5 6//5
f 6//6 13//6 7//6
f 7//7 13//7 8//7
f 8//8 13//8 9//8
f 9//9 13//9 10//9
f 10//10 13//10 11//10
f 11//11 13//11 12//11
f 12//12 13//12 14//12
f 14//13 13//13 15//13
f 15//14 13//14 16//14
f 16//15 13//15 17//15
f 17//16 13//16 1//16
f 17//17 4//17 8//17
f 17//17 1//17 4//17
f 1//17 2//17 4//17
f 2//17 3//17 4//17
f 4//17 5//17 6//17
f 6//17 7//17 4//17
f 7//17 8//17 4//17
f 8//17 9//17 10//17
f 10//17 11//17 8//17
f 11//17 12//17 8//17
f 12//17 14//17 15//17
f 15//17 16//17 17//17
f 12//17 15//17 8//17
f 15//17 17//17 8//17
