# Blender v2.83.0 OBJ File: ''
# www.blender.org
o Cone.062_Cone.1538
v -0.192865 0.564771 1.805949
v -0.450424 0.623423 2.292313
v -0.744588 0.473468 2.736506
v -1.030574 0.137734 3.070903
v -1.264842 -0.332665 3.244596
v -1.411729 -0.866116 3.231142
v -1.448870 -1.381405 3.032588
v -1.370613 -1.800085 2.679163
v -2.379668 -0.257765 1.062013
v -1.188871 -2.058415 2.224673
v -0.931312 -2.117067 1.738309
v -0.637148 -1.967112 1.294116
v -0.351162 -1.631379 0.959719
v -0.116894 -1.160979 0.786026
v 0.029993 -0.627528 0.799480
v 0.067134 -0.112239 0.998034
v -0.011123 0.306441 1.351459
vn -0.2643 0.9309 -0.2522
vn -0.4271 0.9039 0.0223
vn -0.5983 0.7606 0.2520
vn -0.7518 0.5228 0.4019
vn -0.8642 0.2266 0.4492
vn -0.9185 -0.0828 0.3867
vn -0.9064 -0.3583 0.2238
vn -0.8297 -0.5581 -0.0146
vn -0.7001 -0.6516 -0.2921
vn -0.5373 -0.6247 -0.5667
vn -0.3661 -0.4814 -0.7964
vn -0.2126 -0.2435 -0.9463
vn -0.1002 0.0526 -0.9936
vn -0.0459 0.3621 -0.9310
vn -0.0580 0.6376 -0.7682
vn -0.1347 0.8373 -0.5298
vn 0.8444 -0.2445 0.4766
s off
f 1//1 9//1 2//1
f 2//2 9//2 3//2
f 3//3 9//3 4//3
f 4//4 9//4 5//4
f 5//5 9//5 6//5
f 6//6 9//6 7//6
f 7//7 9//7 8//7
f 8//8 9//8 10//8
f 10//9 9//9 11//9
f 11//10 9//10 12//10
f 12//11 9//11 13//11
f 13//12 9//12 14//12
f 14//13 9//13 15//13
f 15//14 9//14 16//14
f 16//15 9//15 17//15
f 17//16 9//16 1//16
f 17//17 4//17 8//17
f 17//17 1//17 2//17
f 2//17 3//17 4//17
f 4//17 5//17 6//17
f 6//17 7//17 8//17
f 8//17 10//17 11//17
f 11//17 12//17 13//17
f 13//17 14//17 15//17
f 15//17 16//17 17//17
f 17//17 2//17 4//17
f 4//17 6//17 8//17
f 8//17 11//17 13//17
f 13//17 15//17 8//17
f 15//17 17//17 8//17
