# Blender v2.83.0 OBJ File: ''
# www.blender.org
o Cone.051_Cone.1527
v 0.542294 -0.751583 0.650548
v 0.267006 -0.689600 0.563532
v 0.022850 -0.706264 0.398283
v -0.153003 -0.799038 0.179957
v -0.233781 -0.953797 -0.058206
v -0.207186 -1.146981 -0.279949
v -0.077268 -1.349179 -0.451513
v 0.136196 -1.529609 -0.546779
v 0.400706 -1.660801 -0.551244
v 0.675994 -1.722783 -0.464229
v 0.920150 -1.706119 -0.298979
v 1.096003 -1.613346 -0.080653
v 1.172307 0.247006 -1.132332
v 1.176781 -1.458587 0.157510
v 1.150187 -1.265403 0.379253
v 1.020268 -1.063204 0.550817
v 0.806804 -0.882775 0.646083
vn 0.0375 0.8662 0.4984
vn -0.2906 0.8948 0.3391
vn -0.5558 0.8257 0.0968
vn -0.7179 0.6693 -0.1915
vn -0.7521 0.4496 -0.4819
vn -0.6532 0.1999 -0.7303
vn -0.4364 -0.0417 -0.8988
vn -0.1345 -0.2385 -0.9618
vn 0.2064 -0.3605 -0.9096
vn 0.5344 -0.3891 -0.7503
vn 0.7996 -0.3200 -0.5081
vn 0.9617 -0.1637 -0.2198
vn 0.9959 0.0560 0.0706
vn 0.8971 0.3057 0.3190
vn 0.6802 0.5474 0.4875
vn 0.3784 0.7442 0.5505
vn -0.3504 -0.7266 0.5910
s off
f 1//1 13//1 2//1
f 2//2 13//2 3//2
f 3//3 13//3 4//3
f 4//4 13//4 5//4
f 5//5 13//5 6//5
f 6//6 13//6 7//6
f 7//7 13//7 8//7
f 8//8 13//8 9//8
f 9//9 13//9 10//9
f 10//10 13//10 11//10
f 11//11 13//11 12//11
f 12//12 13//12 14//12
f 14//13 13//13 15//13
f 15//14 13//14 16//14
f 16//15 13//15 17//15
f 17//16 13//16 1//16
f 8//17 12//17 17//17
f 17//17 1//17 2//17
f 2//17 3//17 4//17
f 4//17 5//17 6//17
f 6//17 7//17 8//17
f 8//17 9//17 10//17
f 10//17 11//17 8//17
f 11//17 12//17 8//17
f 12//17 14//17 15//17
f 15//17 16//17 17//17
f 17//17 2//17 4//17
f 4//17 6//17 8//17
f 12//17 15//17 17//17
f 17//17 4//17 8//17
