# Blender v2.83.0 OBJ File: ''
# www.blender.org
o Cone.006_Cone.1482
v 0.252484 -1.129011 1.113271
v -0.027421 -0.465078 1.159351
v -0.486290 0.052471 1.366376
v -1.054266 0.344844 1.702826
v -1.644880 0.367529 2.117482
v -2.168214 0.117072 2.547215
v -2.544597 -0.368396 2.926601
v -2.716728 -1.014966 3.197884
v -2.658401 -1.724206 3.319762
v -2.378497 -2.388139 3.273682
v -1.919627 -2.905688 3.066658
v -2.341910 -1.795582 0.614440
v -1.351650 -3.198061 2.730207
v -0.761037 -3.220746 2.315552
v -0.237702 -2.970289 1.885819
v 0.138681 -2.484821 1.506432
v 0.310811 -1.838250 1.235149
vn 0.1541 0.1329 -0.9791
vn 0.0034 0.3740 -0.9274
vn -0.2061 0.5392 -0.8166
vn -0.4425 0.6035 -0.6633
vn -0.6698 0.5570 -0.4910
vn -0.8534 0.4069 -0.3260
vn -0.9653 0.1759 -0.1932
vn -0.9885 -0.1007 -0.1130
vn -0.9195 -0.3809 -0.0975
vn -0.7687 -0.6219 -0.1492
vn -0.5592 -0.7872 -0.2600
vn -0.3229 -0.8514 -0.4133
vn -0.0956 -0.8050 -0.5856
vn 0.0880 -0.6548 -0.7506
vn 0.1999 -0.4239 -0.8834
vn 0.2231 -0.1472 -0.9636
vn 0.5695 0.1845 0.8010
s off
f 1//1 12//1 2//1
f 2//2 12//2 3//2
f 3//3 12//3 4//3
f 4//4 12//4 5//4
f 5//5 12//5 6//5
f 6//6 12//6 7//6
f 7//7 12//7 8//7
f 8//8 12//8 9//8
f 9//9 12//9 10//9
f 10//10 12//10 11//10
f 11//11 12//11 13//11
f 13//12 12//12 14//12
f 14//13 12//13 15//13
f 15//14 12//14 16//14
f 16//15 12//15 17//15
f 17//16 12//16 1//16
f 8//17 13//17 17//17
f 17//17 1//17 2//17
f 2//17 3//17 4//17
f 4//17 5//17 8//17
f 5//17 6//17 8//17
f 6//17 7//17 8//17
f 8//17 9//17 13//17
f 9//17 10//17 13//17
f 10//17 11//17 13//17
f 13//17 14//17 17//17
f 14//17 15//17 17//17
f 15//17 16//17 17//17
f 17//17 2//17 8//17
f 2//17 4//17 8//17
