# Blender v2.83.0 OBJ File: ''
# www.blender.org
o Cone.025_Cone.1501
v -1.336107 1.722669 1.366980
v -1.079938 1.761200 1.051643
v -0.918949 1.682880 0.684910
v -0.877649 1.499632 0.322613
v -0.962325 1.239354 0.019908
v -1.160086 0.941672 -0.177121
v -1.440826 0.651904 -0.238477
v -1.761803 0.414165 -0.154820
v -2.074153 0.264649 0.061114
v -2.330322 0.226118 0.376451
v -2.491311 0.304438 0.743184
v -0.486694 -0.361342 1.538295
v -2.532612 0.487686 1.105481
v -2.447935 0.747964 1.408186
v -2.250174 1.045647 1.605215
v -1.969434 1.335415 1.666571
v -1.648456 1.573153 1.582914
vn 0.7092 0.3398 0.6177
vn 0.8901 0.3226 0.3219
vn 0.9779 0.2091 0.0057
vn 0.9591 0.0168 -0.2827
vn 0.8366 -0.2252 -0.4994
vn 0.6290 -0.4800 -0.6115
vn 0.3681 -0.7087 -0.6018
vn 0.0934 -0.8767 -0.4719
vn -0.1531 -0.9582 -0.2415
vn -0.3341 -0.9410 0.0543
vn -0.4218 -0.8275 0.3705
vn -0.4030 -0.6352 0.6589
vn -0.2805 -0.3932 0.8756
vn -0.0730 -0.1384 0.9877
vn 0.1880 0.0903 0.9780
vn 0.4627 0.2583 0.8481
vn -0.6092 0.6775 -0.4121
s off
f 1//1 12//1 2//1
f 2//2 12//2 3//2
f 3//3 12//3 4//3
f 4//4 12//4 5//4
f 5//5 12//5 6//5
f 6//6 12//6 7//6
f 7//7 12//7 8//7
f 8//8 12//8 9//8
f 9//9 12//9 10//9
f 10//10 12//10 11//10
f 11//11 12//11 13//11
f 13//12 12//12 14//12
f 14//13 12//13 15//13
f 15//14 12//14 16//14
f 16//15 12//15 17//15
f 17//16 12//16 1//16
f 4//17 8//17 13//17
f 17//17 1//17 4//17
f 1//17 2//17 4//17
f 2//17 3//17 4//17
f 4//17 5//17 8//17
f 5//17 6//17 8//17
f 6//17 7//17 8//17
f 8//17 9//17 10//17
f 10//17 11//17 13//17
f 13//17 14//17 15//17
f 15//17 16//17 13//17
f 16//17 17//17 13//17
f 8//17 10//17 13//17
f 17//17 4//17 13//17
