# Blender v2.83.0 OBJ File: ''
# www.blender.org
o Cone.234_Cone.1710
v -0.992968 2.471280 2.409351
v -0.567713 2.098662 2.758492
v -0.041341 1.708547 2.869522
v 0.506013 1.360325 2.725538
v 0.991018 1.107010 2.348461
v 1.339838 0.987168 1.795697
v 1.499366 1.019042 1.151399
v 1.445318 1.197782 0.513656
v 1.185920 1.496174 -0.020442
v 0.760665 1.868791 -0.369583
v 0.234293 2.258907 -0.480614
v -0.313060 2.607129 -0.336630
v -1.025896 0.367491 0.836596
v -0.798066 2.860444 0.040447
v -1.146885 2.980286 0.593212
v -1.306414 2.948411 1.237510
v -1.252365 2.769672 1.875254
vn -0.7626 -0.3796 0.5237
vn -0.5440 -0.5548 0.6295
vn -0.2973 -0.7245 0.6219
vn -0.0601 -0.8627 0.5022
vn 0.1314 -0.9484 0.2886
vn 0.2482 -0.9686 0.0135
vn 0.2725 -0.9202 -0.2810
vn 0.2004 -0.8106 -0.5502
vn 0.0432 -0.6564 -0.7531
vn -0.1755 -0.4812 -0.8589
vn -0.4222 -0.3116 -0.8513
vn -0.6593 -0.1734 -0.7316
vn -0.8509 -0.0877 -0.5180
vn -0.9677 -0.0674 -0.2429
vn -0.9919 -0.1158 0.0516
vn -0.9199 -0.2254 0.3208
vn 0.5612 0.8081 0.1789
s off
f 1//1 13//1 2//1
f 2//2 13//2 3//2
f 3//3 13//3 4//3
f 4//4 13//4 5//4
f 5//5 13//5 6//5
f 6//6 13//6 7//6
f 7//7 13//7 8//7
f 8//8 13//8 9//8
f 9//9 13//9 10//9
f 10//10 13//10 11//10
f 11//11 13//11 12//11
f 12//12 13//12 14//12
f 14//13 13//13 15//13
f 15//14 13//14 16//14
f 16//15 13//15 17//15
f 17//16 13//16 1//16
f 8//17 12//17 17//17
f 17//17 1//17 2//17
f 2//17 3//17 4//17
f 4//17 5//17 6//17
f 6//17 7//17 8//17
f 8//17 9//17 10//17
f 10//17 11//17 12//17
f 12//17 14//17 15//17
f 15//17 16//17 17//17
f 17//17 2//17 4//17
f 4//17 6//17 8//17
f 8//17 10//17 12//17
f 12//17 15//17 17//17
f 17//17 4//17 8//17
