# Blender v2.83.0 OBJ File: ''
# www.blender.org
o Cone.022_Cone.1498
v -2.353712 -0.380477 0.448606
v -2.467187 -0.473076 0.143669
v -2.518518 -0.675475 -0.122485
v -2.499889 -0.956861 -0.309335
v -2.414138 -1.274394 -0.388436
v -2.274318 -1.579734 -0.347745
v -2.101717 -1.826395 -0.193457
v -1.922610 -1.976826 0.050939
v -1.764266 -2.008124 0.348235
v -1.650791 -1.915525 0.653172
v -1.599461 -1.713127 0.919326
v -1.618089 -1.431741 1.106176
v -0.365887 -0.529856 -0.433396
v -1.703841 -1.114208 1.185277
v -1.843660 -0.808867 1.144586
v -2.016262 -0.562206 0.990299
v -2.195369 -0.411775 0.745903
vn -0.0491 0.9606 -0.2734
vn -0.1383 0.8010 -0.5825
vn -0.1560 0.5392 -0.8276
vn -0.0995 0.2151 -0.9715
vn 0.0225 -0.1219 -0.9923
vn 0.1916 -0.4206 -0.8868
vn 0.3819 -0.6355 -0.6710
vn 0.5645 -0.7338 -0.3779
vn 0.7116 -0.7007 -0.0520
vn 0.8008 -0.5410 0.2570
vn 0.8185 -0.2792 0.5021
vn 0.7620 0.0448 0.6460
vn 0.6399 0.3819 0.6668
vn 0.4709 0.6806 0.5613
vn 0.2806 0.8955 0.3456
vn 0.0980 0.9938 0.0525
vn -0.8466 -0.3322 0.4159
vn -0.8465 -0.3322 0.4159
s off
f 1//1 13//1 2//1
f 2//2 13//2 3//2
f 3//3 13//3 4//3
f 4//4 13//4 5//4
f 5//5 13//5 6//5
f 6//6 13//6 7//6
f 7//7 13//7 8//7
f 8//8 13//8 9//8
f 9//9 13//9 10//9
f 10//10 13//10 11//10
f 11//11 13//11 12//11
f 12//12 13//12 14//12
f 14//13 13//13 15//13
f 15//14 13//14 16//14
f 16//15 13//15 17//15
f 17//16 13//16 1//16
f 4//17 8//17 12//17
f 17//17 1//17 2//17
f 2//17 3//17 4//17
f 4//17 5//17 6//17
f 6//17 7//17 4//17
f 7//17 8//17 4//17
f 8//18 9//18 10//18
f 10//17 11//17 8//17
f 11//17 12//17 8//17
f 12//17 14//17 15//17
f 15//17 16//17 17//17
f 17//17 2//17 4//17
f 12//17 15//17 17//17
f 17//17 4//17 12//17
