# Blender v2.83.0 OBJ File: ''
# www.blender.org
o Cone.243_Cone.1719
v 0.444930 -1.095355 -0.810394
v 0.975231 -1.104935 -0.731105
v 1.434620 -1.145257 -0.457367
v 1.753160 -1.210184 -0.030853
v 1.882356 -1.289831 0.483502
v 1.802539 -1.372073 1.007394
v 1.525861 -1.444388 1.461064
v 1.094443 -1.495768 1.775446
v 0.573965 -1.518391 1.902676
v 0.043665 -1.508811 1.823387
v -0.415724 -1.468489 1.549649
v 0.498999 0.669146 0.854749
v -0.734264 -1.403562 1.123136
v -0.863460 -1.323915 0.608780
v -0.783644 -1.241673 0.084888
v -0.506965 -1.169358 -0.368782
v -0.075547 -1.117978 -0.683164
vn 0.1205 0.6794 -0.7238
vn 0.4249 0.6640 -0.6152
vn 0.6642 0.6317 -0.3999
vn 0.8019 0.5872 -0.1105
vn 0.8171 0.5374 0.2088
vn 0.7074 0.4899 0.5095
vn 0.4896 0.4518 0.7457
vn 0.1969 0.4291 0.8816
vn -0.1263 0.4250 0.8963
vn -0.4307 0.4404 0.7877
vn -0.6700 0.4728 0.5724
vn -0.8077 0.5172 0.2830
vn -0.8229 0.5670 -0.0364
vn -0.7133 0.6146 -0.3370
vn -0.4955 0.6526 -0.5733
vn -0.2027 0.6754 -0.7091
vn 0.0052 -0.9880 -0.1543
s off
f 1//1 12//1 2//1
f 2//2 12//2 3//2
f 3//3 12//3 4//3
f 4//4 12//4 5//4
f 5//5 12//5 6//5
f 6//6 12//6 7//6
f 7//7 12//7 8//7
f 8//8 12//8 9//8
f 9//9 12//9 10//9
f 10//10 12//10 11//10
f 11//11 12//11 13//11
f 13//12 12//12 14//12
f 14//13 12//13 15//13
f 15//14 12//14 16//14
f 16//15 12//15 17//15
f 17//16 12//16 1//16
f 17//17 4//17 8//17
f 17//17 1//17 2//17
f 2//17 3//17 17//17
f 3//17 4//17 17//17
f 4//17 5//17 6//17
f 6//17 7//17 8//17
f 8//17 9//17 10//17
f 10//17 11//17 13//17
f 13//17 14//17 15//17
f 15//17 16//17 13//17
f 16//17 17//17 13//17
f 4//17 6//17 8//17
f 8//17 10//17 17//17
f 10//17 13//17 17//17
