# Blender v2.83.0 OBJ File: ''
# www.blender.org
o Cone.077_Cone.1553
v 1.321735 -0.053472 -0.394657
v 1.427182 -0.123848 -0.546554
v 1.463075 -0.224299 -0.713186
v 1.423948 -0.339533 -0.869184
v 1.315759 -0.452005 -0.990798
v 1.154979 -0.544593 -1.059515
v 0.966084 -0.603201 -1.064871
v 0.777832 -0.618907 -1.006053
v 0.618884 -0.589319 -0.892015
v 0.513437 -0.518943 -0.740117
v 0.477544 -0.418492 -0.573486
v 0.516670 -0.303259 -0.417488
v 1.441783 -1.939393 0.433603
v 0.624859 -0.190787 -0.295873
v 0.785640 -0.098199 -0.227157
v 0.974535 -0.039590 -0.221800
v 1.162786 -0.023885 -0.280618
vn 0.8455 0.2589 0.4670
vn 0.9834 0.0922 0.1562
vn 0.9803 -0.1182 -0.1586
vn 0.8365 -0.3403 -0.4294
vn 0.5741 -0.5404 -0.6151
vn 0.2329 -0.6879 -0.6874
vn -0.1350 -0.7604 -0.6352
vn -0.4738 -0.7469 -0.4666
vn -0.7317 -0.6494 -0.2071
vn -0.8696 -0.4827 0.1037
vn -0.8665 -0.2723 0.4184
vn -0.7227 -0.0501 0.6893
vn -0.4603 0.1500 0.8750
vn -0.1192 0.2975 0.9473
vn 0.2488 0.3700 0.8951
vn 0.5875 0.3564 0.7265
vn -0.2357 0.8090 -0.5385
s off
f 1//1 13//1 2//1
f 2//2 13//2 3//2
f 3//3 13//3 4//3
f 4//4 13//4 5//4
f 5//5 13//5 6//5
f 6//6 13//6 7//6
f 7//7 13//7 8//7
f 8//8 13//8 9//8
f 9//9 13//9 10//9
f 10//10 13//10 11//10
f 11//11 13//11 12//11
f 12//12 13//12 14//12
f 14//13 13//13 15//13
f 15//14 13//14 16//14
f 16//15 13//15 17//15
f 17//16 13//16 1//16
f 8//17 12//17 17//17
f 17//17 1//17 2//17
f 2//17 3//17 4//17
f 4//17 5//17 6//17
f 6//17 7//17 4//17
f 7//17 8//17 4//17
f 8//17 9//17 10//17
f 10//17 11//17 12//17
f 12//17 14//17 15//17
f 15//17 16//17 17//17
f 17//17 2//17 4//17
f 8//17 10//17 12//17
f 12//17 15//17 17//17
f 17//17 4//17 8//17
