# Blender v2.83.0 OBJ File: ''
# www.blender.org
o Cone.108_Cone.1584
v -0.538175 2.147558 -1.268707
v 0.082489 1.777786 -1.466136
v 0.495610 1.231876 -1.769859
v 0.638294 0.592939 -2.133637
v 0.488817 -0.041753 -2.502089
v 0.069938 -0.575574 -2.819121
v -0.554574 -0.927255 -3.036468
v -1.289642 -1.043254 -3.121040
v -2.023360 -0.905914 -3.059962
v -2.644024 -0.536142 -2.862534
v -3.057145 0.009768 -2.558810
v -1.322976 -0.375620 -0.430748
v -3.199829 0.648705 -2.195032
v -3.050353 1.283398 -1.826580
v -2.631473 1.817219 -1.509548
v -2.006960 2.168899 -1.292201
v -1.271892 2.284899 -1.207629
vn 0.3928 0.1775 0.9023
vn 0.5927 0.0004 0.8054
vn 0.7002 -0.2287 0.6763
vn 0.6989 -0.4750 0.5347
vn 0.5890 -0.7010 0.4022
vn 0.3872 -0.8722 0.2988
vn 0.1243 -0.9627 0.2404
vn -0.1598 -0.9586 0.2359
vn -0.4217 -0.8605 0.2859
vn -0.6216 -0.6834 0.3828
vn -0.7291 -0.4543 0.5119
vn -0.7278 -0.2080 0.6535
vn -0.6179 0.0180 0.7861
vn -0.4161 0.1893 0.8894
vn -0.1532 0.2797 0.9478
vn 0.1309 0.2756 0.9523
vn 0.0211 0.4982 -0.8668
s off
f 1//1 12//1 2//1
f 2//2 12//2 3//2
f 3//3 12//3 4//3
f 4//4 12//4 5//4
f 5//5 12//5 6//5
f 6//6 12//6 7//6
f 7//7 12//7 8//7
f 8//8 12//8 9//8
f 9//9 12//9 10//9
f 10//10 12//10 11//10
f 11//11 12//11 13//11
f 13//12 12//12 14//12
f 14//13 12//13 15//13
f 15//14 12//14 16//14
f 16//15 12//15 17//15
f 17//16 12//16 1//16
f 4//17 8//17 13//17
f 17//17 1//17 2//17
f 2//17 3//17 17//17
f 3//17 4//17 17//17
f 4//17 5//17 6//17
f 6//17 7//17 8//17
f 8//17 9//17 10//17
f 10//17 11//17 13//17
f 13//17 14//17 15//17
f 15//17 16//17 13//17
f 16//17 17//17 13//17
f 4//17 6//17 8//17
f 8//17 10//17 13//17
f 17//17 4//17 13//17
