# Blender v2.83.0 OBJ File: ''
# www.blender.org
o Cone.113_Cone.1589
v -0.314764 1.329271 3.089270
v -0.295313 1.123651 3.087020
v -0.207033 0.940721 3.049515
v -0.063365 0.808332 2.982465
v 0.113818 0.746638 2.896078
v 0.297544 0.765031 2.803505
v 0.459840 0.860712 2.718840
v 0.575999 1.019113 2.654973
v 0.628337 1.216120 2.621625
v 0.608886 1.421740 2.623876
v 0.520606 1.604669 2.661381
v -0.737487 1.207662 1.067699
v 0.376938 1.737059 2.728430
v 0.199755 1.798753 2.814818
v 0.016029 1.780360 2.907390
v -0.146267 1.684679 2.992055
v -0.262426 1.526277 3.055923
vn -0.9733 -0.0944 0.2092
vn -0.8729 -0.4565 0.1721
vn -0.6567 -0.7505 0.0747
vn -0.3576 -0.9314 -0.0683
vn -0.0212 -0.9717 -0.2351
vn 0.3013 -0.8654 -0.4004
vn 0.5609 -0.6286 -0.5388
vn 0.7180 -0.2973 -0.6294
vn 0.7486 0.0780 -0.6584
vn 0.6482 0.4402 -0.6214
vn 0.4320 0.7341 -0.5239
vn 0.1329 0.9150 -0.3809
vn -0.2035 0.9554 -0.2141
vn -0.5260 0.8491 -0.0489
vn -0.7856 0.6122 0.0896
vn -0.9427 0.2809 0.1802
vn 0.4471 0.0325 0.8939
s off
f 1//1 12//1 2//1
f 2//2 12//2 3//2
f 3//3 12//3 4//3
f 4//4 12//4 5//4
f 5//5 12//5 6//5
f 6//6 12//6 7//6
f 7//7 12//7 8//7
f 8//8 12//8 9//8
f 9//9 12//9 10//9
f 10//10 12//10 11//10
f 11//11 12//11 13//11
f 13//12 12//12 14//12
f 14//13 12//13 15//13
f 15//14 12//14 16//14
f 16//15 12//15 17//15
f 17//16 12//16 1//16
f 4//17 8//17 13//17
f 17//17 1//17 2//17
f 2//17 3//17 4//17
f 4//17 5//17 6//17
f 6//17 7//17 8//17
f 8//17 9//17 10//17
f 10//17 11//17 8//17
f 11//17 13//17 8//17
f 13//17 14//17 15//17
f 15//17 16//17 17//17
f 17//17 2//17 4//17
f 4//17 6//17 8//17
f 13//17 15//17 17//17
f 17//17 4//17 13//17
