# Blender v2.83.0 OBJ File: ''
# www.blender.org
o Cone.208_Cone.1684
v 0.533776 2.978022 -0.105293
v 0.335071 2.517085 -0.414420
v 0.096754 1.986105 -0.508071
v -0.144893 1.465919 -0.371991
v -0.353082 1.035720 -0.026895
v -0.496118 0.761001 0.474679
v -0.552224 0.683588 1.056369
v -0.512860 0.815264 1.629621
v -0.384019 1.135984 2.107160
v -0.185314 1.596920 2.416286
v 0.053003 2.127900 2.509938
v 0.294650 2.648087 2.373857
v 1.894225 1.228922 1.066213
v 0.502839 3.078286 2.028762
v 0.645875 3.353004 1.527188
v 0.701981 3.430418 0.945497
v 0.662617 3.298741 0.372245
vn 0.7365 0.1280 -0.6642
vn 0.6180 -0.1410 -0.7734
vn 0.4879 -0.4260 -0.7619
vn 0.3659 -0.6836 -0.6315
vn 0.2707 -0.8747 -0.4019
vn 0.2167 -0.9702 -0.1082
vn 0.2122 -0.9555 0.2049
vn 0.2578 -0.8329 0.4898
vn 0.3466 -0.6209 0.7031
vn 0.4651 -0.3520 0.8123
vn 0.5952 -0.0670 0.8008
vn 0.7172 0.1907 0.6703
vn 0.8124 0.3818 0.4408
vn 0.8664 0.4773 0.1471
vn 0.8709 0.4625 -0.1661
vn 0.8253 0.3399 -0.4509
vn -0.9097 0.4140 -0.0326
s off
f 1//1 13//1 2//1
f 2//2 13//2 3//2
f 3//3 13//3 4//3
f 4//4 13//4 5//4
f 5//5 13//5 6//5
f 6//6 13//6 7//6
f 7//7 13//7 8//7
f 8//8 13//8 9//8
f 9//9 13//9 10//9
f 10//10 13//10 11//10
f 11//11 13//11 12//11
f 12//12 13//12 14//12
f 14//13 13//13 15//13
f 15//14 13//14 16//14
f 16//15 13//15 17//15
f 17//16 13//16 1//16
f 17//17 4//17 8//17
f 17//17 1//17 4//17
f 1//17 2//17 4//17
f 2//17 3//17 4//17
f 4//17 5//17 6//17
f 6//17 7//17 4//17
f 7//17 8//17 4//17
f 8//17 9//17 10//17
f 10//17 11//17 12//17
f 12//17 14//17 15//17
f 15//17 16//17 12//17
f 16//17 17//17 12//17
f 8//17 10//17 17//17
f 10//17 12//17 17//17
