# Blender v2.83.0 OBJ File: ''
# www.blender.org
o Cone.055_Cone.1531
v -0.832336 0.215358 -1.065986
v -0.642880 0.141594 -1.204896
v -0.504699 0.118424 -1.407381
v -0.438828 0.149377 -1.642612
v -0.455297 0.229740 -1.874779
v -0.551599 0.347278 -2.068536
v -0.713071 0.484098 -2.194386
v -0.915132 0.619369 -2.233167
v -1.127019 0.732497 -2.178978
v -1.316475 0.806262 -2.040067
v -1.454657 0.829431 -1.837583
v -1.989711 -1.178223 -2.122712
v -1.520527 0.798478 -1.602351
v -1.504058 0.718115 -1.370184
v -1.407756 0.600577 -1.176427
v -1.246284 0.463757 -1.050578
v -1.044223 0.328486 -1.011796
vn 0.2243 -0.7002 0.6778
vn 0.4772 -0.7750 0.4143
vn 0.6346 -0.7690 0.0765
vn 0.6727 -0.6831 -0.2842
vn 0.5857 -0.5304 -0.6129
vn 0.3868 -0.3341 -0.8595
vn 0.1062 -0.1241 -0.9866
vn -0.2132 0.0676 -0.9747
vn -0.5229 0.2118 -0.8257
vn -0.7758 0.2866 -0.5622
vn -0.9332 0.2806 -0.2244
vn -0.9714 0.1947 0.1363
vn -0.8843 0.0420 0.4650
vn -0.6854 -0.1543 0.7116
vn -0.4049 -0.3643 0.8387
vn -0.0854 -0.5560 0.8268
vn 0.5050 0.8261 0.2501
s off
f 1//1 12//1 2//1
f 2//2 12//2 3//2
f 3//3 12//3 4//3
f 4//4 12//4 5//4
f 5//5 12//5 6//5
f 6//6 12//6 7//6
f 7//7 12//7 8//7
f 8//8 12//8 9//8
f 9//9 12//9 10//9
f 10//10 12//10 11//10
f 11//11 12//11 13//11
f 13//12 12//12 14//12
f 14//13 12//13 15//13
f 15//14 12//14 16//14
f 16//15 12//15 17//15
f 17//16 12//16 1//16
f 13//17 15//17 17//17
f 17//17 1//17 2//17
f 2//17 3//17 4//17
f 4//17 5//17 6//17
f 6//17 7//17 8//17
f 8//17 9//17 10//17
f 10//17 11//17 13//17
f 13//17 14//17 15//17
f 15//17 16//17 17//17
f 17//17 2//17 8//17
f 2//17 4//17 8//17
f 4//17 6//17 8//17
f 8//17 10//17 17//17
f 10//17 13//17 17//17
