# Blender v2.83.0 OBJ File: ''
# www.blender.org
o Cone.147_Cone.1623
v -3.893145 -0.462690 -0.111049
v -3.844754 -1.222927 -0.113591
v -3.509266 -1.906754 -0.125240
v -2.937755 -2.410065 -0.144223
v -2.217229 -2.656236 -0.167650
v -1.457380 -2.607789 -0.191955
v -0.773890 -2.272100 -0.213437
v -0.270813 -1.700275 -0.228825
v -0.024738 -0.979369 -0.235778
v -0.073129 -0.219133 -0.233236
v -0.408616 0.464694 -0.221586
v -0.980127 0.968006 -0.202603
v -2.023046 -0.718426 -2.172384
v -1.700654 1.214177 -0.179176
v -2.460503 1.165730 -0.154871
v -3.143993 0.830041 -0.133390
v -3.647070 0.258215 -0.118001
vn -0.7426 -0.0450 -0.6682
vn -0.6702 -0.3174 -0.6708
vn -0.4992 -0.5413 -0.6766
vn -0.2555 -0.6827 -0.6846
vn 0.0237 -0.7200 -0.6936
vn 0.2959 -0.6475 -0.7023
vn 0.5197 -0.4763 -0.7092
vn 0.6610 -0.2325 -0.7134
vn 0.6983 0.0468 -0.7143
vn 0.6259 0.3192 -0.7116
vn 0.4548 0.5431 -0.7058
vn 0.2112 0.6845 -0.6978
vn -0.0680 0.7218 -0.6888
vn -0.3403 0.6493 -0.6802
vn -0.5641 0.4781 -0.6732
vn -0.7054 0.2343 -0.6690
vn 0.0321 -0.0013 0.9995
s off
f 1//1 13//1 2//1
f 2//2 13//2 3//2
f 3//3 13//3 4//3
f 4//4 13//4 5//4
f 5//5 13//5 6//5
f 6//6 13//6 7//6
f 7//7 13//7 8//7
f 8//8 13//8 9//8
f 9//9 13//9 10//9
f 10//10 13//10 11//10
f 11//11 13//11 12//11
f 12//12 13//12 14//12
f 14//13 13//13 15//13
f 15//14 13//14 16//14
f 16//15 13//15 17//15
f 17//16 13//16 1//16
f 10//17 12//17 17//17
f 17//17 1//17 2//17
f 2//17 3//17 4//17
f 4//17 5//17 6//17
f 6//17 7//17 8//17
f 8//17 9//17 10//17
f 10//17 11//17 12//17
f 12//17 14//17 15//17
f 15//17 16//17 12//17
f 16//17 17//17 12//17
f 17//17 2//17 8//17
f 2//17 4//17 8//17
f 4//17 6//17 8//17
f 8//17 10//17 17//17
