# Blender v2.83.0 OBJ File: ''
# www.blender.org
o Cone.193_Cone.1669
v 2.271892 2.295953 -0.752143
v 2.446946 2.248502 -0.580042
v 2.618763 2.116063 -0.455730
v 2.761185 1.918799 -0.398133
v 2.852530 1.686741 -0.416020
v 2.878891 1.455218 -0.506667
v 2.836256 1.259478 -0.656275
v 2.731113 1.129320 -0.842067
v 2.579473 1.084559 -1.035757
v 2.404418 1.132010 -1.207859
v 2.232601 1.264449 -1.332171
v 1.013315 1.037448 0.362657
v 2.090179 1.461713 -1.389768
v 1.998834 1.693771 -1.371881
v 1.972473 1.925294 -1.281234
v 2.015109 2.121034 -1.131626
v 2.120251 2.251192 -0.945834
vn -0.3123 0.7855 0.5342
vn -0.0490 0.6490 0.7592
vn 0.1895 0.3988 0.8973
vn 0.3669 0.0729 0.9274
vn 0.4562 -0.2789 0.8450
vn 0.4439 -0.6032 0.6627
vn 0.3317 -0.8505 0.4081
vn 0.1368 -0.9833 0.1201
vn -0.1111 -0.9812 -0.1575
vn -0.3744 -0.8447 -0.3825
vn -0.6129 -0.5945 -0.5205
vn -0.7903 -0.2686 -0.5507
vn -0.8796 0.0832 -0.4683
vn -0.8673 0.4075 -0.2860
vn -0.7551 0.6548 -0.0314
vn -0.5602 0.7876 0.2566
vn 0.7062 0.3264 -0.6283
s off
f 1//1 12//1 2//1
f 2//2 12//2 3//2
f 3//3 12//3 4//3
f 4//4 12//4 5//4
f 5//5 12//5 6//5
f 6//6 12//6 7//6
f 7//7 12//7 8//7
f 8//8 12//8 9//8
f 9//9 12//9 10//9
f 10//10 12//10 11//10
f 11//11 12//11 13//11
f 13//12 12//12 14//12
f 14//13 12//13 15//13
f 15//14 12//14 16//14
f 16//15 12//15 17//15
f 17//16 12//16 1//16
f 4//17 8//17 13//17
f 17//17 1//17 2//17
f 2//17 3//17 4//17
f 4//17 5//17 6//17
f 6//17 7//17 4//17
f 7//17 8//17 4//17
f 8//17 9//17 10//17
f 10//17 11//17 8//17
f 11//17 13//17 8//17
f 13//17 14//17 15//17
f 15//17 16//17 17//17
f 17//17 2//17 4//17
f 13//17 15//17 17//17
f 17//17 4//17 13//17
