# Blender v2.83.0 OBJ File: ''
# www.blender.org
o Cone.170_Cone.1646
v -2.913131 0.809556 0.107075
v -2.891041 0.693562 0.400752
v -2.806179 0.683348 0.705518
v -2.671464 0.780470 0.974977
v -2.507407 0.970142 1.168106
v -2.338982 1.223487 1.255501
v -2.191832 1.501937 1.223859
v -2.088358 1.763100 1.077996
v -2.044313 1.967216 0.840119
v -2.066404 2.083210 0.546443
v -2.151266 2.093424 0.241676
v -2.285980 1.996302 -0.027783
v -0.791126 0.439541 -0.028112
v -2.450038 1.806630 -0.220912
v -2.618462 1.553285 -0.308307
v -2.765613 1.274835 -0.276665
v -2.869087 1.013672 -0.130802
vn -0.1825 -0.9191 -0.3493
vn -0.1201 -0.9928 0.0002
vn 0.0082 -0.9420 0.3355
vn 0.1826 -0.7746 0.6056
vn 0.3768 -0.5159 0.7694
vn 0.5610 -0.2054 0.8019
vn 0.7074 0.1097 0.6983
vn 0.7935 0.3814 0.4742
vn 0.8063 0.5683 0.1638
vn 0.7439 0.6420 -0.1856
vn 0.6157 0.5913 -0.5209
vn 0.4412 0.4238 -0.7910
vn 0.2471 0.1651 -0.9548
vn 0.0628 -0.1454 -0.9874
vn -0.0836 -0.4605 -0.8837
vn -0.1697 -0.7322 -0.6597
vn -0.8438 0.4744 0.2509
s off
f 1//1 13//1 2//1
f 2//2 13//2 3//2
f 3//3 13//3 4//3
f 4//4 13//4 5//4
f 5//5 13//5 6//5
f 6//6 13//6 7//6
f 7//7 13//7 8//7
f 8//8 13//8 9//8
f 9//9 13//9 10//9
f 10//10 13//10 11//10
f 11//11 13//11 12//11
f 12//12 13//12 14//12
f 14//13 13//13 15//13
f 15//14 13//14 16//14
f 16//15 13//15 17//15
f 17//16 13//16 1//16
f 8//17 12//17 17//17
f 17//17 1//17 2//17
f 2//17 3//17 17//17
f 3//17 4//17 17//17
f 4//17 5//17 6//17
f 6//17 7//17 4//17
f 7//17 8//17 4//17
f 8//17 9//17 10//17
f 10//17 11//17 8//17
f 11//17 12//17 8//17
f 12//17 14//17 15//17
f 15//17 16//17 17//17
f 12//17 15//17 17//17
f 17//17 4//17 8//17
