# Blender v2.83.0 OBJ File: ''
# www.blender.org
o Cone.236_Cone.1712
v -1.948374 2.616106 2.420474
v -1.890570 2.833178 2.011326
v -1.815439 2.875857 1.552635
v -1.734421 2.737645 1.114232
v -1.659850 2.439584 0.762860
v -1.603078 2.027050 0.552012
v -1.572748 1.562849 0.513789
v -1.573478 1.117651 0.654008
v -1.605157 0.759233 0.951323
v -1.662962 0.542161 1.360471
v -1.738092 0.499482 1.819162
v -1.819110 0.637694 2.257565
v 0.192873 1.789019 2.017941
v -1.893681 0.935755 2.608937
v -1.950454 1.348289 2.819785
v -1.980783 1.812490 2.858008
v -1.980053 2.257688 2.717789
vn 0.3934 0.7880 0.4736
vn 0.4423 0.8835 0.1546
vn 0.4997 0.8483 -0.1751
vn 0.5569 0.6880 -0.4654
vn 0.6051 0.4268 -0.6721
vn 0.6372 0.1045 -0.7636
vn 0.6480 -0.2298 -0.7261
vn 0.6361 -0.5252 -0.5653
vn 0.6032 -0.7367 -0.3056
vn 0.5544 -0.8322 0.0134
vn 0.4970 -0.7971 0.3431
vn 0.4398 -0.6367 0.6334
vn 0.3915 -0.3755 0.8401
vn 0.3595 -0.0532 0.9316
vn 0.3486 0.2810 0.8941
vn 0.3605 0.5764 0.7333
vn -0.9848 -0.0507 -0.1660
s off
f 1//1 13//1 2//1
f 2//2 13//2 3//2
f 3//3 13//3 4//3
f 4//4 13//4 5//4
f 5//5 13//5 6//5
f 6//6 13//6 7//6
f 7//7 13//7 8//7
f 8//8 13//8 9//8
f 9//9 13//9 10//9
f 10//10 13//10 11//10
f 11//11 13//11 12//11
f 12//12 13//12 14//12
f 14//13 13//13 15//13
f 15//14 13//14 16//14
f 16//15 13//15 17//15
f 17//16 13//16 1//16
f 4//17 8//17 12//17
f 17//17 1//17 4//17
f 1//17 2//17 4//17
f 2//17 3//17 4//17
f 4//17 5//17 6//17
f 6//17 7//17 8//17
f 8//17 9//17 10//17
f 10//17 11//17 12//17
f 12//17 14//17 15//17
f 15//17 16//17 12//17
f 16//17 17//17 12//17
f 4//17 6//17 8//17
f 8//17 10//17 12//17
f 17//17 4//17 12//17
