# Blender v2.83.0 OBJ File: ''
# www.blender.org
o Cone.214_Cone.1690
v -0.887807 1.875186 0.948548
v -0.801174 2.073027 0.692863
v -0.784650 2.179294 0.375915
v -0.840751 2.177808 0.045958
v -0.960934 2.068795 -0.246777
v -1.126904 1.868851 -0.457722
v -1.313394 1.608417 -0.554764
v -1.492011 1.327140 -0.523127
v 0.396147 0.387599 0.013473
v -1.635563 1.067843 -0.367631
v -1.722196 0.870002 -0.111945
v -1.738720 0.763735 0.205002
v -1.682620 0.765221 0.534960
v -1.562436 0.874234 0.827694
v -1.396466 1.074178 1.038639
v -1.209976 1.334613 1.135681
v -1.031359 1.615889 1.104045
vn 0.7785 0.3405 0.5273
vn 0.8350 0.5071 0.2136
vn 0.8133 0.5645 -0.1408
vn 0.7168 0.5040 -0.4819
vn 0.5600 0.3347 -0.7579
vn 0.3669 0.0825 -0.9266
vn 0.1669 -0.2142 -0.9624
vn -0.0096 -0.5104 -0.8599
vn -0.1357 -0.7608 -0.6347
vn -0.1922 -0.9274 -0.3210
vn -0.1705 -0.9848 0.0334
vn -0.0739 -0.9243 0.3745
vn 0.0828 -0.7550 0.6505
vn 0.2759 -0.5028 0.8192
vn 0.4759 -0.2060 0.8550
vn 0.6524 0.0901 0.7525
vn -0.8289 0.5420 0.1385
s off
f 1//1 9//1 2//1
f 2//2 9//2 3//2
f 3//3 9//3 4//3
f 4//4 9//4 5//4
f 5//5 9//5 6//5
f 6//6 9//6 7//6
f 7//7 9//7 8//7
f 8//8 9//8 10//8
f 10//9 9//9 11//9
f 11//10 9//10 12//10
f 12//11 9//11 13//11
f 13//12 9//12 14//12
f 14//13 9//13 15//13
f 15//14 9//14 16//14
f 16//15 9//15 17//15
f 17//16 9//16 1//16
f 4//17 8//17 13//17
f 17//17 1//17 2//17
f 2//17 3//17 4//17
f 4//17 5//17 6//17
f 6//17 7//17 8//17
f 8//17 10//17 11//17
f 11//17 12//17 13//17
f 13//17 14//17 15//17
f 15//17 16//17 17//17
f 17//17 2//17 4//17
f 4//17 6//17 8//17
f 8//17 11//17 13//17
f 13//17 15//17 17//17
f 17//17 4//17 13//17
