# Blender v2.83.0 OBJ File: ''
# www.blender.org
o Cone.244_Cone.1720
v 2.462322 -1.739280 -1.089026
v 2.486677 -1.492611 -0.933180
v 2.476118 -1.319549 -0.697246
v 2.432252 -1.246441 -0.417143
v 2.361757 -1.284418 -0.135513
v 2.275365 -1.427697 0.104766
v 2.186229 -1.654465 0.267116
v 2.107919 -1.930200 0.326820
v 2.052357 -2.212923 0.274789
v 2.028002 -2.459592 0.118943
v 2.038561 -2.632655 -0.116991
v 2.082427 -2.705762 -0.397094
v 0.353639 -1.525463 -0.822870
v 2.152922 -2.667786 -0.678724
v 2.239314 -2.524507 -0.919004
v 2.328450 -2.297738 -1.081353
v 2.406760 -2.022003 -1.141057
vn -0.0518 0.5371 -0.8420
vn -0.0430 0.8047 -0.5922
vn -0.0777 0.9616 -0.2632
vn -0.1506 0.9840 0.0950
vn -0.2507 0.8685 0.4277
vn -0.3626 0.6325 0.6844
vn -0.4693 0.3121 0.8260
vn -0.5547 -0.0439 0.8309
vn -0.6056 -0.3814 0.6984
vn -0.6144 -0.6490 0.4486
vn -0.5797 -0.8060 0.1196
vn -0.5068 -0.8284 -0.2386
vn -0.4068 -0.7128 -0.5713
vn -0.2949 -0.4769 -0.8280
vn -0.1881 -0.1565 -0.9696
vn -0.1028 0.1995 -0.9745
vn 0.9519 -0.2253 0.2079
vn 0.9518 -0.2253 0.2079
s off
f 1//1 13//1 2//1
f 2//2 13//2 3//2
f 3//3 13//3 4//3
f 4//4 13//4 5//4
f 5//5 13//5 6//5
f 6//6 13//6 7//6
f 7//7 13//7 8//7
f 8//8 13//8 9//8
f 9//9 13//9 10//9
f 10//10 13//10 11//10
f 11//11 13//11 12//11
f 12//12 13//12 14//12
f 14//13 13//13 15//13
f 15//14 13//14 16//14
f 16//15 13//15 17//15
f 17//16 13//16 1//16
f 8//17 12//17 17//17
f 17//17 1//17 2//17
f 2//18 3//18 4//18
f 4//18 5//18 6//18
f 6//18 7//18 8//18
f 8//18 9//18 10//18
f 10//17 11//17 8//17
f 11//18 12//18 8//18
f 12//18 14//18 15//18
f 15//18 16//18 12//18
f 16//17 17//17 12//17
f 17//17 2//17 4//17
f 4//17 6//17 8//17
f 17//17 4//17 8//17
