# Blender v2.83.0 OBJ File: ''
# www.blender.org
o Cone.167_Cone.1643
v -0.122870 1.301427 0.712392
v -0.145568 1.353712 0.274343
v -0.012582 1.334078 -0.146448
v 0.255842 1.245516 -0.485919
v 0.618840 1.101507 -0.692389
v 1.021147 0.923976 -0.734425
v 1.401517 0.739950 -0.605628
v 1.702042 0.577446 -0.325604
v 1.696634 2.697329 0.561991
v 1.876969 0.461203 0.063014
v 1.899667 0.408918 0.501063
v 1.766681 0.428552 0.921853
v 1.498257 0.517114 1.261325
v 1.135259 0.661123 1.467795
v 0.732951 0.838654 1.509831
v 0.352581 1.022680 1.381033
v 0.052056 1.185184 1.101009
vn -0.5973 0.7921 0.1255
vn -0.5539 0.8050 -0.2126
vn -0.3959 0.7624 -0.5119
vn -0.1473 0.6708 -0.7268
vn 0.1540 0.5442 -0.8247
vn 0.4621 0.4019 -0.7905
vn 0.7302 0.2655 -0.6296
vn 0.9174 0.1557 -0.3663
vn 0.9952 0.0894 -0.0409
vn 0.9517 0.0765 0.2972
vn 0.7937 0.1191 0.5965
vn 0.5451 0.2107 0.8114
vn 0.2438 0.3373 0.9093
vn -0.0643 0.4796 0.8751
vn -0.3323 0.6160 0.7142
vn -0.5195 0.7258 0.4509
vn -0.4098 -0.9080 -0.0871
s off
f 1//1 9//1 2//1
f 2//2 9//2 3//2
f 3//3 9//3 4//3
f 4//4 9//4 5//4
f 5//5 9//5 6//5
f 6//6 9//6 7//6
f 7//7 9//7 8//7
f 8//8 9//8 10//8
f 10//9 9//9 11//9
f 11//10 9//10 12//10
f 12//11 9//11 13//11
f 13//12 9//12 14//12
f 14//13 9//13 15//13
f 15//14 9//14 16//14
f 16//15 9//15 17//15
f 17//16 9//16 1//16
f 17//17 4//17 8//17
f 17//17 1//17 2//17
f 2//17 3//17 4//17
f 4//17 5//17 6//17
f 6//17 7//17 8//17
f 8//17 10//17 11//17
f 11//17 12//17 13//17
f 13//17 14//17 15//17
f 15//17 16//17 13//17
f 16//17 17//17 13//17
f 17//17 2//17 4//17
f 4//17 6//17 8//17
f 8//17 11//17 17//17
f 11//17 13//17 17//17
