# Blender v2.83.0 OBJ File: ''
# www.blender.org
o Cone.253_Cone.1729
v -0.604539 0.018429 -0.336340
v -0.851632 0.185200 -0.442384
v -1.062871 0.293961 -0.651339
v -1.206095 0.328155 -0.931393
v -1.259501 0.282577 -1.239911
v -1.214957 0.164164 -1.529924
v -1.079245 -0.009055 -1.757279
v -0.873027 -0.210709 -1.887364
v -0.627696 -0.410099 -1.900375
v -0.380602 -0.576869 -1.794331
v -0.169364 -0.685631 -1.585377
v 0.600957 1.330119 -1.554472
v -0.026140 -0.719825 -1.305322
v 0.027266 -0.674246 -0.996804
v -0.017278 -0.555834 -0.706792
v -0.152990 -0.382615 -0.479436
v -0.359208 -0.180960 -0.349351
vn 0.0941 0.6297 0.7711
vn -0.1737 0.7906 0.5871
vn -0.3808 0.8742 0.3015
vn -0.4956 0.8675 -0.0424
vn -0.5008 0.7717 -0.3920
vn -0.3955 0.6013 -0.6942
vn -0.1958 0.3824 -0.9030
vn 0.0680 0.1481 -0.9866
vn 0.3557 -0.0658 -0.9323
vn 0.6234 -0.2268 -0.7483
vn 0.8305 -0.3103 -0.4626
vn 0.9454 -0.3036 -0.1188
vn 0.9505 -0.2078 0.2309
vn 0.8452 -0.0375 0.5331
vn 0.6455 0.1815 0.7419
vn 0.3817 0.4158 0.8255
vn -0.6085 -0.7630 0.2181
s off
f 1//1 12//1 2//1
f 2//2 12//2 3//2
f 3//3 12//3 4//3
f 4//4 12//4 5//4
f 5//5 12//5 6//5
f 6//6 12//6 7//6
f 7//7 12//7 8//7
f 8//8 12//8 9//8
f 9//9 12//9 10//9
f 10//10 12//10 11//10
f 11//11 12//11 13//11
f 13//12 12//12 14//12
f 14//13 12//13 15//13
f 15//14 12//14 16//14
f 16//15 12//15 17//15
f 17//16 12//16 1//16
f 10//17 13//17 17//17
f 17//17 1//17 2//17
f 2//17 3//17 17//17
f 3//17 4//17 17//17
f 4//17 5//17 6//17
f 6//17 7//17 8//17
f 8//17 9//17 10//17
f 10//17 11//17 13//17
f 13//17 14//17 17//17
f 14//17 15//17 17//17
f 15//17 16//17 17//17
f 4//17 6//17 17//17
f 6//17 8//17 17//17
f 8//17 10//17 17//17
