# Blender v2.83.0 OBJ File: ''
# www.blender.org
o Cone.229_Cone.1705
v 1.003309 -2.144402 1.583508
v 1.562610 -1.727889 1.318649
v 1.921489 -1.108017 1.110283
v 2.025312 -0.379157 0.990134
v 1.858271 0.347729 0.976492
v 1.445797 0.961979 1.071434
v 0.850685 1.370078 1.260506
v 0.163537 1.509899 1.514925
v -0.511037 1.360154 1.795955
v -1.070338 0.943641 2.060815
v -1.429218 0.323769 2.269180
v -1.533040 -0.405091 2.389330
v -0.480736 -0.593925 -0.162546
v -1.365999 -1.131977 2.402972
v -0.953525 -1.746227 2.308030
v -0.358413 -2.154327 2.118957
v 0.328736 -2.294147 1.864539
vn 0.1548 -0.6697 -0.7263
vn 0.3334 -0.4681 -0.8183
vn 0.4234 -0.2058 -0.8823
vn 0.4111 0.0774 -0.9083
vn 0.2984 0.3383 -0.8925
vn 0.1024 0.5372 -0.8372
vn -0.1470 0.6438 -0.7509
vn -0.4119 0.6419 -0.6468
vn -0.6520 0.5317 -0.5406
vn -0.8306 0.3301 -0.4485
vn -0.9206 0.0677 -0.3846
vn -0.9083 -0.2155 -0.3586
vn -0.7956 -0.4763 -0.3744
vn -0.5995 -0.6752 -0.4297
vn -0.3501 -0.7818 -0.5159
vn -0.0852 -0.7799 -0.6201
vn 0.3634 0.1009 0.9261
s off
f 1//1 13//1 2//1
f 2//2 13//2 3//2
f 3//3 13//3 4//3
f 4//4 13//4 5//4
f 5//5 13//5 6//5
f 6//6 13//6 7//6
f 7//7 13//7 8//7
f 8//8 13//8 9//8
f 9//9 13//9 10//9
f 10//10 13//10 11//10
f 11//11 13//11 12//11
f 12//12 13//12 14//12
f 14//13 13//13 15//13
f 15//14 13//14 16//14
f 16//15 13//15 17//15
f 17//16 13//16 1//16
f 10//17 12//17 17//17
f 17//17 1//17 2//17
f 2//17 3//17 4//17
f 4//17 5//17 6//17
f 6//17 7//17 4//17
f 7//17 8//17 4//17
f 8//17 9//17 10//17
f 10//17 11//17 12//17
f 12//17 14//17 15//17
f 15//17 16//17 12//17
f 16//17 17//17 12//17
f 17//17 2//17 8//17
f 2//17 4//17 8//17
f 8//17 10//17 17//17
