# Blender v2.83.0 OBJ File: ''
# www.blender.org
o Cone.046_Cone.1522
v 1.956899 0.888008 -1.210631
v 1.949107 0.494660 -1.299554
v 1.907029 0.165066 -1.528219
v 1.837071 -0.050597 -1.861814
v 1.749884 -0.119495 -2.249554
v 1.658741 -0.031140 -2.632408
v 1.577517 0.201017 -2.952090
v 1.518579 0.541633 -3.159931
v -0.223988 0.850471 -1.768270
v 1.490899 0.938851 -3.224289
v 1.498691 1.332199 -3.135367
v 1.540769 1.661793 -2.906703
v 1.610727 1.877456 -2.573107
v 1.697914 1.946355 -2.185367
v 1.789058 1.857999 -1.802513
v 1.870281 1.625842 -1.482831
v 1.929219 1.285226 -1.274990
vn -0.2388 -0.2096 0.9482
vn -0.2608 -0.5276 0.8085
vn -0.3100 -0.7674 0.5612
vn -0.3792 -0.8926 0.2439
vn -0.4576 -0.8841 -0.0951
vn -0.5334 -0.7431 -0.4041
vn -0.5951 -0.4911 -0.6361
vn -0.6332 -0.1666 -0.7559
vn -0.6419 0.1811 -0.7451
vn -0.6200 0.4991 -0.6054
vn -0.5707 0.7390 -0.3581
vn -0.5016 0.8641 -0.0408
vn -0.4231 0.8556 0.2982
vn -0.3473 0.7146 0.6072
vn -0.2857 0.4627 0.8392
vn -0.2476 0.1381 0.9590
vn 0.9739 0.0315 -0.2246
s off
f 1//1 9//1 2//1
f 2//2 9//2 3//2
f 3//3 9//3 4//3
f 4//4 9//4 5//4
f 5//5 9//5 6//5
f 6//6 9//6 7//6
f 7//7 9//7 8//7
f 8//8 9//8 10//8
f 10//9 9//9 11//9
f 11//10 9//10 12//10
f 12//11 9//11 13//11
f 13//12 9//12 14//12
f 14//13 9//13 15//13
f 15//14 9//14 16//14
f 16//15 9//15 17//15
f 17//16 9//16 1//16
f 4//17 8//17 13//17
f 17//17 1//17 2//17
f 2//17 3//17 4//17
f 4//17 5//17 8//17
f 5//17 6//17 8//17
f 6//17 7//17 8//17
f 8//17 10//17 11//17
f 11//17 12//17 8//17
f 12//17 13//17 8//17
f 13//17 14//17 17//17
f 14//17 15//17 17//17
f 15//17 16//17 17//17
f 17//17 2//17 4//17
f 17//17 4//17 13//17
