# Blender v2.83.0 OBJ File: ''
# www.blender.org
o Cone.064_Cone.1540
v -2.045835 -0.293952 1.876721
v -2.347439 0.076551 1.772767
v -2.498815 0.489463 1.559153
v -2.476919 0.881924 1.268398
v -2.285085 1.194184 0.944768
v -1.952516 1.378705 0.637532
v -1.529845 1.407394 0.393465
v -1.081419 1.275884 0.249723
v -0.675505 1.004197 0.228189
v -0.373903 0.633694 0.332143
v -0.222526 0.220781 0.545757
v -0.568761 1.419657 2.549000
v -0.244422 -0.171680 0.836512
v -0.436256 -0.483940 1.160142
v -0.768825 -0.668460 1.467378
v -1.191496 -0.697149 1.711445
v -1.639923 -0.565639 1.855187
vn -0.3722 -0.0429 0.9271
vn -0.5293 0.2287 0.8171
vn -0.5741 0.5078 0.6422
vn -0.5000 0.7521 0.4293
vn -0.3183 0.9243 0.2106
vn -0.0565 0.9982 0.0195
vn 0.2455 0.9626 -0.1149
vn 0.5416 0.8228 -0.1722
vn 0.7868 0.6002 -0.1436
vn 0.9439 0.3287 -0.0336
vn 0.9887 0.0495 0.1413
vn 0.9146 -0.1948 0.3542
vn 0.7329 -0.3670 0.5729
vn 0.4711 -0.4409 0.7640
vn 0.1691 -0.4052 0.8984
vn -0.1270 -0.2655 0.9557
vn -0.3960 -0.5323 -0.7483
s off
f 1//1 12//1 2//1
f 2//2 12//2 3//2
f 3//3 12//3 4//3
f 4//4 12//4 5//4
f 5//5 12//5 6//5
f 6//6 12//6 7//6
f 7//7 12//7 8//7
f 8//8 12//8 9//8
f 9//9 12//9 10//9
f 10//10 12//10 11//10
f 11//11 12//11 13//11
f 13//12 12//12 14//12
f 14//13 12//13 15//13
f 15//14 12//14 16//14
f 16//15 12//15 17//15
f 17//16 12//16 1//16
f 8//17 13//17 17//17
f 17//17 1//17 2//17
f 2//17 3//17 17//17
f 3//17 4//17 17//17
f 4//17 5//17 6//17
f 6//17 7//17 8//17
f 8//17 9//17 10//17
f 10//17 11//17 8//17
f 11//17 13//17 8//17
f 13//17 14//17 15//17
f 15//17 16//17 17//17
f 4//17 6//17 8//17
f 13//17 15//17 17//17
f 17//17 4//17 8//17
