# Blender v2.83.0 OBJ File: ''
# www.blender.org
o Cone.004_Cone.1480
v -0.863809 0.205456 0.040023
v -0.681839 0.051736 -0.113228
v -0.473321 -0.133167 -0.163828
v -0.270001 -0.321102 -0.104075
v -0.102832 -0.483458 0.056935
v 0.002736 -0.595518 0.294689
v 0.030630 -0.640221 0.572992
v -0.023395 -0.610763 0.849475
v -0.151115 -0.511627 1.082045
v -0.333086 -0.357907 1.235296
v -0.541604 -0.173005 1.285896
v 0.831727 1.328737 0.664831
v -0.744924 0.014931 1.226143
v -0.912093 0.177287 1.065133
v -1.017660 0.289347 0.827379
v -1.045555 0.334050 0.549076
v -0.991529 0.304592 0.272593
vn -0.1266 0.6212 -0.7734
vn 0.1318 0.3972 -0.9082
vn 0.4043 0.1505 -0.9022
vn 0.6494 -0.0812 -0.7561
vn 0.8298 -0.2628 -0.4923
vn 0.9181 -0.3665 -0.1509
vn 0.9008 -0.3766 0.2161
vn 0.7806 -0.2915 0.5529
vn 0.5757 -0.1242 0.8082
vn 0.3173 0.0998 0.9430
vn 0.0449 0.3465 0.9370
vn -0.2002 0.5782 0.7909
vn -0.3807 0.7598 0.5271
vn -0.4690 0.8635 0.1857
vn -0.4517 0.8736 -0.1813
vn -0.3314 0.7885 -0.5181
vn -0.6696 -0.7409 -0.0519
s off
f 1//1 12//1 2//1
f 2//2 12//2 3//2
f 3//3 12//3 4//3
f 4//4 12//4 5//4
f 5//5 12//5 6//5
f 6//6 12//6 7//6
f 7//7 12//7 8//7
f 8//8 12//8 9//8
f 9//9 12//9 10//9
f 10//10 12//10 11//10
f 11//11 12//11 13//11
f 13//12 12//12 14//12
f 14//13 12//13 15//13
f 15//14 12//14 16//14
f 16//15 12//15 17//15
f 17//16 12//16 1//16
f 17//17 4//17 8//17
f 17//17 1//17 2//17
f 2//17 3//17 4//17
f 4//17 5//17 6//17
f 6//17 7//17 8//17
f 8//17 9//17 10//17
f 10//17 11//17 13//17
f 13//17 14//17 17//17
f 14//17 15//17 17//17
f 15//17 16//17 17//17
f 17//17 2//17 4//17
f 4//17 6//17 8//17
f 8//17 10//17 17//17
f 10//17 13//17 17//17
