# Blender v2.83.0 OBJ File: ''
# www.blender.org
o Cone.018_Cone.1494
v 1.524710 3.056819 0.352543
v 1.122658 2.990195 0.967614
v 0.798004 2.650190 1.536291
v 0.600173 2.088568 1.971999
v 0.559283 1.390830 2.208403
v 0.681560 0.663201 2.209515
v 0.948387 0.016455 1.975164
v 1.319143 -0.450946 1.541029
v 1.737383 -0.667845 0.973203
v 2.139435 -0.601221 0.358132
v 2.464089 -0.261217 -0.210546
v -0.012863 0.916544 -0.441803
v 2.661920 0.300405 -0.646253
v 2.702810 0.998143 -0.882658
v 2.580533 1.725773 -0.883770
v 2.313706 2.372519 -0.649419
v 1.942950 2.839921 -0.215283
vn -0.6804 0.6286 -0.3767
vn -0.8241 0.5482 -0.1427
vn -0.9274 0.3700 0.0559
vn -0.9745 0.1211 0.1887
vn -0.9585 -0.1607 0.2357
vn -0.8815 -0.4324 0.1896
vn -0.7555 -0.6526 0.0574
vn -0.5995 -0.7879 -0.1406
vn -0.4374 -0.8176 -0.3745
vn -0.2937 -0.7372 -0.6085
vn -0.1904 -0.5590 -0.8070
vn -0.1433 -0.3100 -0.9399
vn -0.1593 -0.0283 -0.9868
vn -0.2363 0.2434 -0.9407
vn -0.3623 0.4636 -0.8086
vn -0.5183 0.5989 -0.6105
vn 0.8220 0.1390 0.5523
s off
f 1//1 12//1 2//1
f 2//2 12//2 3//2
f 3//3 12//3 4//3
f 4//4 12//4 5//4
f 5//5 12//5 6//5
f 6//6 12//6 7//6
f 7//7 12//7 8//7
f 8//8 12//8 9//8
f 9//9 12//9 10//9
f 10//10 12//10 11//10
f 11//11 12//11 13//11
f 13//12 12//12 14//12
f 14//13 12//13 15//13
f 15//14 12//14 16//14
f 16//15 12//15 17//15
f 17//16 12//16 1//16
f 4//17 8//17 13//17
f 17//17 1//17 2//17
f 2//17 3//17 17//17
f 3//17 4//17 17//17
f 4//17 5//17 6//17
f 6//17 7//17 4//17
f 7//17 8//17 4//17
f 8//17 9//17 10//17
f 10//17 11//17 8//17
f 11//17 13//17 8//17
f 13//17 14//17 17//17
f 14//17 15//17 17//17
f 15//17 16//17 17//17
f 17//17 4//17 13//17
