# Blender v2.83.0 OBJ File: ''
# www.blender.org
o Cone.258_Cone.1734
v -0.159344 -0.721381 -0.179607
v -0.690252 -0.729852 0.282220
v -1.339603 -0.852421 0.524170
v -2.008538 -1.070428 0.509409
v -2.595219 -1.350683 0.240184
v -3.010328 -1.650521 -0.242518
v -3.190669 -1.924293 -0.865210
v -3.108787 -2.130320 -1.533093
v -2.777147 -2.237236 -2.144487
v -2.246239 -2.228765 -2.606314
v -1.596889 -2.106196 -2.848265
v -2.043998 0.329906 -1.790737
v -0.927953 -1.888189 -2.833504
v -0.341272 -1.607934 -2.564279
v 0.073837 -1.308096 -2.081576
v 0.254178 -1.034324 -1.458884
v 0.172296 -0.828297 -0.791001
vn 0.2511 0.9185 0.3055
vn 0.0012 0.8907 0.4546
vn -0.2779 0.8186 0.5027
vn -0.5437 0.7131 0.4425
vn -0.7558 0.5903 0.2833
vn -0.8819 0.4688 0.0493
vn -0.9028 0.3673 -0.2240
vn -0.8152 0.3010 -0.4948
vn -0.6326 0.2802 -0.7221
vn -0.3827 0.3079 -0.8711
vn -0.1036 0.3800 -0.9192
vn 0.1623 0.4855 -0.8590
vn 0.3744 0.6083 -0.6998
vn 0.5005 0.7298 -0.4658
vn 0.5213 0.8314 -0.1925
vn 0.4338 0.8976 0.0783
vn 0.2879 -0.9046 0.3143
s off
f 1//1 12//1 2//1
f 2//2 12//2 3//2
f 3//3 12//3 4//3
f 4//4 12//4 5//4
f 5//5 12//5 6//5
f 6//6 12//6 7//6
f 7//7 12//7 8//7
f 8//8 12//8 9//8
f 9//9 12//9 10//9
f 10//10 12//10 11//10
f 11//11 12//11 13//11
f 13//12 12//12 14//12
f 14//13 12//13 15//13
f 15//14 12//14 16//14
f 16//15 12//15 17//15
f 17//16 12//16 1//16
f 8//17 13//17 17//17
f 17//17 1//17 2//17
f 2//17 3//17 4//17
f 4//17 5//17 6//17
f 6//17 7//17 4//17
f 7//17 8//17 4//17
f 8//17 9//17 10//17
f 10//17 11//17 13//17
f 13//17 14//17 15//17
f 15//17 16//17 17//17
f 17//17 2//17 4//17
f 8//17 10//17 13//17
f 13//17 15//17 17//17
f 17//17 4//17 8//17
