# Blender v2.83.0 OBJ File: ''
# www.blender.org
o Cone.070_Cone.1546
v -0.080940 -0.880291 1.250211
v 0.041084 -0.122859 1.309479
v -0.136302 0.624871 1.348690
v -0.586092 1.249066 1.361876
v -1.239810 1.654697 1.347028
v -1.997934 1.780011 1.306408
v -2.745044 1.605929 1.246200
v -3.367402 1.158955 1.175569
v -3.770259 0.507135 1.105268
v -3.892283 -0.250295 1.046001
v -3.714897 -0.998026 1.006790
v -1.796589 -0.051550 -0.813522
v -3.265107 -1.622221 0.993604
v -2.611388 -2.027853 1.008452
v -1.853265 -2.153166 1.049072
v -1.106154 -1.979084 1.109280
v -0.483796 -1.532109 1.179911
vn 0.7531 -0.0701 -0.6542
vn 0.7428 0.2096 -0.6359
vn 0.6262 0.4645 -0.6262
vn 0.4212 0.6558 -0.6265
vn 0.1588 0.7545 -0.6368
vn -0.1209 0.7454 -0.6555
vn -0.3753 0.6300 -0.6798
vn -0.5658 0.4259 -0.7060
vn -0.6634 0.1640 -0.7301
vn -0.6531 -0.1157 -0.7484
vn -0.5365 -0.3706 -0.7581
vn -0.3315 -0.5620 -0.7578
vn -0.0691 -0.6606 -0.7475
vn 0.2106 -0.6516 -0.7288
vn 0.4650 -0.5362 -0.7045
vn 0.6555 -0.3320 -0.6783
vn -0.0645 -0.0675 0.9956
s off
f 1//1 12//1 2//1
f 2//2 12//2 3//2
f 3//3 12//3 4//3
f 4//4 12//4 5//4
f 5//5 12//5 6//5
f 6//6 12//6 7//6
f 7//7 12//7 8//7
f 8//8 12//8 9//8
f 9//9 12//9 10//9
f 10//10 12//10 11//10
f 11//11 12//11 13//11
f 13//12 12//12 14//12
f 14//13 12//13 15//13
f 15//14 12//14 16//14
f 16//15 12//15 17//15
f 17//16 12//16 1//16
f 17//17 4//17 8//17
f 17//17 1//17 2//17
f 2//17 3//17 4//17
f 4//17 5//17 6//17
f 6//17 7//17 8//17
f 8//17 9//17 10//17
f 10//17 11//17 13//17
f 13//17 14//17 15//17
f 15//17 16//17 17//17
f 17//17 2//17 4//17
f 4//17 6//17 8//17
f 8//17 10//17 13//17
f 13//17 15//17 8//17
f 15//17 17//17 8//17
