# Blender v2.83.0 OBJ File: ''
# www.blender.org
o Cone.036_Cone.1512
v 0.569954 0.007965 -2.445230
v 0.550075 0.414229 -2.320512
v 0.599765 0.749217 -2.062996
v 0.711459 0.961929 -1.711887
v 0.868153 1.019982 -1.320637
v 1.045992 0.914539 -0.948810
v 1.217901 0.661651 -0.653014
v 1.357709 0.299819 -0.478282
v 1.444131 -0.115871 -0.451213
v 1.464011 -0.522135 -0.575931
v 1.414321 -0.857123 -0.833446
v 1.302627 -1.069835 -1.184556
v -0.807436 -0.380708 -0.673046
v 1.145932 -1.127888 -1.575807
v 0.968093 -1.022445 -1.947633
v 0.796184 -0.769557 -2.243429
v 0.656376 -0.407725 -2.418162
vn -0.7964 0.1415 -0.5880
vn -0.7841 0.4471 -0.4304
vn -0.7176 0.6730 -0.1794
vn -0.6069 0.7846 0.1267
vn -0.4690 0.7651 0.4413
vn -0.3248 0.6173 0.7165
vn -0.1963 0.3639 0.9105
vn -0.1030 0.0433 0.9937
vn -0.0592 -0.2956 0.9535
vn -0.0715 -0.6012 0.7959
vn -0.1380 -0.8270 0.5449
vn -0.2487 -0.9387 0.2389
vn -0.3866 -0.9191 -0.0758
vn -0.5308 -0.7714 -0.3510
vn -0.6593 -0.5179 -0.5450
vn -0.7526 -0.1974 -0.6282
vn 0.9072 0.1634 -0.3876
s off
f 1//1 13//1 2//1
f 2//2 13//2 3//2
f 3//3 13//3 4//3
f 4//4 13//4 5//4
f 5//5 13//5 6//5
f 6//6 13//6 7//6
f 7//7 13//7 8//7
f 8//8 13//8 9//8
f 9//9 13//9 10//9
f 10//10 13//10 11//10
f 11//11 13//11 12//11
f 12//12 13//12 14//12
f 14//13 13//13 15//13
f 15//14 13//14 16//14
f 16//15 13//15 17//15
f 17//16 13//16 1//16
f 4//17 8//17 12//17
f 17//17 1//17 4//17
f 1//17 2//17 4//17
f 2//17 3//17 4//17
f 4//17 5//17 6//17
f 6//17 7//17 8//17
f 8//17 9//17 10//17
f 10//17 11//17 12//17
f 12//17 14//17 15//17
f 15//17 16//17 17//17
f 4//17 6//17 8//17
f 8//17 10//17 12//17
f 12//17 15//17 17//17
f 17//17 4//17 12//17
