# Blender v2.83.0 OBJ File: ''
# www.blender.org
o Cone.093_Cone.1569
v -1.547804 -1.504790 1.547213
v -1.764824 -1.166109 1.733970
v -1.995339 -0.787709 1.752849
v -2.204256 -0.427198 1.600976
v -2.359769 -0.139459 1.301471
v -2.438202 0.031700 0.899933
v -2.427615 0.060224 0.457492
v -2.329619 -0.058232 0.041505
v -0.145536 0.129867 0.738856
v -2.159134 -0.305632 -0.284698
v -1.942115 -0.644312 -0.471455
v -1.711599 -1.022712 -0.490334
v -1.502682 -1.383224 -0.338461
v -1.347170 -1.670962 -0.038957
v -1.268736 -1.842122 0.362582
v -1.279323 -1.870645 0.805023
v -1.377319 -1.752190 1.221011
vn 0.5702 -0.0851 0.8170
vn 0.3949 0.1958 0.8976
vn 0.2228 0.4853 0.8455
vn 0.0800 0.7392 0.6687
vn -0.0117 0.9190 0.3940
vn -0.0382 0.9973 0.0634
vn 0.0043 0.9620 -0.2729
vn 0.1095 0.8187 -0.5637
vn 0.2613 0.5891 -0.7647
vn 0.4366 0.3082 -0.8452
vn 0.6088 0.0187 -0.7931
vn 0.7515 -0.2353 -0.6163
vn 0.8432 -0.4151 -0.3416
vn 0.8698 -0.4933 -0.0110
vn 0.8272 -0.4581 0.3253
vn 0.7221 -0.3147 0.6161
vn -0.8540 -0.5175 -0.0538
s off
f 1//1 9//1 2//1
f 2//2 9//2 3//2
f 3//3 9//3 4//3
f 4//4 9//4 5//4
f 5//5 9//5 6//5
f 6//6 9//6 7//6
f 7//7 9//7 8//7
f 8//8 9//8 10//8
f 10//9 9//9 11//9
f 11//10 9//10 12//10
f 12//11 9//11 13//11
f 13//12 9//12 14//12
f 14//13 9//13 15//13
f 15//14 9//14 16//14
f 16//15 9//15 17//15
f 17//16 9//16 1//16
f 8//17 13//17 17//17
f 17//17 1//17 2//17
f 2//17 3//17 17//17
f 3//17 4//17 17//17
f 4//17 5//17 6//17
f 6//17 7//17 4//17
f 7//17 8//17 4//17
f 8//17 10//17 11//17
f 11//17 12//17 13//17
f 13//17 14//17 15//17
f 15//17 16//17 13//17
f 16//17 17//17 13//17
f 8//17 11//17 13//17
f 17//17 4//17 8//17
