# Blender v2.83.0 OBJ File: ''
# www.blender.org
o Cone.216_Cone.1692
v 1.194498 0.514100 1.856745
v 0.979785 0.676674 2.042573
v 0.767360 0.912018 2.123525
v 0.589563 1.184302 2.087278
v 0.473463 1.452073 1.939349
v 0.436733 1.674567 1.702259
v 0.484967 1.817910 1.412103
v 0.610821 1.860280 1.113055
v 2.487197 2.233113 2.134554
v 0.795134 1.795226 0.850642
v 1.009847 1.632652 0.664814
v 1.222272 1.397309 0.583861
v 1.400068 1.125024 0.620108
v 1.516169 0.857253 0.768038
v 1.552899 0.634759 1.005128
v 1.504665 0.491416 1.295284
v 1.378811 0.449046 1.594332
vn 0.3876 -0.4238 0.8186
vn 0.1475 -0.2001 0.9686
vn -0.0719 0.0853 0.9938
vn -0.2372 0.3890 0.8902
vn -0.3231 0.6646 0.6737
vn -0.3166 0.8703 0.3773
vn -0.2187 0.9747 0.0460
vn -0.0444 0.9619 -0.2696
vn 0.1800 0.8340 -0.5216
vn 0.4201 0.6102 -0.6716
vn 0.6395 0.3248 -0.6968
vn 0.8048 0.0212 -0.5932
vn 0.8907 -0.2544 -0.3767
vn 0.8842 -0.4601 -0.0803
vn 0.7863 -0.5645 0.2509
vn 0.6120 -0.5518 0.5666
vn -0.7462 -0.5392 -0.3904
s off
f 1//1 9//1 2//1
f 2//2 9//2 3//2
f 3//3 9//3 4//3
f 4//4 9//4 5//4
f 5//5 9//5 6//5
f 6//6 9//6 7//6
f 7//7 9//7 8//7
f 8//8 9//8 10//8
f 10//9 9//9 11//9
f 11//10 9//10 12//10
f 12//11 9//11 13//11
f 13//12 9//12 14//12
f 14//13 9//13 15//13
f 15//14 9//14 16//14
f 16//15 9//15 17//15
f 17//16 9//16 1//16
f 15//17 17//17 8//17
f 17//17 1//17 2//17
f 2//17 3//17 4//17
f 4//17 5//17 6//17
f 6//17 7//17 4//17
f 7//17 8//17 4//17
f 8//17 10//17 11//17
f 11//17 12//17 8//17
f 12//17 13//17 8//17
f 13//17 14//17 15//17
f 15//17 16//17 17//17
f 17//17 2//17 8//17
f 2//17 4//17 8//17
f 13//17 15//17 8//17
