# Blender v2.83.0 OBJ File: ''
# www.blender.org
o Cone.076_Cone.1552
v -1.720649 -1.983911 -0.406757
v -2.101478 -2.153435 -0.640174
v -2.343256 -2.383939 -0.981735
v -2.409173 -2.640331 -1.379442
v -2.289195 -2.883577 -1.772748
v -2.001586 -3.076647 -2.101774
v -1.590133 -3.190145 -2.316430
v -1.117476 -3.206795 -2.384036
v -0.655572 -3.124060 -2.294300
v -0.274742 -2.954536 -2.060884
v -0.032965 -2.724033 -1.719323
v -1.281973 -0.867824 -2.421999
v 0.032953 -2.467641 -1.321615
v -0.087026 -2.224394 -0.928310
v -0.374635 -2.031324 -0.599284
v -0.786088 -1.917826 -0.384628
v -1.258745 -1.901176 -0.317022
vn -0.5403 0.7805 0.3146
vn -0.7625 0.6377 0.1094
vn -0.8723 0.4639 -0.1545
vn -0.8530 0.2855 -0.4368
vn -0.7075 0.1298 -0.6946
vn -0.4580 0.0204 -0.8887
vn -0.1424 -0.0261 -0.9895
vn 0.1911 -0.0025 -0.9816
vn 0.4919 0.0876 -0.8662
vn 0.7142 0.2303 -0.6610
vn 0.8240 0.4041 -0.3971
vn 0.8047 0.5825 -0.1148
vn 0.6592 0.7382 0.1431
vn 0.4097 0.8476 0.3371
vn 0.0941 0.8941 0.4379
vn -0.2395 0.8705 0.4300
vn 0.0469 -0.8431 0.5357
s off
f 1//1 12//1 2//1
f 2//2 12//2 3//2
f 3//3 12//3 4//3
f 4//4 12//4 5//4
f 5//5 12//5 6//5
f 6//6 12//6 7//6
f 7//7 12//7 8//7
f 8//8 12//8 9//8
f 9//9 12//9 10//9
f 10//10 12//10 11//10
f 11//11 12//11 13//11
f 13//12 12//12 14//12
f 14//13 12//13 15//13
f 15//14 12//14 16//14
f 16//15 12//15 17//15
f 17//16 12//16 1//16
f 4//17 8//17 13//17
f 17//17 1//17 2//17
f 2//17 3//17 4//17
f 4//17 5//17 6//17
f 6//17 7//17 4//17
f 7//17 8//17 4//17
f 8//17 9//17 10//17
f 10//17 11//17 8//17
f 11//17 13//17 8//17
f 13//17 14//17 15//17
f 15//17 16//17 13//17
f 16//17 17//17 13//17
f 17//17 2//17 4//17
f 17//17 4//17 13//17
