# Blender v2.83.0 OBJ File: ''
# www.blender.org
o Cone.135_Cone.1611
v -0.222144 0.926903 0.220374
v -0.043025 0.384567 0.146864
v 0.238250 -0.103598 0.266008
v 0.578860 -0.463273 0.559665
v 0.926950 -0.639701 0.983130
v 1.229526 -0.606022 1.471933
v 1.440524 -0.367363 1.951660
v 1.527822 0.039941 2.349275
v 1.478129 0.553883 2.604246
v 1.299010 1.096219 2.677755
v 1.017735 1.584383 2.558612
v 2.211875 1.402582 0.386239
v 0.677125 1.944059 2.264955
v 0.329035 2.120486 1.841490
v 0.026459 2.086807 1.352686
v -0.184539 1.848148 0.872960
v -0.271837 1.440844 0.475344
vn 0.0387 0.1467 -0.9884
vn 0.1675 -0.1416 -0.9756
vn 0.3415 -0.3788 -0.8601
vn 0.5342 -0.5289 -0.6595
vn 0.7163 -0.5688 -0.4042
vn 0.8600 -0.4926 -0.1332
vn 0.9435 -0.3118 0.1123
vn 0.9540 -0.0541 0.2949
vn 0.8900 0.2415 0.3868
vn 0.7611 0.5299 0.3741
vn 0.5871 0.7671 0.2585
vn 0.3944 0.9171 0.0579
vn 0.2123 0.9571 -0.1974
vn 0.0686 0.8808 -0.4684
vn -0.0148 0.7001 -0.7139
vn -0.0253 0.4423 -0.8965
vn -0.7919 -0.3311 0.5130
s off
f 1//1 12//1 2//1
f 2//2 12//2 3//2
f 3//3 12//3 4//3
f 4//4 12//4 5//4
f 5//5 12//5 6//5
f 6//6 12//6 7//6
f 7//7 12//7 8//7
f 8//8 12//8 9//8
f 9//9 12//9 10//9
f 10//10 12//10 11//10
f 11//11 12//11 13//11
f 13//12 12//12 14//12
f 14//13 12//13 15//13
f 15//14 12//14 16//14
f 16//15 12//15 17//15
f 17//16 12//16 1//16
f 8//17 13//17 17//17
f 17//17 1//17 2//17
f 2//17 3//17 17//17
f 3//17 4//17 17//17
f 4//17 5//17 6//17
f 6//17 7//17 4//17
f 7//17 8//17 4//17
f 8//17 9//17 10//17
f 10//17 11//17 13//17
f 13//17 14//17 17//17
f 14//17 15//17 17//17
f 15//17 16//17 17//17
f 8//17 10//17 13//17
f 17//17 4//17 8//17
