# Blender v2.83.0 OBJ File: ''
# www.blender.org
o Cone.198_Cone.1674
v -3.008689 -1.189162 -1.688849
v -3.055831 -0.950857 -2.164320
v -2.896238 -0.711423 -2.614082
v -2.554207 -0.507313 -2.969664
v -2.081809 -0.369600 -3.176930
v -1.550961 -0.319250 -3.204327
v -1.042482 -0.363928 -3.047684
v -0.633782 -0.496832 -2.730848
v -0.387082 -0.697730 -2.302055
v -0.339940 -0.936035 -1.826584
v -0.499533 -1.175469 -1.376822
v -1.820033 0.836335 -1.091317
v -0.841564 -1.379579 -1.021240
v -1.313962 -1.517292 -0.813974
v -1.844810 -1.567642 -0.786577
v -2.353289 -1.522964 -0.943220
v -2.761989 -1.390059 -1.260056
vn -0.8596 0.4176 0.2945
vn -0.8248 0.5654 0.0083
vn -0.6696 0.7026 -0.2408
vn -0.4177 0.8083 -0.4149
vn -0.1073 0.8665 -0.4875
vn 0.2142 0.8682 -0.4476
vn 0.4979 0.8133 -0.3011
vn 0.7006 0.7100 -0.0704
vn 0.7915 0.5742 0.2093
vn 0.7567 0.4264 0.4955
vn 0.6016 0.2892 0.7446
vn 0.3496 0.1834 0.9188
vn 0.0393 0.1253 0.9913
vn -0.2822 0.1235 0.9514
vn -0.5660 0.1784 0.8049
vn -0.7687 0.2817 0.5742
vn 0.0611 -0.8899 -0.4521
s off
f 1//1 12//1 2//1
f 2//2 12//2 3//2
f 3//3 12//3 4//3
f 4//4 12//4 5//4
f 5//5 12//5 6//5
f 6//6 12//6 7//6
f 7//7 12//7 8//7
f 8//8 12//8 9//8
f 9//9 12//9 10//9
f 10//10 12//10 11//10
f 11//11 12//11 13//11
f 13//12 12//12 14//12
f 14//13 12//13 15//13
f 15//14 12//14 16//14
f 16//15 12//15 17//15
f 17//16 12//16 1//16
f 17//17 4//17 8//17
f 17//17 1//17 2//17
f 2//17 3//17 4//17
f 4//17 5//17 6//17
f 6//17 7//17 8//17
f 8//17 9//17 10//17
f 10//17 11//17 13//17
f 13//17 14//17 15//17
f 15//17 16//17 17//17
f 17//17 2//17 4//17
f 4//17 6//17 8//17
f 8//17 10//17 13//17
f 13//17 15//17 8//17
f 15//17 17//17 8//17
