# Blender v2.83.0 OBJ File: ''
# www.blender.org
o Cone.010_Cone.1486
v 1.393732 -0.961357 -2.232014
v 1.314556 -1.338608 -2.062641
v 1.110326 -1.627273 -1.834086
v 0.812134 -1.783405 -1.581146
v 0.465377 -1.783234 -1.342327
v 0.122846 -1.626788 -1.153989
v -0.163312 -1.337882 -1.044803
v -0.349532 -0.960501 -1.031393
v -0.407464 -0.552097 -1.115800
v -0.328288 -0.174846 -1.285173
v -0.124058 0.113819 -1.513727
v 1.593673 -0.270433 -0.076305
v 0.174134 0.269951 -1.766668
v 0.520891 0.269781 -2.005486
v 0.863422 0.113334 -2.193825
v 1.149580 -0.175572 -2.303010
v 1.335800 -0.552954 -2.316420
vn 0.9764 -0.2147 -0.0218
vn 0.8581 -0.4928 0.1444
vn 0.6483 -0.6785 0.3455
vn 0.3790 -0.7436 0.5508
vn 0.0912 -0.6782 0.7292
vn -0.1714 -0.4923 0.8534
vn -0.3686 -0.2140 0.9046
vn -0.4706 0.1141 0.8750
vn -0.4617 0.4421 0.7690
vn -0.3433 0.7202 0.6028
vn -0.1336 0.9059 0.4018
vn 0.1358 0.9711 0.1964
vn 0.4236 0.9057 0.0181
vn 0.6861 0.7197 -0.1062
vn 0.8834 0.4415 -0.1574
vn 0.9853 0.1134 -0.1277
vn -0.5503 -0.2431 -0.7988
s off
f 1//1 12//1 2//1
f 2//2 12//2 3//2
f 3//3 12//3 4//3
f 4//4 12//4 5//4
f 5//5 12//5 6//5
f 6//6 12//6 7//6
f 7//7 12//7 8//7
f 8//8 12//8 9//8
f 9//9 12//9 10//9
f 10//10 12//10 11//10
f 11//11 12//11 13//11
f 13//12 12//12 14//12
f 14//13 12//13 15//13
f 15//14 12//14 16//14
f 16//15 12//15 17//15
f 17//16 12//16 1//16
f 4//17 8//17 13//17
f 17//17 1//17 4//17
f 1//17 2//17 4//17
f 2//17 3//17 4//17
f 4//17 5//17 6//17
f 6//17 7//17 8//17
f 8//17 9//17 10//17
f 10//17 11//17 13//17
f 13//17 14//17 15//17
f 15//17 16//17 17//17
f 4//17 6//17 8//17
f 8//17 10//17 13//17
f 13//17 15//17 17//17
f 17//17 4//17 13//17
