# Blender v2.83.0 OBJ File: ''
# www.blender.org
o Cone.001_Cone.1477
v 1.002540 0.697941 0.671804
v 0.779830 0.224032 0.475238
v 0.409015 -0.103212 0.214020
v -0.053450 -0.233973 -0.072082
v -0.537160 -0.148342 -0.339512
v -0.968475 0.140643 -0.547556
v -1.281729 0.588987 -0.664541
v -1.429235 1.128434 -0.672657
v -1.388535 1.676858 -0.570670
v -1.165824 2.150766 -0.374104
v -0.795010 2.478011 -0.112887
v -0.332545 2.608772 0.173216
v -1.186507 0.941589 1.768856
v 0.151166 2.523141 0.440646
v 0.582480 2.234156 0.648690
v 0.895735 1.785811 0.765675
v 1.043241 1.246364 0.773791
vn 0.3452 -0.4934 0.7984
vn 0.1725 -0.7265 0.6652
vn -0.0699 -0.8597 0.5060
vn -0.3452 -0.8729 0.3449
vn -0.6114 -0.7639 0.2066
vn -0.8281 -0.5493 0.1120
vn -0.9621 -0.2619 0.0756
vn -0.9932 0.0546 0.1029
vn -0.9166 0.3520 0.1898
vn -0.7439 0.5851 0.3230
vn -0.5014 0.7184 0.4822
vn -0.2261 0.7315 0.6433
vn 0.0401 0.6225 0.7816
vn 0.2567 0.4080 0.8762
vn 0.3908 0.1206 0.9126
vn 0.4218 -0.1959 0.8852
vn 0.4968 0.1229 -0.8591
s off
f 1//1 13//1 2//1
f 2//2 13//2 3//2
f 3//3 13//3 4//3
f 4//4 13//4 5//4
f 5//5 13//5 6//5
f 6//6 13//6 7//6
f 7//7 13//7 8//7
f 8//8 13//8 9//8
f 9//9 13//9 10//9
f 10//10 13//10 11//10
f 11//11 13//11 12//11
f 12//12 13//12 14//12
f 14//13 13//13 15//13
f 15//14 13//14 16//14
f 16//15 13//15 17//15
f 17//16 13//16 1//16
f 15//17 17//17 8//17
f 17//17 1//17 4//17
f 1//17 2//17 4//17
f 2//17 3//17 4//17
f 4//17 5//17 6//17
f 6//17 7//17 8//17
f 8//17 9//17 10//17
f 10//17 11//17 12//17
f 12//17 14//17 15//17
f 15//17 16//17 17//17
f 4//17 6//17 17//17
f 6//17 8//17 17//17
f 8//17 10//17 12//17
f 12//17 15//17 8//17
