# Blender v2.83.0 OBJ File: ''
# www.blender.org
o Cone.137_Cone.1613
v 0.042030 1.690065 2.551002
v -0.043326 1.883842 2.204678
v -0.224351 1.951838 1.847772
v -0.473485 1.883700 1.534619
v -0.752800 1.689801 1.312893
v -1.019772 1.399662 1.216351
v -1.233759 1.057452 1.259691
v -1.362181 0.715272 1.436313
v -1.385488 0.425213 1.719330
v -1.300132 0.231435 2.065654
v -1.119107 0.163440 2.422560
v -0.869973 0.231578 2.735713
v 0.774964 0.035418 1.206649
v -0.590658 0.425476 2.957439
v -0.323685 0.715616 3.053981
v -0.109699 1.057826 3.010641
v 0.018723 1.400007 2.834018
vn 0.9146 0.4044 0.0009
vn 0.7983 0.5187 -0.3061
vn 0.6105 0.5186 -0.5986
vn 0.3799 0.4042 -0.8320
vn 0.1414 0.1930 -0.9710
vn -0.0685 -0.0831 -0.9942
vn -0.2180 -0.3818 -0.8982
vn -0.2842 -0.6578 -0.6975
vn -0.2571 -0.8690 -0.4228
vn -0.1408 -0.9832 -0.1159
vn 0.0469 -0.9832 0.1766
vn 0.2776 -0.8688 0.4101
vn 0.5160 -0.6575 0.5490
vn 0.7260 -0.3815 0.5722
vn 0.8754 -0.0828 0.4762
vn 0.9417 0.1932 0.2756
vn -0.7233 0.5111 0.4643
s off
f 1//1 13//1 2//1
f 2//2 13//2 3//2
f 3//3 13//3 4//3
f 4//4 13//4 5//4
f 5//5 13//5 6//5
f 6//6 13//6 7//6
f 7//7 13//7 8//7
f 8//8 13//8 9//8
f 9//9 13//9 10//9
f 10//10 13//10 11//10
f 11//11 13//11 12//11
f 12//12 13//12 14//12
f 14//13 13//13 15//13
f 15//14 13//14 16//14
f 16//15 13//15 17//15
f 17//16 13//16 1//16
f 17//17 4//17 8//17
f 17//17 1//17 2//17
f 2//17 3//17 17//17
f 3//17 4//17 17//17
f 4//17 5//17 8//17
f 5//17 6//17 8//17
f 6//17 7//17 8//17
f 8//17 9//17 10//17
f 10//17 11//17 12//17
f 12//17 14//17 15//17
f 15//17 16//17 17//17
f 8//17 10//17 12//17
f 12//17 15//17 8//17
f 15//17 17//17 8//17
