# Blender v2.83.0 OBJ File: ''
# www.blender.org
o Cone.160_Cone.1636
v -0.966480 0.711415 2.162993
v -0.888879 0.514885 2.207821
v -0.744571 0.366773 2.270221
v -0.555526 0.289628 2.340693
v -0.350525 0.295195 2.408508
v -0.160776 0.382626 2.463342
v -0.015167 0.538611 2.496848
v 0.064133 0.739402 2.503923
v 0.065053 0.954430 2.483491
v -0.012548 1.150960 2.438663
v -0.156856 1.299072 2.376264
v 0.179261 0.650700 0.433818
v -0.345901 1.376217 2.305792
v -0.550903 1.370651 2.237977
v -0.740652 1.283219 2.183142
v -0.886260 1.127235 2.149637
v -0.965561 0.926444 2.142562
vn -0.7653 -0.4145 -0.4925
vn -0.5680 -0.7208 -0.3972
vn -0.2718 -0.9210 -0.2791
vn 0.0784 -0.9846 -0.1562
vn 0.4292 -0.9020 -0.0472
vn 0.7273 -0.6856 0.0313
vn 0.9272 -0.3685 0.0674
vn 0.9985 0.0010 0.0555
vn 0.9303 0.3668 -0.0025
vn 0.7331 0.6731 -0.0978
vn 0.4368 0.8732 -0.2159
vn 0.0866 0.9369 -0.3388
vn -0.2642 0.8542 -0.4478
vn -0.5622 0.6379 -0.5263
vn -0.7621 0.3208 -0.5624
vn -0.8334 -0.0487 -0.5505
vn -0.3150 0.0911 0.9447
s off
f 1//1 12//1 2//1
f 2//2 12//2 3//2
f 3//3 12//3 4//3
f 4//4 12//4 5//4
f 5//5 12//5 6//5
f 6//6 12//6 7//6
f 7//7 12//7 8//7
f 8//8 12//8 9//8
f 9//9 12//9 10//9
f 10//10 12//10 11//10
f 11//11 12//11 13//11
f 13//12 12//12 14//12
f 14//13 12//13 15//13
f 15//14 12//14 16//14
f 16//15 12//15 17//15
f 17//16 12//16 1//16
f 17//17 4//17 8//17
f 17//17 1//17 2//17
f 2//17 3//17 4//17
f 4//17 5//17 6//17
f 6//17 7//17 8//17
f 8//17 9//17 10//17
f 10//17 11//17 13//17
f 13//17 14//17 15//17
f 15//17 16//17 17//17
f 17//17 2//17 4//17
f 4//17 6//17 8//17
f 8//17 10//17 17//17
f 10//17 13//17 17//17
f 13//17 15//17 17//17
