# Blender v2.83.0 OBJ File: ''
# www.blender.org
o Cone.227_Cone.1703
v 0.242063 -1.677490 -0.399489
v 0.318578 -1.508443 -0.231081
v 0.329216 -1.389607 -0.010723
v 0.272358 -1.339073 0.228037
v 0.156661 -1.364536 0.448850
v -0.000263 -1.462118 0.618099
v -0.174523 -1.616964 0.710018
v -0.339589 -1.805499 0.710613
v -0.470332 -1.999021 0.619794
v -0.546846 -2.168068 0.451386
v -0.557485 -2.286904 0.231028
v -0.500627 -2.337438 -0.007732
v -1.548846 -0.584056 -0.496959
v -0.384929 -2.311975 -0.228545
v -0.228005 -2.214394 -0.397794
v -0.053745 -2.059548 -0.489713
v 0.111321 -1.871012 -0.490308
vn 0.3818 0.5598 -0.7354
vn 0.4478 0.7778 -0.4411
vn 0.4128 0.9060 -0.0935
vn 0.2822 0.9250 0.2545
vn 0.0758 0.8318 0.5498
vn -0.1750 0.6407 0.7476
vn -0.4319 0.3807 0.8176
vn -0.6559 0.0915 0.7493
vn -0.8128 -0.1831 0.5530
vn -0.8788 -0.4010 0.2587
vn -0.8438 -0.5293 -0.0889
vn -0.7131 -0.5482 -0.4369
vn -0.5067 -0.4551 -0.7322
vn -0.2560 -0.2640 -0.9299
vn 0.0009 -0.0040 -1.0000
vn 0.2249 0.2853 -0.9317
vn 0.7174 -0.6271 0.3036
s off
f 1//1 13//1 2//1
f 2//2 13//2 3//2
f 3//3 13//3 4//3
f 4//4 13//4 5//4
f 5//5 13//5 6//5
f 6//6 13//6 7//6
f 7//7 13//7 8//7
f 8//8 13//8 9//8
f 9//9 13//9 10//9
f 10//10 13//10 11//10
f 11//11 13//11 12//11
f 12//12 13//12 14//12
f 14//13 13//13 15//13
f 15//14 13//14 16//14
f 16//15 13//15 17//15
f 17//16 13//16 1//16
f 8//17 12//17 17//17
f 17//17 1//17 2//17
f 2//17 3//17 17//17
f 3//17 4//17 17//17
f 4//17 5//17 8//17
f 5//17 6//17 8//17
f 6//17 7//17 8//17
f 8//17 9//17 10//17
f 10//17 11//17 12//17
f 12//17 14//17 17//17
f 14//17 15//17 17//17
f 15//17 16//17 17//17
f 8//17 10//17 12//17
f 17//17 4//17 8//17
