# Blender v2.83.0 OBJ File: ''
# www.blender.org
o Cone.072_Cone.1548
v -0.505438 -2.589274 -2.176989
v -1.196854 -2.278409 -2.327631
v -1.729222 -1.723006 -2.401771
v -2.021496 -1.007621 -2.388124
v -2.029179 -0.241165 -2.288767
v -1.751101 0.459676 -2.118826
v -1.229597 0.988205 -1.904173
v -0.544062 1.263959 -1.677486
v 0.201138 1.244957 -1.473278
v 0.892553 0.934091 -1.322637
v 1.424922 0.378689 -1.248496
v 1.717196 -0.336696 -1.262143
v -0.682476 -0.925295 0.086587
v 1.724878 -1.103152 -1.361500
v 1.446800 -1.803993 -1.531442
v 0.925297 -2.332523 -1.746095
v 0.239761 -2.608277 -1.972781
vn -0.4428 -0.7386 0.5083
vn -0.6687 -0.5787 0.4668
vn -0.8210 -0.3441 0.4557
vn -0.8763 -0.0706 0.4765
vn -0.8264 0.2003 0.5262
vn -0.6788 0.4272 0.5972
vn -0.4560 0.5757 0.6787
vn -0.1919 0.6231 0.7582
vn 0.0733 0.5622 0.8237
vn 0.2992 0.4023 0.8652
vn 0.4514 0.1677 0.8764
vn 0.5068 -0.1058 0.8555
vn 0.4569 -0.3767 0.8058
vn 0.3093 -0.6036 0.7348
vn 0.0865 -0.7521 0.6534
vn -0.1776 -0.7995 0.5738
vn 0.2652 0.1266 -0.9559
s off
f 1//1 13//1 2//1
f 2//2 13//2 3//2
f 3//3 13//3 4//3
f 4//4 13//4 5//4
f 5//5 13//5 6//5
f 6//6 13//6 7//6
f 7//7 13//7 8//7
f 8//8 13//8 9//8
f 9//9 13//9 10//9
f 10//10 13//10 11//10
f 11//11 13//11 12//11
f 12//12 13//12 14//12
f 14//13 13//13 15//13
f 15//14 13//14 16//14
f 16//15 13//15 17//15
f 17//16 13//16 1//16
f 8//17 12//17 17//17
f 17//17 1//17 2//17
f 2//17 3//17 4//17
f 4//17 5//17 6//17
f 6//17 7//17 8//17
f 8//17 9//17 10//17
f 10//17 11//17 8//17
f 11//17 12//17 8//17
f 12//17 14//17 15//17
f 15//17 16//17 12//17
f 16//17 17//17 12//17
f 17//17 2//17 4//17
f 4//17 6//17 8//17
f 17//17 4//17 8//17
