# Blender v2.83.0 OBJ File: ''
# www.blender.org
o Cone.151_Cone.1627
v -0.550170 2.291317 1.159158
v -0.842044 2.299206 0.635587
v -0.997261 2.119159 0.085250
v -0.992189 1.778584 -0.408068
v -0.827601 1.329332 -0.769264
v -0.528554 0.839797 -0.943350
v -0.140576 0.384506 -0.903822
v 0.277269 0.032774 -0.656699
v 0.661365 -0.161852 -0.239602
v 0.953240 -0.169742 0.283969
v 1.108456 0.010306 0.834305
v 1.103384 0.350880 1.327623
v 1.489624 2.218852 -0.322255
v 0.938796 0.800133 1.688820
v 0.639749 1.289668 1.862906
v 0.251771 1.744958 1.823378
v -0.166074 2.096691 1.576254
vn 0.0331 0.9994 -0.0034
vn -0.0854 0.9538 -0.2880
vn -0.1252 0.8159 -0.5645
vn -0.0803 0.6065 -0.7910
vn 0.0426 0.3578 -0.9328
vn 0.2247 0.1074 -0.9685
vn 0.4382 -0.1065 -0.8925
vn 0.6507 -0.2513 -0.7165
vn 0.8299 -0.3049 -0.4672
vn 0.9484 -0.2593 -0.1826
vn 0.9882 -0.1214 0.0939
vn 0.9432 0.0880 0.3204
vn 0.8203 0.3367 0.4622
vn 0.6383 0.5871 0.4979
vn 0.4247 0.8010 0.4219
vn 0.2122 0.9458 0.2459
vn -0.7170 -0.5771 0.3910
s off
f 1//1 13//1 2//1
f 2//2 13//2 3//2
f 3//3 13//3 4//3
f 4//4 13//4 5//4
f 5//5 13//5 6//5
f 6//6 13//6 7//6
f 7//7 13//7 8//7
f 8//8 13//8 9//8
f 9//9 13//9 10//9
f 10//10 13//10 11//10
f 11//11 13//11 12//11
f 12//12 13//12 14//12
f 14//13 13//13 15//13
f 15//14 13//14 16//14
f 16//15 13//15 17//15
f 17//16 13//16 1//16
f 4//17 8//17 12//17
f 17//17 1//17 4//17
f 1//17 2//17 4//17
f 2//17 3//17 4//17
f 4//17 5//17 6//17
f 6//17 7//17 4//17
f 7//17 8//17 4//17
f 8//17 9//17 10//17
f 10//17 11//17 12//17
f 12//17 14//17 15//17
f 15//17 16//17 17//17
f 8//17 10//17 12//17
f 12//17 15//17 17//17
f 17//17 4//17 12//17
