# Blender v2.83.0 OBJ File: ''
# www.blender.org
o Cone.063_Cone.1539
v 0.798993 1.563424 -0.318913
v 0.881731 1.265202 -0.359290
v 1.045833 1.023957 -0.470120
v 1.266316 0.876415 -0.634531
v 1.509613 0.845039 -0.827492
v 1.738685 0.934605 -1.019628
v 1.918658 1.131478 -1.181686
v 2.022132 1.405686 -1.288996
v 2.033355 1.715483 -1.325220
v 1.950617 2.013705 -1.284843
v 1.786515 2.254950 -1.174013
v 0.165501 1.502968 -2.376798
v 1.566033 2.402492 -1.009602
v 1.322735 2.433868 -0.816641
v 1.093663 2.344302 -0.624506
v 0.913690 2.147429 -0.462447
v 0.810216 1.873221 -0.355137
vn -0.9116 -0.2921 0.2892
vn -0.7652 -0.6121 0.1995
vn -0.5370 -0.8428 0.0362
vn -0.2618 -0.9490 -0.1758
vn 0.0184 -0.9144 -0.4043
vn 0.2611 -0.7445 -0.6145
vn 0.4293 -0.4650 -0.7743
vn 0.4973 -0.1185 -0.8594
vn 0.4549 0.2422 -0.8570
vn 0.3085 0.5623 -0.7673
vn 0.0803 0.7930 -0.6040
vn -0.1949 0.8991 -0.3919
vn -0.4751 0.8646 -0.1634
vn -0.7178 0.6946 0.0467
vn -0.8860 0.4152 0.2065
vn -0.9540 0.0687 0.2917
vn 0.6253 0.0682 0.7774
s off
f 1//1 12//1 2//1
f 2//2 12//2 3//2
f 3//3 12//3 4//3
f 4//4 12//4 5//4
f 5//5 12//5 6//5
f 6//6 12//6 7//6
f 7//7 12//7 8//7
f 8//8 12//8 9//8
f 9//9 12//9 10//9
f 10//10 12//10 11//10
f 11//11 12//11 13//11
f 13//12 12//12 14//12
f 14//13 12//13 15//13
f 15//14 12//14 16//14
f 16//15 12//15 17//15
f 17//16 12//16 1//16
f 4//17 8//17 13//17
f 17//17 1//17 4//17
f 1//17 2//17 4//17
f 2//17 3//17 4//17
f 4//17 5//17 8//17
f 5//17 6//17 8//17
f 6//17 7//17 8//17
f 8//17 9//17 10//17
f 10//17 11//17 8//17
f 11//17 13//17 8//17
f 13//17 14//17 17//17
f 14//17 15//17 17//17
f 15//17 16//17 17//17
f 17//17 4//17 13//17
