# Blender v2.83.0 OBJ File: ''
# www.blender.org
o Cone.086_Cone.1562
v -3.038757 0.754606 -0.377278
v -3.017291 1.040638 -0.474711
v -2.989208 1.267058 -0.673994
v -2.958783 1.399395 -0.944788
v -2.930647 1.417502 -1.245867
v -2.909085 1.318623 -1.531395
v -2.897378 1.117811 -1.757903
v -2.897310 0.845637 -1.890906
v -2.908890 0.543539 -1.910157
v -2.930355 0.257507 -1.812724
v -2.958438 0.031087 -1.613441
v -0.983936 0.561283 -0.963044
v -2.988864 -0.101250 -1.342647
v -3.016999 -0.119357 -1.041567
v -3.038562 -0.020478 -0.756039
v -3.050268 0.180334 -0.529532
v -3.050337 0.452508 -0.396528
vn 0.2875 0.2894 0.9130
vn 0.3179 0.6039 0.7309
vn 0.3538 0.8240 0.4425
vn 0.3897 0.9164 0.0915
vn 0.4202 0.8668 -0.2684
vn 0.4407 0.6829 -0.5826
vn 0.4479 0.3926 -0.8033
vn 0.4408 0.0402 -0.8967
vn 0.4205 -0.3207 -0.8487
vn 0.3901 -0.6351 -0.6666
vn 0.3542 -0.8553 -0.3782
vn 0.3183 -0.9476 -0.0272
vn 0.2878 -0.8980 0.3327
vn 0.2674 -0.7141 0.6469
vn 0.2602 -0.4239 0.8676
vn 0.2672 -0.0715 0.9610
vn -0.9949 0.0439 -0.0903
s off
f 1//1 12//1 2//1
f 2//2 12//2 3//2
f 3//3 12//3 4//3
f 4//4 12//4 5//4
f 5//5 12//5 6//5
f 6//6 12//6 7//6
f 7//7 12//7 8//7
f 8//8 12//8 9//8
f 9//9 12//9 10//9
f 10//10 12//10 11//10
f 11//11 12//11 13//11
f 13//12 12//12 14//12
f 14//13 12//13 15//13
f 15//14 12//14 16//14
f 16//15 12//15 17//15
f 17//16 12//16 1//16
f 4//17 8//17 13//17
f 17//17 1//17 2//17
f 2//17 3//17 4//17
f 4//17 5//17 8//17
f 5//17 6//17 8//17
f 6//17 7//17 8//17
f 8//17 9//17 10//17
f 10//17 11//17 8//17
f 11//17 13//17 8//17
f 13//17 14//17 17//17
f 14//17 15//17 17//17
f 15//17 16//17 17//17
f 17//17 2//17 4//17
f 17//17 4//17 13//17
