# Blender v2.83.0 OBJ File: ''
# www.blender.org
o Cone.166_Cone.1642
v 1.679648 -1.798702 1.502179
v 1.924059 -1.943580 1.267922
v 2.231811 -1.963800 1.066717
v 2.556050 -1.856281 0.929195
v 2.847414 -1.637394 0.876294
v 3.061546 -1.340461 0.916067
v 3.165846 -1.010689 1.042459
v 3.144435 -0.698281 1.236227
v 3.000573 -0.450799 1.467873
v 2.756162 -0.305920 1.702130
v 2.448410 -0.285701 1.903335
v 2.124171 -0.393219 2.040857
v 1.399184 -0.241544 -0.042915
v 1.832806 -0.612106 2.093758
v 1.618674 -0.909039 2.053985
v 1.514375 -1.238812 1.927593
v 1.535786 -1.551220 1.733825
vn -0.7253 -0.5463 -0.4189
vn -0.4546 -0.6272 -0.6324
vn -0.1448 -0.5844 -0.7984
vn 0.1569 -0.4244 -0.8918
vn 0.4047 -0.1716 -0.8982
vn 0.5608 0.1357 -0.8167
vn 0.6015 0.4505 -0.6598
vn 0.5204 0.7249 -0.4513
vn 0.3301 0.9173 -0.2229
vn 0.0594 0.9982 -0.0094
vn -0.2504 0.9554 0.1567
vn -0.5521 0.7954 0.2500
vn -0.7999 0.5425 0.2564
vn -0.9560 0.2353 0.1750
vn -0.9967 -0.0795 0.0180
vn -0.9157 -0.3540 -0.1905
vn 0.4705 -0.4416 0.7640
s off
f 1//1 13//1 2//1
f 2//2 13//2 3//2
f 3//3 13//3 4//3
f 4//4 13//4 5//4
f 5//5 13//5 6//5
f 6//6 13//6 7//6
f 7//7 13//7 8//7
f 8//8 13//8 9//8
f 9//9 13//9 10//9
f 10//10 13//10 11//10
f 11//11 13//11 12//11
f 12//12 13//12 14//12
f 14//13 13//13 15//13
f 15//14 13//14 16//14
f 16//15 13//15 17//15
f 17//16 13//16 1//16
f 8//17 12//17 17//17
f 17//17 1//17 2//17
f 2//17 3//17 4//17
f 4//17 5//17 6//17
f 6//17 7//17 8//17
f 8//17 9//17 10//17
f 10//17 11//17 12//17
f 12//17 14//17 17//17
f 14//17 15//17 17//17
f 15//17 16//17 17//17
f 17//17 2//17 8//17
f 2//17 4//17 8//17
f 4//17 6//17 8//17
f 8//17 10//17 12//17
