# Blender v2.83.0 OBJ File: ''
# www.blender.org
o Cone.115_Cone.1591
v 0.058180 -0.765001 2.143927
v 0.119586 -0.530413 1.973807
v 0.118068 -0.360317 1.731305
v 0.053857 -0.280609 1.453337
v -0.063271 -0.303423 1.182222
v -0.215485 -0.425285 0.959236
v -0.379611 -0.627644 0.818325
v -0.530663 -0.879692 0.780942
v 1.371162 -1.856379 0.855008
v -0.645645 -1.143058 0.852778
v -0.707051 -1.377645 1.022898
v -0.705533 -1.547741 1.265400
v -0.641322 -1.627450 1.543368
v -0.524194 -1.604636 1.814483
v -0.371980 -1.482773 2.037469
v -0.207854 -1.280414 2.178380
v -0.056802 -1.028366 2.215763
vn 0.7720 0.2281 0.5933
vn 0.8097 0.4828 0.3336
vn 0.7683 0.6400 0.0060
vn 0.6542 0.6758 -0.3395
vn 0.4847 0.5848 -0.6505
vn 0.2856 0.3807 -0.8795
vn 0.0873 0.0948 -0.9917
vn -0.0801 -0.2296 -0.9700
vn -0.1911 -0.5430 -0.8177
vn -0.2288 -0.7976 -0.5580
vn -0.1875 -0.9548 -0.2305
vn -0.0733 -0.9906 0.1150
vn 0.0962 -0.8996 0.4260
vn 0.2952 -0.6956 0.6550
vn 0.4936 -0.4096 0.7672
vn 0.6610 -0.0852 0.7455
vn -0.8324 0.4512 0.3217
s off
f 1//1 9//1 2//1
f 2//2 9//2 3//2
f 3//3 9//3 4//3
f 4//4 9//4 5//4
f 5//5 9//5 6//5
f 6//6 9//6 7//6
f 7//7 9//7 8//7
f 8//8 9//8 10//8
f 10//9 9//9 11//9
f 11//10 9//10 12//10
f 12//11 9//11 13//11
f 13//12 9//12 14//12
f 14//13 9//13 15//13
f 15//14 9//14 16//14
f 16//15 9//15 17//15
f 17//16 9//16 1//16
f 15//17 17//17 8//17
f 17//17 1//17 2//17
f 2//17 3//17 4//17
f 4//17 5//17 6//17
f 6//17 7//17 8//17
f 8//17 10//17 11//17
f 11//17 12//17 13//17
f 13//17 14//17 15//17
f 15//17 16//17 17//17
f 17//17 2//17 4//17
f 4//17 6//17 17//17
f 6//17 8//17 17//17
f 8//17 11//17 13//17
f 13//17 15//17 8//17
