# Blender v2.83.0 OBJ File: ''
# www.blender.org
o Cone.146_Cone.1622
v 0.134660 -0.346063 -0.302432
v -0.174074 -0.268258 -0.422720
v -0.409931 -0.091062 -0.592462
v -0.537004 0.158549 -0.785816
v -0.535947 0.442574 -0.973347
v -0.406921 0.717773 -1.126504
v -0.169569 0.942250 -1.221971
v 0.139974 1.081828 -1.245213
v 0.474582 1.115260 -1.192693
v 0.783316 1.037456 -1.072405
v 1.019173 0.860260 -0.902664
v -0.061173 1.468946 0.892677
v 1.146247 0.610649 -0.709309
v 1.145190 0.326623 -0.521778
v 1.016164 0.051424 -0.368621
v 0.778812 -0.173052 -0.273154
v 0.469269 -0.312631 -0.249912
vn -0.4205 -0.5302 0.7363
vn -0.7131 -0.3932 0.5804
vn -0.9081 -0.1638 0.3853
vn -0.9758 0.1229 0.1807
vn -0.9059 0.4234 -0.0024
vn -0.7091 0.6919 -0.1360
vn -0.4152 0.8875 -0.1998
vn -0.0691 0.9805 -0.1840
vn 0.2766 0.9566 -0.0912
vn 0.5692 0.8196 0.0647
vn 0.7643 0.5903 0.2598
vn 0.8320 0.3035 0.4644
vn 0.7621 0.0031 0.6475
vn 0.5652 -0.2654 0.7811
vn 0.2713 -0.4611 0.8449
vn -0.0748 -0.5540 0.8291
vn 0.1829 -0.5422 -0.8201
s off
f 1//1 12//1 2//1
f 2//2 12//2 3//2
f 3//3 12//3 4//3
f 4//4 12//4 5//4
f 5//5 12//5 6//5
f 6//6 12//6 7//6
f 7//7 12//7 8//7
f 8//8 12//8 9//8
f 9//9 12//9 10//9
f 10//10 12//10 11//10
f 11//11 12//11 13//11
f 13//12 12//12 14//12
f 14//13 12//13 15//13
f 15//14 12//14 16//14
f 16//15 12//15 17//15
f 17//16 12//16 1//16
f 17//17 4//17 8//17
f 17//17 1//17 2//17
f 2//17 3//17 4//17
f 4//17 5//17 6//17
f 6//17 7//17 4//17
f 7//17 8//17 4//17
f 8//17 9//17 10//17
f 10//17 11//17 13//17
f 13//17 14//17 15//17
f 15//17 16//17 13//17
f 16//17 17//17 13//17
f 17//17 2//17 4//17
f 8//17 10//17 17//17
f 10//17 13//17 17//17
