# Blender v2.83.0 OBJ File: ''
# www.blender.org
o Cone.225_Cone.1701
v -0.877312 1.158583 1.997531
v -0.742231 0.396094 1.928837
v -0.363976 -0.250425 1.720768
v 0.199866 -0.682547 1.405000
v 0.863455 -0.834485 1.029606
v 1.525766 -0.683108 0.651737
v 2.085968 -0.251462 0.328919
v 2.458776 0.394739 0.110299
v 2.587432 1.157117 0.029160
v 2.452351 1.919606 0.097853
v 2.074096 2.566125 0.305922
v 1.510254 2.998248 0.621690
v -0.132834 1.139495 -0.725542
v 0.846665 3.150186 0.997084
v 0.184353 2.998808 1.374953
v -0.375849 2.567162 1.697771
v -0.748656 1.920960 1.916391
vn -0.9546 -0.1457 -0.2600
vn -0.8606 -0.4036 -0.3106
vn -0.6882 -0.6010 -0.4065
vn -0.4636 -0.7078 -0.5330
vn -0.2209 -0.7080 -0.6708
vn 0.0028 -0.6013 -0.7991
vn 0.1736 -0.4040 -0.8981
vn 0.2653 -0.1462 -0.9530
vn 0.2642 0.1329 -0.9553
vn 0.1702 0.3907 -0.9046
vn -0.0022 0.5881 -0.8088
vn -0.2268 0.6950 -0.6823
vn -0.4695 0.6951 -0.5444
vn -0.6932 0.5884 -0.4162
vn -0.8640 0.3912 -0.3171
vn -0.9557 0.1334 -0.2622
vn 0.4939 0.0092 0.8694
s off
f 1//1 13//1 2//1
f 2//2 13//2 3//2
f 3//3 13//3 4//3
f 4//4 13//4 5//4
f 5//5 13//5 6//5
f 6//6 13//6 7//6
f 7//7 13//7 8//7
f 8//8 13//8 9//8
f 9//9 13//9 10//9
f 10//10 13//10 11//10
f 11//11 13//11 12//11
f 12//12 13//12 14//12
f 14//13 13//13 15//13
f 15//14 13//14 16//14
f 16//15 13//15 17//15
f 17//16 13//16 1//16
f 4//17 8//17 12//17
f 17//17 1//17 2//17
f 2//17 3//17 4//17
f 4//17 5//17 6//17
f 6//17 7//17 8//17
f 8//17 9//17 10//17
f 10//17 11//17 8//17
f 11//17 12//17 8//17
f 12//17 14//17 15//17
f 15//17 16//17 12//17
f 16//17 17//17 12//17
f 17//17 2//17 4//17
f 4//17 6//17 8//17
f 17//17 4//17 12//17
