# Blender v2.83.0 OBJ File: ''
# www.blender.org
o Cube.034_Cube.875
v 0.339807 -1.170067 0.383387
v 1.496696 -1.051082 0.712825
v -0.005952 -0.600309 1.391805
v 1.150938 -0.481323 1.721243
v 0.395826 -0.110681 -0.195961
v 1.552716 0.008304 0.133477
v 0.050067 0.459077 0.812457
v 1.206957 0.578063 1.141895
vn -0.0463 -0.8764 0.4793
vn -0.2860 0.4714 0.8343
vn 0.0463 0.8764 -0.4793
vn 0.2860 -0.4714 -0.8343
vn -0.9571 -0.0984 -0.2725
vn 0.9571 0.0984 0.2725
s off
f 2//1 3//1 1//1
f 4//2 7//2 3//2
f 8//3 5//3 7//3
f 6//4 1//4 5//4
f 7//5 1//5 3//5
f 4//6 6//6 8//6
f 2//1 4//1 3//1
f 4//2 8//2 7//2
f 8//3 6//3 5//3
f 6//4 2//4 1//4
f 7//5 5//5 1//5
f 4//6 2//6 6//6
