# Blender v2.83.0 OBJ File: ''
# www.blender.org
o Cube.014_Cube.855
v -0.466813 1.264054 0.388964
v -0.849894 1.170282 -0.123538
v -0.983199 1.416952 0.746972
v -1.366280 1.323180 0.234470
v -0.536073 0.642740 0.554415
v -0.919153 0.548968 0.041913
v -1.052459 0.795638 0.912423
v -1.435539 0.701865 0.399921
vn 0.1071 0.9608 -0.2558
vn -0.7985 0.2364 0.5536
vn -0.1071 -0.9608 0.2558
vn 0.7985 -0.2364 -0.5536
vn 0.5924 0.1450 0.7925
vn -0.5924 -0.1450 -0.7925
s off
f 2//1 3//1 1//1
f 4//2 7//2 3//2
f 8//3 5//3 7//3
f 5//4 2//4 1//4
f 7//5 1//5 3//5
f 4//6 6//6 8//6
f 2//1 4//1 3//1
f 4//2 8//2 7//2
f 8//3 6//3 5//3
f 5//4 6//4 2//4
f 7//5 5//5 1//5
f 4//6 2//6 6//6
