# Blender v2.83.0 OBJ File: ''
# www.blender.org
o Cube.002_Cube.843
v -0.029729 1.648071 1.068482
v -0.319041 1.149413 0.505565
v 0.639050 1.753287 0.631558
v 0.349737 1.254629 0.068640
v -0.373635 2.272177 0.692373
v -0.662948 1.773519 0.129455
v 0.295143 2.377393 0.255448
v 0.005830 1.878735 -0.307470
vn 0.4268 -0.7746 0.4668
vn 0.8300 0.1306 -0.5423
vn -0.4268 0.7746 -0.4668
vn -0.8300 -0.1306 0.5423
vn 0.3591 0.6189 0.6986
vn -0.3591 -0.6189 -0.6986
s off
f 2//1 3//1 1//1
f 4//2 7//2 3//2
f 8//3 5//3 7//3
f 6//4 1//4 5//4
f 7//5 1//5 3//5
f 4//6 6//6 8//6
f 2//1 4//1 3//1
f 4//2 8//2 7//2
f 8//3 6//3 5//3
f 6//4 2//4 1//4
f 7//5 5//5 1//5
f 4//6 2//6 6//6
