# Blender v2.83.0 OBJ File: ''
# www.blender.org
o Cube.085_Cube.926
v -0.802644 -2.363585 0.083169
v -1.535908 -1.110540 -0.853729
v -0.589527 -3.308637 -1.347578
v -1.322790 -2.055591 -2.284475
v 0.747350 -1.640861 -0.163333
v 0.014086 -0.387815 -1.100231
v 0.960467 -2.585912 -1.594080
v 0.227204 -1.332866 -2.530977
vn -0.8970 -0.4183 0.1427
vn 0.1233 -0.5469 -0.8280
vn 0.8970 0.4183 -0.1427
vn -0.1233 0.5469 0.8280
vn 0.4244 -0.7252 0.5422
vn -0.4244 0.7252 -0.5422
s off
f 1//1 4//1 3//1
f 4//2 7//2 3//2
f 8//3 5//3 7//3
f 5//4 2//4 1//4
f 7//5 1//5 3//5
f 4//6 6//6 8//6
f 1//1 2//1 4//1
f 4//2 8//2 7//2
f 8//3 6//3 5//3
f 5//4 6//4 2//4
f 7//5 5//5 1//5
f 4//6 2//6 6//6
