# Blender v2.83.0 OBJ File: ''
# www.blender.org
o Cube.037_Cube.878
v 0.908196 0.557582 -1.201856
v 0.929350 0.163458 -1.679965
v 0.609475 0.970217 -1.555224
v 0.630629 0.576092 -2.033333
v 0.365344 0.315159 -1.026036
v 0.386498 -0.078965 -1.504145
v 0.066623 0.727794 -1.379404
v 0.087777 0.333669 -1.857513
vn 0.8756 0.3910 -0.2836
vn -0.4818 0.6656 -0.5700
vn -0.8756 -0.3910 0.2836
vn 0.4818 -0.6656 0.5700
vn -0.0341 0.6357 0.7712
vn 0.0341 -0.6357 -0.7712
s off
f 1//1 4//1 3//1
f 4//2 7//2 3//2
f 8//3 5//3 7//3
f 6//4 1//4 5//4
f 7//5 1//5 3//5
f 4//6 6//6 8//6
f 1//1 2//1 4//1
f 4//2 8//2 7//2
f 8//3 6//3 5//3
f 6//4 2//4 1//4
f 7//5 5//5 1//5
f 4//6 2//6 6//6
