# Blender v2.83.0 OBJ File: ''
# www.blender.org
o Cube.098_Cube.939
v 1.864779 -2.481596 -0.902440
v 0.632203 -3.560323 0.204069
v 0.382077 -1.257223 -1.360439
v -0.850499 -2.335949 -0.253929
v 2.300220 -1.366017 0.670180
v 1.067643 -2.444743 1.776689
v 0.817518 -0.141643 0.212181
v -0.415059 -1.220370 1.318691
vn -0.2203 -0.5644 -0.7956
vn -0.7501 0.6194 -0.2317
vn 0.2203 0.5644 0.7956
vn 0.7501 -0.6194 0.2317
vn 0.6236 0.5457 -0.5598
vn -0.6236 -0.5457 0.5598
s off
f 2//1 3//1 1//1
f 4//2 7//2 3//2
f 7//3 6//3 5//3
f 5//4 2//4 1//4
f 7//5 1//5 3//5
f 4//6 6//6 8//6
f 2//1 4//1 3//1
f 4//2 8//2 7//2
f 7//3 8//3 6//3
f 5//4 6//4 2//4
f 7//5 5//5 1//5
f 4//6 2//6 6//6
