# Blender v2.83.0 OBJ File: ''
# www.blender.org
o Cube.043_Cube.884
v -1.148548 1.159400 1.112628
v -1.458048 2.040365 0.977973
v -1.172843 1.293552 2.046134
v -1.482342 2.174516 1.911479
v -2.039413 0.849682 1.133952
v -2.348913 1.730646 0.999297
v -2.063707 0.983833 2.067458
v -2.373207 1.864797 1.932803
vn 0.9443 0.3283 -0.0226
vn -0.0258 0.1422 0.9895
vn -0.9443 -0.3283 0.0226
vn 0.0258 -0.1422 -0.9895
vn 0.3281 -0.9338 0.1427
vn -0.3281 0.9338 -0.1427
s off
f 2//1 3//1 1//1
f 4//2 7//2 3//2
f 8//3 5//3 7//3
f 6//4 1//4 5//4
f 7//5 1//5 3//5
f 4//6 6//6 8//6
f 2//1 4//1 3//1
f 4//2 8//2 7//2
f 8//3 6//3 5//3
f 6//4 2//4 1//4
f 7//5 5//5 1//5
f 4//6 2//6 6//6
