# Blender v2.83.0 OBJ File: ''
# www.blender.org
o Cube.063_Cube.904
v -0.478600 -1.129905 -1.126855
v -0.587558 -0.546624 -0.800485
v -0.598236 -1.472262 -0.554942
v -0.707193 -0.888982 -0.228572
v -1.136187 -1.164265 -1.284981
v -1.245145 -0.580985 -0.958610
v -1.255822 -1.506622 -0.713068
v -1.364780 -0.923342 -0.386698
vn 0.9710 0.0507 0.2335
vn -0.1767 -0.5055 0.8445
vn -0.9710 -0.0507 -0.2335
vn 0.1767 0.5055 -0.8445
vn 0.1609 -0.8613 -0.4819
vn -0.1609 0.8613 0.4819
s off
f 2//1 3//1 1//1
f 4//2 7//2 3//2
f 8//3 5//3 7//3
f 6//4 1//4 5//4
f 7//5 1//5 3//5
f 4//6 6//6 8//6
f 2//1 4//1 3//1
f 4//2 8//2 7//2
f 8//3 6//3 5//3
f 6//4 2//4 1//4
f 7//5 5//5 1//5
f 4//6 2//6 6//6
