# Blender v2.83.0 OBJ File: ''
# www.blender.org
o Cube.025_Cube.866
v 1.383973 -0.656571 2.088835
v 1.858172 -0.689644 1.754382
v 1.350243 -0.085775 1.984567
v 1.824442 -0.118848 1.650115
v 1.049586 -0.761048 1.625060
v 1.523785 -0.794121 1.290607
v 1.015856 -0.190252 1.520792
v 1.490055 -0.223326 1.186340
vn 0.5753 0.1798 0.7979
vn -0.0580 0.9821 -0.1794
vn -0.5753 -0.1798 -0.7979
vn 0.0580 -0.9821 0.1794
vn -0.8159 0.0569 0.5754
vn 0.8159 -0.0569 -0.5754
s off
f 2//1 3//1 1//1
f 4//2 7//2 3//2
f 8//3 5//3 7//3
f 6//4 1//4 5//4
f 7//5 1//5 3//5
f 4//6 6//6 8//6
f 2//1 4//1 3//1
f 4//2 8//2 7//2
f 8//3 6//3 5//3
f 6//4 2//4 1//4
f 7//5 5//5 1//5
f 4//6 2//6 6//6
