# Blender v2.83.0 OBJ File: ''
# www.blender.org
o Cube.052_Cube.893
v -0.025603 0.925775 0.949310
v 0.124689 1.391804 1.063048
v 0.296988 0.915803 0.563897
v 0.447280 1.381833 0.677635
v 0.329439 0.737561 1.251350
v 0.479730 1.203590 1.365088
v 0.652030 0.727589 0.865937
v 0.802322 1.193619 0.979675
vn -0.7063 0.3744 -0.6008
vn 0.6417 -0.0198 -0.7667
vn 0.7063 -0.3744 0.6008
vn -0.6417 0.0198 0.7667
vn -0.2990 -0.9271 -0.2263
vn 0.2990 0.9271 0.2263
s off
f 2//1 3//1 1//1
f 4//2 7//2 3//2
f 8//3 5//3 7//3
f 6//4 1//4 5//4
f 7//5 1//5 3//5
f 4//6 6//6 8//6
f 2//1 4//1 3//1
f 4//2 8//2 7//2
f 8//3 6//3 5//3
f 6//4 2//4 1//4
f 7//5 5//5 1//5
f 4//6 2//6 6//6
