# Blender v2.83.0 OBJ File: ''
# www.blender.org
o Cube_Cube.841
v 1.612796 1.889007 0.166283
v 1.217152 2.213190 0.173374
v 1.752067 2.048794 0.631848
v 1.356423 2.372977 0.638939
v 1.319968 1.526995 0.378127
v 0.924324 1.851178 0.385219
v 1.459239 1.686782 0.843692
v 1.063595 2.010965 0.850784
vn 0.5724 0.7077 -0.4141
vn 0.2723 0.3124 0.9101
vn -0.5724 -0.7077 0.4141
vn -0.2723 -0.3124 -0.9101
vn 0.7734 -0.6337 -0.0139
vn -0.7734 0.6337 0.0139
s off
f 2//1 3//1 1//1
f 4//2 7//2 3//2
f 8//3 5//3 7//3
f 6//4 1//4 5//4
f 7//5 1//5 3//5
f 4//6 6//6 8//6
f 2//1 4//1 3//1
f 4//2 8//2 7//2
f 8//3 6//3 5//3
f 6//4 2//4 1//4
f 7//5 5//5 1//5
f 4//6 2//6 6//6
