# Blender v2.83.0 OBJ File: ''
# www.blender.org
o Cube.057_Cube.898
v 2.060359 2.054279 2.613206
v 2.976649 1.129205 1.265504
v 0.453079 1.825927 1.677175
v 1.369368 0.900854 0.329472
v 1.762512 0.440666 3.518299
v 2.678802 -0.484407 2.170596
v 0.155232 0.212315 2.582268
v 1.071521 -0.712759 1.234565
vn 0.1589 0.8611 -0.4830
vn -0.8577 -0.1219 -0.4995
vn -0.1589 -0.8611 0.4830
vn 0.8577 0.1219 0.4995
vn -0.4890 0.4937 0.7192
vn 0.4890 -0.4937 -0.7192
s off
f 2//1 3//1 1//1
f 4//2 7//2 3//2
f 8//3 5//3 7//3
f 6//4 1//4 5//4
f 7//5 1//5 3//5
f 4//6 6//6 8//6
f 2//1 4//1 3//1
f 4//2 8//2 7//2
f 8//3 6//3 5//3
f 6//4 2//4 1//4
f 7//5 5//5 1//5
f 4//6 2//6 6//6
