# Blender v2.83.0 OBJ File: ''
# www.blender.org
o Cube.093_Cube.934
v -2.132691 -0.685236 0.531710
v -0.880157 -1.224527 0.846861
v -1.803120 -0.714530 -0.828260
v -0.550587 -1.253821 -0.513109
v -2.663293 -1.976476 0.430939
v -1.410760 -2.515768 0.746090
v -2.333722 -2.005770 -0.929031
v -1.081189 -2.545062 -0.613880
vn 0.3791 0.9226 0.0720
vn 0.2355 -0.0209 -0.9717
vn -0.3791 -0.9226 -0.0720
vn -0.2355 0.0209 0.9717
vn -0.8949 0.3853 -0.2252
vn 0.8949 -0.3853 0.2252
s off
f 2//1 3//1 1//1
f 4//2 7//2 3//2
f 8//3 5//3 7//3
f 6//4 1//4 5//4
f 7//5 1//5 3//5
f 4//6 6//6 8//6
f 2//1 4//1 3//1
f 4//2 8//2 7//2
f 8//3 6//3 5//3
f 6//4 2//4 1//4
f 7//5 5//5 1//5
f 4//6 2//6 6//6
