# Blender v2.83.0 OBJ File: ''
# www.blender.org
o Cube.051_Cube.892
v 0.840035 -1.408469 2.977931
v -0.423942 -1.961031 2.235648
v 1.762932 -2.253016 2.035089
v 0.498954 -2.805578 1.292807
v 0.907647 -0.210402 1.970948
v -0.356331 -0.762965 1.228666
v 1.830543 -1.054950 1.028107
v 0.566566 -1.607512 0.285824
vn -0.0432 -0.7648 0.6428
vn 0.5891 -0.5391 -0.6019
vn 0.0432 0.7648 -0.6428
vn -0.5891 0.5391 0.6019
vn 0.8069 0.3527 0.4738
vn -0.8069 -0.3527 -0.4738
s off
f 2//1 3//1 1//1
f 4//2 7//2 3//2
f 8//3 5//3 7//3
f 6//4 1//4 5//4
f 7//5 1//5 3//5
f 4//6 6//6 8//6
f 2//1 4//1 3//1
f 4//2 8//2 7//2
f 8//3 6//3 5//3
f 6//4 2//4 1//4
f 7//5 5//5 1//5
f 4//6 2//6 6//6
