# Blender v2.83.0 OBJ File: ''
# www.blender.org
o Cube.108_Cube.949
v 0.694954 2.348018 1.174789
v 1.883736 2.640175 1.658234
v 1.259202 1.681109 0.190344
v 2.447984 1.973266 0.673789
v 0.668513 1.251590 1.902405
v 1.857294 1.543748 2.385850
v 1.232761 0.584681 0.917959
v 2.421542 0.876839 1.401405
vn 0.0201 0.8331 -0.5528
vn 0.4287 -0.5067 -0.7480
vn -0.0201 -0.8331 0.5528
vn -0.4287 0.5067 0.7480
vn -0.9032 -0.2220 -0.3673
vn 0.9032 0.2220 0.3673
s off
f 2//1 3//1 1//1
f 4//2 7//2 3//2
f 8//3 5//3 7//3
f 6//4 1//4 5//4
f 7//5 1//5 3//5
f 4//6 6//6 8//6
f 2//1 4//1 3//1
f 4//2 8//2 7//2
f 8//3 6//3 5//3
f 6//4 2//4 1//4
f 7//5 5//5 1//5
f 4//6 2//6 6//6
