# Blender v2.83.0 OBJ File: ''
# www.blender.org
o Cube.008_Cube.849
v 0.934832 -0.782151 -0.813623
v -0.300593 -0.861702 -0.111814
v 1.638893 -0.808264 0.422807
v 0.403467 -0.887814 1.124615
v 0.991072 -2.202760 -0.875649
v -0.244354 -2.282311 -0.173841
v 1.695132 -2.228873 0.360780
v 0.459706 -2.308424 1.062589
vn -0.0395 0.9983 0.0436
vn 0.4947 -0.0183 0.8688
vn 0.0395 -0.9983 -0.0436
vn -0.4947 0.0183 -0.8688
vn 0.8681 0.0559 -0.4932
vn -0.8681 -0.0559 0.4932
s off
f 2//1 3//1 1//1
f 4//2 7//2 3//2
f 8//3 5//3 7//3
f 6//4 1//4 5//4
f 7//5 1//5 3//5
f 4//6 6//6 8//6
f 2//1 4//1 3//1
f 4//2 8//2 7//2
f 8//3 6//3 5//3
f 6//4 2//4 1//4
f 7//5 5//5 1//5
f 4//6 2//6 6//6
