# Blender v2.83.0 OBJ File: ''
# www.blender.org
o Cube.030_Cube.871
v 1.406160 -2.410813 1.174911
v 2.512180 -2.198490 1.495057
v 1.120211 -2.607367 2.293149
v 2.226231 -2.395044 2.613294
v 1.149631 -1.276291 1.308730
v 2.255651 -1.063968 1.628876
v 0.863682 -1.472845 2.426967
v 1.969702 -1.260522 2.747113
vn 0.2191 -0.9690 -0.1143
vn -0.2442 -0.1679 0.9551
vn -0.2191 0.9690 0.1143
vn 0.2442 0.1679 -0.9551
vn -0.9446 -0.1813 -0.2734
vn 0.9446 0.1813 0.2734
s off
f 2//1 3//1 1//1
f 4//2 7//2 3//2
f 8//3 5//3 7//3
f 6//4 1//4 5//4
f 7//5 1//5 3//5
f 4//6 6//6 8//6
f 2//1 4//1 3//1
f 4//2 8//2 7//2
f 8//3 6//3 5//3
f 6//4 2//4 1//4
f 7//5 5//5 1//5
f 4//6 2//6 6//6
