# Blender v2.83.0 OBJ File: ''
# www.blender.org
o Cube.061_Cube.902
v -1.181369 -0.499224 -1.014029
v -1.902552 -0.760855 -1.974686
v -1.436677 -1.597161 -0.523346
v -2.157861 -1.858792 -1.484003
v -0.219012 -0.986566 -1.603763
v -0.940196 -1.248197 -2.564420
v -0.474321 -2.084503 -1.113080
v -1.195504 -2.346133 -2.073737
vn -0.7828 0.3964 0.4797
vn -0.2077 -0.8931 0.3991
vn 0.7828 -0.3964 -0.4797
vn 0.2077 0.8931 -0.3991
vn 0.5866 0.2128 0.7814
vn -0.5866 -0.2128 -0.7814
s off
f 2//1 3//1 1//1
f 4//2 7//2 3//2
f 8//3 5//3 7//3
f 6//4 1//4 5//4
f 7//5 1//5 3//5
f 4//6 6//6 8//6
f 2//1 4//1 3//1
f 4//2 8//2 7//2
f 8//3 6//3 5//3
f 6//4 2//4 1//4
f 7//5 5//5 1//5
f 4//6 2//6 6//6
