# Blender v2.83.0 OBJ File: ''
# www.blender.org
o Cube.082_Cube.923
v -2.344893 -0.146362 -1.568099
v -2.064650 -0.620427 -0.978237
v -1.659053 0.278592 -1.552410
v -1.378809 -0.195473 -0.962549
v -2.025055 -0.642231 -2.118578
v -1.744812 -1.116296 -1.528717
v -1.339215 -0.217277 -2.102890
v -1.058971 -0.691342 -1.513029
vn -0.3963 0.6145 0.6822
vn 0.8499 0.5266 0.0194
vn 0.3963 -0.6145 -0.6822
vn -0.8499 -0.5266 -0.0194
vn -0.3473 0.5875 -0.7310
vn 0.3473 -0.5875 0.7310
s off
f 2//1 3//1 1//1
f 4//2 7//2 3//2
f 8//3 5//3 7//3
f 5//4 2//4 1//4
f 7//5 1//5 3//5
f 4//6 6//6 8//6
f 2//1 4//1 3//1
f 4//2 8//2 7//2
f 8//3 6//3 5//3
f 5//4 6//4 2//4
f 7//5 5//5 1//5
f 4//6 2//6 6//6
