# Blender v2.83.0 OBJ File: ''
# www.blender.org
o Cube.026_Cube.867
v 0.953896 0.209308 -1.931325
v 0.082018 -0.311199 -3.253764
v -0.467044 0.557501 -1.131554
v -1.338922 0.036994 -2.453993
v 0.927400 -1.335936 -1.305654
v 0.055522 -1.856443 -2.628093
v -0.493540 -0.987742 -0.505883
v -1.365418 -1.508249 -1.828321
vn 0.0159 0.9268 -0.3753
vn -0.8522 0.2088 0.4797
vn -0.0159 -0.9268 0.3753
vn 0.8522 -0.2088 -0.4797
vn 0.5229 0.3122 0.7932
vn -0.5229 -0.3122 -0.7932
s off
f 2//1 3//1 1//1
f 4//2 7//2 3//2
f 8//3 5//3 7//3
f 6//4 1//4 5//4
f 7//5 1//5 3//5
f 4//6 6//6 8//6
f 2//1 4//1 3//1
f 4//2 8//2 7//2
f 8//3 6//3 5//3
f 6//4 2//4 1//4
f 7//5 5//5 1//5
f 4//6 2//6 6//6
