# Blender v2.83.0 OBJ File: ''
# www.blender.org
o Cube.087_Cube.928
v -1.922626 0.087518 0.166414
v -1.440866 -0.119216 0.943923
v -1.127145 0.074417 -0.329964
v -0.645386 -0.132316 0.447545
v -2.042919 -0.827054 -0.002227
v -1.561159 -1.033787 0.775282
v -1.247439 -0.840154 -0.498605
v -0.765679 -1.046888 0.278904
vn 0.1283 0.9753 0.1798
vn 0.8483 -0.0140 -0.5293
vn -0.1283 -0.9753 -0.1798
vn -0.8483 0.0140 0.5293
vn -0.5137 0.2205 -0.8291
vn 0.5137 -0.2205 0.8291
s off
f 2//1 3//1 1//1
f 4//2 7//2 3//2
f 8//3 5//3 7//3
f 6//4 1//4 5//4
f 7//5 1//5 3//5
f 4//6 6//6 8//6
f 2//1 4//1 3//1
f 4//2 8//2 7//2
f 8//3 6//3 5//3
f 6//4 2//4 1//4
f 7//5 5//5 1//5
f 4//6 2//6 6//6
