# Blender v2.83.0 OBJ File: ''
# www.blender.org
o Cube.040_Cube.881
v -0.202842 1.029041 0.595736
v 0.708112 1.067337 0.239530
v -0.559439 1.032323 -0.315863
v 0.351515 1.070619 -0.672070
v -0.168372 0.050927 0.578731
v 0.742582 0.089223 0.222524
v -0.524969 0.054209 -0.332869
v 0.385984 0.092505 -0.689075
vn -0.0352 0.9992 0.0174
vn -0.3643 0.0034 -0.9313
vn 0.0352 -0.9992 -0.0174
vn 0.3643 -0.0034 0.9313
vn -0.9306 -0.0391 0.3639
vn 0.9306 0.0391 -0.3639
s off
f 2//1 3//1 1//1
f 4//2 7//2 3//2
f 8//3 5//3 7//3
f 6//4 1//4 5//4
f 7//5 1//5 3//5
f 4//6 6//6 8//6
f 2//1 4//1 3//1
f 4//2 8//2 7//2
f 8//3 6//3 5//3
f 6//4 2//4 1//4
f 7//5 5//5 1//5
f 4//6 2//6 6//6
