# Blender v2.83.0 OBJ File: ''
# www.blender.org
o Cube.097_Cube.938
v 1.569652 0.561395 -1.947199
v 1.980841 -0.120868 -0.756912
v 1.329393 -0.697809 -2.585966
v 1.740581 -1.380072 -1.395679
v 0.218896 0.577680 -1.471242
v 0.630084 -0.104583 -0.280955
v -0.021364 -0.681524 -2.110009
v 0.389825 -1.363787 -0.919722
vn 0.9431 -0.0114 -0.3323
vn -0.1677 -0.8792 -0.4460
vn -0.9431 0.0114 0.3323
vn 0.1677 0.8792 0.4460
vn -0.2871 0.4764 -0.8311
vn 0.2871 -0.4764 0.8311
s off
f 2//1 3//1 1//1
f 4//2 7//2 3//2
f 8//3 5//3 7//3
f 6//4 1//4 5//4
f 7//5 1//5 3//5
f 4//6 6//6 8//6
f 2//1 4//1 3//1
f 4//2 8//2 7//2
f 8//3 6//3 5//3
f 6//4 2//4 1//4
f 7//5 5//5 1//5
f 4//6 2//6 6//6
