# Blender v2.83.0 OBJ File: ''
# www.blender.org
o Cube.005_Cube.846
v -0.440780 0.087326 -2.248932
v -1.209276 0.749666 -1.577239
v 0.265077 -0.083675 -1.272728
v -0.503419 0.578664 -0.601035
v -1.066584 -0.918912 -1.972699
v -1.835080 -0.256573 -1.301006
v -0.360727 -1.089914 -0.996495
v -1.129222 -0.427574 -0.324802
vn 0.5143 0.8270 -0.2270
vn 0.5801 -0.1405 0.8023
vn -0.5143 -0.8270 0.2270
vn -0.5801 0.1405 -0.8023
vn 0.6316 -0.5444 -0.5520
vn -0.6316 0.5444 0.5520
s off
f 2//1 3//1 1//1
f 4//2 7//2 3//2
f 8//3 5//3 7//3
f 6//4 1//4 5//4
f 7//5 1//5 3//5
f 4//6 6//6 8//6
f 2//1 4//1 3//1
f 4//2 8//2 7//2
f 8//3 6//3 5//3
f 6//4 2//4 1//4
f 7//5 5//5 1//5
f 4//6 2//6 6//6
