# Blender v2.83.0 OBJ File: ''
# www.blender.org
o Cube.095_Cube.936
v 0.707724 0.904353 1.123791
v 0.186904 0.746963 0.477387
v 1.325711 1.093911 0.579711
v 0.804891 0.936521 -0.066692
v 0.461349 1.712535 1.125520
v -0.059471 1.555145 0.479117
v 1.079336 1.902093 0.581440
v 0.558515 1.744704 -0.064963
vn 0.2916 -0.9565 -0.0020
vn 0.7314 0.2244 -0.6440
vn -0.2916 0.9565 0.0020
vn -0.7314 -0.2244 0.6440
vn 0.6164 0.1863 0.7651
vn -0.6164 -0.1863 -0.7651
s off
f 2//1 3//1 1//1
f 4//2 7//2 3//2
f 8//3 5//3 7//3
f 6//4 1//4 5//4
f 7//5 1//5 3//5
f 4//6 6//6 8//6
f 2//1 4//1 3//1
f 4//2 8//2 7//2
f 8//3 6//3 5//3
f 6//4 2//4 1//4
f 7//5 5//5 1//5
f 4//6 2//6 6//6
