# Blender v2.83.0 OBJ File: ''
# www.blender.org
o Cube.076_Cube.917
v -2.004072 -1.598276 0.404700
v -1.267351 -0.328213 0.871406
v -2.340379 -0.911680 -0.932879
v -1.603658 0.358384 -0.466172
v -0.693433 -2.136010 -0.200860
v 0.043288 -0.865947 0.265847
v -1.029740 -1.449414 -1.538439
v -0.293019 -0.179350 -1.071732
vn -0.8507 0.3490 0.3931
vn -0.2183 0.4457 -0.8682
vn 0.8507 -0.3490 -0.3931
vn 0.2183 -0.4457 0.8682
vn -0.4782 -0.8244 -0.3029
vn 0.4782 0.8244 0.3029
s off
f 2//1 3//1 1//1
f 4//2 7//2 3//2
f 8//3 5//3 7//3
f 6//4 1//4 5//4
f 7//5 1//5 3//5
f 4//6 6//6 8//6
f 2//1 4//1 3//1
f 4//2 8//2 7//2
f 8//3 6//3 5//3
f 6//4 2//4 1//4
f 7//5 5//5 1//5
f 4//6 2//6 6//6
