# Blender v2.83.0 OBJ File: ''
# www.blender.org
o Cube.113_Cube.954
v -0.636643 0.913729 -1.100939
v 0.654596 1.583111 -0.265764
v -1.336070 0.450821 0.351440
v -0.044832 1.120203 1.186614
v -1.446822 2.380197 -1.023701
v -0.155583 3.049579 -0.188527
v -2.146249 1.917289 0.428677
v -0.855011 2.586671 1.263852
vn 0.4831 -0.8744 -0.0461
vn -0.4170 -0.2760 0.8660
vn -0.4831 0.8744 0.0461
vn 0.4170 0.2760 -0.8660
vn -0.7699 -0.3991 -0.4980
vn 0.7699 0.3991 0.4980
s off
f 2//1 3//1 1//1
f 4//2 7//2 3//2
f 8//3 5//3 7//3
f 6//4 1//4 5//4
f 7//5 1//5 3//5
f 4//6 6//6 8//6
f 2//1 4//1 3//1
f 4//2 8//2 7//2
f 8//3 6//3 5//3
f 6//4 2//4 1//4
f 7//5 5//5 1//5
f 4//6 2//6 6//6
