# Blender v2.83.0 OBJ File: ''
# www.blender.org
o Cube.050_Cube.891
v -0.111983 -0.822482 -0.866751
v 0.419972 -0.233327 -0.580688
v -0.764937 -0.374019 -0.576160
v -0.232982 0.215136 -0.290097
v -0.162845 -0.417897 -1.605423
v 0.369110 0.171257 -1.319360
v -0.815799 0.030566 -1.314831
v -0.283844 0.619721 -1.028768
vn 0.0603 -0.4795 0.8755
vn -0.7739 0.5315 0.3444
vn -0.0603 0.4795 -0.8755
vn 0.7739 -0.5315 -0.3444
vn -0.6305 -0.6983 -0.3390
vn 0.6305 0.6983 0.3390
s off
f 2//1 3//1 1//1
f 4//2 7//2 3//2
f 8//3 5//3 7//3
f 6//4 1//4 5//4
f 7//5 1//5 3//5
f 4//6 6//6 8//6
f 2//1 4//1 3//1
f 4//2 8//2 7//2
f 8//3 6//3 5//3
f 6//4 2//4 1//4
f 7//5 5//5 1//5
f 4//6 2//6 6//6
