# Blender v2.83.0 OBJ File: ''
# www.blender.org
o Cube.070_Cube.911
v -0.170483 1.834784 2.088418
v 0.038883 0.347598 3.023669
v 1.574677 2.119176 2.149969
v 1.784044 0.631990 3.085221
v 0.031589 0.919551 0.587828
v 0.240956 -0.567635 1.523080
v 1.776750 1.203944 0.649380
v 1.986116 -0.283242 1.584631
vn -0.1142 0.5173 0.8481
vn 0.9864 0.1607 0.0348
vn 0.1142 -0.5173 -0.8481
vn -0.9864 -0.1607 -0.0348
vn -0.1183 0.8406 -0.5286
vn 0.1183 -0.8406 0.5286
s off
f 2//1 3//1 1//1
f 4//2 7//2 3//2
f 8//3 5//3 7//3
f 6//4 1//4 5//4
f 7//5 1//5 3//5
f 4//6 6//6 8//6
f 2//1 4//1 3//1
f 4//2 8//2 7//2
f 8//3 6//3 5//3
f 6//4 2//4 1//4
f 7//5 5//5 1//5
f 4//6 2//6 6//6
