# Blender v2.83.0 OBJ File: ''
# www.blender.org
o Cube.112_Cube.953
v -0.864399 0.261330 -2.451804
v -1.466788 0.184435 -2.248451
v -0.705296 0.513640 -1.885091
v -1.307685 0.436745 -1.681738
v -0.716237 -0.322249 -2.233581
v -1.318625 -0.399144 -2.030227
v -0.557134 -0.069938 -1.666868
v -1.159523 -0.146834 -1.463514
vn -0.2314 0.9112 -0.3407
vn 0.2484 0.3940 0.8849
vn 0.2314 -0.9112 0.3408
vn -0.2484 -0.3940 -0.8849
vn 0.9406 0.1201 -0.3175
vn -0.9406 -0.1201 0.3175
vn -0.2314 0.9112 -0.3408
s off
f 2//1 3//1 1//1
f 4//2 7//2 3//2
f 8//3 5//3 7//3
f 6//4 1//4 5//4
f 3//5 5//5 1//5
f 4//6 6//6 8//6
f 2//7 4//7 3//7
f 4//2 8//2 7//2
f 8//3 6//3 5//3
f 6//4 2//4 1//4
f 3//5 7//5 5//5
f 4//6 2//6 6//6
