# Blender v2.83.0 OBJ File: ''
# www.blender.org
o Cube.078_Cube.919
v 0.862159 2.178615 -0.148734
v 1.793169 0.976798 0.130001
v 1.391790 2.252578 -1.598858
v 2.322799 1.050760 -1.320122
v -0.252090 1.209594 -0.605117
v 0.678920 0.007777 -0.326381
v 0.277541 1.283557 -2.055241
v 1.208550 0.081739 -1.776505
vn 0.7209 0.6270 0.2953
vn 0.3427 0.0479 -0.9382
vn -0.7209 -0.6270 -0.2953
vn -0.3427 -0.0479 0.9382
vn -0.6024 0.7776 -0.1803
vn 0.6024 -0.7776 0.1803
s off
f 2//1 3//1 1//1
f 4//2 7//2 3//2
f 8//3 5//3 7//3
f 6//4 1//4 5//4
f 7//5 1//5 3//5
f 4//6 6//6 8//6
f 2//1 4//1 3//1
f 4//2 8//2 7//2
f 8//3 6//3 5//3
f 6//4 2//4 1//4
f 7//5 5//5 1//5
f 4//6 2//6 6//6
