# Blender v2.83.0 OBJ File: ''
# www.blender.org
o Cube.080_Cube.921
v -0.635986 -0.548365 1.008777
v -0.968397 -0.781803 2.742129
v -2.343213 -0.121746 0.738831
v -2.675624 -0.355185 2.472183
v -0.256015 1.164237 1.312289
v -0.588426 0.930798 3.045641
v -1.963243 1.590855 1.042343
v -2.295654 1.357417 2.775695
vn -0.2134 -0.9620 -0.1705
vn -0.9589 0.2396 -0.1516
vn 0.2134 0.9620 0.1705
vn 0.9590 -0.2396 0.1516
vn 0.1867 0.1311 -0.9736
vn -0.1867 -0.1311 0.9736
vn -0.9590 0.2396 -0.1516
s off
f 2//1 3//1 1//1
f 4//2 7//2 3//2
f 8//3 5//3 7//3
f 6//4 1//4 5//4
f 7//5 1//5 3//5
f 4//6 6//6 8//6
f 2//1 4//1 3//1
f 4//7 8//7 7//7
f 8//3 6//3 5//3
f 6//4 2//4 1//4
f 7//5 5//5 1//5
f 4//6 2//6 6//6
