# Blender v2.83.0 OBJ File: ''
# www.blender.org
o Cube.035_Cube.876
v -1.298410 -1.108147 -0.097680
v -1.544367 -1.781538 -1.734089
v 0.425801 -1.570918 -0.166401
v 0.179845 -2.244309 -1.802810
v -0.900435 0.480618 -0.811282
v -1.146392 -0.192774 -2.447691
v 0.823777 0.017847 -0.880003
v 0.577820 -0.655544 -2.516412
vn -0.2228 -0.8893 0.3994
vn 0.9651 -0.2590 -0.0385
vn 0.2228 0.8893 -0.3994
vn -0.9651 0.2590 0.0385
vn 0.1377 0.3769 0.9160
vn -0.1377 -0.3769 -0.9160
s off
f 2//1 3//1 1//1
f 4//2 7//2 3//2
f 8//3 5//3 7//3
f 6//4 1//4 5//4
f 7//5 1//5 3//5
f 4//6 6//6 8//6
f 2//1 4//1 3//1
f 4//2 8//2 7//2
f 8//3 6//3 5//3
f 6//4 2//4 1//4
f 7//5 5//5 1//5
f 4//6 2//6 6//6
