# Blender v2.83.0 OBJ File: ''
# www.blender.org
o Cube.060_Cube.901
v -1.229649 -1.888351 -0.970105
v -1.798911 -1.260349 -0.858274
v -1.473806 -2.241343 -0.230688
v -2.043068 -1.613340 -0.118857
v -1.818954 -2.348746 -1.384483
v -2.388217 -1.720743 -1.272652
v -2.063111 -2.701737 -0.645066
v -2.632373 -2.073735 -0.533234
vn 0.6893 0.5385 0.4847
vn -0.2856 -0.4129 0.8649
vn -0.6893 -0.5385 -0.4847
vn 0.2856 0.4129 -0.8649
vn 0.6658 -0.7345 -0.1308
vn -0.6658 0.7345 0.1308
s off
f 2//1 3//1 1//1
f 4//2 7//2 3//2
f 8//3 5//3 7//3
f 6//4 1//4 5//4
f 7//5 1//5 3//5
f 4//6 6//6 8//6
f 2//1 4//1 3//1
f 4//2 8//2 7//2
f 8//3 6//3 5//3
f 6//4 2//4 1//4
f 7//5 5//5 1//5
f 4//6 2//6 6//6
