# Blender v2.83.0 OBJ File: ''
# www.blender.org
o Cube.069_Cube.910
v 1.449854 0.139398 1.984054
v 0.656100 1.023904 1.519666
v 1.149002 -0.637838 1.017904
v 0.355248 0.246669 0.553516
v 2.402480 0.630932 1.291990
v 1.608726 1.515438 0.827603
v 2.101628 -0.146304 0.325840
v 1.307874 0.738203 -0.138547
vn -0.7466 -0.3852 0.5424
vn -0.2358 -0.6091 -0.7572
vn 0.7466 0.3852 -0.5424
vn 0.2358 0.6091 0.7572
vn 0.6221 -0.6932 0.3640
vn -0.6221 0.6932 -0.3640
s off
f 2//1 3//1 1//1
f 4//2 7//2 3//2
f 8//3 5//3 7//3
f 6//4 1//4 5//4
f 7//5 1//5 3//5
f 4//6 6//6 8//6
f 2//1 4//1 3//1
f 4//2 8//2 7//2
f 8//3 6//3 5//3
f 6//4 2//4 1//4
f 7//5 5//5 1//5
f 4//6 2//6 6//6
