# Blender v2.83.0 OBJ File: ''
# www.blender.org
o Cube.039_Cube.880
v -0.529356 1.329197 0.752098
v 0.030710 2.268368 0.341931
v 0.439320 0.691465 0.614551
v 0.999385 1.630636 0.204385
v -0.194771 1.603439 1.836900
v 0.365295 2.542610 1.426734
v 0.773904 0.965708 1.699354
v 1.333970 1.904879 1.289188
vn -0.2865 -0.2348 -0.9289
vn 0.8294 -0.5461 -0.1178
vn 0.2865 0.2348 0.9289
vn -0.8294 0.5461 0.1178
vn -0.4796 -0.8042 0.3512
vn 0.4796 0.8042 -0.3512
s off
f 2//1 3//1 1//1
f 4//2 7//2 3//2
f 8//3 5//3 7//3
f 6//4 1//4 5//4
f 7//5 1//5 3//5
f 4//6 6//6 8//6
f 2//1 4//1 3//1
f 4//2 8//2 7//2
f 8//3 6//3 5//3
f 6//4 2//4 1//4
f 7//5 5//5 1//5
f 4//6 2//6 6//6
