# Blender v2.83.0 OBJ File: ''
# www.blender.org
o Cube.081_Cube.922
v -1.040694 0.172103 0.225429
v -1.504065 0.756566 -0.253636
v -1.787087 -0.093872 0.622880
v -2.250458 0.490592 0.143815
v -1.159003 -0.439022 -0.405715
v -1.622374 0.145442 -0.884780
v -1.905396 -0.704996 -0.008264
v -2.368767 -0.120533 -0.487329
vn 0.1335 0.6894 0.7120
vn -0.8420 -0.3000 0.4484
vn -0.1335 -0.6894 -0.7120
vn 0.8420 0.3000 -0.4484
vn 0.5227 -0.6593 0.5404
vn -0.5227 0.6593 -0.5404
s off
f 2//1 3//1 1//1
f 4//2 7//2 3//2
f 7//3 6//3 5//3
f 6//4 1//4 5//4
f 7//5 1//5 3//5
f 4//6 6//6 8//6
f 2//1 4//1 3//1
f 4//2 8//2 7//2
f 7//3 8//3 6//3
f 6//4 2//4 1//4
f 7//5 5//5 1//5
f 4//6 2//6 6//6
