# Blender v2.83.0 OBJ File: ''
# www.blender.org
o Cube.117_Cube.958
v 0.364150 -2.827492 -2.082026
v 0.646075 -2.130110 -1.101581
v -0.827963 -2.529386 -1.951277
v -0.546038 -1.832004 -0.970832
v 0.526880 -1.851845 -2.822788
v 0.808805 -1.154463 -1.842343
v -0.665233 -1.553739 -2.692039
v -0.383308 -0.856357 -1.711594
vn -0.1317 -0.7895 0.5994
vn -0.9647 0.2412 0.1058
vn 0.1317 0.7895 -0.5994
vn 0.9647 -0.2412 -0.1058
vn -0.2281 -0.5643 -0.7934
vn 0.2281 0.5643 0.7934
s off
f 2//1 3//1 1//1
f 4//2 7//2 3//2
f 8//3 5//3 7//3
f 6//4 1//4 5//4
f 7//5 1//5 3//5
f 4//6 6//6 8//6
f 2//1 4//1 3//1
f 4//2 8//2 7//2
f 8//3 6//3 5//3
f 6//4 2//4 1//4
f 7//5 5//5 1//5
f 4//6 2//6 6//6
