# Blender v2.83.0 OBJ File: ''
# www.blender.org
o Cube.047_Cube.888
v -2.097769 0.079471 -0.546571
v -0.291103 0.637796 -0.425869
v -2.221171 0.070026 1.344202
v -0.414505 0.628351 1.464904
v -2.655503 1.890140 -0.573926
v -0.848837 2.448464 -0.453224
v -2.778905 1.880695 1.316846
v -0.972239 2.439019 1.437548
vn 0.2943 -0.9556 0.0144
vn -0.0651 -0.0050 0.9979
vn -0.2943 0.9556 -0.0144
vn 0.0651 0.0050 -0.9979
vn -0.9535 -0.2947 -0.0637
vn 0.9535 0.2947 0.0637
s off
f 2//1 3//1 1//1
f 4//2 7//2 3//2
f 8//3 5//3 7//3
f 6//4 1//4 5//4
f 7//5 1//5 3//5
f 4//6 6//6 8//6
f 2//1 4//1 3//1
f 4//2 8//2 7//2
f 8//3 6//3 5//3
f 6//4 2//4 1//4
f 7//5 5//5 1//5
f 4//6 2//6 6//6
