# Blender v2.83.0 OBJ File: ''
# www.blender.org
o Cube.074_Cube.915
v 0.784176 -0.597795 1.377626
v 0.417527 -0.823061 1.962027
v 0.162529 -0.549422 1.006256
v -0.204120 -0.774688 1.590656
v 0.707857 0.090403 1.595020
v 0.341208 -0.134864 2.179421
v 0.086210 0.138776 1.223650
v -0.280439 -0.086491 1.808050
vn 0.1052 -0.9483 -0.2995
vn -0.8566 0.0667 -0.5117
vn -0.1052 0.9483 0.2995
vn 0.8566 -0.0667 0.5117
vn 0.5052 0.3104 -0.8052
vn -0.5052 -0.3104 0.8052
s off
f 2//1 3//1 1//1
f 4//2 7//2 3//2
f 8//3 5//3 7//3
f 6//4 1//4 5//4
f 7//5 1//5 3//5
f 4//6 6//6 8//6
f 2//1 4//1 3//1
f 4//2 8//2 7//2
f 8//3 6//3 5//3
f 6//4 2//4 1//4
f 7//5 5//5 1//5
f 4//6 2//6 6//6
