# Blender v2.83.0 OBJ File: ''
# www.blender.org
o Cube.019_Cube.860
v -1.603759 -1.443404 0.394221
v -1.434372 -0.909915 -1.213535
v -0.001867 -2.019277 0.371903
v 0.167520 -1.485788 -1.235854
v -1.052908 0.067207 0.953510
v -0.883521 0.600696 -0.654246
v 0.548983 -0.508667 0.931192
v 0.718370 0.024822 -0.676565
vn -0.3236 -0.8873 -0.3285
vn 0.9410 -0.3383 -0.0131
vn 0.3236 0.8873 0.3285
vn -0.9410 0.3383 0.0131
vn -0.0995 -0.3134 0.9444
vn 0.0995 0.3134 -0.9444
s off
f 2//1 3//1 1//1
f 4//2 7//2 3//2
f 8//3 5//3 7//3
f 6//4 1//4 5//4
f 7//5 1//5 3//5
f 4//6 6//6 8//6
f 2//1 4//1 3//1
f 4//2 8//2 7//2
f 8//3 6//3 5//3
f 6//4 2//4 1//4
f 7//5 5//5 1//5
f 4//6 2//6 6//6
