# Blender v2.83.0 OBJ File: ''
# www.blender.org
o Cube.048_Cube.889
v -0.799919 0.437044 1.207595
v -1.436510 0.452961 0.634940
v -1.078931 1.176112 1.538300
v -1.715522 1.192029 0.965645
v -1.300258 0.004655 1.751778
v -1.936849 0.020572 1.179123
v -1.579270 0.743723 2.082484
v -2.215861 0.759640 1.509828
vn 0.5842 0.5049 -0.6354
vn -0.3258 0.8630 0.3862
vn -0.5842 -0.5049 0.6354
vn 0.3258 -0.8630 -0.3862
vn 0.7433 -0.0186 0.6687
vn -0.7433 0.0186 -0.6687
s off
f 2//1 3//1 1//1
f 4//2 7//2 3//2
f 8//3 5//3 7//3
f 6//4 1//4 5//4
f 7//5 1//5 3//5
f 4//6 6//6 8//6
f 2//1 4//1 3//1
f 4//2 8//2 7//2
f 8//3 6//3 5//3
f 6//4 2//4 1//4
f 7//5 5//5 1//5
f 4//6 2//6 6//6
