# Blender v2.83.0 OBJ File: ''
# www.blender.org
o Cube.062_Cube.903
v -0.771292 -0.631507 -0.685913
v -1.687317 -0.531376 -1.329887
v -0.380841 -1.436604 -1.366497
v -1.296865 -1.336474 -2.010471
v -0.249492 0.146710 -1.307148
v -1.165516 0.246840 -1.951122
v 0.140960 -0.658388 -1.987731
v -0.775064 -0.558257 -2.631706
vn -0.4642 -0.6922 0.5526
vn 0.3473 -0.7162 -0.6054
vn 0.4642 0.6922 -0.5526
vn -0.3473 0.7162 0.6054
vn 0.8148 -0.0891 0.5728
vn -0.8148 0.0891 -0.5728
s off
f 2//1 3//1 1//1
f 4//2 7//2 3//2
f 8//3 5//3 7//3
f 6//4 1//4 5//4
f 7//5 1//5 3//5
f 4//6 6//6 8//6
f 2//1 4//1 3//1
f 4//2 8//2 7//2
f 8//3 6//3 5//3
f 6//4 2//4 1//4
f 7//5 5//5 1//5
f 4//6 2//6 6//6
