# Blender v2.83.0 OBJ File: ''
# www.blender.org
o Cube.055_Cube.896
v 0.472512 -0.421725 2.607555
v 1.746630 -1.515944 3.323474
v 1.775823 0.559918 1.788415
v 3.049941 -0.534302 2.504334
v 0.366503 -1.504450 1.141369
v 1.640621 -2.598670 1.857289
v 1.669814 -0.522807 0.322229
v 2.943932 -1.617027 1.038149
vn 0.0581 0.5930 0.8031
vn 0.7139 0.5377 -0.4487
vn -0.0581 -0.5930 -0.8031
vn -0.7139 -0.5377 0.4487
vn -0.6979 0.5993 -0.3921
vn 0.6979 -0.5993 0.3921
s off
f 2//1 3//1 1//1
f 4//2 7//2 3//2
f 8//3 5//3 7//3
f 6//4 1//4 5//4
f 7//5 1//5 3//5
f 4//6 6//6 8//6
f 2//1 4//1 3//1
f 4//2 8//2 7//2
f 8//3 6//3 5//3
f 6//4 2//4 1//4
f 7//5 5//5 1//5
f 4//6 2//6 6//6
