# Blender v2.83.0 OBJ File: ''
# www.blender.org
o Cube.073_Cube.914
v -0.483030 -1.567047 -1.354722
v -0.822023 -2.057186 -1.352432
v -0.847240 -1.317018 -1.754714
v -1.186233 -1.807156 -1.752424
v -0.811042 -1.338121 -0.912954
v -1.150035 -1.828260 -0.910665
v -1.175253 -1.088092 -1.312946
v -1.514246 -1.578231 -1.310657
vn 0.5504 -0.3841 -0.7413
vn -0.6111 0.4195 -0.6712
vn -0.5504 0.3841 0.7413
vn 0.6111 -0.4195 0.6712
vn 0.5688 0.8224 -0.0038
vn -0.5688 -0.8224 0.0038
s off
f 2//1 3//1 1//1
f 4//2 7//2 3//2
f 8//3 5//3 7//3
f 6//4 1//4 5//4
f 7//5 1//5 3//5
f 4//6 6//6 8//6
f 2//1 4//1 3//1
f 4//2 8//2 7//2
f 8//3 6//3 5//3
f 6//4 2//4 1//4
f 7//5 5//5 1//5
f 4//6 2//6 6//6
