# Blender v2.83.0 OBJ File: ''
# www.blender.org
o Cube.105_Cube.946
v -0.598691 1.977103 -1.477699
v -1.616843 2.790131 -1.714295
v -0.889005 1.989515 -0.185727
v -1.907157 2.802543 -0.422323
v -1.394122 0.931896 -1.646396
v -2.412274 1.744925 -1.882992
v -1.684437 0.944308 -0.354425
v -2.702588 1.757336 -0.591021
vn 0.6007 0.7893 0.1274
vn -0.2192 0.0094 0.9756
vn -0.6007 -0.7893 -0.1274
vn 0.2192 -0.0094 -0.9756
vn 0.7689 -0.6140 0.1787
vn -0.7689 0.6140 -0.1787
s off
f 2//1 3//1 1//1
f 3//2 8//2 7//2
f 7//3 6//3 5//3
f 6//4 1//4 5//4
f 7//5 1//5 3//5
f 4//6 6//6 8//6
f 2//1 4//1 3//1
f 3//2 4//2 8//2
f 7//3 8//3 6//3
f 6//4 2//4 1//4
f 7//5 5//5 1//5
f 4//6 2//6 6//6
