# Blender v2.83.0 OBJ File: ''
# www.blender.org
o Cube.119_Cube.960
v -2.064898 1.212213 0.726142
v -1.150558 0.519246 0.632888
v -1.730048 1.780941 -0.216906
v -0.815709 1.087974 -0.310161
v -2.678718 0.490228 0.072782
v -1.764379 -0.202739 -0.020473
v -2.343868 1.058957 -0.870266
v -1.429529 0.365989 -0.963521
vn 0.5333 0.6272 0.5676
vn 0.2909 0.4941 -0.8193
vn -0.5333 -0.6272 -0.5676
vn -0.2909 -0.4941 0.8193
vn -0.7944 0.6020 0.0810
vn 0.7944 -0.6020 -0.0810
s off
f 2//1 3//1 1//1
f 4//2 7//2 3//2
f 8//3 5//3 7//3
f 6//4 1//4 5//4
f 7//5 1//5 3//5
f 4//6 6//6 8//6
f 2//1 4//1 3//1
f 4//2 8//2 7//2
f 8//3 6//3 5//3
f 6//4 2//4 1//4
f 7//5 5//5 1//5
f 4//6 2//6 6//6
