# Blender v2.83.0 OBJ File: ''
# www.blender.org
o Cube.004_Cube.845
v 1.383480 -0.780725 2.717054
v 1.931292 0.406090 2.605705
v 0.438623 -0.423115 1.880163
v 0.986435 0.763699 1.768814
v 2.110236 -1.210389 1.712942
v 2.658047 -0.023574 1.601593
v 1.165379 -0.852779 0.876051
v 1.713190 0.334036 0.764702
vn -0.5540 0.3275 0.7654
vn -0.7202 0.2726 -0.6379
vn 0.5540 -0.3275 -0.7654
vn 0.7202 -0.2726 0.6379
vn -0.4176 -0.9047 0.0849
vn 0.4176 0.9047 -0.0849
s off
f 2//1 3//1 1//1
f 4//2 7//2 3//2
f 8//3 5//3 7//3
f 6//4 1//4 5//4
f 7//5 1//5 3//5
f 4//6 6//6 8//6
f 2//1 4//1 3//1
f 4//2 8//2 7//2
f 8//3 6//3 5//3
f 6//4 2//4 1//4
f 7//5 5//5 1//5
f 4//6 2//6 6//6
