# Blender v2.83.0 OBJ File: ''
# www.blender.org
o Cube.046_Cube.887
v -0.950989 0.948173 1.916590
v 0.553841 0.587455 0.988076
v -1.915246 0.842735 0.394795
v -0.410417 0.482017 -0.533719
v -1.200920 -0.816915 2.197249
v 0.303909 -1.177633 1.268734
v -2.165177 -0.922352 0.675454
v -0.660348 -1.283071 -0.253061
vn 0.1385 0.9781 -0.1555
vn -0.5343 -0.0584 -0.8433
vn -0.1385 -0.9781 0.1555
vn 0.5343 0.0584 0.8433
vn -0.8339 0.1999 0.5145
vn 0.8339 -0.1999 -0.5145
s off
f 2//1 3//1 1//1
f 4//2 7//2 3//2
f 8//3 5//3 7//3
f 6//4 1//4 5//4
f 7//5 1//5 3//5
f 4//6 6//6 8//6
f 2//1 4//1 3//1
f 4//2 8//2 7//2
f 8//3 6//3 5//3
f 6//4 2//4 1//4
f 7//5 5//5 1//5
f 4//6 2//6 6//6
