# Blender v2.83.0 OBJ File: ''
# www.blender.org
o Cylinder.076_Cylinder.1865
v 2.258455 -0.688620 3.174618
v 0.925007 0.577052 2.387223
v 2.049464 -0.961136 3.090496
v 0.716016 0.304536 2.303100
v 1.917812 -1.222932 2.892633
v 0.584364 0.042740 2.105238
v 1.883541 -1.434151 2.611153
v 0.550093 -0.168479 1.823758
v 1.951869 -1.562638 2.288909
v 0.618421 -0.296966 1.501513
v 2.112394 -1.588831 1.974959
v 0.778946 -0.323159 1.187563
v 2.340677 -1.508742 1.717099
v 1.007229 -0.243070 0.929703
v 2.601964 -1.334565 1.554586
v 1.268517 -0.068893 0.767190
v 2.856477 -1.092817 1.512161
v 1.523029 0.172855 0.724766
v 3.065468 -0.820300 1.596284
v 1.732020 0.445372 0.808888
v 3.197120 -0.558504 1.794146
v 1.863673 0.707167 1.006751
v 3.231391 -0.347285 2.075626
v 1.897943 0.918387 1.288231
v 3.163063 -0.218798 2.397871
v 1.829615 1.046874 1.610475
v 3.002538 -0.192605 2.711821
v 1.669090 1.073066 1.924426
v 2.774255 -0.272694 2.969681
v 1.440807 0.992978 2.182286
v 2.512968 -0.446871 3.132194
v 1.179520 0.818801 2.344798
vn -0.4540 0.0741 0.8879
vn -0.6456 -0.2265 0.7293
vn -0.7390 -0.4926 0.4596
vn -0.7198 -0.6837 0.1200
vn -0.5911 -0.7707 -0.2379
vn -0.3723 -0.7404 -0.5596
vn -0.0969 -0.5974 -0.7961
vn 0.1932 -0.3634 -0.9114
vn 0.4540 -0.0741 -0.8879
vn 0.6456 0.2265 -0.7293
vn 0.7390 0.4926 -0.4596
vn 0.7198 0.6837 -0.1200
vn 0.5911 0.7707 0.2379
vn 0.3723 0.7404 0.5596
vn -0.6667 0.6328 -0.3937
vn 0.0969 0.5974 0.7961
vn -0.1932 0.3634 0.9114
vn 0.6667 -0.6328 0.3937
s off
f 2//1 3//1 1//1
f 4//2 5//2 3//2
f 6//3 7//3 5//3
f 8//4 9//4 7//4
f 10//5 11//5 9//5
f 12//6 13//6 11//6
f 14//7 15//7 13//7
f 16//8 17//8 15//8
f 18//9 19//9 17//9
f 20//10 21//10 19//10
f 22//11 23//11 21//11
f 24//12 25//12 23//12
f 26//13 27//13 25//13
f 28//14 29//14 27//14
f 10//15 6//15 22//15
f 30//16 31//16 29//16
f 32//17 1//17 31//17
f 7//18 15//18 23//18
f 2//1 4//1 3//1
f 4//2 6//2 5//2
f 6//3 8//3 7//3
f 8//4 10//4 9//4
f 10//5 12//5 11//5
f 12//6 14//6 13//6
f 14//7 16//7 15//7
f 16//8 18//8 17//8
f 18//9 20//9 19//9
f 20//10 22//10 21//10
f 22//11 24//11 23//11
f 24//12 26//12 25//12
f 26//13 28//13 27//13
f 28//14 30//14 29//14
f 6//15 4//15 2//15
f 2//15 32//15 30//15
f 30//15 28//15 26//15
f 26//15 24//15 22//15
f 22//15 20//15 18//15
f 18//15 16//15 14//15
f 14//15 12//15 10//15
f 10//15 8//15 6//15
f 6//15 2//15 30//15
f 30//15 26//15 6//15
f 26//15 22//15 6//15
f 22//15 18//15 14//15
f 14//15 10//15 22//15
f 30//16 32//16 31//16
f 32//17 2//17 1//17
f 31//18 1//18 3//18
f 3//18 5//18 7//18
f 7//18 9//18 11//18
f 11//18 13//18 15//18
f 15//18 17//18 23//18
f 17//18 19//18 23//18
f 19//18 21//18 23//18
f 23//18 25//18 31//18
f 25//18 27//18 31//18
f 27//18 29//18 31//18
f 31//18 3//18 7//18
f 7//18 11//18 15//18
f 31//18 7//18 23//18
