# Blender v2.83.0 OBJ File: ''
# www.blender.org
o Cylinder.033_Cylinder.1822
v 1.070480 1.412035 0.261434
v 0.405736 3.039609 -0.692044
v 0.866497 1.277619 0.174199
v 0.201753 2.905192 -0.779279
v 0.729732 1.127315 0.012983
v 0.064987 2.754888 -0.940495
v 0.681004 0.984006 -0.197671
v 0.016260 2.611580 -1.151149
v 0.727734 0.869511 -0.425693
v 0.062989 2.497084 -1.379171
v 0.862806 0.801258 -0.636368
v 0.198062 2.428832 -1.589846
v 1.065657 0.789641 -0.797623
v 0.400913 2.417214 -1.751101
v 1.305405 0.836426 -0.884908
v 0.640661 2.463999 -1.838386
v 1.545551 0.934492 -0.884935
v 0.880807 2.562065 -1.838413
v 1.749534 1.068908 -0.797701
v 1.084790 2.696481 -1.751179
v 1.886300 1.219212 -0.636485
v 1.221556 2.846785 -1.589962
v 1.935027 1.362521 -0.425830
v 1.270283 2.990094 -1.379308
v 1.888298 1.477016 -0.197809
v 1.223553 3.104590 -1.151286
v 1.753226 1.545269 0.012866
v 1.088481 3.172842 -0.940611
v 1.550374 1.556886 0.174121
v 0.885630 3.184460 -0.779356
v 1.310626 1.510101 0.261407
v 0.645881 3.137674 -0.692071
vn -0.5207 0.2631 0.8122
vn -0.7820 0.0448 0.6217
vn -0.9243 -0.1804 0.3365
vn -0.9258 -0.3781 0.0001
vn -0.7864 -0.5182 -0.3363
vn -0.5272 -0.5794 -0.6215
vn -0.1878 -0.5525 -0.8121
vn 0.1801 -0.4414 -0.8790
vn 0.5207 -0.2631 -0.8122
vn 0.7820 -0.0448 -0.6217
vn 0.9243 0.1804 -0.3365
vn 0.9258 0.3781 -0.0001
vn 0.7864 0.5182 0.3363
vn 0.5272 0.5794 0.6215
vn -0.3324 0.8138 -0.4767
vn 0.1878 0.5525 0.8121
vn -0.1801 0.4414 0.8790
vn 0.3324 -0.8138 0.4767
s off
f 2//1 3//1 1//1
f 4//2 5//2 3//2
f 5//3 8//3 7//3
f 8//4 9//4 7//4
f 10//5 11//5 9//5
f 12//6 13//6 11//6
f 14//7 15//7 13//7
f 16//8 17//8 15//8
f 18//9 19//9 17//9
f 20//10 21//10 19//10
f 22//11 23//11 21//11
f 23//12 26//12 25//12
f 26//13 27//13 25//13
f 28//14 29//14 27//14
f 22//15 14//15 6//15
f 30//16 31//16 29//16
f 32//17 1//17 31//17
f 15//18 23//18 31//18
f 2//1 4//1 3//1
f 4//2 6//2 5//2
f 5//3 6//3 8//3
f 8//4 10//4 9//4
f 10//5 12//5 11//5
f 12//6 14//6 13//6
f 14//7 16//7 15//7
f 16//8 18//8 17//8
f 18//9 20//9 19//9
f 20//10 22//10 21//10
f 22//11 24//11 23//11
f 23//12 24//12 26//12
f 26//13 28//13 27//13
f 28//14 30//14 29//14
f 6//15 4//15 30//15
f 4//15 2//15 30//15
f 2//15 32//15 30//15
f 30//15 28//15 26//15
f 26//15 24//15 22//15
f 22//15 20//15 18//15
f 18//15 16//15 22//15
f 16//15 14//15 22//15
f 14//15 12//15 10//15
f 10//15 8//15 14//15
f 8//15 6//15 14//15
f 30//15 26//15 6//15
f 26//15 22//15 6//15
f 30//16 32//16 31//16
f 32//17 2//17 1//17
f 31//18 1//18 3//18
f 3//18 5//18 7//18
f 7//18 9//18 11//18
f 11//18 13//18 15//18
f 15//18 17//18 19//18
f 19//18 21//18 23//18
f 23//18 25//18 27//18
f 27//18 29//18 23//18
f 29//18 31//18 23//18
f 31//18 3//18 7//18
f 7//18 11//18 15//18
f 15//18 19//18 23//18
f 31//18 7//18 15//18
