# Blender v2.83.0 OBJ File: ''
# www.blender.org
o Cylinder.042_Cylinder.1831
v -1.571723 0.214177 -0.021260
v -2.294953 -0.361060 1.752448
v -1.451295 0.522188 0.127737
v -2.174526 -0.053049 1.901444
v -1.219101 0.745263 0.294760
v -1.942332 0.170026 2.068468
v -0.910490 0.849442 0.454383
v -1.633720 0.274204 2.228091
v -0.572444 0.818862 0.582304
v -1.295675 0.243625 2.356012
v -0.256429 0.658181 0.659049
v -0.979660 0.082944 2.432756
v -0.010555 0.391861 0.672933
v -0.733785 -0.183377 2.446640
v 0.127746 0.060445 0.621843
v -0.595484 -0.514792 2.395550
v 0.137420 -0.285610 0.513556
v -0.585811 -0.860847 2.287264
v 0.016992 -0.593621 0.364560
v -0.706238 -1.168858 2.138268
v -0.215202 -0.816696 0.197536
v -0.938432 -1.391933 1.971244
v -0.523813 -0.920874 0.037913
v -1.247044 -1.496112 1.811621
v -0.861859 -0.890295 -0.090008
v -1.585089 -1.465532 1.683700
v -1.177874 -0.729614 -0.166752
v -1.901105 -1.304851 1.606956
v -1.423748 -0.463293 -0.180636
v -2.146979 -1.038531 1.593072
v -1.562050 -0.131878 -0.129546
v -2.285280 -0.707115 1.644162
vn -0.8712 0.4430 -0.2116
vn -0.6778 0.7342 -0.0383
vn -0.3813 0.9137 0.1408
vn -0.0267 0.9540 0.2985
vn 0.3320 0.8491 0.4108
vn 0.6401 0.6150 0.4605
vn 0.8508 0.2872 0.4401
vn 0.9319 -0.0843 0.3527
vn 0.8712 -0.4430 0.2116
vn 0.6778 -0.7342 0.0383
vn 0.3813 -0.9137 -0.1408
vn 0.0267 -0.9540 -0.2985
vn -0.3320 -0.8491 -0.4108
vn -0.6401 -0.6150 -0.4605
vn -0.3616 -0.2876 0.8869
vn -0.8508 -0.2872 -0.4401
vn -0.9319 0.0843 -0.3527
vn 0.3616 0.2876 -0.8869
s off
f 2//1 3//1 1//1
f 4//2 5//2 3//2
f 6//3 7//3 5//3
f 8//4 9//4 7//4
f 10//5 11//5 9//5
f 12//6 13//6 11//6
f 14//7 15//7 13//7
f 16//8 17//8 15//8
f 17//9 20//9 19//9
f 20//10 21//10 19//10
f 22//11 23//11 21//11
f 24//12 25//12 23//12
f 25//13 28//13 27//13
f 28//14 29//14 27//14
f 6//15 30//15 22//15
f 30//16 31//16 29//16
f 32//17 1//17 31//17
f 31//18 7//18 15//18
f 2//1 4//1 3//1
f 4//2 6//2 5//2
f 6//3 8//3 7//3
f 8//4 10//4 9//4
f 10//5 12//5 11//5
f 12//6 14//6 13//6
f 14//7 16//7 15//7
f 16//8 18//8 17//8
f 17//9 18//9 20//9
f 20//10 22//10 21//10
f 22//11 24//11 23//11
f 24//12 26//12 25//12
f 25//13 26//13 28//13
f 28//14 30//14 29//14
f 6//15 4//15 2//15
f 2//15 32//15 30//15
f 30//15 28//15 26//15
f 26//15 24//15 22//15
f 22//15 20//15 18//15
f 18//15 16//15 14//15
f 14//15 12//15 10//15
f 10//15 8//15 6//15
f 6//15 2//15 30//15
f 30//15 26//15 22//15
f 22//15 18//15 14//15
f 14//15 10//15 22//15
f 10//15 6//15 22//15
f 30//16 32//16 31//16
f 32//17 2//17 1//17
f 31//18 1//18 7//18
f 1//18 3//18 7//18
f 3//18 5//18 7//18
f 7//18 9//18 15//18
f 9//18 11//18 15//18
f 11//18 13//18 15//18
f 15//18 17//18 23//18
f 17//18 19//18 23//18
f 19//18 21//18 23//18
f 23//18 25//18 27//18
f 27//18 29//18 31//18
f 23//18 27//18 15//18
f 27//18 31//18 15//18
