# Blender v2.83.0 OBJ File: ''
# www.blender.org
o Cylinder.007_Cylinder.1796
v -1.327165 -0.414646 2.435247
v 0.428438 0.493544 2.130207
v -1.604580 -0.028209 1.989166
v 0.151023 0.879981 1.684127
v -1.805916 0.162773 1.399022
v -0.050313 1.070963 1.093982
v -1.900520 0.129224 0.754658
v -0.144917 1.037414 0.449619
v -1.873991 -0.123747 0.154173
v -0.118388 0.784443 -0.150866
v -1.730367 -0.557629 -0.311014
v 0.025236 0.350561 -0.616054
v -1.491514 -1.106366 -0.570083
v 0.264089 -0.198176 -0.875123
v -1.193795 -1.686419 -0.583594
v 0.561808 -0.778229 -0.888634
v -0.882535 -2.209479 -0.349489
v 0.873068 -1.301289 -0.654529
v -0.605120 -2.595916 0.096591
v 1.150483 -1.687726 -0.208448
v -0.403784 -2.786898 0.686735
v 1.351819 -1.878707 0.381696
v -0.309180 -2.753349 1.331100
v 1.446423 -1.845159 1.026060
v -0.335709 -2.500378 1.931585
v 1.419894 -1.592188 1.626545
v -0.479333 -2.066496 2.396772
v 1.276270 -1.158306 2.091733
v -0.718186 -1.517758 2.655842
v 1.037417 -0.609568 2.350802
v -1.015905 -0.937706 2.669352
v 0.739698 -0.029515 2.364313
vn -0.2202 0.6653 0.7133
vn -0.3663 0.8414 0.3973
vn -0.4565 0.8895 0.0207
vn -0.4773 0.8021 -0.3590
vn -0.4254 0.5926 -0.6840
vn -0.3087 0.2929 -0.9049
vn -0.1451 -0.0514 -0.9881
vn 0.0407 -0.3879 -0.9208
vn 0.2202 -0.6653 -0.7133
vn 0.3663 -0.8414 -0.3973
vn 0.4565 -0.8895 -0.0207
vn 0.4773 -0.8021 0.3590
vn 0.4254 -0.5926 0.6840
vn 0.3087 -0.2929 0.9049
vn 0.8778 0.4541 -0.1525
vn 0.1451 0.0514 0.9881
vn -0.0407 0.3879 0.9208
vn -0.8778 -0.4541 0.1525
s off
f 2//1 3//1 1//1
f 4//2 5//2 3//2
f 6//3 7//3 5//3
f 8//4 9//4 7//4
f 10//5 11//5 9//5
f 12//6 13//6 11//6
f 14//7 15//7 13//7
f 16//8 17//8 15//8
f 18//9 19//9 17//9
f 20//10 21//10 19//10
f 22//11 23//11 21//11
f 24//12 25//12 23//12
f 26//13 27//13 25//13
f 28//14 29//14 27//14
f 30//15 22//15 14//15
f 30//16 31//16 29//16
f 32//17 1//17 31//17
f 15//18 23//18 31//18
f 2//1 4//1 3//1
f 4//2 6//2 5//2
f 6//3 8//3 7//3
f 8//4 10//4 9//4
f 10//5 12//5 11//5
f 12//6 14//6 13//6
f 14//7 16//7 15//7
f 16//8 18//8 17//8
f 18//9 20//9 19//9
f 20//10 22//10 21//10
f 22//11 24//11 23//11
f 24//12 26//12 25//12
f 26//13 28//13 27//13
f 28//14 30//14 29//14
f 6//15 4//15 2//15
f 2//15 32//15 30//15
f 30//15 28//15 26//15
f 26//15 24//15 22//15
f 22//15 20//15 14//15
f 20//15 18//15 14//15
f 18//15 16//15 14//15
f 14//15 12//15 10//15
f 10//15 8//15 6//15
f 6//15 2//15 30//15
f 30//15 26//15 22//15
f 14//15 10//15 6//15
f 6//15 30//15 14//15
f 30//16 32//16 31//16
f 32//17 2//17 1//17
f 31//18 1//18 3//18
f 3//18 5//18 7//18
f 7//18 9//18 11//18
f 11//18 13//18 7//18
f 13//18 15//18 7//18
f 15//18 17//18 19//18
f 19//18 21//18 23//18
f 23//18 25//18 31//18
f 25//18 27//18 31//18
f 27//18 29//18 31//18
f 31//18 3//18 7//18
f 15//18 19//18 23//18
f 31//18 7//18 15//18
