# Blender v2.83.0 OBJ File: ''
# www.blender.org
o Cylinder.003_Cylinder.1792
v -0.208055 -2.047634 1.714741
v 0.334068 -1.429003 -0.108278
v -0.484460 -1.393939 1.854372
v 0.057662 -0.775309 0.031353
v -0.984375 -0.871935 1.882848
v -0.442252 -0.253306 0.059829
v -1.631692 -0.561094 1.795834
v -1.089569 0.057536 -0.027186
v -2.327863 -0.508736 1.606576
v -1.785740 0.109894 -0.216443
v -2.966901 -0.722834 1.343889
v -2.424779 -0.104204 -0.479131
v -3.451520 -1.170792 1.047763
v -2.909398 -0.552162 -0.775257
v -3.707941 -1.784414 0.763281
v -3.165818 -1.165784 -1.059739
v -3.697125 -2.470280 0.533753
v -3.155003 -1.851650 -1.289267
v -3.420720 -3.123975 0.394122
v -2.878597 -2.505345 -1.428898
v -2.920805 -3.645978 0.365646
v -2.378683 -3.027349 -1.457373
v -2.273489 -3.956820 0.452660
v -1.731366 -3.338191 -1.370359
v -1.577318 -4.009178 0.641918
v -1.035195 -3.390548 -1.181102
v -0.938279 -3.795080 0.904606
v -0.396156 -3.176450 -0.918414
v -0.453660 -3.347122 1.200732
v 0.088463 -2.728492 -0.622288
v -0.197239 -2.733500 1.485214
v 0.344884 -2.114869 -0.337806
vn 0.8835 0.2960 0.3632
vn 0.6700 0.6193 0.4094
vn 0.3545 0.8483 0.3933
vn -0.0150 0.9482 0.3173
vn -0.3821 0.9037 0.1930
vn -0.6911 0.7217 0.0394
vn -0.8949 0.4297 -0.1203
vn -0.9624 0.0724 -0.2616
vn -0.8835 -0.2960 -0.3632
vn -0.6700 -0.6193 -0.4094
vn -0.3545 -0.8483 -0.3933
vn 0.0150 -0.9482 -0.3173
vn 0.3821 -0.9037 -0.1930
vn 0.6911 -0.7217 -0.0394
vn 0.2711 0.3093 -0.9115
vn 0.8949 -0.4297 0.1203
vn 0.9624 -0.0724 0.2616
vn -0.2711 -0.3093 0.9115
s off
f 2//1 3//1 1//1
f 4//2 5//2 3//2
f 6//3 7//3 5//3
f 8//4 9//4 7//4
f 10//5 11//5 9//5
f 12//6 13//6 11//6
f 14//7 15//7 13//7
f 16//8 17//8 15//8
f 17//9 20//9 19//9
f 20//10 21//10 19//10
f 22//11 23//11 21//11
f 24//12 25//12 23//12
f 26//13 27//13 25//13
f 28//14 29//14 27//14
f 30//15 22//15 14//15
f 30//16 31//16 29//16
f 32//17 1//17 31//17
f 27//18 31//18 15//18
f 2//1 4//1 3//1
f 4//2 6//2 5//2
f 6//3 8//3 7//3
f 8//4 10//4 9//4
f 10//5 12//5 11//5
f 12//6 14//6 13//6
f 14//7 16//7 15//7
f 16//8 18//8 17//8
f 17//9 18//9 20//9
f 20//10 22//10 21//10
f 22//11 24//11 23//11
f 24//12 26//12 25//12
f 26//13 28//13 27//13
f 28//14 30//14 29//14
f 6//15 4//15 30//15
f 4//15 2//15 30//15
f 2//15 32//15 30//15
f 30//15 28//15 26//15
f 26//15 24//15 30//15
f 24//15 22//15 30//15
f 22//15 20//15 18//15
f 18//15 16//15 22//15
f 16//15 14//15 22//15
f 14//15 12//15 10//15
f 10//15 8//15 6//15
f 14//15 10//15 6//15
f 6//15 30//15 14//15
f 30//16 32//16 31//16
f 32//17 2//17 1//17
f 31//18 1//18 3//18
f 3//18 5//18 7//18
f 7//18 9//18 11//18
f 11//18 13//18 15//18
f 15//18 17//18 19//18
f 19//18 21//18 23//18
f 23//18 25//18 27//18
f 27//18 29//18 31//18
f 31//18 3//18 15//18
f 3//18 7//18 15//18
f 7//18 11//18 15//18
f 15//18 19//18 23//18
f 23//18 27//18 15//18
