# Blender v2.83.0 OBJ File: ''
# www.blender.org
o Cylinder.092_Cylinder.1881
v 1.056982 -1.200103 1.103135
v -0.926414 -1.309055 1.336093
v 1.023129 -1.537858 0.656945
v -0.960267 -1.646810 0.889904
v 0.967496 -1.679062 0.117246
v -1.015900 -1.788014 0.350204
v 0.898552 -1.602218 -0.433800
v -1.084844 -1.711170 -0.200842
v 0.826794 -1.319025 -0.912300
v -1.156602 -1.427977 -0.679341
v 0.763146 -0.872597 -1.245406
v -1.220250 -0.981549 -1.012448
v 0.717298 -0.330897 -1.382407
v -1.266098 -0.439849 -1.149449
v 0.696230 0.223604 -1.302445
v -1.287166 0.114652 -1.069487
v 0.703149 0.706489 -1.017695
v -1.280247 0.597537 -0.784737
v 0.737002 1.044244 -0.571505
v -1.246394 0.935292 -0.338547
v 0.792636 1.185448 -0.031805
v -1.190760 1.076496 0.201153
v 0.861579 1.108605 0.519240
v -1.121816 0.999653 0.752198
v 0.933338 0.825412 0.997740
v -1.050058 0.716460 1.230698
v 0.996985 0.378983 1.330847
v -0.986410 0.270031 1.563805
v 1.042834 -0.162717 1.467848
v -0.940562 -0.271669 1.700806
v 1.063902 -0.717218 1.387886
v -0.919494 -0.826170 1.620844
vn 0.1135 -0.7963 0.5942
vn 0.0818 -0.9662 0.2444
vn 0.0376 -0.9891 -0.1426
vn -0.0123 -0.8613 -0.5079
vn -0.0604 -0.6025 -0.7959
vn -0.0992 -0.2519 -0.9627
vn -0.1230 0.1371 -0.9829
vn -0.1280 0.5051 -0.8535
vn -0.1135 0.7963 -0.5942
vn -0.0818 0.9662 -0.2444
vn -0.0376 0.9891 0.1426
vn 0.0123 0.8613 0.5079
vn 0.0604 0.6025 0.7959
vn 0.0992 0.2519 0.9627
vn -0.9917 -0.0545 0.1165
vn 0.1230 -0.1371 0.9829
vn 0.1280 -0.5051 0.8535
vn 0.9917 0.0545 -0.1165
s off
f 2//1 3//1 1//1
f 4//2 5//2 3//2
f 6//3 7//3 5//3
f 8//4 9//4 7//4
f 10//5 11//5 9//5
f 12//6 13//6 11//6
f 14//7 15//7 13//7
f 16//8 17//8 15//8
f 18//9 19//9 17//9
f 20//10 21//10 19//10
f 22//11 23//11 21//11
f 24//12 25//12 23//12
f 26//13 27//13 25//13
f 28//14 29//14 27//14
f 22//15 14//15 6//15
f 30//16 31//16 29//16
f 32//17 1//17 31//17
f 31//18 7//18 15//18
f 2//1 4//1 3//1
f 4//2 6//2 5//2
f 6//3 8//3 7//3
f 8//4 10//4 9//4
f 10//5 12//5 11//5
f 12//6 14//6 13//6
f 14//7 16//7 15//7
f 16//8 18//8 17//8
f 18//9 20//9 19//9
f 20//10 22//10 21//10
f 22//11 24//11 23//11
f 24//12 26//12 25//12
f 26//13 28//13 27//13
f 28//14 30//14 29//14
f 6//15 4//15 2//15
f 2//15 32//15 30//15
f 30//15 28//15 26//15
f 26//15 24//15 22//15
f 22//15 20//15 18//15
f 18//15 16//15 14//15
f 14//15 12//15 6//15
f 12//15 10//15 6//15
f 10//15 8//15 6//15
f 6//15 2//15 22//15
f 2//15 30//15 22//15
f 30//15 26//15 22//15
f 22//15 18//15 14//15
f 30//16 32//16 31//16
f 32//17 2//17 1//17
f 31//18 1//18 3//18
f 3//18 5//18 7//18
f 7//18 9//18 11//18
f 11//18 13//18 15//18
f 15//18 17//18 19//18
f 19//18 21//18 23//18
f 23//18 25//18 27//18
f 27//18 29//18 31//18
f 31//18 3//18 7//18
f 7//18 11//18 15//18
f 15//18 19//18 31//18
f 19//18 23//18 31//18
f 23//18 27//18 31//18
