# Blender v2.83.0 OBJ File: ''
# www.blender.org
o Cylinder.098_Cylinder.1887
v -0.866627 -0.594689 0.082864
v 0.385567 0.212847 1.416991
v -0.765198 -1.007696 0.237653
v 0.486997 -0.200161 1.571780
v -0.800837 -1.378071 0.495288
v 0.451358 -0.570535 1.829415
v -0.968118 -1.649426 0.816545
v 0.284076 -0.841890 2.150672
v -1.241575 -1.780450 1.152516
v 0.010619 -0.972915 2.486643
v -1.579577 -1.751197 1.452053
v -0.327382 -0.943661 2.786180
v -1.930664 -1.566119 1.669553
v -0.678470 -0.758583 3.003680
v -2.241389 -1.253393 1.771905
v -0.989194 -0.445858 3.106032
v -2.464445 -0.860630 1.743526
v -1.212250 -0.053094 3.077653
v -2.565874 -0.447622 1.588736
v -1.313680 0.359913 2.922863
v -2.530235 -0.077248 1.331102
v -1.278041 0.730288 2.665229
v -2.362954 0.194107 1.009845
v -1.110759 1.001643 2.343972
v -2.089497 0.325132 0.673873
v -0.837302 1.132667 2.008000
v -1.751495 0.295878 0.374336
v -0.499301 1.103414 1.708464
v -1.400407 0.110800 0.156836
v -0.148213 0.918336 1.490963
v -1.089683 -0.201926 0.054484
v 0.162512 0.605610 1.388612
vn 0.7468 -0.0646 -0.6619
vn 0.7758 -0.4089 -0.4806
vn 0.6866 -0.6910 -0.2262
vn 0.4929 -0.8678 0.0627
vn 0.2241 -0.9126 0.3420
vn -0.0787 -0.8184 0.5693
vn -0.3696 -0.5996 0.7098
vn -0.6042 -0.2895 0.7424
vn -0.7468 0.0646 0.6619
vn -0.7758 0.4089 0.4806
vn -0.6866 0.6910 0.2262
vn -0.4929 0.8678 -0.0627
vn -0.2241 0.9126 -0.3420
vn 0.0787 0.8184 -0.5693
vn 0.6261 0.4038 0.6671
vn 0.3696 0.5996 -0.7098
vn 0.6042 0.2895 -0.7424
vn -0.6261 -0.4038 -0.6671
s off
f 2//1 3//1 1//1
f 4//2 5//2 3//2
f 6//3 7//3 5//3
f 8//4 9//4 7//4
f 10//5 11//5 9//5
f 12//6 13//6 11//6
f 14//7 15//7 13//7
f 16//8 17//8 15//8
f 18//9 19//9 17//9
f 20//10 21//10 19//10
f 22//11 23//11 21//11
f 24//12 25//12 23//12
f 26//13 27//13 25//13
f 28//14 29//14 27//14
f 22//15 14//15 6//15
f 30//16 31//16 29//16
f 32//17 1//17 31//17
f 15//18 23//18 31//18
f 2//1 4//1 3//1
f 4//2 6//2 5//2
f 6//3 8//3 7//3
f 8//4 10//4 9//4
f 10//5 12//5 11//5
f 12//6 14//6 13//6
f 14//7 16//7 15//7
f 16//8 18//8 17//8
f 18//9 20//9 19//9
f 20//10 22//10 21//10
f 22//11 24//11 23//11
f 24//12 26//12 25//12
f 26//13 28//13 27//13
f 28//14 30//14 29//14
f 6//15 4//15 2//15
f 2//15 32//15 30//15
f 30//15 28//15 22//15
f 28//15 26//15 22//15
f 26//15 24//15 22//15
f 22//15 20//15 18//15
f 18//15 16//15 14//15
f 14//15 12//15 10//15
f 10//15 8//15 6//15
f 6//15 2//15 30//15
f 22//15 18//15 14//15
f 14//15 10//15 6//15
f 6//15 30//15 22//15
f 30//16 32//16 31//16
f 32//17 2//17 1//17
f 31//18 1//18 3//18
f 3//18 5//18 7//18
f 7//18 9//18 11//18
f 11//18 13//18 7//18
f 13//18 15//18 7//18
f 15//18 17//18 19//18
f 19//18 21//18 15//18
f 21//18 23//18 15//18
f 23//18 25//18 27//18
f 27//18 29//18 31//18
f 31//18 3//18 15//18
f 3//18 7//18 15//18
f 23//18 27//18 31//18
