# Blender v2.83.0 OBJ File: ''
# www.blender.org
o Cylinder.075_Cylinder.1864
v 0.718594 1.408934 -0.044383
v -0.369643 0.667017 -1.549475
v 0.533295 1.053676 0.264715
v -0.554942 0.311760 -1.240376
v 0.508289 0.607736 0.502616
v -0.579948 -0.134181 -1.002476
v 0.647385 0.139002 0.633101
v -0.440853 -0.602914 -0.871990
v 0.929405 -0.281164 0.636306
v -0.158833 -1.023080 -0.868785
v 1.311414 -0.588796 0.511742
v 0.223177 -1.330713 -0.993349
v 1.735256 -0.737060 0.278374
v 0.647019 -1.478977 -1.226717
v 2.136404 -0.703384 -0.028271
v 1.048167 -1.445301 -1.533363
v 2.453787 -0.492895 -0.361509
v 1.365550 -1.234812 -1.866600
v 2.639087 -0.137638 -0.670607
v 1.550849 -0.879555 -2.175698
v 2.664092 0.308302 -0.908508
v 1.575855 -0.433614 -2.413599
v 2.524997 0.777036 -1.038993
v 1.436760 0.035119 -2.544085
v 2.242977 1.197202 -1.042198
v 1.154740 0.455286 -2.547290
v 1.860967 1.504835 -0.917635
v 0.772730 0.762918 -2.422726
v 1.437125 1.653099 -0.684266
v 0.348888 0.911182 -2.189357
v 1.035977 1.619423 -0.377621
v -0.052261 0.877506 -1.882712
vn -0.7549 0.6079 0.2461
vn -0.8376 0.2930 0.4612
vn -0.7927 -0.0665 0.6060
vn -0.6272 -0.4159 0.6585
vn -0.3662 -0.7020 0.6108
vn -0.0494 -0.8812 0.4701
vn 0.2749 -0.9263 0.2579
vn 0.5573 -0.8303 0.0063
vn 0.7549 -0.6079 -0.2461
vn 0.8376 -0.2930 -0.4612
vn 0.7927 0.0665 -0.6060
vn 0.6272 0.4159 -0.6585
vn 0.3662 0.7020 -0.6108
vn 0.0494 0.8812 -0.4701
vn -0.5441 -0.3710 -0.7525
vn -0.2749 0.9263 -0.2579
vn -0.5573 0.8303 -0.0063
vn 0.5441 0.3710 0.7525
s off
f 2//1 3//1 1//1
f 4//2 5//2 3//2
f 6//3 7//3 5//3
f 8//4 9//4 7//4
f 9//5 12//5 11//5
f 12//6 13//6 11//6
f 14//7 15//7 13//7
f 16//8 17//8 15//8
f 18//9 19//9 17//9
f 20//10 21//10 19//10
f 22//11 23//11 21//11
f 24//12 25//12 23//12
f 26//13 27//13 25//13
f 27//14 30//14 29//14
f 14//15 10//15 6//15
f 29//16 32//16 31//16
f 32//17 1//17 31//17
f 31//18 7//18 15//18
f 2//1 4//1 3//1
f 4//2 6//2 5//2
f 6//3 8//3 7//3
f 8//4 10//4 9//4
f 9//5 10//5 12//5
f 12//6 14//6 13//6
f 14//7 16//7 15//7
f 16//8 18//8 17//8
f 18//9 20//9 19//9
f 20//10 22//10 21//10
f 22//11 24//11 23//11
f 24//12 26//12 25//12
f 26//13 28//13 27//13
f 27//14 28//14 30//14
f 6//15 4//15 30//15
f 4//15 2//15 30//15
f 2//15 32//15 30//15
f 30//15 28//15 26//15
f 26//15 24//15 22//15
f 22//15 20//15 18//15
f 18//15 16//15 14//15
f 14//15 12//15 10//15
f 10//15 8//15 6//15
f 30//15 26//15 6//15
f 26//15 22//15 6//15
f 22//15 18//15 6//15
f 18//15 14//15 6//15
f 29//16 30//16 32//16
f 32//17 2//17 1//17
f 31//18 1//18 3//18
f 3//18 5//18 7//18
f 7//18 9//18 15//18
f 9//18 11//18 15//18
f 11//18 13//18 15//18
f 15//18 17//18 19//18
f 19//18 21//18 15//18
f 21//18 23//18 15//18
f 23//18 25//18 27//18
f 27//18 29//18 31//18
f 31//18 3//18 7//18
f 23//18 27//18 15//18
f 27//18 31//18 15//18
