# Blender v2.83.0 OBJ File: ''
# www.blender.org
o Cylinder.017_Cylinder.1806
v 0.499726 -1.878551 2.019274
v -1.489650 -1.874493 1.813438
v 0.532873 -2.311202 1.690382
v -1.456503 -2.307143 1.484547
v 0.580791 -2.584420 1.221864
v -1.408584 -2.580361 1.016029
v 0.636187 -2.656612 0.685046
v -1.353188 -2.652553 0.479211
v 0.690626 -2.516787 0.161654
v -1.298749 -2.512728 -0.044181
v 0.735821 -2.186231 -0.268630
v -1.253554 -2.182173 -0.474465
v 0.764891 -1.715270 -0.540300
v -1.224485 -1.711212 -0.746135
v 0.773410 -1.175603 -0.611996
v -1.215966 -1.171544 -0.817831
v 0.760082 -0.649388 -0.472803
v -1.229294 -0.645330 -0.678638
v 0.726935 -0.216738 -0.143912
v -1.262441 -0.212680 -0.349748
v 0.679016 0.056480 0.324606
v -1.310359 0.060539 0.118771
v 0.623620 0.128672 0.861424
v -1.365755 0.132731 0.655589
v 0.569181 -0.011153 1.384816
v -1.420194 -0.007095 1.178981
v 0.523986 -0.341709 1.815101
v -1.465389 -0.337650 1.609266
v 0.494917 -0.812670 2.086771
v -1.494459 -0.808612 1.880935
v 0.486397 -1.352338 2.158466
v -1.502978 -1.348279 1.952631
vn -0.0830 -0.6071 0.7903
vn -0.0534 -0.8650 0.4990
vn -0.0156 -0.9912 0.1317
vn 0.0245 -0.9665 -0.2556
vn 0.0609 -0.7946 -0.6040
vn 0.0880 -0.5018 -0.8605
vn 0.1017 -0.1326 -0.9859
vn 0.1000 0.2568 -0.9613
vn 0.0830 0.6071 -0.7903
vn 0.0534 0.8650 -0.4990
vn 0.0156 0.9912 -0.1317
vn -0.0245 0.9665 0.2556
vn -0.0609 0.7946 0.6041
vn -0.0880 0.5018 0.8605
vn -0.9947 0.0020 -0.1029
vn -0.1017 0.1326 0.9859
vn -0.1000 -0.2568 0.9613
vn 0.9947 -0.0020 0.1029
vn 0.0609 -0.7946 -0.6041
s off
f 2//1 3//1 1//1
f 4//2 5//2 3//2
f 6//3 7//3 5//3
f 8//4 9//4 7//4
f 10//5 11//5 9//5
f 12//6 13//6 11//6
f 14//7 15//7 13//7
f 16//8 17//8 15//8
f 18//9 19//9 17//9
f 20//10 21//10 19//10
f 22//11 23//11 21//11
f 24//12 25//12 23//12
f 25//13 28//13 27//13
f 28//14 29//14 27//14
f 22//15 14//15 6//15
f 30//16 31//16 29//16
f 32//17 1//17 31//17
f 15//18 23//18 31//18
f 2//1 4//1 3//1
f 4//2 6//2 5//2
f 6//3 8//3 7//3
f 8//4 10//4 9//4
f 10//19 12//19 11//19
f 12//6 14//6 13//6
f 14//7 16//7 15//7
f 16//8 18//8 17//8
f 18//9 20//9 19//9
f 20//10 22//10 21//10
f 22//11 24//11 23//11
f 24//12 26//12 25//12
f 25//13 26//13 28//13
f 28//14 30//14 29//14
f 6//15 4//15 2//15
f 2//15 32//15 30//15
f 30//15 28//15 22//15
f 28//15 26//15 22//15
f 26//15 24//15 22//15
f 22//15 20//15 18//15
f 18//15 16//15 14//15
f 14//15 12//15 10//15
f 10//15 8//15 14//15
f 8//15 6//15 14//15
f 6//15 2//15 30//15
f 22//15 18//15 14//15
f 6//15 30//15 22//15
f 30//16 32//16 31//16
f 32//17 2//17 1//17
f 31//18 1//18 3//18
f 3//18 5//18 31//18
f 5//18 7//18 31//18
f 7//18 9//18 11//18
f 11//18 13//18 7//18
f 13//18 15//18 7//18
f 15//18 17//18 23//18
f 17//18 19//18 23//18
f 19//18 21//18 23//18
f 23//18 25//18 27//18
f 27//18 29//18 31//18
f 23//18 27//18 31//18
f 31//18 7//18 15//18
