# Blender v2.83.0 OBJ File: ''
# www.blender.org
o Cylinder.002_Cylinder.1791
v 0.967875 -0.442044 -0.864825
v -1.025008 -0.280615 -0.816281
v 0.986282 -0.077836 -1.320348
v -1.006602 0.083593 -1.271804
v 1.020740 0.432177 -1.601747
v -0.972144 0.593607 -1.553203
v 1.066004 1.010352 -1.666182
v -0.926879 1.171782 -1.617638
v 1.115184 1.568666 -1.503843
v -0.877699 1.730096 -1.455299
v 1.160791 2.022121 -1.139445
v -0.832092 2.183551 -1.090901
v 1.195883 2.301682 -0.628465
v -0.797000 2.463112 -0.579921
v 1.215118 2.364789 -0.048694
v -0.777766 2.526219 -0.000150
v 1.215566 2.201835 0.511602
v -0.777317 2.363265 0.560146
v 1.197160 1.837627 0.967125
v -0.795723 1.999057 1.015669
v 1.162702 1.327613 1.248524
v -0.830182 1.489043 1.297068
v 1.117437 0.749438 1.312959
v -0.875446 0.910868 1.361503
v 1.068258 0.191124 1.150620
v -0.924626 0.352554 1.199164
v 1.022650 -0.262331 0.786223
v -0.970233 -0.100901 0.834767
v 0.987558 -0.541892 0.275242
v -1.005325 -0.380462 0.323786
v 0.968324 -0.604999 -0.304529
v -1.024560 -0.443569 -0.255985
vn -0.0782 -0.7771 -0.6245
vn -0.0601 -0.4791 -0.8757
vn -0.0330 -0.1082 -0.9936
vn -0.0008 0.2793 -0.9602
vn 0.0315 0.6242 -0.7807
vn 0.0591 0.8740 -0.4823
vn 0.0776 0.9909 -0.1104
vn 0.0843 0.9568 0.2782
vn 0.0782 0.7771 0.6245
vn 0.0601 0.4791 0.8757
vn 0.0330 0.1082 0.9936
vn 0.0008 -0.2793 0.9602
vn -0.0315 -0.6242 0.7807
vn -0.0591 -0.8740 0.4822
vn -0.9964 0.0807 0.0243
vn -0.0776 -0.9909 0.1104
vn -0.0843 -0.9568 -0.2782
vn 0.9964 -0.0807 -0.0243
vn 0.0591 0.8740 -0.4822
vn -0.0591 -0.8740 0.4823
s off
f 2//1 3//1 1//1
f 4//2 5//2 3//2
f 6//3 7//3 5//3
f 8//4 9//4 7//4
f 10//5 11//5 9//5
f 12//6 13//6 11//6
f 14//7 15//7 13//7
f 16//8 17//8 15//8
f 18//9 19//9 17//9
f 20//10 21//10 19//10
f 22//11 23//11 21//11
f 24//12 25//12 23//12
f 26//13 27//13 25//13
f 28//14 29//14 27//14
f 22//15 14//15 6//15
f 30//16 31//16 29//16
f 32//17 1//17 31//17
f 15//18 23//18 31//18
f 2//1 4//1 3//1
f 4//2 6//2 5//2
f 6//3 8//3 7//3
f 8//4 10//4 9//4
f 10//5 12//5 11//5
f 12//19 14//19 13//19
f 14//7 16//7 15//7
f 16//8 18//8 17//8
f 18//9 20//9 19//9
f 20//10 22//10 21//10
f 22//11 24//11 23//11
f 24//12 26//12 25//12
f 26//13 28//13 27//13
f 28//20 30//20 29//20
f 6//15 4//15 30//15
f 4//15 2//15 30//15
f 2//15 32//15 30//15
f 30//15 28//15 26//15
f 26//15 24//15 22//15
f 22//15 20//15 18//15
f 18//15 16//15 22//15
f 16//15 14//15 22//15
f 14//15 12//15 10//15
f 10//15 8//15 6//15
f 30//15 26//15 22//15
f 14//15 10//15 6//15
f 6//15 30//15 22//15
f 30//16 32//16 31//16
f 32//17 2//17 1//17
f 31//18 1//18 3//18
f 3//18 5//18 7//18
f 7//18 9//18 11//18
f 11//18 13//18 7//18
f 13//18 15//18 7//18
f 15//18 17//18 19//18
f 19//18 21//18 15//18
f 21//18 23//18 15//18
f 23//18 25//18 31//18
f 25//18 27//18 31//18
f 27//18 29//18 31//18
f 31//18 3//18 15//18
f 3//18 7//18 15//18
