# Blender v2.83.0 OBJ File: ''
# www.blender.org
o Cylinder.013_Cylinder.1802
v 0.640809 -2.489494 1.314613
v -0.148566 -2.545916 3.151377
v 0.282616 -3.092809 1.142141
v -0.506760 -3.149231 2.978905
v -0.262208 -3.498261 0.895540
v -1.051584 -3.554684 2.732305
v -0.910719 -3.644126 0.612353
v -1.700095 -3.700549 2.449117
v -1.564186 -3.508196 0.335691
v -2.353562 -3.564618 2.172456
v -2.123125 -3.111165 0.107675
v -2.912501 -3.167587 1.944440
v -2.502443 -2.513478 -0.036982
v -3.291819 -2.569900 1.799782
v -2.644391 -1.806126 -0.076257
v -3.433767 -1.862549 1.760507
v -2.527360 -1.096799 -0.004172
v -3.316736 -1.153222 1.832592
v -2.169167 -0.493485 0.168299
v -2.958543 -0.549907 2.005064
v -1.624343 -0.088032 0.414900
v -2.413719 -0.144454 2.251664
v -0.975832 0.057833 0.698088
v -1.765208 0.001411 2.534852
v -0.322365 -0.078097 0.974749
v -1.111741 -0.134520 2.811513
v 0.236574 -0.475128 1.202765
v -0.552802 -0.531551 3.039529
v 0.615892 -1.072816 1.347423
v -0.173484 -1.129239 3.184187
v 0.757840 -1.780167 1.386698
v -0.031536 -1.836590 3.223462
vn 0.7736 -0.5495 0.3156
vn 0.5250 -0.8272 0.2002
vn 0.1965 -0.9790 0.0544
vn -0.1620 -0.9817 -0.0998
vn -0.4958 -0.8350 -0.2387
vn -0.7541 -0.5612 -0.3413
vn -0.8976 -0.2019 -0.3919
vn -0.9044 0.1881 -0.3829
vn -0.7736 0.5495 -0.3156
vn -0.5250 0.8272 -0.2002
vn -0.1965 0.9790 -0.0544
vn 0.1620 0.9817 0.0998
vn 0.4958 0.8350 0.2387
vn 0.7541 0.5612 0.3413
vn -0.3947 -0.0282 0.9184
vn 0.8976 0.2019 0.3919
vn 0.9044 -0.1881 0.3829
vn 0.3947 0.0282 -0.9184
s off
f 2//1 3//1 1//1
f 4//2 5//2 3//2
f 6//3 7//3 5//3
f 8//4 9//4 7//4
f 10//5 11//5 9//5
f 12//6 13//6 11//6
f 14//7 15//7 13//7
f 16//8 17//8 15//8
f 18//9 19//9 17//9
f 20//10 21//10 19//10
f 22//11 23//11 21//11
f 24//12 25//12 23//12
f 26//13 27//13 25//13
f 28//14 29//14 27//14
f 30//15 22//15 14//15
f 30//16 31//16 29//16
f 32//17 1//17 31//17
f 15//18 23//18 31//18
f 2//1 4//1 3//1
f 4//2 6//2 5//2
f 6//3 8//3 7//3
f 8//4 10//4 9//4
f 10//5 12//5 11//5
f 12//6 14//6 13//6
f 14//7 16//7 15//7
f 16//8 18//8 17//8
f 18//9 20//9 19//9
f 20//10 22//10 21//10
f 22//11 24//11 23//11
f 24//12 26//12 25//12
f 26//13 28//13 27//13
f 28//14 30//14 29//14
f 6//15 4//15 2//15
f 2//15 32//15 30//15
f 30//15 28//15 26//15
f 26//15 24//15 22//15
f 22//15 20//15 18//15
f 18//15 16//15 14//15
f 14//15 12//15 10//15
f 10//15 8//15 6//15
f 6//15 2//15 30//15
f 30//15 26//15 22//15
f 22//15 18//15 14//15
f 14//15 10//15 6//15
f 6//15 30//15 14//15
f 30//16 32//16 31//16
f 32//17 2//17 1//17
f 31//18 1//18 3//18
f 3//18 5//18 7//18
f 7//18 9//18 11//18
f 11//18 13//18 7//18
f 13//18 15//18 7//18
f 15//18 17//18 19//18
f 19//18 21//18 23//18
f 23//18 25//18 27//18
f 27//18 29//18 23//18
f 29//18 31//18 23//18
f 31//18 3//18 7//18
f 15//18 19//18 23//18
f 31//18 7//18 15//18
