# Blender v2.83.0 OBJ File: ''
# www.blender.org
o Cylinder.021_Cylinder.1810
v -2.448950 0.622033 0.756331
v -2.290496 0.888214 2.732195
v -2.446972 1.264279 0.669651
v -2.288518 1.530460 2.645516
v -2.197920 1.854262 0.570198
v -2.039466 2.120442 2.546063
v -1.739708 2.302161 0.473113
v -1.581254 2.568342 2.448977
v -1.142096 2.539788 0.393175
v -0.983642 2.805969 2.369040
v -0.496064 2.530967 0.342555
v -0.337610 2.797148 2.318419
v 0.100035 2.277041 0.328959
v 0.258489 2.543222 2.304823
v 0.555450 1.816667 0.354457
v 0.713904 2.082848 2.330321
v 0.800849 1.219933 0.415167
v 0.959303 1.486114 2.391031
v 0.798872 0.577687 0.501846
v 0.957326 0.843868 2.477711
v 0.549819 -0.012295 0.601299
v 0.708273 0.253886 2.577163
v 0.091607 -0.460195 0.698385
v 0.250061 -0.194014 2.674249
v -0.506005 -0.697822 0.778322
v -0.347551 -0.431641 2.754187
v -1.152038 -0.689001 0.828942
v -0.993583 -0.422820 2.804807
v -1.748136 -0.435074 0.842539
v -1.589682 -0.168894 2.818403
v -2.203552 0.025300 0.817041
v -2.045098 0.291481 2.792905
vn -0.9969 0.0136 0.0781
vn -0.9198 0.3918 0.0210
vn -0.7027 0.7104 -0.0393
vn -0.3787 0.9208 -0.0937
vn 0.0031 0.9910 -0.1337
vn 0.3843 0.9104 -0.1535
vn 0.7070 0.6911 -0.1498
vn 0.9221 0.3667 -0.1233
vn 0.9969 -0.0136 -0.0781
vn 0.9198 -0.3918 -0.0210
vn 0.7027 -0.7104 0.0393
vn 0.3787 -0.9208 0.0937
vn -0.0031 -0.9910 0.1337
vn -0.3843 -0.9104 0.1535
vn 0.0792 0.1331 0.9879
vn -0.7070 -0.6911 0.1498
vn -0.9221 -0.3667 0.1233
vn -0.0792 -0.1331 -0.9879
s off
f 2//1 3//1 1//1
f 4//2 5//2 3//2
f 6//3 7//3 5//3
f 8//4 9//4 7//4
f 10//5 11//5 9//5
f 12//6 13//6 11//6
f 14//7 15//7 13//7
f 16//8 17//8 15//8
f 18//9 19//9 17//9
f 20//10 21//10 19//10
f 22//11 23//11 21//11
f 24//12 25//12 23//12
f 26//13 27//13 25//13
f 28//14 29//14 27//14
f 22//15 14//15 6//15
f 30//16 31//16 29//16
f 32//17 1//17 31//17
f 15//18 23//18 31//18
f 2//1 4//1 3//1
f 4//2 6//2 5//2
f 6//3 8//3 7//3
f 8//4 10//4 9//4
f 10//5 12//5 11//5
f 12//6 14//6 13//6
f 14//7 16//7 15//7
f 16//8 18//8 17//8
f 18//9 20//9 19//9
f 20//10 22//10 21//10
f 22//11 24//11 23//11
f 24//12 26//12 25//12
f 26//13 28//13 27//13
f 28//14 30//14 29//14
f 6//15 4//15 30//15
f 4//15 2//15 30//15
f 2//15 32//15 30//15
f 30//15 28//15 26//15
f 26//15 24//15 22//15
f 22//15 20//15 14//15
f 20//15 18//15 14//15
f 18//15 16//15 14//15
f 14//15 12//15 10//15
f 10//15 8//15 14//15
f 8//15 6//15 14//15
f 30//15 26//15 22//15
f 6//15 30//15 22//15
f 30//16 32//16 31//16
f 32//17 2//17 1//17
f 31//18 1//18 7//18
f 1//18 3//18 7//18
f 3//18 5//18 7//18
f 7//18 9//18 11//18
f 11//18 13//18 7//18
f 13//18 15//18 7//18
f 15//18 17//18 19//18
f 19//18 21//18 15//18
f 21//18 23//18 15//18
f 23//18 25//18 27//18
f 27//18 29//18 23//18
f 29//18 31//18 23//18
f 31//18 7//18 15//18
