# Blender v2.83.0 OBJ File: ''
# www.blender.org
o Cylinder.057_Cylinder.1846
v -1.793564 -1.326610 1.281403
v -0.122471 -0.838729 0.296811
v -1.893546 -0.900239 1.322983
v -0.222453 -0.412358 0.338392
v -2.070124 -0.511864 1.215733
v -0.399031 -0.023983 0.231142
v -2.296416 -0.220611 0.975980
v -0.625323 0.267270 -0.008611
v -2.537971 -0.070822 0.640225
v -0.866879 0.417059 -0.344367
v -2.758015 -0.085300 0.259582
v -1.086923 0.402581 -0.725009
v -2.923048 -0.261841 -0.107998
v -1.251955 0.226040 -1.092589
v -3.007945 -0.573568 -0.406554
v -1.336852 -0.085687 -1.391146
v -2.999781 -0.973024 -0.590635
v -1.328689 -0.485143 -1.575227
v -2.899800 -1.399395 -0.632216
v -1.228707 -0.911514 -1.616807
v -2.723222 -1.787770 -0.524966
v -1.052129 -1.299889 -1.509558
v -2.496929 -2.079023 -0.285213
v -0.825837 -1.591142 -1.269805
v -2.255374 -2.228812 0.050543
v -0.584281 -1.740931 -0.934049
v -2.035330 -2.214334 0.431185
v -0.364237 -1.726453 -0.553406
v -1.870297 -2.037793 0.798765
v -0.199204 -1.549912 -0.185826
v -1.785400 -1.726065 1.097322
v -0.114308 -1.238184 0.112730
vn 0.5002 0.0329 0.8653
vn 0.3752 0.4013 0.8356
vn 0.1930 0.7086 0.6787
vn -0.0186 0.9080 0.4185
vn -0.2273 0.9692 0.0945
vn -0.4014 0.8829 -0.2438
vn -0.5144 0.6621 -0.5450
vn -0.5491 0.3405 -0.7632
vn -0.5002 -0.0329 -0.8653
vn -0.3752 -0.4013 -0.8356
vn -0.1930 -0.7086 -0.6787
vn 0.0186 -0.9080 -0.4185
vn 0.2273 -0.9692 -0.0945
vn 0.4014 -0.8829 0.2438
vn 0.8355 0.2439 -0.4923
vn 0.5144 -0.6621 0.5450
vn 0.5491 -0.3405 0.7632
vn -0.8355 -0.2439 0.4923
s off
f 2//1 3//1 1//1
f 4//2 5//2 3//2
f 6//3 7//3 5//3
f 8//4 9//4 7//4
f 10//5 11//5 9//5
f 12//6 13//6 11//6
f 14//7 15//7 13//7
f 16//8 17//8 15//8
f 18//9 19//9 17//9
f 20//10 21//10 19//10
f 22//11 23//11 21//11
f 24//12 25//12 23//12
f 26//13 27//13 25//13
f 28//14 29//14 27//14
f 22//15 14//15 6//15
f 30//16 31//16 29//16
f 32//17 1//17 31//17
f 7//18 15//18 23//18
f 2//1 4//1 3//1
f 4//2 6//2 5//2
f 6//3 8//3 7//3
f 8//4 10//4 9//4
f 10//5 12//5 11//5
f 12//6 14//6 13//6
f 14//7 16//7 15//7
f 16//8 18//8 17//8
f 18//9 20//9 19//9
f 20//10 22//10 21//10
f 22//11 24//11 23//11
f 24//12 26//12 25//12
f 26//13 28//13 27//13
f 28//14 30//14 29//14
f 6//15 4//15 2//15
f 2//15 32//15 6//15
f 32//15 30//15 6//15
f 30//15 28//15 26//15
f 26//15 24//15 22//15
f 22//15 20//15 18//15
f 18//15 16//15 14//15
f 14//15 12//15 10//15
f 10//15 8//15 14//15
f 8//15 6//15 14//15
f 30//15 26//15 22//15
f 22//15 18//15 14//15
f 6//15 30//15 22//15
f 30//16 32//16 31//16
f 32//17 2//17 1//17
f 31//18 1//18 3//18
f 3//18 5//18 7//18
f 7//18 9//18 11//18
f 11//18 13//18 15//18
f 15//18 17//18 23//18
f 17//18 19//18 23//18
f 19//18 21//18 23//18
f 23//18 25//18 27//18
f 27//18 29//18 23//18
f 29//18 31//18 23//18
f 31//18 3//18 7//18
f 7//18 11//18 15//18
f 31//18 7//18 23//18
