# Blender v2.83.0 OBJ File: ''
# www.blender.org
o Cylinder.069_Cylinder.1858
v 1.477463 -1.974928 0.482172
v 0.323362 -1.703772 -1.128581
v 1.540989 -2.408905 0.363599
v 0.386887 -2.137748 -1.247153
v 1.739584 -2.764085 0.161515
v 0.585482 -2.492928 -1.449238
v 2.043015 -2.986394 -0.093317
v 0.888913 -2.715237 -1.704069
v 2.405087 -3.041989 -0.362100
v 1.250985 -2.770832 -1.972852
v 2.770677 -2.922405 -0.603914
v 1.616575 -2.651248 -2.214666
v 3.084128 -2.645848 -0.781945
v 1.930027 -2.374691 -2.392698
v 3.297721 -2.254421 -0.869090
v 2.143619 -1.983264 -2.479843
v 3.378936 -1.807716 -0.852082
v 2.224835 -1.536559 -2.462834
v 3.315411 -1.373739 -0.733510
v 2.161309 -1.102582 -2.344262
v 3.116816 -1.018559 -0.531425
v 1.962714 -0.747403 -2.142178
v 2.813385 -0.796250 -0.276594
v 1.659283 -0.525093 -1.887346
v 2.451313 -0.740655 -0.007811
v 1.297212 -0.469499 -1.618563
v 2.085723 -0.860240 0.234003
v 0.931621 -0.589083 -1.376749
v 1.772271 -1.136797 0.412035
v 0.618170 -0.865640 -1.198717
v 1.558679 -1.528224 0.499180
v 0.404577 -1.257067 -1.111572
vn -0.8047 -0.2632 0.5322
vn -0.6899 -0.6087 0.3918
vn -0.4701 -0.8615 0.1918
vn -0.1788 -0.9832 -0.0374
vn 0.1398 -0.9552 -0.2610
vn 0.4371 -0.7817 -0.4448
vn 0.6678 -0.4893 -0.5609
vn 0.7969 -0.1224 -0.5916
vn 0.8047 0.2632 -0.5322
vn 0.6899 0.6087 -0.3918
vn 0.4701 0.8615 -0.1918
vn 0.1788 0.9832 0.0374
vn -0.1398 0.9552 0.2610
vn -0.4371 0.7817 0.4448
vn -0.5771 0.1356 -0.8054
vn -0.6678 0.4893 0.5609
vn -0.7969 0.1224 0.5916
vn 0.5771 -0.1356 0.8054
vn -0.5770 0.1356 -0.8054
vn 0.5770 -0.1356 0.8054
s off
f 2//1 3//1 1//1
f 4//2 5//2 3//2
f 6//3 7//3 5//3
f 8//4 9//4 7//4
f 10//5 11//5 9//5
f 12//6 13//6 11//6
f 14//7 15//7 13//7
f 16//8 17//8 15//8
f 18//9 19//9 17//9
f 20//10 21//10 19//10
f 22//11 23//11 21//11
f 24//12 25//12 23//12
f 26//13 27//13 25//13
f 28//14 29//14 27//14
f 30//15 22//15 14//15
f 30//16 31//16 29//16
f 32//17 1//17 31//17
f 23//18 27//18 31//18
f 2//1 4//1 3//1
f 4//2 6//2 5//2
f 6//3 8//3 7//3
f 8//4 10//4 9//4
f 10//5 12//5 11//5
f 12//6 14//6 13//6
f 14//7 16//7 15//7
f 16//8 18//8 17//8
f 18//9 20//9 19//9
f 20//10 22//10 21//10
f 22//11 24//11 23//11
f 24//12 26//12 25//12
f 26//13 28//13 27//13
f 28//14 30//14 29//14
f 6//15 4//15 2//15
f 2//15 32//15 30//15
f 30//15 28//15 26//15
f 26//15 24//15 30//15
f 24//15 22//15 30//15
f 22//15 20//15 14//15
f 20//15 18//15 14//15
f 18//15 16//15 14//15
f 14//19 12//19 10//19
f 10//15 8//15 14//15
f 8//15 6//15 14//15
f 6//15 2//15 30//15
f 6//15 30//15 14//15
f 30//16 32//16 31//16
f 32//17 2//17 1//17
f 31//18 1//18 3//18
f 3//18 5//18 7//18
f 7//18 9//18 11//18
f 11//20 13//20 7//20
f 13//18 15//18 7//18
f 15//18 17//18 19//18
f 19//18 21//18 23//18
f 23//18 25//18 27//18
f 27//18 29//18 31//18
f 31//18 3//18 15//18
f 3//18 7//18 15//18
f 15//18 19//18 31//18
f 19//18 23//18 31//18
