# Blender v2.83.0 OBJ File: ''
# www.blender.org
o Cylinder.056_Cylinder.1845
v 3.635854 -1.074807 -1.594332
v 2.439451 -0.257050 -2.972697
v 3.680522 -0.545607 -1.319139
v 2.484118 0.272150 -2.697504
v 3.539159 -0.107907 -0.936759
v 2.342755 0.709850 -2.315125
v 3.233287 0.171657 -0.505406
v 2.036883 0.989414 -1.883772
v 2.809471 0.250524 -0.090750
v 1.613068 1.068281 -1.469115
v 2.332235 0.116687 0.244082
v 1.135832 0.934444 -1.134283
v 1.874233 -0.209479 0.448115
v 0.677830 0.608279 -0.930251
v 1.505192 -0.678316 0.490286
v 0.308788 0.139441 -0.888080
v 1.281294 -1.218450 0.364175
v 0.084890 -0.400693 -1.014190
v 1.236626 -1.747650 0.088982
v 0.040223 -0.929893 -1.289384
v 1.377989 -2.185350 -0.293398
v 0.181586 -1.367593 -1.671763
v 1.683861 -2.464914 -0.724751
v 0.487458 -1.647157 -2.103116
v 2.107677 -2.543781 -1.139407
v 0.911273 -1.726023 -2.517773
v 2.584913 -2.409944 -1.474239
v 1.388510 -1.592186 -2.852605
v 3.042915 -2.083778 -1.678272
v 1.846512 -1.266021 -3.056637
v 3.411957 -1.614940 -1.720443
v 2.215554 -0.797183 -3.098808
vn 0.7979 0.2238 -0.5598
vn 0.7657 0.5453 -0.3411
vn 0.6170 0.7838 -0.0705
vn 0.3743 0.9030 0.2108
vn 0.0747 0.8847 0.4601
vn -0.2363 0.7318 0.6393
vn -0.5114 0.4674 0.7211
vn -0.7085 0.1319 0.6932
vn -0.7979 -0.2238 0.5598
vn -0.7657 -0.5453 0.3411
vn -0.6170 -0.7838 0.0705
vn -0.3743 -0.9030 -0.2108
vn -0.0747 -0.8847 -0.4601
vn 0.2363 -0.7318 -0.6393
vn -0.5982 0.4089 -0.6892
vn 0.5114 -0.4674 -0.7211
vn 0.7085 -0.1319 -0.6932
vn 0.5982 -0.4089 0.6892
s off
f 2//1 3//1 1//1
f 4//2 5//2 3//2
f 6//3 7//3 5//3
f 8//4 9//4 7//4
f 10//5 11//5 9//5
f 12//6 13//6 11//6
f 14//7 15//7 13//7
f 16//8 17//8 15//8
f 18//9 19//9 17//9
f 20//10 21//10 19//10
f 22//11 23//11 21//11
f 24//12 25//12 23//12
f 26//13 27//13 25//13
f 28//14 29//14 27//14
f 30//15 22//15 14//15
f 30//16 31//16 29//16
f 32//17 1//17 31//17
f 27//18 31//18 15//18
f 2//1 4//1 3//1
f 4//2 6//2 5//2
f 6//3 8//3 7//3
f 8//4 10//4 9//4
f 10//5 12//5 11//5
f 12//6 14//6 13//6
f 14//7 16//7 15//7
f 16//8 18//8 17//8
f 18//9 20//9 19//9
f 20//10 22//10 21//10
f 22//11 24//11 23//11
f 24//12 26//12 25//12
f 26//13 28//13 27//13
f 28//14 30//14 29//14
f 6//15 4//15 2//15
f 2//15 32//15 30//15
f 30//15 28//15 26//15
f 26//15 24//15 22//15
f 22//15 20//15 14//15
f 20//15 18//15 14//15
f 18//15 16//15 14//15
f 14//15 12//15 10//15
f 10//15 8//15 6//15
f 6//15 2//15 30//15
f 30//15 26//15 22//15
f 14//15 10//15 6//15
f 6//15 30//15 14//15
f 30//16 32//16 31//16
f 32//17 2//17 1//17
f 31//18 1//18 3//18
f 3//18 5//18 31//18
f 5//18 7//18 31//18
f 7//18 9//18 11//18
f 11//18 13//18 15//18
f 15//18 17//18 19//18
f 19//18 21//18 23//18
f 23//18 25//18 27//18
f 27//18 29//18 31//18
f 7//18 11//18 31//18
f 11//18 15//18 31//18
f 15//18 19//18 23//18
f 23//18 27//18 15//18
