# Blender v2.83.0 OBJ File: ''
# www.blender.org
o Cylinder.008_Cylinder.1797
v -1.378334 -0.901136 0.627253
v -0.006220 -1.439618 -0.724539
v -1.114135 -0.756302 0.837729
v 0.257978 -1.294784 -0.514063
v -0.885824 -0.498898 0.966937
v 0.486290 -1.037380 -0.384855
v -0.728157 -0.168111 0.995206
v 0.643957 -0.706594 -0.356586
v -0.665138 0.185699 0.918232
v 0.706975 -0.352783 -0.433560
v -0.706362 0.508668 0.747735
v 0.665751 -0.029814 -0.604057
v -0.845553 0.751627 0.509670
v 0.526561 0.213144 -0.842122
v -1.061519 0.877587 0.240281
v 0.310595 0.339105 -1.111511
v -1.321382 0.867373 -0.019420
v 0.050731 0.328891 -1.371212
v -1.585581 0.722539 -0.229896
v -0.213467 0.184057 -1.581688
v -1.813892 0.465135 -0.359104
v -0.441779 -0.073348 -1.710896
v -1.971559 0.134348 -0.387373
v -0.599446 -0.404134 -1.739164
v -2.034578 -0.219462 -0.310399
v -0.662464 -0.757945 -1.662191
v -1.993354 -0.542431 -0.139901
v -0.621240 -1.080914 -1.491693
v -1.854163 -0.785390 0.098164
v -0.482050 -1.323873 -1.253628
v -1.638197 -0.911350 0.367553
v -0.266083 -1.449833 -0.984239
vn 0.1122 -0.8788 0.4639
vn 0.3787 -0.6611 0.6477
vn 0.5876 -0.3427 0.7330
vn 0.7071 0.0278 0.7066
vn 0.7188 0.3941 0.5727
vn 0.6212 0.7004 0.3516
vn 0.4290 0.9000 0.0769
vn 0.1715 0.9627 -0.2094
vn -0.1122 0.8788 -0.4639
vn -0.3787 0.6611 -0.6477
vn -0.5876 0.3427 -0.7330
vn -0.7071 -0.0278 -0.7066
vn -0.7188 -0.3941 -0.5727
vn -0.6212 -0.7004 -0.3516
vn 0.6861 -0.2692 -0.6759
vn -0.4290 -0.9000 -0.0769
vn -0.1715 -0.9627 0.2094
vn -0.6861 0.2692 0.6759
s off
f 2//1 3//1 1//1
f 4//2 5//2 3//2
f 6//3 7//3 5//3
f 8//4 9//4 7//4
f 10//5 11//5 9//5
f 12//6 13//6 11//6
f 14//7 15//7 13//7
f 16//8 17//8 15//8
f 18//9 19//9 17//9
f 20//10 21//10 19//10
f 22//11 23//11 21//11
f 24//12 25//12 23//12
f 26//13 27//13 25//13
f 28//14 29//14 27//14
f 30//15 22//15 14//15
f 30//16 31//16 29//16
f 32//17 1//17 31//17
f 7//18 15//18 23//18
f 2//1 4//1 3//1
f 4//2 6//2 5//2
f 6//3 8//3 7//3
f 8//4 10//4 9//4
f 10//5 12//5 11//5
f 12//6 14//6 13//6
f 14//7 16//7 15//7
f 16//8 18//8 17//8
f 18//9 20//9 19//9
f 20//10 22//10 21//10
f 22//11 24//11 23//11
f 24//12 26//12 25//12
f 26//13 28//13 27//13
f 28//14 30//14 29//14
f 6//15 4//15 2//15
f 2//15 32//15 30//15
f 30//15 28//15 26//15
f 26//15 24//15 22//15
f 22//15 20//15 18//15
f 18//15 16//15 14//15
f 14//15 12//15 10//15
f 10//15 8//15 14//15
f 8//15 6//15 14//15
f 6//15 2//15 30//15
f 30//15 26//15 22//15
f 22//15 18//15 14//15
f 6//15 30//15 14//15
f 30//16 32//16 31//16
f 32//17 2//17 1//17
f 31//18 1//18 7//18
f 1//18 3//18 7//18
f 3//18 5//18 7//18
f 7//18 9//18 11//18
f 11//18 13//18 7//18
f 13//18 15//18 7//18
f 15//18 17//18 19//18
f 19//18 21//18 23//18
f 23//18 25//18 27//18
f 27//18 29//18 31//18
f 15//18 19//18 23//18
f 23//18 27//18 31//18
f 31//18 7//18 23//18
