# Blender v2.83.0 OBJ File: ''
# www.blender.org
o Cylinder.034_Cylinder.1823
v -0.175454 -1.827388 -0.467157
v 1.656542 -1.769073 -1.267401
v -0.128337 -2.213327 -0.387416
v 1.703659 -2.155012 -1.187660
v -0.026602 -2.534722 -0.177934
v 1.805394 -2.476407 -0.978178
v 0.114264 -2.742643 0.129398
v 1.946260 -2.684328 -0.670846
v 0.272815 -2.805436 0.487792
v 2.104811 -2.747121 -0.312452
v 0.424912 -2.713542 0.842685
v 2.256908 -2.655227 0.042441
v 0.547401 -2.480950 1.140048
v 2.379397 -2.422635 0.339804
v 0.621634 -2.143071 1.334611
v 2.453630 -2.084756 0.534367
v 0.636309 -1.751343 1.396752
v 2.468305 -1.693028 0.596508
v 0.589193 -1.365404 1.317012
v 2.421189 -1.307089 0.516768
v 0.487457 -1.044009 1.107530
v 2.319453 -0.985694 0.307286
v 0.346591 -0.836088 0.800198
v 2.178587 -0.777773 -0.000046
v 0.188041 -0.773295 0.441804
v 2.020036 -0.714980 -0.358440
v 0.035943 -0.865189 0.086910
v 1.867939 -0.806874 -0.713334
v -0.086546 -1.097781 -0.210453
v 1.745450 -1.039466 -1.010697
v -0.160779 -1.435661 -0.405015
v 1.671217 -1.377346 -1.205259
vn -0.3832 -0.2315 -0.8942
vn -0.3086 -0.5860 -0.7492
vn -0.1870 -0.8513 -0.4902
vn -0.0370 -0.9870 -0.1566
vn 0.1187 -0.9724 0.2009
vn 0.2563 -0.8098 0.5278
vn 0.3549 -0.5239 0.7743
vn 0.3995 -0.1582 0.9030
vn 0.3832 0.2315 0.8942
vn 0.3086 0.5860 0.7492
vn 0.1870 0.8513 0.4902
vn 0.0370 0.9870 0.1566
vn -0.1187 0.9724 -0.2009
vn -0.2563 0.8098 -0.5278
vn 0.9160 0.0292 -0.4001
vn -0.3549 0.5239 -0.7743
vn -0.3995 0.1582 -0.9030
vn -0.9160 -0.0292 0.4001
s off
f 2//1 3//1 1//1
f 4//2 5//2 3//2
f 6//3 7//3 5//3
f 8//4 9//4 7//4
f 10//5 11//5 9//5
f 12//6 13//6 11//6
f 14//7 15//7 13//7
f 16//8 17//8 15//8
f 18//9 19//9 17//9
f 20//10 21//10 19//10
f 22//11 23//11 21//11
f 24//12 25//12 23//12
f 26//13 27//13 25//13
f 28//14 29//14 27//14
f 22//15 14//15 6//15
f 30//16 31//16 29//16
f 32//17 1//17 31//17
f 15//18 23//18 31//18
f 2//1 4//1 3//1
f 4//2 6//2 5//2
f 6//3 8//3 7//3
f 8//4 10//4 9//4
f 10//5 12//5 11//5
f 12//6 14//6 13//6
f 14//7 16//7 15//7
f 16//8 18//8 17//8
f 18//9 20//9 19//9
f 20//10 22//10 21//10
f 22//11 24//11 23//11
f 24//12 26//12 25//12
f 26//13 28//13 27//13
f 28//14 30//14 29//14
f 6//15 4//15 2//15
f 2//15 32//15 30//15
f 30//15 28//15 26//15
f 26//15 24//15 22//15
f 22//15 20//15 14//15
f 20//15 18//15 14//15
f 18//15 16//15 14//15
f 14//15 12//15 10//15
f 10//15 8//15 6//15
f 6//15 2//15 22//15
f 2//15 30//15 22//15
f 30//15 26//15 22//15
f 14//15 10//15 6//15
f 30//16 32//16 31//16
f 32//17 2//17 1//17
f 31//18 1//18 3//18
f 3//18 5//18 7//18
f 7//18 9//18 11//18
f 11//18 13//18 7//18
f 13//18 15//18 7//18
f 15//18 17//18 19//18
f 19//18 21//18 15//18
f 21//18 23//18 15//18
f 23//18 25//18 27//18
f 27//18 29//18 31//18
f 31//18 3//18 7//18
f 23//18 27//18 31//18
f 31//18 7//18 15//18
