# Blender v2.83.0 OBJ File: ''
# www.blender.org
o Cylinder.001_Cylinder.1790
v -0.367463 0.257501 -2.885036
v 0.144943 0.855824 -1.046707
v 0.002028 0.337048 -3.013916
v 0.514434 0.935371 -1.175587
v 0.386129 0.267935 -3.098484
v 0.898535 0.866258 -1.260156
v 0.726363 0.060685 -3.125865
v 1.238769 0.659008 -1.287537
v 0.970933 -0.253150 -3.091891
v 1.483339 0.345173 -1.253563
v 1.082606 -0.625793 -3.001733
v 1.595012 -0.027470 -1.163405
v 1.044380 -1.000511 -2.869118
v 1.556786 -0.402188 -1.030790
v 0.862075 -1.320257 -2.714236
v 1.374481 -0.721934 -0.875907
v 0.563445 -1.536353 -2.560664
v 1.075851 -0.938030 -0.722336
v 0.193954 -1.615900 -2.431784
v 0.706359 -1.017577 -0.593456
v -0.190147 -1.546788 -2.347216
v 0.322259 -0.948465 -0.508887
v -0.530382 -1.339538 -2.319834
v -0.017976 -0.741215 -0.481506
v -0.774952 -1.025702 -2.353808
v -0.262546 -0.427379 -0.515480
v -0.886625 -0.653059 -2.443966
v -0.374219 -0.054737 -0.605638
v -0.848399 -0.278341 -2.576581
v -0.335993 0.319982 -0.738253
v -0.666093 0.041405 -2.731464
v -0.153687 0.639728 -0.893136
vn -0.2797 0.9332 -0.2258
vn 0.0957 0.9384 -0.3321
vn 0.4565 0.8007 -0.3879
vn 0.7478 0.5412 -0.3846
vn 0.9253 0.1992 -0.3227
vn 0.9619 -0.1731 -0.2118
vn 0.8520 -0.5190 -0.0686
vn 0.6125 -0.7859 0.0851
vn 0.2797 -0.9332 0.2258
vn -0.0957 -0.9384 0.3321
vn -0.4565 -0.8007 0.3879
vn -0.7478 -0.5412 0.3846
vn -0.9253 -0.1992 0.3227
vn -0.9619 0.1731 0.2118
vn 0.2562 0.2992 0.9192
vn -0.8520 0.5190 0.0686
vn -0.6125 0.7859 -0.0851
vn -0.2562 -0.2992 -0.9192
s off
f 2//1 3//1 1//1
f 4//2 5//2 3//2
f 6//3 7//3 5//3
f 8//4 9//4 7//4
f 10//5 11//5 9//5
f 12//6 13//6 11//6
f 14//7 15//7 13//7
f 16//8 17//8 15//8
f 18//9 19//9 17//9
f 20//10 21//10 19//10
f 22//11 23//11 21//11
f 24//12 25//12 23//12
f 26//13 27//13 25//13
f 28//14 29//14 27//14
f 22//15 14//15 6//15
f 30//16 31//16 29//16
f 32//17 1//17 31//17
f 7//18 15//18 23//18
f 2//1 4//1 3//1
f 4//2 6//2 5//2
f 6//3 8//3 7//3
f 8//4 10//4 9//4
f 10//5 12//5 11//5
f 12//6 14//6 13//6
f 14//7 16//7 15//7
f 16//8 18//8 17//8
f 18//9 20//9 19//9
f 20//10 22//10 21//10
f 22//11 24//11 23//11
f 24//12 26//12 25//12
f 26//13 28//13 27//13
f 28//14 30//14 29//14
f 6//15 4//15 30//15
f 4//15 2//15 30//15
f 2//15 32//15 30//15
f 30//15 28//15 26//15
f 26//15 24//15 22//15
f 22//15 20//15 18//15
f 18//15 16//15 14//15
f 14//15 12//15 10//15
f 10//15 8//15 6//15
f 30//15 26//15 6//15
f 26//15 22//15 6//15
f 22//15 18//15 14//15
f 14//15 10//15 6//15
f 30//16 32//16 31//16
f 32//17 2//17 1//17
f 31//18 1//18 3//18
f 3//18 5//18 31//18
f 5//18 7//18 31//18
f 7//18 9//18 15//18
f 9//18 11//18 15//18
f 11//18 13//18 15//18
f 15//18 17//18 23//18
f 17//18 19//18 23//18
f 19//18 21//18 23//18
f 23//18 25//18 27//18
f 27//18 29//18 23//18
f 29//18 31//18 23//18
f 31//18 7//18 23//18
