# Blender v2.83.0 OBJ File: ''
# www.blender.org
o Cylinder.010_Cylinder.1799
v 1.947865 3.026303 -1.991761
v 0.501252 3.124284 -0.614188
v 2.239387 2.689391 -1.661665
v 0.792773 2.787372 -0.284092
v 2.413724 2.209913 -1.444488
v 0.967110 2.307895 -0.066915
v 2.444334 1.660867 -1.373292
v 0.997721 1.758848 0.004281
v 2.326558 1.125839 -1.458917
v 0.879944 1.223820 -0.081343
v 2.078326 0.686282 -1.688326
v 0.631712 0.784263 -0.310753
v 1.737429 0.409116 -2.026594
v 0.290815 0.507097 -0.649021
v 1.355765 0.336535 -2.422224
v -0.090849 0.434516 -1.044651
v 0.991440 0.479590 -2.814983
v -0.455174 0.577572 -1.437410
v 0.699918 0.816503 -3.145079
v -0.746696 0.914484 -1.767505
v 0.525581 1.295980 -3.362256
v -0.921033 1.393961 -1.984683
v 0.494970 1.845026 -3.433452
v -0.951643 1.943008 -2.055879
v 0.612747 2.380055 -3.347827
v -0.833867 2.478036 -1.970254
v 0.860979 2.819612 -3.118418
v -0.585635 2.917593 -1.740845
v 1.201877 3.096778 -2.780149
v -0.244737 3.194759 -1.402576
v 1.583540 3.169358 -2.384520
v 0.136927 3.267340 -1.006947
vn 0.4477 0.7927 0.4137
vn 0.6148 0.4999 0.6101
vn 0.6883 0.1309 0.7135
vn 0.6570 -0.2580 0.7083
vn 0.5257 -0.6076 0.5953
vn 0.3144 -0.8647 0.3917
vn 0.0552 -0.9902 0.1284
vn -0.2124 -0.9649 -0.1544
vn -0.4477 -0.7927 -0.4137
vn -0.6148 -0.4999 -0.6101
vn -0.6883 -0.1309 -0.7135
vn -0.6570 0.2580 -0.7083
vn -0.5257 0.6076 -0.5953
vn -0.3144 0.8647 -0.3917
vn -0.7233 0.0490 0.6888
vn -0.0552 0.9902 -0.1284
vn 0.2124 0.9649 0.1544
vn 0.7233 -0.0490 -0.6888
s off
f 2//1 3//1 1//1
f 4//2 5//2 3//2
f 6//3 7//3 5//3
f 8//4 9//4 7//4
f 9//5 12//5 11//5
f 12//6 13//6 11//6
f 14//7 15//7 13//7
f 16//8 17//8 15//8
f 18//9 19//9 17//9
f 20//10 21//10 19//10
f 22//11 23//11 21//11
f 23//12 26//12 25//12
f 26//13 27//13 25//13
f 28//14 29//14 27//14
f 30//15 22//15 14//15
f 30//16 31//16 29//16
f 32//17 1//17 31//17
f 7//18 15//18 23//18
f 2//1 4//1 3//1
f 4//2 6//2 5//2
f 6//3 8//3 7//3
f 8//4 10//4 9//4
f 9//5 10//5 12//5
f 12//6 14//6 13//6
f 14//7 16//7 15//7
f 16//8 18//8 17//8
f 18//9 20//9 19//9
f 20//10 22//10 21//10
f 22//11 24//11 23//11
f 23//12 24//12 26//12
f 26//13 28//13 27//13
f 28//14 30//14 29//14
f 6//15 4//15 2//15
f 2//15 32//15 6//15
f 32//15 30//15 6//15
f 30//15 28//15 26//15
f 26//15 24//15 22//15
f 22//15 20//15 18//15
f 18//15 16//15 14//15
f 14//15 12//15 10//15
f 10//15 8//15 6//15
f 30//15 26//15 22//15
f 22//15 18//15 14//15
f 14//15 10//15 6//15
f 6//15 30//15 14//15
f 30//16 32//16 31//16
f 32//17 2//17 1//17
f 31//18 1//18 3//18
f 3//18 5//18 7//18
f 7//18 9//18 15//18
f 9//18 11//18 15//18
f 11//18 13//18 15//18
f 15//18 17//18 19//18
f 19//18 21//18 15//18
f 21//18 23//18 15//18
f 23//18 25//18 31//18
f 25//18 27//18 31//18
f 27//18 29//18 31//18
f 31//18 3//18 7//18
f 31//18 7//18 23//18
