# Blender v2.83.0 OBJ File: ''
# www.blender.org
o Cylinder.067_Cylinder.1856
v -2.980551 -0.167569 -0.932371
v -2.366589 0.347504 -2.764788
v -2.661418 -0.705055 -0.976526
v -2.047457 -0.189983 -2.808942
v -2.173774 -1.094921 -0.922725
v -1.559813 -0.579849 -2.755142
v -1.591858 -1.277813 -0.779160
v -0.977897 -0.762741 -2.611577
v -1.004262 -1.225888 -0.567687
v -0.390300 -0.710816 -2.400104
v -0.500441 -0.947051 -0.320501
v 0.113521 -0.431978 -2.152917
v -0.157098 -0.483751 -0.075233
v 0.456863 0.031321 -1.907650
v -0.026504 0.093477 0.130775
v 0.587458 0.608549 -1.701641
v -0.128540 0.696756 0.266163
v 0.485421 1.211828 -1.566254
v -0.447673 1.234242 0.310317
v 0.166289 1.749314 -1.522100
v -0.935316 1.624108 0.256516
v -0.321355 2.139180 -1.575900
v -1.517233 1.807001 0.112951
v -0.903271 2.322073 -1.719465
v -2.104829 1.755075 -0.098522
v -1.490868 2.270148 -1.930938
v -2.608650 1.476238 -0.345708
v -1.994689 1.991310 -2.178125
v -2.951993 1.012938 -0.590975
v -2.338032 1.528010 -2.423392
v -3.082587 0.435710 -0.796984
v -2.468626 0.950782 -2.629401
vn -0.8040 -0.4450 -0.3945
vn -0.5479 -0.7393 -0.3914
vn -0.2084 -0.9211 -0.3287
vn 0.1628 -0.9627 -0.2161
vn 0.5093 -0.8577 -0.0705
vn 0.7782 -0.6221 0.0859
vn 0.9286 -0.2919 0.2291
vn 0.9377 0.0829 0.3375
vn 0.8040 0.4450 0.3945
vn 0.5479 0.7393 0.3914
vn 0.2084 0.9211 0.3287
vn -0.1628 0.9627 0.2161
vn -0.5093 0.8577 0.0705
vn -0.7782 0.6221 -0.0859
vn 0.3070 0.2575 -0.9162
vn -0.9286 0.2919 -0.2291
vn -0.9377 -0.0829 -0.3375
vn -0.3070 -0.2575 0.9162
s off
f 2//1 3//1 1//1
f 4//2 5//2 3//2
f 6//3 7//3 5//3
f 8//4 9//4 7//4
f 10//5 11//5 9//5
f 12//6 13//6 11//6
f 14//7 15//7 13//7
f 16//8 17//8 15//8
f 18//9 19//9 17//9
f 20//10 21//10 19//10
f 22//11 23//11 21//11
f 24//12 25//12 23//12
f 26//13 27//13 25//13
f 28//14 29//14 27//14
f 30//15 22//15 14//15
f 30//16 31//16 29//16
f 32//17 1//17 31//17
f 31//18 7//18 15//18
f 2//1 4//1 3//1
f 4//2 6//2 5//2
f 6//3 8//3 7//3
f 8//4 10//4 9//4
f 10//5 12//5 11//5
f 12//6 14//6 13//6
f 14//7 16//7 15//7
f 16//8 18//8 17//8
f 18//9 20//9 19//9
f 20//10 22//10 21//10
f 22//11 24//11 23//11
f 24//12 26//12 25//12
f 26//13 28//13 27//13
f 28//14 30//14 29//14
f 6//15 4//15 2//15
f 2//15 32//15 30//15
f 30//15 28//15 22//15
f 28//15 26//15 22//15
f 26//15 24//15 22//15
f 22//15 20//15 14//15
f 20//15 18//15 14//15
f 18//15 16//15 14//15
f 14//15 12//15 10//15
f 10//15 8//15 14//15
f 8//15 6//15 14//15
f 6//15 2//15 30//15
f 6//15 30//15 14//15
f 30//16 32//16 31//16
f 32//17 2//17 1//17
f 31//18 1//18 7//18
f 1//18 3//18 7//18
f 3//18 5//18 7//18
f 7//18 9//18 11//18
f 11//18 13//18 7//18
f 13//18 15//18 7//18
f 15//18 17//18 19//18
f 19//18 21//18 23//18
f 23//18 25//18 27//18
f 27//18 29//18 23//18
f 29//18 31//18 23//18
f 15//18 19//18 31//18
f 19//18 23//18 31//18
