# Blender v2.83.0 OBJ File: ''
# www.blender.org
o Cylinder.096_Cylinder.1885
v -2.282907 -0.746405 1.428828
v -0.836828 -0.654557 0.050272
v -2.536307 -0.597591 1.172932
v -1.090227 -0.505743 -0.205625
v -2.805174 -0.597750 0.890884
v -1.359095 -0.505903 -0.487672
v -3.048577 -0.746860 0.625626
v -1.602497 -0.655012 -0.752931
v -3.229458 -1.022218 0.417539
v -1.783378 -0.930370 -0.961018
v -3.320280 -1.381905 0.298303
v -1.874201 -1.290057 -1.080254
v -3.307218 -1.771160 0.286071
v -1.861138 -1.679313 -1.092486
v -3.192258 -2.130725 0.382705
v -1.746178 -2.038877 -0.995852
v -2.992903 -2.405857 0.573493
v -1.546824 -2.314009 -0.805064
v -2.739504 -2.554672 0.829390
v -1.293424 -2.462824 -0.549167
v -2.470636 -2.554512 1.111437
v -1.024557 -2.462664 -0.267119
v -2.227234 -2.405403 1.376696
v -0.781154 -2.313555 -0.001861
v -2.046353 -2.130044 1.584783
v -0.600273 -2.038197 0.206226
v -1.955530 -1.770358 1.704019
v -0.509451 -1.678510 0.325462
v -1.968593 -1.381102 1.716251
v -0.522513 -1.289254 0.337694
v -2.083553 -1.021537 1.619617
v -0.637473 -0.929689 0.241060
vn 0.2331 0.9231 0.3060
vn -0.0335 0.9989 0.0314
vn -0.2950 0.9227 -0.2480
vn -0.5116 0.7061 -0.4896
vn -0.6503 0.3819 -0.6567
vn -0.6900 -0.0004 -0.7238
vn -0.6246 -0.3827 -0.6807
vn -0.4642 -0.7067 -0.5340
vn -0.2331 -0.9231 -0.3060
vn 0.0335 -0.9989 -0.0314
vn 0.2950 -0.9227 0.2480
vn 0.5116 -0.7061 0.4896
vn 0.6503 -0.3819 0.6567
vn 0.6900 0.0004 0.7238
vn 0.7230 0.0459 -0.6893
vn 0.6246 0.3827 0.6807
vn 0.4642 0.7067 0.5340
vn -0.7230 -0.0459 0.6893
s off
f 1//1 4//1 3//1
f 4//2 5//2 3//2
f 6//3 7//3 5//3
f 8//4 9//4 7//4
f 10//5 11//5 9//5
f 12//6 13//6 11//6
f 14//7 15//7 13//7
f 16//8 17//8 15//8
f 18//9 19//9 17//9
f 20//10 21//10 19//10
f 22//11 23//11 21//11
f 24//12 25//12 23//12
f 26//13 27//13 25//13
f 28//14 29//14 27//14
f 6//15 30//15 22//15
f 29//16 32//16 31//16
f 32//17 1//17 31//17
f 15//18 23//18 31//18
f 1//1 2//1 4//1
f 4//2 6//2 5//2
f 6//3 8//3 7//3
f 8//4 10//4 9//4
f 10//5 12//5 11//5
f 12//6 14//6 13//6
f 14//7 16//7 15//7
f 16//8 18//8 17//8
f 18//9 20//9 19//9
f 20//10 22//10 21//10
f 22//11 24//11 23//11
f 24//12 26//12 25//12
f 26//13 28//13 27//13
f 28//14 30//14 29//14
f 6//15 4//15 30//15
f 4//15 2//15 30//15
f 2//15 32//15 30//15
f 30//15 28//15 26//15
f 26//15 24//15 22//15
f 22//15 20//15 18//15
f 18//15 16//15 14//15
f 14//15 12//15 10//15
f 10//15 8//15 14//15
f 8//15 6//15 14//15
f 30//15 26//15 22//15
f 22//15 18//15 6//15
f 18//15 14//15 6//15
f 29//16 30//16 32//16
f 32//17 2//17 1//17
f 31//18 1//18 7//18
f 1//18 3//18 7//18
f 3//18 5//18 7//18
f 7//18 9//18 11//18
f 11//18 13//18 15//18
f 15//18 17//18 23//18
f 17//18 19//18 23//18
f 19//18 21//18 23//18
f 23//18 25//18 27//18
f 27//18 29//18 23//18
f 29//18 31//18 23//18
f 7//18 11//18 15//18
f 31//18 7//18 15//18
