# Blender v2.83.0 OBJ File: ''
# www.blender.org
o Cylinder.097_Cylinder.1886
v 1.234847 -1.979710 1.514730
v -0.761287 -2.046320 1.409785
v 1.246764 -2.237179 1.451480
v -0.749370 -2.303788 1.346535
v 1.262137 -2.450651 1.294555
v -0.733996 -2.517261 1.189610
v 1.278627 -2.587629 1.067844
v -0.717506 -2.654238 0.962899
v 1.293723 -2.627258 0.805862
v -0.702411 -2.693867 0.700917
v 1.305127 -2.563505 0.548494
v -0.691007 -2.630114 0.443549
v 1.311102 -2.406076 0.334922
v -0.685032 -2.472685 0.229977
v 1.310739 -2.178938 0.197661
v -0.685395 -2.245548 0.092716
v 1.304093 -1.916671 0.157606
v -0.692041 -1.983280 0.052660
v 1.292176 -1.659202 0.220855
v -0.703958 -1.725812 0.115910
v 1.276802 -1.445730 0.377781
v -0.719331 -1.512339 0.272836
v 1.260312 -1.308752 0.604492
v -0.735821 -1.375362 0.499547
v 1.245217 -1.269123 0.866474
v -0.750917 -1.335733 0.761528
v 1.233813 -1.332876 1.123841
v -0.762321 -1.399486 1.018896
v 1.227838 -1.490305 1.337413
v -0.768296 -1.556915 1.232468
v 1.228201 -1.717443 1.474675
v -0.767933 -1.784053 1.369730
vn -0.0430 -0.2402 0.9698
vn -0.0225 -0.5932 0.8047
vn 0.0014 -0.8559 0.5172
vn 0.0250 -0.9882 0.1509
vn 0.0449 -0.9701 -0.2383
vn 0.0579 -0.8044 -0.5913
vn 0.0621 -0.5161 -0.8543
vn 0.0569 -0.1493 -0.9872
vn 0.0430 0.2402 -0.9698
vn 0.0225 0.5932 -0.8047
vn -0.0014 0.8559 -0.5172
vn -0.0250 0.9882 -0.1509
vn -0.0449 0.9701 0.2383
vn -0.0579 0.8044 0.5913
vn -0.9981 -0.0333 -0.0525
vn -0.0621 0.5161 0.8543
vn -0.0569 0.1493 0.9872
vn 0.9981 0.0333 0.0525
s off
f 2//1 3//1 1//1
f 4//2 5//2 3//2
f 6//3 7//3 5//3
f 8//4 9//4 7//4
f 10//5 11//5 9//5
f 12//6 13//6 11//6
f 14//7 15//7 13//7
f 16//8 17//8 15//8
f 18//9 19//9 17//9
f 20//10 21//10 19//10
f 22//11 23//11 21//11
f 24//12 25//12 23//12
f 25//13 28//13 27//13
f 28//14 29//14 27//14
f 22//15 14//15 6//15
f 30//16 31//16 29//16
f 32//17 1//17 31//17
f 31//18 7//18 15//18
f 2//1 4//1 3//1
f 4//2 6//2 5//2
f 6//3 8//3 7//3
f 8//4 10//4 9//4
f 10//5 12//5 11//5
f 12//6 14//6 13//6
f 14//7 16//7 15//7
f 16//8 18//8 17//8
f 18//9 20//9 19//9
f 20//10 22//10 21//10
f 22//11 24//11 23//11
f 24//12 26//12 25//12
f 25//13 26//13 28//13
f 28//14 30//14 29//14
f 6//15 4//15 30//15
f 4//15 2//15 30//15
f 2//15 32//15 30//15
f 30//15 28//15 26//15
f 26//15 24//15 30//15
f 24//15 22//15 30//15
f 22//15 20//15 18//15
f 18//15 16//15 14//15
f 14//15 12//15 10//15
f 10//15 8//15 14//15
f 8//15 6//15 14//15
f 22//15 18//15 14//15
f 6//15 30//15 22//15
f 30//16 32//16 31//16
f 32//17 2//17 1//17
f 31//18 1//18 7//18
f 1//18 3//18 7//18
f 3//18 5//18 7//18
f 7//18 9//18 11//18
f 11//18 13//18 15//18
f 15//18 17//18 19//18
f 19//18 21//18 15//18
f 21//18 23//18 15//18
f 23//18 25//18 27//18
f 27//18 29//18 31//18
f 7//18 11//18 15//18
f 23//18 27//18 15//18
f 27//18 31//18 15//18
