# Blender v2.83.0 OBJ File: ''
# www.blender.org
o Cylinder.089_Cylinder.1878
v -1.550790 -0.295163 -1.249240
v 0.025386 0.934964 -1.199680
v -1.671490 -0.148376 -1.053953
v -0.095314 1.081751 -1.004393
v -1.827576 0.047278 -0.946210
v -0.251400 1.277405 -0.896650
v -1.995286 0.262013 -0.942414
v -0.419109 1.492140 -0.892855
v -2.149086 0.463137 -1.043144
v -0.572910 1.693264 -0.993584
v -2.265563 0.620032 -1.233063
v -0.689386 1.850159 -1.183503
v -2.326983 0.708810 -1.483258
v -0.750807 1.938937 -1.433699
v -2.323996 0.715957 -1.755640
v -0.747820 1.946084 -1.706081
v -2.257058 0.640385 -2.008741
v -0.680881 1.870512 -1.959181
v -2.136357 0.493598 -2.204028
v -0.560181 1.723725 -2.154468
v -1.980271 0.297944 -2.311771
v -0.404095 1.528071 -2.262211
v -1.812562 0.083209 -2.315567
v -0.236386 1.313336 -2.266007
v -1.658762 -0.117915 -2.214837
v -0.082585 1.112212 -2.165277
v -1.542285 -0.274810 -2.024918
v 0.033891 0.955317 -1.975358
v -1.480865 -0.363588 -1.774722
v 0.095312 0.866539 -1.725162
v -1.483851 -0.370735 -1.502340
v 0.092325 0.859392 -1.452780
vn 0.4274 -0.5758 0.6970
vn 0.2254 -0.3258 0.9182
vn -0.0110 -0.0262 0.9996
vn -0.2457 0.2773 0.9288
vn -0.4429 0.5387 0.7167
vn -0.5728 0.7180 0.3954
vn -0.6155 0.7880 0.0139
vn -0.5644 0.7381 -0.3697
vn -0.4274 0.5758 -0.6970
vn -0.2254 0.3258 -0.9182
vn 0.0110 0.0262 -0.9996
vn 0.2457 -0.2773 -0.9288
vn 0.4429 -0.5387 -0.7167
vn 0.5728 -0.7180 -0.3954
vn 0.7881 0.6151 0.0248
vn 0.6155 -0.7880 -0.0139
vn 0.5644 -0.7381 0.3697
vn -0.7881 -0.6151 -0.0248
s off
f 2//1 3//1 1//1
f 4//2 5//2 3//2
f 6//3 7//3 5//3
f 8//4 9//4 7//4
f 10//5 11//5 9//5
f 12//6 13//6 11//6
f 13//7 16//7 15//7
f 15//8 18//8 17//8
f 18//9 19//9 17//9
f 20//10 21//10 19//10
f 22//11 23//11 21//11
f 24//12 25//12 23//12
f 26//13 27//13 25//13
f 28//14 29//14 27//14
f 22//15 14//15 6//15
f 30//16 31//16 29//16
f 32//17 1//17 31//17
f 15//18 23//18 31//18
f 2//1 4//1 3//1
f 4//2 6//2 5//2
f 6//3 8//3 7//3
f 8//4 10//4 9//4
f 10//5 12//5 11//5
f 12//6 14//6 13//6
f 13//7 14//7 16//7
f 15//8 16//8 18//8
f 18//9 20//9 19//9
f 20//10 22//10 21//10
f 22//11 24//11 23//11
f 24//12 26//12 25//12
f 26//13 28//13 27//13
f 28//14 30//14 29//14
f 6//15 4//15 30//15
f 4//15 2//15 30//15
f 2//15 32//15 30//15
f 30//15 28//15 26//15
f 26//15 24//15 22//15
f 22//15 20//15 18//15
f 18//15 16//15 14//15
f 14//15 12//15 6//15
f 12//15 10//15 6//15
f 10//15 8//15 6//15
f 30//15 26//15 6//15
f 26//15 22//15 6//15
f 22//15 18//15 14//15
f 30//16 32//16 31//16
f 32//17 2//17 1//17
f 31//18 1//18 7//18
f 1//18 3//18 7//18
f 3//18 5//18 7//18
f 7//18 9//18 15//18
f 9//18 11//18 15//18
f 11//18 13//18 15//18
f 15//18 17//18 19//18
f 19//18 21//18 15//18
f 21//18 23//18 15//18
f 23//18 25//18 27//18
f 27//18 29//18 23//18
f 29//18 31//18 23//18
f 31//18 7//18 15//18
