# Blender v2.83.0 OBJ File: ''
# www.blender.org
o Cylinder.084_Cylinder.1873
v -0.866495 -0.494508 -3.407486
v 0.562711 0.900204 -3.297252
v -0.349805 -1.001050 -3.697551
v 1.079400 0.393661 -3.587317
v 0.194278 -1.559255 -3.689127
v 1.623483 -0.164544 -3.578892
v 0.682923 -2.084142 -3.383495
v 2.112129 -0.689431 -3.273261
v 1.041739 -2.495801 -2.827187
v 2.470944 -1.101090 -2.716953
v 1.216098 -2.731561 -2.104894
v 2.645304 -1.336850 -1.994660
v 1.179457 -2.755529 -1.326580
v 2.608662 -1.360818 -1.216345
v 0.937393 -2.564057 -0.610735
v 2.366598 -1.169346 -0.500500
v 0.526758 -2.186295 -0.066340
v 1.955964 -0.791583 0.043894
v 0.010069 -1.679752 0.223725
v 1.439275 -0.285041 0.333959
v -0.534014 -1.121547 0.215301
v 0.895192 0.273164 0.325536
v -1.022660 -0.596660 -0.090330
v 0.406546 0.798051 0.019904
v -1.381475 -0.185001 -0.646639
v 0.047730 1.209711 -0.536405
v -1.555835 0.050759 -1.368932
v -0.126629 1.445470 -1.258698
v -1.519193 0.074727 -2.147247
v -0.089987 1.469438 -2.037013
v -1.277129 -0.116745 -2.863092
v 0.152077 1.277966 -2.752858
vn -0.2237 0.3024 -0.9266
vn 0.0470 0.0307 -0.9984
vn 0.3105 -0.2456 -0.9183
vn 0.5268 -0.4846 -0.6983
vn 0.6628 -0.6498 -0.3721
vn 0.6979 -0.7161 0.0108
vn 0.6268 -0.6733 0.3921
vn 0.4603 -0.5281 0.7136
vn 0.2237 -0.3024 0.9266
vn -0.0470 -0.0307 0.9984
vn -0.3105 0.2456 0.9183
vn -0.5268 0.4846 0.6983
vn -0.6628 0.6498 0.3721
vn -0.6979 0.7161 -0.0108
vn 0.7146 0.6974 0.0551
vn -0.6268 0.6733 -0.3921
vn -0.4603 0.5281 -0.7136
vn -0.7146 -0.6974 -0.0551
s off
f 2//1 3//1 1//1
f 4//2 5//2 3//2
f 6//3 7//3 5//3
f 8//4 9//4 7//4
f 10//5 11//5 9//5
f 12//6 13//6 11//6
f 14//7 15//7 13//7
f 16//8 17//8 15//8
f 18//9 19//9 17//9
f 20//10 21//10 19//10
f 22//11 23//11 21//11
f 24//12 25//12 23//12
f 26//13 27//13 25//13
f 28//14 29//14 27//14
f 30//15 22//15 14//15
f 30//16 31//16 29//16
f 32//17 1//17 31//17
f 31//18 7//18 15//18
f 2//1 4//1 3//1
f 4//2 6//2 5//2
f 6//3 8//3 7//3
f 8//4 10//4 9//4
f 10//5 12//5 11//5
f 12//6 14//6 13//6
f 14//7 16//7 15//7
f 16//8 18//8 17//8
f 18//9 20//9 19//9
f 20//10 22//10 21//10
f 22//11 24//11 23//11
f 24//12 26//12 25//12
f 26//13 28//13 27//13
f 28//14 30//14 29//14
f 6//15 4//15 2//15
f 2//15 32//15 30//15
f 30//15 28//15 26//15
f 26//15 24//15 30//15
f 24//15 22//15 30//15
f 22//15 20//15 14//15
f 20//15 18//15 14//15
f 18//15 16//15 14//15
f 14//15 12//15 10//15
f 10//15 8//15 6//15
f 6//15 2//15 30//15
f 14//15 10//15 6//15
f 6//15 30//15 14//15
f 30//16 32//16 31//16
f 32//17 2//17 1//17
f 31//18 1//18 3//18
f 3//18 5//18 7//18
f 7//18 9//18 11//18
f 11//18 13//18 15//18
f 15//18 17//18 19//18
f 19//18 21//18 23//18
f 23//18 25//18 27//18
f 27//18 29//18 31//18
f 31//18 3//18 7//18
f 7//18 11//18 15//18
f 15//18 19//18 23//18
f 23//18 27//18 15//18
f 27//18 31//18 15//18
