# Blender v2.83.0 OBJ File: ''
# www.blender.org
o Cylinder.088_Cylinder.1877
v -2.432884 1.225991 2.226854
v -1.721269 2.268559 0.675514
v -2.708020 0.704890 1.750444
v -1.996406 1.747458 0.199104
v -2.712494 0.076916 1.326366
v -2.000879 1.119484 -0.224974
v -2.445624 -0.562327 1.019183
v -1.734009 0.480241 -0.532157
v -1.948039 -1.115520 0.875660
v -1.236424 -0.072953 -0.675680
v -1.295491 -1.498446 0.917648
v -0.583876 -0.455878 -0.633693
v -0.587326 -1.652806 1.138753
v 0.124289 -0.610238 -0.412587
v 0.068646 -1.555100 1.505316
v 0.780260 -0.512533 -0.046025
v 0.572558 -1.220205 1.961529
v 1.284172 -0.177637 0.410189
v 0.847694 -0.699104 2.437939
v 1.559309 0.343464 0.886599
v 0.852168 -0.071130 2.862017
v 1.563782 0.971437 1.310677
v 0.585298 0.568113 3.169201
v 1.296912 1.610681 1.617860
v 0.087712 1.121307 3.312724
v 0.799327 2.163875 1.761383
v -0.564836 1.504232 3.270736
v 0.146779 2.546800 1.719396
v -1.273001 1.658592 3.049630
v -0.561387 2.701160 1.498290
v -1.928973 1.560887 2.683067
v -1.217358 2.603454 1.131727
vn -0.8611 0.5053 -0.0554
vn -0.9345 0.2037 -0.2918
vn -0.8657 -0.1289 -0.4837
vn -0.6650 -0.4419 -0.6020
vn -0.3631 -0.6877 -0.6287
vn -0.0059 -0.8287 -0.5596
vn 0.3522 -0.8436 -0.4054
vn 0.6566 -0.7300 -0.1894
vn 0.8611 -0.5053 0.0554
vn 0.9345 -0.2037 0.2918
vn 0.8657 0.1289 0.4837
vn 0.6650 0.4419 0.6020
vn 0.3631 0.6877 0.6287
vn 0.0059 0.8287 0.5596
vn 0.3558 0.5213 -0.7757
vn -0.3522 0.8436 0.4054
vn -0.6566 0.7300 0.1894
vn -0.3558 -0.5213 0.7757
s off
f 2//1 3//1 1//1
f 4//2 5//2 3//2
f 6//3 7//3 5//3
f 8//4 9//4 7//4
f 10//5 11//5 9//5
f 12//6 13//6 11//6
f 14//7 15//7 13//7
f 15//8 18//8 17//8
f 18//9 19//9 17//9
f 20//10 21//10 19//10
f 22//11 23//11 21//11
f 24//12 25//12 23//12
f 25//13 28//13 27//13
f 28//14 29//14 27//14
f 30//15 22//15 14//15
f 30//16 31//16 29//16
f 32//17 1//17 31//17
f 15//18 23//18 31//18
f 2//1 4//1 3//1
f 4//2 6//2 5//2
f 6//3 8//3 7//3
f 8//4 10//4 9//4
f 10//5 12//5 11//5
f 12//6 14//6 13//6
f 14//7 16//7 15//7
f 15//8 16//8 18//8
f 18//9 20//9 19//9
f 20//10 22//10 21//10
f 22//11 24//11 23//11
f 24//12 26//12 25//12
f 25//13 26//13 28//13
f 28//14 30//14 29//14
f 6//15 4//15 2//15
f 2//15 32//15 30//15
f 30//15 28//15 26//15
f 26//15 24//15 22//15
f 22//15 20//15 14//15
f 20//15 18//15 14//15
f 18//15 16//15 14//15
f 14//15 12//15 10//15
f 10//15 8//15 14//15
f 8//15 6//15 14//15
f 6//15 2//15 30//15
f 30//15 26//15 22//15
f 6//15 30//15 14//15
f 30//16 32//16 31//16
f 32//17 2//17 1//17
f 31//18 1//18 3//18
f 3//18 5//18 7//18
f 7//18 9//18 11//18
f 11//18 13//18 7//18
f 13//18 15//18 7//18
f 15//18 17//18 23//18
f 17//18 19//18 23//18
f 19//18 21//18 23//18
f 23//18 25//18 27//18
f 27//18 29//18 23//18
f 29//18 31//18 23//18
f 31//18 3//18 15//18
f 3//18 7//18 15//18
