# Blender v2.83.0 OBJ File: ''
# www.blender.org
o Cylinder.048_Cylinder.1837
v 2.073056 0.604383 -1.848218
v 0.201785 1.289889 -1.679614
v 2.053764 0.645188 -2.228241
v 0.182493 1.330694 -2.059638
v 2.087102 0.819578 -2.567257
v 0.215832 1.505084 -2.398653
v 2.167997 1.101003 -2.813653
v 0.296726 1.786509 -2.645049
v 2.284131 1.446618 -2.929918
v 0.412860 2.132124 -2.761314
v 2.417825 1.803808 -2.898352
v 0.546554 2.489314 -2.729748
v 2.548725 2.118192 -2.723760
v 0.677454 2.803699 -2.555156
v 2.656903 2.341910 -2.432722
v 0.785632 3.027416 -2.264118
v 2.725889 2.440901 -2.069546
v 0.854618 3.126407 -1.900943
v 2.745182 2.400096 -1.689523
v 0.873911 3.085602 -1.520919
v 2.711843 2.225706 -1.350508
v 0.840572 2.911212 -1.181904
v 2.630949 1.944282 -1.104111
v 0.759678 2.629787 -0.935507
v 2.514814 1.598666 -0.987846
v 0.643543 2.284172 -0.819242
v 2.381120 1.241476 -1.019413
v 0.509849 1.926982 -0.850809
v 2.250220 0.927091 -1.194005
v 0.378949 1.612597 -1.025401
v 2.142042 0.703374 -1.485043
v 0.270771 1.388880 -1.316439
vn -0.3493 -0.9334 -0.0825
vn -0.3420 -0.8215 -0.4562
vn -0.2827 -0.5846 -0.7605
vn -0.1803 -0.2587 -0.9490
vn -0.0504 0.1066 -0.9930
vn 0.0871 0.4557 -0.8859
vn 0.2114 0.7354 -0.6438
vn 0.3035 0.9031 -0.3038
vn 0.3493 0.9334 0.0825
vn 0.3420 0.8215 0.4562
vn 0.2827 0.5846 0.7605
vn 0.1803 0.2587 0.9490
vn 0.0504 -0.1066 0.9930
vn -0.0871 -0.4557 0.8859
vn -0.9356 0.3428 0.0843
vn -0.2114 -0.7354 0.6438
vn -0.3035 -0.9031 0.3038
vn 0.9356 -0.3428 -0.0843
vn 0.9356 -0.3427 -0.0843
s off
f 2//1 3//1 1//1
f 4//2 5//2 3//2
f 6//3 7//3 5//3
f 8//4 9//4 7//4
f 10//5 11//5 9//5
f 12//6 13//6 11//6
f 14//7 15//7 13//7
f 16//8 17//8 15//8
f 18//9 19//9 17//9
f 20//10 21//10 19//10
f 22//11 23//11 21//11
f 24//12 25//12 23//12
f 26//13 27//13 25//13
f 28//14 29//14 27//14
f 6//15 30//15 22//15
f 30//16 31//16 29//16
f 32//17 1//17 31//17
f 7//18 15//18 23//18
f 2//1 4//1 3//1
f 4//2 6//2 5//2
f 6//3 8//3 7//3
f 8//4 10//4 9//4
f 10//5 12//5 11//5
f 12//6 14//6 13//6
f 14//7 16//7 15//7
f 16//8 18//8 17//8
f 18//9 20//9 19//9
f 20//10 22//10 21//10
f 22//11 24//11 23//11
f 24//12 26//12 25//12
f 26//13 28//13 27//13
f 28//14 30//14 29//14
f 6//15 4//15 30//15
f 4//15 2//15 30//15
f 2//15 32//15 30//15
f 30//15 28//15 26//15
f 26//15 24//15 22//15
f 22//15 20//15 18//15
f 18//15 16//15 14//15
f 14//15 12//15 10//15
f 10//15 8//15 6//15
f 30//15 26//15 22//15
f 22//15 18//15 14//15
f 14//15 10//15 22//15
f 10//15 6//15 22//15
f 30//16 32//16 31//16
f 32//17 2//17 1//17
f 31//19 1//19 3//19
f 3//18 5//18 7//18
f 7//18 9//18 11//18
f 11//18 13//18 15//18
f 15//18 17//18 19//18
f 19//18 21//18 23//18
f 23//18 25//18 27//18
f 27//18 29//18 31//18
f 31//18 3//18 7//18
f 7//18 11//18 15//18
f 15//18 19//18 23//18
f 23//18 27//18 31//18
f 31//18 7//18 23//18
