# Blender v2.83.0 OBJ File: ''
# www.blender.org
o Cylinder.022_Cylinder.1811
v -1.404906 1.267260 -0.331295
v 0.166954 1.509036 -1.544060
v -1.430769 1.762367 -0.266111
v 0.141091 2.004143 -1.478877
v -1.572570 2.233389 -0.355996
v -0.000709 2.475165 -1.568761
v -1.808720 2.608617 -0.587264
v -0.236860 2.850394 -1.800030
v -2.103268 2.830927 -0.924708
v -0.531408 3.072703 -2.137473
v -2.411372 2.866474 -1.316953
v -0.839512 3.108250 -2.529719
v -2.686126 2.709845 -1.704286
v -1.114265 2.951622 -2.917051
v -2.885700 2.384887 -2.027737
v -1.313840 2.626664 -3.240502
v -2.979712 1.941072 -2.238064
v -1.407852 2.182848 -3.450830
v -2.953849 1.445965 -2.303247
v -1.381989 1.687741 -3.516013
v -2.812049 0.974943 -2.213363
v -1.240188 1.216719 -3.426128
v -2.575898 0.599714 -1.982095
v -1.004038 0.841491 -3.194860
v -2.281350 0.377404 -1.644652
v -0.709489 0.619181 -2.857417
v -1.973246 0.341858 -1.252406
v -0.401385 0.583634 -2.465171
v -1.698492 0.498486 -0.865073
v -0.126632 0.740263 -2.077838
v -1.498918 0.823445 -0.541622
v 0.072943 1.065221 -1.754387
vn 0.6161 -0.0711 0.7844
vn 0.5495 0.3132 0.7746
vn 0.3991 0.6499 0.6468
vn 0.1880 0.8875 0.4206
vn -0.0517 0.9901 0.1304
vn -0.2836 0.9420 -0.1798
vn -0.4723 0.7504 -0.4625
vn -0.5890 0.4446 -0.6748
vn -0.6161 0.0711 -0.7844
vn -0.5495 -0.3132 -0.7746
vn -0.3991 -0.6499 -0.6468
vn -0.1880 -0.8875 -0.4206
vn 0.0517 -0.9901 -0.1304
vn 0.2836 -0.9420 0.1798
vn 0.7859 0.1209 -0.6064
vn 0.4723 -0.7504 0.4625
vn 0.5890 -0.4446 0.6748
vn -0.7859 -0.1209 0.6064
s off
f 2//1 3//1 1//1
f 4//2 5//2 3//2
f 6//3 7//3 5//3
f 8//4 9//4 7//4
f 10//5 11//5 9//5
f 12//6 13//6 11//6
f 14//7 15//7 13//7
f 16//8 17//8 15//8
f 18//9 19//9 17//9
f 19//10 22//10 21//10
f 22//11 23//11 21//11
f 24//12 25//12 23//12
f 26//13 27//13 25//13
f 28//14 29//14 27//14
f 6//15 30//15 22//15
f 30//16 31//16 29//16
f 32//17 1//17 31//17
f 27//18 31//18 15//18
f 2//1 4//1 3//1
f 4//2 6//2 5//2
f 6//3 8//3 7//3
f 8//4 10//4 9//4
f 10//5 12//5 11//5
f 12//6 14//6 13//6
f 14//7 16//7 15//7
f 16//8 18//8 17//8
f 18//9 20//9 19//9
f 19//10 20//10 22//10
f 22//11 24//11 23//11
f 24//12 26//12 25//12
f 26//13 28//13 27//13
f 28//14 30//14 29//14
f 6//15 4//15 30//15
f 4//15 2//15 30//15
f 2//15 32//15 30//15
f 30//15 28//15 22//15
f 28//15 26//15 22//15
f 26//15 24//15 22//15
f 22//15 20//15 18//15
f 18//15 16//15 14//15
f 14//15 12//15 10//15
f 10//15 8//15 14//15
f 8//15 6//15 14//15
f 22//15 18//15 6//15
f 18//15 14//15 6//15
f 30//16 32//16 31//16
f 32//17 2//17 1//17
f 31//18 1//18 3//18
f 3//18 5//18 7//18
f 7//18 9//18 11//18
f 11//18 13//18 15//18
f 15//18 17//18 19//18
f 19//18 21//18 15//18
f 21//18 23//18 15//18
f 23//18 25//18 27//18
f 27//18 29//18 31//18
f 31//18 3//18 15//18
f 3//18 7//18 15//18
f 7//18 11//18 15//18
f 23//18 27//18 15//18
