# Blender v2.83.0 OBJ File: ''
# www.blender.org
o Cylinder.040_Cylinder.1829
v -0.258631 0.732741 -2.315307
v -1.160922 2.118939 -1.190884
v -0.235331 0.974249 -2.594343
v -1.137622 2.360447 -1.469920
v -0.087833 1.240535 -2.804264
v -0.990124 2.626733 -1.679841
v 0.161407 1.491059 -2.913110
v -0.740883 2.877258 -1.788687
v 0.474445 1.687681 -2.904311
v -0.427845 3.073880 -1.779888
v 0.803624 1.800468 -2.779206
v -0.098667 3.186666 -1.654784
v 1.098828 1.812248 -2.556842
v 0.196538 3.198446 -1.432419
v 1.315117 1.721227 -2.271071
v 0.412827 3.107426 -1.146648
v 1.419562 1.541264 -1.965400
v 0.517272 2.927463 -0.840977
v 1.396262 1.299756 -1.686363
v 0.493971 2.685954 -0.561940
v 1.248764 1.033470 -1.476443
v 0.346474 2.419668 -0.352020
v 0.999524 0.782946 -1.367596
v 0.097233 2.169144 -0.243173
v 0.686486 0.586323 -1.376395
v -0.215805 1.972522 -0.251972
v 0.357307 0.473537 -1.501500
v -0.544984 1.859735 -0.377077
v 0.062102 0.461758 -1.723864
v -0.840188 1.847956 -0.599442
v -0.154187 0.552778 -2.009635
v -1.056477 1.938976 -0.885213
vn -0.8902 -0.3050 -0.3383
vn -0.7983 -0.0319 -0.6014
vn -0.5849 0.2462 -0.7728
vn -0.2825 0.4867 -0.8267
vn 0.0630 0.6531 -0.7546
vn 0.3989 0.7201 -0.5677
vn 0.6740 0.6775 -0.2944
vn 0.8466 0.5317 0.0238
vn 0.8902 0.3050 0.3383
vn 0.7983 0.0319 0.6014
vn 0.5849 -0.2462 0.7728
vn 0.2825 -0.4867 0.8267
vn -0.0630 -0.6531 0.7546
vn -0.3989 -0.7201 0.5677
vn -0.4511 0.6931 0.5622
vn -0.6740 -0.6775 0.2944
vn -0.8466 -0.5317 -0.0238
vn 0.4511 -0.6931 -0.5622
s off
f 2//1 3//1 1//1
f 4//2 5//2 3//2
f 6//3 7//3 5//3
f 8//4 9//4 7//4
f 10//5 11//5 9//5
f 12//6 13//6 11//6
f 13//7 16//7 15//7
f 16//8 17//8 15//8
f 18//9 19//9 17//9
f 20//10 21//10 19//10
f 22//11 23//11 21//11
f 24//12 25//12 23//12
f 26//13 27//13 25//13
f 28//14 29//14 27//14
f 6//15 30//15 22//15
f 30//16 31//16 29//16
f 32//17 1//17 31//17
f 31//18 7//18 15//18
f 2//1 4//1 3//1
f 4//2 6//2 5//2
f 6//3 8//3 7//3
f 8//4 10//4 9//4
f 10//5 12//5 11//5
f 12//6 14//6 13//6
f 13//7 14//7 16//7
f 16//8 18//8 17//8
f 18//9 20//9 19//9
f 20//10 22//10 21//10
f 22//11 24//11 23//11
f 24//12 26//12 25//12
f 26//13 28//13 27//13
f 28//14 30//14 29//14
f 6//15 4//15 30//15
f 4//15 2//15 30//15
f 2//15 32//15 30//15
f 30//15 28//15 26//15
f 26//15 24//15 30//15
f 24//15 22//15 30//15
f 22//15 20//15 18//15
f 18//15 16//15 14//15
f 14//15 12//15 10//15
f 10//15 8//15 6//15
f 22//15 18//15 14//15
f 14//15 10//15 22//15
f 10//15 6//15 22//15
f 30//16 32//16 31//16
f 32//17 2//17 1//17
f 31//18 1//18 3//18
f 3//18 5//18 7//18
f 7//18 9//18 11//18
f 11//18 13//18 7//18
f 13//18 15//18 7//18
f 15//18 17//18 19//18
f 19//18 21//18 23//18
f 23//18 25//18 31//18
f 25//18 27//18 31//18
f 27//18 29//18 31//18
f 31//18 3//18 7//18
f 15//18 19//18 31//18
f 19//18 23//18 31//18
