# Blender v2.83.0 OBJ File: ''
# www.blender.org
o Cylinder.073_Cylinder.1862
v 1.058518 1.002867 0.136172
v 1.662261 2.274849 -1.284236
v 0.472428 1.398048 0.240941
v 1.076170 2.670030 -1.179467
v -0.201951 1.615960 0.149439
v 0.401792 2.887943 -1.270969
v -0.861951 1.623430 -0.124404
v -0.258208 2.895412 -1.544811
v -1.407093 1.419320 -0.538898
v -0.803350 2.691302 -1.959305
v -1.754384 1.034703 -1.030939
v -1.150641 2.306685 -2.451347
v -1.850951 0.528135 -1.525620
v -1.247209 1.800117 -2.946027
v -1.682095 -0.023264 -1.947628
v -1.078352 1.248718 -3.368036
v -1.273521 -0.535549 -2.232719
v -0.669779 0.736433 -3.653126
v -0.687431 -0.930730 -2.337488
v -0.083689 0.341252 -3.757895
v -0.013052 -1.148643 -2.245986
v 0.590690 0.123339 -3.666394
v 0.646948 -1.156113 -1.972143
v 1.250690 0.115869 -3.392550
v 1.192090 -0.952002 -1.557650
v 1.795833 0.319980 -2.978057
v 1.539381 -0.567386 -1.065608
v 2.143123 0.704596 -2.486015
v 1.635949 -0.060817 -0.570927
v 2.239691 1.211165 -1.991334
v 1.467092 0.490583 -0.148918
v 2.070834 1.762565 -1.569325
vn 0.4860 0.5382 0.6886
vn 0.1351 0.7089 0.6923
vn -0.2363 0.7716 0.5906
vn -0.5718 0.7169 0.3990
vn -0.8202 0.5530 0.1466
vn -0.9437 0.3049 -0.1280
vn -0.9236 0.0105 -0.3832
vn -0.7629 -0.2856 -0.5800
vn -0.4860 -0.5382 -0.6886
vn -0.1351 -0.7089 -0.6923
vn 0.2363 -0.7716 -0.5906
vn 0.5718 -0.7169 -0.3990
vn 0.8202 -0.5530 -0.1466
vn 0.9437 -0.3049 0.1280
vn 0.3019 0.6360 -0.7102
vn 0.9236 -0.0105 0.3832
vn 0.7629 0.2856 0.5800
vn -0.3019 -0.6360 0.7102
s off
f 2//1 3//1 1//1
f 4//2 5//2 3//2
f 6//3 7//3 5//3
f 8//4 9//4 7//4
f 10//5 11//5 9//5
f 12//6 13//6 11//6
f 14//7 15//7 13//7
f 16//8 17//8 15//8
f 18//9 19//9 17//9
f 20//10 21//10 19//10
f 22//11 23//11 21//11
f 24//12 25//12 23//12
f 25//13 28//13 27//13
f 28//14 29//14 27//14
f 10//15 6//15 22//15
f 30//16 31//16 29//16
f 32//17 1//17 31//17
f 7//18 15//18 23//18
f 2//1 4//1 3//1
f 4//2 6//2 5//2
f 6//3 8//3 7//3
f 8//4 10//4 9//4
f 10//5 12//5 11//5
f 12//6 14//6 13//6
f 14//7 16//7 15//7
f 16//8 18//8 17//8
f 18//9 20//9 19//9
f 20//10 22//10 21//10
f 22//11 24//11 23//11
f 24//12 26//12 25//12
f 25//13 26//13 28//13
f 28//14 30//14 29//14
f 6//15 4//15 2//15
f 2//15 32//15 30//15
f 30//15 28//15 26//15
f 26//15 24//15 22//15
f 22//15 20//15 18//15
f 18//15 16//15 22//15
f 16//15 14//15 22//15
f 14//15 12//15 10//15
f 10//15 8//15 6//15
f 6//15 2//15 30//15
f 30//15 26//15 6//15
f 26//15 22//15 6//15
f 14//15 10//15 22//15
f 30//16 32//16 31//16
f 32//17 2//17 1//17
f 31//18 1//18 3//18
f 3//18 5//18 7//18
f 7//18 9//18 11//18
f 11//18 13//18 15//18
f 15//18 17//18 23//18
f 17//18 19//18 23//18
f 19//18 21//18 23//18
f 23//18 25//18 31//18
f 25//18 27//18 31//18
f 27//18 29//18 31//18
f 31//18 3//18 7//18
f 7//18 11//18 15//18
f 31//18 7//18 23//18
