# Blender v2.83.0 OBJ File: ''
# www.blender.org
o Cylinder.011_Cylinder.1800
v -0.364402 1.314566 0.652371
v -0.028286 0.875349 -1.269637
v -0.400325 1.929376 0.505593
v -0.064208 1.490158 -1.416415
v -0.671951 2.474735 0.333466
v -0.335834 2.035517 -1.588542
v -1.137927 2.867618 0.162195
v -0.801811 2.428400 -1.759812
v -1.727314 3.048212 0.017855
v -1.391197 2.608994 -1.904152
v -2.350382 2.989023 -0.077580
v -2.014265 2.549805 -1.999587
v -2.912274 2.699062 -0.109580
v -2.576158 2.259844 -2.031588
v -3.327449 2.222473 -0.073275
v -2.991332 1.783256 -1.995283
v -3.532699 1.631813 0.025809
v -3.196582 1.192595 -1.896199
v -3.496776 1.017004 0.172587
v -3.160660 0.577786 -1.749420
v -3.225151 0.471645 0.344714
v -2.889034 0.032427 -1.577293
v -2.759174 0.078761 0.515985
v -2.423058 -0.360456 -1.406023
v -2.169787 -0.101832 0.660325
v -1.833671 -0.541050 -1.261683
v -1.546719 -0.042643 0.755760
v -1.210603 -0.481861 -1.166248
v -0.984826 0.247318 0.787761
v -0.648709 -0.191900 -1.134247
v -0.569652 0.723907 0.751455
v -0.233535 0.284689 -1.170552
vn 0.9841 0.0935 0.1507
vn 0.8875 0.4580 0.0505
vn 0.6558 0.7528 -0.0573
vn 0.3242 0.9330 -0.1565
vn -0.0567 0.9711 -0.2318
vn -0.4290 0.8614 -0.2719
vn -0.7360 0.6206 -0.2705
vn -0.9309 0.2852 -0.2280
vn -0.9841 -0.0935 -0.1507
vn -0.8875 -0.4580 -0.0505
vn -0.6558 -0.7528 0.0573
vn -0.3242 -0.9330 0.1565
vn 0.0567 -0.9711 0.2318
vn 0.4290 -0.8614 0.2719
vn 0.1681 -0.2196 -0.9610
vn 0.7360 -0.6206 0.2705
vn 0.9309 -0.2852 0.2280
vn -0.1681 0.2196 0.9610
vn -0.9309 0.2853 -0.2280
s off
f 2//1 3//1 1//1
f 4//2 5//2 3//2
f 6//3 7//3 5//3
f 8//4 9//4 7//4
f 10//5 11//5 9//5
f 12//6 13//6 11//6
f 14//7 15//7 13//7
f 16//8 17//8 15//8
f 18//9 19//9 17//9
f 20//10 21//10 19//10
f 22//11 23//11 21//11
f 24//12 25//12 23//12
f 26//13 27//13 25//13
f 28//14 29//14 27//14
f 22//15 14//15 6//15
f 30//16 31//16 29//16
f 32//17 1//17 31//17
f 31//18 7//18 15//18
f 2//1 4//1 3//1
f 4//2 6//2 5//2
f 6//3 8//3 7//3
f 8//4 10//4 9//4
f 10//5 12//5 11//5
f 12//6 14//6 13//6
f 14//7 16//7 15//7
f 16//19 18//19 17//19
f 18//9 20//9 19//9
f 20//10 22//10 21//10
f 22//11 24//11 23//11
f 24//12 26//12 25//12
f 26//13 28//13 27//13
f 28//14 30//14 29//14
f 6//15 4//15 2//15
f 2//15 32//15 30//15
f 30//15 28//15 26//15
f 26//15 24//15 22//15
f 22//15 20//15 18//15
f 18//15 16//15 14//15
f 14//15 12//15 10//15
f 10//15 8//15 6//15
f 6//15 2//15 30//15
f 30//15 26//15 6//15
f 26//15 22//15 6//15
f 22//15 18//15 14//15
f 14//15 10//15 6//15
f 30//16 32//16 31//16
f 32//17 2//17 1//17
f 31//18 1//18 3//18
f 3//18 5//18 7//18
f 7//18 9//18 11//18
f 11//18 13//18 7//18
f 13//18 15//18 7//18
f 15//18 17//18 19//18
f 19//18 21//18 23//18
f 23//18 25//18 27//18
f 27//18 29//18 31//18
f 31//18 3//18 7//18
f 15//18 19//18 31//18
f 19//18 23//18 31//18
f 23//18 27//18 31//18
