# Blender v2.83.0 OBJ File: ''
# www.blender.org
o Cylinder.037_Cylinder.1826
v -1.875725 -0.269414 1.881221
v -1.254188 -1.455634 0.395766
v -1.693927 -0.344608 2.017334
v -1.072390 -1.530828 0.531880
v -1.473701 -0.346218 2.110766
v -0.852164 -1.532438 0.625312
v -1.248575 -0.274000 2.147292
v -0.627037 -1.460219 0.661837
v -1.052821 -0.138947 2.121351
v -0.431284 -1.325166 0.635896
v -0.916242 0.038380 2.036892
v -0.294705 -1.147840 0.551438
v -0.859631 0.230983 1.906775
v -0.238094 -0.955236 0.421320
v -0.891606 0.409542 1.750807
v -0.270069 -0.776678 0.265352
v -1.007299 0.546871 1.592733
v -0.385762 -0.639348 0.107279
v -1.189098 0.622065 1.456620
v -0.567560 -0.564154 -0.028835
v -1.409324 0.623675 1.363188
v -0.787786 -0.562544 -0.122267
v -1.634450 0.551457 1.326662
v -1.012913 -0.634763 -0.158792
v -1.830204 0.416404 1.352603
v -1.208666 -0.769816 -0.132851
v -1.966782 0.239077 1.437061
v -1.345245 -0.947142 -0.048393
v -2.023394 0.046474 1.567179
v -1.401856 -1.139746 0.081725
v -1.991418 -0.132085 1.723147
v -1.369881 -1.318304 0.237693
vn -0.5709 -0.7412 0.3530
vn -0.2366 -0.8051 0.5439
vn 0.1337 -0.7464 0.6520
vn 0.4836 -0.5740 0.6608
vn 0.7599 -0.3143 0.5690
vn 0.9206 -0.0067 0.3906
vn 0.9410 0.3019 0.1527
vn 0.8183 0.5645 -0.1084
vn 0.5709 0.7412 -0.3530
vn 0.2366 0.8051 -0.5439
vn -0.1337 0.7464 -0.6520
vn -0.4836 0.5740 -0.6608
vn -0.7599 0.3143 -0.5690
vn -0.9206 0.0067 -0.3906
vn 0.3108 -0.5931 -0.7427
vn -0.9410 -0.3019 -0.1527
vn -0.8183 -0.5645 0.1084
vn -0.3108 0.5931 0.7427
vn 0.9206 -0.0067 0.3905
vn -0.9206 0.0067 -0.3905
s off
f 2//1 3//1 1//1
f 4//2 5//2 3//2
f 6//3 7//3 5//3
f 8//4 9//4 7//4
f 10//5 11//5 9//5
f 12//6 13//6 11//6
f 14//7 15//7 13//7
f 16//8 17//8 15//8
f 18//9 19//9 17//9
f 20//10 21//10 19//10
f 22//11 23//11 21//11
f 24//12 25//12 23//12
f 26//13 27//13 25//13
f 27//14 30//14 29//14
f 6//15 30//15 22//15
f 30//16 31//16 29//16
f 32//17 1//17 31//17
f 15//18 23//18 31//18
f 2//1 4//1 3//1
f 4//2 6//2 5//2
f 6//3 8//3 7//3
f 8//4 10//4 9//4
f 10//5 12//5 11//5
f 12//19 14//19 13//19
f 14//7 16//7 15//7
f 16//8 18//8 17//8
f 18//9 20//9 19//9
f 20//10 22//10 21//10
f 22//11 24//11 23//11
f 24//12 26//12 25//12
f 26//13 28//13 27//13
f 27//20 28//20 30//20
f 6//15 4//15 2//15
f 2//15 32//15 30//15
f 30//15 28//15 22//15
f 28//15 26//15 22//15
f 26//15 24//15 22//15
f 22//15 20//15 18//15
f 18//15 16//15 14//15
f 14//15 12//15 10//15
f 10//15 8//15 6//15
f 6//15 2//15 30//15
f 22//15 18//15 6//15
f 18//15 14//15 6//15
f 14//15 10//15 6//15
f 30//16 32//16 31//16
f 32//17 2//17 1//17
f 31//18 1//18 3//18
f 3//18 5//18 7//18
f 7//18 9//18 11//18
f 11//18 13//18 7//18
f 13//18 15//18 7//18
f 15//18 17//18 19//18
f 19//18 21//18 15//18
f 21//18 23//18 15//18
f 23//18 25//18 31//18
f 25//18 27//18 31//18
f 27//18 29//18 31//18
f 31//18 3//18 15//18
f 3//18 7//18 15//18
