# Blender v2.83.0 OBJ File: ''
# www.blender.org
o Cylinder.018_Cylinder.1807
v 2.774652 0.405499 0.221908
v 2.845259 -1.462970 -0.487906
v 3.152123 0.607379 -0.271959
v 3.222731 -1.261091 -0.981773
v 3.296877 0.838486 -0.865912
v 3.367485 -1.029983 -1.575727
v 3.186877 1.063637 -1.469528
v 3.257484 -0.804832 -2.179342
v 2.838868 1.248555 -1.990911
v 2.909475 -0.619914 -2.700725
v 2.305831 1.365087 -2.350685
v 2.376438 -0.503382 -3.060499
v 1.668918 1.395493 -2.494078
v 1.739525 -0.472977 -3.203892
v 1.025091 1.335143 -2.399260
v 1.095698 -0.533327 -3.109074
v 0.472369 1.193225 -2.080666
v 0.542976 -0.675244 -2.790480
v 0.094897 0.991346 -1.586799
v 0.165505 -0.877124 -2.296613
v -0.049857 0.760238 -0.992846
v 0.020750 -1.108231 -1.702660
v 0.060144 0.535087 -0.389230
v 0.130751 -1.333383 -1.099044
v 0.408153 0.350169 0.132153
v 0.478760 -1.518300 -0.577662
v 0.941190 0.233637 0.491927
v 1.011797 -1.634833 -0.217887
v 1.578103 0.203231 0.635320
v 1.648711 -1.665238 -0.074494
v 2.221930 0.263581 0.540502
v 2.292537 -1.604888 -0.169312
vn 0.8156 -0.1783 0.5505
vn 0.9745 -0.0465 0.2194
vn 0.9851 0.0923 -0.1451
vn 0.8457 0.2171 -0.4875
vn 0.5776 0.3089 -0.7557
vn 0.2215 0.3536 -0.9088
vn -0.1683 0.3445 -0.9236
vn -0.5325 0.2829 -0.7978
vn -0.8156 0.1783 -0.5505
vn -0.9745 0.0465 -0.2194
vn -0.9851 -0.0923 0.1451
vn -0.8457 -0.2171 0.4875
vn -0.5776 -0.3089 0.7557
vn -0.2215 -0.3536 0.9088
vn 0.0353 -0.9342 -0.3549
vn 0.1683 -0.3445 0.9236
vn 0.5325 -0.2829 0.7978
vn -0.0353 0.9342 0.3549
s off
f 2//1 3//1 1//1
f 4//2 5//2 3//2
f 6//3 7//3 5//3
f 8//4 9//4 7//4
f 10//5 11//5 9//5
f 12//6 13//6 11//6
f 14//7 15//7 13//7
f 16//8 17//8 15//8
f 18//9 19//9 17//9
f 20//10 21//10 19//10
f 22//11 23//11 21//11
f 24//12 25//12 23//12
f 26//13 27//13 25//13
f 28//14 29//14 27//14
f 22//15 14//15 6//15
f 30//16 31//16 29//16
f 32//17 1//17 31//17
f 19//18 23//18 31//18
f 2//1 4//1 3//1
f 4//2 6//2 5//2
f 6//3 8//3 7//3
f 8//4 10//4 9//4
f 10//5 12//5 11//5
f 12//6 14//6 13//6
f 14//7 16//7 15//7
f 16//8 18//8 17//8
f 18//9 20//9 19//9
f 20//10 22//10 21//10
f 22//11 24//11 23//11
f 24//12 26//12 25//12
f 26//13 28//13 27//13
f 28//14 30//14 29//14
f 6//15 4//15 2//15
f 2//15 32//15 30//15
f 30//15 28//15 26//15
f 26//15 24//15 22//15
f 22//15 20//15 14//15
f 20//15 18//15 14//15
f 18//15 16//15 14//15
f 14//15 12//15 10//15
f 10//15 8//15 6//15
f 6//15 2//15 22//15
f 2//15 30//15 22//15
f 30//15 26//15 22//15
f 14//15 10//15 6//15
f 30//16 32//16 31//16
f 32//17 2//17 1//17
f 31//18 1//18 3//18
f 3//18 5//18 7//18
f 7//18 9//18 15//18
f 9//18 11//18 15//18
f 11//18 13//18 15//18
f 15//18 17//18 19//18
f 19//18 21//18 23//18
f 23//18 25//18 27//18
f 27//18 29//18 23//18
f 29//18 31//18 23//18
f 31//18 3//18 15//18
f 3//18 7//18 15//18
f 15//18 19//18 31//18
