# Blender v2.83.0 OBJ File: ''
# www.blender.org
o Cylinder.091_Cylinder.1880
v -1.604292 1.379417 -0.453698
v 0.127721 1.513848 0.537292
v -1.609289 2.101920 -0.542975
v 0.122724 2.236351 0.448014
v -1.474609 2.740785 -0.865027
v 0.257404 2.875216 0.125963
v -1.220757 3.198752 -1.370824
v 0.511256 3.333183 -0.379834
v -0.886380 3.406100 -1.983363
v 0.845633 3.540531 -0.992373
v -0.522383 3.331261 -2.609390
v 1.209630 3.465692 -1.618401
v -0.184182 2.985629 -3.153599
v 1.547831 3.120060 -2.162610
v 0.076736 2.421824 -3.533139
v 1.808749 2.556254 -2.542149
v 0.220648 1.725679 -3.690228
v 1.952661 1.860110 -2.699238
v 0.225644 1.003177 -3.600950
v 1.957657 1.137608 -2.609961
v 0.090965 0.364311 -3.278899
v 1.822978 0.498742 -2.287910
v -0.162887 -0.093656 -2.773102
v 1.569126 0.040775 -1.782112
v -0.497264 -0.301004 -2.160563
v 1.234749 -0.166573 -1.169573
v -0.861261 -0.226165 -1.534535
v 0.870752 -0.091734 -0.543545
v -1.199463 0.119467 -0.990326
v 0.532550 0.253898 0.000664
v -1.460381 0.683273 -0.610786
v 0.271632 0.817704 0.380203
vn -0.5000 0.1028 0.8599
vn -0.4646 0.4748 0.7475
vn -0.3584 0.7744 0.5213
vn -0.1977 0.9562 0.2158
vn -0.0069 0.9924 -0.1226
vn 0.1850 0.8775 -0.4424
vn 0.3487 0.6291 -0.6948
vn 0.4593 0.2848 -0.8414
vn 0.5000 -0.1028 -0.8599
vn 0.4646 -0.4748 -0.7475
vn 0.3584 -0.7744 -0.5213
vn 0.1977 -0.9562 -0.2158
vn 0.0069 -0.9924 0.1226
vn -0.1850 -0.8775 0.4424
vn 0.8660 0.0672 0.4955
vn -0.3487 -0.6291 0.6948
vn -0.4593 -0.2848 0.8414
vn -0.8660 -0.0672 -0.4955
s off
f 2//1 3//1 1//1
f 4//2 5//2 3//2
f 6//3 7//3 5//3
f 8//4 9//4 7//4
f 10//5 11//5 9//5
f 12//6 13//6 11//6
f 14//7 15//7 13//7
f 16//8 17//8 15//8
f 18//9 19//9 17//9
f 20//10 21//10 19//10
f 22//11 23//11 21//11
f 24//12 25//12 23//12
f 26//13 27//13 25//13
f 28//14 29//14 27//14
f 6//15 30//15 22//15
f 30//16 31//16 29//16
f 32//17 1//17 31//17
f 7//18 15//18 23//18
f 2//1 4//1 3//1
f 4//2 6//2 5//2
f 6//3 8//3 7//3
f 8//4 10//4 9//4
f 10//5 12//5 11//5
f 12//6 14//6 13//6
f 14//7 16//7 15//7
f 16//8 18//8 17//8
f 18//9 20//9 19//9
f 20//10 22//10 21//10
f 22//11 24//11 23//11
f 24//12 26//12 25//12
f 26//13 28//13 27//13
f 28//14 30//14 29//14
f 6//15 4//15 30//15
f 4//15 2//15 30//15
f 2//15 32//15 30//15
f 30//15 28//15 26//15
f 26//15 24//15 30//15
f 24//15 22//15 30//15
f 22//15 20//15 14//15
f 20//15 18//15 14//15
f 18//15 16//15 14//15
f 14//15 12//15 10//15
f 10//15 8//15 6//15
f 14//15 10//15 22//15
f 10//15 6//15 22//15
f 30//16 32//16 31//16
f 32//17 2//17 1//17
f 31//18 1//18 3//18
f 3//18 5//18 31//18
f 5//18 7//18 31//18
f 7//18 9//18 11//18
f 11//18 13//18 7//18
f 13//18 15//18 7//18
f 15//18 17//18 19//18
f 19//18 21//18 15//18
f 21//18 23//18 15//18
f 23//18 25//18 31//18
f 25//18 27//18 31//18
f 27//18 29//18 31//18
f 31//18 7//18 23//18
