# Blender v2.83.0 OBJ File: ''
# www.blender.org
o Cylinder.070_Cylinder.1859
v -0.055726 1.836004 -0.154314
v 1.798689 2.256454 0.465659
v -0.014407 2.284658 -0.582170
v 1.840008 2.705108 0.037803
v 0.111410 2.542444 -1.133327
v 1.965825 2.962894 -0.513355
v 0.302570 2.570117 -1.723878
v 2.156985 2.990567 -1.103906
v 0.529971 2.363463 -2.263916
v 2.384386 2.783913 -1.643944
v 0.758994 1.953944 -2.671226
v 2.613409 2.374393 -2.051254
v 0.954771 1.403905 -2.883798
v 2.809186 1.824355 -2.263825
v 1.087498 0.797084 -2.869269
v 2.941913 1.217534 -2.249297
v 1.136968 0.225866 -2.629853
v 2.991383 0.646316 -2.009880
v 1.095649 -0.222789 -2.201997
v 2.950064 0.197661 -1.582025
v 0.969832 -0.480575 -1.650840
v 2.824247 -0.060125 -1.030867
v 0.778672 -0.508248 -1.060288
v 2.633087 -0.087798 -0.440316
v 0.551271 -0.301594 -0.520250
v 2.405685 0.118856 0.099722
v 0.322248 0.107926 -0.112940
v 2.176663 0.528376 0.507032
v 0.126470 0.657965 0.099631
v 1.980885 1.078415 0.719604
v -0.006256 1.264786 0.085103
v 1.848159 1.685236 0.705075
vn -0.3686 0.6591 0.6555
vn -0.3151 0.8853 0.3421
vn -0.2136 0.9766 -0.0234
vn -0.0796 0.9193 -0.3853
vn 0.0665 0.7221 -0.6886
vn 0.2025 0.4149 -0.8871
vn 0.3077 0.0445 -0.9505
vn 0.3660 -0.3326 -0.8692
vn 0.3686 -0.6591 -0.6555
vn 0.3151 -0.8853 -0.3421
vn 0.2136 -0.9766 0.0234
vn 0.0796 -0.9193 0.3853
vn -0.0665 -0.7221 0.6886
vn -0.2025 -0.4149 0.8871
vn 0.9272 0.2102 0.3100
vn -0.3077 -0.0445 0.9505
vn -0.3660 0.3326 0.8692
vn -0.9272 -0.2102 -0.3100
s off
f 2//1 3//1 1//1
f 4//2 5//2 3//2
f 6//3 7//3 5//3
f 8//4 9//4 7//4
f 10//5 11//5 9//5
f 12//6 13//6 11//6
f 14//7 15//7 13//7
f 16//8 17//8 15//8
f 18//9 19//9 17//9
f 20//10 21//10 19//10
f 22//11 23//11 21//11
f 24//12 25//12 23//12
f 26//13 27//13 25//13
f 28//14 29//14 27//14
f 22//15 14//15 6//15
f 30//16 31//16 29//16
f 32//17 1//17 31//17
f 7//18 15//18 23//18
f 2//1 4//1 3//1
f 4//2 6//2 5//2
f 6//3 8//3 7//3
f 8//4 10//4 9//4
f 10//5 12//5 11//5
f 12//6 14//6 13//6
f 14//7 16//7 15//7
f 16//8 18//8 17//8
f 18//9 20//9 19//9
f 20//10 22//10 21//10
f 22//11 24//11 23//11
f 24//12 26//12 25//12
f 26//13 28//13 27//13
f 28//14 30//14 29//14
f 6//15 4//15 2//15
f 2//15 32//15 30//15
f 30//15 28//15 26//15
f 26//15 24//15 22//15
f 22//15 20//15 18//15
f 18//15 16//15 14//15
f 14//15 12//15 10//15
f 10//15 8//15 6//15
f 6//15 2//15 30//15
f 30//15 26//15 6//15
f 26//15 22//15 6//15
f 22//15 18//15 14//15
f 14//15 10//15 6//15
f 30//16 32//16 31//16
f 32//17 2//17 1//17
f 31//18 1//18 3//18
f 3//18 5//18 31//18
f 5//18 7//18 31//18
f 7//18 9//18 15//18
f 9//18 11//18 15//18
f 11//18 13//18 15//18
f 15//18 17//18 19//18
f 19//18 21//18 23//18
f 23//18 25//18 31//18
f 25//18 27//18 31//18
f 27//18 29//18 31//18
f 15//18 19//18 23//18
f 31//18 7//18 23//18
