# Blender v2.83.0 OBJ File: ''
# www.blender.org
o Cylinder.090_Cylinder.1879
v 2.969533 0.847707 1.072844
v 2.457455 -0.405439 2.545054
v 2.815645 0.666519 0.865091
v 2.303568 -0.586626 2.337301
v 2.572618 0.562829 0.692298
v 2.060540 -0.690316 2.164508
v 2.277447 0.552423 0.580771
v 1.765370 -0.700723 2.052981
v 1.975073 0.636884 0.547490
v 1.462995 -0.616262 2.019700
v 1.711527 0.803354 0.597520
v 1.199450 -0.449791 2.069731
v 1.526933 1.026490 0.723247
v 1.014855 -0.226655 2.195457
v 1.449393 1.272321 0.905527
v 0.937315 0.019176 2.377738
v 1.490712 1.503422 1.116612
v 0.978635 0.250277 2.588823
v 1.644600 1.684610 1.324366
v 1.132522 0.431464 2.796576
v 1.887628 1.788300 1.497159
v 1.375550 0.535154 2.969369
v 2.182798 1.798706 1.608686
v 1.670720 0.545561 3.080896
v 2.485173 1.714245 1.641967
v 1.973095 0.461100 3.114177
v 2.748718 1.547775 1.591936
v 2.236641 0.294629 3.064147
v 2.933312 1.324638 1.466210
v 2.421235 0.071493 2.938420
v 3.010852 1.078807 1.283929
v 2.498775 -0.174338 2.756139
vn 0.8348 -0.5273 -0.1585
vn 0.5847 -0.7068 -0.3982
vn 0.2456 -0.7787 -0.5774
vn -0.1309 -0.7320 -0.6686
vn -0.4874 -0.5739 -0.6581
vn -0.7698 -0.3284 -0.5473
vn -0.9349 -0.0330 -0.3533
vn -0.9578 0.2675 -0.1054
vn -0.8348 0.5273 0.1585
vn -0.5847 0.7068 0.3982
vn -0.2456 0.7787 0.5774
vn 0.1309 0.7320 0.6686
vn 0.4874 0.5739 0.6581
vn 0.7698 0.3284 0.5473
vn -0.2560 -0.6266 0.7361
vn 0.9349 0.0330 0.3533
vn 0.9578 -0.2675 0.1054
vn 0.2560 0.6266 -0.7361
s off
f 2//1 3//1 1//1
f 4//2 5//2 3//2
f 6//3 7//3 5//3
f 7//4 10//4 9//4
f 10//5 11//5 9//5
f 12//6 13//6 11//6
f 14//7 15//7 13//7
f 16//8 17//8 15//8
f 18//9 19//9 17//9
f 20//10 21//10 19//10
f 22//11 23//11 21//11
f 24//12 25//12 23//12
f 26//13 27//13 25//13
f 28//14 29//14 27//14
f 30//15 22//15 14//15
f 30//16 31//16 29//16
f 32//17 1//17 31//17
f 15//18 23//18 31//18
f 2//1 4//1 3//1
f 4//2 6//2 5//2
f 6//3 8//3 7//3
f 7//4 8//4 10//4
f 10//5 12//5 11//5
f 12//6 14//6 13//6
f 14//7 16//7 15//7
f 16//8 18//8 17//8
f 18//9 20//9 19//9
f 20//10 22//10 21//10
f 22//11 24//11 23//11
f 24//12 26//12 25//12
f 26//13 28//13 27//13
f 28//14 30//14 29//14
f 6//15 4//15 30//15
f 4//15 2//15 30//15
f 2//15 32//15 30//15
f 30//15 28//15 26//15
f 26//15 24//15 22//15
f 22//15 20//15 14//15
f 20//15 18//15 14//15
f 18//15 16//15 14//15
f 14//15 12//15 10//15
f 10//15 8//15 14//15
f 8//15 6//15 14//15
f 30//15 26//15 22//15
f 6//15 30//15 14//15
f 30//16 32//16 31//16
f 32//17 2//17 1//17
f 31//18 1//18 3//18
f 3//18 5//18 7//18
f 7//18 9//18 11//18
f 11//18 13//18 15//18
f 15//18 17//18 23//18
f 17//18 19//18 23//18
f 19//18 21//18 23//18
f 23//18 25//18 27//18
f 27//18 29//18 31//18
f 31//18 3//18 7//18
f 7//18 11//18 31//18
f 11//18 15//18 31//18
f 23//18 27//18 31//18
