# Blender v2.83.0 OBJ File: ''
# www.blender.org
o Cylinder.028_Cylinder.1817
v 0.064486 0.746965 -0.667944
v -1.673846 0.742511 0.321087
v 0.110689 1.247603 -0.584482
v -1.627643 1.243149 0.404548
v 0.248188 1.673629 -0.340894
v -1.490144 1.669175 0.648137
v 0.456051 1.960182 0.025738
v -1.282281 1.955729 1.014769
v 0.702632 2.063640 0.459597
v -1.035701 2.059186 1.448628
v 0.950391 1.968250 0.894632
v -0.787941 1.963796 1.883663
v 1.161609 1.688536 1.264613
v -0.576723 1.684082 2.253644
v 1.304131 1.267080 1.513213
v -0.434201 1.262627 2.502244
v 1.356258 0.768047 1.602586
v -0.382074 0.763593 2.591616
v 1.310056 0.267409 1.519125
v -0.428276 0.262955 2.508155
v 1.172557 -0.158617 1.275536
v -0.565776 -0.163070 2.264567
v 0.964694 -0.445171 0.908904
v -0.773638 -0.449624 1.897934
v 0.718113 -0.548628 0.475045
v -1.020219 -0.553082 1.464075
v 0.470354 -0.453239 0.040009
v -1.267978 -0.457692 1.029040
v 0.259135 -0.173524 -0.329971
v -1.479197 -0.177978 0.659059
v 0.116613 0.247932 -0.578571
v -1.621719 0.243478 0.410459
vn -0.4861 0.1872 -0.8536
vn -0.4144 0.5488 -0.7260
vn -0.2796 0.8270 -0.4878
vn -0.1023 0.9792 -0.1754
vn 0.0907 0.9823 0.1638
vn 0.2698 0.8359 0.4780
vn 0.4079 0.5623 0.7194
vn 0.4838 0.2030 0.8513
vn 0.4861 -0.1872 0.8536
vn 0.4144 -0.5488 0.7260
vn 0.2796 -0.8270 0.4878
vn 0.1023 -0.9792 0.1754
vn -0.0907 -0.9823 -0.1638
vn -0.2698 -0.8359 -0.4780
vn -0.8692 -0.0022 0.4945
vn -0.4079 -0.5623 -0.7194
vn -0.4838 -0.2030 -0.8513
vn 0.8692 0.0022 -0.4945
s off
f 2//1 3//1 1//1
f 4//2 5//2 3//2
f 6//3 7//3 5//3
f 8//4 9//4 7//4
f 10//5 11//5 9//5
f 12//6 13//6 11//6
f 14//7 15//7 13//7
f 16//8 17//8 15//8
f 18//9 19//9 17//9
f 20//10 21//10 19//10
f 22//11 23//11 21//11
f 24//12 25//12 23//12
f 26//13 27//13 25//13
f 28//14 29//14 27//14
f 6//15 30//15 22//15
f 30//16 31//16 29//16
f 32//17 1//17 31//17
f 27//18 31//18 15//18
f 2//1 4//1 3//1
f 4//2 6//2 5//2
f 6//3 8//3 7//3
f 8//4 10//4 9//4
f 10//5 12//5 11//5
f 12//6 14//6 13//6
f 14//7 16//7 15//7
f 16//8 18//8 17//8
f 18//9 20//9 19//9
f 20//10 22//10 21//10
f 22//11 24//11 23//11
f 24//12 26//12 25//12
f 26//13 28//13 27//13
f 28//14 30//14 29//14
f 6//15 4//15 30//15
f 4//15 2//15 30//15
f 2//15 32//15 30//15
f 30//15 28//15 26//15
f 26//15 24//15 22//15
f 22//15 20//15 18//15
f 18//15 16//15 14//15
f 14//15 12//15 10//15
f 10//15 8//15 14//15
f 8//15 6//15 14//15
f 30//15 26//15 22//15
f 22//15 18//15 6//15
f 18//15 14//15 6//15
f 30//16 32//16 31//16
f 32//17 2//17 1//17
f 31//18 1//18 3//18
f 3//18 5//18 7//18
f 7//18 9//18 11//18
f 11//18 13//18 7//18
f 13//18 15//18 7//18
f 15//18 17//18 19//18
f 19//18 21//18 23//18
f 23//18 25//18 27//18
f 27//18 29//18 31//18
f 31//18 3//18 15//18
f 3//18 7//18 15//18
f 15//18 19//18 23//18
f 23//18 27//18 15//18
