# Blender v2.83.0 OBJ File: ''
# www.blender.org
o Cylinder.085_Cylinder.1874
v 0.259339 -0.781710 1.915664
v -0.387370 -2.087701 0.545937
v 0.261062 -0.501973 1.648131
v -0.385647 -1.807964 0.278403
v 0.122485 -0.209973 1.435146
v -0.524224 -1.515964 0.065419
v -0.135296 0.049837 1.309136
v -0.782005 -1.256155 -0.060591
v -0.473035 0.237901 1.289284
v -1.119744 -1.068091 -0.080443
v -0.839315 0.325589 1.378613
v -1.486025 -0.980402 0.008886
v -1.178373 0.299552 1.563524
v -1.825083 -1.006439 0.193796
v -1.438591 0.163754 1.815864
v -2.085300 -1.142238 0.446136
v -1.580353 -0.061133 2.097218
v -2.227062 -1.367124 0.727490
v -1.582076 -0.340869 2.364751
v -2.228785 -1.646861 0.995024
v -1.443499 -0.632870 2.577736
v -2.090208 -1.938861 1.208008
v -1.185718 -0.892679 2.703746
v -1.832428 -2.198670 1.334018
v -0.847979 -1.080743 2.723598
v -1.494688 -2.386735 1.353870
v -0.481698 -1.168432 2.634269
v -1.128408 -2.474423 1.264541
v -0.142640 -1.142395 2.449358
v -0.789349 -2.448386 1.079631
v 0.117578 -1.006596 2.197018
v -0.529131 -2.312587 0.827291
vn 0.9463 -0.2265 -0.2308
vn 0.8759 0.0673 -0.4777
vn 0.6723 0.3508 -0.6519
vn 0.3662 0.5810 -0.7269
vn 0.0045 0.7227 -0.6912
vn -0.3580 0.7544 -0.5502
vn -0.6660 0.6712 -0.3255
vn -0.8725 0.4859 -0.0513
vn -0.9463 0.2265 0.2308
vn -0.8759 -0.0673 0.4777
vn -0.6723 -0.3508 0.6519
vn -0.3662 -0.5810 0.7269
vn -0.0045 -0.7227 0.6912
vn 0.3580 -0.7544 0.5502
vn -0.3234 -0.6530 -0.6849
vn 0.6660 -0.6712 0.3255
vn 0.8725 -0.4859 0.0513
vn 0.3234 0.6530 0.6849
s off
f 2//1 3//1 1//1
f 4//2 5//2 3//2
f 6//3 7//3 5//3
f 8//4 9//4 7//4
f 10//5 11//5 9//5
f 12//6 13//6 11//6
f 14//7 15//7 13//7
f 16//8 17//8 15//8
f 18//9 19//9 17//9
f 20//10 21//10 19//10
f 22//11 23//11 21//11
f 24//12 25//12 23//12
f 26//13 27//13 25//13
f 28//14 29//14 27//14
f 22//15 14//15 6//15
f 30//16 31//16 29//16
f 32//17 1//17 31//17
f 7//18 15//18 23//18
f 2//1 4//1 3//1
f 4//2 6//2 5//2
f 6//3 8//3 7//3
f 8//4 10//4 9//4
f 10//5 12//5 11//5
f 12//6 14//6 13//6
f 14//7 16//7 15//7
f 16//8 18//8 17//8
f 18//9 20//9 19//9
f 20//10 22//10 21//10
f 22//11 24//11 23//11
f 24//12 26//12 25//12
f 26//13 28//13 27//13
f 28//14 30//14 29//14
f 6//15 4//15 30//15
f 4//15 2//15 30//15
f 2//15 32//15 30//15
f 30//15 28//15 26//15
f 26//15 24//15 22//15
f 22//15 20//15 18//15
f 18//15 16//15 14//15
f 14//15 12//15 10//15
f 10//15 8//15 14//15
f 8//15 6//15 14//15
f 30//15 26//15 22//15
f 22//15 18//15 14//15
f 6//15 30//15 22//15
f 30//16 32//16 31//16
f 32//17 2//17 1//17
f 31//18 1//18 3//18
f 3//18 5//18 31//18
f 5//18 7//18 31//18
f 7//18 9//18 15//18
f 9//18 11//18 15//18
f 11//18 13//18 15//18
f 15//18 17//18 19//18
f 19//18 21//18 23//18
f 23//18 25//18 27//18
f 27//18 29//18 23//18
f 29//18 31//18 23//18
f 15//18 19//18 23//18
f 31//18 7//18 23//18
