# Blender v2.83.0 OBJ File: ''
# www.blender.org
o Cylinder.047_Cylinder.1836
v -1.454529 1.993781 1.561207
v -0.978558 1.861879 -0.376847
v -1.505222 1.649174 1.572211
v -1.029250 1.517272 -0.365843
v -1.423988 1.313002 1.615041
v -0.948016 1.181101 -0.323013
v -1.223193 1.036445 1.683177
v -0.747221 0.904544 -0.254877
v -0.933407 0.861606 1.766245
v -0.457436 0.729704 -0.171809
v -0.598748 0.815102 1.851600
v -0.122776 0.683200 -0.086454
v -0.270164 0.904013 1.926247
v 0.205808 0.772112 -0.011807
v 0.002321 1.114804 1.978821
v 0.478293 0.982902 0.040767
v 0.177223 1.415383 2.001319
v 0.653195 1.283481 0.063265
v 0.227916 1.759990 1.990315
v 0.703888 1.628088 0.052261
v 0.146682 2.096161 1.947485
v 0.622653 1.964260 0.009431
v -0.054113 2.372719 1.879349
v 0.421859 2.240817 -0.058705
v -0.343899 2.547558 1.796281
v 0.132073 2.415657 -0.141773
v -0.678558 2.594062 1.710926
v -0.202586 2.462161 -0.227128
v -1.007142 2.505151 1.636279
v -0.531170 2.373249 -0.301775
v -1.279627 2.294360 1.583705
v -0.803655 2.162458 -0.354349
vn -0.9603 0.1334 -0.2449
vn -0.9429 -0.2551 -0.2142
vn -0.7819 -0.6049 -0.1509
vn -0.5019 -0.8625 -0.0646
vn -0.1455 -0.9889 0.0316
vn 0.2331 -0.9647 0.1229
vn 0.5762 -0.7936 0.1955
vn 0.8315 -0.5017 0.2384
vn 0.9603 -0.1334 0.2449
vn 0.9429 0.2551 0.2142
vn 0.7819 0.6049 0.1509
vn 0.5019 0.8625 0.0646
vn 0.1455 0.9889 -0.0316
vn -0.2331 0.9647 -0.1229
vn 0.2380 -0.0660 -0.9690
vn -0.5762 0.7936 -0.1955
vn -0.8315 0.5017 -0.2384
vn -0.2380 0.0660 0.9690
vn -0.2380 0.0659 0.9690
s off
f 2//1 3//1 1//1
f 4//2 5//2 3//2
f 6//3 7//3 5//3
f 8//4 9//4 7//4
f 10//5 11//5 9//5
f 12//6 13//6 11//6
f 14//7 15//7 13//7
f 16//8 17//8 15//8
f 18//9 19//9 17//9
f 20//10 21//10 19//10
f 22//11 23//11 21//11
f 24//12 25//12 23//12
f 26//13 27//13 25//13
f 28//14 29//14 27//14
f 30//15 22//15 14//15
f 30//16 31//16 29//16
f 32//17 1//17 31//17
f 7//18 15//18 23//18
f 2//1 4//1 3//1
f 4//2 6//2 5//2
f 6//3 8//3 7//3
f 8//4 10//4 9//4
f 10//5 12//5 11//5
f 12//6 14//6 13//6
f 14//7 16//7 15//7
f 16//8 18//8 17//8
f 18//9 20//9 19//9
f 20//10 22//10 21//10
f 22//11 24//11 23//11
f 24//12 26//12 25//12
f 26//13 28//13 27//13
f 28//14 30//14 29//14
f 6//15 4//15 2//15
f 2//15 32//15 6//15
f 32//15 30//15 6//15
f 30//15 28//15 26//15
f 26//15 24//15 22//15
f 22//15 20//15 18//15
f 18//15 16//15 22//15
f 16//15 14//15 22//15
f 14//15 12//15 10//15
f 10//15 8//15 6//15
f 30//15 26//15 22//15
f 14//15 10//15 6//15
f 6//15 30//15 14//15
f 30//16 32//16 31//16
f 32//17 2//17 1//17
f 31//18 1//18 3//18
f 3//18 5//18 31//18
f 5//18 7//18 31//18
f 7//18 9//18 11//18
f 11//18 13//18 7//18
f 13//18 15//18 7//18
f 15//18 17//18 19//18
f 19//18 21//18 23//18
f 23//18 25//18 31//18
f 25//18 27//18 31//18
f 27//19 29//19 31//19
f 15//18 19//18 23//18
f 31//18 7//18 23//18
