# Blender v2.83.0 OBJ File: ''
# www.blender.org
o Cylinder.061_Cylinder.1850
v 1.428620 2.596583 -1.437148
v 0.080261 1.274168 -2.095286
v 1.245807 2.633124 -1.136032
v -0.102552 1.310708 -1.794170
v 1.148501 2.566174 -0.802152
v -0.199858 1.243758 -1.460289
v 1.151515 2.405927 -0.486338
v -0.196844 1.083511 -1.144476
v 1.254392 2.176778 -0.236671
v -0.093967 0.854362 -0.894808
v 1.441468 1.913613 -0.091159
v 0.093109 0.591198 -0.749296
v 1.684263 1.656498 -0.071955
v 0.335904 0.334082 -0.730092
v 1.945814 1.444575 -0.181984
v 0.597455 0.122159 -0.840121
v 2.186302 1.310107 -0.404494
v 0.837943 -0.012308 -1.062631
v 2.369115 1.273567 -0.705610
v 1.020756 -0.048849 -1.363747
v 2.466421 1.340517 -1.039490
v 1.118062 0.018101 -1.697627
v 2.463407 1.500764 -1.355304
v 1.115047 0.178348 -2.013441
v 2.360530 1.729913 -1.604972
v 1.012171 0.407497 -2.263109
v 2.173454 1.993077 -1.750484
v 0.825095 0.670662 -2.408621
v 1.930659 2.250193 -1.769687
v 0.582299 0.927777 -2.427824
v 1.669108 2.462116 -1.659658
v 0.320748 1.139700 -2.317796
vn -0.5282 0.7431 -0.4109
vn -0.6856 0.7260 -0.0542
vn -0.7385 0.5984 0.3107
vn -0.6790 0.3797 0.6283
vn -0.5162 0.1032 0.8502
vn -0.2748 -0.1890 0.9427
vn 0.0085 -0.4525 0.8917
vn 0.2905 -0.6470 0.7050
vn 0.5282 -0.7431 0.4109
vn 0.6856 -0.7260 0.0542
vn 0.7385 -0.5984 -0.3107
vn 0.6790 -0.3797 -0.6283
vn 0.5162 -0.1032 -0.8502
vn 0.2748 0.1890 -0.9427
vn -0.6742 -0.6612 -0.3291
vn -0.0085 0.4525 -0.8917
vn -0.2905 0.6470 -0.7050
vn 0.6742 0.6612 0.3291
s off
f 2//1 3//1 1//1
f 4//2 5//2 3//2
f 6//3 7//3 5//3
f 8//4 9//4 7//4
f 10//5 11//5 9//5
f 12//6 13//6 11//6
f 14//7 15//7 13//7
f 16//8 17//8 15//8
f 18//9 19//9 17//9
f 20//10 21//10 19//10
f 22//11 23//11 21//11
f 24//12 25//12 23//12
f 26//13 27//13 25//13
f 28//14 29//14 27//14
f 22//15 14//15 6//15
f 30//16 31//16 29//16
f 32//17 1//17 31//17
f 15//18 23//18 31//18
f 2//1 4//1 3//1
f 4//2 6//2 5//2
f 6//3 8//3 7//3
f 8//4 10//4 9//4
f 10//5 12//5 11//5
f 12//6 14//6 13//6
f 14//7 16//7 15//7
f 16//8 18//8 17//8
f 18//9 20//9 19//9
f 20//10 22//10 21//10
f 22//11 24//11 23//11
f 24//12 26//12 25//12
f 26//13 28//13 27//13
f 28//14 30//14 29//14
f 6//15 4//15 30//15
f 4//15 2//15 30//15
f 2//15 32//15 30//15
f 30//15 28//15 26//15
f 26//15 24//15 22//15
f 22//15 20//15 14//15
f 20//15 18//15 14//15
f 18//15 16//15 14//15
f 14//15 12//15 10//15
f 10//15 8//15 14//15
f 8//15 6//15 14//15
f 30//15 26//15 6//15
f 26//15 22//15 6//15
f 30//16 32//16 31//16
f 32//17 2//17 1//17
f 31//18 1//18 3//18
f 3//18 5//18 7//18
f 7//18 9//18 11//18
f 11//18 13//18 15//18
f 15//18 17//18 19//18
f 19//18 21//18 23//18
f 23//18 25//18 27//18
f 27//18 29//18 23//18
f 29//18 31//18 23//18
f 31//18 3//18 7//18
f 7//18 11//18 15//18
f 15//18 19//18 23//18
f 31//18 7//18 15//18
