# Blender v2.83.0 OBJ File: ''
# www.blender.org
o Cylinder.065_Cylinder.1854
v 1.422860 2.401133 -0.512308
v 2.076807 0.556409 -0.100789
v 1.611588 2.463284 -0.533607
v 2.265534 0.618561 -0.122088
v 1.783325 2.503180 -0.627678
v 2.437272 0.658456 -0.216159
v 1.911927 2.514744 -0.780198
v 2.565873 0.670021 -0.368679
v 1.977814 2.496218 -0.967948
v 2.631761 0.651494 -0.556429
v 1.970957 2.450421 -1.162345
v 2.624904 0.605697 -0.750826
v 1.892399 2.384326 -1.333794
v 2.546345 0.539602 -0.922275
v 1.754099 2.307995 -1.456192
v 2.408046 0.463271 -1.044673
v 1.577114 2.233049 -1.510907
v 2.231061 0.388325 -1.099388
v 1.388386 2.170897 -1.489607
v 2.042333 0.326173 -1.078089
v 1.216649 2.131002 -1.395537
v 1.870596 0.286278 -0.984018
v 1.088047 2.119437 -1.243017
v 1.741994 0.274714 -0.831498
v 1.022160 2.137964 -1.055266
v 1.676106 0.293240 -0.643747
v 1.029017 2.183761 -0.860869
v 1.682964 0.339037 -0.449350
v 1.107575 2.249856 -0.689421
v 1.761522 0.405132 -0.277902
v 1.245875 2.326187 -0.567022
v 1.899822 0.481463 -0.155503
vn 0.0343 0.2292 0.9728
vn 0.3931 0.3307 0.8579
vn 0.6921 0.3820 0.6125
vn 0.8857 0.3750 0.2738
vn 0.9444 0.3110 -0.1066
vn 0.8594 0.1996 -0.4707
vn 0.6435 0.0579 -0.7632
vn 0.3297 -0.0927 -0.9395
vn -0.0343 -0.2292 -0.9728
vn -0.3931 -0.3307 -0.8579
vn -0.6921 -0.3820 -0.6125
vn -0.8857 -0.3750 -0.2738
vn -0.9444 -0.3110 0.1066
vn -0.8594 -0.1996 0.4707
vn 0.3270 -0.9224 0.2058
vn -0.6435 -0.0579 0.7632
vn -0.3297 0.0927 0.9395
vn -0.3270 0.9224 -0.2058
s off
f 2//1 3//1 1//1
f 4//2 5//2 3//2
f 6//3 7//3 5//3
f 8//4 9//4 7//4
f 10//5 11//5 9//5
f 12//6 13//6 11//6
f 14//7 15//7 13//7
f 16//8 17//8 15//8
f 18//9 19//9 17//9
f 20//10 21//10 19//10
f 22//11 23//11 21//11
f 24//12 25//12 23//12
f 26//13 27//13 25//13
f 28//14 29//14 27//14
f 22//15 14//15 6//15
f 30//16 31//16 29//16
f 32//17 1//17 31//17
f 15//18 23//18 31//18
f 2//1 4//1 3//1
f 4//2 6//2 5//2
f 6//3 8//3 7//3
f 8//4 10//4 9//4
f 10//5 12//5 11//5
f 12//6 14//6 13//6
f 14//7 16//7 15//7
f 16//8 18//8 17//8
f 18//9 20//9 19//9
f 20//10 22//10 21//10
f 22//11 24//11 23//11
f 24//12 26//12 25//12
f 26//13 28//13 27//13
f 28//14 30//14 29//14
f 6//15 4//15 2//15
f 2//15 32//15 30//15
f 30//15 28//15 26//15
f 26//15 24//15 22//15
f 22//15 20//15 18//15
f 18//15 16//15 14//15
f 14//15 12//15 10//15
f 10//15 8//15 14//15
f 8//15 6//15 14//15
f 6//15 2//15 30//15
f 30//15 26//15 6//15
f 26//15 22//15 6//15
f 22//15 18//15 14//15
f 30//16 32//16 31//16
f 32//17 2//17 1//17
f 31//18 1//18 3//18
f 3//18 5//18 7//18
f 7//18 9//18 11//18
f 11//18 13//18 15//18
f 15//18 17//18 19//18
f 19//18 21//18 23//18
f 23//18 25//18 27//18
f 27//18 29//18 31//18
f 31//18 3//18 7//18
f 7//18 11//18 15//18
f 15//18 19//18 23//18
f 23//18 27//18 31//18
f 31//18 7//18 15//18
