# Blender v2.83.0 OBJ File: ''
# www.blender.org
o Cylinder.094_Cylinder.1883
v -1.136275 -3.029359 0.124884
v -2.716549 -2.074841 -0.644290
v -0.858278 -2.821249 -0.188005
v -2.438552 -1.866730 -0.957179
v -0.574926 -2.493457 -0.363376
v -2.155200 -1.538938 -1.132550
v -0.329355 -2.095887 -0.374532
v -1.909629 -1.141368 -1.143705
v -0.158953 -1.689065 -0.219773
v -1.739227 -0.734547 -0.988947
v -0.089660 -1.334927 0.077339
v -1.669934 -0.380408 -0.691834
v -0.132027 -1.087386 0.471572
v -1.712301 -0.132867 -0.297601
v -0.279603 -0.984129 0.902908
v -1.859877 -0.029610 0.133734
v -0.509922 -1.040874 1.305679
v -2.090195 -0.086356 0.536505
v -0.787918 -1.248985 1.618567
v -2.368192 -0.294466 0.849393
v -1.071271 -1.576776 1.793939
v -2.651545 -0.622258 1.024765
v -1.316841 -1.974347 1.805094
v -2.897115 -1.019828 1.035921
v -1.487244 -2.381168 1.650336
v -3.067518 -1.426650 0.881162
v -1.556536 -2.735307 1.353223
v -3.136810 -1.780788 0.584049
v -1.514169 -2.982848 0.958990
v -3.094443 -2.028329 0.189816
v -1.366593 -3.086105 0.527654
v -2.946867 -2.131587 -0.241520
vn -0.1482 -0.7576 -0.6356
vn 0.0906 -0.5296 -0.8434
vn 0.3157 -0.2209 -0.9228
vn 0.4927 0.1214 -0.8617
vn 0.5947 0.4452 -0.6694
vn 0.6062 0.7013 -0.3752
vn 0.5254 0.8505 -0.0239
vn 0.3646 0.8703 0.3311
vn 0.1482 0.7576 0.6356
vn -0.0906 0.5296 0.8434
vn -0.3157 0.2209 0.9228
vn -0.4927 -0.1214 0.8617
vn -0.5947 -0.4452 0.6694
vn -0.6062 -0.7013 0.3752
vn -0.7901 0.4773 -0.3846
vn -0.5254 -0.8505 0.0239
vn -0.3646 -0.8703 -0.3311
vn 0.7901 -0.4773 0.3846
s off
f 2//1 3//1 1//1
f 4//2 5//2 3//2
f 6//3 7//3 5//3
f 8//4 9//4 7//4
f 10//5 11//5 9//5
f 12//6 13//6 11//6
f 14//7 15//7 13//7
f 16//8 17//8 15//8
f 18//9 19//9 17//9
f 20//10 21//10 19//10
f 22//11 23//11 21//11
f 23//12 26//12 25//12
f 26//13 27//13 25//13
f 28//14 29//14 27//14
f 14//15 10//15 6//15
f 30//16 31//16 29//16
f 32//17 1//17 31//17
f 15//18 23//18 31//18
f 2//1 4//1 3//1
f 4//2 6//2 5//2
f 6//3 8//3 7//3
f 8//4 10//4 9//4
f 10//5 12//5 11//5
f 12//6 14//6 13//6
f 14//7 16//7 15//7
f 16//8 18//8 17//8
f 18//9 20//9 19//9
f 20//10 22//10 21//10
f 22//11 24//11 23//11
f 23//12 24//12 26//12
f 26//13 28//13 27//13
f 28//14 30//14 29//14
f 6//15 4//15 2//15
f 2//15 32//15 30//15
f 30//15 28//15 26//15
f 26//15 24//15 22//15
f 22//15 20//15 18//15
f 18//15 16//15 14//15
f 14//15 12//15 10//15
f 10//15 8//15 6//15
f 6//15 2//15 30//15
f 30//15 26//15 6//15
f 26//15 22//15 6//15
f 22//15 18//15 6//15
f 18//15 14//15 6//15
f 30//16 32//16 31//16
f 32//17 2//17 1//17
f 31//18 1//18 3//18
f 3//18 5//18 7//18
f 7//18 9//18 15//18
f 9//18 11//18 15//18
f 11//18 13//18 15//18
f 15//18 17//18 23//18
f 17//18 19//18 23//18
f 19//18 21//18 23//18
f 23//18 25//18 27//18
f 27//18 29//18 31//18
f 31//18 3//18 15//18
f 3//18 7//18 15//18
f 23//18 27//18 31//18
