# Blender v2.83.0 OBJ File: ''
# www.blender.org
o Cylinder.015_Cylinder.1804
v 1.606722 2.075536 2.382073
v 0.384094 0.513462 2.126914
v 1.888078 1.823004 2.579911
v 0.665451 0.260929 2.324752
v 2.219479 1.557148 2.619518
v 0.996852 -0.004926 2.364358
v 2.550471 1.318445 2.494863
v 1.327844 -0.243630 2.239703
v 2.830664 1.143233 2.224924
v 1.608037 -0.418842 1.969764
v 3.017401 1.058187 1.850798
v 1.794773 -0.503887 1.595638
v 3.082253 1.076256 1.429441
v 1.859625 -0.485819 1.174281
v 3.015346 1.194687 1.025001
v 1.792719 -0.367388 0.769841
v 2.826868 1.395451 0.699051
v 1.604240 -0.166624 0.443891
v 2.545511 1.647983 0.501213
v 1.322884 0.085908 0.246053
v 2.214111 1.913838 0.461606
v 0.991483 0.351764 0.206447
v 1.883118 2.152542 0.586261
v 0.660491 0.590467 0.331101
v 1.602926 2.327754 0.856200
v 0.380298 0.765679 0.601040
v 1.416189 2.412799 1.230326
v 0.193561 0.850725 0.975167
v 1.351337 2.394731 1.651684
v 0.128710 0.832657 1.396524
v 1.418243 2.276300 2.056123
v 0.195616 0.714225 1.800964
vn -0.4376 0.1993 0.8768
vn -0.1520 -0.0423 0.9875
vn 0.1568 -0.2776 0.9478
vn 0.4417 -0.4705 0.7639
vn 0.6594 -0.5918 0.4636
vn 0.7767 -0.6230 0.0928
vn 0.7757 -0.5594 -0.2921
vn 0.6566 -0.4106 -0.6326
vn 0.4376 -0.1993 -0.8768
vn 0.1520 0.0423 -0.9875
vn -0.1568 0.2776 -0.9478
vn -0.4417 0.4705 -0.7639
vn -0.6594 0.5918 -0.4636
vn -0.7767 0.6230 -0.0928
vn -0.6113 -0.7810 -0.1276
vn -0.7757 0.5594 0.2921
vn -0.6566 0.4106 0.6326
vn 0.6113 0.7810 0.1276
s off
f 2//1 3//1 1//1
f 4//2 5//2 3//2
f 6//3 7//3 5//3
f 8//4 9//4 7//4
f 10//5 11//5 9//5
f 12//6 13//6 11//6
f 14//7 15//7 13//7
f 16//8 17//8 15//8
f 18//9 19//9 17//9
f 20//10 21//10 19//10
f 22//11 23//11 21//11
f 24//12 25//12 23//12
f 26//13 27//13 25//13
f 28//14 29//14 27//14
f 22//15 14//15 6//15
f 30//16 31//16 29//16
f 32//17 1//17 31//17
f 31//18 7//18 15//18
f 2//1 4//1 3//1
f 4//2 6//2 5//2
f 6//3 8//3 7//3
f 8//4 10//4 9//4
f 10//5 12//5 11//5
f 12//6 14//6 13//6
f 14//7 16//7 15//7
f 16//8 18//8 17//8
f 18//9 20//9 19//9
f 20//10 22//10 21//10
f 22//11 24//11 23//11
f 24//12 26//12 25//12
f 26//13 28//13 27//13
f 28//14 30//14 29//14
f 6//15 4//15 2//15
f 2//15 32//15 30//15
f 30//15 28//15 26//15
f 26//15 24//15 22//15
f 22//15 20//15 18//15
f 18//15 16//15 14//15
f 14//15 12//15 10//15
f 10//15 8//15 6//15
f 6//15 2//15 30//15
f 30//15 26//15 6//15
f 26//15 22//15 6//15
f 22//15 18//15 14//15
f 14//15 10//15 6//15
f 30//16 32//16 31//16
f 32//17 2//17 1//17
f 31//18 1//18 7//18
f 1//18 3//18 7//18
f 3//18 5//18 7//18
f 7//18 9//18 11//18
f 11//18 13//18 7//18
f 13//18 15//18 7//18
f 15//18 17//18 19//18
f 19//18 21//18 23//18
f 23//18 25//18 27//18
f 27//18 29//18 31//18
f 15//18 19//18 23//18
f 23//18 27//18 15//18
f 27//18 31//18 15//18
