# Blender v2.83.0 OBJ File: ''
# www.blender.org
o Cylinder.006_Cylinder.1795
v -0.821506 0.756703 0.225841
v -0.843293 1.255542 2.162510
v -0.969246 0.473450 0.297138
v -0.991033 0.972289 2.233807
v -1.217509 0.266209 0.347726
v -1.239296 0.765048 2.284394
v -1.528499 0.166529 0.369902
v -1.550287 0.665368 2.306571
v -1.854871 0.189587 0.360291
v -1.876659 0.688426 2.296960
v -2.146938 0.331872 0.320357
v -2.168725 0.830711 2.257025
v -2.360234 0.571722 0.256177
v -2.382022 1.070562 2.192846
v -2.462289 0.872623 0.177524
v -2.484076 1.371462 2.114193
v -2.437564 1.188765 0.096372
v -2.459351 1.687604 2.033041
v -2.289824 1.472018 0.025075
v -2.311611 1.970857 1.961743
v -2.041561 1.679260 -0.025513
v -2.063349 2.178099 1.911156
v -1.730571 1.778939 -0.047689
v -1.752358 2.277779 1.888979
v -1.404199 1.755882 -0.038078
v -1.425986 2.254721 1.898590
v -1.112132 1.613596 0.001857
v -1.133919 2.112435 1.938525
v -0.898835 1.373746 0.066036
v -0.920623 1.872585 2.002705
v -0.796781 1.072845 0.144689
v -0.818568 1.571684 2.081357
vn 0.8923 -0.4347 0.1220
vn 0.6516 -0.7328 0.1961
vn 0.3118 -0.9193 0.2403
vn -0.0755 -0.9658 0.2479
vn -0.4514 -0.8654 0.2178
vn -0.7585 -0.6331 0.1545
vn -0.9501 -0.3045 0.0678
vn -0.9971 0.0704 -0.0294
vn -0.8923 0.4347 -0.1220
vn -0.6516 0.7328 -0.1961
vn -0.3118 0.9193 -0.2403
vn 0.0755 0.9658 -0.2479
vn 0.4514 0.8654 -0.2178
vn 0.7585 0.6331 -0.1545
vn -0.0109 0.2494 0.9683
vn 0.9501 0.3045 -0.0678
vn 0.9971 -0.0704 0.0294
vn 0.0109 -0.2494 -0.9683
vn 0.9501 0.3045 -0.0677
s off
f 2//1 3//1 1//1
f 4//2 5//2 3//2
f 6//3 7//3 5//3
f 8//4 9//4 7//4
f 10//5 11//5 9//5
f 12//6 13//6 11//6
f 14//7 15//7 13//7
f 16//8 17//8 15//8
f 18//9 19//9 17//9
f 20//10 21//10 19//10
f 22//11 23//11 21//11
f 24//12 25//12 23//12
f 26//13 27//13 25//13
f 28//14 29//14 27//14
f 30//15 22//15 14//15
f 30//16 31//16 29//16
f 32//17 1//17 31//17
f 15//18 23//18 31//18
f 2//1 4//1 3//1
f 4//2 6//2 5//2
f 6//3 8//3 7//3
f 8//4 10//4 9//4
f 10//5 12//5 11//5
f 12//6 14//6 13//6
f 14//7 16//7 15//7
f 16//8 18//8 17//8
f 18//9 20//9 19//9
f 20//10 22//10 21//10
f 22//11 24//11 23//11
f 24//12 26//12 25//12
f 26//13 28//13 27//13
f 28//14 30//14 29//14
f 6//15 4//15 2//15
f 2//15 32//15 30//15
f 30//15 28//15 26//15
f 26//15 24//15 30//15
f 24//15 22//15 30//15
f 22//15 20//15 18//15
f 18//15 16//15 14//15
f 14//15 12//15 10//15
f 10//15 8//15 6//15
f 6//15 2//15 30//15
f 22//15 18//15 14//15
f 14//15 10//15 6//15
f 6//15 30//15 14//15
f 30//19 32//19 31//19
f 32//17 2//17 1//17
f 31//18 1//18 3//18
f 3//18 5//18 7//18
f 7//18 9//18 11//18
f 11//18 13//18 7//18
f 13//18 15//18 7//18
f 15//18 17//18 19//18
f 19//18 21//18 23//18
f 23//18 25//18 27//18
f 27//18 29//18 31//18
f 31//18 3//18 15//18
f 3//18 7//18 15//18
f 15//18 19//18 23//18
f 23//18 27//18 31//18
