# Blender v2.83.0 OBJ File: ''
# www.blender.org
o Cylinder.064_Cylinder.1853
v -0.779243 0.411138 -2.832768
v -2.773994 0.267260 -2.849151
v -0.831710 1.123282 -2.698643
v -2.826461 0.979404 -2.715026
v -0.878724 1.729859 -2.301474
v -2.873475 1.585982 -2.317857
v -0.913126 2.138526 -1.701725
v -2.907876 1.994648 -1.718108
v -0.929679 2.287065 -0.990703
v -2.924430 2.143187 -1.007086
v -0.925864 2.152862 -0.276654
v -2.920615 2.008984 -0.293037
v -0.902261 1.756350 0.331714
v -2.897012 1.612472 0.315331
v -0.862463 1.157894 0.741782
v -2.857214 1.014016 0.725399
v -0.812530 0.448602 0.891122
v -2.807281 0.304724 0.874739
v -0.760063 -0.263541 0.756998
v -2.754814 -0.407419 0.740615
v -0.713049 -0.870119 0.359828
v -2.707800 -1.013997 0.343445
v -0.678647 -1.278785 -0.239921
v -2.673398 -1.422663 -0.256304
v -0.662094 -1.427324 -0.950943
v -2.656844 -1.571202 -0.967326
v -0.665909 -1.293122 -1.664992
v -2.660660 -1.437000 -1.681375
v -0.689512 -0.896610 -2.273360
v -2.684263 -1.040487 -2.289743
v -0.729310 -0.298152 -2.683428
v -2.724061 -0.442030 -2.699811
vn -0.0053 0.1847 -0.9828
vn -0.0325 0.5457 -0.8373
vn -0.0548 0.8237 -0.5644
vn -0.0687 0.9762 -0.2055
vn -0.0722 0.9802 0.1846
vn -0.0647 0.8349 0.5466
vn -0.0473 0.5625 0.8255
vn -0.0228 0.2044 0.9786
vn 0.0053 -0.1847 0.9828
vn 0.0325 -0.5457 0.8373
vn 0.0548 -0.8237 0.5644
vn 0.0687 -0.9762 0.2055
vn 0.0722 -0.9802 -0.1846
vn 0.0647 -0.8349 -0.5466
vn -0.9974 -0.0719 -0.0082
vn 0.0473 -0.5625 -0.8255
vn 0.0228 -0.2044 -0.9786
vn 0.9974 0.0719 0.0082
s off
f 2//1 3//1 1//1
f 4//2 5//2 3//2
f 6//3 7//3 5//3
f 8//4 9//4 7//4
f 10//5 11//5 9//5
f 12//6 13//6 11//6
f 14//7 15//7 13//7
f 16//8 17//8 15//8
f 18//9 19//9 17//9
f 20//10 21//10 19//10
f 22//11 23//11 21//11
f 24//12 25//12 23//12
f 26//13 27//13 25//13
f 28//14 29//14 27//14
f 22//15 14//15 6//15
f 30//16 31//16 29//16
f 32//17 1//17 31//17
f 31//18 7//18 15//18
f 2//1 4//1 3//1
f 4//2 6//2 5//2
f 6//3 8//3 7//3
f 8//4 10//4 9//4
f 10//5 12//5 11//5
f 12//6 14//6 13//6
f 14//7 16//7 15//7
f 16//8 18//8 17//8
f 18//9 20//9 19//9
f 20//10 22//10 21//10
f 22//11 24//11 23//11
f 24//12 26//12 25//12
f 26//13 28//13 27//13
f 28//14 30//14 29//14
f 6//15 4//15 2//15
f 2//15 32//15 30//15
f 30//15 28//15 26//15
f 26//15 24//15 22//15
f 22//15 20//15 18//15
f 18//15 16//15 14//15
f 14//15 12//15 10//15
f 10//15 8//15 6//15
f 6//15 2//15 30//15
f 30//15 26//15 22//15
f 22//15 18//15 14//15
f 14//15 10//15 6//15
f 6//15 30//15 22//15
f 30//16 32//16 31//16
f 32//17 2//17 1//17
f 31//18 1//18 7//18
f 1//18 3//18 7//18
f 3//18 5//18 7//18
f 7//18 9//18 11//18
f 11//18 13//18 7//18
f 13//18 15//18 7//18
f 15//18 17//18 23//18
f 17//18 19//18 23//18
f 19//18 21//18 23//18
f 23//18 25//18 27//18
f 27//18 29//18 31//18
f 23//18 27//18 15//18
f 27//18 31//18 15//18
