# Blender v2.83.0 OBJ File: ''
# www.blender.org
o Cylinder.053_Cylinder.1842
v 0.682943 -0.065940 0.479944
v 1.949732 -1.592580 0.225749
v 0.727809 0.023486 0.166462
v 1.994598 -1.503154 -0.087733
v 0.673339 0.032302 -0.157940
v 1.940128 -1.494338 -0.412135
v 0.527826 -0.040834 -0.443873
v 1.794615 -1.567474 -0.698068
v 0.313422 -0.184787 -0.647808
v 1.580211 -1.711427 -0.902003
v 0.062769 -0.377643 -0.738697
v 1.329558 -1.904283 -0.992892
v -0.185974 -0.590040 -0.702703
v 1.080816 -2.116680 -0.956898
v -0.394937 -0.789643 -0.545306
v 0.871852 -2.316283 -0.799501
v -0.532308 -0.946065 -0.290469
v 0.734481 -2.472705 -0.544663
v -0.577174 -1.035491 0.023013
v 0.689615 -2.562130 -0.231181
v -0.522705 -1.044307 0.347415
v 0.744085 -2.570947 0.093220
v -0.377191 -0.971171 0.633349
v 0.889598 -2.497811 0.379154
v -0.162787 -0.827218 0.837284
v 1.104002 -2.353858 0.583089
v 0.087866 -0.634362 0.928173
v 1.354655 -2.161002 0.673978
v 0.336608 -0.421965 0.892179
v 1.603398 -1.948605 0.637984
v 0.545572 -0.222362 0.734781
v 1.812361 -1.749002 0.480586
vn 0.7617 0.5861 0.2762
vn 0.7559 0.6455 -0.1094
vn 0.6350 0.6066 -0.4783
vn 0.4175 0.4754 -0.7744
vn 0.1363 0.2718 -0.9527
vn -0.1655 0.0268 -0.9858
vn -0.4422 -0.2223 -0.8689
vn -0.6516 -0.4375 -0.6197
vn -0.7617 -0.5861 -0.2762
vn -0.7559 -0.6455 0.1094
vn -0.6350 -0.6066 0.4783
vn -0.4175 -0.4754 0.7744
vn -0.1363 -0.2718 0.9527
vn 0.1655 -0.0268 0.9858
vn 0.6334 -0.7633 -0.1271
vn 0.4422 0.2223 0.8689
vn 0.6516 0.4375 0.6197
vn -0.6334 0.7633 0.1271
s off
f 1//1 4//1 3//1
f 4//2 5//2 3//2
f 6//3 7//3 5//3
f 8//4 9//4 7//4
f 10//5 11//5 9//5
f 12//6 13//6 11//6
f 14//7 15//7 13//7
f 16//8 17//8 15//8
f 18//9 19//9 17//9
f 20//10 21//10 19//10
f 22//11 23//11 21//11
f 23//12 26//12 25//12
f 26//13 27//13 25//13
f 28//14 29//14 27//14
f 10//15 6//15 22//15
f 30//16 31//16 29//16
f 32//17 1//17 31//17
f 31//18 7//18 15//18
f 1//1 2//1 4//1
f 4//2 6//2 5//2
f 6//3 8//3 7//3
f 8//4 10//4 9//4
f 10//5 12//5 11//5
f 12//6 14//6 13//6
f 14//7 16//7 15//7
f 16//8 18//8 17//8
f 18//9 20//9 19//9
f 20//10 22//10 21//10
f 22//11 24//11 23//11
f 23//12 24//12 26//12
f 26//13 28//13 27//13
f 28//14 30//14 29//14
f 6//15 4//15 2//15
f 2//15 32//15 30//15
f 30//15 28//15 26//15
f 26//15 24//15 30//15
f 24//15 22//15 30//15
f 22//15 20//15 18//15
f 18//15 16//15 22//15
f 16//15 14//15 22//15
f 14//15 12//15 10//15
f 10//15 8//15 6//15
f 6//15 2//15 22//15
f 2//15 30//15 22//15
f 14//15 10//15 22//15
f 30//16 32//16 31//16
f 32//17 2//17 1//17
f 31//18 1//18 3//18
f 3//18 5//18 7//18
f 7//18 9//18 11//18
f 11//18 13//18 15//18
f 15//18 17//18 23//18
f 17//18 19//18 23//18
f 19//18 21//18 23//18
f 23//18 25//18 27//18
f 27//18 29//18 31//18
f 31//18 3//18 7//18
f 7//18 11//18 15//18
f 23//18 27//18 15//18
f 27//18 31//18 15//18
