# Blender v2.83.0 OBJ File: ''
# www.blender.org
o Cylinder.051_Cylinder.1840
v 1.695082 0.486687 1.177232
v 1.741926 -1.497589 1.423110
v 1.349649 0.430750 0.791620
v 1.396492 -1.553526 1.037498
v 0.881472 0.391866 0.567015
v 0.928316 -1.592410 0.812893
v 0.361826 0.375955 0.537611
v 0.408670 -1.608321 0.783489
v -0.130176 0.385439 0.707884
v -0.083332 -1.598837 0.953762
v -0.519633 0.418874 1.051911
v -0.472789 -1.565401 1.297789
v -0.747252 0.471171 1.517318
v -0.700408 -1.513105 1.763196
v -0.778381 0.534367 2.033250
v -0.731537 -1.449909 2.279128
v -0.608281 0.598841 2.521163
v -0.561438 -1.385434 2.767040
v -0.262848 0.654778 2.906774
v -0.216005 -1.329497 3.152652
v 0.205328 0.693662 3.131379
v 0.252172 -1.290613 3.377257
v 0.724974 0.709573 3.160783
v 0.771818 -1.274702 3.406661
v 1.216977 0.700089 2.990510
v 1.263820 -1.284186 3.236389
v 1.606433 0.666654 2.646483
v 1.653277 -1.317622 2.892361
v 1.834053 0.614357 2.181076
v 1.880896 -1.369918 2.426954
v 1.865182 0.551161 1.665143
v 1.912025 -1.433114 1.911021
vn 0.7479 -0.0642 -0.6607
vn 0.4371 -0.1004 -0.8938
vn 0.0598 -0.1214 -0.9908
vn -0.3267 -0.1238 -0.9370
vn -0.6634 -0.1074 -0.7405
vn -0.8991 -0.0747 -0.4313
vn -0.9979 -0.0306 -0.0565
vn -0.9449 0.0182 0.3270
vn -0.7479 0.0642 0.6607
vn -0.4371 0.1004 0.8938
vn -0.0598 0.1214 0.9908
vn 0.3267 0.1238 0.9370
vn 0.6634 0.1074 0.7405
vn 0.8991 0.0747 0.4313
vn 0.0234 -0.9921 0.1229
vn 0.9979 0.0306 0.0565
vn 0.9449 -0.0182 -0.3270
vn -0.0234 0.9921 -0.1229
s off
f 2//1 3//1 1//1
f 4//2 5//2 3//2
f 6//3 7//3 5//3
f 8//4 9//4 7//4
f 10//5 11//5 9//5
f 12//6 13//6 11//6
f 14//7 15//7 13//7
f 16//8 17//8 15//8
f 18//9 19//9 17//9
f 20//10 21//10 19//10
f 22//11 23//11 21//11
f 24//12 25//12 23//12
f 25//13 28//13 27//13
f 28//14 29//14 27//14
f 22//15 14//15 6//15
f 30//16 31//16 29//16
f 32//17 1//17 31//17
f 31//18 7//18 15//18
f 2//1 4//1 3//1
f 4//2 6//2 5//2
f 6//3 8//3 7//3
f 8//4 10//4 9//4
f 10//5 12//5 11//5
f 12//6 14//6 13//6
f 14//7 16//7 15//7
f 16//8 18//8 17//8
f 18//9 20//9 19//9
f 20//10 22//10 21//10
f 22//11 24//11 23//11
f 24//12 26//12 25//12
f 25//13 26//13 28//13
f 28//14 30//14 29//14
f 6//15 4//15 2//15
f 2//15 32//15 30//15
f 30//15 28//15 26//15
f 26//15 24//15 22//15
f 22//15 20//15 14//15
f 20//15 18//15 14//15
f 18//15 16//15 14//15
f 14//15 12//15 6//15
f 12//15 10//15 6//15
f 10//15 8//15 6//15
f 6//15 2//15 22//15
f 2//15 30//15 22//15
f 30//15 26//15 22//15
f 30//16 32//16 31//16
f 32//17 2//17 1//17
f 31//18 1//18 3//18
f 3//18 5//18 31//18
f 5//18 7//18 31//18
f 7//18 9//18 11//18
f 11//18 13//18 7//18
f 13//18 15//18 7//18
f 15//18 17//18 19//18
f 19//18 21//18 23//18
f 23//18 25//18 27//18
f 27//18 29//18 31//18
f 15//18 19//18 31//18
f 19//18 23//18 31//18
f 23//18 27//18 31//18
