# Blender v2.83.0 OBJ File: ''
# www.blender.org
o Cylinder.005_Cylinder.1794
v -0.166730 -1.034999 0.101243
v -2.032903 -0.568250 0.648547
v -0.350179 -1.610510 -0.033470
v -2.216352 -1.143761 0.513834
v -0.567902 -2.074898 -0.379814
v -2.434075 -1.608150 0.167490
v -0.786752 -2.357465 -0.885061
v -2.652925 -1.890717 -0.337757
v -0.973411 -2.415193 -1.472292
v -2.839584 -1.948444 -0.924988
v -1.099462 -2.239293 -2.052106
v -2.965635 -1.772544 -1.504802
v -1.145715 -1.856543 -2.536232
v -3.011888 -1.389795 -1.988927
v -1.105129 -1.325216 -2.850965
v -2.971302 -0.858467 -2.303661
v -0.983881 -0.726199 -2.948391
v -2.850055 -0.259450 -2.401087
v -0.800432 -0.150688 -2.813679
v -2.666605 0.316060 -2.266375
v -0.582710 0.313700 -2.467335
v -2.448883 0.780449 -1.920031
v -0.363860 0.596268 -1.962088
v -2.230033 1.063016 -1.414783
v -0.177201 0.653996 -1.374857
v -2.043374 1.120744 -0.827553
v -0.051149 0.478095 -0.795043
v -1.917323 0.944844 -0.247738
v -0.004896 0.095346 -0.310917
v -1.871070 0.562094 0.236387
v -0.045483 -0.435983 0.003817
v -1.911656 0.030766 0.551121
vn 0.2037 -0.2842 0.9369
vn 0.0747 -0.6185 0.7823
vn -0.0656 -0.8585 0.5086
vn -0.1959 -0.9679 0.1574
vn -0.2964 -0.9299 -0.2177
vn -0.3518 -0.7504 -0.5596
vn -0.3536 -0.4566 -0.8164
vn -0.3016 -0.0933 -0.9489
vn -0.2037 0.2842 -0.9369
vn -0.0747 0.6185 -0.7823
vn 0.0656 0.8585 -0.5086
vn 0.1959 0.9679 -0.1574
vn 0.2964 0.9299 0.2177
vn 0.3518 0.7504 0.5596
vn -0.9331 0.2334 0.2737
vn 0.3536 0.4566 0.8164
vn 0.3016 0.0933 0.9489
vn 0.9331 -0.2334 -0.2737
s off
f 2//1 3//1 1//1
f 4//2 5//2 3//2
f 6//3 7//3 5//3
f 8//4 9//4 7//4
f 10//5 11//5 9//5
f 12//6 13//6 11//6
f 14//7 15//7 13//7
f 16//8 17//8 15//8
f 18//9 19//9 17//9
f 20//10 21//10 19//10
f 22//11 23//11 21//11
f 24//12 25//12 23//12
f 26//13 27//13 25//13
f 28//14 29//14 27//14
f 30//15 22//15 14//15
f 30//16 31//16 29//16
f 32//17 1//17 31//17
f 15//18 23//18 31//18
f 2//1 4//1 3//1
f 4//2 6//2 5//2
f 6//3 8//3 7//3
f 8//4 10//4 9//4
f 10//5 12//5 11//5
f 12//6 14//6 13//6
f 14//7 16//7 15//7
f 16//8 18//8 17//8
f 18//9 20//9 19//9
f 20//10 22//10 21//10
f 22//11 24//11 23//11
f 24//12 26//12 25//12
f 26//13 28//13 27//13
f 28//14 30//14 29//14
f 6//15 4//15 30//15
f 4//15 2//15 30//15
f 2//15 32//15 30//15
f 30//15 28//15 26//15
f 26//15 24//15 22//15
f 22//15 20//15 18//15
f 18//15 16//15 14//15
f 14//15 12//15 10//15
f 10//15 8//15 6//15
f 30//15 26//15 22//15
f 22//15 18//15 14//15
f 14//15 10//15 6//15
f 6//15 30//15 14//15
f 30//16 32//16 31//16
f 32//17 2//17 1//17
f 31//18 1//18 7//18
f 1//18 3//18 7//18
f 3//18 5//18 7//18
f 7//18 9//18 11//18
f 11//18 13//18 7//18
f 13//18 15//18 7//18
f 15//18 17//18 19//18
f 19//18 21//18 15//18
f 21//18 23//18 15//18
f 23//18 25//18 27//18
f 27//18 29//18 31//18
f 23//18 27//18 31//18
f 31//18 7//18 15//18
