# Blender v2.83.0 OBJ File: ''
# www.blender.org
o Cylinder.027_Cylinder.1816
v 0.544876 -0.794433 0.594752
v 0.885210 -0.708409 -1.374200
v 0.622510 -1.276281 0.587119
v 0.962843 -1.190256 -1.381833
v 0.875892 -1.692699 0.612722
v 1.216226 -1.606675 -1.356230
v 1.266448 -1.980292 0.667665
v 1.606782 -1.894268 -1.301287
v 1.734719 -2.095277 0.743582
v 2.075052 -2.009252 -1.225370
v 2.209414 -2.020147 0.828916
v 2.549748 -1.934123 -1.140036
v 2.618267 -1.766341 0.910675
v 2.958601 -1.680317 -1.058277
v 2.899032 -1.372499 0.976412
v 3.239366 -1.286475 -0.992540
v 3.008967 -0.898579 1.016120
v 3.349300 -0.812555 -0.952832
v 2.931333 -0.416732 1.023754
v 3.271667 -0.330707 -0.945199
v 2.677951 -0.000313 0.998150
v 3.018285 0.085711 -0.970802
v 2.287395 0.287280 0.943207
v 2.627729 0.373305 -1.025745
v 1.819124 0.402265 0.867290
v 2.159458 0.488289 -1.101662
v 1.344428 0.327135 0.781957
v 1.684762 0.413160 -1.186996
v 0.935575 0.073329 0.700197
v 1.275909 0.159353 -1.268755
v 0.654810 -0.320514 0.634460
v 0.995143 -0.234489 -1.334492
vn -0.9725 -0.1539 -0.1748
vn -0.8376 -0.5200 -0.1675
vn -0.5752 -0.8069 -0.1347
vn -0.2252 -0.9709 -0.0813
vn 0.1590 -0.9871 -0.0156
vn 0.5191 -0.8531 0.0525
vn 0.8001 -0.5892 0.1126
vn 0.9593 -0.2356 0.1555
vn 0.9725 0.1539 0.1748
vn 0.8376 0.5200 0.1675
vn 0.5752 0.8069 0.1347
vn 0.2252 0.9709 0.0813
vn -0.1590 0.9871 0.0156
vn -0.5191 0.8531 -0.0525
vn 0.1702 0.0430 -0.9845
vn -0.8001 0.5892 -0.1126
vn -0.9593 0.2356 -0.1555
vn -0.1702 -0.0430 0.9845
s off
f 2//1 3//1 1//1
f 4//2 5//2 3//2
f 6//3 7//3 5//3
f 8//4 9//4 7//4
f 10//5 11//5 9//5
f 12//6 13//6 11//6
f 14//7 15//7 13//7
f 16//8 17//8 15//8
f 18//9 19//9 17//9
f 20//10 21//10 19//10
f 22//11 23//11 21//11
f 24//12 25//12 23//12
f 26//13 27//13 25//13
f 28//14 29//14 27//14
f 22//15 14//15 6//15
f 30//16 31//16 29//16
f 32//17 1//17 31//17
f 15//18 23//18 31//18
f 2//1 4//1 3//1
f 4//2 6//2 5//2
f 6//3 8//3 7//3
f 8//4 10//4 9//4
f 10//5 12//5 11//5
f 12//6 14//6 13//6
f 14//7 16//7 15//7
f 16//8 18//8 17//8
f 18//9 20//9 19//9
f 20//10 22//10 21//10
f 22//11 24//11 23//11
f 24//12 26//12 25//12
f 26//13 28//13 27//13
f 28//14 30//14 29//14
f 6//15 4//15 30//15
f 4//15 2//15 30//15
f 2//15 32//15 30//15
f 30//15 28//15 26//15
f 26//15 24//15 22//15
f 22//15 20//15 18//15
f 18//15 16//15 14//15
f 14//15 12//15 10//15
f 10//15 8//15 14//15
f 8//15 6//15 14//15
f 30//15 26//15 6//15
f 26//15 22//15 6//15
f 22//15 18//15 14//15
f 30//16 32//16 31//16
f 32//17 2//17 1//17
f 31//18 1//18 3//18
f 3//18 5//18 7//18
f 7//18 9//18 11//18
f 11//18 13//18 15//18
f 15//18 17//18 19//18
f 19//18 21//18 15//18
f 21//18 23//18 15//18
f 23//18 25//18 27//18
f 27//18 29//18 23//18
f 29//18 31//18 23//18
f 31//18 3//18 15//18
f 3//18 7//18 15//18
f 7//18 11//18 15//18
