# Blender v2.83.0 OBJ File: ''
# www.blender.org
o Cylinder.014_Cylinder.1803
v 0.333243 -0.238991 -0.240626
v -0.177651 -0.277731 1.692632
v 0.254588 -0.516138 -0.266966
v -0.256306 -0.554878 1.666292
v 0.079205 -0.740517 -0.317810
v -0.431689 -0.779257 1.615448
v -0.166206 -0.877970 -0.385418
v -0.677100 -0.916711 1.547840
v -0.444283 -0.907571 -0.459497
v -0.955177 -0.946311 1.473761
v -0.712691 -0.824812 -0.528770
v -1.223585 -0.863552 1.404488
v -0.930568 -0.642294 -0.582690
v -1.441462 -0.681034 1.350568
v -1.064743 -0.387802 -0.613049
v -1.575638 -0.426542 1.320209
v -1.094791 -0.100082 -0.615224
v -1.605685 -0.138822 1.318034
v -1.016136 0.177065 -0.588884
v -1.527030 0.138325 1.344374
v -0.840753 0.401445 -0.538040
v -1.351647 0.362705 1.395218
v -0.595342 0.538898 -0.470432
v -1.106236 0.500158 1.462826
v -0.317265 0.568498 -0.396352
v -0.828159 0.529758 1.536906
v -0.048856 0.485740 -0.327079
v -0.559751 0.446999 1.606179
v 0.169020 0.303221 -0.273159
v -0.341874 0.264481 1.660099
v 0.303196 0.048729 -0.242801
v -0.207698 0.009989 1.690457
vn 0.9278 -0.2861 0.2395
vn 0.7531 -0.6309 0.1864
vn 0.4638 -0.8797 0.1049
vn 0.1039 -0.9946 0.0075
vn -0.2719 -0.9580 -0.0910
vn -0.6062 -0.7756 -0.1758
vn -0.8483 -0.4751 -0.2337
vn -0.9612 -0.1023 -0.2561
vn -0.9278 0.2861 -0.2395
vn -0.7531 0.6309 -0.1864
vn -0.4638 0.8797 -0.1049
vn -0.1039 0.9946 -0.0075
vn 0.2719 0.9580 0.0910
vn 0.6062 0.7756 0.1758
vn -0.2554 -0.0194 0.9666
vn 0.8483 0.4751 0.2337
vn 0.9612 0.1023 0.2561
vn 0.2554 0.0194 -0.9666
s off
f 2//1 3//1 1//1
f 4//2 5//2 3//2
f 6//3 7//3 5//3
f 8//4 9//4 7//4
f 10//5 11//5 9//5
f 12//6 13//6 11//6
f 14//7 15//7 13//7
f 16//8 17//8 15//8
f 18//9 19//9 17//9
f 20//10 21//10 19//10
f 22//11 23//11 21//11
f 24//12 25//12 23//12
f 26//13 27//13 25//13
f 28//14 29//14 27//14
f 30//15 22//15 14//15
f 30//16 31//16 29//16
f 32//17 1//17 31//17
f 7//18 15//18 23//18
f 2//1 4//1 3//1
f 4//2 6//2 5//2
f 6//3 8//3 7//3
f 8//4 10//4 9//4
f 10//5 12//5 11//5
f 12//6 14//6 13//6
f 14//7 16//7 15//7
f 16//8 18//8 17//8
f 18//9 20//9 19//9
f 20//10 22//10 21//10
f 22//11 24//11 23//11
f 24//12 26//12 25//12
f 26//13 28//13 27//13
f 28//14 30//14 29//14
f 6//15 4//15 2//15
f 2//15 32//15 30//15
f 30//15 28//15 26//15
f 26//15 24//15 22//15
f 22//15 20//15 14//15
f 20//15 18//15 14//15
f 18//15 16//15 14//15
f 14//15 12//15 10//15
f 10//15 8//15 14//15
f 8//15 6//15 14//15
f 6//15 2//15 30//15
f 30//15 26//15 22//15
f 6//15 30//15 14//15
f 30//16 32//16 31//16
f 32//17 2//17 1//17
f 31//18 1//18 3//18
f 3//18 5//18 7//18
f 7//18 9//18 11//18
f 11//18 13//18 7//18
f 13//18 15//18 7//18
f 15//18 17//18 19//18
f 19//18 21//18 15//18
f 21//18 23//18 15//18
f 23//18 25//18 27//18
f 27//18 29//18 31//18
f 31//18 3//18 7//18
f 23//18 27//18 31//18
f 31//18 7//18 23//18
