# Blender v2.83.0 OBJ File: ''
# www.blender.org
o Cylinder.068_Cylinder.1857
v 1.365484 -1.884682 -0.312788
v 0.373204 -1.429416 -1.988531
v 1.427073 -1.418914 -0.222718
v 0.434793 -0.963648 -1.898460
v 1.326784 -0.985954 -0.045706
v 0.334504 -0.530688 -1.721448
v 1.079885 -0.651716 0.191300
v 0.087605 -0.196450 -1.484443
v 0.723965 -0.467085 0.452216
v -0.268315 -0.011819 -1.223526
v 0.313208 -0.460169 0.697322
v -0.679072 -0.004902 -0.978420
v -0.089850 -0.632021 0.889302
v -1.082130 -0.176754 -0.786441
v -0.423849 -0.956478 0.998928
v -1.416129 -0.501211 -0.676814
v -0.637939 -1.384144 1.009512
v -1.630219 -0.928878 -0.666231
v -0.699528 -1.849912 0.919442
v -1.691808 -1.394646 -0.756301
v -0.599240 -2.282872 0.742430
v -1.591520 -1.827606 -0.933313
v -0.352341 -2.617110 0.505424
v -1.344621 -2.161844 -1.170318
v 0.003580 -2.801742 0.244508
v -0.988700 -2.346475 -1.431235
v 0.414336 -2.808658 -0.000598
v -0.577944 -2.353391 -1.676341
v 0.817395 -2.636806 -0.192578
v -0.174885 -2.181539 -1.868320
v 1.151394 -2.312348 -0.302205
v 0.159114 -1.857082 -1.977947
vn 0.8586 -0.0145 -0.5124
vn 0.8426 0.3592 -0.4013
vn 0.6982 0.6782 -0.2292
vn 0.4475 0.8940 -0.0221
vn 0.1287 0.9736 0.1883
vn -0.2096 0.9051 0.3700
vn -0.5161 0.6987 0.4954
vn -0.7440 0.3860 0.5454
vn -0.8586 0.0145 0.5124
vn -0.8426 -0.3592 0.4013
vn -0.6982 -0.6782 0.2292
vn -0.4475 -0.8940 0.0221
vn -0.1287 -0.9736 -0.1883
vn 0.2096 -0.9051 -0.3700
vn -0.4961 0.2276 -0.8379
vn 0.5161 -0.6987 -0.4954
vn 0.7440 -0.3860 -0.5454
vn 0.4961 -0.2276 0.8379
s off
f 2//1 3//1 1//1
f 4//2 5//2 3//2
f 6//3 7//3 5//3
f 8//4 9//4 7//4
f 10//5 11//5 9//5
f 12//6 13//6 11//6
f 14//7 15//7 13//7
f 16//8 17//8 15//8
f 18//9 19//9 17//9
f 20//10 21//10 19//10
f 22//11 23//11 21//11
f 24//12 25//12 23//12
f 26//13 27//13 25//13
f 28//14 29//14 27//14
f 22//15 14//15 6//15
f 30//16 31//16 29//16
f 32//17 1//17 31//17
f 15//18 23//18 31//18
f 2//1 4//1 3//1
f 4//2 6//2 5//2
f 6//3 8//3 7//3
f 8//4 10//4 9//4
f 10//5 12//5 11//5
f 12//6 14//6 13//6
f 14//7 16//7 15//7
f 16//8 18//8 17//8
f 18//9 20//9 19//9
f 20//10 22//10 21//10
f 22//11 24//11 23//11
f 24//12 26//12 25//12
f 26//13 28//13 27//13
f 28//14 30//14 29//14
f 6//15 4//15 2//15
f 2//15 32//15 30//15
f 30//15 28//15 26//15
f 26//15 24//15 22//15
f 22//15 20//15 18//15
f 18//15 16//15 14//15
f 14//15 12//15 10//15
f 10//15 8//15 6//15
f 6//15 2//15 30//15
f 30//15 26//15 22//15
f 22//15 18//15 14//15
f 14//15 10//15 6//15
f 6//15 30//15 22//15
f 30//16 32//16 31//16
f 32//17 2//17 1//17
f 31//18 1//18 3//18
f 3//18 5//18 7//18
f 7//18 9//18 11//18
f 11//18 13//18 15//18
f 15//18 17//18 23//18
f 17//18 19//18 23//18
f 19//18 21//18 23//18
f 23//18 25//18 27//18
f 27//18 29//18 31//18
f 31//18 3//18 7//18
f 7//18 11//18 31//18
f 11//18 15//18 31//18
f 23//18 27//18 31//18
