# Blender v2.83.0 OBJ File: ''
# www.blender.org
o Cylinder.055_Cylinder.1844
v -0.660240 -1.856774 1.232439
v -2.537735 -1.528062 0.626667
v -0.603686 -1.626256 1.182245
v -2.481181 -1.297543 0.576473
v -0.574999 -1.388698 1.222240
v -2.452494 -1.059985 0.616468
v -0.578546 -1.180265 1.346337
v -2.456041 -0.851553 0.740565
v -0.613788 -1.032691 1.535642
v -2.491283 -0.703979 0.929870
v -0.675359 -0.968442 1.761336
v -2.552854 -0.639730 1.155564
v -0.753886 -0.997299 1.989058
v -2.631381 -0.668587 1.383286
v -0.837413 -1.114869 2.184140
v -2.714908 -0.786157 1.578368
v -0.913224 -1.303253 2.316882
v -2.790720 -0.974541 1.711110
v -0.969779 -1.533771 2.367077
v -2.847274 -1.205059 1.761304
v -0.998466 -1.771329 2.327081
v -2.875961 -1.442617 1.721309
v -0.994919 -1.979761 2.202984
v -2.872414 -1.651049 1.597212
v -0.959677 -2.127336 2.013679
v -2.837172 -1.798623 1.407907
v -0.898106 -2.191585 1.787985
v -2.775600 -1.862872 1.182213
v -0.819579 -2.162728 1.560263
v -2.697074 -1.834015 0.954491
v -0.736052 -2.045157 1.365181
v -2.613547 -1.716445 0.759409
vn 0.2538 -0.2648 -0.9303
vn 0.3237 0.1189 -0.9387
vn 0.3443 0.4846 -0.8041
vn 0.3125 0.7765 -0.5472
vn 0.2331 0.9502 -0.2069
vn 0.1182 0.9792 0.1649
vn -0.0146 0.8591 0.5115
vn -0.1453 0.6083 0.7803
vn -0.2538 0.2648 0.9303
vn -0.3237 -0.1189 0.9387
vn -0.3443 -0.4846 0.8041
vn -0.3125 -0.7765 0.5472
vn -0.2331 -0.9502 0.2069
vn -0.1182 -0.9792 -0.1649
vn -0.9387 0.1644 -0.3029
vn 0.0146 -0.8591 -0.5115
vn 0.1453 -0.6083 -0.7803
vn 0.9387 -0.1644 0.3029
vn -0.9387 0.1643 -0.3029
s off
f 2//1 3//1 1//1
f 4//2 5//2 3//2
f 6//3 7//3 5//3
f 8//4 9//4 7//4
f 10//5 11//5 9//5
f 12//6 13//6 11//6
f 14//7 15//7 13//7
f 16//8 17//8 15//8
f 18//9 19//9 17//9
f 20//10 21//10 19//10
f 22//11 23//11 21//11
f 24//12 25//12 23//12
f 26//13 27//13 25//13
f 28//14 29//14 27//14
f 22//15 14//15 6//15
f 30//16 31//16 29//16
f 32//17 1//17 31//17
f 7//18 15//18 23//18
f 2//1 4//1 3//1
f 4//2 6//2 5//2
f 6//3 8//3 7//3
f 8//4 10//4 9//4
f 10//5 12//5 11//5
f 12//6 14//6 13//6
f 14//7 16//7 15//7
f 16//8 18//8 17//8
f 18//9 20//9 19//9
f 20//10 22//10 21//10
f 22//11 24//11 23//11
f 24//12 26//12 25//12
f 26//13 28//13 27//13
f 28//14 30//14 29//14
f 6//15 4//15 2//15
f 2//15 32//15 30//15
f 30//15 28//15 26//15
f 26//15 24//15 22//15
f 22//15 20//15 18//15
f 18//19 16//19 14//19
f 14//15 12//15 10//15
f 10//15 8//15 6//15
f 6//15 2//15 30//15
f 30//15 26//15 22//15
f 22//15 18//15 14//15
f 14//15 10//15 6//15
f 6//15 30//15 22//15
f 30//16 32//16 31//16
f 32//17 2//17 1//17
f 31//18 1//18 3//18
f 3//18 5//18 7//18
f 7//18 9//18 11//18
f 11//18 13//18 15//18
f 15//18 17//18 19//18
f 19//18 21//18 23//18
f 23//18 25//18 27//18
f 27//18 29//18 31//18
f 31//18 3//18 7//18
f 7//18 11//18 15//18
f 15//18 19//18 23//18
f 23//18 27//18 31//18
f 31//18 7//18 23//18
