# Blender v2.83.0 OBJ File: ''
# www.blender.org
o Cone.048_Cone.1888
v -1.271679 -2.076746 1.757086
v -0.762048 -2.346389 1.937490
v -0.179554 -2.393517 2.090647
v 0.387124 -2.210954 2.193239
v 0.851713 -1.826495 2.229649
v 1.143484 -1.298669 2.194332
v 1.218018 -0.707835 2.092666
v 1.063967 -0.143939 1.940129
v 0.704785 0.307169 1.759942
v 0.195154 0.576812 1.579538
v -0.387340 0.623940 1.426381
v -0.954018 0.441378 1.323789
v 0.186166 -1.271854 -0.146649
v -1.418607 0.056918 1.287379
v -1.710378 -0.470908 1.322696
v -1.784912 -1.061743 1.424362
v -1.630861 -1.625638 1.576899
vn -0.2426 -0.8129 -0.5295
vn 0.0437 -0.8959 -0.4420
vn 0.3451 -0.8604 -0.3750
vn 0.6155 -0.7117 -0.3385
vn 0.8138 -0.4725 -0.3382
vn 0.9099 -0.1792 -0.3741
vn 0.8890 0.1236 -0.4408
vn 0.7545 0.3898 -0.5281
vn 0.5266 0.5788 -0.6226
vn 0.2403 0.6619 -0.7101
vn -0.0611 0.6264 -0.7771
vn -0.3315 0.4777 -0.8136
vn -0.5299 0.2384 -0.8139
vn -0.6259 -0.0549 -0.7780
vn -0.6051 -0.3577 -0.7113
vn -0.4705 -0.6239 -0.6241
vn -0.2348 0.1935 0.9526
s off
f 1//1 13//1 2//1
f 2//2 13//2 3//2
f 3//3 13//3 4//3
f 4//4 13//4 5//4
f 5//5 13//5 6//5
f 6//6 13//6 7//6
f 7//7 13//7 8//7
f 8//8 13//8 9//8
f 9//9 13//9 10//9
f 10//10 13//10 11//10
f 11//11 13//11 12//11
f 12//12 13//12 14//12
f 14//13 13//13 15//13
f 15//14 13//14 16//14
f 16//15 13//15 17//15
f 17//16 13//16 1//16
f 17//17 4//17 8//17
f 17//17 1//17 2//17
f 2//17 3//17 4//17
f 4//17 5//17 6//17
f 6//17 7//17 4//17
f 7//17 8//17 4//17
f 8//17 9//17 12//17
f 9//17 10//17 12//17
f 10//17 11//17 12//17
f 12//17 14//17 15//17
f 15//17 16//17 17//17
f 17//17 2//17 4//17
f 12//17 15//17 8//17
f 15//17 17//17 8//17
