# Blender v2.83.0 OBJ File: ''
# www.blender.org
o Cone.003_Cone.1843
v -0.257822 -0.397011 -0.776598
v -0.160230 -0.681787 -1.328142
v -0.064076 -1.158046 -1.726583
v 0.016001 -1.753281 -1.911262
v 0.067811 -2.376873 -1.854062
v 0.083464 -2.933886 -1.563692
v 0.060580 -3.339520 -1.084358
v 0.002640 -3.532020 -0.489035
v -0.081533 -3.482080 0.131645
v -0.179125 -3.197304 0.683190
v -0.275279 -2.721046 1.081631
v -0.355357 -2.125811 1.266309
v 1.805424 -1.752263 -0.069693
v -0.407166 -1.502218 1.209109
v -0.422820 -0.945205 0.918739
v -0.399935 -0.539571 0.439406
v -0.341996 -0.347071 -0.155918
vn 0.5925 0.7537 -0.2843
vn 0.6406 0.5647 -0.5203
vn 0.6844 0.2985 -0.6652
vn 0.7172 -0.0043 -0.6969
vn 0.7339 -0.2976 -0.6105
vn 0.7321 -0.5368 -0.4193
vn 0.7121 -0.6854 -0.1523
vn 0.6768 -0.7208 0.1498
vn 0.6316 -0.6377 0.4410
vn 0.5835 -0.4486 0.6770
vn 0.5397 -0.1824 0.8219
vn 0.5069 0.1204 0.8535
vn 0.4902 0.4137 0.7672
vn 0.4920 0.6529 0.5760
vn 0.5120 0.8015 0.3090
vn 0.5473 0.8369 0.0069
vn -0.9876 -0.0936 -0.1264
s off
f 1//1 13//1 2//1
f 2//2 13//2 3//2
f 3//3 13//3 4//3
f 4//4 13//4 5//4
f 5//5 13//5 6//5
f 6//6 13//6 7//6
f 7//7 13//7 8//7
f 8//8 13//8 9//8
f 9//9 13//9 10//9
f 10//10 13//10 11//10
f 11//11 13//11 12//11
f 12//12 13//12 14//12
f 14//13 13//13 15//13
f 15//14 13//14 16//14
f 16//15 13//15 17//15
f 17//16 13//16 1//16
f 15//17 17//17 8//17
f 17//17 1//17 4//17
f 1//17 2//17 4//17
f 2//17 3//17 4//17
f 4//17 5//17 6//17
f 6//17 7//17 8//17
f 8//17 9//17 10//17
f 10//17 11//17 12//17
f 12//17 14//17 15//17
f 15//17 16//17 17//17
f 4//17 6//17 17//17
f 6//17 8//17 17//17
f 8//17 10//17 12//17
f 12//17 15//17 8//17
