# Blender v2.83.0 OBJ File: ''
# www.blender.org
o Cone.020_Cone.1860
v 2.156128 -2.677282 -3.183550
v 1.700810 -2.321372 -3.385115
v 1.349653 -1.821810 -3.426847
v 1.156116 -1.254651 -3.302392
v 1.149664 -0.706239 -3.030698
v 1.331279 -0.260065 -2.653127
v 1.673312 0.015945 -2.227162
v 2.123692 0.079771 -1.817651
v 2.613852 -0.078303 -1.486938
v 3.069170 -0.434214 -1.285373
v 3.420328 -0.933775 -1.243641
v 1.187417 -2.100174 -0.905564
v 3.613865 -1.500934 -1.368096
v 3.620317 -2.049347 -1.639790
v 3.438702 -2.495521 -2.017361
v 3.096668 -2.771531 -2.443327
v 2.646288 -2.835357 -2.852839
vn -0.6003 -0.7980 -0.0531
vn -0.8080 -0.5777 -0.1158
vn -0.9483 -0.3029 -0.0945
vn -0.9999 -0.0155 0.0076
vn -0.9547 0.2407 0.1748
vn -0.8198 0.4267 0.3818
vn -0.6157 0.5142 0.5970
vn -0.3734 0.4900 0.7877
vn -0.1299 0.3576 0.9248
vn 0.0778 0.1372 0.9875
vn 0.2181 -0.1376 0.9662
vn 0.2697 -0.4249 0.8641
vn 0.2245 -0.6811 0.6969
vn 0.0897 -0.8672 0.4899
vn -0.1145 -0.9547 0.2747
vn -0.3567 -0.9304 0.0840
vn 0.5988 0.3612 -0.7148
s off
f 1//1 12//1 2//1
f 2//2 12//2 3//2
f 3//3 12//3 4//3
f 4//4 12//4 5//4
f 5//5 12//5 6//5
f 6//6 12//6 7//6
f 7//7 12//7 8//7
f 8//8 12//8 9//8
f 9//9 12//9 10//9
f 10//10 12//10 11//10
f 11//11 12//11 13//11
f 13//12 12//12 14//12
f 14//13 12//13 15//13
f 15//14 12//14 16//14
f 16//15 12//15 17//15
f 17//16 12//16 1//16
f 4//17 8//17 13//17
f 17//17 1//17 2//17
f 2//17 3//17 4//17
f 4//17 5//17 6//17
f 6//17 7//17 8//17
f 8//17 9//17 10//17
f 10//17 11//17 8//17
f 11//17 13//17 8//17
f 13//17 14//17 15//17
f 15//17 16//17 17//17
f 17//17 2//17 4//17
f 4//17 6//17 8//17
f 13//17 15//17 17//17
f 17//17 4//17 13//17
