# Blender v2.83.0 OBJ File: ''
# www.blender.org
o Cone_Cone.1840
v 0.291427 -2.161071 -1.382589
v 0.662011 -1.790494 -1.561022
v 1.065966 -1.413532 -1.526131
v 1.441793 -1.087572 -1.283228
v 1.732276 -0.862239 -0.869293
v 1.893191 -0.771838 -0.347343
v 1.900042 -0.830133 0.203159
v 1.751783 -1.028247 0.698404
v 1.470988 -1.336020 1.062997
v 1.100404 -1.706596 1.241430
v 0.696449 -2.083558 1.206539
v 0.320622 -2.409518 0.963636
v -0.486194 -0.299014 0.010713
v 0.030139 -2.634851 0.549700
v -0.130776 -2.725252 0.027750
v -0.137626 -2.666958 -0.522752
v 0.010632 -2.468843 -1.017998
vn -0.6291 0.2799 -0.7252
vn -0.4007 0.5004 -0.7675
vn -0.1707 0.7077 -0.6856
vn 0.0258 0.8703 -0.4919
vn 0.1590 0.9634 -0.2159
vn 0.2084 0.9729 0.1004
vn 0.1667 0.8972 0.4088
vn 0.0402 0.7480 0.6624
vn -0.1519 0.5480 0.8226
vn -0.3803 0.3275 0.8649
vn -0.6103 0.1202 0.7830
vn -0.8068 -0.0424 0.5893
vn -0.9400 -0.1355 0.3133
vn -0.9894 -0.1450 -0.0030
vn -0.9477 -0.0693 -0.3115
vn -0.8212 0.0799 -0.5650
vn 0.6837 -0.7248 -0.0853
s off
f 1//1 13//1 2//1
f 2//2 13//2 3//2
f 3//3 13//3 4//3
f 4//4 13//4 5//4
f 5//5 13//5 6//5
f 6//6 13//6 7//6
f 7//7 13//7 8//7
f 8//8 13//8 9//8
f 9//9 13//9 10//9
f 10//10 13//10 11//10
f 11//11 13//11 12//11
f 12//12 13//12 14//12
f 14//13 13//13 15//13
f 15//14 13//14 16//14
f 16//15 13//15 17//15
f 17//16 13//16 1//16
f 4//17 8//17 12//17
f 17//17 1//17 4//17
f 1//17 2//17 4//17
f 2//17 3//17 4//17
f 4//17 5//17 6//17
f 6//17 7//17 4//17
f 7//17 8//17 4//17
f 8//17 9//17 10//17
f 10//17 11//17 12//17
f 12//17 14//17 17//17
f 14//17 15//17 17//17
f 15//17 16//17 17//17
f 8//17 10//17 12//17
f 17//17 4//17 12//17
