# Blender v2.83.0 OBJ File: ''
# www.blender.org
o Cone.034_Cone.1874
v -3.229453 0.229283 1.019249
v -3.438195 -0.309320 0.723137
v -3.396705 -0.886939 0.429905
v -3.111299 -1.415635 0.184196
v -2.625428 -1.814921 0.023417
v -2.013061 -2.024007 -0.027955
v -1.367426 -2.011063 0.037900
v -0.786814 -1.778059 0.210957
v -0.359619 -1.360469 0.464870
v -0.150877 -0.821866 0.760982
v -0.192367 -0.244247 1.054213
v -1.631993 0.346016 -1.030664
v -0.477773 0.284450 1.299922
v -0.963644 0.683735 1.460702
v -1.576011 0.892822 1.512074
v -2.221647 0.879878 1.446219
v -2.802259 0.646874 1.273162
vn -0.6796 0.5377 -0.4990
vn -0.7193 0.2727 -0.6389
vn -0.6417 0.0100 -0.7669
vn -0.4586 -0.2103 -0.8634
vn -0.1978 -0.3548 -0.9138
vn 0.1009 -0.4014 -0.9103
vn 0.3921 -0.3430 -0.8536
vn 0.6314 -0.1885 -0.7522
vn 0.7824 0.0385 -0.6216
vn 0.8221 0.3036 -0.4817
vn 0.7445 0.5663 -0.3537
vn 0.5613 0.7866 -0.2572
vn 0.3006 0.9311 -0.2068
vn 0.0018 0.9776 -0.2103
vn -0.2893 0.9192 -0.2670
vn -0.5286 0.7648 -0.3684
vn -0.0813 -0.4558 0.8864
s off
f 1//1 12//1 2//1
f 2//2 12//2 3//2
f 3//3 12//3 4//3
f 4//4 12//4 5//4
f 5//5 12//5 6//5
f 6//6 12//6 7//6
f 7//7 12//7 8//7
f 8//8 12//8 9//8
f 9//9 12//9 10//9
f 10//10 12//10 11//10
f 11//11 12//11 13//11
f 13//12 12//12 14//12
f 14//13 12//13 15//13
f 15//14 12//14 16//14
f 16//15 12//15 17//15
f 17//16 12//16 1//16
f 17//17 4//17 8//17
f 17//17 1//17 2//17
f 2//17 3//17 4//17
f 4//17 5//17 6//17
f 6//17 7//17 8//17
f 8//17 9//17 10//17
f 10//17 11//17 13//17
f 13//17 14//17 15//17
f 15//17 16//17 17//17
f 17//17 2//17 4//17
f 4//17 6//17 8//17
f 8//17 10//17 13//17
f 13//17 15//17 8//17
f 15//17 17//17 8//17
