# Blender v2.83.0 OBJ File: ''
# www.blender.org
o Cone.009_Cone.1849
v -1.074196 0.654275 0.144525
v -0.958096 1.123729 0.241959
v -0.697777 1.500002 0.426386
v -0.332870 1.725810 0.669727
v 0.081070 1.766774 0.934937
v 0.481025 1.616659 1.181639
v 0.806105 1.298318 1.372275
v 1.006821 0.860216 1.477823
v 1.052614 0.369051 1.482214
v 0.936514 -0.100404 1.384779
v 0.676196 -0.476677 1.200353
v 0.311289 -0.702485 0.957012
v -1.082795 0.426790 2.499668
v -0.102651 -0.743449 0.691802
v -0.502606 -0.593334 0.445100
v -0.827687 -0.274993 0.254464
v -1.028402 0.163109 0.148916
vn -0.9715 0.2363 0.0193
vn -0.8425 0.5261 0.1159
vn -0.6282 0.7324 0.2625
vn -0.3613 0.8238 0.4367
vn -0.0824 0.7864 0.6122
vn 0.1660 0.6259 0.7620
vn 0.3462 0.3667 0.8635
vn 0.4307 0.0482 0.9012
vn 0.4066 -0.2810 0.8693
vn 0.2776 -0.5708 0.7727
vn 0.0634 -0.7771 0.6261
vn -0.2036 -0.8686 0.4519
vn -0.4825 -0.8311 0.2764
vn -0.7309 -0.6706 0.1266
vn -0.9111 -0.4114 0.0251
vn -0.9956 -0.0929 -0.0126
vn 0.5360 0.0424 -0.8431
vn 0.5360 0.0424 -0.8432
s off
f 1//1 13//1 2//1
f 2//2 13//2 3//2
f 3//3 13//3 4//3
f 4//4 13//4 5//4
f 5//5 13//5 6//5
f 6//6 13//6 7//6
f 7//7 13//7 8//7
f 8//8 13//8 9//8
f 9//9 13//9 10//9
f 10//10 13//10 11//10
f 11//11 13//11 12//11
f 12//12 13//12 14//12
f 14//13 13//13 15//13
f 15//14 13//14 16//14
f 16//15 13//15 17//15
f 17//16 13//16 1//16
f 8//17 12//17 17//17
f 17//17 1//17 2//17
f 2//17 3//17 4//17
f 4//17 5//17 6//17
f 6//17 7//17 4//17
f 7//17 8//17 4//17
f 8//18 9//18 10//18
f 10//17 11//17 12//17
f 12//17 14//17 17//17
f 14//17 15//17 17//17
f 15//17 16//17 17//17
f 17//17 2//17 4//17
f 8//17 10//17 12//17
f 17//17 4//17 8//17
