# Blender v2.83.0 OBJ File: ''
# www.blender.org
o Cone.007_Cone.1847
v 2.036756 -0.983978 2.638990
v 2.013063 -1.396769 2.572011
v 1.973637 -1.751639 2.353022
v 1.924481 -1.994562 2.015360
v 1.873077 -2.088557 1.610433
v 1.827252 -2.019312 1.199886
v 1.793982 -1.797370 0.846221
v 1.778332 -1.456520 0.603282
v 1.782685 -1.048652 0.508052
v 1.806377 -0.635862 0.575031
v 1.845803 -0.280991 0.794020
v -0.075053 -0.940420 1.807862
v 1.894960 -0.038068 1.131682
v 1.946363 0.055927 1.536609
v 1.992188 -0.013318 1.947157
v 2.025459 -0.235260 2.300821
v 2.041109 -0.576110 2.543761
vn -0.3655 -0.1286 0.9219
vn -0.3920 -0.4512 0.8017
vn -0.4292 -0.7024 0.5678
vn -0.4715 -0.8440 0.2558
vn -0.5123 -0.8544 -0.0869
vn -0.5456 -0.7320 -0.4081
vn -0.5661 -0.4955 -0.6588
vn -0.5709 -0.1809 -0.8009
vn -0.5591 0.1640 -0.8127
vn -0.5326 0.4865 -0.6926
vn -0.4953 0.7377 -0.4586
vn -0.4531 0.8793 -0.1466
vn -0.4122 0.8897 0.1961
vn -0.3790 0.7674 0.5172
vn -0.3584 0.5309 0.7679
vn -0.3537 0.2162 0.9100
vn 0.9924 -0.0379 -0.1172
vn 0.9924 -0.0380 -0.1172
s off
f 1//1 12//1 2//1
f 2//2 12//2 3//2
f 3//3 12//3 4//3
f 4//4 12//4 5//4
f 5//5 12//5 6//5
f 6//6 12//6 7//6
f 7//7 12//7 8//7
f 8//8 12//8 9//8
f 9//9 12//9 10//9
f 10//10 12//10 11//10
f 11//11 12//11 13//11
f 13//12 12//12 14//12
f 14//13 12//13 15//13
f 15//14 12//14 16//14
f 16//15 12//15 17//15
f 17//16 12//16 1//16
f 15//17 17//17 8//17
f 17//17 1//17 2//17
f 2//18 3//18 4//18
f 4//18 5//18 6//18
f 6//17 7//17 4//17
f 7//17 8//17 4//17
f 8//17 9//17 10//17
f 10//17 11//17 13//17
f 13//18 14//18 15//18
f 15//17 16//17 17//17
f 17//17 2//17 8//17
f 2//17 4//17 8//17
f 8//17 10//17 13//17
f 13//17 15//17 8//17
