# Blender v2.83.0 OBJ File: ''
# www.blender.org
o Cone.043_Cone.1883
v -1.364266 -1.555537 -2.645864
v -0.920627 -1.086166 -2.503592
v -0.451003 -0.773845 -2.158230
v -0.026891 -0.666121 -1.662356
v 0.287141 -0.779393 -1.091463
v 0.443287 -1.096419 -0.532465
v 0.417773 -1.568932 -0.070462
v 0.214484 -2.124998 0.224207
v -0.135631 -2.679960 0.306684
v -0.579270 -3.149331 0.164412
v -1.048894 -3.461652 -0.180950
v -2.156009 -1.085301 -0.191302
v -1.473006 -3.569376 -0.676823
v -1.787039 -3.456104 -1.247717
v -1.943184 -3.139078 -1.806715
v -1.917670 -2.666564 -2.268718
v -1.714381 -2.110498 -2.563388
vn -0.6310 0.6986 -0.3374
vn -0.4197 0.8794 -0.2246
vn -0.2130 0.9766 -0.0300
vn -0.0423 0.9753 0.2168
vn 0.0665 0.8758 0.4781
vn 0.0967 0.6932 0.7143
vn 0.0438 0.4552 0.8893
vn -0.0842 0.1983 0.9765
vn -0.2678 -0.0387 0.9627
vn -0.4791 -0.2195 0.8499
vn -0.6858 -0.3166 0.6553
vn -0.8565 -0.3154 0.4086
vn -0.9653 -0.2158 0.1472
vn -0.9955 -0.0332 -0.0889
vn -0.9426 0.2047 -0.2640
vn -0.8146 0.4617 -0.3512
vn 0.7030 -0.5162 -0.4891
s off
f 1//1 12//1 2//1
f 2//2 12//2 3//2
f 3//3 12//3 4//3
f 4//4 12//4 5//4
f 5//5 12//5 6//5
f 6//6 12//6 7//6
f 7//7 12//7 8//7
f 8//8 12//8 9//8
f 9//9 12//9 10//9
f 10//10 12//10 11//10
f 11//11 12//11 13//11
f 13//12 12//12 14//12
f 14//13 12//13 15//13
f 15//14 12//14 16//14
f 16//15 12//15 17//15
f 17//16 12//16 1//16
f 8//17 13//17 17//17
f 17//17 1//17 2//17
f 2//17 3//17 4//17
f 4//17 5//17 6//17
f 6//17 7//17 8//17
f 8//17 9//17 10//17
f 10//17 11//17 8//17
f 11//17 13//17 8//17
f 13//17 14//17 15//17
f 15//17 16//17 13//17
f 16//17 17//17 13//17
f 17//17 2//17 8//17
f 2//17 4//17 8//17
f 4//17 6//17 8//17
