# Blender v2.83.0 OBJ File: ''
# www.blender.org
o Cone.040_Cone.1880
v -0.087796 0.544013 1.633395
v -0.279943 0.193333 2.009925
v -0.266376 -0.216400 2.375448
v -0.049159 -0.622808 2.674317
v 0.338637 -0.964017 2.861032
v 0.837976 -1.188083 2.907167
v 1.372836 -1.260893 2.805699
v 1.861790 -1.171362 2.572074
v 2.230400 -0.933122 2.241861
v 2.422548 -0.582441 1.865331
v 2.408981 -0.172708 1.499807
v 2.191764 0.233699 1.200938
v 0.619231 -1.499814 0.491278
v 1.803967 0.574909 1.014223
v 1.304629 0.798975 0.968088
v 0.769768 0.871785 1.069557
v 0.280814 0.782254 1.303182
vn -0.8766 -0.0350 -0.4800
vn -0.9298 -0.2617 -0.2588
vn -0.8610 -0.5049 -0.0608
vn -0.6807 -0.7277 0.0839
vn -0.4163 -0.8962 0.1533
vn -0.1081 -0.9847 0.1368
vn 0.1971 -0.9797 0.0370
vn 0.4526 -0.8820 -0.1311
vn 0.6198 -0.7065 -0.3417
vn 0.6730 -0.4799 -0.5629
vn 0.6042 -0.2366 -0.7609
vn 0.4239 -0.0138 -0.9056
vn 0.1595 0.1547 -0.9750
vn -0.1487 0.2432 -0.9585
vn -0.4539 0.2382 -0.8586
vn -0.7095 0.1405 -0.6906
vn 0.2260 0.6526 0.7232
s off
f 1//1 13//1 2//1
f 2//2 13//2 3//2
f 3//3 13//3 4//3
f 4//4 13//4 5//4
f 5//5 13//5 6//5
f 6//6 13//6 7//6
f 7//7 13//7 8//7
f 8//8 13//8 9//8
f 9//9 13//9 10//9
f 10//10 13//10 11//10
f 11//11 13//11 12//11
f 12//12 13//12 14//12
f 14//13 13//13 15//13
f 15//14 13//14 16//14
f 16//15 13//15 17//15
f 17//16 13//16 1//16
f 4//17 8//17 12//17
f 17//17 1//17 2//17
f 2//17 3//17 4//17
f 4//17 5//17 6//17
f 6//17 7//17 8//17
f 8//17 9//17 10//17
f 10//17 11//17 12//17
f 12//17 14//17 17//17
f 14//17 15//17 17//17
f 15//17 16//17 17//17
f 17//17 2//17 4//17
f 4//17 6//17 8//17
f 8//17 10//17 12//17
f 17//17 4//17 12//17
