# Blender v2.83.0 OBJ File: ''
# www.blender.org
o Cone.011_Cone.1851
v 2.321425 0.234525 -0.582167
v 2.326938 -0.006905 -0.605370
v 2.332072 -0.221076 -0.719222
v 2.336046 -0.375380 -0.906389
v 2.338256 -0.446327 -1.138379
v 2.338364 -0.423116 -1.379871
v 2.336355 -0.309280 -1.594102
v 2.332534 -0.122151 -1.748456
v 2.327483 0.109784 -1.819435
v 2.321970 0.351215 -1.796232
v 2.316836 0.565385 -1.682381
v 2.312862 0.719689 -1.495213
v 0.324971 0.127007 -1.206038
v 2.310652 0.790637 -1.263224
v 2.310544 0.767425 -1.021731
v 2.312553 0.653590 -0.807500
v 2.316374 0.466460 -0.653146
vn -0.2920 -0.0981 0.9514
vn -0.2837 -0.4554 0.8439
vn -0.2765 -0.7444 0.6078
vn -0.2717 -0.9210 0.2791
vn -0.2699 -0.9585 -0.0922
vn -0.2713 -0.8510 -0.4496
vn -0.2759 -0.6150 -0.7387
vn -0.2829 -0.2863 -0.9154
vn -0.2912 0.0849 -0.9529
vn -0.2995 0.4422 -0.8454
vn -0.3066 0.7312 -0.6093
vn -0.3115 0.9079 -0.2806
vn -0.3133 0.9453 0.0907
vn -0.3118 0.8378 0.4481
vn -0.3073 0.6018 0.7372
vn -0.3003 0.2731 0.9139
vn 0.9997 0.0226 0.0026
s off
f 1//1 13//1 2//1
f 2//2 13//2 3//2
f 3//3 13//3 4//3
f 4//4 13//4 5//4
f 5//5 13//5 6//5
f 6//6 13//6 7//6
f 7//7 13//7 8//7
f 8//8 13//8 9//8
f 9//9 13//9 10//9
f 10//10 13//10 11//10
f 11//11 13//11 12//11
f 12//12 13//12 14//12
f 14//13 13//13 15//13
f 15//14 13//14 16//14
f 16//15 13//15 17//15
f 17//16 13//16 1//16
f 8//17 12//17 17//17
f 17//17 1//17 2//17
f 2//17 3//17 17//17
f 3//17 4//17 17//17
f 4//17 5//17 6//17
f 6//17 7//17 8//17
f 8//17 9//17 10//17
f 10//17 11//17 8//17
f 11//17 12//17 8//17
f 12//17 14//17 17//17
f 14//17 15//17 17//17
f 15//17 16//17 17//17
f 4//17 6//17 17//17
f 6//17 8//17 17//17
