# Blender v2.83.0 OBJ File: ''
# www.blender.org
o Cone.033_Cone.1873
v -2.149405 -0.419510 -0.263826
v -2.173588 -0.757163 -0.154735
v -2.231061 -1.026416 0.070421
v -2.313074 -1.186277 0.377364
v -2.407140 -1.212409 0.719363
v -2.498940 -1.100834 1.044354
v -2.574497 -0.868537 1.302859
v -2.622309 -0.550885 1.455523
v -2.635097 -0.196237 1.479105
v -2.610913 0.141416 1.370013
v -2.553440 0.410669 1.144858
v -0.464811 -0.273799 1.140383
v -2.471427 0.570530 0.837915
v -2.377361 0.596662 0.495915
v -2.285561 0.485087 0.170924
v -2.210004 0.252790 -0.087581
v -2.162192 -0.064862 -0.240245
vn 0.6289 -0.2794 -0.7255
vn 0.5872 -0.5893 -0.5548
vn 0.5160 -0.8084 -0.2832
vn 0.4261 -0.9034 0.0482
vn 0.3312 -0.8598 0.3887
vn 0.2458 -0.6842 0.6867
vn 0.1828 -0.4034 0.8966
vn 0.1518 -0.0601 0.9866
vn 0.1576 0.2934 0.9429
vn 0.1993 0.6032 0.7723
vn 0.2706 0.8223 0.5006
vn 0.3605 0.9173 0.1692
vn 0.4554 0.8737 -0.1713
vn 0.5408 0.6981 -0.4692
vn 0.6038 0.4173 -0.6792
vn 0.6347 0.0740 -0.7692
vn -0.9637 -0.0170 -0.2664
s off
f 1//1 12//1 2//1
f 2//2 12//2 3//2
f 3//3 12//3 4//3
f 4//4 12//4 5//4
f 5//5 12//5 6//5
f 6//6 12//6 7//6
f 7//7 12//7 8//7
f 8//8 12//8 9//8
f 9//9 12//9 10//9
f 10//10 12//10 11//10
f 11//11 12//11 13//11
f 13//12 12//12 14//12
f 14//13 12//13 15//13
f 15//14 12//14 16//14
f 16//15 12//15 17//15
f 17//16 12//16 1//16
f 8//17 13//17 17//17
f 17//17 1//17 2//17
f 2//17 3//17 4//17
f 4//17 5//17 6//17
f 6//17 7//17 4//17
f 7//17 8//17 4//17
f 8//17 9//17 13//17
f 9//17 10//17 13//17
f 10//17 11//17 13//17
f 13//17 14//17 15//17
f 15//17 16//17 17//17
f 17//17 2//17 4//17
f 13//17 15//17 17//17
f 17//17 4//17 8//17
