# Blender v2.83.0 OBJ File: ''
# www.blender.org
o Cone.013_Cone.1853
v -0.051160 1.047197 -1.096894
v 0.017726 1.028004 -0.876387
v -0.001113 0.987942 -0.648842
v -0.104811 0.933110 -0.448899
v -0.277579 0.871856 -0.306998
v -0.493116 0.813505 -0.244743
v -0.718608 0.766941 -0.271611
v -0.919726 0.739252 -0.383511
v -0.992916 2.819431 -0.526583
v -1.065851 0.734654 -0.563408
v -1.134738 0.753847 -0.783914
v -1.115899 0.793908 -1.011460
v -1.012201 0.848740 -1.211403
v -0.839433 0.909994 -1.353303
v -0.623896 0.968345 -1.415559
v -0.398403 1.014910 -1.388691
v -0.197285 1.042599 -1.276791
vn 0.8319 0.5114 -0.2154
vn 0.8732 0.4626 0.1537
vn 0.7722 0.3844 0.5059
vn 0.5444 0.2888 0.7875
vn 0.2245 0.1902 0.9557
vn -0.1388 0.1038 0.9849
vn -0.4902 0.0426 0.8705
vn -0.7763 0.0160 0.6302
vn -0.9534 0.0281 0.3003
vn -0.9947 0.0769 -0.0688
vn -0.8937 0.1550 -0.4210
vn -0.6660 0.2507 -0.7026
vn -0.3461 0.3492 -0.8708
vn 0.0173 0.4356 -0.9000
vn 0.3687 0.4968 -0.7856
vn 0.6548 0.5234 -0.5452
vn 0.2172 -0.9643 -0.1518
s off
f 1//1 9//1 2//1
f 2//2 9//2 3//2
f 3//3 9//3 4//3
f 4//4 9//4 5//4
f 5//5 9//5 6//5
f 6//6 9//6 7//6
f 7//7 9//7 8//7
f 8//8 9//8 10//8
f 10//9 9//9 11//9
f 11//10 9//10 12//10
f 12//11 9//11 13//11
f 13//12 9//12 14//12
f 14//13 9//13 15//13
f 15//14 9//14 16//14
f 16//15 9//15 17//15
f 17//16 9//16 1//16
f 15//17 17//17 8//17
f 17//17 1//17 2//17
f 2//17 3//17 4//17
f 4//17 5//17 6//17
f 6//17 7//17 8//17
f 8//17 10//17 11//17
f 11//17 12//17 13//17
f 13//17 14//17 15//17
f 15//17 16//17 17//17
f 17//17 2//17 8//17
f 2//17 4//17 8//17
f 4//17 6//17 8//17
f 8//17 11//17 13//17
f 13//17 15//17 8//17
