# Blender v2.83.0 OBJ File: ''
# www.blender.org
o Cone.019_Cone.1859
v -0.589230 -0.823735 0.551512
v -0.453929 -0.957000 0.758398
v -0.387079 -1.026366 1.022191
v -0.398855 -1.021273 1.302731
v -0.487465 -0.942496 1.557309
v -0.639419 -0.802028 1.747167
v -0.831584 -0.621254 1.843402
v -1.034703 -0.427695 1.831361
v -1.217854 -0.250819 1.712879
v -1.353155 -0.117554 1.505994
v -1.420005 -0.048188 1.242201
v -1.408229 -0.053281 0.961660
v 0.475032 0.911355 1.163764
v -1.319619 -0.132058 0.707083
v -1.167665 -0.272527 0.517224
v -0.975500 -0.453301 0.420990
v -0.772381 -0.646859 0.433030
vn 0.7397 -0.2306 -0.6323
vn 0.8747 -0.3659 -0.3179
vn 0.9115 -0.4089 0.0457
vn 0.8444 -0.3528 0.4031
vn 0.6837 -0.2064 0.6999
vn 0.4539 0.0082 0.8910
vn 0.1899 0.2582 0.9473
vn -0.0681 0.5056 0.8601
vn -0.2808 0.7127 0.6428
vn -0.4158 0.8481 0.3284
vn -0.4526 0.8910 -0.0352
vn -0.3856 0.8350 -0.3926
vn -0.2249 0.6886 -0.6894
vn 0.0049 0.4740 -0.8805
vn 0.2690 0.2240 -0.9367
vn 0.5270 -0.0234 -0.8496
vn -0.6893 -0.7243 -0.0158
s off
f 1//1 13//1 2//1
f 2//2 13//2 3//2
f 3//3 13//3 4//3
f 4//4 13//4 5//4
f 5//5 13//5 6//5
f 6//6 13//6 7//6
f 7//7 13//7 8//7
f 8//8 13//8 9//8
f 9//9 13//9 10//9
f 10//10 13//10 11//10
f 11//11 13//11 12//11
f 12//12 13//12 14//12
f 14//13 13//13 15//13
f 15//14 13//14 16//14
f 16//15 13//15 17//15
f 17//16 13//16 1//16
f 17//17 4//17 8//17
f 17//17 1//17 4//17
f 1//17 2//17 4//17
f 2//17 3//17 4//17
f 4//17 5//17 8//17
f 5//17 6//17 8//17
f 6//17 7//17 8//17
f 8//17 9//17 12//17
f 9//17 10//17 12//17
f 10//17 11//17 12//17
f 12//17 14//17 15//17
f 15//17 16//17 17//17
f 12//17 15//17 8//17
f 15//17 17//17 8//17
