# Blender v2.83.0 OBJ File: ''
# www.blender.org
o Cone.036_Cone.1876
v 0.407440 2.004171 -0.939964
v 0.244633 2.030497 -1.470703
v 0.178872 1.862961 -1.996527
v 0.220170 1.527069 -2.437383
v 0.362237 1.073956 -2.726155
v 0.583447 0.572606 -2.818881
v 0.850122 0.099345 -2.701443
v 1.121663 -0.273778 -2.391720
v 1.356730 -0.489958 -1.936866
v 1.519537 -0.516284 -1.406126
v 1.585298 -0.348748 -0.880303
v 1.544001 -0.012856 -0.439446
v 2.620781 1.615043 -1.929212
v 1.401933 0.440257 -0.150674
v 1.180723 0.941607 -0.057948
v 0.914048 1.414868 -0.175386
v 0.642507 1.787991 -0.485109
vn 0.1715 0.9852 -0.0037
vn 0.1045 0.9437 -0.3138
vn 0.0973 0.7960 -0.5974
vn 0.1511 0.5645 -0.8115
vn 0.2577 0.2845 -0.9234
vn 0.4008 -0.0015 -0.9162
vn 0.5587 -0.2498 -0.7908
vn 0.7074 -0.4227 -0.5665
vn 0.8241 -0.4939 -0.2773
vn 0.8912 -0.4524 0.0327
vn 0.8984 -0.3047 0.3163
vn 0.8446 -0.0732 0.5304
vn 0.7380 0.2068 0.6424
vn 0.5948 0.4928 0.6351
vn 0.4369 0.7411 0.5098
vn 0.2883 0.9140 0.2854
vn -0.8693 -0.4290 0.2454
s off
f 1//1 13//1 2//1
f 2//2 13//2 3//2
f 3//3 13//3 4//3
f 4//4 13//4 5//4
f 5//5 13//5 6//5
f 6//6 13//6 7//6
f 7//7 13//7 8//7
f 8//8 13//8 9//8
f 9//9 13//9 10//9
f 10//10 13//10 11//10
f 11//11 13//11 12//11
f 12//12 13//12 14//12
f 14//13 13//13 15//13
f 15//14 13//14 16//14
f 16//15 13//15 17//15
f 17//16 13//16 1//16
f 8//17 12//17 17//17
f 17//17 1//17 2//17
f 2//17 3//17 4//17
f 4//17 5//17 8//17
f 5//17 6//17 8//17
f 6//17 7//17 8//17
f 8//17 9//17 10//17
f 10//17 11//17 12//17
f 12//17 14//17 15//17
f 15//17 16//17 17//17
f 17//17 2//17 8//17
f 2//17 4//17 8//17
f 8//17 10//17 12//17
f 12//17 15//17 17//17
