# Blender v2.83.0 OBJ File: ''
# www.blender.org
o Cone.031_Cone.1871
v 0.428770 1.632109 -0.001997
v 0.413170 1.766799 0.439189
v 0.373022 1.723856 0.896982
v 0.314439 1.509817 1.301687
v 0.246339 1.157268 1.591690
v 0.179090 0.719881 1.722843
v 0.122931 0.264245 1.675176
v 0.086411 -0.140275 1.455949
v 0.075089 -0.432093 1.098535
v 0.090689 -0.566783 0.657349
v 0.130837 -0.523840 0.199556
v -1.725573 0.859343 0.399171
v 0.189420 -0.309801 -0.205149
v 0.257520 0.042749 -0.495153
v 0.324769 0.480136 -0.626305
v 0.380928 0.935772 -0.578638
v 0.417448 1.340292 -0.359411
vn -0.3701 0.8848 -0.2832
vn -0.3909 0.9190 0.0519
vn -0.4277 0.8232 0.3734
vn -0.4749 0.6120 0.6324
vn -0.5254 0.3175 0.7894
vn -0.5714 -0.0154 0.8205
vn -0.6059 -0.3361 0.7211
vn -0.6238 -0.5956 0.5061
vn -0.6222 -0.7546 0.2084
vn -0.6014 -0.7888 -0.1267
vn -0.5646 -0.6930 -0.4483
vn -0.5174 -0.4818 -0.7072
vn -0.4669 -0.1874 -0.8642
vn -0.4209 0.1455 -0.8954
vn -0.3863 0.4662 -0.7959
vn -0.3685 0.7258 -0.5809
vn 0.9888 -0.1297 0.0745
s off
f 1//1 12//1 2//1
f 2//2 12//2 3//2
f 3//3 12//3 4//3
f 4//4 12//4 5//4
f 5//5 12//5 6//5
f 6//6 12//6 7//6
f 7//7 12//7 8//7
f 8//8 12//8 9//8
f 9//9 12//9 10//9
f 10//10 12//10 11//10
f 11//11 12//11 13//11
f 13//12 12//12 14//12
f 14//13 12//13 15//13
f 15//14 12//14 16//14
f 16//15 12//15 17//15
f 17//16 12//16 1//16
f 17//17 4//17 8//17
f 17//17 1//17 4//17
f 1//17 2//17 4//17
f 2//17 3//17 4//17
f 4//17 5//17 6//17
f 6//17 7//17 4//17
f 7//17 8//17 4//17
f 8//17 9//17 10//17
f 10//17 11//17 8//17
f 11//17 13//17 8//17
f 13//17 14//17 15//17
f 15//17 16//17 17//17
f 13//17 15//17 8//17
f 15//17 17//17 8//17
