# Blender v2.83.0 OBJ File: ''
# www.blender.org
o Cone.021_Cone.1861
v -1.313096 -1.453794 -1.376000
v -1.149915 -2.044832 -1.351250
v -0.837862 -2.539532 -1.165611
v -0.424446 -2.862580 -0.847345
v 0.027396 -2.964795 -0.444905
v 0.448874 -2.830617 -0.019560
v 0.775822 -2.480471 0.363937
v 0.958466 -1.967665 0.647200
v 0.968999 -1.370270 0.787107
v 0.805818 -0.779232 0.762356
v 0.493766 -0.284531 0.576717
v 1.180787 -1.098798 -1.733794
v 0.080349 0.038517 0.258451
v -0.371493 0.140732 -0.143989
v -0.792971 0.006554 -0.569334
v -1.119920 -0.343592 -0.952831
v -1.302563 -0.856399 -1.236094
vn -0.1308 -0.0775 -0.9884
vn -0.0088 -0.3562 -0.9344
vn 0.1774 -0.5661 -0.8050
vn 0.3995 -0.6752 -0.6201
vn 0.6237 -0.6670 -0.4076
vn 0.8158 -0.5427 -0.2000
vn 0.9466 -0.3212 -0.0288
vn 0.9962 -0.0362 0.0798
vn 0.9570 0.2688 0.1093
vn 0.8350 0.5475 0.0553
vn 0.6488 0.7574 -0.0740
vn 0.4267 0.8665 -0.2590
vn 0.2025 0.8583 -0.4715
vn 0.0104 0.7340 -0.6791
vn -0.1204 0.5125 -0.8502
vn -0.1700 0.2275 -0.9588
vn -0.6764 -0.1566 0.7197
s off
f 1//1 12//1 2//1
f 2//2 12//2 3//2
f 3//3 12//3 4//3
f 4//4 12//4 5//4
f 5//5 12//5 6//5
f 6//6 12//6 7//6
f 7//7 12//7 8//7
f 8//8 12//8 9//8
f 9//9 12//9 10//9
f 10//10 12//10 11//10
f 11//11 12//11 13//11
f 13//12 12//12 14//12
f 14//13 12//13 15//13
f 15//14 12//14 16//14
f 16//15 12//15 17//15
f 17//16 12//16 1//16
f 4//17 8//17 13//17
f 17//17 1//17 4//17
f 1//17 2//17 4//17
f 2//17 3//17 4//17
f 4//17 5//17 8//17
f 5//17 6//17 8//17
f 6//17 7//17 8//17
f 8//17 9//17 10//17
f 10//17 11//17 8//17
f 11//17 13//17 8//17
f 13//17 14//17 15//17
f 15//17 16//17 13//17
f 16//17 17//17 13//17
f 17//17 4//17 13//17
