# Blender v2.83.0 OBJ File: ''
# www.blender.org
o Cone.023_Cone.1863
v 1.108683 0.510468 -1.622369
v 1.105988 0.204958 -1.459110
v 0.980630 -0.053002 -1.264844
v 0.751696 -0.224140 -1.069146
v 0.454037 -0.282400 -0.901808
v 0.132969 -0.218915 -0.788307
v -0.162626 -0.043348 -0.745922
v -0.387749 0.217571 -0.781106
v 1.050969 1.385831 0.382279
v -0.508126 0.524121 -0.888502
v -0.505430 0.829631 -1.051760
v -0.380073 1.087591 -1.246026
v -0.151138 1.258728 -1.441724
v 0.146521 1.316989 -1.609062
v 0.467588 1.253504 -1.722563
v 0.763184 1.077937 -1.764948
v 0.988307 0.817017 -1.729764
vn 0.9996 0.0053 0.0265
vn 0.9322 -0.2913 0.2147
vn 0.7457 -0.5173 0.4200
vn 0.4684 -0.6380 0.6111
vn 0.1427 -0.6353 0.7590
vn -0.1820 -0.5094 0.8411
vn -0.4561 -0.2796 0.8449
vn -0.6380 0.0191 0.7698
vn -0.7000 0.3414 0.6273
vn -0.6326 0.6380 0.4391
vn -0.4460 0.8640 0.2338
vn -0.1688 0.9847 0.0426
vn 0.1570 0.9820 -0.1052
vn 0.4816 0.8561 -0.1873
vn 0.7558 0.6263 -0.1911
vn 0.9377 0.3276 -0.1160
vn -0.3753 -0.4343 -0.8189
s off
f 1//1 9//1 2//1
f 2//2 9//2 3//2
f 3//3 9//3 4//3
f 4//4 9//4 5//4
f 5//5 9//5 6//5
f 6//6 9//6 7//6
f 7//7 9//7 8//7
f 8//8 9//8 10//8
f 10//9 9//9 11//9
f 11//10 9//10 12//10
f 12//11 9//11 13//11
f 13//12 9//12 14//12
f 14//13 9//13 15//13
f 15//14 9//14 16//14
f 16//15 9//15 17//15
f 17//16 9//16 1//16
f 17//17 4//17 8//17
f 17//17 1//17 4//17
f 1//17 2//17 4//17
f 2//17 3//17 4//17
f 4//17 5//17 6//17
f 6//17 7//17 8//17
f 8//17 10//17 11//17
f 11//17 12//17 13//17
f 13//17 14//17 15//17
f 15//17 16//17 17//17
f 4//17 6//17 8//17
f 8//17 11//17 17//17
f 11//17 13//17 17//17
f 13//17 15//17 17//17
