# Blender v2.83.0 OBJ File: ''
# www.blender.org
o Cone.041_Cone.1881
v 0.496328 3.283145 -1.017761
v 0.601889 3.587433 -0.445698
v 0.878406 3.701364 0.138723
v 1.283781 3.607594 0.646530
v 1.756300 3.320397 1.000414
v 2.224027 2.883497 1.146499
v 2.615753 2.363409 1.062545
v 2.871843 1.839310 0.761333
v 2.953309 1.390990 0.288720
v 2.847748 1.086702 -0.283342
v 2.571231 0.972771 -0.867764
v 0.358727 1.166980 0.509945
v 2.165856 1.066541 -1.375571
v 1.693336 1.353738 -1.729455
v 1.225610 1.790638 -1.875540
v 0.833883 2.310727 -1.791586
v 0.577793 2.834826 -1.490373
vn -0.9843 0.1410 0.1066
vn -0.8950 0.2387 0.3769
vn -0.7356 0.2434 0.6322
vn -0.5304 0.1544 0.8336
vn -0.3107 -0.0148 0.9504
vn -0.1098 -0.2385 0.9649
vn 0.0416 -0.4825 0.8749
vn 0.1205 -0.7098 0.6941
vn 0.1148 -0.8857 0.4499
vn 0.0255 -0.9834 0.1796
vn -0.1338 -0.9881 -0.0756
vn -0.3390 -0.8991 -0.2770
vn -0.5587 -0.7299 -0.3939
vn -0.7596 -0.5062 -0.4084
vn -0.9110 -0.2622 -0.3184
vn -0.9899 -0.0349 -0.1375
vn 0.6830 0.5850 -0.4372
s off
f 1//1 12//1 2//1
f 2//2 12//2 3//2
f 3//3 12//3 4//3
f 4//4 12//4 5//4
f 5//5 12//5 6//5
f 6//6 12//6 7//6
f 7//7 12//7 8//7
f 8//8 12//8 9//8
f 9//9 12//9 10//9
f 10//10 12//10 11//10
f 11//11 12//11 13//11
f 13//12 12//12 14//12
f 14//13 12//13 15//13
f 15//14 12//14 16//14
f 16//15 12//15 17//15
f 17//16 12//16 1//16
f 8//17 13//17 17//17
f 17//17 1//17 2//17
f 2//17 3//17 4//17
f 4//17 5//17 6//17
f 6//17 7//17 8//17
f 8//17 9//17 10//17
f 10//17 11//17 13//17
f 13//17 14//17 15//17
f 15//17 16//17 13//17
f 16//17 17//17 13//17
f 17//17 2//17 4//17
f 4//17 6//17 8//17
f 8//17 10//17 13//17
f 17//17 4//17 8//17
