# Blender v2.83.0 OBJ File: ''
# www.blender.org
o Cone.018_Cone.1858
v 1.389622 0.504462 -2.961312
v 1.235146 0.022739 -2.996044
v 0.978072 -0.396796 -2.873450
v 0.657537 -0.690273 -2.612195
v 0.322340 -0.813012 -2.252052
v 0.023510 -0.746328 -1.847849
v -0.193457 -0.500373 -1.461123
v -0.295531 -0.112591 -1.150749
v -0.267172 0.357981 -0.963979
v -0.112697 0.839704 -0.929247
v 0.144377 1.259239 -1.051841
v 0.464912 1.552716 -1.313096
v 2.057750 -0.135181 -0.762812
v 0.800110 1.675456 -1.673240
v 1.098940 1.608772 -2.077443
v 1.315907 1.362816 -2.464169
v 1.417981 0.975034 -2.774543
vn 0.8991 -0.2631 -0.3498
vn 0.7630 -0.5612 -0.3207
vn 0.5719 -0.7971 -0.1938
vn 0.3550 -0.9348 0.0118
vn 0.1452 -0.9533 0.2647
vn -0.0254 -0.8499 0.5263
vn -0.1309 -0.6403 0.7569
vn -0.1553 -0.3563 0.9214
vn -0.0948 -0.0413 0.9946
vn 0.0413 0.2568 0.9656
vn 0.2324 0.4927 0.8386
vn 0.4493 0.6304 0.6330
vn 0.6591 0.6489 0.3802
vn 0.8297 0.5455 0.1185
vn 0.9352 0.3359 -0.1121
vn 0.9596 0.0519 -0.2765
vn -0.7483 0.2832 -0.5999
s off
f 1//1 13//1 2//1
f 2//2 13//2 3//2
f 3//3 13//3 4//3
f 4//4 13//4 5//4
f 5//5 13//5 6//5
f 6//6 13//6 7//6
f 7//7 13//7 8//7
f 8//8 13//8 9//8
f 9//9 13//9 10//9
f 10//10 13//10 11//10
f 11//11 13//11 12//11
f 12//12 13//12 14//12
f 14//13 13//13 15//13
f 15//14 13//14 16//14
f 16//15 13//15 17//15
f 17//16 13//16 1//16
f 8//17 12//17 17//17
f 17//17 1//17 2//17
f 2//17 3//17 17//17
f 3//17 4//17 17//17
f 4//17 5//17 6//17
f 6//17 7//17 8//17
f 8//17 9//17 12//17
f 9//17 10//17 12//17
f 10//17 11//17 12//17
f 12//17 14//17 17//17
f 14//17 15//17 17//17
f 15//17 16//17 17//17
f 4//17 6//17 17//17
f 6//17 8//17 17//17
