# Blender v2.83.0 OBJ File: ''
# www.blender.org
o Cone.037_Cone.1877
v 1.260275 0.425313 0.251091
v 0.910522 0.720020 0.335305
v 0.557755 1.007087 0.238252
v 0.255679 1.242810 -0.025294
v 0.050283 1.391303 -0.415209
v -0.027165 1.429958 -0.872133
v 0.035128 1.352890 -1.326503
v 0.227677 1.171834 -1.709145
v 0.521168 0.914352 -1.961805
v 0.870921 0.619645 -2.046019
v 1.223688 0.332578 -1.948966
v 1.525764 0.096855 -1.685420
v 2.166102 2.208014 -0.941403
v 1.731161 -0.051638 -1.295505
v 1.808608 -0.090293 -0.838581
v 1.746315 -0.013225 -0.384211
v 1.553766 0.167831 -0.001569
vn 0.4656 0.3163 0.8265
vn 0.2061 0.5312 0.8218
vn -0.0357 0.7242 0.6886
vn -0.2231 0.8661 0.4473
vn -0.3275 0.9352 0.1346
vn -0.3331 0.9210 -0.2019
vn -0.2390 0.8257 -0.5110
vn -0.0595 0.6638 -0.7456
vn 0.1780 0.4599 -0.8700
vn 0.4374 0.2450 -0.8652
vn 0.6792 0.0520 -0.7321
vn 0.8666 -0.0899 -0.4908
vn 0.9711 -0.1590 -0.1780
vn 0.9767 -0.1448 0.1585
vn 0.8826 -0.0495 0.4676
vn 0.7031 0.1124 0.7021
vn -0.6377 -0.7691 0.0430
s off
f 1//1 13//1 2//1
f 2//2 13//2 3//2
f 3//3 13//3 4//3
f 4//4 13//4 5//4
f 5//5 13//5 6//5
f 6//6 13//6 7//6
f 7//7 13//7 8//7
f 8//8 13//8 9//8
f 9//9 13//9 10//9
f 10//10 13//10 11//10
f 11//11 13//11 12//11
f 12//12 13//12 14//12
f 14//13 13//13 15//13
f 15//14 13//14 16//14
f 16//15 13//15 17//15
f 17//16 13//16 1//16
f 17//17 4//17 8//17
f 17//17 1//17 2//17
f 2//17 3//17 4//17
f 4//17 5//17 6//17
f 6//17 7//17 8//17
f 8//17 9//17 10//17
f 10//17 11//17 12//17
f 12//17 14//17 15//17
f 15//17 16//17 12//17
f 16//17 17//17 12//17
f 17//17 2//17 4//17
f 4//17 6//17 8//17
f 8//17 10//17 17//17
f 10//17 12//17 17//17
