# Blender v2.83.0 OBJ File: ''
# www.blender.org
o Cone.042_Cone.1882
v -0.392675 -2.034790 0.748634
v -0.476444 -1.769209 0.763731
v -0.588764 -1.529137 0.676970
v -0.712537 -1.351122 0.501560
v -0.828919 -1.262265 0.264204
v -0.920191 -1.276094 0.001039
v -0.972459 -1.390503 -0.247872
v -0.977766 -1.588075 -0.444633
v -0.935302 -1.838731 -0.559290
v -0.851534 -2.104311 -0.574388
v -0.739213 -2.344383 -0.487627
v -0.615440 -2.522398 -0.312217
v 1.127849 -1.334457 -0.558435
v -0.499059 -2.611256 -0.074861
v -0.407786 -2.597427 0.188304
v -0.355518 -2.483017 0.437215
v -0.350212 -2.285445 0.633977
vn 0.6052 0.1464 0.7825
vn 0.4732 0.4868 0.7343
vn 0.3143 0.7682 0.5578
vn 0.1527 0.9478 0.2800
vn 0.0129 0.9983 -0.0569
vn -0.0837 0.9120 -0.4016
vn -0.1225 0.7020 -0.7016
vn -0.0975 0.4003 -0.9112
vn -0.0125 0.0528 -0.9985
vn 0.1195 -0.2875 -0.9503
vn 0.2784 -0.5689 -0.7738
vn 0.4400 -0.7486 -0.4960
vn 0.5798 -0.7991 -0.1591
vn 0.6764 -0.7127 0.1856
vn 0.7152 -0.5028 0.4855
vn 0.6902 -0.2011 0.6952
vn -0.8959 -0.3012 0.3266
vn -0.8959 -0.3012 0.3265
s off
f 1//1 13//1 2//1
f 2//2 13//2 3//2
f 3//3 13//3 4//3
f 4//4 13//4 5//4
f 5//5 13//5 6//5
f 6//6 13//6 7//6
f 7//7 13//7 8//7
f 8//8 13//8 9//8
f 9//9 13//9 10//9
f 10//10 13//10 11//10
f 11//11 13//11 12//11
f 12//12 13//12 14//12
f 14//13 13//13 15//13
f 15//14 13//14 16//14
f 16//15 13//15 17//15
f 17//16 13//16 1//16
f 17//17 4//17 8//17
f 17//17 1//17 4//17
f 1//17 2//17 4//17
f 2//17 3//17 4//17
f 4//17 5//17 6//17
f 6//17 7//17 8//17
f 8//17 9//17 10//17
f 10//18 11//18 12//18
f 12//17 14//17 15//17
f 15//17 16//17 17//17
f 4//17 6//17 8//17
f 8//17 10//17 12//17
f 12//17 15//17 8//17
f 15//17 17//17 8//17
